<svg xmlns="http://www.w3.org/2000/svg" viewBox="0 0 400 400" role="img" aria-label="Gero Nexus">
  <defs>
    <linearGradient id="gn-tl" x1="283.7" y1="135.9" x2="28.4" y2="94.5" gradientUnits="userSpaceOnUse"><stop offset="0%" stop-color="#5F78D0"/><stop offset="50%" stop-color="#5C77D4"/><stop offset="100%" stop-color="#504AAB"/></linearGradient>
    <linearGradient id="gn-tr" x1="313.2" y1="40.3" x2="268.8" y2="275.3" gradientUnits="userSpaceOnUse"><stop offset="0%" stop-color="#44A8B4"/><stop offset="50%" stop-color="#51B6BA"/><stop offset="100%" stop-color="#4A9ADA"/></linearGradient>
    <linearGradient id="gn-bl" x1="129.9" y1="123.6" x2="87.3" y2="358.9" gradientUnits="userSpaceOnUse"><stop offset="0%" stop-color="#4CA5E3"/><stop offset="50%" stop-color="#47A4E7"/><stop offset="100%" stop-color="#2C7ABE"/></linearGradient>
    <linearGradient id="gn-br" x1="371.2" y1="305.0" x2="116.2" y2="261.9" gradientUnits="userSpaceOnUse"><stop offset="0%" stop-color="#554DB0"/><stop offset="50%" stop-color="#7B6CDC"/><stop offset="100%" stop-color="#7C6ED8"/></linearGradient>
  </defs>
  <path d="M120.05,35.30Q122.56,35.15 126.58,35.82Q130.61,36.49 135.63,38.43Q140.66,40.37 159.27,53.87Q177.87,67.37 200.00,85.01Q222.13,102.65 240.73,118.68Q259.34,134.71 269.22,143.92Q279.10,153.13 279.46,153.98Q279.81,154.83 279.46,155.79Q279.10,156.76 272.23,164.30Q265.37,171.84 256.82,179.84Q248.27,187.84 246.77,188.88Q245.26,189.93 243.75,189.93Q242.24,189.93 225.14,174.45Q208.05,158.97 187.93,141.87Q167.82,124.77 146.19,108.28Q124.57,91.78 122.56,90.47Q120.55,89.16 119.04,88.87Q117.53,88.59 103.45,100.15Q89.37,111.70 84.52,116.63Q79.67,121.55 79.30,122.56Q78.93,123.57 79.49,125.07Q80.04,126.58 89.41,138.65Q98.78,150.72 99.59,152.73Q100.41,154.74 98.91,156.74Q97.41,158.74 93.89,161.78Q90.38,164.82 78.82,176.35Q67.27,187.87 65.95,188.69Q64.62,189.52 63.82,189.11Q63.02,188.71 55.79,179.77Q48.55,170.83 38.56,156.25Q28.57,141.67 26.83,136.14Q25.09,130.61 25.09,124.07Q25.09,117.53 25.78,114.51Q26.47,111.50 28.45,106.97Q30.43,102.45 33.80,97.93Q37.16,93.42 63.26,70.38Q89.37,47.34 91.89,45.45Q94.40,43.57 98.42,41.37Q102.45,39.17 106.47,37.83Q110.49,36.49 114.01,35.97Q117.53,35.46 120.05,35.30Z" fill="url(#gn-tl)"/>
  <path d="M278.95,35.30Q283.47,35.15 286.99,35.82Q290.51,36.48 297.55,39.81Q304.59,43.13 315.15,51.77Q325.71,60.41 342.81,75.44Q359.91,90.46 362.72,93.44Q365.52,96.41 368.55,101.44Q371.58,106.47 373.18,112.00Q374.79,117.53 374.85,123.06Q374.91,128.59 373.75,133.62Q372.59,138.65 369.54,144.18Q366.49,149.71 357.08,162.29Q347.66,174.86 338.15,185.92Q328.65,196.98 319.64,206.54Q310.63,216.09 299.06,227.11Q287.50,238.13 271.36,252.32Q255.23,266.50 252.76,268.28Q250.29,270.05 249.28,270.25Q248.27,270.46 246.77,269.72Q245.26,268.99 240.73,265.47Q236.21,261.96 224.15,251.55Q212.10,241.15 211.10,239.68Q210.09,238.22 210.29,237.22Q210.49,236.23 227.88,221.09Q245.26,205.95 263.32,188.90Q281.38,171.84 296.31,154.74Q311.23,137.65 315.27,132.11Q319.31,126.58 319.79,124.57Q320.27,122.56 318.93,120.56Q317.58,118.56 311.59,113.06Q305.60,107.56 294.03,97.98Q282.47,88.41 281.46,88.35Q280.46,88.29 279.45,88.80Q278.45,89.30 265.87,98.94Q253.30,108.57 251.29,109.22Q249.28,109.87 247.77,109.06Q246.26,108.24 230.67,95.19Q215.09,82.13 213.29,80.42Q211.50,78.71 211.30,77.94Q211.10,77.18 216.11,72.81Q221.12,68.44 238.72,55.11Q256.32,41.77 259.84,39.94Q263.36,38.10 268.89,36.78Q274.42,35.46 278.95,35.30Z" fill="url(#gn-tr)"/>
  <path d="M150.72,128.29Q151.73,128.21 152.73,128.66Q153.74,129.10 163.79,137.09Q173.85,145.09 181.32,151.62Q188.79,158.15 189.35,159.37Q189.91,160.59 186.91,163.66Q183.91,166.73 162.29,185.42Q140.66,204.11 125.59,219.15Q110.52,234.19 98.50,248.78Q86.48,263.36 83.13,268.39Q79.77,273.42 79.52,274.93Q79.26,276.43 80.31,277.93Q81.36,279.43 87.88,285.43Q94.40,291.44 105.97,300.79Q117.53,310.15 118.54,310.27Q119.54,310.39 120.55,309.91Q121.55,309.44 134.52,299.34Q147.50,289.23 148.71,288.67Q149.92,288.12 151.33,288.86Q152.74,289.60 168.82,303.16Q184.91,316.72 186.71,318.39Q188.50,320.05 188.70,320.81Q188.90,321.57 180.88,328.47Q172.85,335.38 157.26,346.94Q141.67,358.50 136.14,360.62Q130.61,362.74 127.59,363.29Q124.57,363.85 120.55,363.79Q116.53,363.72 110.49,362.40Q104.46,361.08 98.42,357.77Q92.39,354.46 74.29,339.04Q56.18,323.62 46.64,314.61Q37.10,305.60 33.77,301.07Q30.43,296.55 28.73,292.53Q27.02,288.50 26.06,284.48Q25.09,280.46 25.15,274.42Q25.21,268.39 26.52,263.86Q27.84,259.34 31.17,253.30Q34.51,247.27 43.03,235.70Q51.55,224.14 59.44,214.58Q67.33,205.03 83.38,188.48Q99.43,171.92 111.50,160.92Q123.57,149.92 134.13,140.87Q144.69,131.82 147.20,130.09Q149.71,128.37 150.72,128.29Z" fill="url(#gn-bl)"/>
  <path d="M155.75,207.87Q156.75,207.87 157.76,208.52Q158.77,209.17 168.82,218.56Q178.88,227.95 207.54,252.50Q236.21,277.04 256.82,292.82Q277.44,308.59 279.45,309.40Q281.46,310.22 283.47,309.21Q285.49,308.19 292.02,302.77Q298.56,297.35 304.60,291.91Q310.63,286.47 315.44,281.45Q320.25,276.43 320.50,275.43Q320.74,274.42 320.01,272.91Q319.27,271.41 310.12,259.84Q300.97,248.27 299.97,246.26Q298.96,244.25 299.80,242.76Q300.63,241.26 304.62,237.72Q308.62,234.19 320.29,222.18Q331.96,210.17 332.86,209.52Q333.76,208.88 334.66,208.88Q335.56,208.88 339.88,213.99Q344.19,219.11 356.00,235.20Q367.81,251.29 369.99,255.31Q372.16,259.34 373.48,264.37Q374.79,269.39 374.89,273.92Q374.99,278.45 374.79,280.46Q374.59,282.47 373.27,286.99Q371.95,291.52 369.35,296.05Q366.74,300.57 361.82,306.09Q356.89,311.61 331.75,333.51Q306.61,355.40 301.07,358.15Q295.54,360.89 289.01,362.31Q282.47,363.72 279.45,363.72Q276.43,363.72 270.40,362.41Q264.37,361.10 258.33,357.79Q252.30,354.48 225.65,333.87Q198.99,313.25 179.89,297.25Q160.78,281.26 140.84,263.25Q120.90,245.25 120.54,244.25Q120.19,243.25 120.54,242.24Q120.90,241.23 125.80,235.70Q130.69,230.17 137.18,223.68Q143.68,217.18 149.21,212.53Q154.74,207.87 155.75,207.87Z" fill="url(#gn-br)"/>
</svg>
