<svg id="Layer_28" data-name="Layer 28" xmlns="http://www.w3.org/2000/svg" viewBox="0 0 705.56 808.26"><defs><style>.cls-1,.cls-4{fill:#44bba4;}.cls-1{opacity:0.1;isolation:isolate;}.cls-2{fill:#0033ad;}.cls-3{fill:#ff5553;}.cls-5{fill:#fcdfa6;}.cls-6{fill:#232323;}.cls-7{fill:none;stroke:#fff;stroke-miterlimit:10;stroke-width:2.5px;}.cls-8{fill:#fff;}</style></defs><path class="cls-1" d="M978.4,926.4l-1.7-773h0a17.54,17.54,0,0,0-16.6-17.5,18,18,0,0,0-9.8,2.3h0L616,332.3h0a16.93,16.93,0,0,0-5.8,5.5,17.12,17.12,0,0,0-2.9,9.6h0l.9,386.5h0a16.93,16.93,0,0,0,1.9,7.8A17.42,17.42,0,0,0,617,749h0L952.1,941.5h0a16.89,16.89,0,0,0,7.7,2.3,17.65,17.65,0,0,0,18.6-16.6v-.8Z" transform="translate(-607.22 -135.87)"/><path class="cls-2" d="M976.7,154.5A17.63,17.63,0,1,0,958.1,171,17.45,17.45,0,0,0,976.7,154.5Z" transform="translate(-607.22 -135.87)"/><path class="cls-2" d="M1280.4,722.9a17.63,17.63,0,1,0,24.4-5.1A17.63,17.63,0,0,0,1280.4,722.9Z" transform="translate(-607.22 -135.87)"/><path class="cls-3" d="M1280.4,335.6a17.63,17.63,0,1,0,24.4-5.1A17.63,17.63,0,0,0,1280.4,335.6Z" transform="translate(-607.22 -135.87)"/><path class="cls-4" d="M978.4,927.5a17.63,17.63,0,1,0-18.6,16.6A17.72,17.72,0,0,0,978.4,927.5Z" transform="translate(-607.22 -135.87)"/><path class="cls-5" d="M639.6,357.1a17.63,17.63,0,1,0-24.4,5A17.63,17.63,0,0,0,639.6,357.1Z" transform="translate(-607.22 -135.87)"/><path class="cls-2" d="M641.4,726.1a17.58,17.58,0,1,0-7.8,23.6A17.52,17.52,0,0,0,641.4,726.1Z" transform="translate(-607.22 -135.87)"/><ellipse class="cls-6" cx="488.98" cy="553.63" rx="85.4" ry="28.4"/><rect class="cls-3" x="159.18" y="417.13" width="164.9" height="45.7"/><circle class="cls-2" cx="488.98" cy="381.33" r="160.3"/><circle class="cls-5" cx="241.58" cy="295.03" r="160.3"/><path class="cls-4" d="M931.3,696a160.3,160.3,0,0,1-82.4,69.9A160.48,160.48,0,0,0,1044.1,696Z" transform="translate(-607.22 -135.87)"/><path class="cls-4" d="M766.4,696H653.6a160.48,160.48,0,0,0,195.2,69.9A160.69,160.69,0,0,1,766.4,696Z" transform="translate(-607.22 -135.87)"/><rect class="cls-3" x="159.18" y="473.53" width="164.9" height="27.5"/><polygon class="cls-4" points="255.78 754.73 255.78 560.13 228.28 560.13 228.28 738.93 255.78 754.73"/><polygon class="cls-3" points="324.08 514.23 159.18 514.23 192.28 541.63 290.98 541.63 324.08 514.23"/><path class="cls-7" d="M863,547.3c0-74.7,32.2-130.4,46.8-155.4" transform="translate(-607.22 -135.87)"/><path class="cls-7" d="M788.7,361c10.1,0,10.1,17.6,20.2,17.6S819,361,829.1,361s10.1,17.6,20.2,17.6S859.4,361,869.5,361s10.1,17.6,20.2,17.6S899.8,361,909.9,361" transform="translate(-607.22 -135.87)"/><path class="cls-7" d="M835.5,547.3c0-74.7-32.2-130.4-46.8-155.4" transform="translate(-607.22 -135.87)"/><path class="cls-8" d="M1166.1,551.1a7.35,7.35,0,0,0-7.5-6.7h-21.2l-5.8-14.7h13.1a7.35,7.35,0,0,0,7.5-6.7,7,7,0,0,0-6.9-7.3h-19.2l-24-60.5a7,7,0,0,0-6.5-4.4,7.19,7.19,0,0,0-6.5,4.4l-23,60.4h-18.8a7.35,7.35,0,0,0-7.5,6.7,7,7,0,0,0,6.9,7.3h13.7l-5.6,14.6h-21a7.35,7.35,0,0,0-7.5,6.7,7,7,0,0,0,6.9,7.3h16.1L1030.5,607a7.05,7.05,0,0,0,4,9.1,5.07,5.07,0,0,0,2.4.4,6.89,6.89,0,0,0,6.5-4.4l20.8-53.8h63.3l21.6,54.4a6.7,6.7,0,0,0,6.5,4.4,11.71,11.71,0,0,0,2.6-.4,6.92,6.92,0,0,0,3.8-9.1l-19.6-49.2h15.9C1163,558.3,1166.3,555.1,1166.1,551.1Zm-70.2-73.8,15.1,38.3h-29.8l14.7-38.3Zm-26,67.1,5.6-14.7h40.7l5.8,14.7h-52.1Z" transform="translate(-607.22 -135.87)"/><path class="cls-8" d="M1009.1,430.9a160.32,160.32,0,0,0-6.1-44.1,160.72,160.72,0,0,0-61,174.5A160,160,0,0,0,1009.1,430.9Z" transform="translate(-607.22 -135.87)"/><path class="cls-2" d="M1136.2,311.6c0-.1-.1-.1,0,0h0a14.68,14.68,0,0,0-12.4,3.3,13.15,13.15,0,0,1-16.8-2.3h0a14.35,14.35,0,0,0-21.6,0h0a13.12,13.12,0,0,1-17.7,1.7h0a14.53,14.53,0,0,0-11.5-2.7h-.2a14.49,14.49,0,0,0-11.4,17,14.31,14.31,0,0,0,8.3,10.4h0c11.1,4.9,10,21-1.6,24.4l15.7-3.1,4.4,19.1,51.5,2.5,4-21.3,14,2.7a13,13,0,0,1-2.4-24,14.33,14.33,0,0,0,9.2-10.8A14.58,14.58,0,0,0,1136.2,311.6Z" transform="translate(-607.22 -135.87)"/></svg>