<svg id="Layer_23" data-name="Layer 23" xmlns="http://www.w3.org/2000/svg" viewBox="0 0 705.56 808.26"><defs><style>.cls-1,.cls-5{fill:#44bba4;}.cls-1{opacity:0.1;isolation:isolate;}.cls-2{fill:#0033ad;}.cls-3{fill:#232323;}.cls-4{fill:#ff5553;}.cls-6{fill:#fcdfa6;}.cls-7{fill:#fff;}</style></defs><path class="cls-1" d="M978.4,926.4l-1.7-773h0a17.54,17.54,0,0,0-16.6-17.5,18,18,0,0,0-9.8,2.3h0L616,332.3h0a16.93,16.93,0,0,0-5.8,5.5,17.12,17.12,0,0,0-2.9,9.6h0l.9,386.5h0a16.93,16.93,0,0,0,1.9,7.8A17.42,17.42,0,0,0,617,749h0L952.1,941.5h0a16.89,16.89,0,0,0,7.7,2.3,17.65,17.65,0,0,0,18.6-16.6v-.8Z" transform="translate(-607.22 -135.87)"/><path class="cls-2" d="M976.7,154.5A17.63,17.63,0,1,0,958.1,171,17.45,17.45,0,0,0,976.7,154.5Z" transform="translate(-607.22 -135.87)"/><path class="cls-3" d="M1278.6,353.9a17.58,17.58,0,1,0,7.8-23.6A17.52,17.52,0,0,0,1278.6,353.9Z" transform="translate(-607.22 -135.87)"/><path class="cls-4" d="M1280.4,722.9a17.63,17.63,0,1,0,24.4-5.1A17.63,17.63,0,0,0,1280.4,722.9Z" transform="translate(-607.22 -135.87)"/><path class="cls-5" d="M978.4,927.5a17.63,17.63,0,1,0-18.6,16.6A17.72,17.72,0,0,0,978.4,927.5Z" transform="translate(-607.22 -135.87)"/><path class="cls-5" d="M639.6,357.1a17.63,17.63,0,1,0-24.4,5A17.63,17.63,0,0,0,639.6,357.1Z" transform="translate(-607.22 -135.87)"/><path class="cls-6" d="M641.4,726.1a17.58,17.58,0,1,0-7.8,23.6A17.52,17.52,0,0,0,641.4,726.1Z" transform="translate(-607.22 -135.87)"/><path class="cls-3" d="M978.4,844.8V910c54.5-2.5,96.2-16.2,96.2-32.6S1033,847.4,978.4,844.8Z" transform="translate(-607.22 -135.87)"/><circle class="cls-5" cx="352.78" cy="404.13" r="120.5"/><circle class="cls-5" cx="352.78" cy="580.53" r="165.8"/><circle class="cls-2" cx="352.78" cy="229.93" r="165.8"/><path class="cls-7" d="M960,660.5a120.55,120.55,0,0,0,109-69,165.69,165.69,0,0,0-218,0A120.55,120.55,0,0,0,960,660.5Z" transform="translate(-607.22 -135.87)"/><path class="cls-7" d="M1069.7,490.1a120.53,120.53,0,0,0-219.4,0,165.74,165.74,0,0,0,219.4,0Z" transform="translate(-607.22 -135.87)"/><rect class="cls-5" x="135.08" y="186.43" width="87.1" height="87.1"/><path class="cls-3" d="M897,368.6,879.6,386a3.92,3.92,0,0,1-6.7-2.8V348.3a3.94,3.94,0,0,1,6.7-2.8L897,363A3.87,3.87,0,0,1,897,368.6Z" transform="translate(-607.22 -135.87)"/><path class="cls-3" d="M897,717l-17.4,17.4a3.92,3.92,0,0,1-6.7-2.8V696.7a3.94,3.94,0,0,1,6.7-2.8L897,711.3A4,4,0,0,1,897,717Z" transform="translate(-607.22 -135.87)"/><path class="cls-3" d="M1071.2,717l-17.4,17.4a3.92,3.92,0,0,1-6.7-2.8V696.7a3.94,3.94,0,0,1,6.7-2.8l17.4,17.4A4,4,0,0,1,1071.2,717Z" transform="translate(-607.22 -135.87)"/><path class="cls-3" d="M1035.8,537.2l17.4-17.4a3.92,3.92,0,0,1,6.7,2.8v34.9a3.94,3.94,0,0,1-6.7,2.8l-17.4-17.4A4.17,4.17,0,0,1,1035.8,537.2Z" transform="translate(-607.22 -135.87)"/><path class="cls-7" d="M960,409.4h0a43.53,43.53,0,0,1-43.5-43.5h0A43.53,43.53,0,0,1,960,322.4h0a43.53,43.53,0,0,1,43.5,43.5h0A43.53,43.53,0,0,1,960,409.4Z" transform="translate(-607.22 -135.87)"/><rect class="cls-6" x="309.28" y="360.63" width="87.1" height="87.1"/><path class="cls-7" d="M960,757.7h0a43.53,43.53,0,0,1-43.5-43.5h0A43.53,43.53,0,0,1,960,670.7h0a43.53,43.53,0,0,1,43.5,43.5h0A43.53,43.53,0,0,1,960,757.7Z" transform="translate(-607.22 -135.87)"/><rect class="cls-4" x="483.38" y="534.73" width="87.1" height="87.1"/><path class="cls-7" d="M852.4,283a13.64,13.64,0,0,1,6.3-1.2,12.19,12.19,0,0,1,6.1,2.2l8.5,5.8a11.65,11.65,0,0,1,4.2,4.9,13.64,13.64,0,0,1,1.2,6.3,12.19,12.19,0,0,1-2.2,6.1l-1.3,1.9a11.65,11.65,0,0,1-4.9,4.2,13.64,13.64,0,0,1-6.3,1.2,12.19,12.19,0,0,1-6.1-2.2l-8.5-5.8a11.65,11.65,0,0,1-4.2-4.9,13.64,13.64,0,0,1-1.2-6.3,12.19,12.19,0,0,1,2.2-6.1l1.3-1.9A12.52,12.52,0,0,1,852.4,283Zm-.2,12.1a3.94,3.94,0,0,0,1.7,2.5l10.6,7.3a3.85,3.85,0,0,0,2.9.7,3.18,3.18,0,0,0,2.5-1.5,3.31,3.31,0,0,0,.5-2.9,3.94,3.94,0,0,0-1.7-2.5l-10.6-7.3a3.85,3.85,0,0,0-2.9-.7,3.18,3.18,0,0,0-2.5,1.5A4.12,4.12,0,0,0,852.2,295.1Z" transform="translate(-607.22 -135.87)"/><path class="cls-7" d="M894.1,277.4l5.6-4.7,4.9,5.9-19,15.8-4.9-5.9,5.8-4.9-10.2-12.3-5.8,4.9-3.7-4.4a22,22,0,0,0,4.3-5.9,30.71,30.71,0,0,0,3-7.2l2.6-2.1Z" transform="translate(-607.22 -135.87)"/><path class="cls-7" d="M912.1,238.7a12.43,12.43,0,0,1,10.1,7.4l4.2,9.4a12.9,12.9,0,0,1,1,6.4A12.43,12.43,0,0,1,920,272l-2.1.9a12.9,12.9,0,0,1-6.4,1,12.43,12.43,0,0,1-10.1-7.4l-4.2-9.4a12.9,12.9,0,0,1-1-6.4,12,12,0,0,1,2.3-6,12.9,12.9,0,0,1,5.1-4.1l2.1-.9A12.72,12.72,0,0,1,912.1,238.7Zm-6.5,10.2a3.92,3.92,0,0,0,.2,3l5.2,11.8a4.49,4.49,0,0,0,2.1,2.2,3.65,3.65,0,0,0,2.9,0,3.39,3.39,0,0,0,2-2.2,3.92,3.92,0,0,0-.2-3l-5.2-11.8a4.49,4.49,0,0,0-2.1-2.2,3.65,3.65,0,0,0-2.9,0A3.61,3.61,0,0,0,905.6,248.9Z" transform="translate(-607.22 -135.87)"/><path class="cls-7" d="M948.7,230.5a11,11,0,0,1,5.1,3.9,11.53,11.53,0,0,1,2.5,6l1.4,10.2a12.63,12.63,0,0,1-.8,6.4,11,11,0,0,1-3.9,5.1,11.53,11.53,0,0,1-6,2.5l-2.2.3a12.63,12.63,0,0,1-6.4-.8,11,11,0,0,1-5.1-3.9,11.53,11.53,0,0,1-2.5-6L929.4,244a12.63,12.63,0,0,1,.8-6.4,11,11,0,0,1,3.9-5.1,11.53,11.53,0,0,1,6-2.5l2.2-.3A11.64,11.64,0,0,1,948.7,230.5Zm-9,8a4.35,4.35,0,0,0-.7,2.9l1.8,12.7a4,4,0,0,0,1.4,2.7,3.66,3.66,0,0,0,5.3-.7,4.35,4.35,0,0,0,.7-2.9l-1.8-12.7a3.73,3.73,0,0,0-1.5-2.7,3.48,3.48,0,0,0-2.8-.8A3.16,3.16,0,0,0,939.7,238.5Z" transform="translate(-607.22 -135.87)"/><path class="cls-7" d="M986.2,232.6a13.93,13.93,0,0,1,3.9,5.1,12.77,12.77,0,0,1,.8,6.4l-1.4,10.2a13.28,13.28,0,0,1-2.5,6,13.93,13.93,0,0,1-5.1,3.9,12.77,12.77,0,0,1-6.4.8l-2.2-.3a13.28,13.28,0,0,1-6-2.5,12.26,12.26,0,0,1-3.9-5.1,12.77,12.77,0,0,1-.8-6.4l1.4-10.2a13.28,13.28,0,0,1,2.5-6,13.93,13.93,0,0,1,5.1-3.9,12.77,12.77,0,0,1,6.4-.8l2.2.3A11.4,11.4,0,0,1,986.2,232.6Zm-10.9,5.2a4.61,4.61,0,0,0-1.5,2.6L972,253.1a3.66,3.66,0,0,0,.7,2.9,3.16,3.16,0,0,0,2.4,1.5,3.48,3.48,0,0,0,2.8-.8,4.61,4.61,0,0,0,1.5-2.6l1.8-12.7a3.66,3.66,0,0,0-.7-2.9,3.16,3.16,0,0,0-2.4-1.5A3.48,3.48,0,0,0,975.3,237.8Z" transform="translate(-607.22 -135.87)"/><path class="cls-7" d="M1021.7,244.8a12,12,0,0,1,2.3,6,12.9,12.9,0,0,1-1,6.4l-4.2,9.4a12.43,12.43,0,0,1-10.1,7.4,12.9,12.9,0,0,1-6.4-1l-2.1-.9a12.43,12.43,0,0,1-7.4-10.1,12.9,12.9,0,0,1,1-6.4l4.2-9.4a12.43,12.43,0,0,1,10.1-7.4,12.9,12.9,0,0,1,6.4,1l2.1.9A12.9,12.9,0,0,1,1021.7,244.8Zm-11.9,2.1a3.62,3.62,0,0,0-2.1,2.1l-5.2,11.7a4.44,4.44,0,0,0-.2,3,3.31,3.31,0,0,0,1.9,2.1,3.83,3.83,0,0,0,5-2.1l5.2-11.7a4.44,4.44,0,0,0,.2-3,3.53,3.53,0,0,0-4.8-2.1Z" transform="translate(-607.22 -135.87)"/><path class="cls-7" d="M1052.5,266.4a11.66,11.66,0,0,1,.6,6.4,12.77,12.77,0,0,1-2.7,5.9l-6.6,7.9a12.19,12.19,0,0,1-5.3,3.7,11.66,11.66,0,0,1-6.4.6,12.77,12.77,0,0,1-5.9-2.7l-1.7-1.4a12.19,12.19,0,0,1-3.7-5.3,11.66,11.66,0,0,1-.6-6.4,12.77,12.77,0,0,1,2.7-5.9l6.6-7.9a12.19,12.19,0,0,1,5.3-3.7,11.66,11.66,0,0,1,6.4-.6,12.77,12.77,0,0,1,5.9,2.7l1.7,1.4A13.38,13.38,0,0,1,1052.5,266.4Zm-12.1-1.3a3.53,3.53,0,0,0-2.6,1.5l-8.2,9.9a4.27,4.27,0,0,0-1,2.9,3.32,3.32,0,0,0,1.3,2.6,3.24,3.24,0,0,0,2.8.8,3.53,3.53,0,0,0,2.6-1.5l8.2-9.9a4.27,4.27,0,0,0,1-2.9,3.32,3.32,0,0,0-1.3-2.6A3.16,3.16,0,0,0,1040.4,265.1Z" transform="translate(-607.22 -135.87)"/><path class="cls-7" d="M1054.1,308.4l4.1,6-6.3,4.3L1038,298.3l6.3-4.3,4.3,6.3,13.2-9-4.3-6.3,4.7-3.2a22.45,22.45,0,0,0,5.5,4.9,39.12,39.12,0,0,0,6.9,3.7l1.9,2.8Z" transform="translate(-607.22 -135.87)"/><path class="cls-7" d="M880,781.8a12.9,12.9,0,0,1-1,6.4,12.57,12.57,0,0,1-4.1,5.1l-8.3,6.1a13.07,13.07,0,0,1-6.1,2.4,12.9,12.9,0,0,1-6.4-1,12.57,12.57,0,0,1-5.1-4.1l-1.3-1.8a13.07,13.07,0,0,1-2.4-6.1,12.9,12.9,0,0,1,1-6.4,12.57,12.57,0,0,1,4.1-5.1l8.3-6.1a13.07,13.07,0,0,1,6.1-2.4,12.9,12.9,0,0,1,6.4,1,12.57,12.57,0,0,1,5.1,4.1l1.3,1.8A12.85,12.85,0,0,1,880,781.8Zm-11.4-4.2a4.28,4.28,0,0,0-2.9.8L855.3,786a3.8,3.8,0,0,0-1.6,2.5,3.47,3.47,0,0,0,.6,2.8,3.67,3.67,0,0,0,2.5,1.5,4.28,4.28,0,0,0,2.9-.8l10.4-7.6a4,4,0,0,0,1.6-2.5,3.63,3.63,0,0,0-3.1-4.3Z" transform="translate(-607.22 -135.87)"/><path class="cls-7" d="M883.2,819.2l5.7,4.6-4.8,6-19.3-15.5,4.8-6,5.9,4.8,10-12.5-5.9-4.8,3.6-4.5a25.41,25.41,0,0,0,6.6,3.1,38.63,38.63,0,0,0,7.7,1.5l2.6,2.1Z" transform="translate(-607.22 -135.87)"/><path class="cls-7" d="M925.1,813a13.13,13.13,0,0,1,2.4,6,11.87,11.87,0,0,1-1,6.4l-4.1,9.4a12.68,12.68,0,0,1-4,5.1,13.13,13.13,0,0,1-6,2.4,11.87,11.87,0,0,1-6.4-1l-2.1-.9a12.68,12.68,0,0,1-5.1-4,13.13,13.13,0,0,1-2.4-6,11.87,11.87,0,0,1,1-6.4l4.1-9.4a12.68,12.68,0,0,1,4-5.1,13.13,13.13,0,0,1,6-2.4,11.87,11.87,0,0,1,6.4,1l2.1.9A11.88,11.88,0,0,1,925.1,813Zm-11.9,2.1a3.79,3.79,0,0,0-2.1,2.2L906,829.1a3.91,3.91,0,0,0-.1,3,3.31,3.31,0,0,0,1.9,2.1,3.65,3.65,0,0,0,2.9,0,3.79,3.79,0,0,0,2.1-2.2l5.1-11.8a3.91,3.91,0,0,0,.1-3,3.31,3.31,0,0,0-1.9-2.1A3.65,3.65,0,0,0,913.2,815.1Z" transform="translate(-607.22 -135.87)"/><path class="cls-7" d="M952.2,818.7a13.48,13.48,0,0,1,3.9,5.2,13,13,0,0,1,.8,6.5l-1.5,10.2a12.42,12.42,0,0,1-2.6,6,13.48,13.48,0,0,1-5.2,3.9,13,13,0,0,1-6.5.8l-2.2-.3a12.42,12.42,0,0,1-6-2.6,13.48,13.48,0,0,1-3.9-5.2,13,13,0,0,1-.8-6.5l1.5-10.2a12.42,12.42,0,0,1,2.6-6,13.48,13.48,0,0,1,5.2-3.9,13,13,0,0,1,6.5-.8l2.2.3A12,12,0,0,1,952.2,818.7Zm-10.9,5.1a4.61,4.61,0,0,0-1.5,2.6L938,839.1a3.66,3.66,0,0,0,.7,2.9,3.53,3.53,0,0,0,5.2.7,4.61,4.61,0,0,0,1.5-2.6l1.8-12.7a4,4,0,0,0-.7-3,3.16,3.16,0,0,0-2.4-1.5A4.47,4.47,0,0,0,941.3,823.8Z" transform="translate(-607.22 -135.87)"/><path class="cls-7" d="M979.8,817.1a12.47,12.47,0,0,1,7.5,10l1.2,10.2a11.55,11.55,0,0,1-.9,6.4,12.47,12.47,0,0,1-10,7.5l-2.2.3a11.55,11.55,0,0,1-6.4-.9,12.47,12.47,0,0,1-7.5-10l-1.2-10.2a11.55,11.55,0,0,1,.9-6.4,13.19,13.19,0,0,1,4-5.1,12.12,12.12,0,0,1,6-2.4l2.2-.3A11.55,11.55,0,0,1,979.8,817.1Zm-9.2,7.8a3.75,3.75,0,0,0-.7,2.9l1.5,12.8a4,4,0,0,0,1.4,2.7,3.44,3.44,0,0,0,2.7.9,3.18,3.18,0,0,0,2.5-1.5,3.75,3.75,0,0,0,.7-2.9L977.2,827a4,4,0,0,0-1.4-2.7,3.44,3.44,0,0,0-2.7-.9A3.89,3.89,0,0,0,970.6,824.9Z" transform="translate(-607.22 -135.87)"/><path class="cls-7" d="M1014,832.6l6.8-2.7,2.9,7.1-22.9,9.3-2.9-7.1,7-2.9-6-14.8-7,2.9-2.2-5.3a21.44,21.44,0,0,0,5.9-4.3,45.24,45.24,0,0,0,5.1-6l3.1-1.3Z" transform="translate(-607.22 -135.87)"/><path class="cls-7" d="M1029.1,792.9a12.46,12.46,0,0,1,11.5,4.9l6.2,8.2a12.26,12.26,0,0,1,2.5,6,12.46,12.46,0,0,1-4.9,11.5l-1.8,1.4a12.26,12.26,0,0,1-6,2.5,12.46,12.46,0,0,1-11.5-4.9l-6.2-8.2a12.26,12.26,0,0,1-2.5-6,12.46,12.46,0,0,1,4.9-11.5l1.8-1.4A12.26,12.26,0,0,1,1029.1,792.9Zm-4,11.5a3.89,3.89,0,0,0,.9,2.9l7.8,10.2a4,4,0,0,0,2.6,1.6,3.19,3.19,0,0,0,2.8-.7,3.56,3.56,0,0,0,1.4-2.6,3.89,3.89,0,0,0-.9-2.9l-7.8-10.2a4,4,0,0,0-2.6-1.6,3.19,3.19,0,0,0-2.8.7A3.76,3.76,0,0,0,1025.1,804.4Z" transform="translate(-607.22 -135.87)"/><path class="cls-7" d="M1047.3,772.1a12.77,12.77,0,0,1,6.4-.8,12.26,12.26,0,0,1,6,2.5l8.2,6.3a11.77,11.77,0,0,1,3.9,5.2,12.77,12.77,0,0,1,.8,6.4,12.26,12.26,0,0,1-2.5,6l-1.4,1.8a11.77,11.77,0,0,1-5.2,3.9,12.77,12.77,0,0,1-6.4.8,12.26,12.26,0,0,1-6-2.5l-8.2-6.3a11.77,11.77,0,0,1-3.9-5.2,12.77,12.77,0,0,1-.8-6.4,12.26,12.26,0,0,1,2.5-6l1.4-1.8A12.57,12.57,0,0,1,1047.3,772.1Zm-.8,12.1a4.26,4.26,0,0,0,1.6,2.6l10.2,7.9a3.89,3.89,0,0,0,2.9.9,3.08,3.08,0,0,0,2.5-1.4,3.19,3.19,0,0,0,.7-2.8,4.26,4.26,0,0,0-1.6-2.6l-10.2-7.9a3.89,3.89,0,0,0-2.9-.9,3.08,3.08,0,0,0-2.5,1.4A3.11,3.11,0,0,0,1046.5,784.2Z" transform="translate(-607.22 -135.87)"/><path class="cls-3" d="M1090.6,543.9h-43.5V536h43.5a83.2,83.2,0,1,0,0-166.4h-87.1v-7.9h87.1a91.07,91.07,0,0,1,91,91C1181.6,502.9,1140.8,543.9,1090.6,543.9Z" transform="translate(-607.22 -135.87)"/><path class="cls-3" d="M872.9,718.1H829.4a91,91,0,0,1,0-182h87.1V544H829.4a83.2,83.2,0,1,0,0,166.4h43.5Z" transform="translate(-607.22 -135.87)"/><rect class="cls-3" x="396.28" y="575.13" width="43.5" height="7.9"/><rect class="cls-3" x="222.18" y="226.03" width="43.5" height="7.9"/><path class="cls-7" d="M1035.8,537.2l17.4-17.4a3.92,3.92,0,0,1,6.7,2.8v34.9a3.94,3.94,0,0,1-6.7,2.8l-17.4-17.4A4.17,4.17,0,0,1,1035.8,537.2Z" transform="translate(-607.22 -135.87)"/><path class="cls-7" d="M1080.5,536.1h-33.4V544h33.4c0-1.3.1-2.6.1-3.9S1080.5,537.4,1080.5,536.1Z" transform="translate(-607.22 -135.87)"/><path class="cls-7" d="M916.5,536.1H839.6c0,1.3-.1,2.6-.1,3.9s0,2.6.1,3.9h76.9Z" transform="translate(-607.22 -135.87)"/></svg>