<?xml version="1.0" encoding="utf-8"?>
<!-- Generator: Adobe Illustrator 25.0.0, SVG Export Plug-In . SVG Version: 6.00 Build 0)  -->
<svg version="1.1" id="Layer_11" xmlns="http://www.w3.org/2000/svg" xmlns:xlink="http://www.w3.org/1999/xlink" x="0px" y="0px"
	 viewBox="0 0 739.1 326" style="enable-background:new 0 0 739.1 326;" xml:space="preserve">
<style type="text/css">
	.st0{opacity:0.1;fill:#44BBA4;enable-background:new    ;}
	.st1{fill:#0033AD;}
	.st2{fill:#FF5553;}
	.st3{fill:#44BBA4;}
	.st4{fill:#FCDFA6;}
	.st5{fill:#232323;}
	.st6{fill:#FFFFFF;}
</style>
<path class="st0" d="M161.9,301.9l-0.6-270.5l0,0c0-3.3-2.6-6-5.8-6.1c-1.2-0.1-2.4,0.2-3.4,0.8l0,0L35,94l0,0
	c-0.8,0.5-1.5,1.1-2,1.9c-0.7,1-1,2.2-1,3.4l0,0l0.3,135.3l0,0c0,0.9,0.2,1.9,0.7,2.7c0.5,1.1,1.4,2,2.4,2.6l0,0l117.3,67.4l0,0
	c0.8,0.5,1.8,0.8,2.7,0.8c3.4,0.2,6.3-2.4,6.5-5.8L161.9,301.9L161.9,301.9z"/>
<path class="st1" d="M161.3,31.8c0.2-3.4-2.4-6.3-5.8-6.5c-3.4-0.2-6.3,2.4-6.5,5.8s2.4,6.3,5.8,6.5h0c3.4,0.2,6.3-2.3,6.5-5.7
	C161.3,31.9,161.3,31.8,161.3,31.8z"/>
<path class="st2" d="M266.9,101.6c1.5,3,5.2,4.3,8.3,2.7c3-1.5,4.3-5.2,2.7-8.3c-1.5-3-5.2-4.3-8.3-2.7l0,0
	C266.6,94.9,265.4,98.5,266.9,101.6L266.9,101.6z"/>
<path class="st3" d="M267.6,230.7c-1.9,2.8-1.1,6.7,1.8,8.5c2.8,1.9,6.7,1.1,8.5-1.8s1.1-6.7-1.8-8.5l0,0
	C273.3,227.1,269.4,227.9,267.6,230.7z"/>
<path class="st1" d="M161.9,302.3c0.2-3.4-2.4-6.3-5.8-6.5s-6.3,2.4-6.5,5.8c-0.2,3.4,2.4,6.3,5.8,6.5l0,0
	C158.7,308.3,161.6,305.7,161.9,302.3z"/>
<path class="st4" d="M43.3,102.7c1.9-2.8,1.1-6.7-1.8-8.5c-2.8-1.9-6.7-1.1-8.5,1.8c-1.9,2.8-1.1,6.7,1.8,8.5l0,0
	C37.6,106.3,41.4,105.5,43.3,102.7z"/>
<path class="st2" d="M43.9,231.8c-1.5-3-5.2-4.3-8.3-2.7c-3,1.5-4.3,5.2-2.7,8.3c1.5,3,5.2,4.3,8.3,2.7l0,0
	C44.2,238.6,45.4,234.9,43.9,231.8C43.9,231.9,43.9,231.9,43.9,231.8z"/>
<polygon class="st4" points="126.2,228.6 197.7,228.6 233.4,166.7 197.7,104.8 126.2,104.8 90.5,166.7 "/>
<polyline class="st5" points="138.3,218.3 126.2,228.6 197.7,228.6 233.3,198.2 184.9,198.2 138.3,218.3 "/>
<polygon class="st5" points="182,198.2 254.7,198.2 248.7,208.5 182,208.5 "/>
<polyline class="st3" points="138.3,207.6 126.2,228.6 197.7,228.6 233.3,166.7 184.9,166.7 138.3,207.6 "/>
<polygon class="st6" points="198.6,156.2 278.9,156.2 266.8,177.2 198.6,177.2 "/>
<polygon class="st3" points="187.9,177.2 273.1,177.2 261,198.2 187.9,198.2 "/>
<polygon class="st4" points="38.1,135.2 145.1,135.2 145.1,156.2 26,156.2 "/>
<polygon class="st2" points="197.7,104.8 185.5,125.8 203.1,156.2 227.3,156.2 "/>
<polygon class="st2" points="126.2,228.6 138.3,207.6 120.8,177.2 96.5,177.2 "/>
<rect x="90.4" y="145.5" transform="matrix(0.4998 -0.8661 0.8661 0.4998 -74.8661 161.6842)" class="st6" width="24.3" height="0.3"/>
<rect x="78.5" y="145.5" transform="matrix(0.4998 -0.8661 0.8661 0.4998 -80.8604 151.3849)" class="st6" width="24.3" height="0.3"/>
<rect x="66.6" y="145.5" transform="matrix(0.4998 -0.8661 0.8661 0.4998 -86.7977 141.0803)" class="st6" width="24.3" height="0.3"/>
<rect x="54.7" y="145.5" transform="matrix(0.4998 -0.8661 0.8661 0.4998 -92.7398 130.7359)" class="st6" width="24.3" height="0.3"/>
<rect x="42.8" y="145.5" transform="matrix(0.4998 -0.8661 0.8661 0.4998 -98.7311 120.4349)" class="st6" width="24.3" height="0.3"/>
<rect x="30.9" y="145.5" transform="matrix(0.4998 -0.8661 0.8661 0.4998 -104.6702 110.1273)" class="st6" width="24.3" height="0.3"/>
<rect x="179.4" y="115.1" transform="matrix(0.5003 -0.8659 0.8659 0.5003 -4.1203 223.4965)" class="st6" width="24.3" height="0.4"/>
<rect x="167.5" y="115.1" transform="matrix(0.5003 -0.8659 0.8659 0.5003 -10.0589 213.1564)" class="st6" width="24.3" height="0.4"/>
<rect x="155.6" y="115.1" transform="matrix(0.5003 -0.8659 0.8659 0.5003 -15.9945 202.8531)" class="st6" width="24.3" height="0.4"/>
<rect x="143.7" y="115.1" transform="matrix(0.4998 -0.8661 0.8661 0.4998 -21.9333 192.629)" class="st6" width="24.3" height="0.3"/>
<rect x="131.8" y="115.1" transform="matrix(0.4998 -0.8661 0.8661 0.4998 -27.8724 182.3214)" class="st6" width="24.3" height="0.3"/>
<rect x="119.7" y="136.1" transform="matrix(0.4998 -0.8661 0.8661 0.4998 -52.1029 182.3002)" class="st6" width="24.3" height="0.3"/>
<rect x="107.5" y="157.1" transform="matrix(0.4998 -0.8661 0.8661 0.4998 -76.3868 182.3253)" class="st6" width="24.3" height="0.3"/>
<rect x="119.9" y="115.1" transform="matrix(0.4998 -0.8661 0.8661 0.4998 -33.8145 172.012)" class="st6" width="24.3" height="0.3"/>
<rect x="107.7" y="136.1" transform="matrix(0.4998 -0.8661 0.8661 0.4998 -58.0954 172.0039)" class="st6" width="24.3" height="0.3"/>
<rect x="95.6" y="157.1" transform="matrix(0.4998 -0.8661 0.8661 0.4998 -82.3258 172.0177)" class="st6" width="24.3" height="0.3"/>
<rect x="99.9" y="119.8" transform="matrix(0.4998 -0.8661 0.8661 0.4998 -45.1904 161.6958)" class="st6" width="35.1" height="0.3"/>
<polygon class="st6" points="138.3,207.6 114.7,166.7 138.3,125.8 185.5,125.8 209.1,166.7 185.5,207.6 "/>
<circle class="st6" cx="145.8" cy="214.3" r="2.9"/>
<circle class="st6" cx="192.6" cy="223.5" r="2.9"/>
<circle class="st6" cx="203.7" cy="190.9" r="2.9"/>
<circle class="st6" cx="236" cy="181.4" r="2.9"/>
<circle class="st6" cx="246.5" cy="189.5" r="2.9"/>
<circle class="st6" cx="262.3" cy="185.8" r="1.8"/>
<circle class="st6" cx="229.5" cy="193.4" r="1.8"/>
<circle class="st6" cx="197" cy="202.3" r="1.8"/>
<circle class="st6" cx="179.4" cy="224.5" r="1.8"/>
<circle class="st6" cx="158.4" cy="213.6" r="1.8"/>
<circle class="st6" cx="144.6" cy="223.2" r="1.1"/>
<circle class="st6" cx="165.9" cy="221.5" r="1.1"/>
<circle class="st6" cx="191.6" cy="211.5" r="1.1"/>
<circle class="st6" cx="225.6" cy="181.4" r="1.1"/>
<circle class="st6" cx="255.2" cy="192.2" r="1.1"/>
<circle class="st6" cx="237.1" cy="193.8" r="1.1"/>
<circle class="st6" cx="211.2" cy="195.8" r="1.1"/>
<polygon class="st1" points="150.4,186.6 138.9,166.7 150.4,146.8 173.4,146.8 184.9,166.7 173.4,186.6 "/>
<polygon class="st6" points="123.4,177.2 20.2,177.2 32.3,156.2 121.5,156.2 "/>
</svg>
