<svg id="Layer_1" data-name="Layer 1" xmlns="http://www.w3.org/2000/svg" viewBox="0 0 1897.81 1148.11"><defs><style>.cls-1{fill:#e7f5f2;}.cls-1,.cls-10,.cls-11,.cls-12,.cls-13,.cls-14,.cls-15,.cls-16,.cls-17,.cls-19,.cls-2,.cls-20,.cls-21,.cls-22,.cls-23,.cls-24,.cls-25,.cls-26,.cls-27,.cls-28,.cls-29,.cls-3,.cls-30,.cls-31,.cls-32,.cls-34,.cls-35,.cls-37,.cls-38,.cls-39,.cls-4,.cls-40,.cls-41,.cls-42,.cls-43,.cls-45,.cls-46,.cls-6,.cls-7,.cls-8,.cls-9{fill-rule:evenodd;}.cls-2{fill:#c9e8e3;}.cls-3{fill:#ebf6f5;}.cls-4{fill:#bce3dc;}.cls-5{fill:#8ed1c4;}.cls-6{fill:#bac1a9;}.cls-7{fill:#99a089;}.cls-8{fill:#224e44;}.cls-9{fill:#347366;}.cls-10{fill:#6ead9f;}.cls-11{fill:#e6e6e5;}.cls-12{fill:#e17a71;}.cls-13{fill:#1a1a1a;}.cls-14{fill:#cb9932;}.cls-15,.cls-33{fill:#fff;}.cls-16{fill:#ed9a92;}.cls-17{fill:#e7f3e2;}.cls-18,.cls-34{fill:#9a6733;}.cls-19{fill:#68927c;}.cls-20{fill:#3a5848;}.cls-21{fill:#de746a;}.cls-22{fill:#e68981;}.cls-23{fill:#c85248;}.cls-24{fill:#521a17;}.cls-25{fill:#321513;}.cls-26{fill:#010101;}.cls-27{fill:#818181;}.cls-28{fill:#873f3b;}.cls-29{fill:#762b27;}.cls-30{fill:#d15044;}.cls-31{fill:#f07368;}.cls-32{fill:#f9b9b4;}.cls-35,.cls-36{fill:#edc87d;}.cls-37{fill:#517a65;}.cls-38{fill:#ffcd05;}.cls-39{fill:#fbe042;}.cls-40,.cls-44{fill:#f8991d;}.cls-41{fill:#2e6f61;}.cls-42{fill:#449281;}.cls-43{fill:#f9f06d;}.cls-45{fill:#55a191;}.cls-46{fill:#2c7968;}</style></defs><path class="cls-1" d="M333.88,559.71c43.53,8.7,65.9,80.36,50,160.07S319.73,857.05,276.21,848.36s-65.91-80.37-50-160.07S290.35,551,333.88,559.71M408,415.64c18.19,7.13,22.36,39.92,9.3,73.23s-38.38,54.55-56.58,47.42-22.36-39.92-9.3-73.23S389.77,408.51,408,415.64Zm1630.87,843L350,1259a251.55,251.55,0,0,1,67-371.78c-62.37-265.57,77.72-537.05,330.3-640.1s542.6-7,683.8,226.37a529.44,529.44,0,0,1,607.67,785.17Z" transform="translate(-221.1 -205.95)"/><path class="cls-2" d="M590.62,936.07A171.9,171.9,0,1,1,418.73,1108a171.9,171.9,0,0,1,171.89-171.9" transform="translate(-221.1 -205.95)"/><path class="cls-2" d="M1896.51,1042a112,112,0,1,1-112,112,112,112,0,0,1,112-112" transform="translate(-221.1 -205.95)"/><path class="cls-3" d="M938.4,321.46a68,68,0,1,1-68,68,68,68,0,0,1,68-68" transform="translate(-221.1 -205.95)"/><path class="cls-3" d="M1115,332.11a43.79,43.79,0,1,1-43.78,43.78A43.78,43.78,0,0,1,1115,332.11" transform="translate(-221.1 -205.95)"/><path class="cls-3" d="M1735.25,563.58a143.55,143.55,0,1,1-143.56,143.55,143.55,143.55,0,0,1,143.56-143.55" transform="translate(-221.1 -205.95)"/><path class="cls-4" d="M559,455.69h768.49a7,7,0,0,1,7,7V673.5h582v585.21H1312.46v-.4H559a7,7,0,0,1-7-7V462.65a7,7,0,0,1,7-7" transform="translate(-221.1 -205.95)"/><rect class="cls-5" x="1138.12" y="507.8" width="242.35" height="101.1"/><rect class="cls-5" x="1415.35" y="507.8" width="242.35" height="101.1"/><rect class="cls-5" x="1138.12" y="637.27" width="242.35" height="101.1"/><rect class="cls-5" x="1415.35" y="637.27" width="242.35" height="101.1"/><rect class="cls-5" x="1138.12" y="768.87" width="242.35" height="101.1"/><rect class="cls-5" x="1415.35" y="768.87" width="242.35" height="101.1"/><path class="cls-6" d="M1199.68,1212c498.37,0,902.39,31.8,902.39,71s-404,71-902.39,71-902.39-31.8-902.39-71,404-71,902.39-71" transform="translate(-221.1 -205.95)"/><path class="cls-7" d="M906.52,1254c152,0,275.23,13.46,275.23,30.06s-123.23,30.06-275.23,30.06S631.29,1300.63,631.29,1284,754.52,1254,906.52,1254" transform="translate(-221.1 -205.95)"/><rect class="cls-5" x="380.37" y="294.92" width="321.56" height="101.1"/><rect class="cls-5" x="733.42" y="294.92" width="321.56" height="101.1"/><rect class="cls-5" x="380.37" y="418.06" width="321.56" height="101.1"/><rect class="cls-5" x="733.42" y="418.06" width="321.56" height="101.1"/><rect class="cls-5" x="380.37" y="546.32" width="321.56" height="101.1"/><rect class="cls-5" x="733.42" y="546.32" width="321.56" height="101.1"/><rect class="cls-5" x="380.37" y="675.04" width="321.56" height="101.1"/><rect class="cls-5" x="733.42" y="675.04" width="321.56" height="101.1"/><rect class="cls-5" x="380.37" y="809.51" width="321.56" height="101.1"/><rect class="cls-5" x="733.42" y="809.51" width="321.56" height="101.1"/><path class="cls-8" d="M1007.62,783.28h506.46a13.82,13.82,0,0,1,13.78,13.78v434.05a13.82,13.82,0,0,1-13.78,13.78H1007.62a13.82,13.82,0,0,1-13.78-13.78v-434a13.82,13.82,0,0,1,13.78-13.78" transform="translate(-221.1 -205.95)"/><path class="cls-9" d="M1060.42,783.28h506.46a13.82,13.82,0,0,1,13.78,13.78v434.05a13.82,13.82,0,0,1-13.78,13.78H1060.42a13.82,13.82,0,0,1-13.78-13.78v-434a13.82,13.82,0,0,1,13.78-13.78" transform="translate(-221.1 -205.95)"/><path class="cls-10" d="M1090.8,811h445.7a12.16,12.16,0,0,1,12.12,12.13v382a12.15,12.15,0,0,1-12.12,12.12H1090.8a12.16,12.16,0,0,1-12.12-12.12v-382A12.17,12.17,0,0,1,1090.8,811" transform="translate(-221.1 -205.95)"/><path class="cls-8" d="M1107.84,826.5h411.62a11.23,11.23,0,0,1,11.2,11.2v352.77a11.23,11.23,0,0,1-11.2,11.2H1107.84a11.23,11.23,0,0,1-11.19-11.2V837.7a11.23,11.23,0,0,1,11.19-11.2" transform="translate(-221.1 -205.95)"/><path class="cls-11" d="M1071.69,959.22h5.19a10.7,10.7,0,0,1,10.68,10.67V1075.1a10.71,10.71,0,0,1-10.68,10.68h-5.19A10.71,10.71,0,0,1,1061,1075.1V969.89a10.7,10.7,0,0,1,10.67-10.67" transform="translate(-221.1 -205.95)"/><path class="cls-12" d="M730.68,1219h44.89l1.4,39.34h-44.9Zm152.16,0h51.29l9.11,39.34h-51.3ZM765.57,593.59q47.61,33.9,64.13,17.51c3.1-7.84.78-28.68,2.52-34.12,4.18-13-26.58-8.77-55.16-10.78C779.51,577.68,775.68,591.21,765.57,593.59Z" transform="translate(-221.1 -205.95)"/><path class="cls-13" d="M880.29,1276q105.06,12.36,133.78,0,.24-12.54-20-21.4L962,1237.72c-11.2-6.1-16.83-6.19-24.26-.29a44.4,44.4,0,0,1-54,2s-1.16,12.2-3.47,36.61" transform="translate(-221.1 -205.95)"/><path class="cls-13" d="M716.08,1275.62q62.86,4.07,75.29.18a37.68,37.68,0,1,0-75.29-.18" transform="translate(-221.1 -205.95)"/><path class="cls-13" d="M882.21,1229.26l59.8-1.69-49-332.07a83.23,83.23,0,0,0-94.21-67.61c-44.53,6.64-79.44,45.44-74.11,90.14-2.33,205.52.24,310.32.24,310.32l54.34,1,39.9-272.5,63,272.41" transform="translate(-221.1 -205.95)"/><path class="cls-14" d="M715.29,983.34q.09,16.47,14.74,0a41.51,41.51,0,1,0-81.91,0q11.22,5.58,15,0a26.46,26.46,0,1,1,52.14,0" transform="translate(-221.1 -205.95)"/><path class="cls-15" d="M883.89,1274.06H1008.2a8.4,8.4,0,0,1,8.37,8.38v.1a8.4,8.4,0,0,1-8.37,8.38H883.89a8.4,8.4,0,0,1-8.37-8.38v-.1a8.4,8.4,0,0,1,8.37-8.38" transform="translate(-221.1 -205.95)"/><path class="cls-15" d="M720.94,1274.06h65.33a8.4,8.4,0,0,1,8.38,8.38v.1a8.4,8.4,0,0,1-8.38,8.38H720.94a8.4,8.4,0,0,1-8.38-8.38v-.1a8.4,8.4,0,0,1,8.38-8.38" transform="translate(-221.1 -205.95)"/><path class="cls-16" d="M1088.2,797.35q-8.88,19.6-8.67,33.56c28.49,16.49,54,22.51,77.93,4.6,9.6-7.36,9-20.72,5.83-28.49s-10.45-13.59-18.07-10.21a109.91,109.91,0,0,1-25.58,6.65q-19.62,3.16-3.93-10c6.12-5.15-5.67-11.75-27.51,3.9" transform="translate(-221.1 -205.95)"/><path class="cls-16" d="M692,917.65c22.48,9,26.65,27.76,17,36-14,12.59-31.59,13.82-49.79,8.89-9.75-3.41-10.38-16.11-3.64-36.82L692,917.65" transform="translate(-221.1 -205.95)"/><path class="cls-17" d="M1062.47,830a157.65,157.65,0,0,0,15.84-44.32l13.76,4.87a156.21,156.21,0,0,1-14.56,44.51l-15-5.06" transform="translate(-221.1 -205.95)"/><path class="cls-17" d="M646.66,910.64A157.46,157.46,0,0,0,692.92,902l2.73,14.34a156.17,156.17,0,0,1-45.78,9.86l-3.21-15.54" transform="translate(-221.1 -205.95)"/><rect class="cls-18" x="576.26" y="628.59" width="74.88" height="22.7"/><path class="cls-19" d="M622.87,786.51c14.91,90.11,21.3,128.76,21.3,128.76,16.56-.61,35.1-3.7,50.92-11.76q-18.62-109.68-18.62-109.68c15.95-37.66,37.28-70.77,45-89,7.21-17,26.24-20.66,26.24-20.66C755,640.52,733.75,619,733.75,619a251.31,251.31,0,0,0-61.18,37q-31.16,68.13-49.7,130.57" transform="translate(-221.1 -205.95)"/><path class="cls-19" d="M943.28,788l121.93,46.51c7.82-14.6,14.5-32.18,15.52-49.9L976.62,745.4l-71.09-95.11L869.9,620.61a3.22,3.22,0,0,1-2.74,1.54h-.36a3.2,3.2,0,0,1-2.27-.94l-1.1-1.1A3.27,3.27,0,0,1,862,619a3.09,3.09,0,0,1-.39-.33,5.48,5.48,0,0,1-.74-.43l-2.9-2.18a2.43,2.43,0,0,1-.34-.3l-1-1-1.2-.48a7.39,7.39,0,0,1-1.61-1.07,251.17,251.17,0,0,0,1.71,66Q898.7,740.51,943.28,788" transform="translate(-221.1 -205.95)"/><path class="cls-17" d="M790.38,628.81a41.78,41.78,0,0,1,64.39,5.2L877.3,834.18a250.69,250.69,0,0,1-83.87.91q-3-206.28-3-206.28" transform="translate(-221.1 -205.95)"/><path class="cls-20" d="M806.32,814.09q-11.18-172.53-51.71-204.85c-16.58,6.39-27.84,12.68-28.25,17.5t-3.58,57.75Q707.5,919.57,707.49,919.56l93.29,3.5q5.54-109,5.54-109" transform="translate(-221.1 -205.95)"/><path class="cls-20" d="M863.46,805.84q-25.05-175.62,1.87-190.92c10,4.16,16,7.15,16.72,12.13t33.79,289.48l-47.58,5.33-4.8-116" transform="translate(-221.1 -205.95)"/><path class="cls-16" d="M741.83,428.21q-5.1,12.48,1.32,81.94c4.84,35.71,18,52,49.51,70.92,11.32,6.43,18,7.83,30.09,7.37,9.68-.35,15.4-2.35,20.7-7.66,16.92-17.46,22.48-25.16,22.48-25.16,9.5-13.23,16.34-29,13.83-53.11q-3.06-51.47.75-66.41a70.26,70.26,0,0,0-138.68-7.89" transform="translate(-221.1 -205.95)"/><path class="cls-21" d="M792.14,397.12q-78.17-3.69-44.86,110.5,2.93,40.18,46.63,69.36,13.65,8.46,23.64,8c-64.69-24.11-73.2-143.22-25.41-187.88" transform="translate(-221.1 -205.95)"/><path class="cls-22" d="M884.13,456.56q-8.24,7.41-5.09,58a9.93,9.93,0,0,0,14.07-6.13S896,495,901.8,468.1c1.07-6.13.29-10.28-4-13.11a10.74,10.74,0,0,0-13.63,1.57" transform="translate(-221.1 -205.95)"/><path class="cls-23" d="M887.52,465.26c4.09.8,6,10.24,4.34,21.09s-6.39,19-10.47,18.2-6-10.24-4.34-21.09,6.39-19,10.47-18.2" transform="translate(-221.1 -205.95)"/><path class="cls-22" d="M740.68,510.05q9.71-76.16-19.77-60.89A16.06,16.06,0,0,0,703,466.34q.79,14.76,15.51,40.6c2.33,4,6.24,5.72,10.44,6.31a15.49,15.49,0,0,0,11.77-3.2" transform="translate(-221.1 -205.95)"/><path class="cls-23" d="M720.11,460.64c4.45-1.32,10.6,6.16,13.75,16.71s2.1,20.19-2.34,21.51-10.61-6.15-13.76-16.7-2.1-20.19,2.35-21.52" transform="translate(-221.1 -205.95)"/><path class="cls-24" d="M846.92,398q-59.5-21-83.4,14.42-24.72,22.39-15.21,93a6.3,6.3,0,0,1-7.63,4.68q-3.18-24.78-5-47.84-2.9-10.6-14.78-13a28.82,28.82,0,0,1,.74-19,18.6,18.6,0,0,0-7.11,8.95,28.6,28.6,0,0,1,9.79-23.45,23.74,23.74,0,0,0-15.88,17.36,44.32,44.32,0,0,1,18.09-34.72,28.13,28.13,0,0,0-17.35,7.58A27.93,27.93,0,0,1,737,381.33a23.65,23.65,0,0,0-21.57.3,38.21,38.21,0,0,1,38.7-6.65,25.57,25.57,0,0,0-10.93-10.2,21.93,21.93,0,0,1,16.93,10.15,25,25,0,0,1,10.16-25.3A29.48,29.48,0,0,0,764,369a64,64,0,0,1,52.28-26.87,18.85,18.85,0,0,0-12.11,16.94,32.32,32.32,0,0,1,19.91-10.82,21.64,21.64,0,0,0-12.21,11.25,31.52,31.52,0,0,1,22.5-6.92,78.71,78.71,0,0,0,45.44-9.52,50.55,50.55,0,0,1-8.19,26.69,20,20,0,0,0,11-13.3,27.71,27.71,0,0,1-8.9,20.29,27.49,27.49,0,0,1,21.08-4.47A37.22,37.22,0,0,0,876,383a26.58,26.58,0,0,1,31.54,15.52,16.46,16.46,0,0,0-19.59,7.93,13.82,13.82,0,0,1,16.4,7.23,12.73,12.73,0,0,0-13.3,6.16,10.42,10.42,0,0,1,9.23-.58q-17.84,13.31-20.47,83.25a4.35,4.35,0,0,1-4-3.27q4.92-93-28.83-101.25" transform="translate(-221.1 -205.95)"/><path class="cls-25" d="M758.48,447.72q10.9-15.9,42.93-8.87A8.32,8.32,0,1,0,803,422.33q-39.57-1.89-48,24.19a1.89,1.89,0,0,0,3.53,1.2" transform="translate(-221.1 -205.95)"/><path class="cls-25" d="M870.53,448.43q-10.11-16.43-42.45-11a8.32,8.32,0,1,1-.77-16.58q39.62.08,46.81,26.52a1.89,1.89,0,0,1-3.59,1" transform="translate(-221.1 -205.95)"/><path class="cls-26" d="M778.25,450.55a27.18,27.18,0,1,1-27.18,27.17,27.16,27.16,0,0,1,27.18-27.17m32.48,24.16h6.52a32.62,32.62,0,1,1-.09,4.79h-6.34a32.62,32.62,0,1,1-.09-4.79Zm39-24.16a27.18,27.18,0,1,1-27.17,27.17A27.17,27.17,0,0,1,849.73,450.55Z" transform="translate(-221.1 -205.95)"/><path class="cls-15" d="M783.46,456.6a21,21,0,1,1-21,21,21,21,0,0,1,21-21" transform="translate(-221.1 -205.95)"/><path class="cls-27" d="M785.58,459.05a16,16,0,1,1-16,16,16,16,0,0,1,16-16" transform="translate(-221.1 -205.95)"/><path class="cls-26" d="M785.58,465.1a10,10,0,1,1-10,10,10,10,0,0,1,10-10" transform="translate(-221.1 -205.95)"/><path class="cls-15" d="M771.55,473.54a6.15,6.15,0,1,1-6.14,6.15,6.15,6.15,0,0,1,6.14-6.15" transform="translate(-221.1 -205.95)"/><path class="cls-15" d="M849.17,456.6a21,21,0,1,1-21,21,21,21,0,0,1,21-21" transform="translate(-221.1 -205.95)"/><path class="cls-27" d="M851.29,459.05a16,16,0,1,1-16,16,16,16,0,0,1,16-16" transform="translate(-221.1 -205.95)"/><path class="cls-26" d="M851.29,465.1a10,10,0,1,1-10,10,10,10,0,0,1,10-10" transform="translate(-221.1 -205.95)"/><path class="cls-15" d="M837.26,473.54a6.15,6.15,0,1,1-6.14,6.15,6.14,6.14,0,0,1,6.14-6.15" transform="translate(-221.1 -205.95)"/><path class="cls-28" d="M839.49,541.06a1.89,1.89,0,0,1,3.17.94,1.91,1.91,0,0,1-.59,1.83,32.25,32.25,0,0,1-47.49-3.25,3.06,3.06,0,0,1,4.69-3.9,28.79,28.79,0,0,0,40.22,4.38" transform="translate(-221.1 -205.95)"/><path class="cls-29" d="M840.67,399.93c-11,4.93-22.39,4.22-34.5-.78a25.79,25.79,0,0,0-36.29,25.47,24,24,0,0,1,2.93-36,20.31,20.31,0,0,0-15.7,4.46,25.79,25.79,0,0,1,31.09-10.31,33.44,33.44,0,0,0-19.58-7.62,36.64,36.64,0,0,1,40.78,12.05,33.83,33.83,0,0,1,17.92-24.74,34.63,34.63,0,0,0-11.45,21.42,49.17,49.17,0,0,1,48.93-18.28,18.19,18.19,0,0,0-13.48,14.58,15.43,15.43,0,0,0,11.82-6.09,17.45,17.45,0,0,1-8.86,14,17,17,0,0,1,16,22.22,22.14,22.14,0,0,0-29.56-10.38" transform="translate(-221.1 -205.95)"/><path class="cls-30" d="M810.9,487.71A3.94,3.94,0,0,1,814,483.9a2.81,2.81,0,0,1,3.51,2.45q2.13,9,14.9,14.33c6.2,2.26,9.42,8.81,7.76,15.78s-7.55,12.74-14.71,13.41c-6.09.6-10.16-.78-12-3.24-3.48-4.06-9.25-.35-12-4.08s-3-7.5.4-11.62c6.9-8.69,8.77-16.69,9-23.22" transform="translate(-221.1 -205.95)"/><path class="cls-31" d="M827.94,505.31c1.58-1.07,4.41.33,6.31,3.14s2.17,5.95.59,7-4.4-.33-6.31-3.14-2.17-6-.59-7" transform="translate(-221.1 -205.95)"/><path class="cls-32" d="M841.83,408.58c1.12-2.54,5.7-3,10.23-1s7.29,5.67,6.17,8.22-5.7,3-10.23,1-7.29-5.68-6.17-8.23" transform="translate(-221.1 -205.95)"/><path class="cls-32" d="M810.84,571.81c.08-2.62,3.93-4.62,8.58-4.46s8.36,2.4,8.27,5-3.93,4.62-8.59,4.46-8.35-2.4-8.26-5" transform="translate(-221.1 -205.95)"/><path class="cls-19" d="M726,842.76l31.63,1.66,31.64,1.67c-1,4.13-2,8.27-3,12.4s-2,8.26-3,12.39l-27-1.42-27-1.42q-.84-6.33-1.67-12.64T726,842.76m150.76,3.3,17.74-1.44,17.74-1.43L911.88,855q-.18,5.88-.38,11.77L896.38,868l-15.12,1.22q-1.12-5.77-2.24-11.56T876.79,846.06ZM809.9,790.91c-1.78,13.06-3.58,23.18-3.58,23.18-13.7-50.3-29.75-100.88-51.86-146l18.4-20.18-27.3,6.82s.69-14.64,2.08-43.92l21.51-13.46Q810.43,651,809.9,790.91Z" transform="translate(-221.1 -205.95)"/><path class="cls-19" d="M852.21,774.93c4,10.16,11.25,30.91,11.25,30.91C865.6,764.18,871.32,703.17,876,661l-16.27-11.81,19.17-1.26-10.79-35.16s-16.44-4.85-27.67-8.58c4.05,47.4,5.06,88.56,11.81,170.74" transform="translate(-221.1 -205.95)"/><rect class="cls-33" x="597.4" y="627.72" width="35.37" height="26.45"/><rect class="cls-18" x="602.51" y="631.54" width="25.16" height="18.81"/><rect class="cls-33" x="600.8" y="637.98" width="9.87" height="4.08"/><path class="cls-14" d="M837.61,632.8q-20.91-31.11-38.1-1.95a24.41,24.41,0,0,0,16.26,18.25Q817.14,825,817.14,825l19.45,21.48,14.3-21L829.41,646.39a17.52,17.52,0,0,0,8.2-13.59" transform="translate(-221.1 -205.95)"/><path class="cls-15" d="M817.41,614.51l-53.6-25.93q-1.45,24.49-1.46,24.5l28.59,45.22,26-39.09,36.56,32q2.63-34.43,2.63-34.42l-25.38-19.26-13.3,17" transform="translate(-221.1 -205.95)"/><path class="cls-34" d="M589.94,1038.79H778.26a3.21,3.21,0,0,1,3.21,3.21v96.52a3.22,3.22,0,0,1-3.21,3.21H589.94a3.22,3.22,0,0,1-3.21-3.21V1042a3.21,3.21,0,0,1,3.21-3.21" transform="translate(-221.1 -205.95)"/><path class="cls-14" d="M585.92,983.34H785.45a9.65,9.65,0,0,1,9.63,9.62v49.12a9.65,9.65,0,0,1-9.63,9.63H585.92a9.65,9.65,0,0,1-9.63-9.63V993a9.65,9.65,0,0,1,9.63-9.62" transform="translate(-221.1 -205.95)"/><path class="cls-35" d="M635.41,980.37h0a11.44,11.44,0,0,1,11.41,11.4v147.17a11.44,11.44,0,0,1-11.41,11.41h0a11.44,11.44,0,0,1-11.4-11.41V991.77a11.43,11.43,0,0,1,11.4-11.4" transform="translate(-221.1 -205.95)"/><path class="cls-35" d="M740.51,980.37h0a11.44,11.44,0,0,1,11.41,11.4v147.17a11.45,11.45,0,0,1-11.41,11.41h0a11.45,11.45,0,0,1-11.41-11.41V991.77a11.44,11.44,0,0,1,11.41-11.4" transform="translate(-221.1 -205.95)"/><rect class="cls-33" x="395.96" y="830.9" width="37.32" height="33.33"/><rect class="cls-36" x="401.95" y="836.25" width="25.33" height="22.62"/><rect class="cls-33" x="499.66" y="830.9" width="37.32" height="33.33"/><rect class="cls-36" x="505.66" y="836.25" width="25.33" height="22.62"/><path class="cls-37" d="M674.83,904.37l11.91-2.88s-6.87-36.12-20.63-108.38l56.67-108.62q2.57-41.32,2.56-41.32l-77.4,148.27q26.88,112.93,26.89,112.93" transform="translate(-221.1 -205.95)"/><path class="cls-37" d="M1069,816.27q-2.38,5.65-4.85,10.49l-116.61-45L892.7,718.35l-3.47-29.78,66.29,78.23L1069,816.27" transform="translate(-221.1 -205.95)"/><path class="cls-38" d="M1213.46,1190.29h59.41a1.55,1.55,0,0,1,1.54,1.55v8.63a1.55,1.55,0,0,1-1.54,1.55h-59.41a1.55,1.55,0,0,1-1.54-1.55v-8.63a1.55,1.55,0,0,1,1.54-1.55" transform="translate(-221.1 -205.95)"/><path class="cls-39" d="M1213.46,1190.29h45.8a1.56,1.56,0,0,1,1.55,1.55v8.63a1.56,1.56,0,0,1-1.55,1.55h-45.8a1.55,1.55,0,0,1-1.54-1.55v-8.63a1.55,1.55,0,0,1,1.54-1.55" transform="translate(-221.1 -205.95)"/><path class="cls-40" d="M1213.46,1178.75h59.41a1.54,1.54,0,0,1,1.54,1.54v8.64a1.54,1.54,0,0,1-1.54,1.54h-59.41a1.54,1.54,0,0,1-1.54-1.54v-8.64a1.54,1.54,0,0,1,1.54-1.54" transform="translate(-221.1 -205.95)"/><path class="cls-38" d="M1213.46,1178.75h45.8a1.55,1.55,0,0,1,1.55,1.54v8.64a1.55,1.55,0,0,1-1.55,1.54h-45.8a1.54,1.54,0,0,1-1.54-1.54v-8.64a1.54,1.54,0,0,1,1.54-1.54" transform="translate(-221.1 -205.95)"/><path class="cls-38" d="M1213.46,1167.38h59.41a1.54,1.54,0,0,1,1.54,1.54v8.64a1.54,1.54,0,0,1-1.54,1.54h-59.41a1.54,1.54,0,0,1-1.54-1.54v-8.64a1.54,1.54,0,0,1,1.54-1.54" transform="translate(-221.1 -205.95)"/><path class="cls-39" d="M1213.46,1167.38h45.8a1.55,1.55,0,0,1,1.55,1.54v8.64a1.55,1.55,0,0,1-1.55,1.54h-45.8a1.54,1.54,0,0,1-1.54-1.54v-8.64a1.54,1.54,0,0,1,1.54-1.54" transform="translate(-221.1 -205.95)"/><path class="cls-40" d="M1213.46,1155.83h59.41a1.55,1.55,0,0,1,1.54,1.55V1166a1.55,1.55,0,0,1-1.54,1.55h-59.41a1.55,1.55,0,0,1-1.54-1.55v-8.63a1.55,1.55,0,0,1,1.54-1.55" transform="translate(-221.1 -205.95)"/><path class="cls-38" d="M1213.46,1155.83h45.8a1.56,1.56,0,0,1,1.55,1.55V1166a1.56,1.56,0,0,1-1.55,1.55h-45.8a1.55,1.55,0,0,1-1.54-1.55v-8.63a1.55,1.55,0,0,1,1.54-1.55" transform="translate(-221.1 -205.95)"/><path class="cls-38" d="M1213.46,1144.23h59.41a1.55,1.55,0,0,1,1.54,1.55v8.63a1.55,1.55,0,0,1-1.54,1.55h-59.41a1.55,1.55,0,0,1-1.54-1.55v-8.63a1.55,1.55,0,0,1,1.54-1.55" transform="translate(-221.1 -205.95)"/><path class="cls-39" d="M1213.46,1144.23h45.8a1.56,1.56,0,0,1,1.55,1.55v8.63a1.56,1.56,0,0,1-1.55,1.55h-45.8a1.55,1.55,0,0,1-1.54-1.55v-8.63a1.55,1.55,0,0,1,1.54-1.55" transform="translate(-221.1 -205.95)"/><path class="cls-40" d="M1213.46,1132.69h59.41a1.54,1.54,0,0,1,1.54,1.54v8.64a1.54,1.54,0,0,1-1.54,1.54h-59.41a1.54,1.54,0,0,1-1.54-1.54v-8.64a1.54,1.54,0,0,1,1.54-1.54" transform="translate(-221.1 -205.95)"/><path class="cls-38" d="M1213.46,1132.69h45.8a1.55,1.55,0,0,1,1.55,1.54v8.64a1.55,1.55,0,0,1-1.55,1.54h-45.8a1.54,1.54,0,0,1-1.54-1.54v-8.64a1.54,1.54,0,0,1,1.54-1.54" transform="translate(-221.1 -205.95)"/><path class="cls-38" d="M1161.92,1190.29h59.41a1.55,1.55,0,0,1,1.54,1.55v8.63a1.55,1.55,0,0,1-1.54,1.55h-59.41a1.55,1.55,0,0,1-1.54-1.55v-8.63a1.55,1.55,0,0,1,1.54-1.55" transform="translate(-221.1 -205.95)"/><path class="cls-39" d="M1161.92,1190.29h45.8a1.56,1.56,0,0,1,1.55,1.55v8.63a1.56,1.56,0,0,1-1.55,1.55h-45.8a1.55,1.55,0,0,1-1.54-1.55v-8.63a1.55,1.55,0,0,1,1.54-1.55" transform="translate(-221.1 -205.95)"/><path class="cls-40" d="M1161.92,1178.75h59.41a1.54,1.54,0,0,1,1.54,1.54v8.64a1.54,1.54,0,0,1-1.54,1.54h-59.41a1.54,1.54,0,0,1-1.54-1.54v-8.64a1.54,1.54,0,0,1,1.54-1.54" transform="translate(-221.1 -205.95)"/><path class="cls-38" d="M1161.92,1178.75h45.8a1.55,1.55,0,0,1,1.55,1.54v8.64a1.55,1.55,0,0,1-1.55,1.54h-45.8a1.54,1.54,0,0,1-1.54-1.54v-8.64a1.54,1.54,0,0,1,1.54-1.54" transform="translate(-221.1 -205.95)"/><path class="cls-38" d="M1161.92,1167.38h59.41a1.54,1.54,0,0,1,1.54,1.54v8.64a1.54,1.54,0,0,1-1.54,1.54h-59.41a1.54,1.54,0,0,1-1.54-1.54v-8.64a1.54,1.54,0,0,1,1.54-1.54" transform="translate(-221.1 -205.95)"/><path class="cls-39" d="M1161.92,1167.38h45.8a1.55,1.55,0,0,1,1.55,1.54v8.64a1.55,1.55,0,0,1-1.55,1.54h-45.8a1.54,1.54,0,0,1-1.54-1.54v-8.64a1.54,1.54,0,0,1,1.54-1.54" transform="translate(-221.1 -205.95)"/><path class="cls-40" d="M1161.92,1155.83h59.41a1.55,1.55,0,0,1,1.54,1.55V1166a1.55,1.55,0,0,1-1.54,1.55h-59.41a1.55,1.55,0,0,1-1.54-1.55v-8.63a1.55,1.55,0,0,1,1.54-1.55" transform="translate(-221.1 -205.95)"/><path class="cls-38" d="M1161.92,1155.83h45.8a1.56,1.56,0,0,1,1.55,1.55V1166a1.56,1.56,0,0,1-1.55,1.55h-45.8a1.55,1.55,0,0,1-1.54-1.55v-8.63a1.55,1.55,0,0,1,1.54-1.55" transform="translate(-221.1 -205.95)"/><path class="cls-38" d="M1161.92,1144.23h59.41a1.55,1.55,0,0,1,1.54,1.55v8.63a1.55,1.55,0,0,1-1.54,1.55h-59.41a1.55,1.55,0,0,1-1.54-1.55v-8.63a1.55,1.55,0,0,1,1.54-1.55" transform="translate(-221.1 -205.95)"/><path class="cls-39" d="M1161.92,1144.23h45.8a1.56,1.56,0,0,1,1.55,1.55v8.63a1.56,1.56,0,0,1-1.55,1.55h-45.8a1.55,1.55,0,0,1-1.54-1.55v-8.63a1.55,1.55,0,0,1,1.54-1.55" transform="translate(-221.1 -205.95)"/><path class="cls-40" d="M1161.92,1132.69h59.41a1.54,1.54,0,0,1,1.54,1.54v8.64a1.54,1.54,0,0,1-1.54,1.54h-59.41a1.54,1.54,0,0,1-1.54-1.54v-8.64a1.54,1.54,0,0,1,1.54-1.54" transform="translate(-221.1 -205.95)"/><path class="cls-38" d="M1161.92,1132.69h45.8a1.55,1.55,0,0,1,1.55,1.54v8.64a1.55,1.55,0,0,1-1.55,1.54h-45.8a1.54,1.54,0,0,1-1.54-1.54v-8.64a1.54,1.54,0,0,1,1.54-1.54" transform="translate(-221.1 -205.95)"/><path class="cls-38" d="M1161.92,1121.32h59.41a1.55,1.55,0,0,1,1.54,1.54v8.64a1.54,1.54,0,0,1-1.54,1.54h-59.41a1.54,1.54,0,0,1-1.54-1.54v-8.64a1.55,1.55,0,0,1,1.54-1.54" transform="translate(-221.1 -205.95)"/><path class="cls-39" d="M1161.92,1121.32h45.8a1.56,1.56,0,0,1,1.55,1.54v8.64a1.55,1.55,0,0,1-1.55,1.54h-45.8a1.54,1.54,0,0,1-1.54-1.54v-8.64a1.55,1.55,0,0,1,1.54-1.54" transform="translate(-221.1 -205.95)"/><path class="cls-40" d="M1161.92,1109.77h59.41a1.55,1.55,0,0,1,1.54,1.55V1120a1.55,1.55,0,0,1-1.54,1.55h-59.41a1.55,1.55,0,0,1-1.54-1.55v-8.63a1.55,1.55,0,0,1,1.54-1.55" transform="translate(-221.1 -205.95)"/><path class="cls-38" d="M1161.92,1109.77h45.8a1.56,1.56,0,0,1,1.55,1.55V1120a1.56,1.56,0,0,1-1.55,1.55h-45.8a1.55,1.55,0,0,1-1.54-1.55v-8.63a1.55,1.55,0,0,1,1.54-1.55" transform="translate(-221.1 -205.95)"/><path class="cls-38" d="M1161.92,1098.17h59.41a1.55,1.55,0,0,1,1.54,1.55v8.63a1.55,1.55,0,0,1-1.54,1.55h-59.41a1.55,1.55,0,0,1-1.54-1.55v-8.63a1.55,1.55,0,0,1,1.54-1.55" transform="translate(-221.1 -205.95)"/><path class="cls-39" d="M1161.92,1098.17h45.8a1.56,1.56,0,0,1,1.55,1.55v8.63a1.56,1.56,0,0,1-1.55,1.55h-45.8a1.55,1.55,0,0,1-1.54-1.55v-8.63a1.55,1.55,0,0,1,1.54-1.55" transform="translate(-221.1 -205.95)"/><path class="cls-40" d="M1161.92,1086.63h59.41a1.54,1.54,0,0,1,1.54,1.54v8.64a1.55,1.55,0,0,1-1.54,1.54h-59.41a1.55,1.55,0,0,1-1.54-1.54v-8.64a1.54,1.54,0,0,1,1.54-1.54" transform="translate(-221.1 -205.95)"/><path class="cls-38" d="M1161.92,1086.63h45.8a1.55,1.55,0,0,1,1.55,1.54v8.64a1.56,1.56,0,0,1-1.55,1.54h-45.8a1.55,1.55,0,0,1-1.54-1.54v-8.64a1.54,1.54,0,0,1,1.54-1.54" transform="translate(-221.1 -205.95)"/><path class="cls-38" d="M1111.49,1190.29h59.41a1.55,1.55,0,0,1,1.54,1.55v8.63a1.55,1.55,0,0,1-1.54,1.55h-59.41a1.55,1.55,0,0,1-1.54-1.55v-8.63a1.55,1.55,0,0,1,1.54-1.55" transform="translate(-221.1 -205.95)"/><path class="cls-39" d="M1111.49,1190.29h45.8a1.56,1.56,0,0,1,1.55,1.55v8.63a1.56,1.56,0,0,1-1.55,1.55h-45.8a1.55,1.55,0,0,1-1.54-1.55v-8.63a1.55,1.55,0,0,1,1.54-1.55" transform="translate(-221.1 -205.95)"/><path class="cls-40" d="M1111.49,1178.75h59.41a1.54,1.54,0,0,1,1.54,1.54v8.64a1.54,1.54,0,0,1-1.54,1.54h-59.41a1.54,1.54,0,0,1-1.54-1.54v-8.64a1.54,1.54,0,0,1,1.54-1.54" transform="translate(-221.1 -205.95)"/><path class="cls-38" d="M1111.49,1178.75h45.8a1.55,1.55,0,0,1,1.55,1.54v8.64a1.55,1.55,0,0,1-1.55,1.54h-45.8a1.54,1.54,0,0,1-1.54-1.54v-8.64a1.54,1.54,0,0,1,1.54-1.54" transform="translate(-221.1 -205.95)"/><path class="cls-38" d="M1111.49,1167.38h59.41a1.54,1.54,0,0,1,1.54,1.54v8.64a1.54,1.54,0,0,1-1.54,1.54h-59.41a1.54,1.54,0,0,1-1.54-1.54v-8.64a1.54,1.54,0,0,1,1.54-1.54" transform="translate(-221.1 -205.95)"/><path class="cls-39" d="M1111.49,1167.38h45.8a1.55,1.55,0,0,1,1.55,1.54v8.64a1.55,1.55,0,0,1-1.55,1.54h-45.8a1.54,1.54,0,0,1-1.54-1.54v-8.64a1.54,1.54,0,0,1,1.54-1.54" transform="translate(-221.1 -205.95)"/><path class="cls-40" d="M1111.49,1155.83h59.41a1.55,1.55,0,0,1,1.54,1.55V1166a1.55,1.55,0,0,1-1.54,1.55h-59.41A1.55,1.55,0,0,1,1110,1166v-8.63a1.55,1.55,0,0,1,1.54-1.55" transform="translate(-221.1 -205.95)"/><path class="cls-38" d="M1111.49,1155.83h45.8a1.56,1.56,0,0,1,1.55,1.55V1166a1.56,1.56,0,0,1-1.55,1.55h-45.8A1.55,1.55,0,0,1,1110,1166v-8.63a1.55,1.55,0,0,1,1.54-1.55" transform="translate(-221.1 -205.95)"/><path class="cls-38" d="M1111.49,1144.23h59.41a1.55,1.55,0,0,1,1.54,1.55v8.63a1.55,1.55,0,0,1-1.54,1.55h-59.41a1.55,1.55,0,0,1-1.54-1.55v-8.63a1.55,1.55,0,0,1,1.54-1.55" transform="translate(-221.1 -205.95)"/><path class="cls-39" d="M1111.49,1144.23h45.8a1.56,1.56,0,0,1,1.55,1.55v8.63a1.56,1.56,0,0,1-1.55,1.55h-45.8a1.55,1.55,0,0,1-1.54-1.55v-8.63a1.55,1.55,0,0,1,1.54-1.55" transform="translate(-221.1 -205.95)"/><path class="cls-40" d="M1111.49,1132.69h59.41a1.54,1.54,0,0,1,1.54,1.54v8.64a1.54,1.54,0,0,1-1.54,1.54h-59.41a1.54,1.54,0,0,1-1.54-1.54v-8.64a1.54,1.54,0,0,1,1.54-1.54" transform="translate(-221.1 -205.95)"/><path class="cls-38" d="M1111.49,1132.69h45.8a1.55,1.55,0,0,1,1.55,1.54v8.64a1.55,1.55,0,0,1-1.55,1.54h-45.8a1.54,1.54,0,0,1-1.54-1.54v-8.64a1.54,1.54,0,0,1,1.54-1.54" transform="translate(-221.1 -205.95)"/><path class="cls-38" d="M1111.49,1121.32h59.41a1.55,1.55,0,0,1,1.54,1.54v8.64a1.54,1.54,0,0,1-1.54,1.54h-59.41a1.54,1.54,0,0,1-1.54-1.54v-8.64a1.55,1.55,0,0,1,1.54-1.54" transform="translate(-221.1 -205.95)"/><path class="cls-39" d="M1111.49,1121.32h45.8a1.56,1.56,0,0,1,1.55,1.54v8.64a1.55,1.55,0,0,1-1.55,1.54h-45.8a1.54,1.54,0,0,1-1.54-1.54v-8.64a1.55,1.55,0,0,1,1.54-1.54" transform="translate(-221.1 -205.95)"/><path class="cls-40" d="M1111.49,1109.77h59.41a1.55,1.55,0,0,1,1.54,1.55V1120a1.55,1.55,0,0,1-1.54,1.55h-59.41A1.55,1.55,0,0,1,1110,1120v-8.63a1.55,1.55,0,0,1,1.54-1.55" transform="translate(-221.1 -205.95)"/><path class="cls-38" d="M1111.49,1109.77h45.8a1.56,1.56,0,0,1,1.55,1.55V1120a1.56,1.56,0,0,1-1.55,1.55h-45.8A1.55,1.55,0,0,1,1110,1120v-8.63a1.55,1.55,0,0,1,1.54-1.55" transform="translate(-221.1 -205.95)"/><path class="cls-38" d="M1111.49,1098.17h59.41a1.55,1.55,0,0,1,1.54,1.55v8.63a1.55,1.55,0,0,1-1.54,1.55h-59.41a1.55,1.55,0,0,1-1.54-1.55v-8.63a1.55,1.55,0,0,1,1.54-1.55" transform="translate(-221.1 -205.95)"/><path class="cls-39" d="M1111.49,1098.17h45.8a1.56,1.56,0,0,1,1.55,1.55v8.63a1.56,1.56,0,0,1-1.55,1.55h-45.8a1.55,1.55,0,0,1-1.54-1.55v-8.63a1.55,1.55,0,0,1,1.54-1.55" transform="translate(-221.1 -205.95)"/><path class="cls-40" d="M1111.49,1086.63h59.41a1.54,1.54,0,0,1,1.54,1.54v8.64a1.55,1.55,0,0,1-1.54,1.54h-59.41a1.55,1.55,0,0,1-1.54-1.54v-8.64a1.54,1.54,0,0,1,1.54-1.54" transform="translate(-221.1 -205.95)"/><path class="cls-38" d="M1111.49,1086.63h45.8a1.55,1.55,0,0,1,1.55,1.54v8.64a1.56,1.56,0,0,1-1.55,1.54h-45.8a1.55,1.55,0,0,1-1.54-1.54v-8.64a1.54,1.54,0,0,1,1.54-1.54" transform="translate(-221.1 -205.95)"/><path class="cls-38" d="M1111.49,1075.26h59.41a1.54,1.54,0,0,1,1.54,1.54v8.64a1.54,1.54,0,0,1-1.54,1.54h-59.41a1.54,1.54,0,0,1-1.54-1.54v-8.64a1.54,1.54,0,0,1,1.54-1.54" transform="translate(-221.1 -205.95)"/><path class="cls-39" d="M1111.49,1075.26h45.8a1.55,1.55,0,0,1,1.55,1.54v8.64a1.55,1.55,0,0,1-1.55,1.54h-45.8a1.54,1.54,0,0,1-1.54-1.54v-8.64a1.54,1.54,0,0,1,1.54-1.54" transform="translate(-221.1 -205.95)"/><path class="cls-40" d="M1111.49,1063.71h59.41a1.55,1.55,0,0,1,1.54,1.55v8.63a1.55,1.55,0,0,1-1.54,1.55h-59.41a1.55,1.55,0,0,1-1.54-1.55v-8.63a1.55,1.55,0,0,1,1.54-1.55" transform="translate(-221.1 -205.95)"/><path class="cls-38" d="M1111.49,1063.71h45.8a1.56,1.56,0,0,1,1.55,1.55v8.63a1.56,1.56,0,0,1-1.55,1.55h-45.8a1.55,1.55,0,0,1-1.54-1.55v-8.63a1.55,1.55,0,0,1,1.54-1.55" transform="translate(-221.1 -205.95)"/><path class="cls-38" d="M1111.49,1052.11h59.41a1.55,1.55,0,0,1,1.54,1.55v8.63a1.55,1.55,0,0,1-1.54,1.55h-59.41a1.55,1.55,0,0,1-1.54-1.55v-8.63a1.55,1.55,0,0,1,1.54-1.55" transform="translate(-221.1 -205.95)"/><path class="cls-39" d="M1111.49,1052.11h45.8a1.56,1.56,0,0,1,1.55,1.55v8.63a1.56,1.56,0,0,1-1.55,1.55h-45.8a1.55,1.55,0,0,1-1.54-1.55v-8.63a1.55,1.55,0,0,1,1.54-1.55" transform="translate(-221.1 -205.95)"/><path class="cls-40" d="M1111.49,1040.57h59.41a1.54,1.54,0,0,1,1.54,1.54v8.64a1.55,1.55,0,0,1-1.54,1.54h-59.41a1.55,1.55,0,0,1-1.54-1.54v-8.64a1.54,1.54,0,0,1,1.54-1.54" transform="translate(-221.1 -205.95)"/><path class="cls-38" d="M1111.49,1040.57h45.8a1.55,1.55,0,0,1,1.55,1.54v8.64a1.56,1.56,0,0,1-1.55,1.54h-45.8a1.55,1.55,0,0,1-1.54-1.54v-8.64a1.54,1.54,0,0,1,1.54-1.54" transform="translate(-221.1 -205.95)"/><path class="cls-38" d="M1111.49,1029.2h59.41a1.54,1.54,0,0,1,1.54,1.54v8.64a1.54,1.54,0,0,1-1.54,1.54h-59.41a1.54,1.54,0,0,1-1.54-1.54v-8.64a1.54,1.54,0,0,1,1.54-1.54" transform="translate(-221.1 -205.95)"/><path class="cls-39" d="M1111.49,1029.2h45.8a1.55,1.55,0,0,1,1.55,1.54v8.64a1.55,1.55,0,0,1-1.55,1.54h-45.8a1.54,1.54,0,0,1-1.54-1.54v-8.64a1.54,1.54,0,0,1,1.54-1.54" transform="translate(-221.1 -205.95)"/><path class="cls-40" d="M1111.49,1017.65h59.41a1.55,1.55,0,0,1,1.54,1.55v8.63a1.55,1.55,0,0,1-1.54,1.55h-59.41a1.55,1.55,0,0,1-1.54-1.55v-8.63a1.55,1.55,0,0,1,1.54-1.55" transform="translate(-221.1 -205.95)"/><path class="cls-38" d="M1111.49,1017.65h45.8a1.56,1.56,0,0,1,1.55,1.55v8.63a1.56,1.56,0,0,1-1.55,1.55h-45.8a1.55,1.55,0,0,1-1.54-1.55v-8.63a1.55,1.55,0,0,1,1.54-1.55" transform="translate(-221.1 -205.95)"/><path class="cls-41" d="M1746.85,849.85h70.25a2.24,2.24,0,0,1,2.23,2.23v324a2.24,2.24,0,0,1-2.23,2.23h-70.25a2.23,2.23,0,0,1-2.23-2.23v-324a2.23,2.23,0,0,1,2.23-2.23" transform="translate(-221.1 -205.95)"/><path class="cls-42" d="M1423.92,849.85h360.39a9.83,9.83,0,0,1,9.8,9.8v308.87a9.83,9.83,0,0,1-9.8,9.8H1423.92a9.83,9.83,0,0,1-9.81-9.8V859.65a9.83,9.83,0,0,1,9.81-9.8" transform="translate(-221.1 -205.95)"/><path class="cls-38" d="M1140.19,955.82a30.74,30.74,0,1,1-30.73,30.74,30.74,30.74,0,0,1,30.73-30.74" transform="translate(-221.1 -205.95)"/><path class="cls-43" d="M1140.19,964.23a22.33,22.33,0,1,1-22.33,22.33,22.34,22.34,0,0,1,22.33-22.33" transform="translate(-221.1 -205.95)"/><g id="Page-1"><g id="ada-logo.inline"><g id="Page-1-2" data-name="Page-1"><g id="ada-logo.inline-2" data-name="ada-logo.inline"><g id="Group"><path id="Shape" class="cls-44" d="M1140.19,970.87l12.65,29.89a1,1,0,1,0,1.84-.79l-13.56-32.06a1,1,0,0,0-1.85,0L1125.71,1000a1,1,0,0,0,.53,1.32,1,1,0,0,0,1.32-.53Z" transform="translate(-221.1 -205.95)"/><path id="Shape-2" data-name="Shape" class="cls-44" d="M1128.79,982.71h22.81a1,1,0,0,0,0-2h-22.81a1,1,0,0,0,0,2Zm-3.08,6.41h29a1,1,0,0,0,0-2h-29a1,1,0,0,0,0,2Z" transform="translate(-221.1 -205.95)"/></g></g></g></g></g><path class="cls-45" d="M1771.49,870.71h6.76a3,3,0,0,1,3,3v173a3,3,0,0,1-3,3h-6.76a3,3,0,0,1-3-3v-173a3,3,0,0,1,3-3" transform="translate(-221.1 -205.95)"/><path class="cls-45" d="M1771.49,1064.87h6.76a3,3,0,0,1,3,3v85.87a3,3,0,0,1-3,3h-6.76a3,3,0,0,1-3-3v-85.87a3,3,0,0,1,3-3" transform="translate(-221.1 -205.95)"/><path class="cls-46" d="M1529.82,958.16a65.4,65.4,0,1,1-65.39,65.39,65.39,65.39,0,0,1,65.39-65.39" transform="translate(-221.1 -205.95)"/><path class="cls-15" d="M1549.46,943a65.4,65.4,0,1,1-65.39,65.4,65.4,65.4,0,0,1,65.39-65.4" transform="translate(-221.1 -205.95)"/><path class="cls-42" d="M1549.46,956a52.4,52.4,0,1,1-52.39,52.4,52.4,52.4,0,0,1,52.39-52.4" transform="translate(-221.1 -205.95)"/><path class="cls-15" d="M1549.46,990.78a17.61,17.61,0,1,1-17.6,17.61,17.6,17.6,0,0,1,17.6-17.61" transform="translate(-221.1 -205.95)"/><rect class="cls-33" x="1324.18" y="746.7" width="7.81" height="116.72"/><rect class="cls-33" x="1490.82" y="1007.1" width="116.72" height="7.81" transform="translate(-228.24 -194.91) rotate(-0.41)"/><path class="cls-46" d="M1627.76,995.79h77.4a5.9,5.9,0,0,1,5.88,5.88v47.43a5.89,5.89,0,0,1-5.88,5.87h-77.4a5.89,5.89,0,0,1-5.87-5.87v-47.43a5.89,5.89,0,0,1,5.87-5.88" transform="translate(-221.1 -205.95)"/><path class="cls-15" d="M1643,979.83h77.41a5.89,5.89,0,0,1,5.87,5.88v47.43a5.89,5.89,0,0,1-5.87,5.87H1643a5.89,5.89,0,0,1-5.87-5.87V985.71a5.89,5.89,0,0,1,5.87-5.88" transform="translate(-221.1 -205.95)"/><path class="cls-42" d="M1650,986.1h62.72a5.61,5.61,0,0,1,5.59,5.59v35.46a5.61,5.61,0,0,1-5.59,5.59H1650a5.61,5.61,0,0,1-5.59-5.59V991.69a5.61,5.61,0,0,1,5.59-5.59" transform="translate(-221.1 -205.95)"/><path class="cls-15" d="M1651.92,991.87h10.22a1.25,1.25,0,0,1,1.25,1.25v4.47a1.25,1.25,0,0,1-1.25,1.25h-10.22a1.25,1.25,0,0,1-1.26-1.25v-4.47a1.25,1.25,0,0,1,1.26-1.25" transform="translate(-221.1 -205.95)"/><path class="cls-15" d="M1667.7,991.87h10.22a1.25,1.25,0,0,1,1.26,1.25v4.47a1.25,1.25,0,0,1-1.26,1.25H1667.7a1.25,1.25,0,0,1-1.25-1.25v-4.47a1.25,1.25,0,0,1,1.25-1.25" transform="translate(-221.1 -205.95)"/><path class="cls-15" d="M1684.29,991.87h10.22a1.25,1.25,0,0,1,1.26,1.25v4.47a1.25,1.25,0,0,1-1.26,1.25h-10.22a1.25,1.25,0,0,1-1.25-1.25v-4.47a1.25,1.25,0,0,1,1.25-1.25" transform="translate(-221.1 -205.95)"/><path class="cls-15" d="M1700.08,991.87h10.22a1.26,1.26,0,0,1,1.26,1.25v4.47a1.26,1.26,0,0,1-1.26,1.25h-10.22a1.26,1.26,0,0,1-1.26-1.25v-4.47a1.26,1.26,0,0,1,1.26-1.25" transform="translate(-221.1 -205.95)"/><path class="cls-15" d="M1651.92,1001.34h10.22a1.26,1.26,0,0,1,1.25,1.26v4.47a1.25,1.25,0,0,1-1.25,1.25h-10.22a1.25,1.25,0,0,1-1.26-1.25v-4.47a1.26,1.26,0,0,1,1.26-1.26" transform="translate(-221.1 -205.95)"/><path class="cls-15" d="M1667.7,1001.34h10.22a1.26,1.26,0,0,1,1.26,1.26v4.47a1.25,1.25,0,0,1-1.26,1.25H1667.7a1.25,1.25,0,0,1-1.25-1.25v-4.47a1.26,1.26,0,0,1,1.25-1.26" transform="translate(-221.1 -205.95)"/><path class="cls-15" d="M1684.29,1001.34h10.22a1.26,1.26,0,0,1,1.26,1.26v4.47a1.25,1.25,0,0,1-1.26,1.25h-10.22a1.25,1.25,0,0,1-1.25-1.25v-4.47a1.26,1.26,0,0,1,1.25-1.26" transform="translate(-221.1 -205.95)"/><path class="cls-15" d="M1700.08,1001.34h10.22a1.27,1.27,0,0,1,1.26,1.26v4.47a1.26,1.26,0,0,1-1.26,1.25h-10.22a1.26,1.26,0,0,1-1.26-1.25v-4.47a1.27,1.27,0,0,1,1.26-1.26" transform="translate(-221.1 -205.95)"/><path class="cls-15" d="M1651.92,1010.93h10.22a1.26,1.26,0,0,1,1.25,1.26v4.47a1.25,1.25,0,0,1-1.25,1.25h-10.22a1.25,1.25,0,0,1-1.26-1.25v-4.47a1.26,1.26,0,0,1,1.26-1.26" transform="translate(-221.1 -205.95)"/><path class="cls-15" d="M1667.7,1010.93h10.22a1.26,1.26,0,0,1,1.26,1.26v4.47a1.25,1.25,0,0,1-1.26,1.25H1667.7a1.25,1.25,0,0,1-1.25-1.25v-4.47a1.26,1.26,0,0,1,1.25-1.26" transform="translate(-221.1 -205.95)"/><path class="cls-15" d="M1684.29,1010.93h10.22a1.26,1.26,0,0,1,1.26,1.26v4.47a1.25,1.25,0,0,1-1.26,1.25h-10.22a1.25,1.25,0,0,1-1.25-1.25v-4.47a1.26,1.26,0,0,1,1.25-1.26" transform="translate(-221.1 -205.95)"/><path class="cls-15" d="M1700.08,1010.93h10.22a1.27,1.27,0,0,1,1.26,1.26v4.47a1.26,1.26,0,0,1-1.26,1.25h-10.22a1.26,1.26,0,0,1-1.26-1.25v-4.47a1.27,1.27,0,0,1,1.26-1.26" transform="translate(-221.1 -205.95)"/><path class="cls-15" d="M1651.92,1020.43h10.22a1.26,1.26,0,0,1,1.25,1.26v4.47a1.25,1.25,0,0,1-1.25,1.25h-10.22a1.25,1.25,0,0,1-1.26-1.25v-4.47a1.26,1.26,0,0,1,1.26-1.26" transform="translate(-221.1 -205.95)"/><path class="cls-15" d="M1667.7,1020.43h10.22a1.26,1.26,0,0,1,1.26,1.26v4.47a1.25,1.25,0,0,1-1.26,1.25H1667.7a1.25,1.25,0,0,1-1.25-1.25v-4.47a1.26,1.26,0,0,1,1.25-1.26" transform="translate(-221.1 -205.95)"/><path class="cls-15" d="M1684.29,1020.43h10.22a1.26,1.26,0,0,1,1.26,1.26v4.47a1.25,1.25,0,0,1-1.26,1.25h-10.22a1.25,1.25,0,0,1-1.25-1.25v-4.47a1.26,1.26,0,0,1,1.25-1.26" transform="translate(-221.1 -205.95)"/><path class="cls-15" d="M1700.08,1020.43h10.22a1.27,1.27,0,0,1,1.26,1.26v4.47a1.26,1.26,0,0,1-1.26,1.25h-10.22a1.26,1.26,0,0,1-1.26-1.25v-4.47a1.27,1.27,0,0,1,1.26-1.26" transform="translate(-221.1 -205.95)"/><path class="cls-15" d="M555.65,1191a31.18,31.18,0,1,1-31.18,31.17A31.16,31.16,0,0,1,555.65,1191" transform="translate(-221.1 -205.95)"/><path class="cls-15" d="M627.91,1195.34A20.62,20.62,0,1,1,607.3,1216a20.62,20.62,0,0,1,20.61-20.62" transform="translate(-221.1 -205.95)"/><path class="cls-15" d="M565.22,1134.09a12.56,12.56,0,1,1-12.55,12.55,12.55,12.55,0,0,1,12.55-12.55" transform="translate(-221.1 -205.95)"/><path class="cls-15" d="M682.56,1163.81a10.39,10.39,0,1,1-10.39,10.38,10.38,10.38,0,0,1,10.39-10.38" transform="translate(-221.1 -205.95)"/><path class="cls-15" d="M436.75,1191.47a8.75,8.75,0,1,1-8.75,8.74,8.74,8.74,0,0,1,8.75-8.74" transform="translate(-221.1 -205.95)"/><path class="cls-15" d="M729.59,1198.09a8.75,8.75,0,1,1-8.75,8.75,8.75,8.75,0,0,1,8.75-8.75" transform="translate(-221.1 -205.95)"/><path class="cls-15" d="M828.57,1159.33A13.58,13.58,0,1,1,815,1172.91a13.58,13.58,0,0,1,13.58-13.58" transform="translate(-221.1 -205.95)"/><path class="cls-15" d="M829.9,1230.05a7.66,7.66,0,1,1-7.66,7.66,7.67,7.67,0,0,1,7.66-7.66" transform="translate(-221.1 -205.95)"/><path class="cls-15" d="M903.78,1143.24a7.66,7.66,0,1,1-7.66,7.66,7.66,7.66,0,0,1,7.66-7.66" transform="translate(-221.1 -205.95)"/><path class="cls-15" d="M948.34,1174.7a6,6,0,1,1-6,6,6,6,0,0,1,6-6" transform="translate(-221.1 -205.95)"/><path class="cls-15" d="M1006.55,1131a6,6,0,1,1-6,6,6,6,0,0,1,6-6" transform="translate(-221.1 -205.95)"/><path class="cls-15" d="M1016.22,1060.56a6,6,0,1,1-6,6,6,6,0,0,1,6-6" transform="translate(-221.1 -205.95)"/><path class="cls-40" d="M1348.31,1191.32h59.41a1.55,1.55,0,0,1,1.54,1.54v8.64a1.54,1.54,0,0,1-1.54,1.54h-59.41a1.54,1.54,0,0,1-1.54-1.54v-8.64a1.55,1.55,0,0,1,1.54-1.54" transform="translate(-221.1 -205.95)"/><path class="cls-38" d="M1348.31,1191.32h45.8a1.56,1.56,0,0,1,1.55,1.54v8.64a1.55,1.55,0,0,1-1.55,1.54h-45.8a1.54,1.54,0,0,1-1.54-1.54v-8.64a1.55,1.55,0,0,1,1.54-1.54" transform="translate(-221.1 -205.95)"/><path class="cls-38" d="M1348.31,1180h59.41a1.55,1.55,0,0,1,1.54,1.55v8.63a1.55,1.55,0,0,1-1.54,1.55h-59.41a1.55,1.55,0,0,1-1.54-1.55v-8.63a1.55,1.55,0,0,1,1.54-1.55" transform="translate(-221.1 -205.95)"/><path class="cls-39" d="M1348.31,1180h45.8a1.56,1.56,0,0,1,1.55,1.55v8.63a1.56,1.56,0,0,1-1.55,1.55h-45.8a1.55,1.55,0,0,1-1.54-1.55v-8.63a1.55,1.55,0,0,1,1.54-1.55" transform="translate(-221.1 -205.95)"/><path class="cls-40" d="M1348.31,1168.41h59.41a1.54,1.54,0,0,1,1.54,1.54v8.64a1.54,1.54,0,0,1-1.54,1.54h-59.41a1.54,1.54,0,0,1-1.54-1.54V1170a1.54,1.54,0,0,1,1.54-1.54" transform="translate(-221.1 -205.95)"/><path class="cls-38" d="M1348.31,1168.41h45.8a1.55,1.55,0,0,1,1.55,1.54v8.64a1.55,1.55,0,0,1-1.55,1.54h-45.8a1.54,1.54,0,0,1-1.54-1.54V1170a1.54,1.54,0,0,1,1.54-1.54" transform="translate(-221.1 -205.95)"/><path class="cls-38" d="M1348.31,1156.81h59.41a1.54,1.54,0,0,1,1.54,1.54V1167a1.54,1.54,0,0,1-1.54,1.54h-59.41a1.54,1.54,0,0,1-1.54-1.54v-8.64a1.54,1.54,0,0,1,1.54-1.54" transform="translate(-221.1 -205.95)"/><path class="cls-39" d="M1348.31,1156.81h45.8a1.55,1.55,0,0,1,1.55,1.54V1167a1.55,1.55,0,0,1-1.55,1.54h-45.8a1.54,1.54,0,0,1-1.54-1.54v-8.64a1.54,1.54,0,0,1,1.54-1.54" transform="translate(-221.1 -205.95)"/><path class="cls-40" d="M1348.31,1145.26h59.41a1.55,1.55,0,0,1,1.54,1.54v8.64a1.54,1.54,0,0,1-1.54,1.54h-59.41a1.54,1.54,0,0,1-1.54-1.54v-8.64a1.55,1.55,0,0,1,1.54-1.54" transform="translate(-221.1 -205.95)"/><path class="cls-38" d="M1348.31,1145.26h45.8a1.56,1.56,0,0,1,1.55,1.54v8.64a1.55,1.55,0,0,1-1.55,1.54h-45.8a1.54,1.54,0,0,1-1.54-1.54v-8.64a1.55,1.55,0,0,1,1.54-1.54" transform="translate(-221.1 -205.95)"/><path class="cls-38" d="M1348.31,1133.89h59.41a1.55,1.55,0,0,1,1.54,1.55v8.63a1.55,1.55,0,0,1-1.54,1.55h-59.41a1.55,1.55,0,0,1-1.54-1.55v-8.63a1.55,1.55,0,0,1,1.54-1.55" transform="translate(-221.1 -205.95)"/><path class="cls-39" d="M1348.31,1133.89h45.8a1.56,1.56,0,0,1,1.55,1.55v8.63a1.56,1.56,0,0,1-1.55,1.55h-45.8a1.55,1.55,0,0,1-1.54-1.55v-8.63a1.55,1.55,0,0,1,1.54-1.55" transform="translate(-221.1 -205.95)"/><path class="cls-40" d="M1348.31,1122.35h59.41a1.54,1.54,0,0,1,1.54,1.54v8.64a1.54,1.54,0,0,1-1.54,1.54h-59.41a1.54,1.54,0,0,1-1.54-1.54v-8.64a1.54,1.54,0,0,1,1.54-1.54" transform="translate(-221.1 -205.95)"/><path class="cls-38" d="M1348.31,1122.35h45.8a1.55,1.55,0,0,1,1.55,1.54v8.64a1.55,1.55,0,0,1-1.55,1.54h-45.8a1.54,1.54,0,0,1-1.54-1.54v-8.64a1.54,1.54,0,0,1,1.54-1.54" transform="translate(-221.1 -205.95)"/><path class="cls-38" d="M1348.31,1110.75h59.41a1.54,1.54,0,0,1,1.54,1.54v8.64a1.54,1.54,0,0,1-1.54,1.54h-59.41a1.54,1.54,0,0,1-1.54-1.54v-8.64a1.54,1.54,0,0,1,1.54-1.54" transform="translate(-221.1 -205.95)"/><path class="cls-39" d="M1348.31,1110.75h45.8a1.55,1.55,0,0,1,1.55,1.54v8.64a1.55,1.55,0,0,1-1.55,1.54h-45.8a1.54,1.54,0,0,1-1.54-1.54v-8.64a1.54,1.54,0,0,1,1.54-1.54" transform="translate(-221.1 -205.95)"/><path class="cls-40" d="M1348.31,1099.2h59.41a1.54,1.54,0,0,1,1.54,1.54v8.64a1.54,1.54,0,0,1-1.54,1.54h-59.41a1.54,1.54,0,0,1-1.54-1.54v-8.64a1.54,1.54,0,0,1,1.54-1.54" transform="translate(-221.1 -205.95)"/><path class="cls-38" d="M1348.31,1099.2h45.8a1.55,1.55,0,0,1,1.55,1.54v8.64a1.55,1.55,0,0,1-1.55,1.54h-45.8a1.54,1.54,0,0,1-1.54-1.54v-8.64a1.54,1.54,0,0,1,1.54-1.54" transform="translate(-221.1 -205.95)"/><path class="cls-38" d="M1348.31,1087.83h59.41a1.55,1.55,0,0,1,1.54,1.55V1098a1.55,1.55,0,0,1-1.54,1.55h-59.41a1.55,1.55,0,0,1-1.54-1.55v-8.63a1.55,1.55,0,0,1,1.54-1.55" transform="translate(-221.1 -205.95)"/><path class="cls-39" d="M1348.31,1087.83h45.8a1.56,1.56,0,0,1,1.55,1.55V1098a1.56,1.56,0,0,1-1.55,1.55h-45.8a1.55,1.55,0,0,1-1.54-1.55v-8.63a1.55,1.55,0,0,1,1.54-1.55" transform="translate(-221.1 -205.95)"/><path class="cls-40" d="M1348.31,1076.29h59.41a1.54,1.54,0,0,1,1.54,1.54v8.64a1.54,1.54,0,0,1-1.54,1.54h-59.41a1.54,1.54,0,0,1-1.54-1.54v-8.64a1.54,1.54,0,0,1,1.54-1.54" transform="translate(-221.1 -205.95)"/><path class="cls-38" d="M1348.31,1076.29h45.8a1.55,1.55,0,0,1,1.55,1.54v8.64a1.55,1.55,0,0,1-1.55,1.54h-45.8a1.54,1.54,0,0,1-1.54-1.54v-8.64a1.54,1.54,0,0,1,1.54-1.54" transform="translate(-221.1 -205.95)"/><path class="cls-38" d="M1348.31,1064.69h59.41a1.54,1.54,0,0,1,1.54,1.54v8.64a1.54,1.54,0,0,1-1.54,1.54h-59.41a1.54,1.54,0,0,1-1.54-1.54v-8.64a1.54,1.54,0,0,1,1.54-1.54" transform="translate(-221.1 -205.95)"/><path class="cls-39" d="M1348.31,1064.69h45.8a1.55,1.55,0,0,1,1.55,1.54v8.64a1.55,1.55,0,0,1-1.55,1.54h-45.8a1.54,1.54,0,0,1-1.54-1.54v-8.64a1.54,1.54,0,0,1,1.54-1.54" transform="translate(-221.1 -205.95)"/><path class="cls-40" d="M1348.31,1053.14h59.41a1.54,1.54,0,0,1,1.54,1.54v8.64a1.54,1.54,0,0,1-1.54,1.54h-59.41a1.54,1.54,0,0,1-1.54-1.54v-8.64a1.54,1.54,0,0,1,1.54-1.54" transform="translate(-221.1 -205.95)"/><path class="cls-38" d="M1348.31,1053.14h45.8a1.55,1.55,0,0,1,1.55,1.54v8.64a1.55,1.55,0,0,1-1.55,1.54h-45.8a1.54,1.54,0,0,1-1.54-1.54v-8.64a1.54,1.54,0,0,1,1.54-1.54" transform="translate(-221.1 -205.95)"/><path class="cls-38" d="M1348.31,1041.77h59.41a1.55,1.55,0,0,1,1.54,1.55V1052a1.55,1.55,0,0,1-1.54,1.55h-59.41a1.55,1.55,0,0,1-1.54-1.55v-8.63a1.55,1.55,0,0,1,1.54-1.55" transform="translate(-221.1 -205.95)"/><path class="cls-39" d="M1348.31,1041.77h45.8a1.56,1.56,0,0,1,1.55,1.55V1052a1.56,1.56,0,0,1-1.55,1.55h-45.8a1.55,1.55,0,0,1-1.54-1.55v-8.63a1.55,1.55,0,0,1,1.54-1.55" transform="translate(-221.1 -205.95)"/><path class="cls-40" d="M1348.31,1030.23h59.41a1.54,1.54,0,0,1,1.54,1.54v8.64a1.55,1.55,0,0,1-1.54,1.54h-59.41a1.55,1.55,0,0,1-1.54-1.54v-8.64a1.54,1.54,0,0,1,1.54-1.54" transform="translate(-221.1 -205.95)"/><path class="cls-38" d="M1348.31,1030.23h45.8a1.55,1.55,0,0,1,1.55,1.54v8.64a1.56,1.56,0,0,1-1.55,1.54h-45.8a1.55,1.55,0,0,1-1.54-1.54v-8.64a1.54,1.54,0,0,1,1.54-1.54" transform="translate(-221.1 -205.95)"/><path class="cls-38" d="M1286,1191.43h59.4A1.55,1.55,0,0,1,1347,1193v8.64a1.55,1.55,0,0,1-1.55,1.54H1286a1.55,1.55,0,0,1-1.55-1.54V1193a1.55,1.55,0,0,1,1.55-1.54" transform="translate(-221.1 -205.95)"/><path class="cls-39" d="M1286,1191.43h45.8a1.54,1.54,0,0,1,1.54,1.54v8.64a1.54,1.54,0,0,1-1.54,1.54H1286a1.55,1.55,0,0,1-1.55-1.54V1193a1.55,1.55,0,0,1,1.55-1.54" transform="translate(-221.1 -205.95)"/><path class="cls-40" d="M1286,1179.88h59.4a1.56,1.56,0,0,1,1.55,1.55v8.63a1.56,1.56,0,0,1-1.55,1.55H1286a1.56,1.56,0,0,1-1.55-1.55v-8.63a1.56,1.56,0,0,1,1.55-1.55" transform="translate(-221.1 -205.95)"/><path class="cls-38" d="M1286,1179.88h45.8a1.55,1.55,0,0,1,1.54,1.55v8.63a1.55,1.55,0,0,1-1.54,1.55H1286a1.56,1.56,0,0,1-1.55-1.55v-8.63a1.56,1.56,0,0,1,1.55-1.55" transform="translate(-221.1 -205.95)"/><path class="cls-38" d="M1286,1168.51h59.4a1.56,1.56,0,0,1,1.55,1.55v8.63a1.56,1.56,0,0,1-1.55,1.55H1286a1.56,1.56,0,0,1-1.55-1.55v-8.63a1.56,1.56,0,0,1,1.55-1.55" transform="translate(-221.1 -205.95)"/><path class="cls-39" d="M1286,1168.51h45.8a1.55,1.55,0,0,1,1.54,1.55v8.63a1.55,1.55,0,0,1-1.54,1.55H1286a1.56,1.56,0,0,1-1.55-1.55v-8.63a1.56,1.56,0,0,1,1.55-1.55" transform="translate(-221.1 -205.95)"/><path class="cls-40" d="M1286,1157h59.4a1.55,1.55,0,0,1,1.55,1.54v8.64a1.55,1.55,0,0,1-1.55,1.54H1286a1.55,1.55,0,0,1-1.55-1.54v-8.64A1.55,1.55,0,0,1,1286,1157" transform="translate(-221.1 -205.95)"/><path class="cls-38" d="M1286,1157h45.8a1.54,1.54,0,0,1,1.54,1.54v8.64a1.54,1.54,0,0,1-1.54,1.54H1286a1.55,1.55,0,0,1-1.55-1.54v-8.64A1.55,1.55,0,0,1,1286,1157" transform="translate(-221.1 -205.95)"/><path class="cls-38" d="M1286,1145.37h59.4a1.55,1.55,0,0,1,1.55,1.54v8.64a1.55,1.55,0,0,1-1.55,1.54H1286a1.55,1.55,0,0,1-1.55-1.54v-8.64a1.55,1.55,0,0,1,1.55-1.54" transform="translate(-221.1 -205.95)"/><path class="cls-39" d="M1286,1145.37h45.8a1.54,1.54,0,0,1,1.54,1.54v8.64a1.54,1.54,0,0,1-1.54,1.54H1286a1.55,1.55,0,0,1-1.55-1.54v-8.64a1.55,1.55,0,0,1,1.55-1.54" transform="translate(-221.1 -205.95)"/><path class="cls-40" d="M1286,1133.82h59.4a1.55,1.55,0,0,1,1.55,1.54V1144a1.55,1.55,0,0,1-1.55,1.54H1286a1.55,1.55,0,0,1-1.55-1.54v-8.64a1.55,1.55,0,0,1,1.55-1.54" transform="translate(-221.1 -205.95)"/><path class="cls-38" d="M1286,1133.82h45.8a1.54,1.54,0,0,1,1.54,1.54V1144a1.54,1.54,0,0,1-1.54,1.54H1286a1.55,1.55,0,0,1-1.55-1.54v-8.64a1.55,1.55,0,0,1,1.55-1.54" transform="translate(-221.1 -205.95)"/><g id="Page-1-3" data-name="Page-1"><g id="app_daedalus_diagnostics" data-name="app daedalus diagnostics"><path id="cardano-logo" class="cls-15" d="M690.38,1070a1.85,1.85,0,1,1-1.74-1.94,1.85,1.85,0,0,1,1.74,1.94Zm24.08,15.86A1.84,1.84,0,0,1,712,1085a1.82,1.82,0,0,1,.82-2.46,1.84,1.84,0,0,1,2.48.81,1.82,1.82,0,0,1-.82,2.46Zm-1.78,28.67a1.84,1.84,0,1,1,2.56-.53,1.86,1.86,0,0,1-2.56.53Zm-26,12.8a1.85,1.85,0,1,1,1.74,1.93,1.84,1.84,0,0,1-1.74-1.93Zm-23.89-15.87a1.86,1.86,0,0,1,2.48.82,1.82,1.82,0,0,1-.82,2.46,1.84,1.84,0,1,1-1.66-3.28Zm1.78-28.66a1.83,1.83,0,0,1,.53,2.54,1.84,1.84,0,1,1-.53-2.54Zm26.67-2a2.63,2.63,0,1,1-2.48-2.77,2.64,2.64,0,0,1,2.48,2.77ZM705.45,1092a2.65,2.65,0,0,1-3.54-1.16,2.63,2.63,0,1,1,3.54,1.16Zm-2.59,17.86a2.61,2.61,0,0,1-.76-3.63,2.65,2.65,0,0,1,3.65-.76,2.61,2.61,0,0,1,.76,3.63,2.65,2.65,0,0,1-3.65.76Zm-17,6.69a2.63,2.63,0,1,1,2.48,2.77,2.64,2.64,0,0,1-2.48-2.77Zm-14.07-11.16a2.65,2.65,0,0,1,3.54,1.16,2.62,2.62,0,0,1-1.17,3.52,2.65,2.65,0,0,1-3.54-1.16,2.61,2.61,0,0,1,1.17-3.52Zm2.59-17.86a2.61,2.61,0,0,1,.76,3.63,2.65,2.65,0,0,1-3.65.76,2.61,2.61,0,0,1-.76-3.63,2.65,2.65,0,0,1,3.65-.76ZM705.68,1072a1.45,1.45,0,1,1-.41-2,1.45,1.45,0,0,1,.41,2Zm14.7,28a1.43,1.43,0,0,1-1.36-1.52,1.45,1.45,0,1,1,2.89.17,1.44,1.44,0,0,1-1.53,1.35Zm-17.08,26.68a1.43,1.43,0,0,1,.64-1.93,1.44,1.44,0,1,1-.64,1.93Zm-31.78-1.37a1.45,1.45,0,0,1,2-.41,1.43,1.43,0,0,1,.42,2,1.45,1.45,0,1,1-2.42-1.58Zm-14.7-28a1.44,1.44,0,1,1-.17,2.88,1.43,1.43,0,0,1-1.36-1.52,1.45,1.45,0,0,1,1.53-1.36Zm17.08-26.67A1.45,1.45,0,1,1,672,1070a1.44,1.44,0,0,1,1.95.64Zm28.28,9a2.25,2.25,0,0,1-3.1.65,2.22,2.22,0,0,1-.65-3.09,2.25,2.25,0,0,1,3.11-.64,2.22,2.22,0,0,1,.64,3.08Zm9.8,21.22a2.23,2.23,0,1,1,2.36-2.1,2.23,2.23,0,0,1-2.36,2.1Zm-13.59,19a2.24,2.24,0,1,1,3,1,2.24,2.24,0,0,1-3-1ZM675,1117.68a2.25,2.25,0,0,1,3.1-.64,2.22,2.22,0,0,1,.65,3.09,2.26,2.26,0,0,1-3.11.64,2.23,2.23,0,0,1-.64-3.09Zm-9.8-21.21a2.23,2.23,0,1,1-2.36,2.1,2.23,2.23,0,0,1,2.36-2.1Zm13.58-19a2.21,2.21,0,0,1-1,3,2.23,2.23,0,1,1,1-3ZM693.86,1094a4.46,4.46,0,1,1,3.76-2,4.45,4.45,0,0,1-3.76,2Zm5.32,9.09h-.26a4.46,4.46,0,1,1,.51-8.9,4.46,4.46,0,0,1,4.22,4.71,4.47,4.47,0,0,1-4.47,4.2Zm-5.27,9.12a4.46,4.46,0,0,1-4-2.46,4.37,4.37,0,0,1-.25-3.4,4.44,4.44,0,0,1,2.24-2.59,4.54,4.54,0,0,1,2-.47,4.46,4.46,0,0,1,2,8.44,4.58,4.58,0,0,1-2,.48Zm-10.58,0a4.51,4.51,0,0,1-2.46-.73,4.45,4.45,0,0,1-1.29-6.18,4.51,4.51,0,0,1,6.21-1.28,4.44,4.44,0,0,1,1.3,6.18,4.5,4.5,0,0,1-3.76,2Zm-5.3-9.09h-.26a4.44,4.44,0,1,1,.26,0Zm5.27-9.12a4.46,4.46,0,0,1-2-8.44,4.61,4.61,0,0,1,2-.48,4.45,4.45,0,0,1,2,8.44,4.41,4.41,0,0,1-2,.48Z" transform="translate(-221.1 -205.95)"/></g></g></svg>