<svg id="Layer_26" data-name="Layer 26" xmlns="http://www.w3.org/2000/svg" viewBox="0 0 705.56 808.26"><defs><style>.cls-1{fill:#232323;}.cls-2,.cls-4{fill:#44bba4;}.cls-2{opacity:0.1;isolation:isolate;}.cls-3{fill:#fcdfa6;}.cls-5{fill:#ff5553;}.cls-6{fill:#0033ad;}.cls-7{fill:none;stroke:#fff;stroke-miterlimit:10;}.cls-8{fill:#fff;}</style></defs><polygon class="cls-1" points="613.78 609.13 613.78 633.23 502.98 645.33 392.18 633.23 392.18 609.13 502.98 597.03 613.78 609.13"/><path class="cls-2" d="M978.4,926.4l-1.7-773h0a17.54,17.54,0,0,0-16.6-17.5,18,18,0,0,0-9.8,2.3h0L616,332.3h0a16.93,16.93,0,0,0-5.8,5.5,17.12,17.12,0,0,0-2.9,9.6h0l.9,386.5h0a16.93,16.93,0,0,0,1.9,7.8A17.42,17.42,0,0,0,617,749h0L952.1,941.5h0a16.89,16.89,0,0,0,7.7,2.3,17.65,17.65,0,0,0,18.6-16.6v-.8Z" transform="translate(-607.22 -135.87)"/><path class="cls-3" d="M976.7,154.5A17.63,17.63,0,1,0,958.1,171,17.45,17.45,0,0,0,976.7,154.5Z" transform="translate(-607.22 -135.87)"/><path class="cls-4" d="M1278.6,353.9a17.58,17.58,0,1,0,7.8-23.6A17.52,17.52,0,0,0,1278.6,353.9Z" transform="translate(-607.22 -135.87)"/><path class="cls-1" d="M1280.4,722.9a17.63,17.63,0,1,0,24.4-5.1A17.63,17.63,0,0,0,1280.4,722.9Z" transform="translate(-607.22 -135.87)"/><path class="cls-3" d="M978.4,927.5a17.63,17.63,0,1,0-18.6,16.6A17.72,17.72,0,0,0,978.4,927.5Z" transform="translate(-607.22 -135.87)"/><path class="cls-5" d="M639.6,357.1a17.63,17.63,0,1,0-24.4,5A17.63,17.63,0,0,0,639.6,357.1Z" transform="translate(-607.22 -135.87)"/><path class="cls-6" d="M641.4,726.1a17.58,17.58,0,1,0-7.8,23.6A17.52,17.52,0,0,0,641.4,726.1Z" transform="translate(-607.22 -135.87)"/><line class="cls-7" x1="412.98" y1="506.43" x2="59.28" y2="302.23"/><line class="cls-7" x1="59.28" y1="506.43" x2="412.98" y2="302.23"/><line class="cls-7" x1="236.08" y1="608.53" x2="236.08" y2="200.13"/><circle class="cls-7" cx="236.88" cy="404.33" r="151.9"/><polygon class="cls-4" points="502.18 200.63 325.28 302.73 325.28 506.93 502.18 609.03 678.98 506.93 678.98 302.73 502.18 200.63"/><polygon class="cls-6" points="236.88 200.63 59.98 302.73 59.98 506.93 236.88 609.03 413.78 506.93 413.78 302.73 236.88 200.63"/><polygon class="cls-3" points="236.88 263.53 304.38 302.53 237.18 341.43 169.28 302.53 236.88 263.53"/><polygon class="cls-5" points="502.68 263.83 570.18 302.83 502.98 341.63 435.08 302.83 502.68 263.83"/><polygon class="cls-8" points="325.28 506.93 369.48 532.43 413.78 506.93 413.78 302.73 369.48 277.13 325.28 302.73 325.28 506.93"/><rect class="cls-6" x="325.28" y="472.93" width="88.4" height="17"/><rect class="cls-4" x="281.08" y="421.83" width="132.6" height="17"/><rect class="cls-6" x="281.08" y="404.83" width="88.4" height="17"/><rect class="cls-4" x="368.78" y="387.83" width="88.4" height="17"/><rect class="cls-6" x="325.28" y="370.73" width="131.9" height="17"/><rect class="cls-4" x="325.28" y="319.73" width="88.4" height="17"/><rect class="cls-6" x="325.28" y="302.73" width="88.4" height="17"/><rect class="cls-4" x="325.28" y="489.93" width="88.4" height="17"/><rect class="cls-4" x="368.78" y="455.83" width="88.4" height="17"/><rect class="cls-6" x="281.08" y="336.73" width="88.4" height="17"/><line class="cls-7" x1="502.98" y1="404.33" x2="679.78" y2="302.23"/><path class="cls-7" d="M1110.2,744.4" transform="translate(-607.22 -135.87)"/><path class="cls-7" d="M1108.6,540.2" transform="translate(-607.22 -135.87)"/><line class="cls-7" x1="237.68" y1="404.33" x2="236.08" y2="608.53"/><path class="cls-8" d="M797.1,627.9a9.77,9.77,0,0,0-4.4-7.2l-12.6-7.4h0l-3.4-12h0l7.8,4.6c2.2,1.3,4.3.6,4.4-2a9.25,9.25,0,0,0-4.1-7.4l-11.4-6.7h0l-14.2-49.6a9.52,9.52,0,0,0-3.8-5.3c-1.7-1-3.2-.6-3.8.7L738,568.8h0l-11.1-6.5c-2.2-1.3-4.3-.6-4.4,2a9.25,9.25,0,0,0,4.1,7.4l8.1,4.8h0l-3.3,8h0L719,577.2c-2.2-1.3-4.3-.6-4.4,2a9.25,9.25,0,0,0,4.1,7.4l9.5,5.6h0L717.1,619c-.8,2,.2,5.4,2.4,7.6a4.5,4.5,0,0,0,1.4,1.1c1.7,1,3.2.8,3.8-.7L737,597.5h0l37.5,22h0l12.8,44.6a8.88,8.88,0,0,0,3.8,5.3,5.85,5.85,0,0,0,1.5.6c2.1.3,3.1-1.9,2.2-4.9l-11.6-40.4h0l9.4,5.5C795.3,631.7,797.2,630.7,797.1,627.9Zm-41.5-74.7,8.9,31.4h0l-17.6-10.4h0l8.7-21Zm-15.4,36.7,3.3-8.1h0l24.1,14.1h0l3.4,12h0l-30.8-18Z" transform="translate(-607.22 -135.87)"/></svg>