<?xml version="1.0" encoding="utf-8"?>
<!-- Generator: Adobe Illustrator 25.0.0, SVG Export Plug-In . SVG Version: 6.00 Build 0)  -->
<svg version="1.1" id="Layer_28" xmlns="http://www.w3.org/2000/svg" xmlns:xlink="http://www.w3.org/1999/xlink" x="0px" y="0px"
	 viewBox="0 0 705.6 326" style="enable-background:new 0 0 705.6 326;" xml:space="preserve">
<style type="text/css">
	.st0{opacity:0.1;fill:#44BBA4;enable-background:new    ;}
	.st1{fill:#0033AD;}
	.st2{fill:#FF5553;}
	.st3{fill:#44BBA4;}
	.st4{fill:#FCDFA6;}
	.st5{fill:#232323;}
	.st6{fill:none;stroke:#FFFFFF;stroke-width:0.875;stroke-miterlimit:10;}
	.st7{fill:#FFFFFF;}
</style>
<path class="st0" d="M149.3,300l-0.6-270.6l0,0c0-3.3-2.6-6-5.8-6.1c-1.2-0.1-2.4,0.2-3.4,0.8l0,0L22.4,92l0,0
	c-0.8,0.5-1.5,1.1-2,1.9c-0.7,1-1,2.2-1,3.4l0,0l0.3,135.3l0,0c0,0.9,0.2,1.9,0.7,2.7c0.5,1.1,1.4,2,2.4,2.6l0,0l117.3,67.4l0,0
	c0.8,0.5,1.8,0.8,2.7,0.8c3.4,0.2,6.3-2.4,6.5-5.8V300L149.3,300z"/>
<path class="st1" d="M148.7,29.8c0.2-3.4-2.4-6.3-5.8-6.5c-3.4-0.2-6.3,2.4-6.5,5.8c-0.2,3.4,2.4,6.3,5.8,6.5h0
	c3.4,0.2,6.3-2.3,6.5-5.7C148.7,29.9,148.7,29.8,148.7,29.8z"/>
<path class="st1" d="M255,228.7c-1.9,2.8-1.1,6.7,1.8,8.5c2.8,1.9,6.7,1.1,8.5-1.8c1.9-2.9,1.1-6.7-1.8-8.5l0,0
	C260.6,225.1,256.8,225.9,255,228.7z"/>
<path class="st2" d="M255,93.2c-1.9,2.8-1.1,6.7,1.8,8.5c2.8,1.9,6.7,1.1,8.5-1.8c1.9-2.8,1.1-6.7-1.8-8.5l0,0
	C260.6,89.6,256.8,90.4,255,93.2z"/>
<path class="st3" d="M149.3,300.4c0.2-3.4-2.4-6.3-5.8-6.5s-6.3,2.4-6.5,5.8c-0.2,3.4,2.4,6.3,5.8,6.5l0,0
	C146.1,306.3,149,303.8,149.3,300.4z"/>
<path class="st4" d="M30.7,100.7c1.9-2.8,1.1-6.7-1.8-8.5c-2.8-1.9-6.7-1.1-8.5,1.8c-1.9,2.8-1.1,6.7,1.8,8.5l0,0
	C25,104.4,28.8,103.6,30.7,100.7z"/>
<path class="st2" d="M31.3,229.9c-1.5-3-5.2-4.3-8.3-2.7s-4.3,5.2-2.7,8.3c1.5,3,5.2,4.3,8.3,2.7l0,0
	C31.6,236.6,32.8,232.9,31.3,229.9C31.3,229.9,31.3,229.9,31.3,229.9z"/>
<ellipse class="st5" cx="190.5" cy="217.1" rx="29.9" ry="9.9"/>
<rect x="75.1" y="169.3" class="st2" width="57.7" height="16"/>
<circle class="st1" cx="190.5" cy="156.8" r="56.1"/>
<circle class="st4" cx="103.9" cy="126.5" r="56.1"/>
<path class="st3" d="M132.8,219.3c-6.5,11.2-16.7,19.9-28.8,24.5c25.7,9.6,54.6-0.7,68.3-24.5H132.8z"/>
<path class="st3" d="M75.1,219.3H35.6c13.7,23.8,42.6,34.1,68.3,24.5C91.8,239.2,81.6,230.6,75.1,219.3z"/>
<rect x="75.1" y="189" class="st2" width="57.7" height="9.6"/>
<polygon class="st3" points="108.9,287.4 108.9,219.3 99.2,219.3 99.2,281.9 "/>
<polygon class="st2" points="132.8,203.3 75.1,203.3 86.6,212.9 121.2,212.9 "/>
<path class="st6" d="M108.9,167.3c0-26.1,11.3-45.6,16.4-54.4"/>
<path class="st6" d="M82.9,102.1c3.5,0,3.5,6.2,7.1,6.2s3.5-6.2,7.1-6.2s3.5,6.2,7.1,6.2s3.5-6.2,7.1-6.2c3.5,0,3.5,6.2,7.1,6.2
	c3.5,0,3.5-6.2,7.1-6.2"/>
<path class="st6" d="M99.2,167.3c0-26.1-11.3-45.6-16.4-54.4"/>
<path class="st7" d="M215,168.6c-0.1-1.4-1.3-2.4-2.6-2.3h-7.4l-2-5.1h4.6c1.4,0,2.5-1,2.6-2.3c0.1-1.4-1-2.5-2.3-2.6c0,0,0,0-0.1,0
	H201l-8.4-21.2c-0.4-0.9-1.3-1.5-2.3-1.5c-1,0-1.9,0.6-2.3,1.5l-8.1,21.1h-6.6c-1.4,0-2.5,1-2.6,2.3c-0.1,1.4,1,2.5,2.3,2.6
	c0,0,0,0,0.1,0h4.8l-2,5.1h-7.4c-1.4,0-2.5,1-2.6,2.3c-0.1,1.4,1,2.5,2.3,2.6c0,0,0,0,0.1,0h5.6l-6.6,17.1c-0.5,1.3,0.1,2.7,1.4,3.2
	c0.3,0.1,0.6,0.2,0.8,0.1c1,0,1.9-0.6,2.3-1.5l7.3-18.8h22.2l7.6,19c0.4,0.9,1.3,1.6,2.3,1.5c0.3,0,0.6-0.1,0.9-0.1
	c1.2-0.5,1.9-1.9,1.3-3.1v0l-6.9-17.2h5.6C213.9,171.1,215,170,215,168.6z M190.4,142.8l5.3,13.4h-10.4L190.4,142.8L190.4,142.8z
	 M181.3,166.3l2-5.1h14.2l2,5.1H181.3z"/>
<path class="st7" d="M160,126.5c0-5.2-0.7-10.4-2.1-15.4c-19.3,13.8-27.8,38.3-21.4,61.1C151.3,161.7,160,144.7,160,126.5z"/>
<path class="st1" d="M204.5,84.8C204.5,84.8,204.5,84.8,204.5,84.8L204.5,84.8c-1.5-0.3-3.2,0.1-4.3,1.2c-1.9,1.2-4.4,0.9-5.9-0.8
	l0,0c-1.8-2.1-5-2.3-7.1-0.5c-0.2,0.1-0.3,0.3-0.5,0.5l0,0c-1.6,1.8-4.3,2-6.2,0.6l0,0c-1.2-0.9-2.6-1.2-4-0.9h-0.1
	c-2.7,0.6-4.5,3.2-4,5.9c0.3,1.6,1.4,3,2.9,3.6l0,0c3.9,1.7,3.5,7.3-0.6,8.5l5.5-1.1l1.5,6.7l18,0.9l1.4-7.5l4.9,0.9
	c-2.4-0.7-3.8-3.2-3.1-5.6c0.4-1.2,1.2-2.2,2.3-2.8c1.7-0.6,2.9-2,3.2-3.8C209,88,207.2,85.4,204.5,84.8z"/>
</svg>
