<?xml version="1.0" encoding="utf-8"?>
<!-- Generator: Adobe Illustrator 25.0.0, SVG Export Plug-In . SVG Version: 6.00 Build 0)  -->
<svg version="1.1" id="i" xmlns="http://www.w3.org/2000/svg" xmlns:xlink="http://www.w3.org/1999/xlink" x="0px" y="0px"
	 viewBox="0 0 771.4 326" style="enable-background:new 0 0 771.4 326;" xml:space="preserve">
<style type="text/css">
	.st0{fill:#232323;}
	.st1{opacity:0.1;fill:#44BBA4;enable-background:new    ;}
	.st2{fill:#0033AD;}
	.st3{fill:#FF5553;}
	.st4{fill:#44BBA4;}
	.st5{fill:#3BA18E;}
	.st6{fill:#FFFFFF;}
	.st7{fill:#FCDFA6;}
	.st8{fill:none;stroke:#FFFFFF;stroke-width:0.35;stroke-miterlimit:10;}
</style>
<polygon class="st0" points="290.7,202.9 196.3,202.9 136.9,232.5 231.3,232.5 "/>
<path class="st1" d="M150.6,298l-0.6-270.6l0,0c0-3.3-2.6-6-5.8-6.1c-1.2-0.1-2.4,0.2-3.4,0.8l0,0L23.8,90l0,0
	c-0.8,0.5-1.5,1.1-2,1.9c-0.7,1-1,2.2-1,3.4l0,0l0.3,135.3l0,0c0,0.9,0.2,1.9,0.7,2.7c0.5,1.1,1.4,2,2.4,2.6l0,0l117.3,67.4l0,0
	c0.8,0.5,1.8,0.8,2.7,0.8c3.4,0.2,6.3-2.4,6.5-5.8V298L150.6,298z"/>
<path class="st2" d="M150.1,27.8c0.2-3.4-2.4-6.3-5.8-6.5c-3.4-0.2-6.3,2.4-6.5,5.8c-0.2,3.4,2.4,6.3,5.8,6.5h0
	c3.4,0.2,6.3-2.3,6.5-5.7C150.1,27.9,150.1,27.8,150.1,27.8z"/>
<path class="st3" d="M255.7,97.6c1.5,3,5.2,4.3,8.3,2.7c3-1.5,4.3-5.2,2.7-8.3c-1.5-3-5.2-4.3-8.3-2.7l0,0
	C255.4,90.9,254.2,94.6,255.7,97.6C255.7,97.6,255.7,97.6,255.7,97.6z"/>
<path class="st4" d="M256.3,226.7c-1.9,2.8-1.1,6.7,1.8,8.5c2.8,1.9,6.7,1.1,8.5-1.8c1.9-2.9,1.1-6.7-1.8-8.5l0,0
	C262,223.1,258.2,223.9,256.3,226.7z"/>
<path class="st3" d="M150.6,298.4c0.2-3.4-2.4-6.3-5.8-6.5s-6.3,2.4-6.5,5.8c-0.2,3.4,2.4,6.3,5.8,6.5l0,0
	C147.5,304.3,150.4,301.8,150.6,298.4z"/>
<path class="st3" d="M32.1,98.7c1.9-2.8,1.1-6.7-1.8-8.5c-2.8-1.9-6.7-1.1-8.5,1.8c-1.9,2.8-1.1,6.7,1.8,8.5l0,0
	C26.4,102.4,30.2,101.6,32.1,98.7z"/>
<path class="st4" d="M32.7,227.9c-1.5-3-5.2-4.3-8.3-2.7s-4.3,5.2-2.7,8.3c1.5,3,5.2,4.3,8.3,2.7l0,0
	C33,234.6,34.2,230.9,32.7,227.9C32.7,227.9,32.7,227.9,32.7,227.9z"/>
<polygon class="st4" points="85.7,130.8 56.5,124.5 56.5,232.5 85.7,238.8 "/>
<polygon class="st5" points="114.8,124.5 85.7,130.8 85.7,238.8 114.8,232.5 "/>
<polygon class="st4" points="143.9,130.8 114.8,124.5 114.8,232.5 143.9,238.8 "/>
<polygon class="st5" points="173,124.5 143.9,130.8 143.9,238.8 173,232.5 "/>
<polygon class="st4" points="202.2,130.8 173,124.5 173,232.5 202.2,238.8 "/>
<polygon class="st5" points="231.3,124.5 202.2,130.8 202.2,238.8 231.3,232.5 "/>
<circle class="st2" cx="143.9" cy="89.1" r="45.9"/>
<polygon class="st6" points="172.1,60.9 135.7,80.8 115.7,117.2 152.2,97.3 "/>
<circle class="st7" cx="143.9" cy="89.1" r="6.7"/>
<path class="st7" d="M143.9,209.7c-16.1,0-29.1,13.1-29.1,29.2c0,7.7,3.1,15.1,8.5,20.6l20.6,20.6l20.6-20.6
	c11.4-11.4,11.4-29.8,0-41.2C159.1,212.7,151.6,209.7,143.9,209.7L143.9,209.7z"/>
<circle class="st6" cx="143.9" cy="238.8" r="18"/>
<polyline class="st8" points="231.3,124.5 216.7,127.6 202.2,130.8 "/>
<polyline class="st8" points="231.3,142.5 216.7,145.6 202.2,148.8 "/>
<polyline class="st8" points="231.3,160.5 216.7,163.6 202.2,166.8 "/>
<polyline class="st8" points="231.3,178.5 216.7,181.6 202.2,184.8 "/>
<polyline class="st8" points="231.3,196.5 216.7,199.6 202.2,202.8 "/>
<polyline class="st8" points="231.3,214.5 216.7,217.6 202.2,220.8 "/>
<polyline class="st8" points="231.3,232.5 216.7,235.6 202.2,238.8 "/>
<line class="st8" x1="216.7" y1="127.6" x2="216.7" y2="235.6"/>
<polyline class="st8" points="173,124.5 187.6,127.6 202.2,130.8 "/>
<polyline class="st8" points="173,142.5 187.6,145.6 202.2,148.8 "/>
<polyline class="st8" points="173,160.5 187.6,163.6 202.2,166.8 "/>
<polyline class="st8" points="173,178.5 187.6,181.6 202.2,184.8 "/>
<polyline class="st8" points="173,196.5 187.6,199.6 202.2,202.8 "/>
<polyline class="st8" points="173,214.5 187.6,217.6 202.2,220.8 "/>
<polyline class="st8" points="173,232.5 187.6,235.6 202.2,238.8 "/>
<line class="st8" x1="187.6" y1="127.6" x2="187.6" y2="235.6"/>
<polyline class="st8" points="172.7,124.5 158.2,127.6 143.6,130.8 "/>
<polyline class="st8" points="172.7,142.5 158.2,145.6 143.6,148.8 "/>
<polyline class="st8" points="172.7,160.5 158.2,163.6 143.6,166.8 "/>
<polyline class="st8" points="172.7,178.5 158.2,181.6 143.6,184.8 "/>
<polyline class="st8" points="172.7,196.5 158.2,199.6 143.6,202.8 "/>
<polyline class="st8" points="172.7,214.5 158.2,217.6 143.6,220.8 "/>
<polyline class="st8" points="172.7,232.5 158.2,235.6 143.6,238.8 "/>
<line class="st8" x1="158.2" y1="127.6" x2="158.2" y2="235.6"/>
<polyline class="st8" points="114.5,124.5 129,127.6 143.6,130.8 "/>
<polyline class="st8" points="114.5,142.5 129,145.6 143.6,148.8 "/>
<polyline class="st8" points="114.5,160.5 129,163.6 143.6,166.8 "/>
<polyline class="st8" points="114.5,178.5 129,181.6 143.6,184.8 "/>
<polyline class="st8" points="114.5,196.5 129,199.6 143.6,202.8 "/>
<polyline class="st8" points="114.5,214.5 129,217.6 143.6,220.8 "/>
<polyline class="st8" points="114.5,232.5 129,235.6 143.6,238.8 "/>
<line class="st8" x1="129" y1="127.6" x2="129" y2="235.6"/>
<polyline class="st8" points="114.1,124.5 99.6,127.6 85,130.8 "/>
<polyline class="st8" points="114.1,142.5 99.6,145.6 85,148.8 "/>
<polyline class="st8" points="114.1,160.5 99.6,163.6 85,166.8 "/>
<polyline class="st8" points="114.1,178.5 99.6,181.6 85,184.8 "/>
<polyline class="st8" points="114.1,196.5 99.6,199.6 85,202.8 "/>
<polyline class="st8" points="114.1,214.5 99.6,217.6 85,220.8 "/>
<polyline class="st8" points="114.1,232.5 99.6,235.6 85,238.8 "/>
<line class="st8" x1="99.6" y1="127.6" x2="99.6" y2="235.6"/>
<circle class="st6" cx="178.3" cy="84.8" r="2.9"/>
<circle class="st6" cx="147.7" cy="61.1" r="1.8"/>
<circle class="st6" cx="142.6" cy="72" r="1.1"/>
<circle class="st6" cx="164.4" cy="91" r="1.1"/>
<circle class="st6" cx="113" cy="72.3" r="1.1"/>
<circle class="st6" cx="158.7" cy="54.5" r="1.1"/>
<circle class="st6" cx="182.3" cy="97.8" r="1.1"/>
<circle class="st6" cx="127.8" cy="70" r="2.9"/>
<circle class="st6" cx="131.4" cy="55.6" r="2.9"/>
<path class="st6" d="M143.9,130.8l-29.1-6.3v0.1c8.2,6.8,18.5,10.4,29.1,10.4L143.9,130.8L143.9,130.8z"/>
<path class="st6" d="M143.9,130.8v4.2c10.6,0,20.9-3.7,29.1-10.4v-0.1L143.9,130.8z"/>
<path class="st6" d="M143.9,220.8v-11.1c-13.7,0-25.6,9.6-28.5,23l10.9,2.3C128.1,226.7,135.4,220.8,143.9,220.8z"/>
<path class="st6" d="M143.9,209.7v11.1c8.5,0,15.8,5.9,17.6,14.2l10.9-2.3C169.5,219.3,157.6,209.7,143.9,209.7z"/>
<path class="st7" d="M126.3,235l17.6,3.8v-18C135.5,220.8,128.1,226.7,126.3,235z"/>
<path class="st7" d="M161.5,235c-1.8-8.3-9.1-14.2-17.6-14.2v18L161.5,235z"/>
<polygon class="st6" points="74.6,150.7 65.5,148.6 65.5,171.7 74.6,173.7 "/>
<ellipse transform="matrix(0.8495 -0.5275 0.5275 0.8495 -64.4539 58.3123)" class="st6" cx="70" cy="142.1" rx="4.2" ry="5.3"/>
</svg>
