<svg id="Layer_1" data-name="Layer 1" xmlns="http://www.w3.org/2000/svg" viewBox="0 0 617.09 558.94"><defs><style>.cls-1{fill:#faf5d7;}.cls-1,.cls-10,.cls-11,.cls-12,.cls-13,.cls-14,.cls-15,.cls-16,.cls-17,.cls-18,.cls-19,.cls-2,.cls-20,.cls-21,.cls-22,.cls-23,.cls-24,.cls-25,.cls-26,.cls-27,.cls-28,.cls-29,.cls-3,.cls-30,.cls-31,.cls-32,.cls-33,.cls-34,.cls-35,.cls-36,.cls-37,.cls-38,.cls-4,.cls-41,.cls-42,.cls-43,.cls-44,.cls-45,.cls-46,.cls-47,.cls-48,.cls-49,.cls-5,.cls-50,.cls-52,.cls-53,.cls-54,.cls-56,.cls-57,.cls-58,.cls-59,.cls-6,.cls-60,.cls-61,.cls-62,.cls-63,.cls-64,.cls-65,.cls-66,.cls-67,.cls-68,.cls-69,.cls-7,.cls-70,.cls-71,.cls-72,.cls-73,.cls-74,.cls-75,.cls-76,.cls-77,.cls-78,.cls-79,.cls-8,.cls-80,.cls-81,.cls-82,.cls-83,.cls-84,.cls-85,.cls-86,.cls-87,.cls-88,.cls-89,.cls-9,.cls-90,.cls-91{fill-rule:evenodd;}.cls-2,.cls-39{fill:#fff;}.cls-3{fill:#f2f5bc;}.cls-4{fill:#d9c562;}.cls-5{fill:#dfe391;}.cls-6{fill:#becc64;}.cls-7{fill:#918a3a;}.cls-8{fill:#a1b54b;}.cls-9{fill:#7a9931;}.cls-10{fill:#57802c;}.cls-11{fill:#3e6316;}.cls-12{fill:#40611d;}.cls-13{fill:#192e02;}.cls-14{fill:#96810c;}.cls-15{fill:#575220;}.cls-16{fill:#5c5721;}.cls-17{fill:#363609;}.cls-18{fill:#b59f21;}.cls-19{fill:#574a00;}.cls-20{fill:#ded462;}.cls-21{fill:#757536;}.cls-22{fill:#3b3b18;}.cls-23{fill:#262610;}.cls-24{fill:#575726;}.cls-25{fill:#333313;}.cls-26{fill:#99872f;}.cls-27{fill:#594d14;}.cls-28{fill:#7d6d1d;}.cls-29{fill:#574b0e;}.cls-30{fill:#baa955;}.cls-31{fill:#362e08;}.cls-32{fill:#827b34;}.cls-33{fill:#695d21;}.cls-34{fill:#38310f;}.cls-35{fill:#ab8754;}.cls-36{fill:#9c7845;}.cls-37{fill:#875c32;}.cls-38{fill:#fcc858;}.cls-40,.cls-82{fill:#a8a859;}.cls-41{fill:#e39426;}.cls-42{fill:#d46e15;}.cls-43{fill:#877a69;}.cls-44{fill:#7d6e5b;}.cls-45{fill:#73644e;}.cls-46{fill:#5c4d39;}.cls-47{fill:#9c9080;}.cls-48{fill:#918574;}.cls-49{fill:#857763;}.cls-50{fill:#6b5c48;}.cls-51{fill:#f2ece4;}.cls-52{fill:#edd5a5;}.cls-53{fill:#d6b87c;}.cls-54{fill:#ba9659;}.cls-55{fill:#9c702e;}.cls-56{fill:#634924;}.cls-57{fill:#c95c08;}.cls-58{fill:#40211a;}.cls-60{fill:#260f09;}.cls-61{fill:#ed751a;}.cls-62{fill:#7d6442;}.cls-63{fill:#1f0d08;}.cls-64{fill:#ebdfce;}.cls-65{fill:#cfc1b2;}.cls-66{fill:#8f7e6b;}.cls-67{fill:#3b2c17;}.cls-68{fill:#523f24;}.cls-69{fill:#f07b22;}.cls-70{fill:#c93c00;}.cls-71{fill:#c94110;}.cls-72{fill:#573e1b;}.cls-73{fill:#4a3313;}.cls-74{fill:#f5e7c9;}.cls-75{fill:#301f0d;}.cls-76{fill:#2b1914;}.cls-77{fill:#1a0e0b;}.cls-78{fill:#1f1911;}.cls-79{fill:#70482b;}.cls-80{fill:#f2b141;}.cls-81{fill:#e08f1d;}.cls-83{fill:#c2c27a;}.cls-84{fill:#a1a15d;}.cls-85{fill:#8a8a49;}.cls-86{fill:#917c06;}.cls-87{fill:#f5ec8b;}.cls-88{fill:#474518;}.cls-89{fill:#383610;}.cls-90{fill:#262509;}.cls-91{fill:#4b6e26;}</style></defs><path class="cls-1" d="M591.21,291.8c-3.32-103.32-94.47-186.14-206.46-186.14-73.17,0-137.46,35.37-174.15,88.72h0q-16.95,23.69-52.82,40.79-3.28,1.4-6.49,3l-.2.09h0C102.93,262,69.43,314.64,69.43,375.82a162.8,162.8,0,0,0,6.09,44.32,90.14,90.14,0,0,1,46.68,37.27l1.06,1.07q2.91,2.83,5.55,5.91,2.82,2.43,5.43,5.07a89.06,89.06,0,0,1,7.49,6,90.09,90.09,0,0,1,9.8,8c.49.21,1,.41,1.47.63a88.31,88.31,0,0,1,12.82,4.12,89.17,89.17,0,0,1,20.31,6.64,90.73,90.73,0,0,1,14.51,5.6,89.13,89.13,0,0,1,14.93,5.13l.09,0-12.17-6.08h31.07a89.21,89.21,0,0,1,14.15-2.73,88.72,88.72,0,0,1,12.57-1.88,90,90,0,0,1,11.49-1.64A89.77,89.77,0,0,1,291,491.43h50.29a89.49,89.49,0,0,1,30.92,5.46c1.07.32,2.13.66,3.18,1a89.61,89.61,0,0,1,30.9,5.46c1.43.44,2.85.9,4.26,1.41a89,89,0,0,1,22,7.86,89,89,0,0,1,11.68,5,89.38,89.38,0,0,1,18.52,7.72,89.51,89.51,0,0,1,12.31,5.26A89.41,89.41,0,0,1,488,535.52a88.33,88.33,0,0,1,11.62,3.27l7.84,2.61c3,.52,5.85,1.21,8.79,1.94h19a90.29,90.29,0,0,1,14-1.58,88.82,88.82,0,0,1,9.56-2.12q2.68-1,5.42-1.9l3.45-1.14c2.73-.92,5.45-1.86,8.21-2.67q2.22-1,4.47-1.94a89.38,89.38,0,0,1,13-6.51,90.3,90.3,0,0,1,17.38-8.11c.94-.52,1.88-1,2.84-1.52q2.58-1.94,5.25-3.66l1.71-1.14a91.86,91.86,0,0,1,7.89-6.3l.78-.85a89.13,89.13,0,0,1,13.66-20.08,89.4,89.4,0,0,1,33.34-28.47l5.16-2.58a136,136,0,0,0-34.57-57.13h0l-.09-.09q-3.58-3.57-7.43-6.94-45.91-44.78-48-96.8Z" transform="translate(-69.43 -70.53)"/><path class="cls-2" d="M327.59,298.29a52.94,52.94,0,1,1-52.94,52.94,52.94,52.94,0,0,1,52.94-52.94" transform="translate(-69.43 -70.53)"/><path class="cls-3" d="M142.7,446.57c23.51,42.16,63.41,65.57,104.66,61.39s77.54-35.31,95.2-81.65Q340.4,394.47,303.72,403q-23.4,4.38-42.14-34.26-20.34-45.09-118.88,77.84" transform="translate(-69.43 -70.53)"/><path class="cls-3" d="M468.82,445.57c-19.78,40.94-53.35,63.67-88.05,59.61s-65.23-34.29-80.08-79.28q1.81-30.91,32.67-22.64Q353,407.52,368.81,370q17.12-43.78,100,75.57" transform="translate(-69.43 -70.53)"/><path class="cls-4" d="M339.15,175.38,333,171.65l7.27,7.77,1.62-10.28-2.78,6.24" transform="translate(-69.43 -70.53)"/><path class="cls-5" d="M213.88,423.55C236.54,452.2,275,468.1,314.75,465.26s74.74-24,91.76-55.47q-2.08-21.65-37.44-15.85-22.54,3-40.61-23.27c-7.41-11.58-29.62-28.85-49.1,3.64-9.85,16.43-12.87,38.2-65.48,49.24" transform="translate(-69.43 -70.53)"/><path class="cls-6" d="M681.31,452.77,299.16,491.6,74,414.27a161.94,161.94,0,0,1-4.34-30.11,12.23,12.23,0,0,1,20.16,10,21,21,0,0,1,38.52,12.48,22.61,22.61,0,0,1,29.3-6l44.95,4a22.73,22.73,0,0,1,37.52,23.5,23,23,0,0,1,38.3,20.61,21.53,21.53,0,0,1,33.17,5.34,15.74,15.74,0,0,1,26.57-4.79,13.41,13.41,0,0,1,24-.26,18.39,18.39,0,0,1,30-18.47,17.71,17.71,0,0,1,22.3-26.13A16.68,16.68,0,1,1,442,385.62a18.12,18.12,0,0,1,34.38-7.85L568,409.05a18.77,18.77,0,0,1,32.56,5.58,15.38,15.38,0,0,1,28.8,6,19.7,19.7,0,0,1,30.15-10.37,133.07,133.07,0,0,1,21.81,42.55" transform="translate(-69.43 -70.53)"/><path class="cls-7" d="M257,488.08l33.17,0,3.63-362.85c-5.56,2.46-11,5.44-16.38,8.35Q261.61,493.06,257,488.08" transform="translate(-69.43 -70.53)"/><path class="cls-8" d="M90.27,455.39q114.24,70.38,312.55,32L479,421q8.92,6.42,1.18-14a23.31,23.31,0,0,0-42.5,16.23A10.67,10.67,0,0,0,422.42,432a16.24,16.24,0,0,0-26.64,17.85,12,12,0,0,0-18.07,15,12.26,12.26,0,0,0-21.84,8,12.48,12.48,0,0,0-22.78-1.17,13.24,13.24,0,1,0-26.48.23A11.65,11.65,0,0,0,285.2,477a10.5,10.5,0,0,0-18.69-2.26,12.16,12.16,0,0,0-20.36-9.56,17.43,17.43,0,0,0-22.26-15.79L152.52,433a11.57,11.57,0,0,0-16,1.78,15.23,15.23,0,0,0-22-9.9,15.59,15.59,0,0,0-22.58-11.09A10.46,10.46,0,0,0,73,410a157.58,157.58,0,0,0,17.26,45.35" transform="translate(-69.43 -70.53)"/><path class="cls-9" d="M345.34,514.16a137.71,137.71,0,0,1,11.58,8.07L565.66,496q92.46-7.32,119.51-25.76A125.82,125.82,0,0,0,677,440.65a11.27,11.27,0,0,0-18.47,7,12.48,12.48,0,0,0-21.58.79,14.47,14.47,0,0,0-25.15-12.08,15.16,15.16,0,0,0-28.52.2,15.87,15.87,0,0,0-29,4.51,20,20,0,0,0-37.17-3.53Q480,419.71,478.39,421.05a16.65,16.65,0,0,0-31,10.5,10.86,10.86,0,0,0-12.43,14.87,15.25,15.25,0,0,0-19.67,12.46A12.09,12.09,0,0,0,396.63,473a9.77,9.77,0,0,0-14.53,8.09A12.8,12.8,0,0,0,362,492.74,15.54,15.54,0,0,0,332,497.43a12.82,12.82,0,0,0-25.18-2.08,8.57,8.57,0,0,0-14.8,1,14.89,14.89,0,0,0-26.52-.38L280,507.84a76.54,76.54,0,0,1,65.36,6.32" transform="translate(-69.43 -70.53)"/><path class="cls-10" d="M139,506.74q88.34,17.53,124.25,8a119,119,0,0,1,18.55-7.45,12,12,0,0,0-19.32-9.52,10.19,10.19,0,0,0-15.21-8.55,14,14,0,0,0-22.94-6.36l-69.51-16.93a12.1,12.1,0,0,0-20.5-6.24A16.31,16.31,0,0,0,108.22,451a11.08,11.08,0,0,0-20.51-.3,146.71,146.71,0,0,0,51.33,56" transform="translate(-69.43 -70.53)"/><path class="cls-11" d="M153.62,480.76l-18.27,23.57a154.68,154.68,0,0,1-16.22-12.78s-.7-2.07-2.09-6.22a10,10,0,0,1,17-5.22,10.16,10.16,0,0,1,19.6.65" transform="translate(-69.43 -70.53)"/><path class="cls-10" d="M684.69,467.16a126,126,0,0,1,1.53,30.11L574.73,516.08l-69.32-38-10.62-35.58a14.47,14.47,0,0,1,22.43,15.16,10,10,0,1,1,19,6.46l19.28,14.44a12.93,12.93,0,0,1,22.39,1.37,11.26,11.26,0,0,1,16.34-10.63,15.84,15.84,0,1,1,31.68-.32,11.81,11.81,0,0,1,21.49,7.4,10.81,10.81,0,0,1,19.9-1.79,9.87,9.87,0,0,1,17.38-7.41" transform="translate(-69.43 -70.53)"/><path class="cls-12" d="M685.32,505.93q-77.76,66.34-214.84,33.78a20.21,20.21,0,0,0-9.3-34.93,79.13,79.13,0,0,1-104.26,17.45,92.52,92.52,0,0,0-15.8-10.4,9.4,9.4,0,0,1,17.34,3.64,10.56,10.56,0,0,1,17-3.5,9.85,9.85,0,0,1,15.45-7.2,13.15,13.15,0,0,1,22.3-7.57,12,12,0,0,1,14.56-14.36,11.18,11.18,0,0,1,9.85-18.26A7.44,7.44,0,0,1,450.42,457a8.46,8.46,0,0,1,8.63-13.08,9,9,0,0,1,15.89-6.09,15.84,15.84,0,0,1-1.09,24.74,12.16,12.16,0,0,1-1,4.64q-3.15,3.68,35.48,2.61a8.75,8.75,0,0,1,14.49,9.81A8.31,8.31,0,0,1,535.42,488l20.9,11.89a8.59,8.59,0,0,1,15.95,3.74,10.52,10.52,0,0,1,18.44-4.73,8.48,8.48,0,0,1,11.75-9.44,10.48,10.48,0,0,1,20.68-2A11.81,11.81,0,0,1,644.7,496a7.61,7.61,0,0,1,13.07,1.3,9.34,9.34,0,0,1,17.78-3.81,6.12,6.12,0,0,1,11-5,126,126,0,0,1-1.2,17.36" transform="translate(-69.43 -70.53)"/><path class="cls-13" d="M435.33,515.3q56.57-3,33.24-44.55A10.33,10.33,0,0,0,451,481.06a6.88,6.88,0,0,0-7.89,10.23,13.63,13.63,0,0,0-7.78,24" transform="translate(-69.43 -70.53)"/><path class="cls-13" d="M583.44,545a64.8,64.8,0,0,0,77-38.69,12.93,12.93,0,0,0-18.54,1.87,10,10,0,0,0-18.43,7.4,8.17,8.17,0,0,0-10.8,9.12,7.5,7.5,0,0,0-11.75,7.75A11.18,11.18,0,0,0,583.44,545" transform="translate(-69.43 -70.53)"/><path class="cls-14" d="M435.84,567.85q187.74,32.31,234.47-17.41a127.59,127.59,0,0,0,15.41-47.71,50.19,50.19,0,0,0-45.42,15.79,67.76,67.76,0,0,1-99.48-2,68.57,68.57,0,0,0-53.11-30.9c-21.58-1.35-40,7.66-56.54,24.05a63.25,63.25,0,0,1-78.59,9.28,134.58,134.58,0,0,1,27.57,27.86q23.43,30.79,55.69,21.08" transform="translate(-69.43 -70.53)"/><path class="cls-15" d="M211.56,193q-12.72,18.28-34.91,31.92l-44,277.52a130.31,130.31,0,0,0,92.11,23.41s12.49-127.58,37.48-382.76A199.81,199.81,0,0,0,211.56,193" transform="translate(-69.43 -70.53)"/><path class="cls-16" d="M96.07,464.74a147.87,147.87,0,0,0,24.75,28.33s7.24-83.41,21.71-250.22a139.66,139.66,0,0,0-18.07,12.64Q96.07,464.74,96.07,464.74" transform="translate(-69.43 -70.53)"/><path class="cls-17" d="M540.68,559.82l-17.08,3.65-43.26-41.8,6.4-5.14,27.79,32.73s-10.19-15-30.55-45l14.42-5.21s7.94,16.35,23.83,49t-20.63-58l13.63-2.38s3.33,15.57,10,46.7L521,482.66,539.68,486s-2.62,19.92-7.85,59.77l16.08-56.66,13.18,6.15-20.72,50.85,24-44.56L575,507.5l-34.36,52.32" transform="translate(-69.43 -70.53)"/><path class="cls-18" d="M416.66,590.48q84.57,42.48,207.86,9.43a145.1,145.1,0,0,0,49-55.67,88.82,88.82,0,0,1-103.08,5.5,107.16,107.16,0,0,0-120.3,3.55,55.91,55.91,0,0,1-75.84-13.83,182.43,182.43,0,0,1,11.29,14.92,143.84,143.84,0,0,0,31.05,36.1" transform="translate(-69.43 -70.53)"/><path class="cls-19" d="M576.43,593.22,593,600.88l53.65-32.55-5.32-6.71-35.82,26.89,41.45-38.72-13.47-8.62-35.56,44.4,34.39-54.29L619,525.71l-21,45.2,16.29-51.64-19.83-.88s-1.93,20.87-5.8,62.62t-3.28-61.36l-14.84,3.22s3.12,18.84,9.35,56.52t-14.12-50.88l-12.23,3.55s7.62,20.39,22.88,61.16" transform="translate(-69.43 -70.53)"/><path class="cls-20" d="M460.82,616.77A176.71,176.71,0,0,0,627.33,598,128.93,128.93,0,0,0,517,592.36a121.86,121.86,0,0,1-106.7-7.58,160,160,0,0,0,50.57,32" transform="translate(-69.43 -70.53)"/><path class="cls-19" d="M475.62,590.1,459.56,600,400.5,573.07l4.65-7.54,40.06,23.26-47.28-34.73,12.78-10.49,41.92,41.28-41.91-51.58,13-7.34,27,43.88-23-51.06L448,515.43s4.53,21.21,13.58,63.62t-4.09-63.42l15.63,1.5-2.73,59.19s2.77-18,8.32-54l13,2.16s-5.35,21.86-16.07,65.59" transform="translate(-69.43 -70.53)"/><path class="cls-21" d="M424.48,324.05h6.17a4.5,4.5,0,0,1,4.49,4.49v60.7a4.5,4.5,0,0,1-4.49,4.49h-6.17a4.5,4.5,0,0,1-4.49-4.49v-60.7a4.5,4.5,0,0,1,4.49-4.49" transform="translate(-69.43 -70.53)"/><path class="cls-22" d="M421.33,204.26h30.12a42.75,42.75,0,0,1,42.63,42.63v59.52A42.75,42.75,0,0,1,451.45,349H421.33a42.75,42.75,0,0,1-42.62-42.62V246.89a42.75,42.75,0,0,1,42.62-42.63" transform="translate(-69.43 -70.53)"/><path class="cls-23" d="M406.7,217.08l20.52,122.46a35.22,35.22,0,0,1-33.49-54.9q-4.28-31.15-4.28-31.15c-4-20.85,15-18.34,17.25-36.41" transform="translate(-69.43 -70.53)"/><path class="cls-24" d="M459.29,157.33h38.08a54.06,54.06,0,0,1,53.89,53.9v95.3a54,54,0,0,1-53.89,53.89H459.29a54,54,0,0,1-53.89-53.89v-95.3a54.06,54.06,0,0,1,53.89-53.9" transform="translate(-69.43 -70.53)"/><path class="cls-25" d="M429.65,171.3q36.27-3.59,13.49,9.47l-23.95-.11a38.09,38.09,0,0,1,10.46-9.36m-6.76,54.17q25.17,67,11.88,120.39A21.16,21.16,0,0,1,414.9,321.3l-5.85-71a16.85,16.85,0,0,1,6.05-13.17Q421.15,231.74,422.89,225.47Z" transform="translate(-69.43 -70.53)"/><path class="cls-26" d="M426.52,119.08H560.41a27.28,27.28,0,0,1,0,54.55H426.52a27.28,27.28,0,1,1,0-54.55" transform="translate(-69.43 -70.53)"/><path class="cls-27" d="M419.41,119.08h0a22.31,22.31,0,0,1,22.25,22.24v10.06a22.31,22.31,0,0,1-22.25,22.25h0a22.31,22.31,0,0,1-22.24-22.25V141.32a22.31,22.31,0,0,1,22.24-22.24" transform="translate(-69.43 -70.53)"/><path class="cls-28" d="M538.15,168.62l21.92,7.47a25.34,25.34,0,0,0-5.8-43.84l-58.64-17a50,50,0,0,0-3.53,17.55,14.93,14.93,0,0,1-22,12.34,21.84,21.84,0,0,0-28.88,24.71l97-1.22" transform="translate(-69.43 -70.53)"/><path class="cls-29" d="M550.12,173.23l-88.35-2.56a13.85,13.85,0,0,1,20.75-12.44,12.44,12.44,0,0,0,18.48-15l43.94,10.54a13.85,13.85,0,0,1,5.18,19.43" transform="translate(-69.43 -70.53)"/><path class="cls-30" d="M469.05,169.64a24.77,24.77,0,0,0,4.65-15.15V144a24.93,24.93,0,0,0-24.15-24.86h14.22a25,25,0,0,1,24,24.86v12.92a25.7,25.7,0,0,1-4.65,12.77H469.05" transform="translate(-69.43 -70.53)"/><path class="cls-26" d="M471.59,169.64H481a26.2,26.2,0,0,0,4.78-14.43l.06-7.66a16.63,16.63,0,0,1-10.12,2.67c.07,3.28.11,4.93.11,4.93a26.4,26.4,0,0,1-4.22,14.49" transform="translate(-69.43 -70.53)"/><path class="cls-31" d="M437.56,133.33a21.24,21.24,0,0,1,1.5,7.84v9.35c0,11.38-9,20.69-20,20.69A20,20,0,0,1,401.32,160a27.48,27.48,0,0,0,6.8.85h1.2c15.07,0,6.63-20.89,28.24-27.55" transform="translate(-69.43 -70.53)"/><path class="cls-26" d="M419.41,130h0a13.35,13.35,0,0,1,13.32,13.31v6a13.36,13.36,0,0,1-13.32,13.32h0a13.36,13.36,0,0,1-13.31-13.32v-6A13.35,13.35,0,0,1,419.41,130" transform="translate(-69.43 -70.53)"/><path class="cls-27" d="M419.41,138.81h0a6.16,6.16,0,0,1,6.15,6.15v2.78a6.16,6.16,0,0,1-6.15,6.15h0a6.16,6.16,0,0,1-6.14-6.15V145a6.16,6.16,0,0,1,6.14-6.15" transform="translate(-69.43 -70.53)"/><path class="cls-32" d="M467.8,168.75h56.05a45,45,0,0,1,44.91,44.91V315.51a45,45,0,0,1-44.91,44.91H467.8a45,45,0,0,1-44.91-44.91V213.66a45,45,0,0,1,44.91-44.91" transform="translate(-69.43 -70.53)"/><path class="cls-33" d="M445.9,183.94q71.13,22.78-2.49,80.79a15,15,0,0,1-10.84-25.93,15,15,0,0,0,2-20.89,20.46,20.46,0,0,1,11.33-34" transform="translate(-69.43 -70.53)"/><path class="cls-33" d="M438.38,277.09q74-10.15,32.62,74a15,15,0,0,1-21-18.72,14.94,14.94,0,0,0-7.21-19.71,20.46,20.46,0,0,1-4.44-35.53" transform="translate(-69.43 -70.53)"/><path class="cls-34" d="M436,270q62-41.62,61.78,52.11a15,15,0,0,1-27.06-7.6A14.94,14.94,0,0,0,455.63,300,20.45,20.45,0,0,1,436,270" transform="translate(-69.43 -70.53)"/><path class="cls-35" d="M553.19,241.79c.77,3.5,3.66,5.05,8.28,4.94,16.54-.16,29.92-2.81,39.63-8.31,2.77-1.57,3.65-3.9,2.44-8.61t-6.64-26.22c-2.6-10.59-9-19.55-18-23.4A22.39,22.39,0,0,0,553.55,185c-6.69,6.81-9.36,17.55-7,28.12,4.05,19.26,6.64,28.69,6.64,28.69" transform="translate(-69.43 -70.53)"/><path class="cls-36" d="M569,209.71q21.78,31,35.76,24.56a13.37,13.37,0,0,1-.36-3.92,13.47,13.47,0,0,1-13.3-17.6A15.11,15.11,0,0,0,569.53,195a4.62,4.62,0,0,1-6.62-5.41,16.5,16.5,0,0,0-2.32,3.24,11.12,11.12,0,0,0-.37,9.88,14.17,14.17,0,0,0,8.82,7" transform="translate(-69.43 -70.53)"/><path class="cls-37" d="M573.3,246.53a39,39,0,0,0,30.2-9.05,13.51,13.51,0,0,1-.06-3.81,13.36,13.36,0,0,1-16-14.16,14.48,14.48,0,0,0-5.37-12.16c-3.66-2.94-8-3.34-13-2.65A8.22,8.22,0,0,1,561,192.19a26.82,26.82,0,0,0-2.08,22.52Z" transform="translate(-69.43 -70.53)"/><path class="cls-38" d="M609.29,258.2l-7.24-19.53a42.17,42.17,0,0,0-2.2-5l-.85.22a13.42,13.42,0,0,1-4.22,4.51,24.1,24.1,0,0,1-3.8,2.21c-.34.15-.65.35-1.06.56l-4.25,2.12a11,11,0,0,1-1,.49,13.51,13.51,0,0,1-11.13,1.71l.43.45.42.4,3.82,3.83a21.08,21.08,0,0,1,1.89,2.1c.19.13.38.26.56.4l1,.4c.65.14,1.28.3,1.92.48a20.14,20.14,0,0,1,5,1l1.08.36c.58.08,1.16.17,1.73.3a19.42,19.42,0,0,1,3.79.81,21.19,21.19,0,0,1,2.71.3,20.27,20.27,0,0,1,6.53,1.12c.35.08.69.13,1,.2a21.15,21.15,0,0,1,3.32.57l.53,0" transform="translate(-69.43 -70.53)"/><path class="cls-39" d="M557.43,251.5a4.6,4.6,0,0,1-4.54-4.37,4.14,4.14,0,0,1,4-4.49,89.92,89.92,0,0,0,23.22-3.37A88.26,88.26,0,0,0,601.57,230a4.35,4.35,0,0,1,5.92,1.67,4.39,4.39,0,0,1-1.35,6,96.44,96.44,0,0,1-23.36,10.09,98.42,98.42,0,0,1-25.35,3.69" transform="translate(-69.43 -70.53)"/><path class="cls-40" d="M569.91,254.07l0-.13a63.83,63.83,0,0,0-1.15-6.91,140.61,140.61,0,0,0,6.52-16.14c3.52-10.68,5-20.44,3.89-28.32-.75-5.19-2.7-9.54-6.07-12.73a20.23,20.23,0,0,0-5.45-9.43l-.59-.6a20.42,20.42,0,0,0-5.67-4c-.37-.19-.74-.38-1.12-.55s-.75-.4-1.14-.58-.75-.38-1.13-.55a20.09,20.09,0,0,0-4-1.67l-.31-.11c8.35.16,15.15,1.82,20.57,4.71,9.39,5,14.43,13.37,16,23.92,1.4,9.67-.28,21.15-4.32,33.41a164.43,164.43,0,0,1-11.08,25.41,20,20,0,0,0-4.93-5.74" transform="translate(-69.43 -70.53)"/><path class="cls-38" d="M535.37,446.11c-4.27,15.23-6.74,42.36-4.56,58.09t6.73,72.12a13.91,13.91,0,0,0,24.78-.77c5.09-68.35,8.74-103.35,8.74-103.35,4.68-6,8-19.5,5.25-26.57-26.86,4.38-40.94.48-40.94.48" transform="translate(-69.43 -70.53)"/><path class="cls-38" d="M469.5,445.24c27.16-5.19,43.64,4.69,43.64,4.69a70.85,70.85,0,0,1-5.39,35.16Q485,590.51,485,590.52l-25-1c3.93-44.68,9.57-144.28,9.57-144.28" transform="translate(-69.43 -70.53)"/><path class="cls-41" d="M540.66,580.21a12.43,12.43,0,0,0,20.67-6.55,22.67,22.67,0,0,1-16.28-13.58c-2.85-6.94-2.85-15.11,2.05-21.1A42.32,42.32,0,0,0,552,494.39a18.06,18.06,0,0,1,8.75-24.67c4.46-1.89,11.73-9.19,7.73-24.6-21.79,1.69-31.69,16.7-31.69,16.7a96.57,96.57,0,0,0-2.5,35.8l6.36,82.59" transform="translate(-69.43 -70.53)"/><path class="cls-41" d="M464.48,581.19l8.72,1a23.38,23.38,0,0,1,1.7-29c4.45-5,7.32-9.3,6.92-16.55-.45-7.46,3.8-15.21,11.43-21a19.6,19.6,0,0,0,7-11c1.82-7.63-1.7-13.35-7.15-20.47s-6.11-27.15,15.08-32.29L484.81,448,473.2,461.86Z" transform="translate(-69.43 -70.53)"/><path class="cls-42" d="M534.3,497.62q2.06,26.6,3.71,48.1-.43-8.15,7.85-18.76a20.19,20.19,0,0,0-2-24.22c-5.4-6-7.13-14.26-5.45-22.17,3.67-17.35,17.27-23.47,21.62-32.12-7.1-4.44-16.52-4.08-20.73-.89-6.09,20-6.43,39-5,50.06" transform="translate(-69.43 -70.53)"/><path class="cls-42" d="M473.29,533.14q0,10.65-6.36,14.52l7.46-101.45c6.25.51,21.48,4.15,24.71,5.9-22.85.9-26.92,33.76-18.39,43.32a17.49,17.49,0,0,1-1.49,22.41q-6.3,7.3-5.93,15.3" transform="translate(-69.43 -70.53)"/><path class="cls-43" d="M530.67,446.16a79.08,79.08,0,0,0,48.88-.77s2.89-35.38,8.66-106.12L515.8,349q14.87,97.18,14.87,97.19" transform="translate(-69.43 -70.53)"/><path class="cls-44" d="M541.3,410.45q16.16-42,38.54-27.27a5.91,5.91,0,0,1-6.62,8,6.67,6.67,0,0,0-7.41,9.62,18.37,18.37,0,0,1-12.61,26.69,9.76,9.76,0,0,0-1.31,17.89,51.14,51.14,0,0,1-18.09-2.44l-.66-4.18q-2.1-18.83,8.16-28.29" transform="translate(-69.43 -70.53)"/><path class="cls-45" d="M528.06,366.26q-.59,35.49-.59,35.5l5.75,37.52c-1.5-9.86,3.95-20.44,13.63-22.72a15.51,15.51,0,0,0,10.95-21.12,7.95,7.95,0,0,1,11.65-9.75A9,9,0,0,0,583.08,377q-49.24-24.79-55-10.76" transform="translate(-69.43 -70.53)"/><path class="cls-46" d="M527.47,401.76q-8.51-66.7,40.36-25.91-3,6.06-12.33,5.8a12.81,12.81,0,0,0-12.12,17.84A10.11,10.11,0,0,1,538,412.7a11.79,11.79,0,0,0-7.59,8.27l-2.94-19.21" transform="translate(-69.43 -70.53)"/><path class="cls-47" d="M466.15,445.08a85,85,0,0,0,49.37,5.63s9.87-32.93,29.59-98.81c0,0-24.41-2.32-74.28-2.5-2.77,62.3-4.68,95.68-4.68,95.68" transform="translate(-69.43 -70.53)"/><path class="cls-48" d="M518.71,356.88q-26.78,2.83-37.28,57.88h0a73.54,73.54,0,0,0-8.53,27.53,67.8,67.8,0,0,0,18.34,6.42,13.2,13.2,0,0,1,6.15-25.36c7,.46,13.8-1.74,18.37-7.31a20.41,20.41,0,0,0-.22-26.09,11.34,11.34,0,0,1,11.74-18,7.38,7.38,0,0,0,5.52-.65,6.72,6.72,0,0,0,3.15-4.58,23.87,23.87,0,0,0-17.24-9.87" transform="translate(-69.43 -70.53)"/><path class="cls-49" d="M537.14,366.37q17.05-21.45-59.89-14.73l-4.35,90.65A37.13,37.13,0,0,1,497,413.38a20.35,20.35,0,0,0,11.44-12.55c1.8-5.65.75-11.64-2.07-16.86-2.86-5-3.22-11-.12-15.77a14.42,14.42,0,0,1,22.25-2.47,6.39,6.39,0,0,0,8.64.64" transform="translate(-69.43 -70.53)"/><path class="cls-50" d="M477.13,354.33q25-7.41,33.32,2.69a15.62,15.62,0,0,0-18.25,21.25,16,16,0,0,1-12.86,22.09,6.08,6.08,0,0,0-4.58,3.11l2.37-49.14" transform="translate(-69.43 -70.53)"/><path class="cls-51" d="M499.43,352a1.68,1.68,0,1,1,3.33-.5,25.93,25.93,0,0,1-32.29,29,1.68,1.68,0,1,1,.86-3.25A22.56,22.56,0,0,0,499.43,352" transform="translate(-69.43 -70.53)"/><path class="cls-52" d="M619.83,254.06a59.19,59.19,0,0,0,64.33-14.84A51.23,51.23,0,0,0,656,177.88a84.22,84.22,0,0,1-36.13,76.18" transform="translate(-69.43 -70.53)"/><path class="cls-53" d="M620,255.93q38.19,4,61.5-14a49.27,49.27,0,0,0-1-34.8c-4.89,9.09.18,15.14-4.84,20.82a22.49,22.49,0,0,1-20.08,7.37q-11-2.39-17.22,3.42A87.84,87.84,0,0,1,620,255.93" transform="translate(-69.43 -70.53)"/><path class="cls-54" d="M623.76,257.44a124.1,124.1,0,0,0,17,4.81,13.42,13.42,0,0,1,6.21-3.41,14.63,14.63,0,0,1,1.9-.47,41.8,41.8,0,0,1,4.21-1.18l.72-.21,1.35-.49a23.32,23.32,0,0,1,2.84-.76,26.34,26.34,0,0,1,2.89-.94l4.7-1.11.61-.21c.64-.28,1.27-.59,1.92-.83l2-.77a17.86,17.86,0,0,1,2.56-1.17c.3-.18.61-.36.9-.55a15.39,15.39,0,0,1,1.62-.93l.69-.51.24-.23a16.26,16.26,0,0,1,1.47-1.63l.24-.34a22.49,22.49,0,0,1-14.69-.73Q653,240.86,645.63,245a88.27,88.27,0,0,1-21.87,12.41" transform="translate(-69.43 -70.53)"/><path class="cls-55" d="M624.67,255.15a89.79,89.79,0,0,0,35.83-68.53l.06-1.55,1.27.89A49.43,49.43,0,0,1,679,245l-1.55-.63a47.75,47.75,0,0,0-15.38-56.16,91.56,91.56,0,0,1-36.44,68.24Z" transform="translate(-69.43 -70.53)"/><path class="cls-56" d="M578.21,270.3q-25.68,77.1-42,85.18a207.22,207.22,0,0,1-57.75-1c-5-.83-9-3-8.58-9.2,0,0,1.56-19.95-6.75-65.42t-5.68-93.34q3.66-3.08,35.48-16.13a115.45,115.45,0,0,0,63.2,1.41c15.77,3.57,29.63,18.47,27.32,40.72q-5.24,57.75-5.24,57.75" transform="translate(-69.43 -70.53)"/><path class="cls-2" d="M500.79,166.87a73,73,0,0,0-7.86,3.55c25.32,36.52,67.3,31.37,63.2,1.41l-6.21-2.43-1.06,2.09a44.29,44.29,0,0,1-18.81-.39,4.66,4.66,0,0,1-3.41,1.47,5.16,5.16,0,0,1-1.61-.2l.38.13a5.1,5.1,0,0,1-1.89-.27,10,10,0,0,1-1.17-.38,4.73,4.73,0,0,1-1.64-.48,3.74,3.74,0,0,1-.45-.12,9.29,9.29,0,0,1-1.33-.5h0a5,5,0,0,1-1.3-.39,4.83,4.83,0,0,1-1.69-.57l.3.18a5.25,5.25,0,0,1-1.14-.34c-.49-.09-1-.27-1.53-.41L513,169a5.77,5.77,0,0,1-.72-.16,4.73,4.73,0,0,1-2.13-.87l.91.68h-6.58a4.7,4.7,0,0,1-3.72-1.82" transform="translate(-69.43 -70.53)"/><path class="cls-38" d="M542.21,159l-35.14-7.94-2.19,14.86-4.29,1c19.28,29.46,52.52,25.76,49.33,2.45l-5.55-.15L542.21,159" transform="translate(-69.43 -70.53)"/><path class="cls-41" d="M510.4,150a36.8,36.8,0,0,0,32.37,11.66,22.88,22.88,0,0,1-35.95,13.23,38,38,0,0,1-4-4.75l5-1.45Q510.4,150,510.4,150" transform="translate(-69.43 -70.53)"/><path class="cls-57" d="M509.72,154.85q20.87,12.26,20.53,12.46a17.9,17.9,0,0,1-22.45,1.38l1.92-13.84" transform="translate(-69.43 -70.53)"/><path class="cls-38" d="M508.46,100.92q-9.91,67.2,45.39,39.48,3.48-11.42,2.34-17.93c-.3-1.73.12-4,1.13-7.83a31.11,31.11,0,0,0,1-12C557.9,90,547.28,79.77,534.08,79.31s-24.43,9-25.62,21.61" transform="translate(-69.43 -70.53)"/><path class="cls-41" d="M534.74,133.39q9.07,8.38-.41,9.42c-12.87,4-26.91-1.78-32.8-13.53a25.16,25.16,0,0,1,9.53-32.85c3.31-10.93,14.47-17.86,26.27-16.31s20.72,11.12,21,22.53a19.9,19.9,0,0,0-21.21-2.5A18.31,18.31,0,0,0,527,113.28c-.85,3.29-4.16,4.1-7,6.64a9.45,9.45,0,0,0-2.92,9.69,10.09,10.09,0,0,0,7.65,7,10.34,10.34,0,0,0,10-3.23" transform="translate(-69.43 -70.53)"/><path class="cls-57" d="M503.7,120.26l1.1-7.94a13.66,13.66,0,0,0,.52-1.84,13.82,13.82,0,0,0,.35-1.41,15.11,15.11,0,0,0,1.05-3l.12-.46a14.93,14.93,0,0,0,1.27-4.27l.08-.49a14.76,14.76,0,0,0,.16-3.31,17.27,17.27,0,0,0-.2-2,16.32,16.32,0,0,0,4.5-2.44c.38-.24.75-.49,1.11-.76s.65-.44,1-.68.46-.25.68-.37A15.76,15.76,0,0,0,517.68,90a15.77,15.77,0,0,0,3-1.68,15.6,15.6,0,0,0,2.3-1.07,16.25,16.25,0,0,0,4.39-2.19,16.61,16.61,0,0,0,2-.67,16.46,16.46,0,0,0,4-1.35c.38,0,.75-.11,1.11-.19a16.05,16.05,0,0,0,3.33-.72l.1,0c.68-.09,1.34-.24,2-.39.48-.07,1-.15,1.42-.26l.22.07h.06a17.05,17.05,0,0,0,2.34.59,4.17,4.17,0,0,1,.44.19,18.23,18.23,0,0,0,2.49,1l.55.27a16.88,16.88,0,0,0,3.14,1.53,16.39,16.39,0,0,0,2.65,1.4c.57.33,1.14.67,1.73,1v0l0,0,.05,0a16.74,16.74,0,0,0,2,1.65l.27.22c.26.29.54.56.83.83a23.28,23.28,0,0,1,.27,6.89,21,21,0,0,0-21.93-5.35A19.68,19.68,0,0,0,524,104.27c-1.34,3.34-4.93,3.76-8.24,6.07a10,10,0,0,0-4,11.5l-.16,0a24.8,24.8,0,0,0-2.83-.55,30.32,30.32,0,0,0-5-1" transform="translate(-69.43 -70.53)"/><path class="cls-58" d="M514.12,156.8c-.3-.67-.64-1.33-1-2a25.71,25.71,0,0,0-1.09-2.53c-.24-.65-.51-1.28-.79-1.89a23.12,23.12,0,0,0-.91-3.21,23.62,23.62,0,0,0-.9-3.45l-.1-.31a25.49,25.49,0,0,0,7.49-7.28,13.23,13.23,0,0,0,2.24,2.67c2.57,2.29,5.83,2.73,8.63,0a11.27,11.27,0,0,1,7.92-3.69c12-.77,18.46,1.45,18.36,6.75-.69,19.49-11.36,27.61-24.06,26.32-.54-.61-1.1-1.19-1.67-1.77a52.78,52.78,0,0,0-9.87-7,26,26,0,0,0-4-2.15Z" transform="translate(-69.43 -70.53)"/><path class="cls-59" d="M531.27,116a2,2,0,0,1,2,2,2.07,2.07,0,1,1-2-2" transform="translate(-69.43 -70.53)"/><path class="cls-59" d="M549.8,116.71a2.06,2.06,0,0,1,2,2.06,2,2,0,0,1-2.13,1.93,2,2,0,1,1,.1-4" transform="translate(-69.43 -70.53)"/><path class="cls-60" d="M516.13,163.44c-13.5-8-19.2-24.22-17.35-48.16q.08-9.48,15.19-17.77c-4.39,18.73-1.09,35.12,4.7,40.89-.69,2.14-1.57,4.45-1.15,6.77,2.42,13.42,12.7,7.46,14.29,23.17a33.4,33.4,0,0,1-15.68-4.9" transform="translate(-69.43 -70.53)"/><path class="cls-61" d="M538.3,118.78c.18-6.11,2.46-6.53,4-1.37l4,12.91a4.36,4.36,0,0,1,2.7,4,4.51,4.51,0,0,1-3.05,3.86,6.27,6.27,0,0,1-2.46.44c-.59-.15-1.19-.29-1.79-.41-.49-.41-1-.81-1.51-1.19s-1.14-.87-1.74-1.28v0c-.26-.6-.55-1.2-.87-1.78a24,24,0,0,0-.17-5.49Z" transform="translate(-69.43 -70.53)"/><path d="M554.51,113.81a6.35,6.35,0,0,0-4.57-2.2,6.27,6.27,0,0,0-4.68,1.91A7.48,7.48,0,0,0,545,123.6a6.25,6.25,0,0,0,9.26.29,7.49,7.49,0,0,0,.26-10.08m-18.46-1a8.37,8.37,0,0,0-11.48-.36,7.56,7.56,0,0,0-.29,11,8.37,8.37,0,0,0,11.48.36,7.51,7.51,0,0,0,2.52-5.42A7.63,7.63,0,0,0,536.05,112.77ZM550,110.45a7.57,7.57,0,0,1,5.46,2.62,8.61,8.61,0,0,1-.31,11.62,7.47,7.47,0,0,1-11-.35,8.48,8.48,0,0,1-2.1-5.88c0-.1,0-.21,0-.31a3.88,3.88,0,0,0-1.39-.29,4.11,4.11,0,0,0-1.1.15c0,.13,0,.25,0,.37a8.69,8.69,0,0,1-2.9,6.24,9.62,9.62,0,0,1-13.18-.41,8.79,8.79,0,0,1-2.57-6.41,8.67,8.67,0,0,1,.69-3.15l-25.19,9.46L495.9,123l26.51-10a8.61,8.61,0,0,1,1.33-1.5,9.45,9.45,0,0,1,6.66-2.42,9.57,9.57,0,0,1,6.53,2.83,8.82,8.82,0,0,1,2.46,4.86,5,5,0,0,1,1.22-.13,5.27,5.27,0,0,1,1.52.26,8.43,8.43,0,0,1,2.25-4.25A7.52,7.52,0,0,1,550,110.45Z" transform="translate(-69.43 -70.53)"/><path class="cls-38" d="M539.78,144.48a3,3,0,0,1,3,3,2.94,2.94,0,0,1-3.11,2.81,3,3,0,0,1-3-3,3,3,0,0,1,3.11-2.82" transform="translate(-69.43 -70.53)"/><path class="cls-62" d="M508.72,104.93a135.75,135.75,0,0,1,10.86-9.39c-2.13-11.94.1-19.84.1-19.84a54.45,54.45,0,0,0-15.42,10.73,14.72,14.72,0,0,1-2.12,4.08l-1.54,2.08q-.15.31-.33.63l-.43,1A18.77,18.77,0,0,1,499,96c-.15.4-.33.79-.52,1.18-.07.23-.15.46-.23.7s-.09.43-.14.65c0,.44-.1.86-.18,1.28s-.08.72-.14,1.08l0,1-.11-.33,0,.08c.1.3.19.61.26.92a18.27,18.27,0,0,1,2.45.21l.81,0a16.32,16.32,0,0,1,7.52,2.09" transform="translate(-69.43 -70.53)"/><path class="cls-63" d="M524.49,104.2c-.91,1.11-.43,1.81,1.15,1.08q4-1.89,10.93-1a2.45,2.45,0,0,0,2.28-.88,2.23,2.23,0,0,0,.24-2.35A2.44,2.44,0,0,0,537,99.75q-8.19-.9-12.55,4.45" transform="translate(-69.43 -70.53)"/><path class="cls-63" d="M557.23,110.6c.64,1.11.14,1.68-1.11.81q-3.17-2.2-9.12-2.28a2.07,2.07,0,0,1-1.81-1.09,2.11,2.11,0,0,1,.08-2.13,2.07,2.07,0,0,1,1.9-.92q7,.26,10.06,5.61" transform="translate(-69.43 -70.53)"/><path class="cls-64" d="M518.54,93.43c12.32-8.08,23.18-13.87,23.17-16.23-6-7.92-38.73-4.26-23.17,16.23" transform="translate(-69.43 -70.53)"/><path class="cls-65" d="M531.4,89.48c-.47.51-.94,1-1.4,1.41a6.13,6.13,0,0,0-1.35.08,6.6,6.6,0,0,0-1.7.47,4.21,4.21,0,0,0-1.57.82,3.86,3.86,0,0,0-.71.57,4.19,4.19,0,0,0-1.36.92l-.29.19a4.45,4.45,0,0,0-.58.38c-4.17-10.62-1.79-16.92,6.17-17.43a5,5,0,0,1,4.78,2.64,3.47,3.47,0,0,1-1,4.63,4.38,4.38,0,0,0-1,5.32" transform="translate(-69.43 -70.53)"/><path class="cls-66" d="M532.62,88.72a7,7,0,0,0-.72.27c-.79.38-1.61.64-2.37,1.07a5.23,5.23,0,0,0-1.37.75,4.47,4.47,0,0,0-1,1l-.09.13c-2.5-7.56-.44-12,5.55-12.39,3.52-.24,5.71,3.86,3,5.84a3.26,3.26,0,0,0-1.15,2.11,4.16,4.16,0,0,0-1.89,1.23" transform="translate(-69.43 -70.53)"/><path class="cls-67" d="M576.09,86.65c1.33-5.78-4.56-11.06-17-14.75q-13.11-4-21.19,3.62L520.53,91.09c-1.46,1.35-2.15,2-2,2.34a20.83,20.83,0,0,1,.78,2c0,.17,1-.51,3.13-2.05.38-.52.55-.88.52-1.08a46.05,46.05,0,0,1,13.38-2.6c.37-.62.78-1.23,1.21-1.82,7.57-10.27,22.33-12.76,33.2-5.71a23.8,23.8,0,0,1,4.14,3.33l.11.11c.37.33.73.68,1.08,1" transform="translate(-69.43 -70.53)"/><path class="cls-62" d="M558.51,103.23c.41,1.47,1.15,1.85,2.07,1.22,0,0,3.62-2.46,10.52-8.13,11-8.57,6.57-17.11-11.17-22.39q-13.12-4-21.19,3.62L521.32,93.12c-3,2.79-2.73,3,1.6,1.51a49.67,49.67,0,0,1,9.71-2.5,5.18,5.18,0,0,1,5.21-3.72l6.3.2a5.26,5.26,0,0,1,2.66.79l.38.18c.58.23,1.12.48,1.68.76a6.15,6.15,0,0,1,.76.32l.48.22a5.64,5.64,0,0,1,1,.38,5.42,5.42,0,0,1,.56.22,7.63,7.63,0,0,1,1,.47,8.43,8.43,0,0,1,1,.38l.12,0a7.23,7.23,0,0,1,1.9,1,6,6,0,0,1,1.84,1.41A5.47,5.47,0,0,1,559,97a4.87,4.87,0,0,1-.86,5.19c.13.35.24.71.34,1.07" transform="translate(-69.43 -70.53)"/><path class="cls-68" d="M550.11,94.09a14.9,14.9,0,0,1,8.23,8.56l8.1-6.1a8.56,8.56,0,0,0,2.85-8.47A9.34,9.34,0,0,0,556.23,82a21.28,21.28,0,0,1-11.14,1,11,11,0,0,0-9,1.57,10,10,0,0,0-4.35,7.63,38.08,38.08,0,0,1,8.67-.49,26.52,26.52,0,0,1,9.65,2.32" transform="translate(-69.43 -70.53)"/><path class="cls-68" d="M496.46,113.82c.74,2.54,2.27,2,3.34.81a118.73,118.73,0,0,1,9.62-10.37c.68-7.16-9.7-2.67-4.56-16.64a14.43,14.43,0,0,1,2-3.66c-9.21,8-13.65,18.36-10.41,29.86" transform="translate(-69.43 -70.53)"/><path class="cls-38" d="M506.39,134.85c-2.94,4-7.2,4.29-11.29-.11a13.88,13.88,0,0,1-3.58-11.64c.72-4,3.44-6.68,6.85-6.64s6.82,2.72,8.59,6.78,1.54,8.67-.57,11.61" transform="translate(-69.43 -70.53)"/><path class="cls-69" d="M504,131.88c-1.35,2.6-3.5,3.2-5.7,1.14a7.58,7.58,0,0,1-2.17-6.23c.23-2.37,1.53-4.16,3.25-4.5s3.53.83,4.55,2.95a7.69,7.69,0,0,1,.07,6.64" transform="translate(-69.43 -70.53)"/><path class="cls-70" d="M504.28,130.59c-.8,1.54-2.07,1.89-3.37.67a4.49,4.49,0,0,1-1.28-3.67,2.79,2.79,0,0,1,1.92-2.66,2.62,2.62,0,0,1,2.69,1.74,4.56,4.56,0,0,1,0,3.92" transform="translate(-69.43 -70.53)"/><path class="cls-71" d="M544.87,138.52a6.3,6.3,0,0,1-4.51-.73,4.88,4.88,0,0,0-4.54-1.06,3.24,3.24,0,0,1-2.92-2.53c-.28-2,1.87-3.6,4.2-3.21l.58-5.9c.93,5.17.26,11.79,7.19,13.43" transform="translate(-69.43 -70.53)"/><path class="cls-72" d="M537.47,281.1l-35.86,38.36a35.59,35.59,0,0,0,56.78-42.1l-20.92,3.74m-48.2-83.66q14.19,100.57,73.6,63.92A30.17,30.17,0,0,0,552,240.73c-6.23-5.14-14.17-7.14-22.31-6.75A15.1,15.1,0,0,1,514,220,25.44,25.44,0,0,0,489.27,197.44Z" transform="translate(-69.43 -70.53)"/><g id="Cardano_Logo" data-name="Cardano Logo"><g id="app_daedalus_diagnostics" data-name="app daedalus diagnostics"><path id="cardano-logo" class="cls-2" d="M545.9,206.61a1.23,1.23,0,1,1-1.16-1.29,1.22,1.22,0,0,1,1.16,1.29ZM562,217.19a1.25,1.25,0,0,1-1.66-.54,1.23,1.23,0,1,1,1.66.54Zm-1.19,19.11a1.22,1.22,0,0,1-.35-1.7,1.23,1.23,0,0,1,1.7-.35,1.22,1.22,0,0,1,.35,1.7,1.23,1.23,0,0,1-1.7.35Zm-17.37,8.53a1.23,1.23,0,1,1,1.16,1.29,1.23,1.23,0,0,1-1.16-1.29Zm-15.92-10.58a1.23,1.23,0,0,1,1.65.55,1.22,1.22,0,0,1-.55,1.64,1.24,1.24,0,0,1-1.65-.54,1.22,1.22,0,0,1,.55-1.65Zm1.18-19.11a1.23,1.23,0,0,1,.36,1.7,1.25,1.25,0,0,1-1.71.35,1.22,1.22,0,0,1-.35-1.69,1.23,1.23,0,0,1,1.7-.36Zm17.79-1.32a1.76,1.76,0,1,1-1.66-1.85,1.76,1.76,0,0,1,1.66,1.85Zm9.5,7.44a1.77,1.77,0,0,1-2.36-.78,1.73,1.73,0,0,1,.78-2.34,1.75,1.75,0,1,1,1.58,3.12Zm-1.73,11.9a1.73,1.73,0,0,1-.5-2.42,1.76,1.76,0,0,1,2.43-.5,1.75,1.75,0,0,1,.51,2.42,1.77,1.77,0,0,1-2.44.5Zm-11.36,4.47a1.76,1.76,0,0,1,3.51.2,1.76,1.76,0,0,1-3.51-.2Zm-9.38-7.44a1.75,1.75,0,1,1-.78,2.34,1.73,1.73,0,0,1,.78-2.34Zm1.73-11.91a1.73,1.73,0,0,1,.5,2.42,1.76,1.76,0,0,1-2.94-1.92,1.78,1.78,0,0,1,2.44-.5Zm20.9-10.35a1,1,0,0,1-1.34.28,1,1,0,0,1-.28-1.33,1,1,0,0,1,1.34-.28,1,1,0,0,1,.28,1.33Zm9.8,18.7a1,1,0,0,1-.92-1,1,1,0,1,1,.92,1Zm-11.4,17.79a1,1,0,1,1,1.3.43,1,1,0,0,1-1.3-.43Zm-21.18-.91a1,1,0,1,1,1.61,1.05,1,1,0,0,1-1.34.28,1,1,0,0,1-.27-1.33Zm-9.8-18.7a1,1,0,1,1-1,.9,1,1,0,0,1,1-.9ZM534.92,207a1,1,0,0,1-1.73.87,1,1,0,0,1,.43-1.29,1,1,0,0,1,1.3.42Zm18.85,6a1.51,1.51,0,0,1-2.07.43,1.49,1.49,0,1,1,2.07-.43Zm6.53,14.14a1.49,1.49,0,1,1,1.58-1.4,1.5,1.5,0,0,1-1.58,1.4Zm-9,12.69a1.47,1.47,0,0,1,.66-2,1.5,1.5,0,0,1,2,.66,1.49,1.49,0,0,1-2.67,1.33Zm-15.59-1.45a1.5,1.5,0,0,1,2.07-.42,1.48,1.48,0,0,1,.43,2,1.49,1.49,0,0,1-2.5-1.63Zm-6.53-14.14a1.49,1.49,0,1,1-1.58,1.4,1.5,1.5,0,0,1,1.58-1.4Zm9.06-12.69a1.49,1.49,0,1,1-2-.66,1.51,1.51,0,0,1,2,.66Zm10,11a3,3,0,1,1,2.5-1.35,3,3,0,0,1-2.5,1.35Zm3.54,6.06h-.17a3,3,0,1,1,.34-5.93,3,3,0,0,1,2.81,3.14,3,3,0,0,1-3,2.8Zm-3.51,6.08a3,3,0,0,1-2.68-1.64,3,3,0,0,1,1.33-4,3,3,0,1,1,2.69,5.31,3,3,0,0,1-1.34.32Zm-7.06,0a3.08,3.08,0,0,1-1.64-.48,3,3,0,0,1-1.28-1.89,2.89,2.89,0,0,1,.42-2.23,3,3,0,0,1,2.51-1.35,3,3,0,0,1,2.5,4.61,3,3,0,0,1-2.51,1.34Zm-3.53-6.06h-.17a3.08,3.08,0,1,1,.17,0Zm3.51-6.08a3,3,0,0,1-1.35-5.63,3,3,0,0,1,4,1.32,3,3,0,0,1-2.67,4.31Z" transform="translate(-69.43 -70.53)"/></g></g><path class="cls-73" d="M499.47,323.34a34.32,34.32,0,0,0,38-42.24s-2.88-1-4.16-15.57c-2.68-8.93-16.58-6.39-23.39-12.74-6-5.61-6-16.5-5-25a35.39,35.39,0,0,0-39.56-38.94q-16.23,19.23,6.12,99,4.61,36.6,4.38,54.41a19.6,19.6,0,0,1,23.59-19" transform="translate(-69.43 -70.53)"/><path class="cls-74" d="M526.26,361.84a103.53,103.53,0,0,0,119.88-2.2,252.34,252.34,0,0,1,38-120.42,110.81,110.81,0,0,1-133.5-16.51q11.49,54.36-24.4,139.13" transform="translate(-69.43 -70.53)"/><path class="cls-75" d="M485.91,223.73a25.3,25.3,0,0,0-.84,47.26c9.68,3.66,31.23,3.44,37.73-4.83-40.92-1.76-14.2-27.86-36.89-42.43m-14.31,68c29.48-9.16,49.84-9,60.2-5.33a15.26,15.26,0,0,1-6.06,13.44,14.14,14.14,0,0,1-14.24,1.57,25.3,25.3,0,0,0-25.71,3c-7.44,5.66-9.7,15.23-10.26,24.44C473.35,306.08,471.19,288.75,471.6,291.76Z" transform="translate(-69.43 -70.53)"/><path class="cls-52" d="M606.71,254.67l-23.53,4Q582,302.41,549.59,370.45A70.14,70.14,0,0,0,564,374.61a15.59,15.59,0,0,0,12.62-22.52,17.67,17.67,0,0,1,16.18-25.23,42.82,42.82,0,0,0,34.65-70.46q-9.27-.43-20.74-1.73" transform="translate(-69.43 -70.53)"/><path class="cls-53" d="M530.4,360.63a81,81,0,0,0,19.19,9.82,22.69,22.69,0,0,0,21.29-26.22q-4.75-26.31,25.89-39.67a30.74,30.74,0,0,0,9.94-49.89q-32.94-8.37-52.61-25.61c6.21,28.31-2.16,72.91-23.7,131.57" transform="translate(-69.43 -70.53)"/><path class="cls-54" d="M552.46,284.51a43.28,43.28,0,0,0,32.28-21,29.77,29.77,0,0,1-35.64,36.74l3.36-15.76" transform="translate(-69.43 -70.53)"/><path class="cls-55" d="M676.46,248a.86.86,0,0,1,1.11.43.84.84,0,0,1-.43,1.11A119.21,119.21,0,0,1,559.3,237.65q2.81,20.45-1.59,46.59,19-5,27.26-12.59a30.18,30.18,0,0,1-28.74,20.53q-6.06,29.86-20.94,66.73a96.63,96.63,0,0,0,107.17-4.11.85.85,0,0,1,1.18.19.83.83,0,0,1-.19,1.17A98.31,98.31,0,0,1,533.83,360a.85.85,0,0,1-.36-1.05q15-36.94,21.06-66.81a29.48,29.48,0,0,1-3.6-.44q1.34-6.14,1.34-6.13c1.25-.28,2.47-.56,3.66-.86q4.73-27.58,1.42-48.73a.88.88,0,0,1,.15-.66.84.84,0,0,1,1.18-.17A117.55,117.55,0,0,0,676.46,248" transform="translate(-69.43 -70.53)"/><path class="cls-76" d="M489.81,602q-.68,3.42,1.35,0a20.85,20.85,0,1,0-41.05,0,50.84,50.84,0,0,0,39.7,0" transform="translate(-69.43 -70.53)"/><path class="cls-76" d="M608.93,600.81q-59.64,7.62-72.76-.38a73.7,73.7,0,0,1,1.14-24.11,16.1,16.1,0,0,0,20.57.13,5.74,5.74,0,0,1,8.92-4.32l22.36,13.48,9.32,2.84a12.37,12.37,0,0,1,10.45,12.36" transform="translate(-69.43 -70.53)"/><path class="cls-2" d="M573,574.4h0a2.31,2.31,0,0,1,1.08,3.07l-2.25,4.72a2.31,2.31,0,0,1-3.08,1.09h0a2.31,2.31,0,0,1-1.08-3.07l2.25-4.73A2.32,2.32,0,0,1,573,574.4" transform="translate(-69.43 -70.53)"/><path class="cls-2" d="M578.56,577.77h0a2.32,2.32,0,0,1,1.09,3.07l-1.7,3.54a2.3,2.3,0,0,1-3.07,1.09h0a2.32,2.32,0,0,1-1.08-3.08l1.69-3.53a2.3,2.3,0,0,1,3.07-1.09" transform="translate(-69.43 -70.53)"/><path class="cls-2" d="M583.88,581.17h0a2.3,2.3,0,0,1,1.09,3.07l-1,2.15a2.3,2.3,0,0,1-3.07,1.08h0a2.32,2.32,0,0,1-1.09-3.07l1-2.14a2.3,2.3,0,0,1,3.07-1.09" transform="translate(-69.43 -70.53)"/><path class="cls-77" d="M579.24,600.43Q545,604,539.46,603.29a81.34,81.34,0,0,1,0-21,22,22,0,0,0,20.87-3.06,13.82,13.82,0,0,1,10.32,13.06,8.41,8.41,0,0,0,8.59,8.17" transform="translate(-69.43 -70.53)"/><path class="cls-77" d="M454.35,602.83l28.62,1.1a8.58,8.58,0,0,0-7.86-10.12,6.27,6.27,0,0,1-2.92-11.75c1.83-.92,1.44-1.81-1.3-1.62a18.11,18.11,0,0,0-16.54,22.39" transform="translate(-69.43 -70.53)"/><path class="cls-2" d="M450.1,601.13h41.07a2.11,2.11,0,0,1,2.1,2.11v4.25a2.1,2.1,0,0,1-2.1,2.1H450.1a2.1,2.1,0,0,1-2.1-2.1v-4.25a2.11,2.11,0,0,1,2.1-2.11" transform="translate(-69.43 -70.53)"/><path class="cls-2" d="M536.08,600.43h72.19a1.92,1.92,0,0,1,1.91,1.91v3.87a1.92,1.92,0,0,1-1.91,1.91H536.08a1.92,1.92,0,0,1-1.91-1.91v-3.87a1.92,1.92,0,0,1,1.91-1.91" transform="translate(-69.43 -70.53)"/><path class="cls-40" d="M450.37,190.2a4.49,4.49,0,1,1-4.14-8c12.78-6.65,23.56-7.11,31.83-3,6.32,3.12,11,8.79,13.8,16.32,2.66,7.08,3.7,15.84,2.95,25.62-2.23,29.19-20.5,68.52-59.42,99.81a4.48,4.48,0,1,1-5.62-7c36.78-29.57,54-66.34,56.09-93.5.66-8.5-.19-15.94-2.38-21.79-2-5.4-5.2-9.38-9.38-11.44-5.74-2.84-13.73-2.26-23.73,2.95" transform="translate(-69.43 -70.53)"/><path class="cls-38" d="M551.94,248.06c1-1.09,1.93-1.42,2.68-1.2,3.09.92,2.54,4.42.68,10.31-.92,3.67,3.07,4.89,9,2.06,19.77-10,30.44,11.82,11,24a25.26,25.26,0,0,1-26.46.61c-29,3.75-58.8,7.39-86.35,9.14-8.45.48-17.82-2.84-23.57-9.19-6-6.63-7.53-17.19-7-25.88A129.67,129.67,0,0,1,437,228c26.16,4,45.35,7.89,45.35,7.89-2.81,9.31-3.86,11.27-3.86,11.27-1.92,8.1-3.83,12.21.43,12.83a611.62,611.62,0,0,0,66.47,2.18,25.17,25.17,0,0,1,6.58-14.08" transform="translate(-69.43 -70.53)"/><path class="cls-35" d="M431.61,236.53c-.65,3.52,1.4,6.07,5.7,7.77,15.3,6.29,28.66,9,39.75,7.76,3.15-.37,4.87-2.18,5.59-7l4.08-26.75c1.73-10.76-.73-21.52-7.49-28.55a22.37,22.37,0,0,0-25.2-5.45c-8.82,3.67-15.46,12.53-17.39,23.18-3.76,19.33-5,29-5,29" transform="translate(-69.43 -70.53)"/><path class="cls-78" d="M535.56,259.24h3.78a2.25,2.25,0,0,1,2.25,2.25v23.25a2.25,2.25,0,0,1-2.25,2.25h-3.78a2.25,2.25,0,0,1-2.25-2.25V261.49a2.25,2.25,0,0,1,2.25-2.25" transform="translate(-69.43 -70.53)"/><path class="cls-36" d="M451.61,205.82q.87,48.65,25.66,39a13.46,13.46,0,0,1-9.07-24.05,15.12,15.12,0,0,0-7.95-26.8,4.61,4.61,0,0,1-2.45-8.19,16.67,16.67,0,0,0-3.74,1.39,11.07,11.07,0,0,0-5.84,8,14.16,14.16,0,0,0,3.39,10.72" transform="translate(-69.43 -70.53)"/><path class="cls-37" d="M434.49,238.69a39,39,0,0,0,39.88,7,13.35,13.35,0,0,1-13-21.45,14.48,14.48,0,0,0,2.37-13.08c-1.38-4.49-4.76-7.27-9.3-9.5a8.22,8.22,0,0,1,.31-14.91,26.82,26.82,0,0,0-14.36,17.48l-5.91,34.43" transform="translate(-69.43 -70.53)"/><path class="cls-79" d="M434.85,236.61a26,26,0,0,0,23.6,7.62,18.12,18.12,0,0,1-2.09-.29,18.53,18.53,0,0,0,3.13-.81A15.84,15.84,0,0,1,449,217.06a10.67,10.67,0,0,0-6.57-18.26c-.42.83-.79,1.67-1.13,2.54v0h0l0,.05h0l0,0h0v.17h0l0,0h0l0,0v.13h0v0h0l0,0h0l0,0v.08h0v.05h0l0,0h0v.06h0c-.23.66-.43,1.33-.6,2l-5.55,32.35" transform="translate(-69.43 -70.53)"/><path class="cls-80" d="M468.81,280.8Q484.67,285,506.52,285l12.78-1.55a25.23,25.23,0,0,1-17-9.54,21,21,0,0,0-30.76-.47,7.14,7.14,0,0,1-9.39-10.74,39.24,39.24,0,0,0,7.67-13.39q-21.82-7.11-21.3-.18a19.72,19.72,0,0,0,20.28,31.69" transform="translate(-69.43 -70.53)"/><path class="cls-81" d="M491.48,277.24q5.64,8.14,15,7.74-16.54,1.77-28.82,2.56a13.6,13.6,0,0,0-4-.59h-3c-.3-.05-.61-.08-.92-.11l-.37-.11a12.78,12.78,0,0,0-4.24-.69H452l-.09,0c-.11-.12-.22-.23-.34-.34a20.68,20.68,0,0,0-2-2.12,20.85,20.85,0,0,0-4.51-3.3c-.41-.22-.85-.44-1.28-.63l-.12-.18a12.81,12.81,0,0,0-1.2-1.8c-.23-.33-.47-.64-.72-.94a19.36,19.36,0,0,0-.82-2.36c-.13-.45-.28-.91-.44-1.36a13.24,13.24,0,0,0-1.78-3.64c-.12-.26-.26-.51-.4-.76a12.44,12.44,0,0,0-.58-1.85l0-.17.82,1.64V267a13.3,13.3,0,0,0-.5-3.65l.09-.35.26.52,0-1.94a13.13,13.13,0,0,0,.37-2q.12-.67.18-1.38l.07-.31c.06-.2.13-.4.19-.61a13.1,13.1,0,0,0,.57-2l0-.08a14.48,14.48,0,0,0,.82-2,13.23,13.23,0,0,0,.56-1.56,12.47,12.47,0,0,0,.66-1.86l.31-.7a13.56,13.56,0,0,0,1-3.88l23.47,4a13.89,13.89,0,0,0-12.57,24.09c5.05,4.18,12.15,3.79,17.47.21a14.45,14.45,0,0,1,19.93,3.82" transform="translate(-69.43 -70.53)"/><path class="cls-42" d="M462,288.11q11.26-.17,18.46-.76-8.94-6.83-19-4.29a18,18,0,0,1-10.68-34.23q-6.28-10.54-13.08-4.64-5.52,42.63,24.34,43.92" transform="translate(-69.43 -70.53)"/><path class="cls-39" d="M430.47,242.17a4.59,4.59,0,0,1-1.92-6,4.12,4.12,0,0,1,5.67-2,90.46,90.46,0,0,0,22,8,88.57,88.57,0,0,0,23.26,2,4.33,4.33,0,0,1,4.41,4.28,4.39,4.39,0,0,1-4.05,4.67,96.52,96.52,0,0,1-25.34-2.2,98.55,98.55,0,0,1-24.07-8.78" transform="translate(-69.43 -70.53)"/><path class="cls-24" d="M393.12,256.94h26A6.85,6.85,0,0,1,419,252l7.28,6.17h0a11.94,11.94,0,0,1,4.64,9.58v49.3c0,6-3.91,10.84-8.69,10.84H393.12a7.7,7.7,0,0,1-5.46-2.42h0L380,319.1a4.25,4.25,0,0,1,4.44-2.29v-49c0-6,3.91-10.84,8.69-10.84" transform="translate(-69.43 -70.53)"/><path class="cls-82" d="M385.79,250.32H414.9a8.71,8.71,0,0,1,8.69,8.69v53.6a8.71,8.71,0,0,1-8.69,8.69H385.79a8.71,8.71,0,0,1-8.69-8.69V259a8.71,8.71,0,0,1,8.69-8.69" transform="translate(-69.43 -70.53)"/><path class="cls-39" d="M464.81,448.16a3.36,3.36,0,0,1,2.68-6.16,81.62,81.62,0,0,0,47.43,5.41,3.36,3.36,0,0,1,1.21,6.6,88.11,88.11,0,0,1-51.32-5.85" transform="translate(-69.43 -70.53)"/><path class="cls-39" d="M529.51,451a3.36,3.36,0,1,1,2.1-6.38,81.64,81.64,0,0,0,47.72,1,3.36,3.36,0,0,1,1.82,6.47A88.09,88.09,0,0,1,529.51,451" transform="translate(-69.43 -70.53)"/><path class="cls-21" d="M392.06,261.76q-12.19,51.69-12.19,51.69a6.92,6.92,0,0,0,6.87,5.12l27.44,0a5.67,5.67,0,0,0,6.08-6q.35-12.45.34-12.44a20.64,20.64,0,0,1-8.13-25.52,12.13,12.13,0,0,0-20.41-12.77" transform="translate(-69.43 -70.53)"/><path class="cls-83" d="M378.34,261.76h24.72a7.4,7.4,0,0,1,7.37,7.37v38.15a7.4,7.4,0,0,1-7.37,7.38H378.34a7.4,7.4,0,0,1-7.37-7.38V269.13a7.4,7.4,0,0,1,7.37-7.37" transform="translate(-69.43 -70.53)"/><path class="cls-84" d="M406.84,305.47a6.83,6.83,0,0,1-9.5-5.51Q395.11,287,382.5,284q-6-1.69-7.79-13.49s0,1.27,0,3.8v29.59q-.08,6.75,4.21,6.86l21.91.09a5.68,5.68,0,0,0,6-5.4" transform="translate(-69.43 -70.53)"/><path class="cls-85" d="M381.38,304.81q5.6.31,6.7,6l-9.15,0c-2.73.07-4.14-2.22-4.21-6.86V292c1.12,7.86,2.87,12.46,6.66,12.78" transform="translate(-69.43 -70.53)"/><path class="cls-86" d="M528.69,623.43l-15.13,3.77-38.33-43,5.67-5.29,24.62,33.67L478.46,566.3l12.77-5.36,21.12,50.45s-6.1-19.9-18.29-59.71l12.08-2.45s3,16,8.87,48t-3.8-53.21l16.59,3.47S525.48,568,520.85,609t14.24-58.29l11.68,6.33s-6.11,17.44-18.35,52.32t21.25-45.85l9.46,6.08-30.44,53.82" transform="translate(-69.43 -70.53)"/><path class="cls-87" d="M487.94,625.12a179.19,179.19,0,0,0,93.23-4.29,33.42,33.42,0,0,1-23.35-4.94,51.27,51.27,0,0,0-69.88,9.23" transform="translate(-69.43 -70.53)"/><path class="cls-88" d="M177.51,513.37l38.06-2.5q9.81-19.85-2.25-44.56-8.17-17.47,7.11-47.75A65.82,65.82,0,0,0,207.32,338a30.84,30.84,0,0,1,1.73-43.26,29.73,29.73,0,0,0-5.93-49.37,20.46,20.46,0,0,1-7.55-25.82q-14.2,28.4-5.92,51.2-17.24,200.37-12.14,242.67" transform="translate(-69.43 -70.53)"/><path class="cls-89" d="M153.55,514.61a440.12,440.12,0,0,0,47.83-3.79,72.3,72.3,0,0,1-7-81.83c11.66-23.17,15-52.39,3.47-74.37-7.67-12.76-21.5-37.58.3-58.82,14.1-14.78,1.73-24.22-3.27-42.78a63.27,63.27,0,0,1,7.56-48.78,123.92,123.92,0,0,1-19.06,16.29q-41.18,288.14-41.18,288.13a114.74,114.74,0,0,0,11.37,5.95" transform="translate(-69.43 -70.53)"/><path class="cls-90" d="M153.55,514.61l11.15-3.16q10.41-18.74-.56-54.42c-2.65-11.36-3.5-25.4,7.54-41.72q16-21.18,5.84-57.46-6.74-17.88-5.69-56.69l-29.65,207.5a114.74,114.74,0,0,0,11.37,5.95" transform="translate(-69.43 -70.53)"/><path class="cls-91" d="M266.28,513.26a129.4,129.4,0,0,1-114.53.49A9.68,9.68,0,0,1,169,510.27a13.79,13.79,0,0,1,26.77-4.56,9.69,9.69,0,0,1,17,3.53A11.64,11.64,0,0,1,235.13,512a10.77,10.77,0,0,1,18.74,2.19,7.34,7.34,0,0,1,12.41-1" transform="translate(-69.43 -70.53)"/><path class="cls-4" d="M383.22,189l-7.08-4.32q8.42,9,8.42,9,1.88-11.9,1.87-11.9L383.22,189" transform="translate(-69.43 -70.53)"/><path class="cls-4" d="M321.33,220.05l-7.08-4.32q8.42,9,8.42,9,1.88-11.9,1.88-11.9l-3.22,7.23" transform="translate(-69.43 -70.53)"/></svg>