<svg id="Layer_1" data-name="Layer 1" xmlns="http://www.w3.org/2000/svg" xmlns:xlink="http://www.w3.org/1999/xlink" viewBox="0 0 448.02 441.74"><defs><style>.cls-1{fill:url(#linear-gradient);}.cls-2{fill:url(#linear-gradient-2);}.cls-3{fill:url(#linear-gradient-3);}.cls-4{fill:url(#linear-gradient-4);}.cls-5{fill:url(#linear-gradient-5);}.cls-6{fill:url(#linear-gradient-6);}.cls-7{fill:url(#linear-gradient-7);}.cls-8{fill:url(#linear-gradient-8);}.cls-9{fill:#a143a1;}.cls-11,.cls-13,.cls-15,.cls-17,.cls-22,.cls-23,.cls-24,.cls-25,.cls-26,.cls-28,.cls-29,.cls-31,.cls-32,.cls-34,.cls-9{fill-rule:evenodd;}.cls-10{mask:url(#mask);}.cls-11{fill:#360040;}.cls-12,.cls-25{fill:#fff;}.cls-13{fill:#ff818c;}.cls-14{mask:url(#mask-2);}.cls-15{fill:#f0505e;}.cls-16{mask:url(#mask-3);}.cls-17{fill:#d82837;}.cls-18{mask:url(#mask-4);}.cls-19{mask:url(#mask-5);}.cls-20{mask:url(#mask-6);}.cls-21{mask:url(#mask-7);}.cls-22{fill:#f4c9ff;}.cls-23{fill:#480643;}.cls-24{fill:#efb4ff;}.cls-26,.cls-30{fill:#ffd6d9;}.cls-27{fill:#de2f3e;}.cls-28{fill:#ff98a1;}.cls-29{fill:#f8e1ff;}.cls-31{fill:#bb5cce;}.cls-32{fill:#9430a8;}.cls-33{mask:url(#mask-8);}.cls-34{fill:#ffa8af;}</style><linearGradient id="linear-gradient" x1="-275.57" y1="450.5" x2="172.02" y2="522.56" gradientTransform="translate(369.85 -209.38)" gradientUnits="userSpaceOnUse"><stop offset="0"/><stop offset="1" stop-color="#fff"/></linearGradient><linearGradient id="linear-gradient-2" x1="-103.24" y1="677.74" x2="-195.97" y2="629.93" gradientTransform="translate(577.3 -240.67)" xlink:href="#linear-gradient"/><linearGradient id="linear-gradient-3" x1="-129.89" y1="739.5" x2="-246.73" y2="667.69" gradientTransform="translate(577.32 -282.68)" xlink:href="#linear-gradient"/><linearGradient id="linear-gradient-4" x1="-184.77" y1="660.57" x2="-274.73" y2="673.14" gradientTransform="translate(710.98 -232.47)" xlink:href="#linear-gradient"/><linearGradient id="linear-gradient-5" x1="-254.59" y1="702.02" x2="-273.71" y2="678.6" gradientTransform="translate(550.89 -437.02)" xlink:href="#linear-gradient"/><linearGradient id="linear-gradient-6" x1="-239.44" y1="708.43" x2="-255.37" y2="697.06" gradientTransform="translate(560.75 -375.53)" xlink:href="#linear-gradient"/><linearGradient id="linear-gradient-7" x1="-238.47" y1="713.94" x2="-252.59" y2="699.32" gradientTransform="translate(555.23 -341.11)" xlink:href="#linear-gradient"/><linearGradient id="linear-gradient-8" x1="-261.6" y1="661.5" x2="-202.51" y2="626.67" gradientTransform="translate(690.13 -316.25)" xlink:href="#linear-gradient"/><mask id="mask" x="0" y="0" width="448.02" height="441.74" maskUnits="userSpaceOnUse"><g transform="translate(-99.51 -57.16)"><rect class="cls-1" x="99.51" y="57.16" width="448.02" height="441.74"/></g></mask><mask id="mask-2" x="207.45" y="245.36" width="132.47" height="165.09" maskUnits="userSpaceOnUse"><g transform="translate(-99.51 -57.16)"><rect class="cls-2" x="306.96" y="302.52" width="132.47" height="165.09"/></g></mask><mask id="mask-3" x="207.47" y="325.88" width="110.06" height="42.56" maskUnits="userSpaceOnUse"><g transform="translate(-99.51 -57.16)"><rect class="cls-3" x="306.98" y="383.04" width="110.06" height="42.56"/></g></mask><mask id="mask-4" x="341.13" y="337.29" width="70.51" height="81.36" maskUnits="userSpaceOnUse"><g transform="translate(-99.51 -57.16)"><rect class="cls-4" x="440.64" y="394.45" width="70.51" height="81.36"/></g></mask><mask id="mask-5" x="181.03" y="184.17" width="17.31" height="29.92" maskUnits="userSpaceOnUse"><g transform="translate(-99.51 -57.16)"><rect class="cls-5" x="280.54" y="241.33" width="17.31" height="29.92"/></g></mask><mask id="mask-6" x="190.9" y="251.16" width="27.15" height="24.43" maskUnits="userSpaceOnUse"><g transform="translate(-99.51 -57.16)"><rect class="cls-6" x="290.41" y="308.31" width="27.15" height="24.43"/></g></mask><mask id="mask-7" x="185.38" y="289.53" width="33.02" height="20.49" maskUnits="userSpaceOnUse"><g transform="translate(-99.51 -57.16)"><rect class="cls-7" x="284.89" y="346.69" width="33.02" height="20.49"/></g></mask><mask id="mask-8" x="320.28" y="194.37" width="97.15" height="140.5" maskUnits="userSpaceOnUse"><g transform="translate(-99.51 -57.16)"><rect class="cls-8" x="419.79" y="251.52" width="97.15" height="140.5"/></g></mask></defs><path class="cls-9" d="M369.44,142.72A178.14,178.14,0,0,1,525.87,406a93.27,93.27,0,0,0-75.47,73.49,178.17,178.17,0,0,1-259-154.4A137.91,137.91,0,1,1,365,142.77c1.46,0,2.93-.05,4.4-.05" transform="translate(-99.51 -57.16)"/><g class="cls-10"><path class="cls-11" d="M369.44,142.72A178.14,178.14,0,0,1,526.26,405.27a93.17,93.17,0,0,0-73.45,62.51,96.05,96.05,0,0,0-3.15,12.06A178.14,178.14,0,0,1,191.4,325.08,137.91,137.91,0,1,1,365,142.77c1.46,0,2.93-.05,4.4-.05" transform="translate(-99.51 -57.16)"/></g><g id="Cardano"><path class="cls-12" d="M191.24,188.21a12.73,12.73,0,0,0,12,13.42c.25,0,.5,0,.74,0a12.72,12.72,0,1,0-12.71-13.44Z" transform="translate(-99.51 -57.16)"/><path class="cls-12" d="M143.81,185a4.11,4.11,0,1,0,3.87,4.34A4.11,4.11,0,0,0,143.81,185Z" transform="translate(-99.51 -57.16)"/><path class="cls-12" d="M190.43,114.4a4.12,4.12,0,1,0-5.53-1.83A4.13,4.13,0,0,0,190.43,114.4Z" transform="translate(-99.51 -57.16)"/><path class="cls-12" d="M203.33,136.9a6.35,6.35,0,1,0-8.53-2.82A6.35,6.35,0,0,0,203.33,136.9Z" transform="translate(-99.51 -57.16)"/><path class="cls-12" d="M159.91,152.37a5.23,5.23,0,1,0-1.51-7.24A5.23,5.23,0,0,0,159.91,152.37Z" transform="translate(-99.51 -57.16)"/><path class="cls-12" d="M167.64,182.67a6.36,6.36,0,1,0,6,6.7A6.37,6.37,0,0,0,167.64,182.67Z" transform="translate(-99.51 -57.16)"/><path class="cls-12" d="M160.6,225.37a5.23,5.23,0,1,0,7,2.32A5.22,5.22,0,0,0,160.6,225.37Z" transform="translate(-99.51 -57.16)"/><path class="cls-12" d="M185.29,169.54a7.47,7.47,0,1,0-2.15-10.36A7.47,7.47,0,0,0,185.29,169.54Z" transform="translate(-99.51 -57.16)"/><path class="cls-12" d="M263.63,136.4a6.36,6.36,0,1,0-1.83-8.81A6.36,6.36,0,0,0,263.63,136.4Z" transform="translate(-99.51 -57.16)"/><path class="cls-12" d="M276.67,114a4.11,4.11,0,1,0-1.19-5.69A4.1,4.1,0,0,0,276.67,114Z" transform="translate(-99.51 -57.16)"/><path class="cls-12" d="M264.63,176.1a12.72,12.72,0,1,0-1.45,25.4l.73,0a12.72,12.72,0,0,0,.72-25.42Z" transform="translate(-99.51 -57.16)"/><path class="cls-12" d="M207.51,168.66a12.68,12.68,0,0,0,11.37,7,12.73,12.73,0,0,0,11.35-18.45,12.65,12.65,0,0,0-11.37-7,12.72,12.72,0,0,0-11.35,18.45Z" transform="translate(-99.51 -57.16)"/><path class="cls-12" d="M307.24,152.36a5.23,5.23,0,1,0-7-2.32A5.24,5.24,0,0,0,307.24,152.36Z" transform="translate(-99.51 -57.16)"/><path class="cls-12" d="M275,156.41a7.48,7.48,0,1,0,10,3.31A7.49,7.49,0,0,0,275,156.41Z" transform="translate(-99.51 -57.16)"/><path class="cls-12" d="M233.44,112.05a5.24,5.24,0,1,0-4.93-5.53A5.25,5.25,0,0,0,233.44,112.05Z" transform="translate(-99.51 -57.16)"/><path class="cls-12" d="M233.38,145a7.48,7.48,0,1,0-7-7.89A7.47,7.47,0,0,0,233.38,145Z" transform="translate(-99.51 -57.16)"/><path class="cls-12" d="M192.87,221.32a7.48,7.48,0,1,0-10-3.32A7.47,7.47,0,0,0,192.87,221.32Z" transform="translate(-99.51 -57.16)"/><path class="cls-12" d="M238.22,155.89a12.7,12.7,0,1,0,10.65-5.75A12.72,12.72,0,0,0,238.22,155.89Z" transform="translate(-99.51 -57.16)"/><path class="cls-12" d="M260.33,209.07A12.72,12.72,0,1,0,249,227.52a12.72,12.72,0,0,0,11.35-18.45Z" transform="translate(-99.51 -57.16)"/><path class="cls-12" d="M282.55,208.19a7.48,7.48,0,1,0,2.15,10.35A7.48,7.48,0,0,0,282.55,208.19Z" transform="translate(-99.51 -57.16)"/><path class="cls-12" d="M306.91,189.08a6.36,6.36,0,1,0-6.71,6A6.36,6.36,0,0,0,306.91,189.08Z" transform="translate(-99.51 -57.16)"/><path class="cls-12" d="M324.5,184.56a4.11,4.11,0,1,0,3.87,4.34A4.11,4.11,0,0,0,324.5,184.56Z" transform="translate(-99.51 -57.16)"/><path class="cls-12" d="M307.94,225.35a5.24,5.24,0,1,0,1.5,7.25A5.24,5.24,0,0,0,307.94,225.35Z" transform="translate(-99.51 -57.16)"/><path class="cls-12" d="M191.18,263.77a4.11,4.11,0,1,0,1.18,5.69A4.11,4.11,0,0,0,191.18,263.77Z" transform="translate(-99.51 -57.16)"/><path class="cls-12" d="M277.41,263.34a4.11,4.11,0,1,0,5.53,1.82A4.1,4.1,0,0,0,277.41,263.34Z" transform="translate(-99.51 -57.16)"/><path class="cls-12" d="M229.63,221.84A12.71,12.71,0,1,0,219,227.59,12.62,12.62,0,0,0,229.63,221.84Z" transform="translate(-99.51 -57.16)"/><path class="cls-12" d="M204.21,241.34a6.36,6.36,0,1,0,1.83,8.8A6.36,6.36,0,0,0,204.21,241.34Z" transform="translate(-99.51 -57.16)"/><path class="cls-12" d="M233.86,265.68a5.24,5.24,0,1,0,4.93,5.53A5.24,5.24,0,0,0,233.86,265.68Z" transform="translate(-99.51 -57.16)"/><path class="cls-12" d="M233.92,232.75a7.48,7.48,0,1,0,7,7.89A7.48,7.48,0,0,0,233.92,232.75Z" transform="translate(-99.51 -57.16)"/><path class="cls-12" d="M264.51,240.83a6.35,6.35,0,1,0,8.54,2.81A6.33,6.33,0,0,0,264.51,240.83Z" transform="translate(-99.51 -57.16)"/></g><path class="cls-13" d="M288.87,309.52l105.61-16.93s10.56,3.2,30.57,9.73c-15-14.13-25.84-18.25-30.78-39.25-2.17-9.21-2.19-18.74,1.8-25.41,2.2-3.67,4.47-5.43,7.1-4.6,3.89,1.23,9.58,10.62,12.55,15l.51.74c13.8,9.56,27.24,17.81,40.94,27.44,13.24,9.3,18.42,12.77,22.76,18.36,9.38,12.09,29.13,49.31,32.42,64.79,1.09,5.15,1.74,10.34,2.44,16.09,1.49,12.22.29,11.66,7.17,22.16l4.62,7a178.81,178.81,0,0,1-77.36,75.38l-15.14-4.95c-13.66,4.16-120.21-48.75-134.27-68.23-5.18-7.17-6.13-14.82-6.55-26.37l3.62-9.18c-4.36-2.61-8.67-4.44-10.69-9.48-1.56-3.91-1.95-9.57-1.77-18.64L296,329.05c-3.16-4.33-6.14-7.35-6.94-12.85a30.36,30.36,0,0,1-.15-6.68" transform="translate(-99.51 -57.16)"/><g class="cls-14"><path class="cls-15" d="M403.63,302.52q-74,34.41-96,91.08-9.67,21,119.79,74c-31-27.42,58.4-94.48-23.79-165.09" transform="translate(-99.51 -57.16)"/></g><g class="cls-16"><path class="cls-17" d="M311.7,406.35q5.81,7.08,26,19.25L417,415.25q-97.4-50.65-109.41-21.65a7.54,7.54,0,0,0-.62,4q.35,3.72,4.69,8.76" transform="translate(-99.51 -57.16)"/></g><path class="cls-13" d="M289.9,241.08c-17.08-3-20.58,6.92-16.49,15.39s18.26,14.82,27.45,15a13.7,13.7,0,0,0,10.39-3.77,13.42,13.42,0,0,0,3.53-13.06c-2.67-9.84-16-11.78-24.88-13.61" transform="translate(-99.51 -57.16)"/><g class="cls-18"><path class="cls-15" d="M457.19,475.81a179,179,0,0,0,54-47.12,81,81,0,0,1-.64-34.24,111.08,111.08,0,0,1-69.87,75.16l16.55,6.2" transform="translate(-99.51 -57.16)"/></g><g class="cls-19"><path class="cls-15" d="M289.63,241.92l8.22,29.34c-7.77-3.73-23.27-21.36-14.89-28.45a6.25,6.25,0,0,1,6.67-.89" transform="translate(-99.51 -57.16)"/></g><g class="cls-20"><path class="cls-15" d="M290.41,310.57a18.33,18.33,0,0,1,26.1,22.17,33.13,33.13,0,0,1-26.1-22.17" transform="translate(-99.51 -57.16)"/></g><g class="cls-21"><path class="cls-15" d="M284.89,347.4q31.67-4.5,33,19.42a30.33,30.33,0,0,1-33-19.42" transform="translate(-99.51 -57.16)"/></g><path class="cls-22" d="M287.37,203.13l86.74,3.81c4.62.2,9.19,4.19,10.15,8.86l39.43,191.32a9.45,9.45,0,0,1,.18,1.64c1-.09,2.8-1.18,3.55-.4l-5.53,5.25a7.2,7.2,0,0,1-4.85,1.64l-86.74-3.8a11.57,11.57,0,0,1-10.15-8.87L280.72,211.26c-.73-3.52.32-4.77,1.59-6.3l3.77-4.77a4.43,4.43,0,0,1,.86,2.94h.43" transform="translate(-99.51 -57.16)"/><path class="cls-23" d="M291.22,197.61l89,3.9a10,10,0,0,1,8.77,7.65L428.93,402.8c.83,4-1.76,7.2-5.75,7l-89-3.9a10,10,0,0,1-8.77-7.66l-39.9-193.64c-.83-4,1.75-7.19,5.74-7" transform="translate(-99.51 -57.16)"/><path class="cls-24" d="M310.48,221.64a16.68,16.68,0,0,0,2.37-.26c.54-.06,1.08-.14,1.61-.24s1-.16,1.5-.27l-.86.21h26.06c1.27,0,2.4.38,3.68.38h1.28l1.78.14,1.44.12c1,.08,2,.37,3,.45l1.64.12c.92.37,1.86.7,2.79,1s1.76.45,2.67.72,1.47.61,2.25.85l.91.28c1.31.41,2.29,1.2,3.62,1.61l1.18.37.94.47c.48.31.95.62,1.45.89a16.18,16.18,0,0,0,2.57,1.49,17,17,0,0,0,2.65,1.8l.38.37a21.3,21.3,0,0,0,1.95,2.33l.33.33a17.87,17.87,0,0,0,1.2,1.39l-.08-.09.2.25a16,16,0,0,0,12.3,6L416,362.62a16.08,16.08,0,0,0-11.62,11.12H392.16l-3.24-.22c-.35,0-.71,0-1.07,0H364.92c-1.16-.11-2.34-.25-3.5-.25h-1l-2.77-.47L354,372a32.45,32.45,0,0,0-3.43-.42l-4.39-.8L342.7,370c-.37-.15-.74-.29-1.13-.42h0a27.9,27.9,0,0,0-3.64-1c-.37-.29-.75-.55-1.14-.8a15.86,15.86,0,0,0-2.1-1.56c-.11-.09-.23-.17-.35-.25-.38-.49-.78-1-1.17-1.46a22.47,22.47,0,0,0-1.69-1.83,16,16,0,0,0-9.77-4.62L297.15,238.79A16.06,16.06,0,0,0,310.48,223Z" transform="translate(-99.51 -57.16)"/><path class="cls-25" d="M376.13,386.67c5,.21,9.82,4.45,10.85,9.45s-2.16,8.88-7.12,8.67-9.81-4.45-10.84-9.46,2.15-8.88,7.11-8.66" transform="translate(-99.51 -57.16)"/><path class="cls-23" d="M376.67,389.28a8.76,8.76,0,0,1,7.72,6.73c.73,3.56-1.54,6.32-5.06,6.16a8.74,8.74,0,0,1-7.72-6.72c-.73-3.56,1.53-6.33,5.06-6.17" transform="translate(-99.51 -57.16)"/><path class="cls-25" d="M330.15,205.25l22.64,1a1.79,1.79,0,0,1,1.57,1.37h0a1,1,0,0,1-1,1.26l-22.63-1a1.79,1.79,0,0,1-1.58-1.38h0a1,1,0,0,1,1-1.26" transform="translate(-99.51 -57.16)"/><path class="cls-26" d="M416.23,248.81c-1.24,2.7-9.26-3.84-13.74-9.65-8.9-11.54,3.06-10.57,13.74,9.65" transform="translate(-99.51 -57.16)"/><path class="cls-27" d="M423.91,303.76a1.66,1.66,0,0,1,2.36-2.34l9,9.12a1.65,1.65,0,0,1,.48,1.09c.27,2.94.49,5.88.73,9.05,1.35,17.91,3.26,43.17,10.75,53.4a1.66,1.66,0,1,1-2.68,2c-8.05-11-10-36.83-11.39-55.12-.24-3.19-.46-6.15-.67-8.48Z" transform="translate(-99.51 -57.16)"/><path class="cls-25" d="M324.51,204.77a2.05,2.05,0,0,1,1.8,1.57,1.12,1.12,0,0,1-1.18,1.45,2,2,0,0,1-1.8-1.58,1.12,1.12,0,0,1,1.18-1.44" transform="translate(-99.51 -57.16)"/><path class="cls-22" d="M311,224.27c.44-.11.88-.22,1.33-.35a19.75,19.75,0,0,0,2.28-.51c.77-.11,1.49-.26,2.25-.44l5.62.07,1.18.14c1.14.19,2.3.42,3.44.51l1.89.13,3.79.63a15.59,15.59,0,0,0,2.64.22h9.82a16.1,16.1,0,0,0,2.06.19,17.07,17.07,0,0,0,2.24.19h-.83l1.5.46,1.92.73a15.79,15.79,0,0,0,5.43,1.07h-2.25l3.65,1.4c.33.13.67.24,1,.35l4.28,1.32,3.16,1.26c.51.2,1,.38,1.55.53l-.34-.1.26.14,1.07.71a16,16,0,0,0,4.56,2.11c1,.31,2,.64,3.08.85l.54.1L330.57,361.57a16.12,16.12,0,0,0-8.82-3.4L297.13,238.69A16.06,16.06,0,0,0,311,224.27" transform="translate(-99.51 -57.16)"/><path class="cls-28" d="M321.37,353.69c7.65-5.22,8.09-14.93,2.27-20.35-3.33-3.1-11.54-4.93-18.7-5.18-8.72-.31-16.7,2-19.74,10.92a14,14,0,0,0-.31,8.32,10,10,0,0,0,4.71,6.11c7.52,4.46,24.67,5,31.77.18" transform="translate(-99.51 -57.16)"/><path class="cls-26" d="M317.4,336.81a15.57,15.57,0,0,1-.11,6.58c-.93,4.28-1.77,5.9-5.28,6.26a31.61,31.61,0,0,1-7.35.18c-7.44-1.08-6.4-13.54.82-15.44,2.55-.68,5.87-.51,8.78-.37,2.48.13,2.61.39,3.14,2.79" transform="translate(-99.51 -57.16)"/><path class="cls-29" d="M309.16,216.2c.67.12,1.32.23,2,.29l3.9.34c1.13.16,2.28.36,3.41.44s2.62.22,3.9.22h8.87l3.22.54c.87.15,1.75.2,2.63.27a29.36,29.36,0,0,0,4.58.86l-31.52,82.73-13.1-63.55a16.06,16.06,0,0,0,12.11-15.57Z" transform="translate(-99.51 -57.16)"/><path class="cls-28" d="M304.52,291.41c5.71,1.55,8.67,8.66,6.6,15.87s-8.37,11.8-14.08,10.25-8.67-8.66-6.61-15.88,8.37-11.8,14.09-10.24" transform="translate(-99.51 -57.16)"/><path class="cls-30" d="M298.83,291.54a1.66,1.66,0,1,1,.58,3.27,9.88,9.88,0,0,0-4.26,1.87,10,10,0,0,0-2.95,3.62,9.94,9.94,0,0,0,.26,9.05,1.66,1.66,0,1,1-2.91,1.6,13.24,13.24,0,0,1,9.28-19.41" transform="translate(-99.51 -57.16)"/><path class="cls-31" d="M415.63,360.75l4.72,22.91a1,1,0,0,1-1,1.25l-91.62-4a1.8,1.8,0,0,1-1.56-1.37l-4.82-23.41Z" transform="translate(-99.51 -57.16)"/><path class="cls-31" d="M372.89,215.92l1.21.06a16.73,16.73,0,0,0,2.35,1,15.92,15.92,0,0,0,3.08.75,16.52,16.52,0,0,0,7.78,5.64L391.36,243l-94.13-3.8-4.07-19.76a16.1,16.1,0,0,0,7.77-4.17h15.71a21.45,21.45,0,0,0,3-.27,15.48,15.48,0,0,0,1.63-.29l.66,0h1.65a14.77,14.77,0,0,0,2.14-.15c.46,0,.91,0,1.37,0a16.12,16.12,0,0,0,5.4.93h16.43l-1.68-.56a17,17,0,0,0,1.93.47l.57.14a16.35,16.35,0,0,0,3.53.54c.39.1.79.17,1.18.25a15.57,15.57,0,0,0,3,.36l.21,0a16.05,16.05,0,0,0,4.3.58h12.23Z" transform="translate(-99.51 -57.16)"/><path class="cls-32" d="M293,212.42l91.62,4a1.77,1.77,0,0,1,1.56,1.36l1.37,6.63L293.28,220,292,213.67a1,1,0,0,1,1-1.25" transform="translate(-99.51 -57.16)"/><path class="cls-28" d="M318.6,363.16c17.08-3,20.58,6.92,16.49,15.39s-18.27,14.82-27.46,15.05a13.67,13.67,0,0,1-10.38-3.77,13.42,13.42,0,0,1-3.53-13.06c2.67-9.84,16-11.78,24.88-13.61" transform="translate(-99.51 -57.16)"/><path class="cls-26" d="M326.52,367.5a10.67,10.67,0,0,1,1.8,5.29c.29,3.64-.11,5.13-3.63,6.19a41.9,41.9,0,0,1-7.56,1.77c-8,.77-10.54-9.44-3.63-12.56a40.18,40.18,0,0,1,9-2.24c2.59-.44,2.8-.26,4,1.55" transform="translate(-99.51 -57.16)"/><path class="cls-32" d="M347.83,330.63l36.7,1.77a.22.22,0,0,1,.2.19l.22,2.33a.15.15,0,0,1-.17.17l-36.7-1.77a.22.22,0,0,1-.2-.19l-.22-2.33a.15.15,0,0,1,.17-.17" transform="translate(-99.51 -57.16)"/><path class="cls-32" d="M355.84,267c16.52.8,31.18,14.9,32.74,31.49s-10.56,29.4-27.08,28.6-31.17-14.9-32.74-31.5,10.56-29.39,27.08-28.59" transform="translate(-99.51 -57.16)"/><path class="cls-32" d="M348.36,336.28l36.7,1.78a.21.21,0,0,1,.2.19l.22,2.32a.16.16,0,0,1-.16.18L348.61,339a.21.21,0,0,1-.19-.19l-.22-2.33a.15.15,0,0,1,.16-.17" transform="translate(-99.51 -57.16)"/><path class="cls-25" d="M360.94,292.92a19.56,19.56,0,0,1,15.13,16.79,15.81,15.81,0,0,1,0,2.66L344,310.81a17.07,17.07,0,0,1-.47-2.68c-.77-8.11,4.49-14.56,12.09-15.47a8.29,8.29,0,0,1-4.84-6.6,5.84,5.84,0,0,1,6.25-6.59,8.22,8.22,0,0,1,7.55,7.26,5.84,5.84,0,0,1-3.63,6.19" transform="translate(-99.51 -57.16)"/><path class="cls-25" d="M382.94,227.93a1.39,1.39,0,0,1,1.24,1.08.77.77,0,0,1-.81,1,1.41,1.41,0,0,1-1.24-1.08.77.77,0,0,1,.81-1" transform="translate(-99.51 -57.16)"/><path class="cls-25" d="M383.89,231.5a1.4,1.4,0,0,1,1.24,1.08.77.77,0,0,1-.81,1,1.41,1.41,0,0,1-1.24-1.08.77.77,0,0,1,.81-1" transform="translate(-99.51 -57.16)"/><path class="cls-25" d="M384.66,235.19a1.4,1.4,0,0,1,1.23,1.08.77.77,0,0,1-.81,1,1.4,1.4,0,0,1-1.24-1.08.78.78,0,0,1,.82-1" transform="translate(-99.51 -57.16)"/><g class="cls-33"><path class="cls-34" d="M515.46,381.57a25.45,25.45,0,0,0,1.47,7.36c-39.34,14-70.72-21.25-52.7-65.8,3.54-8.74,5.81-17-.25-26.12-11.05-16.57-48.47-8.28-43.79-45.49q27,17.41,50.18,34.14,8.25,6.1,12.08,12.43,10.8,15.86,23.53,43.49,6.12,13.85,7.09,21.57,1.48,9.32,2.39,18.42" transform="translate(-99.51 -57.16)"/></g><path class="cls-25" d="M334.47,471.33a.73.73,0,1,1-.73.73.73.73,0,0,1,.73-.73" transform="translate(-99.51 -57.16)"/><path class="cls-25" d="M474.76,241.86a1.13,1.13,0,1,1-1.13,1.13,1.14,1.14,0,0,1,1.13-1.13" transform="translate(-99.51 -57.16)"/><path class="cls-25" d="M223.23,379.71a1.85,1.85,0,1,1-1.84,1.84,1.84,1.84,0,0,1,1.84-1.84" transform="translate(-99.51 -57.16)"/><path class="cls-25" d="M453.69,202.08a.92.92,0,1,1-.93.92.92.92,0,0,1,.93-.92" transform="translate(-99.51 -57.16)"/><path class="cls-25" d="M404.52,185.92a1.73,1.73,0,1,1-1.74,1.73,1.73,1.73,0,0,1,1.74-1.73" transform="translate(-99.51 -57.16)"/><path class="cls-25" d="M513.64,340.22a1.29,1.29,0,1,1-1.28,1.29,1.28,1.28,0,0,1,1.28-1.29" transform="translate(-99.51 -57.16)"/><path class="cls-25" d="M274.64,383a1.73,1.73,0,1,1-1.73,1.73,1.72,1.72,0,0,1,1.73-1.73" transform="translate(-99.51 -57.16)"/><path class="cls-25" d="M262.32,355a1.13,1.13,0,1,1-1.12,1.13,1.13,1.13,0,0,1,1.12-1.13" transform="translate(-99.51 -57.16)"/><path class="cls-25" d="M206.69,341a1,1,0,1,1-1,1,1,1,0,0,1,1-1" transform="translate(-99.51 -57.16)"/></svg>