<?xml version="1.0" encoding="utf-8"?>
<!-- Generator: Adobe Illustrator 25.0.0, SVG Export Plug-In . SVG Version: 6.00 Build 0)  -->
<svg version="1.1" id="Layer_2" xmlns="http://www.w3.org/2000/svg" xmlns:xlink="http://www.w3.org/1999/xlink" x="0px" y="0px"
	 width="705.6px" height="808.3px" viewBox="0 0 705.6 808.3" style="enable-background:new 0 0 705.6 808.3;" xml:space="preserve"
	>
<style type="text/css">
	.st0{opacity:0.1;fill:#44BBA4;}
	.st1{fill:#44BBA4;}
	.st2{fill:#0033AD;}
	.st3{fill:#232323;}
	.st4{fill:#FF5553;}
	.st5{fill:#FCDFA6;}
	.st6{fill:#FFFFFF;}
	.st7{fill:none;stroke:#FFFFFF;stroke-width:8.6524;stroke-linejoin:round;stroke-miterlimit:10;}
	.st8{fill:none;stroke:#FF5553;stroke-width:8.6524;stroke-linejoin:round;stroke-miterlimit:10;}
	.st9{fill:none;stroke:#FF5553;stroke-width:11;stroke-linecap:round;stroke-linejoin:round;stroke-miterlimit:10;}
	.st10{fill:none;stroke:#FF5553;stroke-width:8.6524;stroke-linecap:round;stroke-linejoin:round;stroke-miterlimit:10;}
</style>
<path class="st0" d="M371.2,790.5l-1.7-773l0,0c0-9.2-7.2-17-16.6-17.5c-3.6-0.2-6.9,0.7-9.8,2.3l0,0L8.8,196.3l0,0
	c-2.3,1.3-4.3,3.2-5.8,5.5c-2,3-2.9,6.3-2.9,9.6l0,0L0.9,598l0,0c0,2.6,0.6,5.3,1.9,7.8c1.6,3.2,4.1,5.7,6.9,7.3l0,0l335.1,192.5
	l0,0c2.3,1.3,4.9,2.2,7.7,2.3c9.7,0.6,18-6.9,18.6-16.6C371.2,791.1,371.2,790.8,371.2,790.5L371.2,790.5z"/>
<path class="st1" d="M369.5,18.5c0.6-9.7-6.9-18-16.6-18.6c-9.7-0.6-18,6.9-18.6,16.5c-0.6,9.7,6.9,18,16.6,18.6
	C360.6,35.6,368.9,28.2,369.5,18.5z"/>
<path class="st2" d="M671.3,218c4.4,8.7,14.9,12.2,23.6,7.8c8.7-4.4,12.2-15,7.8-23.6c-4.4-8.7-14.9-12.2-23.6-7.8
	C670.4,198.7,667,209.3,671.3,218z"/>
<path class="st3" d="M673.2,586.9c-5.3,8.1-3.1,19,5.1,24.4c8.1,5.3,19,3.1,24.4-5.1c5.3-8.1,3.1-19-5.1-24.4
	C689.4,576.5,678.5,578.7,673.2,586.9z"/>
<path class="st4" d="M371.2,791.5c0.5-9.7-6.9-18-16.6-18.6c-9.7-0.6-18,6.9-18.6,16.6c-0.6,9.7,6.9,18,16.6,18.6
	C362.3,808.6,370.6,801.2,371.2,791.5z"/>
<path class="st4" d="M32.3,221.2c5.3-8.1,3.1-19-5.1-24.4c-8.1-5.3-19-3.1-24.4,5.1c-5.3,8.1-3.1,19,5.1,24.3
	C16.1,231.5,27,229.3,32.3,221.2z"/>
<path class="st1" d="M34.2,590.1c-4.4-8.7-14.9-12.2-23.6-7.8c-8.7,4.4-12.2,14.9-7.8,23.6c4.4,8.7,14.9,12.2,23.6,7.8
	C35.1,609.3,38.6,598.7,34.2,590.1z"/>
<polygon class="st3" points="546.1,636.8 369.5,636.8 492.9,534.9 669.4,534.9 "/>
<path class="st1" d="M131.3,385.5c6.4-19.3,20.9-33.7,38.6-40.4l4-2.3c-12.2-16.4-16.4-38.3-9.6-59.2c5-15.2,15.1-27.3,27.8-35.1
	l0,0l0.6-0.3c0.5-0.3,1-0.6,1.6-0.9l45-26c-0.2-7.4,0.8-15,3.2-22.5c11.3-34.1,48.1-52.7,82.3-41.5c27.3,9,44.6,34.3,44.7,61.5h0v11
	l0,123.7l0,0l0,25.7l0,97.9v114.3l-0.1,0.1c-0.2,6-1.3,12-3.2,17.9c-11.2,34.2-48.1,52.8-82.2,41.5c-32.7-10.7-51-44.8-42.8-77.6
	c-10.8,2.2-22.2,1.7-33.4-1.9c-34.2-11.2-52.8-48-41.5-82.3c2.5-7.5,6.2-14.2,10.8-20c-1.4-0.4-2.8-0.7-4.1-1.2
	C138.7,456.5,120.1,419.7,131.3,385.5z"/>
<path class="st5" d="M488.2,431.3c-2.1-1.2-2.8-3.8-1.6-5.9s3.8-2.8,5.9-1.6l53.5,30.9v-118l-54.7-31.6c-2.1-1.2-2.8-3.8-1.6-5.9
	c1.2-2.1,3.8-2.8,5.9-1.6l50.4,29.1V170.4H369.5v466.4h176.6V464.7L488.2,431.3z"/>
<rect x="192.9" y="170.4" class="st6" width="176.6" height="466.4"/>
<path class="st2" d="M492.5,423.8l75.1,43.4c33.2-11.8,51.1-48,40-81.7c-2.3-7-5.7-13.3-9.9-18.8l-106.5-61.6
	c-2.1-1.2-2.8-3.8-1.6-5.9c1.2-2.1,3.8-2.8,5.9-1.6l71.9,41.6c10.2-15.9,13.5-36.2,7.1-55.6c-5-15.2-15.1-27.3-27.8-35.1l0,0
	l-0.6-0.3c-0.5-0.3-1-0.6-1.6-0.9l-45-26c0.2-7.4-0.8-15-3.2-22.5c-11.3-34.1-48.1-52.7-82.3-41.5c-27.3,9-44.6,34.3-44.7,61.5h0v11
	l0,123.7l0,0l0,25.7l0,97.9v114.3l0.1,0.1c0.2,6,1.3,12,3.2,17.9c11.2,34.2,48.1,52.8,82.2,41.5c30.8-10.1,48.9-41,44-72l-47.1-27.3
	c-2.1-1.2-2.8-3.8-1.6-5.9s3.8-2.8,5.9-1.6l52.5,30.4c7.4,0.3,15.1-0.8,22.5-3.2c34.2-11.2,52.8-48,41.5-82.3
	c-1.4-4.2-3.2-8.2-5.3-11.9l-79.3-45.9c-2.1-1.2-2.8-3.8-1.6-5.9S490.5,422.6,492.5,423.8z"/>
<polyline class="st7" points="510.9,509.4 436.6,466.4 436.5,432 369.5,432 "/>
<polyline class="st7" points="545.8,405.9 445.8,348 369.5,346.4 "/>
<polyline class="st7" points="434.7,219.1 434.7,260.9 369.5,260.9 "/>
<polyline class="st7" points="434.7,588.2 434.7,516.7 369.5,517.5 "/>
<line class="st8" x1="369.5" y1="260.9" x2="284.6" y2="260.9"/>
<line class="st8" x1="369.5" y1="346.4" x2="284.6" y2="346.4"/>
<line class="st8" x1="369.5" y1="432" x2="284.6" y2="432"/>
<line class="st8" x1="369.5" y1="517.5" x2="284.6" y2="517.5"/>
<polyline class="st9" points="235.8,265.1 247,276.4 271.2,252.2 "/>
<circle class="st10" cx="253.5" cy="260.9" r="33.3"/>
<polyline class="st9" points="235.8,350.7 247,361.9 271.2,337.7 "/>
<circle class="st10" cx="253.5" cy="346.4" r="33.3"/>
<polyline class="st9" points="235.8,436.2 247,447.4 271.2,423.2 "/>
<circle class="st10" cx="253.5" cy="432" r="33.3"/>
<polyline class="st9" points="235.8,521.7 247,532.9 271.2,508.7 "/>
<circle class="st10" cx="253.5" cy="517.5" r="33.3"/>
<path class="st9" d="M235.2,604.9c2.6-6.3,5.5-12.6,10.2-17.6c4.2-4.4,10-7.7,16.1-7.6c9.7,0.1,17.2,8.1,26,12.1
	c7.3,3.3,15.8,3.9,23.6,1.9c7.8-1.9,15-6.3,20.6-12"/>
<path class="st6" d="M435.2,598.4c-5.2,0.3-9.7-3.7-10-8.9c-0.3-5.2,3.7-9.7,8.9-10c5.2-0.3,9.7,3.7,10,8.9
	C444.4,593.7,440.4,598.1,435.2,598.4z"/>
<path class="st6" d="M511.4,518.9c-5.2,0.3-9.7-3.7-10-8.9c-0.3-5.2,3.7-9.7,8.9-10c5.2-0.3,9.7,3.7,10,8.9
	C520.7,514.1,516.7,518.6,511.4,518.9z"/>
<g>
	<path class="st6" d="M546.3,415.4c-5.2,0.3-9.7-3.7-10-8.9c-0.3-5.2,3.7-9.7,8.9-10c5.2-0.3,9.7,3.7,10,8.9
		C555.6,410.6,551.6,415.1,546.3,415.4z"/>
</g>
<path class="st6" d="M435.2,228.6c-5.2,0.3-9.7-3.7-10-8.9c-0.3-5.2,3.7-9.7,8.9-10c5.2-0.3,9.7,3.7,10,8.9
	C444.4,223.8,440.4,228.3,435.2,228.6z"/>
</svg>
