<?xml version="1.0" encoding="utf-8"?>
<!-- Generator: Adobe Illustrator 25.0.0, SVG Export Plug-In . SVG Version: 6.00 Build 0)  -->
<svg version="1.1" id="Layer_26" xmlns="http://www.w3.org/2000/svg" xmlns:xlink="http://www.w3.org/1999/xlink" x="0px" y="0px"
	 width="705.6px" height="808.3px" viewBox="0 0 705.6 808.3" style="enable-background:new 0 0 705.6 808.3;" xml:space="preserve"
	>
<style type="text/css">
	.st0{fill:#232323;}
	.st1{opacity:0.1;fill:#44BBA4;enable-background:new    ;}
	.st2{fill:#FCDFA6;}
	.st3{fill:#44BBA4;}
	.st4{fill:#FF5553;}
	.st5{fill:#0033AD;}
	.st6{fill:none;stroke:#FFFFFF;stroke-miterlimit:10;}
	.st7{fill:#FFFFFF;}
</style>
<polygon class="st0" points="613.8,609.1 613.8,633.2 503,645.3 392.2,633.2 392.2,609.1 503,597 "/>
<path class="st1" d="M371.2,790.5l-1.7-773l0,0c0-9.3-7.3-17-16.6-17.5c-3.4-0.2-6.8,0.6-9.8,2.3l0,0L8.8,196.4l0,0
	c-2.3,1.3-4.3,3.2-5.8,5.5c-1.9,2.8-2.9,6.2-2.9,9.6l0,0L1,598l0,0c0,2.7,0.7,5.4,1.9,7.8c1.5,3.1,3.9,5.6,6.9,7.3l0,0l335.1,192.5
	l0,0c2.3,1.4,5,2.2,7.7,2.3c9.7,0.5,18-6.9,18.6-16.6V790.5L371.2,790.5z"/>
<path class="st2" d="M369.5,18.6c0.6-9.7-6.8-18.1-16.5-18.7s-18.1,6.8-18.7,16.5s6.8,18.1,16.5,18.7h0.1
	c9.6,0.6,17.9-6.6,18.6-16.2C369.5,18.8,369.5,18.7,369.5,18.6z"/>
<path class="st3" d="M671.4,218c4.4,8.7,14.9,12.2,23.6,7.8c8.7-4.4,12.2-14.9,7.8-23.6s-14.9-12.2-23.6-7.8l0,0
	C670.5,198.8,667,209.3,671.4,218C671.3,218,671.4,218,671.4,218z"/>
<path class="st3" d="M673.2,587c-5.3,8.1-3.1,19.1,5.1,24.4c8.1,5.3,19.1,3.1,24.4-5.1s3.1-19.1-5.1-24.4l0,0
	C689.4,576.6,678.5,578.9,673.2,587z"/>
<path class="st2" d="M371.2,791.6c0.6-9.7-6.9-18-16.6-18.6s-18,6.9-18.6,16.6c-0.6,9.7,6.9,18.1,16.6,18.6l0,0
	C362.3,808.7,370.6,801.3,371.2,791.6z"/>
<path class="st4" d="M32.4,221.2c5.4-8.1,3.1-19.1-5-24.4c-8.1-5.4-19.1-3.1-24.4,5c-5.4,8.1-3.1,19.1,5,24.4l0,0
	C16.1,231.6,27,229.3,32.4,221.2z"/>
<path class="st5" d="M34.2,590.2c-4.4-8.7-14.9-12.2-23.6-7.8S-1.6,597.3,2.8,606c4.4,8.7,14.9,12.2,23.6,7.8l0,0
	C35,609.5,38.6,599,34.2,590.2C34.2,590.3,34.2,590.3,34.2,590.2z"/>
<line class="st6" x1="413" y1="506.4" x2="59.3" y2="302.2"/>
<line class="st6" x1="59.3" y1="506.4" x2="413" y2="302.2"/>
<line class="st6" x1="236.1" y1="608.5" x2="236.1" y2="200.1"/>
<circle class="st6" cx="236.9" cy="404.3" r="151.9"/>
<polygon class="st3" points="502.2,200.6 325.3,302.7 325.3,506.9 502.2,609 679,506.9 679,302.7 "/>
<polygon class="st5" points="236.9,200.6 60,302.7 60,506.9 236.9,609 413.8,506.9 413.8,302.7 "/>
<polygon class="st2" points="236.9,263.5 304.4,302.5 237.2,341.4 169.3,302.5 "/>
<polygon class="st4" points="502.7,263.8 570.2,302.8 503,341.6 435.1,302.8 "/>
<polygon class="st7" points="325.3,506.9 369.5,532.4 413.8,506.9 413.8,302.7 369.5,277.1 325.3,302.7 "/>
<rect x="325.3" y="472.9" class="st5" width="88.4" height="17"/>
<rect x="281.1" y="421.8" class="st3" width="132.6" height="17"/>
<rect x="281.1" y="404.8" class="st5" width="88.4" height="17"/>
<rect x="368.8" y="387.8" class="st3" width="88.4" height="17"/>
<rect x="325.3" y="370.7" class="st5" width="131.9" height="17"/>
<rect x="325.3" y="319.7" class="st3" width="88.4" height="17"/>
<rect x="325.3" y="302.7" class="st5" width="88.4" height="17"/>
<rect x="325.3" y="489.9" class="st3" width="88.4" height="17"/>
<rect x="368.8" y="455.8" class="st3" width="88.4" height="17"/>
<rect x="281.1" y="336.7" class="st5" width="88.4" height="17"/>
<line class="st6" x1="503" y1="404.3" x2="679.8" y2="302.2"/>
<path class="st6" d="M503,608.5"/>
<path class="st6" d="M501.4,404.3"/>
<line class="st6" x1="237.7" y1="404.3" x2="236.1" y2="608.5"/>
<g>
	<g>
		<path class="st7" d="M90.9,419.3c-1.4-0.9-2.6-0.3-2.7,1.3c-0.1,1.6,1,3.6,2.4,4.5c1.4,0.9,2.6,0.3,2.7-1.3
			C93.4,422.2,92.3,420.2,90.9,419.3z"/>
		<path class="st7" d="M120.3,438.2c-0.2,4.9,3.1,11.1,7.4,13.9c0.2,0.1,0.3,0.2,0.5,0.3c4.2,2.3,7.6,0.5,7.9-4.2
			c0.2-4.9-3.1-11.1-7.4-13.9C124.3,431.4,120.6,433.3,120.3,438.2z"/>
		<path class="st7" d="M90.9,419.3c-1.4-0.9-2.6-0.3-2.7,1.3c-0.1,1.6,1,3.6,2.4,4.5c1.4,0.9,2.6,0.3,2.7-1.3
			C93.4,422.2,92.3,420.2,90.9,419.3z"/>
		<path class="st7" d="M119.8,384.6c1.3,0,1.8-1.5,1.1-3.4c-0.6-1.8-2.2-3.3-3.4-3.2c-1.3,0-1.8,1.5-1.1,3.3
			C117,383.2,118.6,384.7,119.8,384.6z"/>
		<path class="st7" d="M127.8,405.4c1.9,0,2.7-2.4,1.7-5.2c-1-2.8-3.3-5.1-5.3-5c-1.9,0-2.7,2.4-1.7,5.2
			C123.5,403.2,125.9,405.4,127.8,405.4z"/>
		<path class="st7" d="M100.9,401.4c1.5,2,3.5,2.6,4.5,1.4c1-1.2,0.6-3.8-0.9-5.8c-1.5-2-3.5-2.6-4.5-1.4
			C99,396.8,99.4,399.4,100.9,401.4z"/>
		<path class="st7" d="M105.7,426c-2.2-1.4-4-0.5-4.2,2c-0.1,2.5,1.5,5.6,3.7,6.9c2.2,1.4,4,0.5,4.2-2
			C109.5,430.4,107.9,427.3,105.7,426z"/>
		<path class="st7" d="M101.3,454.3c-1.6,0-2.2,1.9-1.4,4.3c0.8,2.3,2.8,4.2,4.4,4.1c1.6,0,2.2-1.9,1.4-4.3
			C104.9,456.1,102.9,454.3,101.3,454.3z"/>
		<path class="st7" d="M116.6,422.6c2.1,2.8,5,3.8,6.4,2.1c1.4-1.7,0.8-5.4-1.3-8.2c-2.1-2.8-5-3.8-6.4-2.1
			C113.9,416.1,114.5,419.8,116.6,422.6z"/>
		<path class="st7" d="M165.2,426c1.8,2.4,4.3,3.2,5.5,1.7c1.2-1.4,0.7-4.6-1.1-7c-1.8-2.4-4.3-3.2-5.5-1.7
			C162.9,420.5,163.4,423.6,165.2,426z"/>
		<path class="st7" d="M173.3,414.4c1.2,1.6,2.8,2.1,3.5,1.1c0.8-0.9,0.4-3-0.7-4.5c-1.2-1.6-2.8-2.1-3.5-1.1
			C171.8,410.8,172.1,412.8,173.3,414.4z"/>
		<path class="st7" d="M165.8,455c-4.4-2.7-8.1-0.9-8.3,4c-0.2,4.9,3.1,11.1,7.4,13.9c0.2,0.1,0.3,0.2,0.5,0.3
			c4.2,2.3,7.6,0.5,7.9-4.2c0.1-2.4-0.6-5.1-2-7.8C169.9,458.5,167.9,456.3,165.8,455z"/>
		<path class="st7" d="M130.4,429.7c1.3,3.9,4,7.3,7,9c1.2,0.7,2.4,1,3.5,1c3.9-0.1,5.5-4.7,3.5-10.4c-1.3-3.9-4-7.3-7-9
			c-1.2-0.7-2.4-1-3.5-1C130,419.5,128.5,424.1,130.4,429.7z"/>
		<path class="st7" d="M192.2,452.7c1.6,0,2.2-1.9,1.4-4.3c-0.8-2.3-2.8-4.2-4.4-4.1c-1.6,0-2.2,1.9-1.4,4.3
			C188.7,450.9,190.6,452.7,192.2,452.7z"/>
		<path class="st7" d="M172.2,444.4c-2.3,0.1-3.2,2.8-2.1,6.1c1.2,3.3,3.9,5.9,6.2,5.9c2.3-0.1,3.2-2.8,2.1-6.1
			C177.3,447,174.5,444.3,172.2,444.4z"/>
		<path class="st7" d="M146.5,397.9c1.8,1.1,3.3,0.4,3.4-1.6c0.1-2-1.3-4.6-3.1-5.7c-1.8-1.1-3.3-0.4-3.4,1.6
			C143.3,394.2,144.7,396.8,146.5,397.9z"/>
		<path class="st7" d="M146.5,421.7c2.6,1.6,4.7,0.6,4.9-2.3c0.1-2.9-1.8-6.5-4.4-8.1c-2.6-1.6-4.7-0.6-4.9,2.3
			C141.9,416.4,143.9,420.1,146.5,421.7z"/>
		<path class="st7" d="M121.3,462.6c2.3-0.1,3.2-2.8,2.1-6.1c-1.2-3.3-3.9-5.9-6.2-5.9c-2.3,0.1-3.2,2.8-2.1,6.1
			C116.3,460,119.1,462.7,121.3,462.6z"/>
		<path class="st7" d="M149.5,431.2c-2.4,2.9-1.4,9.2,2.3,14c1.3,1.7,2.8,3.1,4.3,3.9c2.7,1.5,5.1,1.3,6.6-0.4
			c2.4-2.9,1.4-9.2-2.3-14c-1.3-1.7-2.8-3.1-4.3-3.9C153.4,429.3,150.9,429.4,149.5,431.2z"/>
		<path class="st7" d="M163.2,477.3c-1.3-3.9-4.1-7.3-7-9c-1.2-0.7-2.4-1-3.5-1c-1.9,0-3.3,1.2-3.9,3.1c-0.7,2-0.5,4.5,0.4,7.3
			c1.3,3.9,4,7.3,7,9c1.2,0.7,2.4,1,3.5,1C163.6,487.6,165.1,482.9,163.2,477.3z"/>
		<path class="st7" d="M176.9,484.4c-2.1-2.8-5-3.8-6.4-2.1c-1.4,1.7-0.8,5.4,1.3,8.2c2.1,2.8,5,3.8,6.4,2.1
			C179.7,490.9,179.1,487.2,176.9,484.4z"/>
		<path class="st7" d="M192,479.1c0.1-2.5-1.5-5.6-3.7-6.9c-2.2-1.4-4-0.5-4.2,2c-0.1,2.5,1.5,5.6,3.7,6.9
			C190.1,482.4,191.9,481.5,192,479.1z"/>
		<path class="st7" d="M203,481.9c-1.4-0.9-2.6-0.3-2.7,1.3c-0.1,1.6,1,3.6,2.4,4.5c1.4,0.9,2.6,0.3,2.7-1.3
			C205.4,484.8,204.4,482.8,203,481.9z"/>
		<path class="st7" d="M192.7,505.6c-1.5-2-3.5-2.6-4.5-1.4c-1,1.2-0.6,3.8,0.9,5.8c1.5,2,3.5,2.6,4.5,1.4
			C194.6,510.2,194.2,507.6,192.7,505.6z"/>
		<path class="st7" d="M120.3,492.7c-1.2-1.6-2.8-2.1-3.5-1.1c-0.8,0.9-0.4,3,0.7,4.5c1.2,1.6,2.8,2.1,3.5,1.1
			C121.8,496.2,121.5,494.2,120.3,492.7z"/>
		<path class="st7" d="M173.8,522.4c-1.3,0-1.8,1.5-1.1,3.4c0.6,1.8,2.2,3.3,3.4,3.2c1.3,0,1.8-1.5,1.1-3.3
			C176.5,523.8,175,522.3,173.8,522.4z"/>
		<path class="st7" d="M144.1,475.8c1.2-1.4,1.6-3.6,1.1-6.3c-0.4-2.6-1.6-5.4-3.4-7.7c-1.3-1.7-2.8-3.1-4.3-3.9
			c-2.7-1.5-5.1-1.3-6.6,0.4c-1.2,1.4-1.6,3.6-1.1,6.3c0.4,2.6,1.6,5.4,3.4,7.7c1.3,1.7,2.8,3.1,4.3,3.9
			C140.2,477.7,142.7,477.6,144.1,475.8z"/>
		<path class="st7" d="M128.4,481c-1.8-2.4-4.3-3.2-5.5-1.7c-1.2,1.4-0.7,4.6,1.1,7c1.8,2.4,4.3,3.2,5.5,1.7
			C130.7,486.6,130.2,483.4,128.4,481z"/>
		<path class="st7" d="M146.8,508.9c-1.8-1.1-3.3-0.4-3.4,1.6c-0.1,2,1.3,4.6,3.1,5.7c1.8,1.1,3.3,0.4,3.4-1.6
			C149.9,512.6,148.5,510,146.8,508.9z"/>
		<path class="st7" d="M146.8,485.2c-2.6-1.6-4.7-0.6-4.9,2.3c-0.1,2.9,1.8,6.5,4.4,8.1c2.6,1.6,4.7,0.6,4.9-2.3
			C151.3,490.4,149.3,486.8,146.8,485.2z"/>
		<path class="st7" d="M165.8,501.6c-1.9,0.1-2.7,2.4-1.7,5.2c1,2.8,3.3,5.1,5.3,5c1.9,0,2.7-2.4,1.7-5.2
			C170.1,503.8,167.7,501.6,165.8,501.6z"/>
	</g>
</g>
</svg>
