<svg xmlns="http://www.w3.org/2000/svg" viewBox="0 0 183.85 125.08"><defs><style>.cls-1{isolation:isolate;}.cls-2,.cls-3{fill:#dcf0fb;}.cls-3{opacity:0.64;}.cls-4{fill:#cc7f10;}.cls-5{fill:#ebf6fb;}.cls-6{fill:#d2ecf7;}.cls-7{fill:#e59306;}.cls-18,.cls-23,.cls-8{fill:#fff;}.cls-8{opacity:0.33;}.cls-9{fill:#acd8f1;}.cls-10{fill:#34ac5e;}.cls-11{fill:#282929;}.cls-12{fill:#b3d06a;}.cls-13{fill:#dd8e04;}.cls-14{fill:#f7a711;}.cls-15{fill:#f0b3b2;}.cls-16{fill:#68ade0;}.cls-17{fill:#e69ec5;opacity:0.76;}.cls-17,.cls-24{mix-blend-mode:color-burn;}.cls-19{fill:#1b1d3c;}.cls-20{fill:#1a1b39;}.cls-21{fill:#0e9bd7;}.cls-22{fill:#cc9897;}.cls-23{opacity:0.2;}.cls-24,.cls-25{fill:#010101;}.cls-24{opacity:0.14;}.cls-26{fill:none;stroke:#282929;stroke-linecap:round;stroke-linejoin:round;stroke-width:0.2px;}</style></defs><g class="cls-1"><g id="Layer_1" data-name="Layer 1"><path class="cls-2" d="M305.27,147.46c2.08,3.19,5.76,5,9.46,5.89,7.67,1.86,15.74.43,23.38-1.56a86.74,86.74,0,0,0,21.63-8.39c5.35-3.1,15-9.17,14.62-16.43a8.6,8.6,0,0,0-2.73-5.51c-4.75-4.75-12.7-7.33-19.24-5.51-8.39,2.34-9.77,12.85-20.21,11-3.41-.61-6.57-2.16-9.85-3.27s-6.9-1.8-10.17-.64c-8.41,3-11.46,17.37-6.91,24.41Z" transform="translate(-261.56 -115.36)"/><path class="cls-3" d="M434.52,238.49c13.61-70.47,3.55-93.09-8.6-100.43C405.93,126,383,157,318.07,158c-20.71.32-32.93-2.6-43.37,6.65-14.51,12.84-18,42.43-5.47,62.13a45.62,45.62,0,0,0,11.33,12.11Z" transform="translate(-261.56 -115.36)"/><path class="cls-4" d="M329.64,236.34H298.76a3.93,3.93,0,0,1-3.94-3.94V192a3.93,3.93,0,0,1,3.94-3.94h29.4a3.94,3.94,0,0,1,3.12,1.53,3.9,3.9,0,0,1,.82,2.41v41.83A2.46,2.46,0,0,1,329.64,236.34Z" transform="translate(-261.56 -115.36)"/><rect class="cls-5" x="39.44" y="76.9" width="28.48" height="42.54"/><rect class="cls-6" x="37.96" y="75.87" width="28.48" height="42.54"/><rect class="cls-5" x="37.04" y="75.07" width="28.48" height="42.54"/><rect class="cls-6" x="35.37" y="74.5" width="28.48" height="42.54"/><path class="cls-7" d="M321.44,235h-24a2.78,2.78,0,0,1-2.79-2.78V190.12a2.79,2.79,0,0,1,2.79-2.79h24a2.78,2.78,0,0,1,2.78,2.79v42.09A2.78,2.78,0,0,1,321.44,235Z" transform="translate(-261.56 -115.36)"/><rect class="cls-8" x="36.86" y="77.92" width="21.14" height="7.69"/><rect class="cls-9" x="14.31" y="121.56" width="157.48" height="3.52"/><path class="cls-10" d="M405.37,187.1c-7.7,25.81,9.05,30.8,16.74,5S413.06,161.29,405.37,187.1Z" transform="translate(-261.56 -115.36)"/><path class="cls-11" d="M395,225.43l0,0a.19.19,0,0,0,.26,0c15-12.79,23.3-45.34,22.41-47.76a.19.19,0,0,0-.24-.11.2.2,0,0,0-.11.24c.89,2.39-7.43,34.65-22.3,47.35A.17.17,0,0,0,395,225.43Z" transform="translate(-261.56 -115.36)"/><path class="cls-10" d="M433.74,226.79c-17.24,4.16-19.95-7-2.7-11.19S451,222.62,433.74,226.79Z" transform="translate(-261.56 -115.36)"/><path class="cls-11" d="M408.13,232.33a.18.18,0,0,0,.23,0c8.86-9.33,30.32-13.68,31.86-13a.19.19,0,0,0,.15-.34c-1.57-.67-23.33,3.68-32.27,13.1a.19.19,0,0,0,0,.26Z" transform="translate(-261.56 -115.36)"/><path class="cls-12" d="M432.29,211.78c-15.85,13.82-24.81,3.53-9-10.28S448.15,198,432.29,211.78Z" transform="translate(-261.56 -115.36)"/><path class="cls-11" d="M408.32,231.56l.05,0a.18.18,0,0,0,.23-.12c4.21-14.67,24.42-31,26.4-31.14a.18.18,0,0,0,.17-.2.18.18,0,0,0-.2-.16c-2,.14-22.48,16.61-26.73,31.4A.18.18,0,0,0,408.32,231.56Z" transform="translate(-261.56 -115.36)"/><path class="cls-13" d="M399.47,237.12H337.31a7.93,7.93,0,0,1-7.93-7.93V147.93a7.93,7.93,0,0,1,7.93-7.93h59.2a7.93,7.93,0,0,1,7.93,7.93v84.23A5,5,0,0,1,399.47,237.12Z" transform="translate(-261.56 -115.36)"/><rect class="cls-5" x="80.27" y="33.02" width="57.34" height="85.64"/><rect class="cls-6" x="77.29" y="30.95" width="57.34" height="85.64"/><rect class="cls-5" x="75.43" y="29.33" width="57.34" height="85.64"/><rect class="cls-6" x="72.07" y="28.18" width="57.34" height="85.64"/><path class="cls-14" d="M383,234.41H334.6A5.61,5.61,0,0,1,329,228.8V144.07a5.62,5.62,0,0,1,5.61-5.62H383a5.63,5.63,0,0,1,5.62,5.62V228.8A5.62,5.62,0,0,1,383,234.41Z" transform="translate(-261.56 -115.36)"/><rect class="cls-8" x="75.07" y="35.09" width="42.56" height="15.48"/><path class="cls-4" d="M411.4,237.12H386.66A3.16,3.16,0,0,1,383.5,234V201.62a3.16,3.16,0,0,1,3.16-3.15h23.56a3.13,3.13,0,0,1,2.5,1.23,3.08,3.08,0,0,1,.66,1.92v33.52A2,2,0,0,1,411.4,237.12Z" transform="translate(-261.56 -115.36)"/><rect class="cls-5" x="126.9" y="86.44" width="22.82" height="34.09"/><rect class="cls-6" x="125.72" y="85.61" width="22.82" height="34.09"/><rect class="cls-5" x="124.97" y="84.97" width="22.82" height="34.09"/><rect class="cls-6" x="123.64" y="84.51" width="22.82" height="34.09"/><path class="cls-7" d="M404.83,236H385.58a2.23,2.23,0,0,1-2.23-2.23V200.08a2.23,2.23,0,0,1,2.23-2.23h19.25a2.22,2.22,0,0,1,1.54.61,2.24,2.24,0,0,1,.7,1.62v33.73A2.23,2.23,0,0,1,404.83,236Z" transform="translate(-261.56 -115.36)"/><rect class="cls-8" x="124.83" y="87.26" width="16.94" height="6.16"/><path class="cls-15" d="M328.43,158.33s4.59,7.31,5.69,8.24,3.77,1.58,4.35,2.48-3.2,0-3.12.33,3.3,4.05,1.34,4.54-5.34-4.56-5.34-4.56-9.88-9.08-9.33-13.75S328.43,158.33,328.43,158.33Z" transform="translate(-261.56 -115.36)"/><polygon class="cls-15" points="63.63 114.54 62.63 110.26 67.64 109.89 67.95 114.23 67.6 115.63 64.21 116.33 63.63 114.54"/><polygon class="cls-15" points="40.72 115.2 40.67 110.8 45.64 111.52 45.02 115.82 44.37 117.11 40.91 117.07 40.72 115.2"/><path class="cls-16" d="M337.72,235.2l-12.76.92c0-.12-.07-.59-.16-1.24-.24-1.81-.63-4.95-.3-5.14a1.09,1.09,0,0,1,.91-.06,1.68,1.68,0,0,0,2.15,1.21c1.81-.36,1.92-2,2.15-2s0,0,.49.42c.21.15.5.34.83.55l1,.6.31.18,1,.59c1.69,1,3.44,2,3.86,2.39l.11.1A1.79,1.79,0,0,1,337.72,235.2Z" transform="translate(-261.56 -115.36)"/><path class="cls-17" d="M337.72,235.2l-12.76.92c0-.12-.07-.59-.16-1.24l12.46-1.14A1.79,1.79,0,0,1,337.72,235.2Z" transform="translate(-261.56 -115.36)"/><path class="cls-18" d="M332,230.48l-1.15,1.68a.59.59,0,0,1-.43.25.65.65,0,0,1-.36-.1.58.58,0,0,1-.15-.8l1.12-1.63C331.32,230.07,331.65,230.27,332,230.48Z" transform="translate(-261.56 -115.36)"/><path class="cls-16" d="M314.56,237h-12.8c0-.14,0-.81-.09-1.65-.11-1.86-.23-4.59.08-4.75a1.11,1.11,0,0,1,.92,0,1.7,1.7,0,0,0,2.06,1.37c1.83-.23,2-1.83,2.28-1.83s0,0,.46.45c.2.17.47.38.79.61l.93.67.29.21.94.65c1.21.84,2.45,1.69,3.16,2.23a5.34,5.34,0,0,1,.52.43A1.78,1.78,0,0,1,314.56,237Z" transform="translate(-261.56 -115.36)"/><path class="cls-17" d="M314.79,236.76H302c0-.14-.05-.8-.09-1.65,2.91-.2,8.62-.32,11.91-.39a5.34,5.34,0,0,1,.52.43A1.78,1.78,0,0,1,314.79,236.76Z" transform="translate(-261.56 -115.36)"/><path class="cls-18" d="M309.19,231.88l-1.27,1.59a.55.55,0,0,1-.45.22.53.53,0,0,1-.35-.13.56.56,0,0,1-.09-.8l1.23-1.55C308.54,231.42,308.85,231.65,309.19,231.88Z" transform="translate(-261.56 -115.36)"/><path class="cls-18" d="M310.42,232.74l-1.13,1.42a.57.57,0,1,1-.89-.71l1.08-1.36Z" transform="translate(-261.56 -115.36)"/><polygon class="cls-19" points="69.26 111.45 61.49 112.6 61.07 110.24 53.92 70.04 51.75 51.2 61.4 49.17 68.76 107.53 69.26 111.45"/><polygon class="cls-20" points="57.49 50.09 53.83 69.98 47.19 110.37 46.86 113.05 39.09 113.05 39.44 109.1 44.68 50.22 57.49 50.09"/><path class="cls-9" d="M321.19,144.31s2.57.58,4.53,5.11a50.37,50.37,0,0,1,2.65,7.41,14.42,14.42,0,0,1-6.52,1.68Z" transform="translate(-261.56 -115.36)"/><path class="cls-21" d="M323,162.53c.17,2.13,1.63,3.19.35,4.46-2.66,2.83-13.34,2.79-16.74,2.71a1,1,0,0,1-1-1.07l-.5-7.19,1.4-8.2.44-2.55-.26-2.69a18,18,0,0,1,5.9-3.59l4.71-.48,4.3.39a14.71,14.71,0,0,1,.9,3.6,57.64,57.64,0,0,1,.5,9.26c0,.16,0,.31,0,.46v0c0,1.65-.07,3.06-.06,4.05,0,.24,0,.46,0,.65S323,162.47,323,162.53Z" transform="translate(-261.56 -115.36)"/><path class="cls-22" d="M317.93,143.93v0a5.26,5.26,0,0,1-.06,1.08c-.14.94-.59,2.14-2,2.24-2.27.18-2.95-2.51-2.95-2.51l-.23-3,4.35-.11S316.74,143.33,317.93,143.93Z" transform="translate(-261.56 -115.36)"/><path class="cls-17" d="M317.93,143.93v0a5.26,5.26,0,0,1-.06,1.08c-3.18,1.11-4.5-.46-5.05-1.93l-.1-1.31,4.35-.11S316.74,143.33,317.93,143.93Z" transform="translate(-261.56 -115.36)"/><path class="cls-23" d="M330.81,226.82,323,228l-.41-2.36c.07,0,7.84-1.64,7.84-1.64Z" transform="translate(-261.56 -115.36)"/><polygon class="cls-23" points="47.19 110.37 46.86 113.05 39.09 113.05 39.43 109.97 47.19 110.37"/><path class="cls-18" d="M333.29,231.25l-1,1.49a.59.59,0,0,1-.43.25.55.55,0,0,1-.37-.1.56.56,0,0,1-.14-.79l1-1.44Z" transform="translate(-261.56 -115.36)"/><path class="cls-24" d="M323.3,167c-2.66,2.83-13.34,2.79-16.74,2.71a1,1,0,0,1-1-1.07l-.5-7.19,1.4-8.2,3.93.22s3.49.64,2.76,6-.48,5.54.75,6.59,2.19-1.32,5.64-1.14c2.24.12,3.07-1.12,3.34-3.17,0,.24,0,.46,0,.65s0,.11,0,.17C323.12,164.66,324.58,165.72,323.3,167Z" transform="translate(-261.56 -115.36)"/><path class="cls-15" d="M319.53,135.6s2.24,8.8-4.07,8.5c-3.2-.15-5-4.36-4.38-8.9S319.53,135.6,319.53,135.6Z" transform="translate(-261.56 -115.36)"/><path class="cls-25" d="M312.83,139.14s1.41.07.95-2.2c0,0,6.67,2,8.93-4.08l-1.42.21,2.33-1.57s-6.76-.05-9-.44-5.75,2.54-3.48,8Z" transform="translate(-261.56 -115.36)"/><circle class="cls-15" cx="50.08" cy="22.7" r="1.8"/><path class="cls-15" d="M310.3,164.31s6.17,2.73,7.56,2.85,3.47-1.43,4.42-1-1.28,2-1,2.19,4.84,1.86,3.58,3.34-7.61-.91-7.61-.91-10.82-.61-13-4.56S310.3,164.31,310.3,164.31Z" transform="translate(-261.56 -115.36)"/><path class="cls-9" d="M306.68,148s-2.37,1.94-2.81,8a54.22,54.22,0,0,0,.11,10.14s4.8-.18,7.63-2.16c.41-.62.45-5.9-.1-9.95S306.68,148,306.68,148Z" transform="translate(-261.56 -115.36)"/><path class="cls-19" d="M19.12,104.16H33a0,0,0,0,1,0,0v10.27a6.94,6.94,0,0,1-6.94,6.94h0a6.94,6.94,0,0,1-6.94-6.94V104.16a0,0,0,0,1,0,0Z"/><path class="cls-10" d="M304.52,202.41c-11.12,12.31-19.1,5.1-8-7.21S315.64,190.09,304.52,202.41Z" transform="translate(-261.56 -115.36)"/><path class="cls-26" d="M305.53,193c-1.48.29-15.91,14.92-17.86,27" transform="translate(-261.56 -115.36)"/><path class="cls-10" d="M276.39,208c7.33,8.11,12.59,3.36,5.27-4.75S269.07,199.84,276.39,208Z" transform="translate(-261.56 -115.36)"/><path class="cls-26" d="M275.73,201.77c1,.19,10.48,9.84,11.77,17.79" transform="translate(-261.56 -115.36)"/><path class="cls-12" d="M282.35,200.82c3.26,12.54,11.39,10.42,8.13-2.11S279.08,188.28,282.35,200.82Z" transform="translate(-261.56 -115.36)"/><path class="cls-26" d="M285,194c.93.74,5.65,16.08,2.65,25.14" transform="translate(-261.56 -115.36)"/><circle class="cls-21" cx="7.34" cy="58.54" r="6.67"/><circle class="cls-21" cx="176.97" cy="43.26" r="4.52"/><path class="cls-18" d="M348.25,192.85a2.75,2.75,0,0,0,2.59,2.9H351a2.75,2.75,0,1,0-2.75-2.91Z" transform="translate(-261.56 -115.36)"/><path class="cls-18" d="M338,192.15a.89.89,0,1,0,.84.94A.89.89,0,0,0,338,192.15Z" transform="translate(-261.56 -115.36)"/><path class="cls-18" d="M348.08,176.92a.89.89,0,1,0-1.19-.4A.89.89,0,0,0,348.08,176.92Z" transform="translate(-261.56 -115.36)"/><path class="cls-18" d="M350.87,181.78a1.38,1.38,0,0,0,.6-1.85,1.37,1.37,0,0,0-2.45,1.24A1.39,1.39,0,0,0,350.87,181.78Z" transform="translate(-261.56 -115.36)"/><path class="cls-18" d="M341.49,185.12a1.13,1.13,0,1,0-.33-1.57A1.14,1.14,0,0,0,341.49,185.12Z" transform="translate(-261.56 -115.36)"/><path class="cls-18" d="M343.16,191.66a1.36,1.36,0,0,0-1.45,1.29,1.37,1.37,0,1,0,1.45-1.29Z" transform="translate(-261.56 -115.36)"/><path class="cls-18" d="M341.64,200.88a1.12,1.12,0,0,0-.5,1.51,1.13,1.13,0,1,0,.5-1.51Z" transform="translate(-261.56 -115.36)"/><path class="cls-18" d="M347,188.82a1.61,1.61,0,1,0-.46-2.23A1.61,1.61,0,0,0,347,188.82Z" transform="translate(-261.56 -115.36)"/><path class="cls-18" d="M363.88,181.67a1.38,1.38,0,1,0-.39-1.9A1.37,1.37,0,0,0,363.88,181.67Z" transform="translate(-261.56 -115.36)"/><path class="cls-18" d="M366.7,176.82a.88.88,0,1,0-.26-1.23A.89.89,0,0,0,366.7,176.82Z" transform="translate(-261.56 -115.36)"/><path class="cls-18" d="M364.1,190.24a2.74,2.74,0,1,0-.31,5.48H364a2.74,2.74,0,0,0,2-4.58A2.71,2.71,0,0,0,364.1,190.24Z" transform="translate(-261.56 -115.36)"/><path class="cls-18" d="M351.77,188.63a2.74,2.74,0,0,0,2.45,1.51,2.82,2.82,0,0,0,1.24-.29,2.75,2.75,0,0,0-1.24-5.2,2.82,2.82,0,0,0-1.24.29A2.75,2.75,0,0,0,351.77,188.63Z" transform="translate(-261.56 -115.36)"/><path class="cls-18" d="M373.3,185.11a1.13,1.13,0,1,0-1.52-.5A1.12,1.12,0,0,0,373.3,185.11Z" transform="translate(-261.56 -115.36)"/><path class="cls-18" d="M366.33,186a1.61,1.61,0,1,0,2.17.71A1.62,1.62,0,0,0,366.33,186Z" transform="translate(-261.56 -115.36)"/><path class="cls-18" d="M357.37,176.41a1.13,1.13,0,1,0-1.07-1.19A1.13,1.13,0,0,0,357.37,176.41Z" transform="translate(-261.56 -115.36)"/><path class="cls-18" d="M357.35,183.52a1.61,1.61,0,1,0-1.52-1.7A1.62,1.62,0,0,0,357.35,183.52Z" transform="translate(-261.56 -115.36)"/><path class="cls-18" d="M348.61,200a1.61,1.61,0,1,0-2.17-.71A1.62,1.62,0,0,0,348.61,200Z" transform="translate(-261.56 -115.36)"/><path class="cls-18" d="M358.4,185.88a2.74,2.74,0,0,0,.79,3.8,2.77,2.77,0,0,0,1.5.45,2.74,2.74,0,0,0,1.51-5,2.7,2.7,0,0,0-1.5-.46A2.74,2.74,0,0,0,358.4,185.88Z" transform="translate(-261.56 -115.36)"/><path class="cls-18" d="M363.17,197.36a2.74,2.74,0,0,0-2.45-1.51,2.79,2.79,0,0,0-1.24.29,2.75,2.75,0,0,0,1.24,5.2,2.82,2.82,0,0,0,1.24-.29A2.75,2.75,0,0,0,363.17,197.36Z" transform="translate(-261.56 -115.36)"/><path class="cls-18" d="M368,197.17a1.61,1.61,0,1,0-1.77,2.7,1.61,1.61,0,0,0,1.77-2.7Z" transform="translate(-261.56 -115.36)"/><path class="cls-18" d="M373.23,193a1.37,1.37,0,1,0-2.74-.15,1.37,1.37,0,0,0,2.74.15Z" transform="translate(-261.56 -115.36)"/><path class="cls-18" d="M377,192.07a.89.89,0,1,0,.83.93A.87.87,0,0,0,377,192.07Z" transform="translate(-261.56 -115.36)"/><path class="cls-18" d="M373.45,200.87a1.13,1.13,0,1,0,.33,1.57A1.14,1.14,0,0,0,373.45,200.87Z" transform="translate(-261.56 -115.36)"/><path class="cls-18" d="M348.24,209.17a.88.88,0,1,0,.26,1.23A.89.89,0,0,0,348.24,209.17Z" transform="translate(-261.56 -115.36)"/><path class="cls-18" d="M366.86,209.07a.89.89,0,0,0,.8,1.59.89.89,0,0,0-.8-1.59Z" transform="translate(-261.56 -115.36)"/><path class="cls-18" d="M356.54,200.11a2.75,2.75,0,0,0-.79-3.8,2.75,2.75,0,1,0-1.51,5.05A2.74,2.74,0,0,0,356.54,200.11Z" transform="translate(-261.56 -115.36)"/><path class="cls-18" d="M351.06,204.32a1.38,1.38,0,1,0,.39,1.9A1.38,1.38,0,0,0,351.06,204.32Z" transform="translate(-261.56 -115.36)"/><path class="cls-18" d="M357.46,209.58a1.13,1.13,0,1,0,1.06,1.19A1.14,1.14,0,0,0,357.46,209.58Z" transform="translate(-261.56 -115.36)"/><path class="cls-18" d="M357.47,202.47a1.61,1.61,0,1,0,1.52,1.7A1.61,1.61,0,0,0,357.47,202.47Z" transform="translate(-261.56 -115.36)"/><path class="cls-18" d="M364.07,204.21a1.38,1.38,0,1,0,1.85.61A1.38,1.38,0,0,0,364.07,204.21Z" transform="translate(-261.56 -115.36)"/></g></g></svg>