<svg xmlns="http://www.w3.org/2000/svg" viewBox="0 0 179.36 116.45"><defs><style>.cls-1{isolation:isolate;}.cls-17,.cls-2{fill:#dcf0fb;}.cls-2{opacity:0.64;}.cls-3{fill:#acd8f1;}.cls-4{fill:#0e9bd7;}.cls-15,.cls-18,.cls-5{fill:#fff;}.cls-6{fill:#f0b3b2;}.cls-7{fill:#68ade0;}.cls-8{fill:#e69ec5;opacity:0.76;}.cls-12,.cls-8{mix-blend-mode:color-burn;}.cls-9{fill:#1b1d3c;}.cls-10{fill:#ef7c97;}.cls-11,.cls-12{fill:#010101;}.cls-12{opacity:0.11;}.cls-13{fill:#f7a711;}.cls-14{fill:#1a1b39;}.cls-15{opacity:0.19;}.cls-16{fill:#9dcde2;}.cls-18{opacity:0.2;}.cls-19{fill:#34ac5e;}.cls-20{fill:#282929;}.cls-21{fill:#b3d06a;}</style></defs><g class="cls-1"><g id="Layer_1" data-name="Layer 1"><path class="cls-2" d="M430.31,235.51c15.51-50,10.62-67.38,2.35-73.46-14.21-10.46-36.58,13.69-68.39,4.29-27-8-28.55-30.57-50-31.65-19.53-1-44.48,16.4-49.24,43.38a53,53,0,0,0,30.87,57.44Z" transform="translate(-262.28 -119.06)"/><rect class="cls-3" x="7.03" y="113.32" width="164.9" height="3.13"/><rect class="cls-3" x="87.05" y="69.95" width="4.39" height="42.98"/><path class="cls-4" d="M87.22,107.83h4.52a5.49,5.49,0,0,1,5.49,5.49v0a0,0,0,0,1,0,0H81.73a0,0,0,0,1,0,0v0A5.49,5.49,0,0,1,87.22,107.83Z"/><rect class="cls-4" x="38.16" width="104.6" height="72.29"/><rect class="cls-5" x="41.69" y="3.63" width="97.53" height="65.02"/><polygon class="cls-6" points="148.4 107.52 147.75 103.2 152.74 103.24 152.71 107.55 152.25 108.91 148.84 109.33 148.4 107.52"/><path class="cls-7" d="M422.68,232.81l-12.7-.09c0-.12,0-.6-.06-1.25-.1-1.81-.24-4.94.1-5.1a1.08,1.08,0,0,1,.91,0,1.69,1.69,0,0,0,2,1.38c1.82-.22,2.06-1.8,2.28-1.8s0,0,.45.46l.79.61.91.67.29.2.93.66c1.59,1.12,3.24,2.27,3.63,2.67l.09.1A1.8,1.8,0,0,1,422.68,232.81Z" transform="translate(-262.28 -119.06)"/><path class="cls-8" d="M422.68,232.81l-12.7-.09c0-.12,0-.6-.06-1.25l12.41-.15A1.8,1.8,0,0,1,422.68,232.81Z" transform="translate(-262.28 -119.06)"/><path class="cls-5" d="M417.39,227.69l-1.27,1.57a.56.56,0,0,1-.8.08.56.56,0,0,1-.08-.8l1.24-1.52Z" transform="translate(-262.28 -119.06)"/><path class="cls-5" d="M418.61,228.55l-1.14,1.4a.56.56,0,0,1-.44.21.61.61,0,0,1-.36-.13.58.58,0,0,1-.08-.8l1.09-1.34Z" transform="translate(-262.28 -119.06)"/><polygon class="cls-6" points="131.66 107.06 132.31 102.75 127.31 102.78 127.35 107.09 127.81 108.45 131.22 108.88 131.66 107.06"/><path class="cls-7" d="M382,232.35l12.7-.09c0-.12,0-.59.06-1.24.09-1.81.23-4.94-.11-5.11a1.09,1.09,0,0,0-.9,0,1.69,1.69,0,0,1-2,1.37c-1.81-.21-2.05-1.8-2.28-1.8s0,0-.45.46c-.2.17-.46.38-.78.61s-.58.44-.91.67l-.29.21-.93.66c-1.59,1.12-3.24,2.27-3.63,2.66l-.1.11A1.79,1.79,0,0,0,382,232.35Z" transform="translate(-262.28 -119.06)"/><path class="cls-8" d="M382,232.35l12.7-.09c0-.12,0-.59.06-1.24l-12.42-.15A1.79,1.79,0,0,0,382,232.35Z" transform="translate(-262.28 -119.06)"/><path class="cls-5" d="M387.24,227.23l1.27,1.57a.56.56,0,0,0,.44.21.6.6,0,0,0,.36-.12.57.57,0,0,0,.08-.8l-1.24-1.53C387.88,226.77,387.56,227,387.24,227.23Z" transform="translate(-262.28 -119.06)"/><path class="cls-5" d="M386,228.1l1.13,1.39a.58.58,0,0,0,.45.21.56.56,0,0,0,.43-.92L387,227.44Z" transform="translate(-262.28 -119.06)"/><path class="cls-9" d="M392.51,171.34l-3.66,52.9,7.71,1.67L401.1,182s1.36-7.92.45-9.82S392.51,171.34,392.51,171.34Z" transform="translate(-262.28 -119.06)"/><path class="cls-9" d="M411.15,171.25l5.15,53.23-7,.71-4.77-25.9-3.33-13.94a36.27,36.27,0,0,1-1-8.37v-4.07Z" transform="translate(-262.28 -119.06)"/><path class="cls-5" d="M391.12,169.65v2.5a39.56,39.56,0,0,0,20-.23s.91-19.51-3.86-24.27-7.37-3-7.37-3h-1.93L393.84,149Z" transform="translate(-262.28 -119.06)"/><path class="cls-3" d="M395.32,145.57c-.23,0-6.58,3.78-6.81,14.44s3.74,14.18,3.74,14.18l.68-4.54Z" transform="translate(-262.28 -119.06)"/><path class="cls-10" d="M403.37,143.56s-.91,3.18-3.63,3.41c-1.63.13-1.88-.71-1.81-1.4a2.4,2.4,0,0,1,.06-.4,3.27,3.27,0,0,1,.16-.47v-2l3.46-2.72.23-.18.14.36Z" transform="translate(-262.28 -119.06)"/><path class="cls-8" d="M402,140.12a6,6,0,0,1-4.05,5.45,2.4,2.4,0,0,1,.06-.4,3.27,3.27,0,0,1,.16-.47v-2l3.46-2.72.23-.18Z" transform="translate(-262.28 -119.06)"/><path class="cls-6" d="M394.52,135.62s-2.64,8.62,3.63,8.62c3.18,0,5.22-4.08,4.76-8.62S394.52,135.62,394.52,135.62Z" transform="translate(-262.28 -119.06)"/><path class="cls-11" d="M400.31,136.19c-5.45.91-7-.45-7.94-1.81s.22-3.63,2.72-2.27c0,0,6.12-3.63,9.3,1.13,1.81,3.18-.46,7-2.5,7.26l-.45-3.17-1.13,1.58Z" transform="translate(-262.28 -119.06)"/><circle class="cls-6" cx="139.27" cy="19.96" r="1.7"/><path class="cls-4" d="M411.38,168.49c0,1.14-.07,1.84-.07,1.84s-7.26,1.36-11.12,0V146.9a5.26,5.26,0,0,0,3.18-3.56s5.9,2.27,7.26,7.71a18.21,18.21,0,0,1,.34,1.85C411.64,157.56,411.49,165,411.38,168.49Z" transform="translate(-262.28 -119.06)"/><path class="cls-12" d="M411.31,170.33s-7.26,1.36-11.12,0v-2.15c3.3.57,4.23.54,6.35-3.29,2.27-4.09,2.73-12.25,2.73-12.25l1.7.26C411.86,159.11,411.31,170.33,411.31,170.33Z" transform="translate(-262.28 -119.06)"/><path class="cls-3" d="M411.38,168.49c0,1.14-.07,1.84-.07,1.84s-7.26,1.36-11.12,0v-1.91C402,169,405.51,169.62,411.38,168.49Z" transform="translate(-262.28 -119.06)"/><path class="cls-3" d="M403.37,143.34s7.94.68,10.66,7.94.45,20.87-3.4,23.13a16.08,16.08,0,0,1-3.86-2s2.27-7.26,2.5-12.25S407.22,146.51,403.37,143.34Z" transform="translate(-262.28 -119.06)"/><path class="cls-4" d="M398.15,144.7l-.23.79v25.07s-3.85,1.36-7,.45l-.45-1.36a.25.25,0,0,1-.1,0c-.22-.12-.66-.7-.13-3.37.41-2,.33-6.9.88-11.36.36-3,1-5.83,2.3-7.47,2.26-2.95,4.53-2.72,4.53-2.72Z" transform="translate(-262.28 -119.06)"/><path class="cls-12" d="M397.92,168.53v2s-3.85,1.36-7,.45l-.45-1.36a.25.25,0,0,1-.1,0c-.22-.12-.66-.7-.13-3.37.41-2,.33-6.9.88-11.36,0,3.21,0,8.92.48,10.68.68,2.49,0,3.63,1.82,4.08C394.91,170,396.11,168.5,397.92,168.53Z" transform="translate(-262.28 -119.06)"/><path class="cls-3" d="M397.92,168.65v1.91s-3.85,1.36-7,.45l-.45-1.36a.25.25,0,0,1-.1,0A67.76,67.76,0,0,0,397.92,168.65Z" transform="translate(-262.28 -119.06)"/><path class="cls-6" d="M409.51,176.27a4.64,4.64,0,0,0,1.12-2.31c1.13-5-3.18-1.81-3.18-1.81a7.23,7.23,0,0,0-1.33,2A5.65,5.65,0,0,0,409.51,176.27Z" transform="translate(-262.28 -119.06)"/><path class="cls-5" d="M410.17,176.57c-2.52,0-4.32-2.44-4.4-2.54a.11.11,0,0,1,0-.16.1.1,0,0,1,.15,0s1.82,2.45,4.22,2.45a.12.12,0,0,1,.12.12A.11.11,0,0,1,410.17,176.57Z" transform="translate(-262.28 -119.06)"/><path class="cls-4" d="M338.34,154.46a3.94,3.94,0,0,0,3.7,4.15h.23a3.93,3.93,0,1,0-3.93-4.16Z" transform="translate(-262.28 -119.06)"/><path class="cls-4" d="M323.69,153.46a1.27,1.27,0,0,0-.15,2.54,1.27,1.27,0,1,0,.15-2.54Z" transform="translate(-262.28 -119.06)"/><path class="cls-4" d="M338.09,131.66a1.27,1.27,0,1,0-1.71-.57A1.27,1.27,0,0,0,338.09,131.66Z" transform="translate(-262.28 -119.06)"/><path class="cls-4" d="M342.08,138.61a2,2,0,1,0-2.64-.87A2,2,0,0,0,342.08,138.61Z" transform="translate(-262.28 -119.06)"/><path class="cls-4" d="M328.66,143.39a1.62,1.62,0,1,0-.46-2.24A1.62,1.62,0,0,0,328.66,143.39Z" transform="translate(-262.28 -119.06)"/><path class="cls-4" d="M331.05,152.75a2,2,0,1,0,1.85,2.07A2,2,0,0,0,331.05,152.75Z" transform="translate(-262.28 -119.06)"/><path class="cls-4" d="M328.88,165.94a1.62,1.62,0,1,0,2.17.72A1.63,1.63,0,0,0,328.88,165.94Z" transform="translate(-262.28 -119.06)"/><path class="cls-4" d="M336.5,148.69a2.31,2.31,0,1,0-.66-3.19A2.31,2.31,0,0,0,336.5,148.69Z" transform="translate(-262.28 -119.06)"/><path class="cls-4" d="M360.71,138.45a2,2,0,1,0-.57-2.71A2,2,0,0,0,360.71,138.45Z" transform="translate(-262.28 -119.06)"/><path class="cls-4" d="M364.74,131.52a1.25,1.25,0,0,0,1.75-.36,1.27,1.27,0,1,0-1.75.36Z" transform="translate(-262.28 -119.06)"/><path class="cls-4" d="M361,150.72a3.93,3.93,0,1,0-.45,7.85h.22a3.93,3.93,0,0,0,2.93-6.55A3.86,3.86,0,0,0,361,150.72Z" transform="translate(-262.28 -119.06)"/><path class="cls-4" d="M343.37,148.42a3.93,3.93,0,0,0,5.28,1.74,3.93,3.93,0,0,0-1.77-7.44,4,4,0,0,0-1.77.42A3.94,3.94,0,0,0,343.37,148.42Z" transform="translate(-262.28 -119.06)"/><path class="cls-4" d="M374.18,143.39a1.62,1.62,0,1,0-2.17-.72A1.62,1.62,0,0,0,374.18,143.39Z" transform="translate(-262.28 -119.06)"/><path class="cls-4" d="M364.21,144.64a2.31,2.31,0,0,0,2.08,4.13,2.31,2.31,0,1,0-2.08-4.13Z" transform="translate(-262.28 -119.06)"/><path class="cls-4" d="M351.38,130.93a1.62,1.62,0,1,0-1.52-1.7A1.62,1.62,0,0,0,351.38,130.93Z" transform="translate(-262.28 -119.06)"/><path class="cls-4" d="M351.36,141.11a2.31,2.31,0,1,0-2.17-2.44A2.32,2.32,0,0,0,351.36,141.11Z" transform="translate(-262.28 -119.06)"/><path class="cls-4" d="M338.84,164.69a2.31,2.31,0,1,0-3.1-1A2.31,2.31,0,0,0,338.84,164.69Z" transform="translate(-262.28 -119.06)"/><path class="cls-4" d="M352.86,144.48a3.91,3.91,0,1,0,3.29-1.78A3.92,3.92,0,0,0,352.86,144.48Z" transform="translate(-262.28 -119.06)"/><path class="cls-4" d="M359.69,160.91a3.93,3.93,0,1,0-3.51,5.7,4,4,0,0,0,1.77-.42A4,4,0,0,0,359.69,160.91Z" transform="translate(-262.28 -119.06)"/><path class="cls-4" d="M366.55,160.64a2.31,2.31,0,1,0,.67,3.19A2.32,2.32,0,0,0,366.55,160.64Z" transform="translate(-262.28 -119.06)"/><path class="cls-4" d="M374.08,154.73a2,2,0,1,0-2.07,1.85A2,2,0,0,0,374.08,154.73Z" transform="translate(-262.28 -119.06)"/><path class="cls-4" d="M379.51,153.34a1.27,1.27,0,1,0,1.2,1.34A1.27,1.27,0,0,0,379.51,153.34Z" transform="translate(-262.28 -119.06)"/><path class="cls-4" d="M374.4,165.94a1.62,1.62,0,1,0,.46,2.24A1.62,1.62,0,0,0,374.4,165.94Z" transform="translate(-262.28 -119.06)"/><path class="cls-4" d="M338.32,177.81a1.27,1.27,0,1,0,.37,1.76A1.27,1.27,0,0,0,338.32,177.81Z" transform="translate(-262.28 -119.06)"/><path class="cls-4" d="M365,177.67a1.27,1.27,0,1,0,1.14,2.27,1.27,1.27,0,0,0-1.14-2.27Z" transform="translate(-262.28 -119.06)"/><path class="cls-4" d="M350.2,164.85a3.84,3.84,0,0,0,.56-2.95,3.93,3.93,0,1,0-7.69,1.6,3.94,3.94,0,0,0,3.84,3.13A3.91,3.91,0,0,0,350.2,164.85Z" transform="translate(-262.28 -119.06)"/><path class="cls-4" d="M342.35,170.88a2,2,0,1,0,.57,2.72A2,2,0,0,0,342.35,170.88Z" transform="translate(-262.28 -119.06)"/><path class="cls-4" d="M351.51,178.4a1.62,1.62,0,1,0,1.52,1.71A1.62,1.62,0,0,0,351.51,178.4Z" transform="translate(-262.28 -119.06)"/><path class="cls-4" d="M351.53,168.22a2.31,2.31,0,1,0,2.17,2.44A2.32,2.32,0,0,0,351.53,168.22Z" transform="translate(-262.28 -119.06)"/><path class="cls-4" d="M361,170.72a2,2,0,1,0,2.64.87A2,2,0,0,0,361,170.72Z" transform="translate(-262.28 -119.06)"/><path class="cls-11" d="M307.84,142.47a1.88,1.88,0,0,1-.13.49c-.56,1.32-3.08,2.12-4.35-1l-.14-.13a2.12,2.12,0,0,0-.85-.35c-.88-.2-2-.28-2.61-1.33a5.33,5.33,0,0,1,.19-4.68,1.31,1.31,0,0,1,1.68-.47s-.33,1.52,1,1.86,1.74.54,1.8,1.39c0,.29,0,.61,0,.91a1.06,1.06,0,0,0,.5,1,1.92,1.92,0,0,0,.7.18A2.16,2.16,0,0,1,307.84,142.47Z" transform="translate(-262.28 -119.06)"/><path class="cls-11" d="M294.41,137a13,13,0,0,1-.06,1.41c-.2.22-.88-.38-1.9.54-.8.74-.44.58-1.22.77-.2,0-.47.11-.86.22a1.34,1.34,0,0,0-.57.33c-1,1-.37,3.46-4.16,2.76a1.84,1.84,0,0,1-1.21-.95c-.73-1.45.49-3.91,3.7-4a2.45,2.45,0,0,0,.38,0,2.4,2.4,0,0,0,1.1-.53l.19-.19c1-1.1,1.15-2.61,2.89-3.08C294.1,133.92,294.39,135.69,294.41,137Z" transform="translate(-262.28 -119.06)"/><path class="cls-13" d="M291.23,139.76c-.2,0-.47.11-.86.22a1.34,1.34,0,0,0-.57.33c-.44-.81-1-1.73-1.29-2.21a2.4,2.4,0,0,0,1.1-.53C290,138.15,290.63,139,291.23,139.76Z" transform="translate(-262.28 -119.06)"/><path class="cls-13" d="M304.91,140.13c-.51.53-1.22,1.25-1.69,1.69a2.12,2.12,0,0,0-.85-.35l2-2.32A1.06,1.06,0,0,0,304.91,140.13Z" transform="translate(-262.28 -119.06)"/><polygon class="cls-6" points="43.8 107.31 42.86 103.3 47.55 102.96 47.85 107.01 47.52 108.32 44.35 108.98 43.8 107.31"/><path class="cls-7" d="M317.82,231.32l-11.95.87c0-.11-.07-.56-.15-1.16-.22-1.7-.58-4.63-.28-4.81a1,1,0,0,1,.85-.07,1.6,1.6,0,0,0,2,1.14c1.69-.33,1.79-1.84,2-1.86s0,0,.45.4c.2.14.47.32.78.51l.91.57.29.17.92.55c1.59.93,3.22,1.89,3.62,2.23l.09.09A1.67,1.67,0,0,1,317.82,231.32Z" transform="translate(-262.28 -119.06)"/><path class="cls-8" d="M317.82,231.32l-11.95.87c0-.11-.07-.56-.15-1.16L317.38,230A1.67,1.67,0,0,1,317.82,231.32Z" transform="translate(-262.28 -119.06)"/><path class="cls-5" d="M312.46,226.91l-1.08,1.57a.51.51,0,0,1-.4.23.5.5,0,0,1-.34-.1.54.54,0,0,1-.14-.74l1.06-1.53Z" transform="translate(-262.28 -119.06)"/><path class="cls-5" d="M313.67,227.63l-1,1.39a.51.51,0,0,1-.4.23.52.52,0,0,1-.34-.09.52.52,0,0,1-.14-.74l.92-1.34Z" transform="translate(-262.28 -119.06)"/><polygon class="cls-6" points="25.05 107.57 26.18 103.62 21.51 103.05 21.01 107.08 21.28 108.41 24.41 109.22 25.05 107.57"/><path class="cls-7" d="M275.36,231l11.89,1.45c0-.11.1-.56.21-1.15.3-1.69.81-4.6.52-4.79a1,1,0,0,0-.85-.11,1.59,1.59,0,0,1-2.07,1c-1.67-.42-1.7-1.93-1.91-2s0,0-.48.38c-.21.13-.48.29-.81.47s-.59.34-.93.52l-.3.16-.94.5c-1.63.86-3.31,1.73-3.72,2l-.1.09A1.68,1.68,0,0,0,275.36,231Z" transform="translate(-262.28 -119.06)"/><path class="cls-8" d="M275.36,231l11.89,1.45c0-.11.1-.56.21-1.15l-11.59-1.65A1.68,1.68,0,0,0,275.36,231Z" transform="translate(-262.28 -119.06)"/><path class="cls-5" d="M280.93,226.86l1,1.62a.51.51,0,0,0,.39.25.53.53,0,0,0,.52-.81l-1-1.58Z" transform="translate(-262.28 -119.06)"/><path class="cls-5" d="M279.27,227.7l.87,1.46a.51.51,0,0,0,.38.26.61.61,0,0,0,.35-.07.53.53,0,0,0,.18-.73l-.83-1.4Z" transform="translate(-262.28 -119.06)"/><polygon class="cls-14" points="49.16 105.38 42.13 105.94 41.75 103.71 35.54 67.05 34.42 60.42 32.42 51.57 43.94 50.65 48.82 101.74 49.16 105.38"/><polygon class="cls-14" points="40.2 48.37 39.51 51.01 37.13 60.13 35.54 67.05 27.27 102.95 26.7 105.46 19.64 104.06 20.11 100.13 25.91 50.57 40.2 48.37"/><path class="cls-9" d="M285.89,148.73s-5.8,10-5.65,15.79,6.8,5.79,8.91,5.22S293.43,149.33,285.89,148.73Z" transform="translate(-262.28 -119.06)"/><path class="cls-10" d="M301,143.92l.1,1.71L297,147.39a1.61,1.61,0,0,1-2.56.16,6.3,6.3,0,0,1-1.67-2.68,13,13,0,0,0,2.26-3.39,4.82,4.82,0,0,0,.42-1.71l3.85,0a6.61,6.61,0,0,0,.32,1.41A10,10,0,0,0,301,143.92Z" transform="translate(-262.28 -119.06)"/><path class="cls-8" d="M299.57,141.15a2.55,2.55,0,0,1-2.46,1.94,2.17,2.17,0,0,1-2.13-1.61,4.82,4.82,0,0,0,.42-1.71l3.85,0A6.61,6.61,0,0,0,299.57,141.15Z" transform="translate(-262.28 -119.06)"/><path class="cls-15" d="M307.84,142.47a1.88,1.88,0,0,1-.13.49c-.56,1.32-3.08,2.12-4.35-1l-.14-.13a2.12,2.12,0,0,0-.85-.35c-.88-.2-2-.28-2.61-1.33a5.33,5.33,0,0,1,.19-4.68c-.16,1.19-.21,3.52,1.62,3.71,2.59.26,2.35,3.28,4.53,3.78A2,2,0,0,0,307.84,142.47Z" transform="translate(-262.28 -119.06)"/><path class="cls-15" d="M294.41,137a13,13,0,0,1-.06,1.41c-.2.22-.88-.38-1.9.54-.8.74-.44.58-1.22.77-.2,0-.47.11-.86.22a1.34,1.34,0,0,0-.57.33c-1,1-.37,3.46-4.16,2.76a1.84,1.84,0,0,1-1.21-.95c3.05,1,3-2.27,4.54-2.37,1.7-.11,2.08-1,2.85-2.32C292.28,136.62,293.51,136.78,294.41,137Z" transform="translate(-262.28 -119.06)"/><path class="cls-6" d="M297.21,141.37c3.42-.06,4-4.32,3.65-6.66a3,3,0,0,0-2.31-2.64l-5.91,1.45S292.5,141.46,297.21,141.37Z" transform="translate(-262.28 -119.06)"/><path class="cls-11" d="M298.72,133s.14,2.13-2.64,2.31-3.79,1.09-3.79,1.09-1.07-3.36.53-5.17,5.34-1.95,6.63-.21a2.83,2.83,0,0,1,2.95,2.6c.39,2.76-1.46,2.88-1.46,2.88S298.63,135,298.72,133Z" transform="translate(-262.28 -119.06)"/><path class="cls-13" d="M306.83,171.41c0,.64-16.15,2.31-18.14,1.36s0-2.79-.31-8.34-2.19-17.65-2.21-18.07c0-.13.35-.4,1-.74a26.66,26.66,0,0,1,6.93-2.47s.78,1.59,3.34,1.42,2.77-1.87,2.95-1.67,4.29.79,5.45,2.22.13,15.63.14,19.28c0,.35,0,.7,0,1A42.22,42.22,0,0,0,306.83,171.41Z" transform="translate(-262.28 -119.06)"/><path class="cls-9" d="M287.57,169.6l-.27-.39a.41.41,0,0,1,.08-.54c3.56-3,5.49-14.75,1.16-23.66a.41.41,0,0,1,.18-.54l.42-.21a.43.43,0,0,1,.16,0,.41.41,0,0,1,.39.23c4.35,9,2.84,21.63-1.52,25.24A.41.41,0,0,1,287.57,169.6Z" transform="translate(-262.28 -119.06)"/><path class="cls-13" d="M309.35,152.07s-.19.32-.52.78a12.23,12.23,0,0,1-2.52,2.67,4.39,4.39,0,0,1-.78.44l-.34-11.38S308.15,146.58,309.35,152.07Z" transform="translate(-262.28 -119.06)"/><path class="cls-9" d="M306.19,163h-.46a.41.41,0,0,1-.4-.4c0-1.58-.35-5.48-.7-9.58-.27-3.15-.55-6.41-.71-8.93a.39.39,0,0,1,.1-.3.42.42,0,0,1,.28-.14l.47,0a.42.42,0,0,1,.43.39c.16,2.51.44,5.75.71,8.9.36,4.3.68,8.06.7,9.69A.4.4,0,0,1,306.19,163Z" transform="translate(-262.28 -119.06)"/><polygon class="cls-16" points="30.48 32.13 44.65 31.23 44.88 32.29 42.95 49.13 28.86 50.13 30.48 32.13"/><polygon class="cls-17" points="31.65 33.13 44.88 32.29 42.95 49.13 30.14 49.94 31.65 33.13"/><path class="cls-6" d="M310.26,161.34c-.17.77-6.64,1.94-10.64,2.49l-2.18.28-.4,0,8.16-6.68,1.11-2a12.23,12.23,0,0,0,2.52-2.67C309.55,155.23,310.68,159.49,310.26,161.34Z" transform="translate(-262.28 -119.06)"/><path class="cls-8" d="M309.08,156.27c.17,2.56-1.93,3.34-3.6,4.08-1.26.57-3.92,2.33-5.86,3.48l-2.18.28-.4,0,8.16-6.68,1.94-3.44C307.75,154.07,309,154.36,309.08,156.27Z" transform="translate(-262.28 -119.06)"/><path class="cls-6" d="M285.22,156.81s3,7.1,4.45,9.36,15.23-6.53,15.23-6.53,2.74-.82,3.5-2.36,0-3.22-1.49-3.13-2.22,2.07-2.22,2.07.56-1.32-.08-1.28-1.19,1.58-1.12,2.65c0,0-10.07,3.42-10.49,3.66s-2.58-6.91-3-7.52Z" transform="translate(-262.28 -119.06)"/><path class="cls-13" d="M286.27,146.24s-2.83,2.75-2.28,8.08a13.82,13.82,0,0,0,1.06,3.15s4-.9,5.33-3.77C290.38,153.7,288.63,146.31,286.27,146.24Z" transform="translate(-262.28 -119.06)"/><polygon class="cls-18" points="19.9 101.71 27.27 102.95 26.7 105.46 19.64 104.06 19.9 101.71"/><polygon class="cls-18" points="49.22 105.38 42.19 105.94 41.81 103.7 48.96 102.82 49.22 105.38"/><path class="cls-9" d="M420.26,233h-1.71a6.09,6.09,0,0,1-6.09-6.09V215.76h13.89v11.12A6.09,6.09,0,0,1,420.26,233Z" transform="translate(-262.28 -119.06)"/><path class="cls-19" d="M436.3,198.65c-11.12,12.31-19.11,5.1-8-7.22S447.42,186.33,436.3,198.65Z" transform="translate(-262.28 -119.06)"/><path class="cls-20" d="M419.45,216.36h0a.1.1,0,0,1-.08-.11c1.93-12,16.39-26.77,17.94-27.08a.1.1,0,0,1,.12.08.11.11,0,0,1-.08.12c-1.54.3-15.86,15-17.79,26.91A.08.08,0,0,1,419.45,216.36Z" transform="translate(-262.28 -119.06)"/><path class="cls-19" d="M408.17,204.19c7.33,8.11,12.59,3.36,5.27-4.75S400.85,196.08,408.17,204.19Z" transform="translate(-262.28 -119.06)"/><path class="cls-20" d="M419.28,215.9a.11.11,0,0,1-.1-.09c-1.26-7.83-10.68-17.5-11.69-17.7a.1.1,0,0,1-.08-.12.09.09,0,0,1,.11-.07c1,.2,10.58,10,11.85,17.86a.09.09,0,0,1-.08.11Z" transform="translate(-262.28 -119.06)"/><path class="cls-21" d="M414.12,197.06c3.27,12.54,11.4,10.42,8.14-2.12S410.86,184.52,414.12,197.06Z" transform="translate(-262.28 -119.06)"/><path class="cls-20" d="M419.45,215.44h0a.09.09,0,0,1-.06-.12c2.95-8.93-1.66-24.27-2.62-25a.1.1,0,0,1,0-.14.09.09,0,0,1,.13,0c1,.77,5.66,16.25,2.68,25.24A.1.1,0,0,1,419.45,215.44Z" transform="translate(-262.28 -119.06)"/><path class="cls-9" d="M278.58,232.58H277a5.74,5.74,0,0,1-5.74-5.74V216.37h13.09v10.47A5.74,5.74,0,0,1,278.58,232.58Z" transform="translate(-262.28 -119.06)"/><path class="cls-19" d="M293.69,200.25c-10.47,11.6-18,4.8-7.52-6.79S304.16,188.65,293.69,200.25Z" transform="translate(-262.28 -119.06)"/><path class="cls-20" d="M277.82,216.94h0a.08.08,0,0,1-.07-.1c1.82-11.27,15.43-25.22,16.9-25.5a.09.09,0,0,1,.1.07.09.09,0,0,1-.07.11c-1.45.28-14.94,14.14-16.75,25.35A.11.11,0,0,1,277.82,216.94Z" transform="translate(-262.28 -119.06)"/><path class="cls-19" d="M267.2,205.47c6.9,7.64,11.85,3.17,4.95-4.48S260.3,197.83,267.2,205.47Z" transform="translate(-262.28 -119.06)"/><path class="cls-20" d="M277.66,216.5a.11.11,0,0,1-.1-.08c-1.19-7.37-10.05-16.49-11-16.68a.09.09,0,1,1,0-.18c1,.19,10,9.39,11.16,16.83a.11.11,0,0,1-.08.11Z" transform="translate(-262.28 -119.06)"/><path class="cls-21" d="M272.8,198.76c3.08,11.81,10.74,9.81,7.66-2S269.73,187,272.8,198.76Z" transform="translate(-262.28 -119.06)"/><path class="cls-20" d="M277.82,216.07h0a.09.09,0,0,1-.06-.12c2.78-8.41-1.56-22.85-2.46-23.57a.09.09,0,0,1,0-.13.1.1,0,0,1,.13,0c.92.73,5.33,15.31,2.53,23.78A.11.11,0,0,1,277.82,216.07Z" transform="translate(-262.28 -119.06)"/><circle class="cls-4" cx="4.49" cy="55.29" r="4.49"/><circle class="cls-4" cx="7.42" cy="47.28" r="2.34"/><circle class="cls-13" cx="175.26" cy="56.07" r="3.71"/><circle class="cls-13" cx="173.69" cy="47.48" r="2.15"/></g></g></svg>