<?xml version="1.0" encoding="utf-8"?>
<!-- Generator: Adobe Illustrator 25.0.0, SVG Export Plug-In . SVG Version: 6.00 Build 0)  -->
<svg version="1.1" id="Layer_28" xmlns="http://www.w3.org/2000/svg" xmlns:xlink="http://www.w3.org/1999/xlink" x="0px" y="0px"
	 width="705.6px" height="808.3px" viewBox="0 0 705.6 808.3" style="enable-background:new 0 0 705.6 808.3;" xml:space="preserve"
	>
<style type="text/css">
	.st0{opacity:0.1;fill:#44BBA4;enable-background:new    ;}
	.st1{fill:#0033AD;}
	.st2{fill:#FF5553;}
	.st3{fill:#44BBA4;}
	.st4{fill:#FCDFA6;}
	.st5{fill:#232323;}
	.st6{fill:none;stroke:#FFFFFF;stroke-width:2.5;stroke-miterlimit:10;}
	.st7{fill:#FFFFFF;}
</style>
<path class="st0" d="M371.2,790.5l-1.7-773l0,0c0-9.3-7.3-17-16.6-17.5c-3.4-0.2-6.8,0.6-9.8,2.3l0,0L8.8,196.4l0,0
	c-2.3,1.3-4.3,3.2-5.8,5.5c-1.9,2.8-2.9,6.2-2.9,9.6l0,0L1,598l0,0c0,2.7,0.7,5.4,1.9,7.8c1.5,3.1,3.9,5.6,6.9,7.3l0,0l335.1,192.5
	l0,0c2.3,1.4,5,2.2,7.7,2.3c9.7,0.5,18-6.9,18.6-16.6L371.2,790.5L371.2,790.5z"/>
<path class="st1" d="M369.5,18.6c0.6-9.7-6.8-18.1-16.5-18.7c-9.7-0.6-18.1,6.8-18.7,16.5c-0.6,9.7,6.8,18.1,16.5,18.7
	c0,0,0.1,0,0.1,0c9.6,0.6,17.9-6.6,18.6-16.2C369.5,18.8,369.5,18.7,369.5,18.6z"/>
<path class="st1" d="M673.2,587c-5.3,8.1-3.1,19.1,5.1,24.4c8.1,5.3,19.1,3.1,24.4-5.1s3.1-19.1-5.1-24.4c0,0,0,0,0,0
	C689.4,576.6,678.5,578.9,673.2,587z"/>
<path class="st2" d="M673.2,199.7c-5.3,8.1-3.1,19.1,5.1,24.4c8.1,5.3,19.1,3.1,24.4-5.1c5.3-8.1,3.1-19.1-5.1-24.4c0,0,0,0,0,0
	C689.4,189.3,678.5,191.6,673.2,199.7z"/>
<path class="st3" d="M371.2,791.6c0.6-9.7-6.9-18-16.6-18.6c-9.7-0.6-18,6.9-18.6,16.6c-0.6,9.7,6.9,18.1,16.6,18.6c0,0,0,0,0,0
	C362.3,808.7,370.6,801.3,371.2,791.6z"/>
<path class="st4" d="M32.4,221.2c5.4-8.1,3.1-19.1-5-24.4c-8.1-5.4-19.1-3.1-24.4,5c-5.4,8.1-3.1,19.1,5,24.4c0,0,0,0,0,0
	C16.1,231.6,27,229.3,32.4,221.2z"/>
<path class="st2" d="M34.2,590.2c-4.4-8.7-14.9-12.2-23.6-7.8c-8.7,4.4-12.2,14.9-7.8,23.6c4.4,8.7,14.9,12.2,23.6,7.8c0,0,0,0,0,0
	C35,609.5,38.6,599,34.2,590.2C34.2,590.3,34.2,590.3,34.2,590.2z"/>
<ellipse class="st5" cx="489" cy="553.6" rx="85.4" ry="28.4"/>
<rect x="159.2" y="417.1" class="st2" width="164.9" height="45.7"/>
<circle class="st1" cx="489" cy="381.3" r="160.3"/>
<circle class="st4" cx="241.6" cy="295" r="160.3"/>
<path class="st3" d="M324.1,560.1c-18.5,32.1-47.7,56.8-82.4,69.9c73.4,27.5,155.9-2.1,195.2-69.9H324.1z"/>
<path class="st3" d="M159.2,560.1H46.4C85.6,628,168.2,657.5,241.6,630C206.9,616.9,177.8,592.2,159.2,560.1z"/>
<rect x="159.2" y="473.5" class="st2" width="164.9" height="27.5"/>
<polygon class="st3" points="255.8,754.7 255.8,560.1 228.3,560.1 228.3,738.9 "/>
<polygon class="st2" points="324.1,514.2 159.2,514.2 192.3,541.6 291,541.6 "/>
<path class="st6" d="M255.8,411.4c0-74.7,32.2-130.4,46.8-155.4"/>
<path class="st6" d="M181.5,225.1c10.1,0,10.1,17.6,20.2,17.6s10.1-17.6,20.2-17.6s10.1,17.6,20.2,17.6s10.1-17.6,20.2-17.6
	s10.1,17.6,20.2,17.6s10.1-17.6,20.2-17.6"/>
<path class="st6" d="M228.3,411.4c0-74.7-32.2-130.4-46.8-155.4"/>
<path class="st7" d="M558.9,415.2c-0.3-3.9-3.6-6.8-7.5-6.7h-21.2l-5.8-14.7h13.1c3.9,0.1,7.2-2.8,7.5-6.7c0.2-3.9-2.8-7.1-6.7-7.3
	c-0.1,0-0.1,0-0.2,0h-19.2l-24-60.5c-1.1-2.7-3.6-4.4-6.5-4.4c-2.8,0.1-5.4,1.8-6.5,4.4l-23,60.4h-18.8c-3.9-0.1-7.2,2.8-7.5,6.7
	c-0.2,3.9,2.8,7.1,6.7,7.3c0.1,0,0.1,0,0.2,0h13.7l-5.6,14.6h-21c-3.9-0.1-7.2,2.8-7.5,6.7c-0.2,3.9,2.8,7.1,6.7,7.3
	c0.1,0,0.1,0,0.2,0h16.1l-18.8,48.8c-1.4,3.6,0.4,7.7,4,9.1c0.8,0.3,1.6,0.5,2.4,0.4c2.9,0,5.5-1.7,6.5-4.4l20.8-53.8h63.3
	l21.6,54.4c1,2.7,3.6,4.5,6.5,4.4c0.9,0,1.8-0.2,2.6-0.4c3.5-1.4,5.3-5.5,3.8-9c0,0,0-0.1,0-0.1l-19.6-49.2h15.9
	C555.8,422.4,559.1,419.2,558.9,415.2z M488.7,341.4l15.1,38.3H474L488.7,341.4L488.7,341.4z M462.7,408.5l5.6-14.7H509l5.8,14.7
	H462.7z"/>
<path class="st7" d="M401.9,295c0-14.9-2-29.8-6.1-44.1c-55.1,39.5-79.5,109.3-61,174.5C376.9,395.4,401.9,346.8,401.9,295z"/>
<path class="st1" d="M529,175.7C529,175.6,528.9,175.6,529,175.7L529,175.7c-4.4-0.9-9,0.4-12.4,3.3c-5.4,3.4-12.5,2.5-16.8-2.3l0,0
	c-5.2-6-14.3-6.6-20.2-1.4c-0.5,0.4-0.9,0.9-1.4,1.4l0,0c-4.6,5.1-12.3,5.8-17.7,1.7l0,0c-3.3-2.5-7.5-3.5-11.5-2.7h-0.2
	c-7.8,1.6-12.9,9.2-11.4,17c0.9,4.6,4,8.5,8.3,10.4l0,0c11.1,4.9,10,21-1.6,24.4l15.7-3.1l4.4,19.1l51.5,2.5l4-21.3l14,2.7
	c-6.9-2-10.9-9.2-8.9-16.1c1-3.4,3.3-6.2,6.5-7.9c4.8-1.7,8.3-5.8,9.2-10.8C541.9,184.8,536.8,177.3,529,175.7z"/>
</svg>
