<?xml version="1.0" encoding="utf-8"?>
<!-- Generator: Adobe Illustrator 25.0.0, SVG Export Plug-In . SVG Version: 6.00 Build 0)  -->
<svg version="1.1" id="i" xmlns="http://www.w3.org/2000/svg" xmlns:xlink="http://www.w3.org/1999/xlink" x="0px" y="0px"
	 width="771.4px" height="808.3px" viewBox="0 0 771.4 808.3" style="enable-background:new 0 0 771.4 808.3;" xml:space="preserve"
	>
<style type="text/css">
	.st0{fill:#232323;}
	.st1{opacity:0.1;fill:#44BBA4;enable-background:new    ;}
	.st2{fill:#0033AD;}
	.st3{fill:#FF5553;}
	.st4{fill:#44BBA4;}
	.st5{fill:#3BA18E;}
	.st6{fill:#FFFFFF;}
	.st7{fill:#FCDFA6;}
	.st8{fill:none;stroke:#FFFFFF;stroke-miterlimit:10;}
</style>
<polygon class="st0" points="771.4,518.8 501.6,518.8 331.9,603.4 601.7,603.4 "/>
<path class="st1" d="M371.2,790.5l-1.7-773l0,0c0-9.3-7.3-17-16.6-17.5c-3.4-0.2-6.8,0.6-9.8,2.3l0,0L8.8,196.4l0,0
	c-2.3,1.3-4.3,3.2-5.8,5.5c-1.9,2.8-2.9,6.2-2.9,9.6l0,0L1,598l0,0c0,2.7,0.7,5.4,1.9,7.8c1.5,3.1,3.9,5.6,6.9,7.3l0,0l335.1,192.5
	l0,0c2.3,1.4,5,2.2,7.7,2.3c9.7,0.5,18-6.9,18.6-16.6L371.2,790.5L371.2,790.5z"/>
<path class="st2" d="M369.5,18.6c0.6-9.7-6.8-18.1-16.5-18.7c-9.7-0.6-18.1,6.8-18.7,16.5c-0.6,9.7,6.8,18.1,16.5,18.7
	c0,0,0.1,0,0.1,0c9.6,0.6,17.9-6.6,18.6-16.2C369.5,18.8,369.5,18.7,369.5,18.6z"/>
<path class="st3" d="M671.4,218c4.4,8.7,14.9,12.2,23.6,7.8c8.7-4.4,12.2-14.9,7.8-23.6s-14.9-12.2-23.6-7.8c0,0,0,0,0,0
	C670.5,198.8,667,209.3,671.4,218C671.3,218,671.4,218,671.4,218z"/>
<path class="st4" d="M673.2,587c-5.3,8.1-3.1,19.1,5.1,24.4c8.1,5.3,19.1,3.1,24.4-5.1s3.1-19.1-5.1-24.4c0,0,0,0,0,0
	C689.4,576.6,678.5,578.9,673.2,587z"/>
<path class="st3" d="M371.2,791.6c0.6-9.7-6.9-18-16.6-18.6c-9.7-0.6-18,6.9-18.6,16.6c-0.6,9.7,6.9,18.1,16.6,18.6c0,0,0,0,0,0
	C362.3,808.7,370.6,801.3,371.2,791.6z"/>
<path class="st3" d="M32.4,221.2c5.4-8.1,3.1-19.1-5-24.4c-8.1-5.4-19.1-3.1-24.4,5c-5.4,8.1-3.1,19.1,5,24.4c0,0,0,0,0,0
	C16.1,231.6,27,229.3,32.4,221.2z"/>
<path class="st4" d="M34.2,590.2c-4.4-8.7-14.9-12.2-23.6-7.8c-8.7,4.4-12.2,14.9-7.8,23.6c4.4,8.7,14.9,12.2,23.6,7.8c0,0,0,0,0,0
	C35,609.5,38.6,599,34.2,590.2C34.2,590.3,34.2,590.3,34.2,590.2z"/>
<polygon class="st4" points="185.5,312.8 102.2,294.8 102.2,603.4 185.5,621.4 "/>
<polygon class="st5" points="268.7,294.8 185.5,312.8 185.5,621.4 268.7,603.4 "/>
<polygon class="st4" points="351.9,312.8 268.7,294.8 268.7,603.4 351.9,621.4 "/>
<polygon class="st5" points="435.2,294.8 351.9,312.8 351.9,621.4 435.2,603.4 "/>
<polygon class="st4" points="518.4,312.8 435.2,294.8 435.2,603.4 518.4,621.4 "/>
<polygon class="st5" points="601.7,294.8 518.4,312.8 518.4,621.4 601.7,603.4 "/>
<circle class="st2" cx="351.9" cy="193.6" r="131.2"/>
<polygon class="st6" points="432.4,113.1 328.4,170.1 271.4,274.1 375.5,217.1 "/>
<circle class="st7" cx="351.9" cy="193.6" r="19.1"/>
<path class="st7" d="M351.9,538.2c-46,0-83.2,37.3-83.2,83.3c0,22.1,8.8,43.2,24.4,58.8l58.9,58.9l58.9-58.9
	c32.5-32.5,32.5-85.2,0-117.7C395.3,547,374,538.2,351.9,538.2L351.9,538.2z"/>
<circle class="st6" cx="351.9" cy="621.4" r="51.4"/>
<polyline class="st8" points="601.7,294.8 560,303.8 518.4,312.8 "/>
<polyline class="st8" points="601.7,346.2 560,355.2 518.4,364.2 "/>
<polyline class="st8" points="601.7,397.7 560,406.7 518.4,415.7 "/>
<polyline class="st8" points="601.7,449.1 560,458.1 518.4,467.1 "/>
<polyline class="st8" points="601.7,500.5 560,509.5 518.4,518.5 "/>
<polyline class="st8" points="601.7,552 560,561 518.4,570 "/>
<polyline class="st8" points="601.7,603.4 560,612.4 518.4,621.4 "/>
<line class="st8" x1="560" y1="303.8" x2="560" y2="612.4"/>
<polyline class="st8" points="435.2,294.8 476.8,303.8 518.4,312.8 "/>
<polyline class="st8" points="435.2,346.2 476.8,355.2 518.4,364.2 "/>
<polyline class="st8" points="435.2,397.7 476.8,406.7 518.4,415.7 "/>
<polyline class="st8" points="435.2,449.1 476.8,458.1 518.4,467.1 "/>
<polyline class="st8" points="435.2,500.5 476.8,509.5 518.4,518.5 "/>
<polyline class="st8" points="435.2,552 476.8,561 518.4,570 "/>
<polyline class="st8" points="435.2,603.4 476.8,612.4 518.4,621.4 "/>
<line class="st8" x1="476.8" y1="303.8" x2="476.8" y2="612.4"/>
<polyline class="st8" points="434.3,294.8 392.7,303.8 351,312.8 "/>
<polyline class="st8" points="434.3,346.2 392.7,355.2 351,364.2 "/>
<polyline class="st8" points="434.3,397.7 392.7,406.7 351,415.7 "/>
<polyline class="st8" points="434.3,449.1 392.7,458.1 351,467.1 "/>
<polyline class="st8" points="434.3,500.5 392.7,509.5 351,518.5 "/>
<polyline class="st8" points="434.3,552 392.7,561 351,570 "/>
<polyline class="st8" points="434.3,603.4 392.7,612.4 351,621.4 "/>
<line class="st8" x1="392.7" y1="303.8" x2="392.7" y2="612.4"/>
<polyline class="st8" points="267.8,294.8 309.4,303.8 351,312.8 "/>
<polyline class="st8" points="267.8,346.2 309.4,355.2 351,364.2 "/>
<polyline class="st8" points="267.8,397.7 309.4,406.7 351,415.7 "/>
<polyline class="st8" points="267.8,449.1 309.4,458.1 351,467.1 "/>
<polyline class="st8" points="267.8,500.5 309.4,509.5 351,518.5 "/>
<polyline class="st8" points="267.8,552 309.4,561 351,570 "/>
<polyline class="st8" points="267.8,603.4 309.4,612.4 351,621.4 "/>
<line class="st8" x1="309.4" y1="303.8" x2="309.4" y2="612.4"/>
<polyline class="st8" points="266.9,294.8 225.3,303.8 183.7,312.8 "/>
<polyline class="st8" points="266.9,346.2 225.3,355.2 183.7,364.2 "/>
<polyline class="st8" points="266.9,397.7 225.3,406.7 183.7,415.7 "/>
<polyline class="st8" points="266.9,449.1 225.3,458.1 183.7,467.1 "/>
<polyline class="st8" points="266.9,500.5 225.3,509.5 183.7,518.5 "/>
<polyline class="st8" points="266.9,552 225.3,561 183.7,570 "/>
<polyline class="st8" points="266.9,603.4 225.3,612.4 183.7,621.4 "/>
<line class="st8" x1="225.3" y1="303.8" x2="225.3" y2="612.4"/>
<circle class="st6" cx="450.3" cy="181.3" r="8.2"/>
<circle class="st6" cx="362.9" cy="113.7" r="5.1"/>
<circle class="st6" cx="348.3" cy="144.8" r="3.1"/>
<circle class="st6" cx="410.4" cy="199.1" r="3.1"/>
<circle class="st6" cx="263.7" cy="145.6" r="3.1"/>
<circle class="st6" cx="394.2" cy="94.8" r="3.1"/>
<circle class="st6" cx="461.6" cy="218.7" r="3.1"/>
<circle class="st6" cx="306" cy="139.1" r="8.2"/>
<circle class="st6" cx="316.1" cy="97.9" r="8.2"/>
<path class="st6" d="M351.9,312.8l-83.2-18v0.4c23.4,19.3,52.8,29.8,83.2,29.8V312.8z"/>
<path class="st6" d="M351.9,312.8v12.1c30.4,0,59.8-10.5,83.2-29.8v-0.4L351.9,312.8z"/>
<path class="st6" d="M351.9,570v-31.8c-39.2,0-73.1,27.3-81.4,65.6l31.1,6.7C306.8,586.9,327.7,570.1,351.9,570z"/>
<path class="st6" d="M351.9,538.2V570c24.2,0,45.2,16.9,50.3,40.6l31.1-6.7C425,565.6,391.1,538.2,351.9,538.2z"/>
<path class="st7" d="M301.7,610.6l50.3,10.9v-51.4C327.8,570.1,306.8,586.9,301.7,610.6z"/>
<path class="st7" d="M402.2,610.6c-5.1-23.7-26.1-40.6-50.3-40.6v51.4L402.2,610.6z"/>
<polygon class="st6" points="153.9,369.6 127.8,363.8 127.8,429.7 153.9,435.5 "/>
<ellipse transform="matrix(0.8495 -0.5275 0.5275 0.8495 -160.989 126.2186)" class="st6" cx="140.8" cy="345.3" rx="12.1" ry="15.2"/>
</svg>
