<?xml version="1.0" encoding="utf-8"?>
<!-- Generator: Adobe Illustrator 25.0.0, SVG Export Plug-In . SVG Version: 6.00 Build 0)  -->
<svg version="1.1" id="Layer_23" xmlns="http://www.w3.org/2000/svg" xmlns:xlink="http://www.w3.org/1999/xlink" x="0px" y="0px"
	 width="705.6px" height="808.3px" viewBox="0 0 705.6 808.3" style="enable-background:new 0 0 705.6 808.3;" xml:space="preserve"
	>
<style type="text/css">
	.st0{opacity:0.1;fill:#44BBA4;enable-background:new    ;}
	.st1{fill:#0033AD;}
	.st2{fill:#FCDFA6;}
	.st3{fill:#FF5553;}
	.st4{fill:#44BBA4;}
	.st5{fill:#232323;}
	.st6{fill:#FFFFFF;}
</style>
<path class="st0" d="M371.2,790.5l-1.7-773l0,0c0-9.3-7.3-17-16.6-17.5c-3.4-0.2-6.8,0.6-9.8,2.3l0,0L8.8,196.4l0,0
	c-2.3,1.3-4.3,3.2-5.8,5.5c-1.9,2.8-2.9,6.2-2.9,9.6l0,0L1,598l0,0c0,2.7,0.7,5.4,1.9,7.8c1.5,3.1,3.9,5.6,6.9,7.3l0,0l335.1,192.5
	l0,0c2.3,1.4,5,2.2,7.7,2.3c9.7,0.5,18-6.9,18.6-16.6V790.5L371.2,790.5z"/>
<path class="st1" d="M369.5,18.6c0.6-9.7-6.8-18.1-16.5-18.7s-18.1,6.8-18.7,16.5s6.8,18.1,16.5,18.7h0.1
	c9.6,0.6,17.9-6.6,18.6-16.2C369.5,18.8,369.5,18.7,369.5,18.6z"/>
<path class="st2" d="M671.4,218c4.4,8.7,14.9,12.2,23.6,7.8c8.7-4.4,12.2-14.9,7.8-23.6s-14.9-12.2-23.6-7.8l0,0
	C670.5,198.8,667,209.3,671.4,218C671.3,218,671.4,218,671.4,218z"/>
<path class="st3" d="M673.2,587c-5.3,8.1-3.1,19.1,5.1,24.4c8.1,5.3,19.1,3.1,24.4-5.1s3.1-19.1-5.1-24.4l0,0
	C689.4,576.6,678.5,578.9,673.2,587z"/>
<path class="st4" d="M371.2,791.6c0.6-9.7-6.9-18-16.6-18.6s-18,6.9-18.6,16.6c-0.6,9.7,6.9,18.1,16.6,18.6l0,0
	C362.3,808.7,370.6,801.3,371.2,791.6z"/>
<path class="st4" d="M32.4,221.2c5.4-8.1,3.1-19.1-5-24.4c-8.1-5.4-19.1-3.1-24.4,5c-5.4,8.1-3.1,19.1,5,24.4l0,0
	C16.1,231.6,27,229.3,32.4,221.2z"/>
<path class="st2" d="M34.2,590.2c-4.4-8.7-14.9-12.2-23.6-7.8S-1.6,597.3,2.8,606c4.4,8.7,14.9,12.2,23.6,7.8l0,0
	C35,609.5,38.6,599,34.2,590.2C34.2,590.3,34.2,590.3,34.2,590.2z"/>
<path class="st5" d="M371.2,708.9v65.2c54.5-2.5,96.2-16.2,96.2-32.6S425.8,711.5,371.2,708.9z"/>
<circle class="st4" cx="352.8" cy="404.1" r="120.5"/>
<circle class="st4" cx="352.8" cy="580.5" r="165.8"/>
<circle class="st1" cx="352.8" cy="229.9" r="165.8"/>
<path class="st6" d="M352.8,524.6c46.6,0,89.1-26.9,109-69c-62.4-54.5-155.6-54.5-218,0C263.7,497.8,306.2,524.6,352.8,524.6z"/>
<path class="st6" d="M462.5,354.2c-27.6-60.6-99-87.3-159.6-59.8c-26.5,12.1-47.7,33.3-59.8,59.8
	C305.7,409.6,399.8,409.6,462.5,354.2z"/>
<rect x="135.1" y="186.4" class="st4" width="87.1" height="87.1"/>
<path class="st5" d="M289.8,232.7l-17.4,17.4c-1.5,1.5-4,1.5-5.5,0c-0.7-0.7-1.2-1.8-1.2-2.8v-34.9c0-2.2,1.8-3.9,4-3.9
	c1,0,2,0.4,2.7,1.1l17.4,17.5c1.5,1.5,1.6,3.9,0.1,5.5L289.8,232.7z"/>
<path class="st5" d="M289.8,581.1l-17.4,17.4c-1.5,1.5-4,1.5-5.5,0c-0.7-0.7-1.2-1.8-1.2-2.8v-34.9c0-2.2,1.8-3.9,4-3.9
	c1,0,2,0.4,2.7,1.1l17.4,17.4C291.4,577,291.4,579.5,289.8,581.1L289.8,581.1z"/>
<path class="st5" d="M464,581.1l-17.4,17.4c-1.5,1.5-4,1.5-5.5,0c-0.7-0.7-1.2-1.8-1.2-2.8v-34.9c0-2.2,1.8-3.9,4-3.9
	c1,0,2,0.4,2.7,1.1l17.4,17.4C465.6,577,465.6,579.5,464,581.1L464,581.1z"/>
<path class="st5" d="M428.6,401.3l17.4-17.4c1.5-1.5,4-1.5,5.5,0c0.7,0.7,1.2,1.8,1.2,2.8v34.9c0,2.2-1.8,3.9-4,3.9
	c-1,0-2-0.4-2.7-1.1L428.6,407C427.1,405.4,427.1,402.9,428.6,401.3z"/>
<path class="st6" d="M352.8,273.5L352.8,273.5c-24,0-43.5-19.5-43.5-43.5l0,0c0-24,19.5-43.5,43.5-43.5l0,0
	c24,0,43.5,19.5,43.5,43.5l0,0C396.3,254,376.8,273.5,352.8,273.5z"/>
<rect x="309.3" y="360.6" class="st2" width="87.1" height="87.1"/>
<path class="st6" d="M352.8,621.8L352.8,621.8c-24,0-43.5-19.5-43.5-43.5l0,0c0-24,19.5-43.5,43.5-43.5l0,0
	c24,0,43.5,19.5,43.5,43.5l0,0C396.3,602.3,376.8,621.8,352.8,621.8z"/>
<rect x="483.4" y="534.7" class="st3" width="87.1" height="87.1"/>
<path class="st5" d="M483.4,408h-43.5v-7.9h43.5c46,0,83.2-37.2,83.2-83.2s-37.2-83.2-83.2-83.2h-87.1v-7.9h87.1
	c50.2,0,91,40.8,91,91C574.4,367,533.6,408,483.4,408z"/>
<path class="st5" d="M265.7,582.2h-43.5c-50.3,0-91-40.7-91-91s40.7-91,91-91h87.1v7.9h-87.1c-46,0-83.2,37.2-83.2,83.2
	s37.2,83.2,83.2,83.2h43.5V582.2z"/>
<rect x="396.3" y="575.1" class="st5" width="43.5" height="7.9"/>
<rect x="222.2" y="226" class="st5" width="43.5" height="7.9"/>
<path class="st6" d="M428.6,401.3l17.4-17.4c1.5-1.5,4-1.5,5.5,0c0.7,0.7,1.2,1.8,1.2,2.8v34.9c0,2.2-1.8,3.9-4,3.9
	c-1,0-2-0.4-2.7-1.1L428.6,407C427.1,405.4,427.1,402.9,428.6,401.3z"/>
<path class="st6" d="M473.3,400.2h-33.4v7.9h33.4c0-1.3,0.1-2.6,0.1-3.9S473.3,401.5,473.3,400.2z"/>
<path class="st6" d="M309.3,400.2h-76.9c0,1.3-0.1,2.6-0.1,3.9s0,2.6,0.1,3.9h76.9V400.2z"/>
<g>
	<path class="st6" d="M245.6,159c-2.6-2-3.9-4.4-4.1-7.1c-0.2-2.6,0.5-4.9,2.1-6.9c1.7-2.1,3.8-3.4,6.3-3.8c2.6-0.4,5.2,0.4,7.8,2.4
		l12.4,9.7c2.5,2.1,3.9,4.4,4.1,7c0.2,2.6-0.5,4.9-2.1,7c-1.6,2-3.7,3.2-6.3,3.6c-2.6,0.5-5.2-0.3-7.8-2.3L245.6,159z M254.9,147.7
		c-2.9-2.1-5.3-2-7.3,0.5c-1.9,2.5-1.5,4.9,1.3,7.2l11.9,9.3c2.9,2.2,5.3,2,7.3-0.5c1.9-2.5,1.5-4.9-1.3-7.2L254.9,147.7z"/>
	<path class="st6" d="M265,123.4l4.1-3.2l22.1,27.9l-4.1,3.2L265,123.4z"/>
	<path class="st6" d="M290.1,117.8c-1.3-3-1.5-5.7-0.4-8.2c1-2.4,2.6-4.1,5-5.2c2.4-1.1,4.9-1.3,7.3-0.5c2.5,0.8,4.4,2.7,5.9,5.7
		l6.6,14.3c1.3,3,1.5,5.7,0.5,8.1c-1,2.4-2.7,4.1-5.1,5.3c-2.4,1.1-4.8,1.2-7.2,0.4c-2.6-0.8-4.5-2.6-5.9-5.6L290.1,117.8z
		 M303.5,112c-1.6-3.2-3.8-4.2-6.7-2.9c-2.9,1.4-3.6,3.7-2.1,7l6.3,13.7c1.6,3.2,3.8,4.2,6.7,2.9c2.9-1.3,3.6-3.7,2.1-7L303.5,112z"
		/>
	<path class="st6" d="M324.6,104.6c-0.4-3.3,0.2-5.9,2-7.9c1.6-2,3.7-3.2,6.3-3.6c2.7-0.4,5,0.2,7.1,1.6c2.1,1.5,3.5,3.9,4,7.1
		l2.2,15.5c0.4,3.2-0.2,5.9-1.9,7.9c-1.6,2-3.7,3.2-6.4,3.6c-2.6,0.3-4.9-0.2-7-1.7c-2.2-1.5-3.6-3.8-4.1-7L324.6,104.6z
		 M339.1,102.8c-0.6-3.5-2.5-5.1-5.6-4.7c-3.1,0.5-4.5,2.5-4,6.1l2.1,15c0.6,3.6,2.4,5.1,5.6,4.7c3.1-0.5,4.5-2.5,4.1-6.1
		L339.1,102.8z"/>
	<path class="st6" d="M361.3,101.7c0.5-3.2,1.9-5.6,4.1-7.1c2.1-1.5,4.5-2,7-1.6c2.7,0.4,4.8,1.6,6.4,3.6c1.6,2,2.2,4.7,1.8,7.9
		l-2.2,15.5c-0.5,3.2-1.9,5.6-4,7.1c-2.1,1.5-4.5,2-7.2,1.7c-2.6-0.4-4.7-1.6-6.3-3.6c-1.7-2-2.4-4.7-1.9-7.9L361.3,101.7z
		 M375.7,104.1c0.4-3.5-0.9-5.6-4-6.1c-3.1-0.4-5,1.2-5.6,4.7l-2.2,15c-0.5,3.6,0.9,5.6,4,6.1c3.1,0.4,5-1.1,5.6-4.7L375.7,104.1z"
		/>
	<path class="st6" d="M397.4,109.4c1.4-3,3.4-4.8,6-5.6c2.4-0.8,4.8-0.7,7.2,0.4c2.4,1.1,4.1,2.9,5.1,5.3c1,2.4,0.8,5.1-0.5,8.1
		l-6.6,14.2c-1.4,2.9-3.4,4.8-5.9,5.6c-2.4,0.8-4.9,0.7-7.3-0.4c-2.3-1.1-4-2.9-5-5.3c-1.1-2.4-0.9-5.2,0.4-8.1L397.4,109.4z
		 M410.6,115.8c1.4-3.3,0.7-5.6-2.1-7c-2.9-1.3-5.1-0.3-6.7,2.9l-6.4,13.7c-1.5,3.3-0.8,5.6,2.1,7c2.9,1.3,5.1,0.3,6.7-2.9
		L410.6,115.8z"/>
	<path class="st6" d="M429.8,127c2.2-2.4,4.6-3.7,7.3-3.7c2.6-0.1,4.8,0.7,6.8,2.5c2,1.8,3.1,3.9,3.4,6.5c0.3,2.6-0.7,5.1-2.8,7.7
		l-10.4,11.8c-2.2,2.4-4.6,3.7-7.2,3.7c-2.6,0.1-4.9-0.8-6.9-2.5c-1.9-1.7-3-3.9-3.3-6.5c-0.3-2.7,0.6-5.2,2.7-7.7L429.8,127z
		 M440.6,137c2.3-2.7,2.3-5.2-0.1-7.3c-2.4-2-4.8-1.7-7.2,0.9l-10,11.4c-2.3,2.7-2.3,5.2,0,7.3c2.4,2.1,4.8,1.8,7.3-0.9L440.6,137z"
		/>
	<path class="st6" d="M464.3,148.4l3,4.3l-29.1,20.5l-3-4.3L464.3,148.4z"/>
</g>
<g>
	<path class="st6" d="M259.7,641.3c2.6-2.1,5.2-2.9,7.8-2.4c2.5,0.3,4.6,1.5,6.3,3.5c1.7,2.1,2.5,4.4,2.3,7c-0.2,2.6-1.5,5-4,7.1
		l-12.2,9.9c-2.6,2-5.1,2.9-7.7,2.5c-2.5-0.3-4.7-1.5-6.4-3.6c-1.6-2-2.4-4.3-2.2-6.9c0.1-2.7,1.4-5.1,3.9-7.1L259.7,641.3z
		 M268.7,652.8c2.7-2.3,3.1-4.7,1.1-7.2c-2.1-2.4-4.5-2.5-7.3-0.3l-11.7,9.6c-2.8,2.3-3.1,4.7-1.2,7.2c2,2.4,4.5,2.5,7.3,0.3
		L268.7,652.8z"/>
	<path class="st6" d="M288.3,657.4l4.1,3.2l-21.8,28.2l-4.1-3.2L288.3,657.4z"/>
	<path class="st6" d="M297.1,676c1.4-3,3.4-4.8,5.9-5.6c2.4-0.8,4.8-0.7,7.2,0.4c2.4,1.1,4.1,2.9,5.1,5.2c1,2.4,0.8,5.1-0.5,8.1
		l-6.5,14.3c-1.4,2.9-3.4,4.8-5.8,5.7c-2.4,0.8-4.9,0.7-7.3-0.4c-2.4-1.1-4-2.9-5-5.2c-1.1-2.4-1-5.2,0.4-8.1L297.1,676z
		 M310.3,682.4c1.4-3.3,0.7-5.6-2.2-7c-2.9-1.3-5.1-0.3-6.7,2.9l-6.3,13.7c-1.4,3.3-0.7,5.6,2.1,7c2.9,1.3,5.1,0.3,6.7-2.9
		L310.3,682.4z"/>
	<path class="st6" d="M325.9,687.5c0.5-3.2,1.9-5.6,4.2-7c2.1-1.5,4.5-2,7-1.6c2.7,0.4,4.8,1.6,6.4,3.6c1.6,2,2.2,4.7,1.8,7.9
		l-2.3,15.5c-0.6,3.2-1.9,5.6-4.1,7c-2.1,1.5-4.5,2-7.2,1.6c-2.6-0.4-4.7-1.6-6.2-3.7c-1.7-2.1-2.3-4.7-1.9-7.9L325.9,687.5z
		 M340.4,690c0.4-3.5-0.9-5.6-4-6.1c-3.1-0.4-5,1.1-5.6,4.7l-2.3,14.9c-0.5,3.6,0.9,5.6,4,6.1c3.1,0.4,5-1.1,5.6-4.7L340.4,690z"/>
	<path class="st6" d="M356.8,690.7c-0.4-3.3,0.3-5.9,2.1-7.9c1.6-2,3.8-3.1,6.3-3.4c2.7-0.3,5,0.3,7.1,1.8c2.1,1.5,3.4,3.9,3.9,7.2
		l1.9,15.6c0.3,3.3-0.3,5.9-2,7.9c-1.6,2-3.8,3.1-6.5,3.5c-2.6,0.3-4.9-0.3-7-1.8c-2.2-1.5-3.5-3.9-4-7.1L356.8,690.7z M371.4,689.2
		c-0.5-3.5-2.4-5.1-5.5-4.8c-3.1,0.5-4.5,2.5-4.1,6l1.9,15c0.5,3.6,2.3,5.2,5.5,4.8c3.1-0.4,4.5-2.4,4.2-6L371.4,689.2z"/>
	<path class="st6" d="M385.6,675l4.9-1.8l12.4,33.4l-4.9,1.8L385.6,675z"/>
	<path class="st6" d="M406,677.4c-1.8-2.8-2.3-5.4-1.6-8c0.6-2.5,2-4.5,4.2-5.9c2.2-1.5,4.6-2,7.2-1.6c2.6,0.4,4.8,2,6.7,4.7
		l8.7,13.1c1.8,2.8,2.3,5.4,1.7,7.9c-0.6,2.5-2,4.5-4.2,6c-2.2,1.4-4.6,1.9-7.1,1.5c-2.6-0.4-4.9-1.9-6.7-4.6L406,677.4z
		 M418.4,669.6c-2-2.9-4.4-3.5-7.1-1.9c-2.6,1.8-3,4.2-1,7.2l8.3,12.6c2,3,4.4,3.6,7.1,1.9c2.6-1.8,3-4.2,1.1-7.2L418.4,669.6z"/>
	<path class="st6" d="M431.1,659.1c-2.5-2.2-3.7-4.6-3.8-7.3c-0.1-2.6,0.7-4.8,2.4-6.8c1.8-2,3.9-3.2,6.5-3.5
		c2.6-0.3,5.2,0.6,7.7,2.7l11.9,10.2c2.4,2.2,3.7,4.6,3.8,7.2c0.1,2.6-0.7,4.9-2.4,6.9c-1.7,2-3.9,3.1-6.4,3.3
		c-2.7,0.4-5.2-0.5-7.7-2.6L431.1,659.1z M440.9,648.2c-2.8-2.3-5.2-2.2-7.3,0.1c-2,2.4-1.7,4.9,1,7.2l11.5,9.9
		c2.8,2.3,5.2,2.3,7.3-0.1c2-2.4,1.7-4.8-1-7.3L440.9,648.2z"/>
</g>
</svg>
