<svg id="Layer_2" data-name="Layer 2" xmlns="http://www.w3.org/2000/svg" viewBox="0 0 822.15 808.26"><defs><style>.cls-1,.cls-2{fill:#44bba4;}.cls-1{opacity:0.1;isolation:isolate;}.cls-3{fill:#0033ad;}.cls-4{fill:#fcdfa6;}.cls-5{fill:#232323;}.cls-6{fill:#ff5553;}.cls-7{fill:none;stroke:#fff;stroke-miterlimit:10;stroke-width:2px;}.cls-8{fill:#fff;}</style></defs><path class="cls-1" d="M978.4,926.4l-1.7-773h0a17.54,17.54,0,0,0-16.6-17.5,18,18,0,0,0-9.8,2.3h0L616,332.3h0a16.93,16.93,0,0,0-5.8,5.5,17.12,17.12,0,0,0-2.9,9.6h0l.9,386.5h0a16.93,16.93,0,0,0,1.9,7.8A17.42,17.42,0,0,0,617,749h0L952.1,941.5h0a16.89,16.89,0,0,0,7.7,2.3,17.65,17.65,0,0,0,18.6-16.6v-.8Z" transform="translate(-591.2 -135.87)"/><path class="cls-2" d="M976.7,154.5A17.63,17.63,0,1,0,958.1,171,17.45,17.45,0,0,0,976.7,154.5Z" transform="translate(-591.2 -135.87)"/><path class="cls-3" d="M1278.6,353.9a17.58,17.58,0,1,0,7.8-23.6A17.52,17.52,0,0,0,1278.6,353.9Z" transform="translate(-591.2 -135.87)"/><path class="cls-4" d="M1280.4,722.9a17.63,17.63,0,1,0,24.4-5.1A17.63,17.63,0,0,0,1280.4,722.9Z" transform="translate(-591.2 -135.87)"/><path class="cls-5" d="M978.4,927.5a17.63,17.63,0,1,0-18.6,16.6A17.72,17.72,0,0,0,978.4,927.5Z" transform="translate(-591.2 -135.87)"/><path class="cls-6" d="M639.6,357.1a17.63,17.63,0,1,0-24.4,5A17.63,17.63,0,0,0,639.6,357.1Z" transform="translate(-591.2 -135.87)"/><path class="cls-4" d="M641.4,726.1a17.58,17.58,0,1,0-7.8,23.6A17.52,17.52,0,0,0,641.4,726.1Z" transform="translate(-591.2 -135.87)"/><rect class="cls-4" x="493.7" y="119.33" width="14.7" height="264.8"/><rect class="cls-4" x="464.4" y="119.33" width="14.7" height="264.8"/><polygon class="cls-4" points="405.7 119.33 405.7 384.13 420.3 384.13 435 384.13 435 119.33 420.3 119.33 405.7 119.33"/><rect class="cls-4" x="361.6" y="119.33" width="14.7" height="264.8"/><polygon class="cls-4" points="317.6 119.33 302.9 119.33 288.2 119.33 288.2 384.13 302.9 384.13 317.6 384.13 332.3 384.13 346.9 384.13 346.9 119.33 332.3 119.33 317.6 119.33"/><rect class="cls-4" x="258.9" y="119.33" width="14.7" height="264.8"/><rect class="cls-4" x="229.5" y="119.33" width="14.7" height="264.8"/><polygon class="cls-3" points="354.3 506.23 354.3 302.03 177.4 199.93 0.5 302.03 0.5 506.23 177.4 608.33 354.3 506.23"/><polygon class="cls-3" points="25.5 491.83 25.5 316.43 177.4 228.73 329.3 316.43 329.3 491.83 177.4 579.53 25.5 491.83"/><line class="cls-7" x1="177.4" y1="506.23" x2="177.4" y2="608.33"/><line class="cls-7" x1="265.8" y1="455.23" x2="354.3" y2="506.23"/><line class="cls-7" x1="89" y1="455.23" x2="0.5" y2="506.23"/><line class="cls-7" x1="177.4" y1="302.03" x2="177.4" y2="199.93"/><line class="cls-7" x1="265.8" y1="353.03" x2="354.3" y2="302.03"/><line class="cls-7" x1="89" y1="353.03" x2="0.5" y2="302.03"/><ellipse class="cls-5" cx="658.4" cy="470.73" rx="115" ry="36.7"/><path class="cls-5" d="M1323,630.3h-27.9l69.4,122.1,28.6-14.3C1446.9,711.4,1383.1,630.3,1323,630.3Z" transform="translate(-591.2 -135.87)"/><path class="cls-2" d="M1364.5,752.4c0-116.6-94.5-211-211-211s-211,94.5-211,211Z" transform="translate(-591.2 -135.87)"/><circle class="cls-2" cx="562.3" cy="345.93" r="130.4"/><path class="cls-8" d="M1364.5,752.4c0-2.2,0-4.5-.1-6.7v6.7Z" transform="translate(-591.2 -135.87)"/><path class="cls-8" d="M964.4,658.7v93.7h1.2V656.2C965.2,657,964.8,657.9,964.4,658.7Z" transform="translate(-591.2 -135.87)"/><path class="cls-8" d="M987.8,621.7V752.4H989V620.1A6.1,6.1,0,0,1,987.8,621.7Z" transform="translate(-591.2 -135.87)"/><path class="cls-8" d="M1011.3,596.5V752.4h1.2v-157C1012.1,595.8,1011.7,596.1,1011.3,596.5Z" transform="translate(-591.2 -135.87)"/><path class="cls-8" d="M1034.8,578V752.5h1.2V577.1Z" transform="translate(-591.2 -135.87)"/><path class="cls-8" d="M1058.2,564.1V752.4h1.2v-189A7.46,7.46,0,0,1,1058.2,564.1Z" transform="translate(-591.2 -135.87)"/><path class="cls-8" d="M1081.7,553.9V752.4h1.2V553.5A5.64,5.64,0,0,1,1081.7,553.9Z" transform="translate(-591.2 -135.87)"/><path class="cls-8" d="M1105.1,547V752.5h1.2V546.7A10.38,10.38,0,0,1,1105.1,547Z" transform="translate(-591.2 -135.87)"/><path class="cls-8" d="M1128.6,542.9V752.5h1.2V542.7C1129.4,542.8,1129,542.8,1128.6,542.9Z" transform="translate(-591.2 -135.87)"/><path class="cls-8" d="M1152.1,541.4v211h1.2v-211Z" transform="translate(-591.2 -135.87)"/><path class="cls-8" d="M1175.5,542.5V752.4h1.2V542.7C1176.3,542.6,1175.9,542.6,1175.5,542.5Z" transform="translate(-591.2 -135.87)"/><path class="cls-8" d="M1199,546.3V752.4h1.2V546.6Z" transform="translate(-591.2 -135.87)"/><path class="cls-8" d="M1222.4,552.9V752.4h1.2v-199C1223.3,553.2,1222.8,553.1,1222.4,552.9Z" transform="translate(-591.2 -135.87)"/><path class="cls-8" d="M1245.9,562.7V752.5h1.2V563.3Z" transform="translate(-591.2 -135.87)"/><path class="cls-8" d="M1269.3,576V752.4h1.2V576.8C1270.2,576.6,1269.8,576.3,1269.3,576Z" transform="translate(-591.2 -135.87)"/><path class="cls-8" d="M1292.8,593.9V752.4h1.2V595A12,12,0,0,1,1292.8,593.9Z" transform="translate(-591.2 -135.87)"/><path class="cls-8" d="M1316.3,618.1V752.4h1.2V619.6Z" transform="translate(-591.2 -135.87)"/><path class="cls-8" d="M1339.7,653.1v99.4h1.2v-97C1340.6,654.7,1340.1,653.9,1339.7,653.1Z" transform="translate(-591.2 -135.87)"/><path class="cls-8" d="M1364.4,745.7c-.2-5.8-.6-11.6-1.2-17.3v23.9h1.2Z" transform="translate(-591.2 -135.87)"/><path class="cls-8" d="M1252.9,566.2a211.6,211.6,0,0,0-198.8,0,130.4,130.4,0,0,0,198.8,0Z" transform="translate(-591.2 -135.87)"/><circle class="cls-4" cx="561.1" cy="404.13" r="57.4"/><circle class="cls-8" cx="561.1" cy="404.13" r="35.4"/><rect class="cls-8" x="178.3" y="384.13" width="361.3" height="40"/><circle class="cls-8" cx="178.3" cy="404.13" r="57.4"/><circle class="cls-6" cx="178.3" cy="404.13" r="35.4"/><polygon class="cls-8" points="302.9 384.13 317.6 384.13 332.3 384.13 346.9 384.13 346.9 297.83 288.2 263.93 288.2 384.13 302.9 384.13"/><polygon class="cls-8" points="273.5 384.13 273.5 255.43 258.9 246.93 258.9 384.13 273.5 384.13"/><polygon class="cls-8" points="244.2 384.13 244.2 238.43 229.5 230.03 229.5 384.13 244.2 384.13"/><path class="cls-8" d="M1099.6,520V363a128.79,128.79,0,0,0-14.7,7.8V520Z" transform="translate(-591.2 -135.87)"/><path class="cls-8" d="M1070.3,520V381.4a124.14,124.14,0,0,0-14.7,14.3V520Z" transform="translate(-591.2 -135.87)"/><path class="cls-8" d="M1023.1,481.8a134.74,134.74,0,0,0,3.1,28.6V453.3A133.1,133.1,0,0,0,1023.1,481.8Z" transform="translate(-591.2 -135.87)"/></svg>