<?xml version="1.0" encoding="utf-8"?>
<!-- Generator: Adobe Illustrator 25.0.0, SVG Export Plug-In . SVG Version: 6.00 Build 0)  -->
<svg version="1.1" id="Layer_2_1_" xmlns="http://www.w3.org/2000/svg" xmlns:xlink="http://www.w3.org/1999/xlink" x="0px" y="0px"
	 viewBox="0 0 822.2 326.6" style="enable-background:new 0 0 822.2 326.6;" xml:space="preserve">
<style type="text/css">
	.st0{opacity:0.1;fill:#44BBA4;enable-background:new    ;}
	.st1{fill:#FCDFA6;}
	.st2{fill:#44BBA4;}
	.st3{fill:#FF5553;}
	.st4{fill:#0033AD;}
	.st5{fill:none;stroke:#FFFFFF;stroke-width:0.7;stroke-miterlimit:10;}
	.st6{fill:#232323;}
	.st7{fill:#FFFFFF;}
</style>
<path class="st0" d="M152.9,300.6l-0.6-270.5l0,0c0-3.3-2.6-6-5.8-6.1c-1.2-0.1-2.4,0.2-3.4,0.8l0,0L26,92.7l0,0
	c-0.8,0.5-1.5,1.1-2,1.9c-0.7,1-1,2.2-1,3.4l0,0l0.3,135.3l0,0c0,0.9,0.2,1.9,0.7,2.7c0.5,1.1,1.4,2,2.4,2.6l0,0l117.3,67.4l0,0
	c0.8,0.5,1.8,0.8,2.7,0.8c3.4,0.2,6.3-2.4,6.5-5.8V300.6L152.9,300.6z"/>
<path class="st1" d="M152.3,30.5c0.2-3.4-2.4-6.3-5.8-6.5c-3.4-0.2-6.3,2.4-6.5,5.8s2.4,6.3,5.8,6.5h0c3.4,0.2,6.3-2.3,6.5-5.7
	C152.3,30.5,152.3,30.5,152.3,30.5z"/>
<path class="st2" d="M258,100.2c1.5,3,5.2,4.3,8.3,2.7c3-1.5,4.3-5.2,2.7-8.3s-5.2-4.3-8.3-2.7l0,0C257.6,93.5,256.4,97.2,258,100.2
	L258,100.2z"/>
<path class="st1" d="M258.6,229.4c-1.9,2.8-1.1,6.7,1.8,8.5c2.8,1.9,6.7,1.1,8.5-1.8c1.9-2.9,1.1-6.7-1.8-8.5l0,0
	C264.3,225.8,260.4,226.6,258.6,229.4z"/>
<path class="st2" d="M152.9,301c0.2-3.4-2.4-6.3-5.8-6.5s-6.3,2.4-6.5,5.8c-0.2,3.4,2.4,6.3,5.8,6.5l0,0
	C149.8,307,152.7,304.4,152.9,301z"/>
<path class="st3" d="M34.3,101.4c1.9-2.8,1.1-6.7-1.8-8.5c-2.8-1.9-6.7-1.1-8.5,1.8c-1.9,2.8-1.1,6.7,1.8,8.5l0,0
	C28.6,105,32.4,104.2,34.3,101.4z"/>
<path class="st4" d="M34.9,230.5c-1.5-3-5.2-4.3-8.3-2.7s-4.3,5.2-2.7,8.3c1.5,3,5.2,4.3,8.3,2.7l0,0
	C35.2,237.3,36.5,233.6,34.9,230.5C34.9,230.5,34.9,230.5,34.9,230.5z"/>
<rect x="190.2" y="65.7" class="st1" width="5.1" height="92.7"/>
<rect x="179.9" y="65.7" class="st1" width="5.1" height="92.7"/>
<polygon class="st1" points="159.4,65.7 159.4,158.4 164.5,158.4 169.6,158.4 169.6,65.7 164.5,65.7 "/>
<rect x="143.9" y="65.7" class="st1" width="5.1" height="92.7"/>
<polygon class="st1" points="128.5,65.7 123.4,65.7 118.2,65.7 118.2,158.4 123.4,158.4 128.5,158.4 133.7,158.4 138.8,158.4 
	138.8,65.7 133.7,65.7 "/>
<rect x="108" y="65.7" class="st1" width="5.1" height="92.7"/>
<rect x="97.7" y="65.7" class="st1" width="5.1" height="92.7"/>
<polygon class="st4" points="141.4,201.1 141.4,129.6 79.5,93.9 17.5,129.6 17.5,201.1 79.5,236.8 "/>
<polygon class="st4" points="26.3,196.1 26.3,134.7 79.5,104 132.6,134.7 132.6,196.1 79.5,226.8 "/>
<line class="st5" x1="79.5" y1="201.1" x2="79.5" y2="236.8"/>
<line class="st5" x1="110.4" y1="183.3" x2="141.4" y2="201.1"/>
<line class="st5" x1="48.5" y1="183.3" x2="17.5" y2="201.1"/>
<line class="st5" x1="79.5" y1="129.6" x2="79.5" y2="93.9"/>
<line class="st5" x1="48.5" y1="147.5" x2="17.5" y2="129.6"/>
<ellipse class="st6" cx="247.8" cy="188.7" rx="40.2" ry="12.8"/>
<path class="st6" d="M273.5,197h-9.8l24.3,42.7l10-5C316.9,225.4,294.5,197,273.5,197z"/>
<path class="st2" d="M288,239.7c0-40.8-33.1-73.8-73.9-73.8s-73.8,33.1-73.8,73.8H288z"/>
<circle class="st2" cx="214.2" cy="145" r="45.6"/>
<path class="st7" d="M288,239.7c0-0.8,0-1.6,0-2.3L288,239.7L288,239.7z"/>
<path class="st7" d="M148,206.9v32.8h0.4V206C148.3,206.3,148.1,206.6,148,206.9z"/>
<path class="st7" d="M156.2,194v45.7h0.4v-46.3C156.5,193.6,156.3,193.8,156.2,194z"/>
<path class="st7" d="M164.4,185.2v54.6h0.4v-54.9C164.7,184.9,164.5,185,164.4,185.2z"/>
<path class="st7" d="M172.6,178.7v61.1h0.4v-61.4L172.6,178.7z"/>
<path class="st7" d="M180.8,173.8v65.9h0.4v-66.1C181.1,173.7,181,173.7,180.8,173.8z"/>
<path class="st7" d="M189,170.2v69.5h0.4v-69.6C189.3,170.2,189.2,170.2,189,170.2z"/>
<path class="st7" d="M197.2,167.8v71.9h0.4v-72C197.5,167.8,197.4,167.8,197.2,167.8z"/>
<path class="st7" d="M205.5,166.4v73.4h0.4v-73.4C205.7,166.4,205.6,166.4,205.5,166.4z"/>
<path class="st7" d="M213.7,165.9v73.8h0.4v-73.8H213.7z"/>
<path class="st7" d="M221.9,166.3v73.5h0.4v-73.4C222.1,166.3,222,166.3,221.9,166.3z"/>
<path class="st7" d="M230.1,167.6v72.1h0.4v-72L230.1,167.6z"/>
<path class="st7" d="M238.3,169.9v69.8h0.4v-69.6C238.6,170,238.4,170,238.3,169.9z"/>
<path class="st7" d="M246.5,173.3v66.4h0.4v-66.2L246.5,173.3z"/>
<path class="st7" d="M254.7,178v61.7h0.4v-61.5C255,178.2,254.9,178.1,254.7,178z"/>
<path class="st7" d="M262.9,184.2v55.5h0.4v-55.1C263.2,184.5,263.1,184.4,262.9,184.2z"/>
<path class="st7" d="M271.1,192.7v47h0.4v-46.5L271.1,192.7z"/>
<path class="st7" d="M279.3,205v34.8h0.4v-33.9C279.7,205.5,279.5,205.2,279.3,205z"/>
<path class="st7" d="M288,237.4c-0.1-2-0.2-4.1-0.4-6.1v8.4h0.4V237.4z"/>
<path class="st7" d="M249,174.5c-21.7-11.6-47.8-11.6-69.6,0c16.3,19.2,45.1,21.6,64.3,5.2C245.6,178.2,247.3,176.4,249,174.5z"/>
<ellipse transform="matrix(0.8112 -0.5847 0.5847 0.8112 -56.3537 156.1908)" class="st1" cx="213.7" cy="165.4" rx="20.1" ry="20.1"/>
<circle class="st7" cx="213.7" cy="165.4" r="12.4"/>
<rect x="79.8" y="158.4" class="st7" width="126.5" height="14"/>
<circle class="st7" cx="79.8" cy="165.4" r="20.1"/>
<circle class="st3" cx="79.8" cy="165.4" r="12.4"/>
<polygon class="st7" points="123.4,158.4 128.5,158.4 133.7,158.4 138.8,158.4 138.8,128.2 118.2,116.3 118.2,158.4 "/>
<polygon class="st7" points="113.1,158.4 113.1,113.3 108,110.4 108,158.4 "/>
<polygon class="st7" points="102.8,158.4 102.8,107.4 97.7,104.4 97.7,158.4 "/>
<path class="st7" d="M195.3,158.4v-54.9c-1.8,0.8-3.5,1.7-5.1,2.7v52.2H195.3z"/>
<path class="st7" d="M185,158.4v-48.5c-1.9,1.5-3.6,3.2-5.1,5v43.5L185,158.4L185,158.4z"/>
<path class="st1" d="M168.5,145c0,3.4,0.4,6.7,1.1,10v-20C168.9,138.3,168.5,141.6,168.5,145z"/>
<path class="st7" d="M177.6,172.4c0.6,0.7,1.1,1.5,1.8,2.2c1.5-0.8,2.9-1.5,4.4-2.2H177.6z"/>
</svg>
