<?xml version="1.0" encoding="utf-8"?>
<!-- Generator: Adobe Illustrator 25.0.0, SVG Export Plug-In . SVG Version: 6.00 Build 0)  -->
<svg version="1.1" id="Layer_2_1_" xmlns="http://www.w3.org/2000/svg" xmlns:xlink="http://www.w3.org/1999/xlink" x="0px" y="0px"
	 width="822.2px" height="808.3px" viewBox="0 0 822.2 808.3" style="enable-background:new 0 0 822.2 808.3;" xml:space="preserve"
	>
<style type="text/css">
	.st0{opacity:0.1;fill:#44BBA4;enable-background:new    ;}
	.st1{fill:#FCDFA6;}
	.st2{fill:#44BBA4;}
	.st3{fill:#FF5553;}
	.st4{fill:#0033AD;}
	.st5{fill:none;stroke:#FFFFFF;stroke-width:2;stroke-miterlimit:10;}
	.st6{fill:#232323;}
	.st7{fill:#FFFFFF;}
</style>
<path class="st0" d="M387.2,790.5l-1.7-773l0,0c0-9.3-7.3-17-16.6-17.5c-3.4-0.2-6.8,0.6-9.8,2.3l0,0L24.8,196.4l0,0
	c-2.3,1.3-4.3,3.2-5.8,5.5c-1.9,2.8-2.9,6.2-2.9,9.6l0,0L17,598l0,0c0,2.7,0.7,5.4,1.9,7.8c1.5,3.1,3.9,5.6,6.9,7.3l0,0l335.1,192.5
	l0,0c2.3,1.4,5,2.2,7.7,2.3c9.7,0.5,18-6.9,18.6-16.6V790.5L387.2,790.5z"/>
<path class="st1" d="M385.5,18.6c0.6-9.7-6.8-18.1-16.5-18.7s-18.1,6.8-18.7,16.5s6.8,18.1,16.5,18.7h0.1
	c9.6,0.6,17.9-6.6,18.6-16.2C385.5,18.8,385.5,18.7,385.5,18.6z"/>
<path class="st2" d="M687.4,218c4.4,8.7,14.9,12.2,23.6,7.8c8.7-4.4,12.2-14.9,7.8-23.6s-14.9-12.2-23.6-7.8l0,0
	C686.5,198.8,683,209.3,687.4,218L687.4,218z"/>
<path class="st1" d="M689.2,587c-5.3,8.1-3.1,19.1,5.1,24.4c8.1,5.3,19.1,3.1,24.4-5.1s3.1-19.1-5.1-24.4l0,0
	C705.5,576.6,694.5,578.9,689.2,587z"/>
<path class="st2" d="M387.2,791.6c0.6-9.7-6.9-18-16.6-18.6s-18,6.9-18.6,16.6c-0.6,9.7,6.9,18.1,16.6,18.6l0,0
	C378.3,808.7,386.6,801.3,387.2,791.6z"/>
<path class="st3" d="M48.4,221.2c5.4-8.1,3.1-19.1-5-24.4c-8.1-5.4-19.1-3.1-24.4,5c-5.4,8.1-3.1,19.1,5,24.4l0,0
	C32.1,231.6,43,229.3,48.4,221.2z"/>
<path class="st4" d="M50.2,590.2c-4.4-8.7-14.9-12.2-23.6-7.8s-12.2,14.9-7.8,23.6c4.4,8.7,14.9,12.2,23.6,7.8l0,0
	C51.1,609.5,54.6,599,50.2,590.2C50.2,590.3,50.2,590.3,50.2,590.2z"/>
<rect x="493.7" y="119.3" class="st1" width="14.7" height="264.8"/>
<rect x="464.4" y="119.3" class="st1" width="14.7" height="264.8"/>
<polygon class="st1" points="405.7,119.3 405.7,384.1 420.3,384.1 435,384.1 435,119.3 420.3,119.3 "/>
<rect x="361.6" y="119.3" class="st1" width="14.7" height="264.8"/>
<polygon class="st1" points="317.6,119.3 302.9,119.3 288.2,119.3 288.2,384.1 302.9,384.1 317.6,384.1 332.3,384.1 346.9,384.1 
	346.9,119.3 332.3,119.3 "/>
<rect x="258.9" y="119.3" class="st1" width="14.7" height="264.8"/>
<rect x="229.5" y="119.3" class="st1" width="14.7" height="264.8"/>
<polygon class="st4" points="354.3,506.2 354.3,302 177.4,199.9 0.5,302 0.5,506.2 177.4,608.3 "/>
<polygon class="st4" points="25.5,491.8 25.5,316.4 177.4,228.7 329.3,316.4 329.3,491.8 177.4,579.5 "/>
<line class="st5" x1="177.4" y1="506.2" x2="177.4" y2="608.3"/>
<line class="st5" x1="265.8" y1="455.2" x2="354.3" y2="506.2"/>
<line class="st5" x1="89" y1="455.2" x2="0.5" y2="506.2"/>
<line class="st5" x1="177.4" y1="302" x2="177.4" y2="199.9"/>
<line class="st5" x1="89" y1="353" x2="0.5" y2="302"/>
<ellipse class="st6" cx="658.4" cy="470.7" rx="115" ry="36.7"/>
<path class="st6" d="M731.8,494.4h-27.9l69.4,122.1l28.6-14.3C855.7,575.5,791.9,494.4,731.8,494.4z"/>
<path class="st2" d="M773.3,616.5c0-116.6-94.5-211-211-211s-211,94.5-211,211H773.3z"/>
<circle class="st2" cx="562.3" cy="345.9" r="130.4"/>
<path class="st7" d="M773.3,616.5c0-2.2,0-4.5-0.1-6.7L773.3,616.5L773.3,616.5z"/>
<path class="st7" d="M373.2,522.8v93.7h1.2v-96.2C374,521.1,373.6,522,373.2,522.8z"/>
<path class="st7" d="M396.6,485.8v130.7h1.2V484.2C397.5,484.8,397.1,485.4,396.6,485.8z"/>
<path class="st7" d="M420.1,460.6v155.9h1.2v-157C420.9,459.9,420.5,460.2,420.1,460.6z"/>
<path class="st7" d="M443.6,442.1v174.5h1.2V441.2L443.6,442.1z"/>
<path class="st7" d="M467,428.2v188.3h1.2v-189C467.8,427.8,467.4,428,467,428.2z"/>
<path class="st7" d="M490.5,418v198.5h1.2V417.6C491.3,417.8,490.9,417.9,490.5,418z"/>
<path class="st7" d="M513.9,411.1v205.5h1.2V410.8C514.7,411,514.3,411.1,513.9,411.1z"/>
<path class="st7" d="M537.4,407v209.6h1.2V406.8C538.2,406.9,537.8,406.9,537.4,407z"/>
<path class="st7" d="M560.9,405.5v211h1.2v-211H560.9z"/>
<path class="st7" d="M584.3,406.6v209.9h1.2V406.8C585.1,406.7,584.7,406.7,584.3,406.6z"/>
<path class="st7" d="M607.8,410.4v206.1h1.2V410.7L607.8,410.4z"/>
<path class="st7" d="M631.2,417v199.5h1.2v-199C632.1,417.3,631.6,417.2,631.2,417z"/>
<path class="st7" d="M654.7,426.8v189.8h1.2V427.4L654.7,426.8z"/>
<path class="st7" d="M678.1,440.1v176.4h1.2V440.9C679,440.7,678.6,440.4,678.1,440.1z"/>
<path class="st7" d="M701.6,458v158.5h1.2V459.1C702.4,458.8,702,458.4,701.6,458z"/>
<path class="st7" d="M725.1,482.2v134.3h1.2V483.7L725.1,482.2z"/>
<path class="st7" d="M748.5,517.2v99.4h1.2v-97C749.4,518.8,748.9,518,748.5,517.2z"/>
<path class="st7" d="M773.2,609.8c-0.2-5.8-0.6-11.6-1.2-17.3v23.9h1.2V609.8z"/>
<path class="st7" d="M661.7,430.3c-62.1-33.1-136.7-33.1-198.8,0c46.6,54.9,128.9,61.6,183.8,15
	C652.1,440.7,657.1,435.7,661.7,430.3z"/>
<ellipse transform="matrix(0.7071 -0.7071 0.7071 0.7071 -121.4216 515.1129)" class="st1" cx="561.1" cy="404.1" rx="57.4" ry="57.4"/>
<circle class="st7" cx="561.1" cy="404.1" r="35.4"/>
<rect x="178.3" y="384.1" class="st7" width="361.3" height="40"/>
<circle class="st7" cx="178.3" cy="404.1" r="57.4"/>
<circle class="st3" cx="178.3" cy="404.1" r="35.4"/>
<polygon class="st7" points="302.9,384.1 317.6,384.1 332.3,384.1 346.9,384.1 346.9,297.8 288.2,263.9 288.2,384.1 "/>
<polygon class="st7" points="273.5,384.1 273.5,255.4 258.9,246.9 258.9,384.1 "/>
<polygon class="st7" points="244.2,384.1 244.2,238.4 229.5,230 229.5,384.1 "/>
<path class="st7" d="M508.4,384.1v-157c-5.1,2.3-10,4.9-14.7,7.8v149.2H508.4z"/>
<path class="st7" d="M479.1,384.1V245.5c-5.3,4.4-10.2,9.1-14.7,14.3v124.3L479.1,384.1L479.1,384.1z"/>
<path class="st1" d="M431.9,345.9c0,9.6,1,19.2,3.1,28.6v-57.1C432.9,326.8,431.9,336.3,431.9,345.9z"/>
<path class="st7" d="M457.9,424.1c1.6,2.1,3.2,4.2,5,6.2c4.2-2.2,8.4-4.3,12.7-6.2H457.9z"/>
</svg>
