<?xml version="1.0" encoding="utf-8"?>
<!-- Generator: Adobe Illustrator 25.0.0, SVG Export Plug-In . SVG Version: 6.00 Build 0)  -->
<svg version="1.1" id="Layer_23" xmlns="http://www.w3.org/2000/svg" xmlns:xlink="http://www.w3.org/1999/xlink" x="0px" y="0px"
	 viewBox="0 0 705.6 326" style="enable-background:new 0 0 705.6 326;" xml:space="preserve">
<style type="text/css">
	.st0{opacity:0.1;fill:#44BBA4;enable-background:new    ;}
	.st1{fill:#0033AD;}
	.st2{fill:#FCDFA6;}
	.st3{fill:#FF5553;}
	.st4{fill:#44BBA4;}
	.st5{fill:#232323;}
	.st6{fill:#FFFFFF;}
</style>
<path class="st0" d="M149.3,295.3l-0.6-270.5l0,0c0-3.3-2.6-6-5.8-6.1c-1.2-0.1-2.4,0.2-3.4,0.8l0,0l-117,67.9l0,0
	c-0.8,0.5-1.5,1.1-2,1.9c-0.7,1-1,2.2-1,3.4l0,0l0.3,135.3l0,0c0,0.9,0.2,1.9,0.7,2.7c0.5,1.1,1.4,2,2.4,2.6l0,0l117.3,67.4l0,0
	c0.8,0.5,1.8,0.8,2.7,0.8c3.4,0.2,6.3-2.4,6.5-5.8V295.3L149.3,295.3z"/>
<path class="st1" d="M148.7,25.1c0.2-3.4-2.4-6.3-5.8-6.5c-3.4-0.2-6.3,2.4-6.5,5.8c-0.2,3.4,2.4,6.3,5.8,6.5h0
	c3.4,0.2,6.3-2.3,6.5-5.7C148.7,25.2,148.7,25.2,148.7,25.1z"/>
<path class="st2" d="M254.3,94.9c1.5,3,5.2,4.3,8.3,2.7c3-1.5,4.3-5.2,2.7-8.3c-1.5-3-5.2-4.3-8.3-2.7l0,0
	C254,88.2,252.8,91.9,254.3,94.9C254.3,94.9,254.3,94.9,254.3,94.9z"/>
<path class="st3" d="M255,224.1c-1.9,2.8-1.1,6.7,1.8,8.5c2.8,1.9,6.7,1.1,8.5-1.8c1.9-2.9,1.1-6.7-1.8-8.5l0,0
	C260.6,220.4,256.8,221.2,255,224.1z"/>
<path class="st4" d="M149.3,295.7c0.2-3.4-2.4-6.3-5.8-6.5s-6.3,2.4-6.5,5.8c-0.2,3.4,2.4,6.3,5.8,6.5l0,0
	C146.1,301.7,149,299.1,149.3,295.7z"/>
<path class="st4" d="M30.7,96c1.9-2.8,1.1-6.7-1.8-8.5c-2.8-1.9-6.7-1.1-8.5,1.8c-1.9,2.8-1.1,6.7,1.8,8.5l0,0
	C25,99.7,28.8,98.9,30.7,96z"/>
<path class="st2" d="M31.3,225.2c-1.5-3-5.2-4.3-8.3-2.7s-4.3,5.2-2.7,8.3c1.5,3,5.2,4.3,8.3,2.7l0,0
	C31.6,231.9,32.8,228.3,31.3,225.2C31.3,225.2,31.3,225.2,31.3,225.2z"/>
<path class="st5" d="M149.3,266.7v22.8c19.1-0.9,33.7-5.7,33.7-11.4C182.9,272.4,168.4,267.6,149.3,266.7z"/>
<circle class="st4" cx="142.8" cy="160" r="42.2"/>
<circle class="st4" cx="142.8" cy="221.8" r="58"/>
<circle class="st1" cx="142.8" cy="99.1" r="58"/>
<path class="st6" d="M142.8,202.2c16.3,0,31.2-9.4,38.2-24.2c-21.8-19.1-54.5-19.1-76.3,0C111.6,192.8,126.5,202.2,142.8,202.2z"/>
<path class="st6" d="M181.2,142.6c-9.7-21.2-34.6-30.6-55.9-20.9c-9.3,4.2-16.7,11.7-20.9,20.9C126.3,162,159.3,162,181.2,142.6z"/>
<rect x="66.6" y="83.9" class="st4" width="30.5" height="30.5"/>
<path class="st5" d="M120.8,100.1l-6.1,6.1c-0.5,0.5-1.4,0.5-1.9,0c-0.2-0.2-0.4-0.6-0.4-1V93c0-0.8,0.6-1.4,1.4-1.4
	c0.3,0,0.7,0.1,0.9,0.4l6.1,6.1C121.3,98.6,121.3,99.5,120.8,100.1L120.8,100.1z"/>
<path class="st5" d="M120.8,222l-6.1,6.1c-0.5,0.5-1.4,0.5-1.9,0c-0.2-0.2-0.4-0.6-0.4-1v-12.2c0-0.8,0.6-1.4,1.4-1.4
	c0.3,0,0.7,0.1,0.9,0.4l6.1,6.1C121.3,220.6,121.3,221.4,120.8,222L120.8,222z"/>
<path class="st5" d="M181.7,222l-6.1,6.1c-0.5,0.5-1.4,0.5-1.9,0c-0.2-0.2-0.4-0.6-0.4-1v-12.2c0-0.8,0.6-1.4,1.4-1.4
	c0.3,0,0.7,0.1,0.9,0.4l6.1,6.1C182.3,220.6,182.3,221.4,181.7,222L181.7,222z"/>
<path class="st5" d="M169.3,159.1l6.1-6.1c0.5-0.5,1.4-0.5,1.9,0c0.2,0.2,0.4,0.6,0.4,1v12.2c0,0.8-0.6,1.4-1.4,1.4
	c-0.4,0-0.7-0.1-0.9-0.4l-6.1-6.1C168.8,160.5,168.8,159.6,169.3,159.1z"/>
<path class="st6" d="M142.8,114.3L142.8,114.3c-8.4,0-15.2-6.8-15.2-15.2l0,0c0-8.4,6.8-15.2,15.2-15.2l0,0
	c8.4,0,15.2,6.8,15.2,15.2l0,0C158,107.5,151.2,114.3,142.8,114.3z"/>
<rect x="127.6" y="144.8" class="st2" width="30.5" height="30.5"/>
<path class="st6" d="M142.8,236.2L142.8,236.2c-8.4,0-15.2-6.8-15.2-15.2l0,0c0-8.4,6.8-15.2,15.2-15.2l0,0
	c8.4,0,15.2,6.8,15.2,15.2l0,0C158,229.4,151.2,236.2,142.8,236.2z"/>
<rect x="188.5" y="205.8" class="st3" width="30.5" height="30.5"/>
<path class="st5" d="M188.5,161.4h-15.2v-2.8h15.2c16.1,0,29.1-13,29.1-29.1s-13-29.1-29.1-29.1H158v-2.8h30.5
	c17.6,0,31.9,14.3,31.9,31.9C220.4,147.1,206.1,161.4,188.5,161.4z"/>
<path class="st5" d="M112.3,222.4H97.1c-17.6,0-31.8-14.2-31.8-31.8s14.2-31.9,31.8-31.9h30.5v2.8H97.1c-16.1,0-29.1,13-29.1,29.1
	s13,29.1,29.1,29.1h15.2V222.4z"/>
<rect x="158" y="219.9" class="st5" width="15.2" height="2.8"/>
<rect x="97.1" y="97.7" class="st5" width="15.2" height="2.8"/>
<path class="st6" d="M169.3,159.1l6.1-6.1c0.5-0.5,1.4-0.5,1.9,0c0.2,0.2,0.4,0.6,0.4,1v12.2c0,0.8-0.6,1.4-1.4,1.4
	c-0.4,0-0.7-0.1-0.9-0.4l-6.1-6.1C168.8,160.5,168.8,159.6,169.3,159.1z"/>
<path class="st6" d="M185,158.7h-11.7v2.8H185c0-0.5,0-0.9,0-1.4C185,159.6,185,159.1,185,158.7z"/>
<path class="st6" d="M127.6,158.7h-26.9c0,0.5,0,0.9,0,1.4c0,0.5,0,0.9,0,1.4h26.9V158.7z"/>
<g>
	<path class="st6" d="M105.3,74.3c-0.9-0.7-1.4-1.5-1.4-2.5c-0.1-0.9,0.2-1.7,0.7-2.4c0.6-0.7,1.3-1.2,2.2-1.3
		c0.9-0.1,1.8,0.1,2.7,0.8l4.3,3.4c0.9,0.7,1.4,1.5,1.4,2.4c0.1,0.9-0.2,1.7-0.7,2.5c-0.6,0.7-1.3,1.1-2.2,1.3
		c-0.9,0.2-1.8-0.1-2.7-0.8L105.3,74.3z M108.6,70.3c-1-0.7-1.9-0.7-2.6,0.2c-0.7,0.9-0.5,1.7,0.5,2.5l4.2,3.3
		c1,0.8,1.9,0.7,2.6-0.2c0.7-0.9,0.5-1.7-0.5-2.5L108.6,70.3z"/>
	<path class="st6" d="M112.1,61.8l1.4-1.1l7.7,9.8l-1.4,1.1L112.1,61.8z"/>
	<path class="st6" d="M120.9,59.8c-0.5-1-0.5-2-0.1-2.9c0.4-0.8,0.9-1.4,1.8-1.8c0.8-0.4,1.7-0.5,2.6-0.2c0.9,0.3,1.5,0.9,2.1,2
		l2.3,5c0.5,1,0.5,2,0.2,2.8c-0.3,0.8-0.9,1.4-1.8,1.9c-0.8,0.4-1.7,0.4-2.5,0.1c-0.9-0.3-1.6-0.9-2.1-2L120.9,59.8z M125.6,57.8
		c-0.6-1.1-1.3-1.5-2.3-1c-1,0.5-1.3,1.3-0.7,2.5l2.2,4.8c0.6,1.1,1.3,1.5,2.3,1c1-0.5,1.3-1.3,0.7-2.4L125.6,57.8z"/>
	<path class="st6" d="M132.9,55.2c-0.1-1.2,0.1-2.1,0.7-2.8c0.6-0.7,1.3-1.1,2.2-1.3c0.9-0.1,1.8,0.1,2.5,0.6
		c0.7,0.5,1.2,1.4,1.4,2.5l0.8,5.4c0.1,1.1-0.1,2.1-0.7,2.8c-0.6,0.7-1.3,1.1-2.2,1.3c-0.9,0.1-1.7-0.1-2.4-0.6
		c-0.8-0.5-1.3-1.3-1.4-2.5L132.9,55.2z M138,54.6c-0.2-1.2-0.9-1.8-2-1.6c-1.1,0.2-1.6,0.9-1.4,2.1l0.7,5.2c0.2,1.3,0.8,1.8,2,1.6
		c1.1-0.2,1.6-0.9,1.4-2.1L138,54.6z"/>
	<path class="st6" d="M145.8,54.2c0.2-1.1,0.7-2,1.4-2.5c0.7-0.5,1.6-0.7,2.4-0.6c0.9,0.1,1.7,0.6,2.2,1.3c0.6,0.7,0.8,1.6,0.6,2.8
		l-0.8,5.4c-0.2,1.1-0.7,2-1.4,2.5c-0.7,0.5-1.6,0.7-2.5,0.6c-0.9-0.1-1.6-0.6-2.2-1.3c-0.6-0.7-0.8-1.6-0.7-2.8L145.8,54.2z
		 M150.8,55c0.1-1.2-0.3-2-1.4-2.1c-1.1-0.1-1.8,0.4-2,1.6l-0.8,5.2c-0.2,1.3,0.3,2,1.4,2.1c1.1,0.1,1.8-0.4,2-1.6L150.8,55z"/>
	<path class="st6" d="M158.4,56.9c0.5-1,1.2-1.7,2.1-2c0.8-0.3,1.7-0.2,2.5,0.1c0.8,0.4,1.4,1,1.8,1.9c0.3,0.8,0.3,1.8-0.2,2.8
		l-2.3,5c-0.5,1-1.2,1.7-2.1,2c-0.8,0.3-1.7,0.2-2.6-0.1c-0.8-0.4-1.4-1-1.8-1.9c-0.4-0.8-0.3-1.8,0.1-2.8L158.4,56.9z M163,59.1
		c0.5-1.2,0.2-2-0.7-2.5c-1-0.5-1.8-0.1-2.3,1l-2.2,4.8c-0.5,1.2-0.3,2,0.7,2.4c1,0.5,1.8,0.1,2.3-1L163,59.1z"/>
	<path class="st6" d="M169.8,63.1c0.8-0.8,1.6-1.3,2.6-1.3c0.9,0,1.7,0.2,2.4,0.9s1.1,1.4,1.2,2.3c0.1,0.9-0.2,1.8-1,2.7l-3.6,4.1
		c-0.8,0.8-1.6,1.3-2.5,1.3c-0.9,0-1.7-0.3-2.4-0.9c-0.7-0.6-1-1.4-1.2-2.3c-0.1-0.9,0.2-1.8,0.9-2.7L169.8,63.1z M173.5,66.6
		c0.8-0.9,0.8-1.8,0-2.6c-0.8-0.7-1.7-0.6-2.5,0.3l-3.5,4c-0.8,0.9-0.8,1.8,0,2.6c0.8,0.7,1.7,0.6,2.6-0.3L173.5,66.6z"/>
	<path class="st6" d="M181.8,70.6l1,1.5l-10.2,7.2l-1.1-1.5L181.8,70.6z"/>
</g>
<g>
	<path class="st6" d="M110.2,243.1c0.9-0.7,1.8-1,2.7-0.8c0.9,0.1,1.6,0.5,2.2,1.2c0.6,0.7,0.9,1.5,0.8,2.4s-0.5,1.8-1.4,2.5
		l-4.3,3.5c-0.9,0.7-1.8,1-2.7,0.9c-0.9-0.1-1.6-0.5-2.2-1.3c-0.6-0.7-0.8-1.5-0.8-2.4c0-0.9,0.5-1.8,1.4-2.5L110.2,243.1z
		 M113.4,247.1c0.9-0.8,1.1-1.6,0.4-2.5c-0.7-0.8-1.6-0.9-2.6-0.1l-4.1,3.4c-1,0.8-1.1,1.6-0.4,2.5c0.7,0.8,1.6,0.9,2.6,0.1
		L113.4,247.1z"/>
	<path class="st6" d="M120.2,248.7l1.4,1.1l-7.6,9.9l-1.4-1.1L120.2,248.7z"/>
	<path class="st6" d="M123.3,255.2c0.5-1.1,1.2-1.7,2.1-2c0.8-0.3,1.7-0.2,2.5,0.1c0.8,0.4,1.4,1,1.8,1.8c0.3,0.8,0.3,1.8-0.2,2.8
		l-2.3,5c-0.5,1-1.2,1.7-2,2c-0.8,0.3-1.7,0.2-2.6-0.1c-0.8-0.4-1.4-1-1.8-1.8c-0.4-0.8-0.3-1.8,0.1-2.8L123.3,255.2z M127.9,257.5
		c0.5-1.2,0.2-2-0.8-2.4c-1-0.5-1.8-0.1-2.3,1l-2.2,4.8c-0.5,1.2-0.2,2,0.7,2.4c1,0.5,1.8,0.1,2.3-1L127.9,257.5z"/>
	<path class="st6" d="M133.4,259.2c0.2-1.1,0.7-2,1.5-2.5c0.7-0.5,1.6-0.7,2.4-0.6c0.9,0.1,1.7,0.6,2.2,1.3c0.6,0.7,0.8,1.6,0.6,2.8
		l-0.8,5.4c-0.2,1.1-0.7,2-1.4,2.4c-0.7,0.5-1.6,0.7-2.5,0.6c-0.9-0.1-1.6-0.6-2.2-1.3c-0.6-0.7-0.8-1.6-0.7-2.8L133.4,259.2z
		 M138.5,260.1c0.1-1.2-0.3-2-1.4-2.1c-1.1-0.1-1.8,0.4-2,1.6l-0.8,5.2c-0.2,1.3,0.3,2,1.4,2.1c1.1,0.1,1.8-0.4,2-1.6L138.5,260.1z"
		/>
	<path class="st6" d="M144.2,260.4c-0.1-1.2,0.1-2.1,0.7-2.8c0.6-0.7,1.3-1.1,2.2-1.2c0.9-0.1,1.8,0.1,2.5,0.6
		c0.7,0.5,1.2,1.4,1.4,2.5l0.7,5.5c0.1,1.2-0.1,2.1-0.7,2.8c-0.6,0.7-1.3,1.1-2.3,1.2c-0.9,0.1-1.7-0.1-2.5-0.6
		c-0.8-0.5-1.2-1.4-1.4-2.5L144.2,260.4z M149.3,259.8c-0.2-1.2-0.8-1.8-1.9-1.7c-1.1,0.2-1.6,0.9-1.4,2.1l0.7,5.2
		c0.2,1.3,0.8,1.8,1.9,1.7c1.1-0.1,1.6-0.8,1.5-2.1L149.3,259.8z"/>
	<path class="st6" d="M154.3,254.9l1.7-0.6l4.3,11.7l-1.7,0.6L154.3,254.9z"/>
	<path class="st6" d="M161.4,255.7c-0.6-1-0.8-1.9-0.6-2.8c0.2-0.9,0.7-1.6,1.5-2.1c0.8-0.5,1.6-0.7,2.5-0.6
		c0.9,0.1,1.7,0.7,2.3,1.6l3,4.6c0.6,1,0.8,1.9,0.6,2.8s-0.7,1.6-1.5,2.1c-0.8,0.5-1.6,0.7-2.5,0.5c-0.9-0.1-1.7-0.7-2.3-1.6
		L161.4,255.7z M165.8,253c-0.7-1-1.5-1.2-2.5-0.7c-0.9,0.6-1.1,1.5-0.4,2.5l2.9,4.4c0.7,1,1.5,1.3,2.5,0.7c0.9-0.6,1.1-1.5,0.4-2.5
		L165.8,253z"/>
	<path class="st6" d="M170.2,249.3c-0.9-0.8-1.3-1.6-1.3-2.6c0-0.9,0.2-1.7,0.8-2.4c0.6-0.7,1.4-1.1,2.3-1.2
		c0.9-0.1,1.8,0.2,2.7,0.9l4.2,3.6c0.8,0.8,1.3,1.6,1.3,2.5c0,0.9-0.2,1.7-0.8,2.4s-1.4,1.1-2.2,1.2c-0.9,0.1-1.8-0.2-2.7-0.9
		L170.2,249.3z M173.7,245.5c-1-0.8-1.8-0.8-2.6,0c-0.7,0.8-0.6,1.7,0.3,2.5l4,3.5c1,0.8,1.8,0.8,2.6,0c0.7-0.8,0.6-1.7-0.4-2.6
		L173.7,245.5z"/>
</g>
</svg>
