<svg id="Layer_1" data-name="Layer 1" xmlns="http://www.w3.org/2000/svg" viewBox="0 0 271.83 251.17"><defs><style>.cls-1{fill:#010101;}</style></defs><path class="cls-1" d="M138.22,199.2a18.34,18.34,0,0,0,17.24,19.32l1,0a18.3,18.3,0,1,0-18.29-19.35Z" transform="translate(-63.73 -74.56)"/><path class="cls-1" d="M70,194.53a5.91,5.91,0,1,0,5.58,6.24A5.9,5.9,0,0,0,70,194.53Z" transform="translate(-63.73 -74.56)"/><path class="cls-1" d="M137.06,93a5.92,5.92,0,1,0-7.95-2.62A5.92,5.92,0,0,0,137.06,93Z" transform="translate(-63.73 -74.56)"/><path class="cls-1" d="M155.63,125.37a9.14,9.14,0,1,0-12.28-4.05A9.13,9.13,0,0,0,155.63,125.37Z" transform="translate(-63.73 -74.56)"/><path class="cls-1" d="M93.14,147.64A7.53,7.53,0,1,0,91,137.22,7.53,7.53,0,0,0,93.14,147.64Z" transform="translate(-63.73 -74.56)"/><path class="cls-1" d="M104.27,191.23a9.14,9.14,0,1,0,8.61,9.65A9.15,9.15,0,0,0,104.27,191.23Z" transform="translate(-63.73 -74.56)"/><path class="cls-1" d="M94.14,252.68A7.53,7.53,0,1,0,104.26,256,7.53,7.53,0,0,0,94.14,252.68Z" transform="translate(-63.73 -74.56)"/><path class="cls-1" d="M129.67,172.34a10.76,10.76,0,1,0-3.1-14.9A10.75,10.75,0,0,0,129.67,172.34Z" transform="translate(-63.73 -74.56)"/><path class="cls-1" d="M242.39,124.65A9.15,9.15,0,1,0,239.76,112,9.14,9.14,0,0,0,242.39,124.65Z" transform="translate(-63.73 -74.56)"/><path class="cls-1" d="M261.15,92.37a5.92,5.92,0,1,0-1.71-8.19A5.92,5.92,0,0,0,261.15,92.37Z" transform="translate(-63.73 -74.56)"/><path class="cls-1" d="M243.83,181.78a18.3,18.3,0,1,0-2.09,36.55l1.06,0a18.3,18.3,0,0,0,13.64-30.49A18.08,18.08,0,0,0,243.83,181.78Z" transform="translate(-63.73 -74.56)"/><path class="cls-1" d="M161.64,171.07A18.23,18.23,0,0,0,178,181.14a18.31,18.31,0,0,0,16.34-26.55A18.24,18.24,0,0,0,178,144.52a18.31,18.31,0,0,0-16.34,26.55Z" transform="translate(-63.73 -74.56)"/><path class="cls-1" d="M305.14,147.62A7.53,7.53,0,1,0,295,144.28,7.54,7.54,0,0,0,305.14,147.62Z" transform="translate(-63.73 -74.56)"/><path class="cls-1" d="M258.72,153.45a10.76,10.76,0,1,0,14.45,4.77A10.76,10.76,0,0,0,258.72,153.45Z" transform="translate(-63.73 -74.56)"/><path class="cls-1" d="M199,89.61a7.53,7.53,0,1,0-7.1-7.94A7.52,7.52,0,0,0,199,89.61Z" transform="translate(-63.73 -74.56)"/><path class="cls-1" d="M198.87,137a10.76,10.76,0,1,0-10.13-11.36A10.76,10.76,0,0,0,198.87,137Z" transform="translate(-63.73 -74.56)"/><path class="cls-1" d="M140.57,246.84a10.76,10.76,0,1,0-14.45-4.76A10.76,10.76,0,0,0,140.57,246.84Z" transform="translate(-63.73 -74.56)"/><path class="cls-1" d="M205.83,152.7a18.29,18.29,0,1,0,15.32-8.27A18.31,18.31,0,0,0,205.83,152.7Z" transform="translate(-63.73 -74.56)"/><path class="cls-1" d="M237.65,229.23a18.31,18.31,0,1,0-16.34,26.54,18.31,18.31,0,0,0,16.34-26.54Z" transform="translate(-63.73 -74.56)"/><path class="cls-1" d="M269.62,228a10.76,10.76,0,1,0,3.09,14.9A10.78,10.78,0,0,0,269.62,228Z" transform="translate(-63.73 -74.56)"/><path class="cls-1" d="M304.66,200.46a9.14,9.14,0,1,0-9.65,8.61A9.15,9.15,0,0,0,304.66,200.46Z" transform="translate(-63.73 -74.56)"/><path class="cls-1" d="M330,194a5.92,5.92,0,1,0,5.57,6.25A5.93,5.93,0,0,0,330,194Z" transform="translate(-63.73 -74.56)"/><path class="cls-1" d="M306.14,252.65a7.53,7.53,0,1,0,2.17,10.43A7.53,7.53,0,0,0,306.14,252.65Z" transform="translate(-63.73 -74.56)"/><path class="cls-1" d="M138.14,307.92a5.92,5.92,0,1,0,1.7,8.2A5.92,5.92,0,0,0,138.14,307.92Z" transform="translate(-63.73 -74.56)"/><path class="cls-1" d="M262.22,307.3a5.92,5.92,0,1,0,8,2.62A5.92,5.92,0,0,0,262.22,307.3Z" transform="translate(-63.73 -74.56)"/><path class="cls-1" d="M193.46,247.59a18.29,18.29,0,1,0-15.32,8.27A18.21,18.21,0,0,0,193.46,247.59Z" transform="translate(-63.73 -74.56)"/><path class="cls-1" d="M156.9,275.65a9.14,9.14,0,1,0,2.63,12.66A9.16,9.16,0,0,0,156.9,275.65Z" transform="translate(-63.73 -74.56)"/><path class="cls-1" d="M199.56,310.68a7.53,7.53,0,1,0,7.09,7.95A7.54,7.54,0,0,0,199.56,310.68Z" transform="translate(-63.73 -74.56)"/><path class="cls-1" d="M199.64,263.3a10.76,10.76,0,1,0,10.13,11.35A10.75,10.75,0,0,0,199.64,263.3Z" transform="translate(-63.73 -74.56)"/><path class="cls-1" d="M243.65,274.92A9.15,9.15,0,1,0,255.94,279,9.14,9.14,0,0,0,243.65,274.92Z" transform="translate(-63.73 -74.56)"/></svg>