<svg id="Layer_11" data-name="Layer 11" xmlns="http://www.w3.org/2000/svg" viewBox="0 0 739.08 808.26"><defs><style>.cls-1,.cls-5{fill:#44bba4;}.cls-1{opacity:0.1;isolation:isolate;}.cls-2{fill:#ff5553;}.cls-3{fill:#fcdfa6;}.cls-4{fill:#232323;}.cls-6{fill:#0033ad;}.cls-7{fill:#fff;}</style></defs><path class="cls-1" d="M978.4,926.4l-1.7-773h0a17.54,17.54,0,0,0-16.6-17.5,18,18,0,0,0-9.8,2.3h0L616,332.3h0a16.93,16.93,0,0,0-5.8,5.5,17.12,17.12,0,0,0-2.9,9.6h0l.9,386.5h0a16.93,16.93,0,0,0,1.9,7.8A17.42,17.42,0,0,0,617,749h0L952.1,941.5h0a16.89,16.89,0,0,0,7.7,2.3,17.65,17.65,0,0,0,18.6-16.6v-.8Z" transform="translate(-573.7 -135.87)"/><path class="cls-2" d="M976.7,154.5A17.63,17.63,0,1,0,958.1,171,17.45,17.45,0,0,0,976.7,154.5Z" transform="translate(-573.7 -135.87)"/><path class="cls-3" d="M1278.6,353.9a17.58,17.58,0,1,0,7.8-23.6A17.52,17.52,0,0,0,1278.6,353.9Z" transform="translate(-573.7 -135.87)"/><path class="cls-4" d="M1280.4,722.9a17.63,17.63,0,1,0,24.4-5.1A17.63,17.63,0,0,0,1280.4,722.9Z" transform="translate(-573.7 -135.87)"/><path class="cls-5" d="M978.4,927.5a17.63,17.63,0,1,0-18.6,16.6A17.72,17.72,0,0,0,978.4,927.5Z" transform="translate(-573.7 -135.87)"/><path class="cls-3" d="M639.6,357.1a17.63,17.63,0,1,0-24.4,5A17.63,17.63,0,0,0,639.6,357.1Z" transform="translate(-573.7 -135.87)"/><path class="cls-6" d="M641.4,726.1a17.58,17.58,0,1,0-7.8,23.6A17.52,17.52,0,0,0,641.4,726.1Z" transform="translate(-573.7 -135.87)"/><polygon class="cls-3" points="302.8 581.03 507 581.03 609.1 404.13 507 227.23 302.8 227.23 200.7 404.13 302.8 581.03"/><polyline class="cls-4" points="337.4 551.53 302.8 581.03 507 581.03 608.9 494.13 470.6 494.13 337.4 551.53"/><rect class="cls-4" x="462.3" y="494.13" width="241.5" height="29.5"/><polyline class="cls-5" points="337.4 521.03 302.8 581.03 507 581.03 608.9 404.13 470.6 404.13 337.4 521.03"/><rect class="cls-7" x="509.8" y="374.13" width="198.1" height="60"/><rect class="cls-7" y="374.13" width="289.3" height="60"/><rect class="cls-5" x="479.1" y="434.13" width="241.5" height="60"/><rect class="cls-3" x="33.6" y="314.13" width="323.1" height="60"/><polygon class="cls-2" points="507 227.23 472.4 287.23 522.5 374.13 591.8 374.13 507 227.23"/><polygon class="cls-2" points="302.8 581.03 337.4 521.03 287.3 434.13 218 434.13 302.8 581.03"/><rect class="cls-7" x="774.38" y="479.44" width="69.3" height="1" transform="translate(-584.77 804.85) rotate(-60.01)"/><rect class="cls-7" x="740.31" y="479.5" width="69.3" height="1" transform="translate(-601.85 775.37) rotate(-60.01)"/><rect class="cls-7" x="706.3" y="479.47" width="69.3" height="1" transform="translate(-618.84 745.89) rotate(-60.01)"/><rect class="cls-7" x="672.28" y="479.44" width="69.3" height="1" transform="translate(-635.83 716.42) rotate(-60.01)"/><rect class="cls-7" x="638.21" y="479.49" width="69.3" height="1" transform="translate(-652.91 686.94) rotate(-60.01)"/><rect class="cls-7" x="604.19" y="479.46" width="69.3" height="1" transform="translate(-669.9 657.46) rotate(-60.01)"/><rect class="cls-7" x="570.18" y="479.43" width="69.3" height="1" transform="translate(-686.88 627.98) rotate(-60.01)"/><rect class="cls-7" x="1028.63" y="392.66" width="69.3" height="1" transform="translate(-382.82 981.21) rotate(-59.98)"/><rect class="cls-7" x="994.61" y="392.63" width="69.3" height="1" transform="translate(-399.79 951.75) rotate(-59.98)"/><rect class="cls-7" x="960.59" y="392.6" width="69.3" height="1" transform="translate(-416.76 922.28) rotate(-59.98)"/><rect class="cls-7" x="926.57" y="392.61" width="69.3" height="1" transform="translate(-433.45 893.23) rotate(-60.01)"/><rect class="cls-7" x="892.55" y="392.58" width="69.3" height="1" transform="translate(-450.44 863.75) rotate(-60.01)"/><rect class="cls-7" x="857.93" y="452.54" width="69.3" height="1" transform="translate(-519.69 863.76) rotate(-60.01)"/><rect class="cls-7" x="823.27" y="512.59" width="69.3" height="1" transform="translate(-589.03 863.77) rotate(-60.01)"/><rect class="cls-7" x="858.53" y="392.55" width="69.3" height="1" transform="translate(-467.43 834.28) rotate(-60.01)"/><rect class="cls-7" x="823.87" y="452.6" width="69.3" height="1" transform="translate(-536.77 834.28) rotate(-60.01)"/><rect class="cls-7" x="789.25" y="512.56" width="69.3" height="1" transform="translate(-606.02 834.29) rotate(-60.01)"/><rect class="cls-7" x="801.3" y="406.02" width="100.3" height="1" transform="translate(-499.97 804.87) rotate(-60.01)"/><polygon class="cls-7" points="337.4 521.03 270 404.13 337.4 287.23 472.4 287.23 539.8 404.13 472.4 521.03 337.4 521.03"/><circle class="cls-7" cx="358.9" cy="540.23" r="8.2"/><circle class="cls-7" cx="492.6" cy="566.43" r="8.2"/><circle class="cls-7" cx="524.2" cy="473.23" r="8.2"/><circle class="cls-7" cx="616.5" cy="446.03" r="8.2"/><circle class="cls-7" cx="699.4" cy="481.43" r="8.2"/><circle class="cls-7" cx="691.7" cy="458.63" r="5.1"/><circle class="cls-7" cx="598" cy="480.33" r="5.1"/><circle class="cls-7" cx="505.2" cy="505.83" r="5.1"/><circle class="cls-7" cx="454.7" cy="569.13" r="5.1"/><circle class="cls-7" cx="394.9" cy="538.03" r="5.1"/><circle class="cls-7" cx="355.3" cy="565.63" r="3.1"/><circle class="cls-7" cx="416.3" cy="560.63" r="3.1"/><circle class="cls-7" cx="489.7" cy="532.03" r="3.1"/><circle class="cls-7" cx="586.8" cy="446.03" r="3.1"/><circle class="cls-7" cx="671.5" cy="477.03" r="3.1"/><circle class="cls-7" cx="619.6" cy="481.43" r="3.1"/><circle class="cls-7" cx="545.6" cy="487.23" r="3.1"/><polygon class="cls-6" points="372.1 461.03 339.2 404.13 372.1 347.23 437.7 347.23 470.6 404.13 437.7 461.03 372.1 461.03"/></svg>