<?xml version="1.0" encoding="utf-8"?>
<!-- Generator: Adobe Illustrator 25.0.0, SVG Export Plug-In . SVG Version: 6.00 Build 0)  -->
<svg version="1.1" id="Layer_2_1_" xmlns="http://www.w3.org/2000/svg" xmlns:xlink="http://www.w3.org/1999/xlink" x="0px" y="0px"
	 viewBox="0 0 705.6 326" style="enable-background:new 0 0 705.6 326;" xml:space="preserve">
<style type="text/css">
	.st0{opacity:0.1;fill:#44BBA4;enable-background:new    ;}
	.st1{fill:#44BBA4;}
	.st2{fill:#0033AD;}
	.st3{fill:#232323;}
	.st4{fill:#FF5553;}
	.st5{fill:#FCDFA6;}
	.st6{fill:#FFFFFF;}
	.st7{fill:none;stroke:#FFFFFF;stroke-width:3.0283;stroke-linejoin:round;stroke-miterlimit:10;}
	.st8{fill:none;stroke:#FF5553;stroke-width:3.0283;stroke-linejoin:round;stroke-miterlimit:10;}
	.st9{fill:none;stroke:#FF5553;stroke-width:3.85;stroke-linecap:round;stroke-linejoin:round;stroke-miterlimit:10;}
	.st10{fill:none;stroke:#FF5553;stroke-width:3.0283;stroke-linecap:round;stroke-linejoin:round;stroke-miterlimit:10;}
</style>
<path class="st0" d="M149.2,299.9l-0.6-270.5l0,0c0-3.2-2.5-6-5.8-6.1c-1.3-0.1-2.4,0.2-3.4,0.8l0,0L22.4,92l0,0
	c-0.8,0.5-1.5,1.1-2,1.9c-0.7,1.1-1,2.2-1,3.4l0,0l0.3,135.3l0,0c0,0.9,0.2,1.9,0.7,2.7c0.6,1.1,1.4,2,2.4,2.6l0,0L140,305.2l0,0
	c0.8,0.5,1.7,0.8,2.7,0.8c3.4,0.2,6.3-2.4,6.5-5.8C149.2,300.2,149.2,300,149.2,299.9L149.2,299.9z"/>
<path class="st1" d="M148.6,29.7c0.2-3.4-2.4-6.3-5.8-6.5c-3.4-0.2-6.3,2.4-6.5,5.8c-0.2,3.4,2.4,6.3,5.8,6.5S148.4,33.1,148.6,29.7
	z"/>
<path class="st2" d="M254.2,99.6c1.5,3,5.2,4.3,8.3,2.7s4.3-5.2,2.7-8.3c-1.5-3-5.2-4.3-8.3-2.7C253.9,92.8,252.7,96.5,254.2,99.6z"
	/>
<path class="st3" d="M254.9,228.7c-1.9,2.8-1.1,6.6,1.8,8.5c2.8,1.9,6.6,1.1,8.5-1.8c1.9-2.8,1.1-6.7-1.8-8.5
	C260.6,225,256.8,225.8,254.9,228.7z"/>
<path class="st4" d="M149.2,300.3c0.2-3.4-2.4-6.3-5.8-6.5s-6.3,2.4-6.5,5.8c-0.2,3.4,2.4,6.3,5.8,6.5
	C146.1,306.3,149,303.7,149.2,300.3z"/>
<path class="st4" d="M30.6,100.7c1.9-2.8,1.1-6.7-1.8-8.5c-2.8-1.9-6.7-1.1-8.5,1.8c-1.9,2.8-1.1,6.7,1.8,8.5S28.7,103.5,30.6,100.7
	z"/>
<path class="st1" d="M31.3,229.8c-1.5-3-5.2-4.3-8.3-2.7s-4.3,5.2-2.7,8.3c1.5,3,5.2,4.3,8.3,2.7C31.6,236.5,32.8,232.8,31.3,229.8z
	"/>
<polygon class="st3" points="210.4,246.1 148.6,246.1 191.8,210.5 253.6,210.5 "/>
<path class="st1" d="M65.2,158.2c2.2-6.8,7.3-11.8,13.5-14.1l1.4-0.8c-4.3-5.7-5.7-13.4-3.4-20.7c1.8-5.3,5.3-9.6,9.7-12.3l0,0
	l0.2-0.1c0.2-0.1,0.3-0.2,0.6-0.3l15.8-9.1c-0.1-2.6,0.3-5.2,1.1-7.9c4-11.9,16.8-18.4,28.8-14.5c9.6,3.2,15.6,12,15.6,21.5l0,0v3.8
	V147l0,0v9v34.3v40l0,0c-0.1,2.1-0.5,4.2-1.1,6.3c-3.9,12-16.8,18.5-28.8,14.5c-11.4-3.7-17.8-15.7-15-27.2
	c-3.8,0.8-7.8,0.6-11.7-0.7c-12-3.9-18.5-16.8-14.5-28.8c0.9-2.6,2.2-5,3.8-7c-0.5-0.1-1-0.2-1.4-0.4
	C67.8,183,61.3,170.2,65.2,158.2z"/>
<path class="st5" d="M190.2,174.2c-0.7-0.4-1-1.3-0.6-2.1s1.3-1,2.1-0.6l18.7,10.8v-41.3l-19.1-11.1c-0.7-0.4-1-1.3-0.6-2.1
	c0.4-0.7,1.3-1,2.1-0.6l17.6,10.2V82.9h-61.8v163.2h61.8v-60.2L190.2,174.2z"/>
<rect x="86.8" y="82.9" class="st6" width="61.8" height="163.2"/>
<path class="st2" d="M191.7,171.6l26.3,15.2c11.6-4.1,17.9-16.8,14-28.6c-0.8-2.5-2-4.7-3.5-6.6l-37.3-21.6c-0.7-0.4-1-1.3-0.6-2.1
	c0.4-0.7,1.3-1,2.1-0.6l25.2,14.6c3.6-5.6,4.7-12.7,2.5-19.5c-1.8-5.3-5.3-9.6-9.7-12.3l0,0l-0.2-0.1c-0.2-0.1-0.3-0.2-0.6-0.3
	l-15.8-9.1c0.1-2.6-0.3-5.2-1.1-7.9c-4-11.9-16.8-18.4-28.8-14.5c-9.6,3.2-15.6,12-15.6,21.5l0,0v3.8V147l0,0v9v34.3v40l0,0
	c0.1,2.1,0.5,4.2,1.1,6.3c3.9,12,16.8,18.5,28.8,14.5c10.8-3.5,17.1-14.3,15.4-25.2l-16.5-9.6c-0.7-0.4-1-1.3-0.6-2.1
	c0.4-0.7,1.3-1,2.1-0.6l18.4,10.6c2.6,0.1,5.3-0.3,7.9-1.1c12-3.9,18.5-16.8,14.5-28.8c-0.5-1.5-1.1-2.9-1.9-4.2l-27.8-16.1
	c-0.7-0.4-1-1.3-0.6-2.1S191,171.2,191.7,171.6z"/>
<polyline class="st7" points="198.1,201.6 172.1,186.5 172.1,174.5 148.6,174.5 "/>
<polyline class="st7" points="210.3,165.3 175.3,145.1 148.6,144.5 "/>
<polyline class="st7" points="171.4,100 171.4,114.6 148.6,114.6 "/>
<polyline class="st7" points="171.4,229.1 171.4,204.1 148.6,204.4 "/>
<line class="st8" x1="148.6" y1="114.6" x2="118.9" y2="114.6"/>
<line class="st8" x1="148.6" y1="144.5" x2="118.9" y2="144.5"/>
<line class="st8" x1="148.6" y1="174.5" x2="118.9" y2="174.5"/>
<line class="st8" x1="148.6" y1="204.4" x2="118.9" y2="204.4"/>
<polyline class="st9" points="101.8,116.1 105.7,120 114.2,111.5 "/>
<circle class="st10" cx="108" cy="114.6" r="11.7"/>
<polyline class="st9" points="101.8,146 105.7,149.9 114.2,141.5 "/>
<circle class="st10" cx="108" cy="144.5" r="11.7"/>
<polyline class="st9" points="101.8,175.9 105.7,179.9 114.2,171.4 "/>
<circle class="st10" cx="108" cy="174.5" r="11.7"/>
<polyline class="st9" points="101.8,205.9 105.7,209.8 114.2,201.3 "/>
<circle class="st10" cx="108" cy="204.4" r="11.7"/>
<path class="st9" d="M101.6,235c0.9-2.2,1.9-4.4,3.6-6.2c1.5-1.5,3.5-2.7,5.6-2.7c3.4,0,6,2.8,9.1,4.2c2.6,1.2,5.5,1.4,8.3,0.7
	c2.7-0.7,5.2-2.2,7.2-4.2"/>
<path class="st6" d="M171.6,232.7c-1.8,0.1-3.4-1.3-3.5-3.1s1.3-3.4,3.1-3.5c1.8-0.1,3.4,1.3,3.5,3.1
	C174.8,231.1,173.4,232.6,171.6,232.7z"/>
<path class="st6" d="M198.3,204.9c-1.8,0.1-3.4-1.3-3.5-3.1c-0.1-1.8,1.3-3.4,3.1-3.5s3.4,1.3,3.5,3.1
	C201.5,203.2,200.1,204.8,198.3,204.9z"/>
<g>
	<path class="st6" d="M210.5,168.7c-1.8,0.1-3.4-1.3-3.5-3.1c-0.1-1.8,1.3-3.4,3.1-3.5c1.8-0.1,3.4,1.3,3.5,3.1
		C213.7,167,212.3,168.6,210.5,168.7z"/>
</g>
<path class="st6" d="M171.6,103.3c-1.8,0.1-3.4-1.3-3.5-3.1s1.3-3.4,3.1-3.5c1.8-0.1,3.4,1.3,3.5,3.1S173.4,103.2,171.6,103.3z"/>
</svg>
