<?xml version="1.0" encoding="utf-8"?>
<!-- Generator: Adobe Illustrator 25.0.0, SVG Export Plug-In . SVG Version: 6.00 Build 0)  -->
<svg version="1.1" id="Layer_26" xmlns="http://www.w3.org/2000/svg" xmlns:xlink="http://www.w3.org/1999/xlink" x="0px" y="0px"
	 viewBox="0 0 705.6 326" style="enable-background:new 0 0 705.6 326;" xml:space="preserve">
<style type="text/css">
	.st0{fill:#232323;}
	.st1{opacity:0.1;fill:#44BBA4;enable-background:new    ;}
	.st2{fill:#FCDFA6;}
	.st3{fill:#44BBA4;}
	.st4{fill:#FF5553;}
	.st5{fill:#0033AD;}
	.st6{fill:none;stroke:#FFFFFF;stroke-width:0.35;stroke-miterlimit:10;}
	.st7{fill:#FFFFFF;}
</style>
<polygon class="st0" points="234.2,234.5 234.2,242.9 195.4,247.2 156.6,242.9 156.6,234.5 195.4,230.2 "/>
<path class="st1" d="M149.3,298l-0.6-270.6l0,0c0-3.3-2.6-6-5.8-6.1c-1.2-0.1-2.4,0.2-3.4,0.8l0,0L22.4,90l0,0
	c-0.8,0.5-1.5,1.1-2,1.9c-0.7,1-1,2.2-1,3.4l0,0l0.3,135.3l0,0c0,0.9,0.2,1.9,0.7,2.7c0.5,1.1,1.4,2,2.4,2.6l0,0l117.3,67.4l0,0
	c0.8,0.5,1.8,0.8,2.7,0.8c3.4,0.2,6.3-2.4,6.5-5.8V298L149.3,298z"/>
<path class="st2" d="M148.7,27.8c0.2-3.4-2.4-6.3-5.8-6.5c-3.4-0.2-6.3,2.4-6.5,5.8c-0.2,3.4,2.4,6.3,5.8,6.5h0
	c3.4,0.2,6.3-2.3,6.5-5.7C148.7,27.9,148.7,27.8,148.7,27.8z"/>
<path class="st3" d="M254.3,97.6c1.5,3,5.2,4.3,8.3,2.7c3-1.5,4.3-5.2,2.7-8.3c-1.5-3-5.2-4.3-8.3-2.7l0,0
	C254,90.9,252.8,94.6,254.3,97.6C254.3,97.6,254.3,97.6,254.3,97.6z"/>
<path class="st3" d="M255,226.7c-1.9,2.8-1.1,6.7,1.8,8.5c2.8,1.9,6.7,1.1,8.5-1.8c1.9-2.9,1.1-6.7-1.8-8.5l0,0
	C260.6,223.1,256.8,223.9,255,226.7z"/>
<path class="st2" d="M149.3,298.4c0.2-3.4-2.4-6.3-5.8-6.5s-6.3,2.4-6.5,5.8c-0.2,3.4,2.4,6.3,5.8,6.5l0,0
	C146.1,304.3,149,301.8,149.3,298.4z"/>
<path class="st4" d="M30.7,98.7c1.9-2.8,1.1-6.7-1.8-8.5c-2.8-1.9-6.7-1.1-8.5,1.8c-1.9,2.8-1.1,6.7,1.8,8.5l0,0
	C25,102.4,28.8,101.6,30.7,98.7z"/>
<path class="st5" d="M31.3,227.9c-1.5-3-5.2-4.3-8.3-2.7s-4.3,5.2-2.7,8.3c1.5,3,5.2,4.3,8.3,2.7l0,0
	C31.6,234.6,32.8,230.9,31.3,227.9C31.3,227.9,31.3,227.9,31.3,227.9z"/>
<line class="st6" x1="163.9" y1="198.5" x2="40.1" y2="127.1"/>
<line class="st6" x1="40.1" y1="198.5" x2="163.9" y2="127.1"/>
<line class="st6" x1="102" y1="234.3" x2="102" y2="91.3"/>
<circle class="st6" cx="102.3" cy="162.8" r="53.2"/>
<polygon class="st3" points="195.1,91.5 133.2,127.2 133.2,198.7 195.1,234.4 257,198.7 257,127.2 "/>
<polygon class="st5" points="102.3,91.5 40.3,127.2 40.3,198.7 102.3,234.4 164.2,198.7 164.2,127.2 "/>
<polygon class="st2" points="102.3,113.5 125.9,127.2 102.4,140.8 78.6,127.2 "/>
<polygon class="st4" points="195.3,113.6 218.9,127.3 195.4,140.9 171.6,127.3 "/>
<polygon class="st7" points="133.2,198.7 148.7,207.6 164.2,198.7 164.2,127.2 148.7,118.3 133.2,127.2 "/>
<rect x="133.2" y="186.8" class="st5" width="30.9" height="5.9"/>
<rect x="117.7" y="168.9" class="st3" width="46.4" height="5.9"/>
<rect x="117.7" y="163" class="st5" width="30.9" height="5.9"/>
<rect x="148.4" y="157" class="st3" width="30.9" height="5.9"/>
<rect x="133.2" y="151" class="st5" width="46.2" height="5.9"/>
<rect x="133.2" y="133.2" class="st3" width="30.9" height="5.9"/>
<rect x="133.2" y="127.2" class="st5" width="30.9" height="5.9"/>
<rect x="133.2" y="192.8" class="st3" width="30.9" height="5.9"/>
<rect x="148.4" y="180.8" class="st3" width="30.9" height="5.9"/>
<rect x="117.7" y="139.1" class="st5" width="30.9" height="5.9"/>
<line class="st6" x1="195.4" y1="162.8" x2="257.3" y2="127.1"/>
<path class="st6" d="M195.4,234.3"/>
<path class="st6" d="M194.8,162.8"/>
<line class="st6" x1="102.5" y1="162.8" x2="102" y2="234.3"/>
<g>
	<g>
		<path class="st7" d="M51.2,168.1c-0.5-0.3-0.9-0.1-0.9,0.5s0.4,1.3,0.8,1.6c0.5,0.3,0.9,0.1,0.9-0.5
			C52,169.1,51.6,168.4,51.2,168.1z"/>
		<path class="st7" d="M61.4,174.7c-0.1,1.7,1.1,3.9,2.6,4.9c0.1,0,0.1,0.1,0.2,0.1c1.5,0.8,2.7,0.2,2.8-1.5
			c0.1-1.7-1.1-3.9-2.6-4.9C62.8,172.3,61.5,173,61.4,174.7z"/>
		<path class="st7" d="M51.2,168.1c-0.5-0.3-0.9-0.1-0.9,0.5s0.4,1.3,0.8,1.6c0.5,0.3,0.9,0.1,0.9-0.5
			C52,169.1,51.6,168.4,51.2,168.1z"/>
		<path class="st7" d="M61.3,155.9c0.5,0,0.6-0.5,0.4-1.2c-0.2-0.6-0.8-1.2-1.2-1.1c-0.5,0-0.6,0.5-0.4,1.2
			C60.3,155.4,60.8,155.9,61.3,155.9z"/>
		<path class="st7" d="M64.1,163.2c0.7,0,0.9-0.8,0.6-1.8s-1.2-1.8-1.9-1.8c-0.7,0-0.9,0.8-0.6,1.8
			C62.6,162.4,63.4,163.2,64.1,163.2z"/>
		<path class="st7" d="M54.7,161.8c0.5,0.7,1.2,0.9,1.6,0.5c0.3-0.4,0.2-1.3-0.3-2c-0.5-0.7-1.2-0.9-1.6-0.5
			C54,160.2,54.1,161.1,54.7,161.8z"/>
		<path class="st7" d="M56.3,170.4c-0.8-0.5-1.4-0.2-1.5,0.7c0,0.9,0.5,2,1.3,2.4c0.8,0.5,1.4,0.2,1.5-0.7
			C57.7,171.9,57.1,170.9,56.3,170.4z"/>
		<path class="st7" d="M54.8,180.3c-0.6,0-0.8,0.7-0.5,1.5c0.3,0.8,1,1.5,1.5,1.4c0.6,0,0.8-0.7,0.5-1.5
			C56.1,180.9,55.4,180.3,54.8,180.3z"/>
		<path class="st7" d="M60.1,169.2c0.7,1,1.8,1.3,2.2,0.7c0.5-0.6,0.3-1.9-0.5-2.9c-0.7-1-1.8-1.3-2.2-0.7
			C59.2,166.9,59.4,168.2,60.1,169.2z"/>
		<path class="st7" d="M77.2,170.4c0.6,0.8,1.5,1.1,1.9,0.6c0.4-0.5,0.2-1.6-0.4-2.4c-0.6-0.8-1.5-1.1-1.9-0.6
			S76.5,169.6,77.2,170.4z"/>
		<path class="st7" d="M80,166.3c0.4,0.6,1,0.7,1.2,0.4c0.3-0.3,0.1-1-0.2-1.6c-0.4-0.6-1-0.7-1.2-0.4
			C79.5,165.1,79.6,165.8,80,166.3z"/>
		<path class="st7" d="M77.4,180.5c-1.5-0.9-2.8-0.3-2.9,1.4s1.1,3.9,2.6,4.9c0.1,0,0.1,0.1,0.2,0.1c1.5,0.8,2.7,0.2,2.8-1.5
			c0-0.8-0.2-1.8-0.7-2.7S78.1,181,77.4,180.5z"/>
		<path class="st7" d="M65,171.7c0.5,1.4,1.4,2.6,2.5,3.1c0.4,0.2,0.8,0.4,1.2,0.4c1.4,0,1.9-1.6,1.2-3.6c-0.5-1.4-1.4-2.6-2.4-3.2
			c-0.4-0.2-0.8-0.3-1.2-0.3C64.8,168.1,64.3,169.7,65,171.7z"/>
		<path class="st7" d="M86.6,179.7c0.6,0,0.8-0.7,0.5-1.5c-0.3-0.8-1-1.5-1.5-1.4c-0.6,0-0.8,0.7-0.5,1.5
			C85.4,179.1,86,179.7,86.6,179.7z"/>
		<path class="st7" d="M79.6,176.8c-0.8,0-1.1,1-0.7,2.1c0.4,1.2,1.4,2.1,2.2,2.1c0.8,0,1.1-1,0.7-2.1
			C81.4,177.7,80.4,176.8,79.6,176.8z"/>
		<path class="st7" d="M70.6,160.6c0.6,0.4,1.2,0.1,1.2-0.6c0-0.7-0.5-1.6-1.1-2c-0.6-0.4-1.2-0.1-1.2,0.6
			C69.5,159.3,70,160.2,70.6,160.6z"/>
		<path class="st7" d="M70.6,168.9c0.9,0.6,1.6,0.2,1.7-0.8c0-1-0.6-2.3-1.5-2.8c-0.9-0.6-1.6-0.2-1.7,0.8
			C69,167,69.7,168.3,70.6,168.9z"/>
		<path class="st7" d="M61.8,183.2c0.8,0,1.1-1,0.7-2.1c-0.4-1.2-1.4-2.1-2.2-2.1c-0.8,0-1.1,1-0.7,2.1
			C60,182.3,61,183.2,61.8,183.2z"/>
		<path class="st7" d="M71.7,172.2c-0.8,1-0.5,3.2,0.8,4.9c0.5,0.6,1,1.1,1.5,1.4c0.9,0.5,1.8,0.5,2.3-0.1c0.8-1,0.5-3.2-0.8-4.9
			c-0.5-0.6-1-1.1-1.5-1.4C73,171.6,72.2,171.6,71.7,172.2z"/>
		<path class="st7" d="M76.5,188.4c-0.5-1.4-1.4-2.6-2.5-3.2c-0.4-0.2-0.8-0.3-1.2-0.3c-0.7,0-1.2,0.4-1.4,1.1
			c-0.2,0.7-0.2,1.6,0.1,2.6c0.5,1.4,1.4,2.6,2.4,3.1c0.4,0.2,0.8,0.4,1.2,0.4C76.6,192,77.1,190.3,76.5,188.4z"/>
		<path class="st7" d="M81.3,190.8c-0.7-1-1.8-1.3-2.2-0.7s-0.3,1.9,0.5,2.9s1.8,1.3,2.2,0.7C82.2,193.1,82,191.8,81.3,190.8z"/>
		<path class="st7" d="M86.5,189c0-0.9-0.5-2-1.3-2.4c-0.8-0.5-1.4-0.2-1.5,0.7c0,0.9,0.5,2,1.3,2.4C85.9,190.1,86.5,189.8,86.5,189
			z"/>
		<path class="st7" d="M90.4,190c-0.5-0.3-0.9-0.1-0.9,0.5c0,0.6,0.3,1.3,0.8,1.6c0.5,0.3,0.9,0.1,0.9-0.5
			C91.2,191,90.9,190.3,90.4,190z"/>
		<path class="st7" d="M86.8,198.3c-0.5-0.7-1.2-0.9-1.6-0.5c-0.3,0.4-0.2,1.3,0.3,2c0.5,0.7,1.2,0.9,1.6,0.5S87.3,199,86.8,198.3z"
			/>
		<path class="st7" d="M61.4,193.7c-0.4-0.6-1-0.7-1.2-0.4c-0.3,0.3-0.1,1.1,0.2,1.6c0.4,0.6,1,0.7,1.2,0.4
			C62,195,61.9,194.3,61.4,193.7z"/>
		<path class="st7" d="M80.2,204.1c-0.5,0-0.6,0.5-0.4,1.2c0.2,0.6,0.8,1.2,1.2,1.1c0.5,0,0.6-0.5,0.4-1.2
			C81.1,204.6,80.6,204.1,80.2,204.1z"/>
		<path class="st7" d="M69.8,187.8c0.4-0.5,0.6-1.3,0.4-2.2c-0.1-0.9-0.6-1.9-1.2-2.7c-0.5-0.6-1-1.1-1.5-1.4
			c-0.9-0.5-1.8-0.5-2.3,0.1c-0.4,0.5-0.6,1.3-0.4,2.2c0.1,0.9,0.6,1.9,1.2,2.7c0.5,0.6,1,1.1,1.5,1.4
			C68.4,188.5,69.3,188.5,69.8,187.8z"/>
		<path class="st7" d="M64.3,189.6c-0.6-0.8-1.5-1.1-1.9-0.6c-0.4,0.5-0.2,1.6,0.4,2.4s1.5,1.1,1.9,0.6
			C65.1,191.6,64.9,190.5,64.3,189.6z"/>
		<path class="st7" d="M70.7,199.4c-0.6-0.4-1.2-0.1-1.2,0.6c0,0.7,0.5,1.6,1.1,2c0.6,0.4,1.2,0.1,1.2-0.6
			C71.8,200.7,71.3,199.8,70.7,199.4z"/>
		<path class="st7" d="M70.7,191.1c-0.9-0.6-1.6-0.2-1.7,0.8c0,1,0.6,2.3,1.5,2.8c0.9,0.6,1.6,0.2,1.7-0.8
			C72.3,192.9,71.6,191.7,70.7,191.1z"/>
		<path class="st7" d="M77.4,196.9c-0.7,0-0.9,0.8-0.6,1.8c0.3,1,1.2,1.8,1.9,1.8c0.7,0,0.9-0.8,0.6-1.8
			C78.9,197.6,78,196.9,77.4,196.9z"/>
	</g>
</g>
</svg>
