<svg xmlns="http://www.w3.org/2000/svg" viewBox="0 0 169.31 116.45"><defs><style>.cls-1{isolation:isolate;}.cls-2{fill:#dcf0fb;opacity:0.64;}.cls-3{fill:#acd8f1;}.cls-4{fill:#f7a711;}.cls-5{fill:#0e9bd7;}.cls-6{fill:#f0b3b2;}.cls-7{fill:#010101;}.cls-8{fill:#ef7c97;}.cls-9{fill:#e69ec5;opacity:0.76;}.cls-16,.cls-9{mix-blend-mode:color-burn;}.cls-10{fill:#68ade0;}.cls-11,.cls-20{fill:#fff;}.cls-12{fill:#1a1b39;}.cls-13{fill:#b3d06a;}.cls-14{fill:#34ac5e;}.cls-15{fill:#1b1d3c;}.cls-16{fill:#e59fc6;opacity:0.4;}.cls-17{fill:#788faf;opacity:0.1;mix-blend-mode:multiply;}.cls-18{fill:#673a6f;}.cls-19{fill:#1c87a1;}.cls-20{opacity:0.25;}.cls-21{fill:#282929;}</style></defs><g class="cls-1"><g id="Layer_1" data-name="Layer 1"><path class="cls-2" d="M401,218.2c9.32-2.28,18.85-6,25-13,15.6-17.86,10.73-48.38-1.31-66.69A37.5,37.5,0,0,0,414.87,128c-10.63-7.3-20.59-1.66-31.52,1.39-18.78,5.24-37.93,6.79-57,2.26-13.64-3.24-26.53-5.29-38.34,4-10.18,8-17.36,20.38-20,33-1.8,8.58-.84,18.07,4.75,25s13.33,12,21.52,15.35c14.65,6,31.52,8.55,47.15,10.62,17.07,2.26,33.8,3.43,50.89.44C395.08,219.5,398,218.92,401,218.2Z" transform="translate(-267.16 -119.59)"/><rect class="cls-3" x="7.54" y="113.32" width="154.74" height="3.13"/><circle class="cls-4" cx="13.79" cy="26.57" r="3.52"/><circle class="cls-4" cx="158.37" cy="17.97" r="3.52"/><circle class="cls-5" cx="22.78" cy="15.24" r="5.47"/><circle class="cls-5" cx="163.84" cy="31.65" r="5.47"/><path class="cls-6" d="M366.14,150.46l16.92,7.67s1.36-1.68,2.87-1.3-.61,1.61-.61,1.61,3.21,1.2,2.7,3-3.3,1.5-5.38-.74c0,0-16.67-3.6-18.45-5.18s1.55-3.37,1.55-3.37Z" transform="translate(-267.16 -119.59)"/><path class="cls-7" d="M358.66,141.05c1.74-4.8.48-9,.48-11.38s-.48-8.23-5.81-9.68-10.89,1-9.19,8.47-6.06,10.65-3.88,15S356.72,146.37,358.66,141.05Z" transform="translate(-267.16 -119.59)"/><polygon class="cls-8" points="86.41 18.8 83.27 24.12 80.36 18.55 80.93 16.38 81.57 13.96 85.44 13.96 85.94 16.41 86.41 18.8"/><path class="cls-9" d="M353.1,136a4.1,4.1,0,0,1-2.55.81,3.26,3.26,0,0,1-2.45-.84l.64-2.43h3.87Z" transform="translate(-267.16 -119.59)"/><polygon class="cls-6" points="87.56 106.78 86.87 102.17 92.2 102.21 92.16 106.81 91.67 108.26 88.03 108.72 87.56 106.78"/><path class="cls-10" d="M367.53,233l-13.56-.1c0-.12,0-.63-.06-1.32-.1-1.94-.25-5.28.11-5.45a1.18,1.18,0,0,1,1,0,1.8,1.8,0,0,0,2.17,1.47c1.94-.23,2.19-1.92,2.43-1.92s0,0,.48.49c.21.18.5.4.84.65l1,.72.31.22,1,.7c1.7,1.2,3.46,2.42,3.88,2.84l.1.12A1.92,1.92,0,0,1,367.53,233Z" transform="translate(-267.16 -119.59)"/><path class="cls-9" d="M367.53,233l-13.56-.1c0-.12,0-.63-.06-1.32l13.25-.16A1.92,1.92,0,0,1,367.53,233Z" transform="translate(-267.16 -119.59)"/><path class="cls-11" d="M361.88,227.55l-1.36,1.67a.6.6,0,0,1-.47.23.62.62,0,0,1-.38-.14.6.6,0,0,1-.09-.85l1.33-1.63Z" transform="translate(-267.16 -119.59)"/><path class="cls-11" d="M363.18,228.47,362,230a.6.6,0,0,1-.47.22.58.58,0,0,1-.38-.13.6.6,0,0,1-.09-.85l1.16-1.43Z" transform="translate(-267.16 -119.59)"/><polygon class="cls-12" points="92.83 42.88 93.8 105.09 85.81 105.09 81.21 53.05 79.75 42.88 92.83 42.88"/><polygon class="cls-6" points="79.04 106.53 79.73 101.93 74.41 101.97 74.44 106.57 74.94 108.02 78.57 108.47 79.04 106.53"/><path class="cls-10" d="M333.41,232.77l13.55-.1c0-.12,0-.63.06-1.32.1-1.94.25-5.28-.11-5.45a1.16,1.16,0,0,0-1,0,1.81,1.81,0,0,1-2.17,1.47c-1.94-.23-2.2-1.92-2.44-1.92s0,0-.48.49c-.21.18-.5.4-.83.65l-1,.72-.31.21-1,.71c-1.7,1.2-3.46,2.42-3.87,2.84l-.1.11A1.9,1.9,0,0,0,333.41,232.77Z" transform="translate(-267.16 -119.59)"/><path class="cls-9" d="M333.41,232.77l13.55-.1c0-.12,0-.63.06-1.32l-13.24-.17A1.9,1.9,0,0,0,333.41,232.77Z" transform="translate(-267.16 -119.59)"/><path class="cls-11" d="M339.05,227.31l1.36,1.67a.61.61,0,0,0,.47.23.66.66,0,0,0,.38-.14.6.6,0,0,0,.09-.85L340,226.59Z" transform="translate(-267.16 -119.59)"/><path class="cls-11" d="M337.75,228.23l1.21,1.49a.61.61,0,0,0,.48.22.58.58,0,0,0,.37-.13.6.6,0,0,0,.09-.85l-1.16-1.43Z" transform="translate(-267.16 -119.59)"/><polygon class="cls-12" points="73.78 42.64 72.81 104.85 80.8 104.85 85.4 52.81 86.85 42.64 73.78 42.64"/><path class="cls-6" d="M346,125.92s-1.69,9,4.12,9.68,7-9.2,7-9.2-6.78-2.66-7-2.66S346,125.92,346,125.92Z" transform="translate(-267.16 -119.59)"/><circle class="cls-6" cx="78.3" cy="9.72" r="1.69"/><circle class="cls-6" cx="88.95" cy="10.2" r="1.69"/><path class="cls-7" d="M344.86,126s1.45,3.31,3.88,2.71c0,0-.49-1.5,1-3.61,0,0-.72,2.11.73,3.31,0,0,5.57.6,7.75-.6a8.54,8.54,0,0,0-8.23-4.51C345.35,123.58,344.86,126,344.86,126Z" transform="translate(-267.16 -119.59)"/><path class="cls-4" d="M361.2,141.41s-.31,4.64-.58,9.2h0c-.08,1.4-.16,2.79-.22,4-.1,1.88-.17,3.43-.17,4.19,0,.32,0,.61,0,.89s0,.38,0,.56c0,0,0,0,0,.05s0,.25,0,.36v.09a2,2,0,0,1,0,.23c0,.39.06.71.07,1v.12a1.62,1.62,0,0,1-.4,1.31c-.73.72-17.67,1-18.64,1s-.48-3.15-.48-4.6-.21-9.36-.24-10.32v-.09l-2.91-8.23L347.4,138l2.91,5.09,3.15-4.85Z" transform="translate(-267.16 -119.59)"/><polygon class="cls-4" points="94.04 21.82 101.06 31.26 98.64 37.07 92.34 34.41 94.04 21.82"/><path class="cls-9" d="M360.4,154.65c-.1,1.88-.17,3.43-.17,4.19,0,.32,0,.61,0,.89s0,.38,0,.56c0,0,0,0,0,.05s0,.25,0,.36v.09a2,2,0,0,1,0,.23c0,.39.06.71.07,1v.12a1.62,1.62,0,0,1-.4,1.31c-.73.72-17.67,1-18.64,1s-.48-3.15-.48-4.6-.21-9.36-.24-10.32v-.09s1.09,9.52,12.58,10.65c2.26.22,5.8-1.32,6.57-3.45C360.16,155.56,360.46,153.4,360.4,154.65Z" transform="translate(-267.16 -119.59)"/><path class="cls-6" d="M333.49,157.74c-2.14,1.5,1.26,4.93,3.73,6.39,3.77,2.24,12,4.47,14.52,5.44s4.24,2.44,5.62.9,1.51-2.53,1.38-2.84-.56,0-1-.25,1.4-.88.22-1.86c-.67-.26-1.34.77-4.62.53s-13.72-7.8-15-8.56S333.49,157.74,333.49,157.74Z" transform="translate(-267.16 -119.59)"/><path class="cls-4" d="M339.9,158.11a19.61,19.61,0,0,1-6.84.64h0c-.86-.06-1.39-.15-1.39-.15l6.05-17.43,4,9,.09.21S339.66,156.9,339.9,158.11Z" transform="translate(-267.16 -119.59)"/><path class="cls-9" d="M339.9,158.11a19.61,19.61,0,0,1-6.84.64,6.05,6.05,0,0,0,4.42-2.57l4.27-6,.09.21S339.66,156.9,339.9,158.11Z" transform="translate(-267.16 -119.59)"/><path class="cls-13" d="M300.62,170.22c-2.3,4.9-5.27,3.5-3-1.4a31.11,31.11,0,0,1,5.64-8.17A31,31,0,0,1,300.62,170.22Z" transform="translate(-267.16 -119.59)"/><path class="cls-13" d="M296.84,169c.66,5.37-2.6,5.77-3.26.4a30.75,30.75,0,0,1,.43-9.92A30.92,30.92,0,0,1,296.84,169Z" transform="translate(-267.16 -119.59)"/><path class="cls-14" d="M294.74,170c2.18,3.23.21,4.55-2,1.32a22.21,22.21,0,0,1-3-6.52A22.17,22.17,0,0,1,294.74,170Z" transform="translate(-267.16 -119.59)"/><path class="cls-14" d="M299.57,170.65c-3.06,2.41-1.6,4.27,1.46,1.85a22.37,22.37,0,0,0,4.81-5.29A22.14,22.14,0,0,0,299.57,170.65Z" transform="translate(-267.16 -119.59)"/><path class="cls-14" d="M295.58,167.13c-.19,6.22,3.59,6.34,3.78.12a35.59,35.59,0,0,0-1.55-11.32A35.67,35.67,0,0,0,295.58,167.13Z" transform="translate(-267.16 -119.59)"/><path class="cls-15" d="M301.88,172.67a9.15,9.15,0,0,1-.49,3c-.78,2.3-2.44,3.88-4.38,3.88-2.71,0-4.87-3.09-4.87-6.9,0-.46.56-.81,1.4-1C296.24,170.87,301.88,171.21,301.88,172.67Z" transform="translate(-267.16 -119.59)"/><path class="cls-9" d="M301.39,175.69c-.78,2.3-2.44,3.88-4.38,3.88-2.71,0-4.87-3.09-4.87-6.9,0-.46.56-.81,1.4-1-.18,1.76,0,4.26,2.69,4.51A19.54,19.54,0,0,0,301.39,175.69Z" transform="translate(-267.16 -119.59)"/><circle class="cls-4" cx="58.56" cy="28" r="2.49"/><polygon class="cls-7" points="47.32 56.74 41.1 40.23 43.02 39.51 49.08 56.1 47.32 56.74"/><polygon class="cls-7" points="40.82 38.98 50.28 24.08 52 25.18 42.39 39.99 40.82 38.98"/><path class="cls-5" d="M325.49,179.28H314v-2.4h6.89a5.61,5.61,0,0,1,4.59,2.4Z" transform="translate(-267.16 -119.59)"/><path class="cls-5" d="M329.67,141.33,322,154.75a7.74,7.74,0,0,1,6.4-14A7.6,7.6,0,0,1,329.67,141.33Z" transform="translate(-267.16 -119.59)"/><path class="cls-16" d="M329.67,141.33,322,154.75a7.74,7.74,0,0,1-3.87-7.25,17.45,17.45,0,0,0,10.27-6.77A7.6,7.6,0,0,1,329.67,141.33Z" transform="translate(-267.16 -119.59)"/><circle class="cls-5" cx="48.68" cy="56.74" r="2.23"/><circle class="cls-5" cx="41.74" cy="38.95" r="2.23"/><circle class="cls-5" cx="51.31" cy="24.36" r="2.23"/><path class="cls-3" d="M409.68,182.93v49.49a3.31,3.31,0,0,1-3.31,3.31H375.72a2.38,2.38,0,0,1-2.38-2.38V197a2.38,2.38,0,0,0-2.38-2.38H333a2.38,2.38,0,0,0-2.38,2.38v36.39a2.38,2.38,0,0,1-2.38,2.38h-33.1a.93.93,0,0,1-.93-.92V182.93Z" transform="translate(-267.16 -119.59)"/><rect class="cls-5" x="19.96" y="59.78" width="129.58" height="3.56" rx="1.78"/><rect class="cls-11" x="29.66" y="65.96" width="31.18" height="13.86" rx="0.63"/><path class="cls-17" d="M328,188.89v9.89a.63.63,0,0,1-.63.63H297.45a.63.63,0,0,1-.63-.63v-3C314.85,196.4,324.2,191.6,328,188.89Z" transform="translate(-267.16 -119.59)"/><circle class="cls-18" cx="45.25" cy="72.84" r="1.63"/><rect class="cls-11" x="29.66" y="82.76" width="31.18" height="13.86" rx="0.63"/><path class="cls-17" d="M328,205.69v9.89a.64.64,0,0,1-.63.63H297.45a.64.64,0,0,1-.63-.63v-3C314.85,213.19,324.2,208.4,328,205.69Z" transform="translate(-267.16 -119.59)"/><circle class="cls-18" cx="45.25" cy="89.64" r="1.63"/><rect class="cls-11" x="29.66" y="99.56" width="31.18" height="13.86" rx="0.63"/><path class="cls-17" d="M328,222.49v9.88a.63.63,0,0,1-.63.63H297.45a.63.63,0,0,1-.63-.63v-3C314.85,230,324.2,225.19,328,222.49Z" transform="translate(-267.16 -119.59)"/><circle class="cls-18" cx="45.25" cy="106.43" r="1.63"/><rect class="cls-11" x="108.94" y="66.04" width="31.18" height="13.86" rx="0.63"/><path class="cls-17" d="M407.28,189v9.89a.63.63,0,0,1-.63.63H376.73a.64.64,0,0,1-.63-.63v-3C394.13,196.47,403.48,191.68,407.28,189Z" transform="translate(-267.16 -119.59)"/><circle class="cls-18" cx="124.53" cy="72.92" r="1.63"/><rect class="cls-11" x="108.94" y="82.84" width="31.18" height="13.86" rx="0.63"/><path class="cls-17" d="M407.28,205.77v9.88a.63.63,0,0,1-.63.63H376.73a.63.63,0,0,1-.63-.63v-3C394.13,213.27,403.48,208.47,407.28,205.77Z" transform="translate(-267.16 -119.59)"/><circle class="cls-18" cx="124.53" cy="89.71" r="1.63"/><rect class="cls-11" x="108.94" y="99.64" width="31.18" height="13.86" rx="0.63"/><path class="cls-17" d="M407.28,222.57v9.88a.63.63,0,0,1-.63.63H376.73a.63.63,0,0,1-.63-.63v-3C394.13,230.07,403.48,225.27,407.28,222.57Z" transform="translate(-267.16 -119.59)"/><circle class="cls-18" cx="124.53" cy="106.51" r="1.63"/><rect class="cls-19" x="383.85" y="157.84" width="4.74" height="19.67" transform="translate(286.28 -338.33) rotate(89.93)"/><rect class="cls-20" x="387.59" y="163.76" width="1.64" height="7.65" transform="translate(288.37 -340.61) rotate(89.93)"/><circle class="cls-20" cx="113.87" cy="48" r="1"/><rect class="cls-12" x="379.35" y="169.99" width="19.67" height="4.74" transform="translate(-267.37 -119.13) rotate(-0.07)"/><rect class="cls-20" x="387.55" y="171.44" width="7.65" height="1.64" transform="translate(-267.37 -119.13) rotate(-0.07)"/><circle class="cls-20" cx="116.83" cy="52.68" r="1"/><rect class="cls-19" x="379.28" y="174.59" width="19.67" height="4.74" transform="translate(-267.37 -119.13) rotate(-0.07)"/><rect class="cls-20" x="387.47" y="176.05" width="7.65" height="1.64" transform="translate(-267.37 -119.13) rotate(-0.07)"/><circle class="cls-20" cx="116.76" cy="57.29" r="1"/><path class="cls-15" d="M289.28,233.1h0a4.78,4.78,0,0,1-4.79-4.78v-7.08h9.57v7.08A4.78,4.78,0,0,1,289.28,233.1Z" transform="translate(-267.16 -119.59)"/><path class="cls-14" d="M300.92,209.45c-7.66,8.49-13.16,3.52-5.5-5S308.58,201,300.92,209.45Z" transform="translate(-267.16 -119.59)"/><path class="cls-21" d="M289.31,221.68h0a.09.09,0,0,1-.07-.1c1.33-8.25,11.3-18.46,12.37-18.67a.08.08,0,0,1,.1.07.07.07,0,0,1-.07.09c-1.06.21-10.91,10.34-12.24,18.54A.08.08,0,0,1,289.31,221.68Z" transform="translate(-267.16 -119.59)"/><path class="cls-14" d="M281.54,213.27c5,5.59,8.67,2.32,3.63-3.27S276.49,207.68,281.54,213.27Z" transform="translate(-267.16 -119.59)"/><path class="cls-21" d="M289.19,221.36a.08.08,0,0,1-.08-.08c-.87-5.38-7.35-12.05-8.05-12.18a.09.09,0,0,1-.06-.1.08.08,0,0,1,.1-.07c.71.14,7.29,6.88,8.17,12.33a.07.07,0,0,1-.07.09Z" transform="translate(-267.16 -119.59)"/><path class="cls-13" d="M285.64,208.36c2.25,8.64,7.85,7.18,5.6-1.46S283.39,199.72,285.64,208.36Z" transform="translate(-267.16 -119.59)"/><path class="cls-21" d="M289.31,221h0a.09.09,0,0,1,0-.11c2-6.15-1.14-16.71-1.8-17.23a.09.09,0,0,1,0-.12.08.08,0,0,1,.12,0c.67.53,3.9,11.21,1.85,17.41A.08.08,0,0,1,289.31,221Z" transform="translate(-267.16 -119.59)"/></g></g></svg>