<svg id="i" xmlns="http://www.w3.org/2000/svg" viewBox="0 0 771.38 808.26"><defs><style>.cls-1{fill:#232323;}.cls-2,.cls-5{fill:#44bba4;}.cls-2{opacity:0.1;isolation:isolate;}.cls-3{fill:#0033ad;}.cls-4{fill:#ff5553;}.cls-6{fill:#3ba18e;}.cls-7{fill:#fff;}.cls-8{fill:#fcdfa6;}.cls-9{fill:none;stroke:#fff;stroke-miterlimit:10;}</style></defs><polygon class="cls-1" points="771.38 518.83 501.58 518.83 331.88 603.43 601.68 603.43 771.38 518.83"/><path class="cls-2" d="M978.4,926.4l-1.7-773h0a17.54,17.54,0,0,0-16.6-17.5,18,18,0,0,0-9.8,2.3h0L616,332.3h0a16.93,16.93,0,0,0-5.8,5.5,17.12,17.12,0,0,0-2.9,9.6h0l.9,386.5h0a16.93,16.93,0,0,0,1.9,7.8A17.42,17.42,0,0,0,617,749h0L952.1,941.5h0a16.89,16.89,0,0,0,7.7,2.3,17.65,17.65,0,0,0,18.6-16.6v-.8Z" transform="translate(-607.22 -135.87)"/><path class="cls-3" d="M976.7,154.5A17.63,17.63,0,1,0,958.1,171,17.45,17.45,0,0,0,976.7,154.5Z" transform="translate(-607.22 -135.87)"/><path class="cls-4" d="M1278.6,353.9a17.58,17.58,0,1,0,7.8-23.6A17.52,17.52,0,0,0,1278.6,353.9Z" transform="translate(-607.22 -135.87)"/><path class="cls-1" d="M1280.4,722.9a17.63,17.63,0,1,0,24.4-5.1A17.63,17.63,0,0,0,1280.4,722.9Z" transform="translate(-607.22 -135.87)"/><path class="cls-4" d="M978.4,927.5a17.63,17.63,0,1,0-18.6,16.6A17.72,17.72,0,0,0,978.4,927.5Z" transform="translate(-607.22 -135.87)"/><path class="cls-4" d="M639.6,357.1a17.63,17.63,0,1,0-24.4,5A17.63,17.63,0,0,0,639.6,357.1Z" transform="translate(-607.22 -135.87)"/><path class="cls-5" d="M641.4,726.1a17.58,17.58,0,1,0-7.8,23.6A17.52,17.52,0,0,0,641.4,726.1Z" transform="translate(-607.22 -135.87)"/><polygon class="cls-5" points="185.48 312.83 102.18 294.83 102.18 603.43 185.48 621.43 185.48 312.83"/><polygon class="cls-6" points="268.68 294.83 185.48 312.83 185.48 621.43 268.68 603.43 268.68 294.83"/><polygon class="cls-5" points="351.88 312.83 268.68 294.83 268.68 603.43 351.88 621.43 351.88 312.83"/><polygon class="cls-6" points="435.18 294.83 351.88 312.83 351.88 621.43 435.18 603.43 435.18 294.83"/><polygon class="cls-5" points="518.38 312.83 435.18 294.83 435.18 603.43 518.38 621.43 518.38 312.83"/><polygon class="cls-6" points="601.68 294.83 518.38 312.83 518.38 621.43 601.68 603.43 601.68 294.83"/><circle class="cls-3" cx="959.09" cy="329.5" r="131.2" transform="translate(-559.3 638.82) rotate(-45)"/><polygon class="cls-7" points="432.38 113.13 328.38 170.13 271.38 274.13 375.48 217.13 432.38 113.13"/><circle class="cls-8" cx="351.88" cy="193.63" r="19.1"/><path class="cls-8" d="M959.1,674.1a83.23,83.23,0,0,0-58.8,142.1l58.9,58.9,58.9-58.9a83.23,83.23,0,0,0-59-142.1Z" transform="translate(-607.22 -135.87)"/><circle class="cls-7" cx="351.88" cy="621.43" r="51.4"/><polyline class="cls-9" points="601.68 294.83 559.98 303.83 518.38 312.83"/><polyline class="cls-9" points="601.68 346.23 559.98 355.23 518.38 364.23"/><polyline class="cls-9" points="601.68 397.73 559.98 406.73 518.38 415.73"/><polyline class="cls-9" points="601.68 449.13 559.98 458.13 518.38 467.13"/><polyline class="cls-9" points="601.68 500.53 559.98 509.53 518.38 518.53"/><polyline class="cls-9" points="601.68 552.03 559.98 561.03 518.38 570.03"/><polyline class="cls-9" points="601.68 603.43 559.98 612.43 518.38 621.43"/><line class="cls-9" x1="559.98" y1="303.83" x2="559.98" y2="612.43"/><polyline class="cls-9" points="435.18 294.83 476.78 303.83 518.38 312.83"/><polyline class="cls-9" points="435.18 346.23 476.78 355.23 518.38 364.23"/><polyline class="cls-9" points="435.18 397.73 476.78 406.73 518.38 415.73"/><polyline class="cls-9" points="435.18 449.13 476.78 458.13 518.38 467.13"/><polyline class="cls-9" points="435.18 500.53 476.78 509.53 518.38 518.53"/><polyline class="cls-9" points="435.18 552.03 476.78 561.03 518.38 570.03"/><polyline class="cls-9" points="435.18 603.43 476.78 612.43 518.38 621.43"/><line class="cls-9" x1="476.78" y1="303.83" x2="476.78" y2="612.43"/><polyline class="cls-9" points="434.28 294.83 392.68 303.83 350.98 312.83"/><polyline class="cls-9" points="434.28 346.23 392.68 355.23 350.98 364.23"/><polyline class="cls-9" points="434.28 397.73 392.68 406.73 350.98 415.73"/><polyline class="cls-9" points="434.28 449.13 392.68 458.13 350.98 467.13"/><polyline class="cls-9" points="434.28 500.53 392.68 509.53 350.98 518.53"/><polyline class="cls-9" points="434.28 552.03 392.68 561.03 350.98 570.03"/><polyline class="cls-9" points="434.28 603.43 392.68 612.43 350.98 621.43"/><line class="cls-9" x1="392.68" y1="303.83" x2="392.68" y2="612.43"/><polyline class="cls-9" points="267.78 294.83 309.38 303.83 350.98 312.83"/><polyline class="cls-9" points="267.78 346.23 309.38 355.23 350.98 364.23"/><polyline class="cls-9" points="267.78 397.73 309.38 406.73 350.98 415.73"/><polyline class="cls-9" points="267.78 449.13 309.38 458.13 350.98 467.13"/><polyline class="cls-9" points="267.78 500.53 309.38 509.53 350.98 518.53"/><polyline class="cls-9" points="267.78 552.03 309.38 561.03 350.98 570.03"/><polyline class="cls-9" points="267.78 603.43 309.38 612.43 350.98 621.43"/><line class="cls-9" x1="309.38" y1="303.83" x2="309.38" y2="612.43"/><polyline class="cls-9" points="266.88 294.83 225.28 303.83 183.68 312.83"/><polyline class="cls-9" points="266.88 346.23 225.28 355.23 183.68 364.23"/><polyline class="cls-9" points="266.88 397.73 225.28 406.73 183.68 415.73"/><polyline class="cls-9" points="266.88 449.13 225.28 458.13 183.68 467.13"/><polyline class="cls-9" points="266.88 500.53 225.28 509.53 183.68 518.53"/><polyline class="cls-9" points="266.88 552.03 225.28 561.03 183.68 570.03"/><polyline class="cls-9" points="266.88 603.43 225.28 612.43 183.68 621.43"/><line class="cls-9" x1="225.28" y1="303.83" x2="225.28" y2="612.43"/><circle class="cls-7" cx="450.28" cy="181.33" r="8.2"/><circle class="cls-7" cx="362.88" cy="113.73" r="5.1"/><circle class="cls-7" cx="348.28" cy="144.83" r="3.1"/><circle class="cls-7" cx="410.38" cy="199.13" r="3.1"/><circle class="cls-7" cx="263.68" cy="145.63" r="3.1"/><circle class="cls-7" cx="394.18" cy="94.83" r="3.1"/><circle class="cls-7" cx="461.58" cy="218.73" r="3.1"/><circle class="cls-7" cx="305.98" cy="139.13" r="8.2"/><circle class="cls-7" cx="316.08" cy="97.93" r="8.2"/><path class="cls-7" d="M959.1,448.7l-83.2-18v.4a130.73,130.73,0,0,0,83.2,29.8Z" transform="translate(-607.22 -135.87)"/><path class="cls-7" d="M959.1,448.7v12.1a130.53,130.53,0,0,0,83.2-29.8v-.4Z" transform="translate(-607.22 -135.87)"/><path class="cls-7" d="M959.1,705.9V674.1a83.33,83.33,0,0,0-81.4,65.6l31.1,6.7A51.66,51.66,0,0,1,959.1,705.9Z" transform="translate(-607.22 -135.87)"/><path class="cls-7" d="M959.1,674.1v31.8a51.48,51.48,0,0,1,50.3,40.6l31.1-6.7A83.23,83.23,0,0,0,959.1,674.1Z" transform="translate(-607.22 -135.87)"/><path class="cls-8" d="M908.9,746.5l50.3,10.9V706A51.29,51.29,0,0,0,908.9,746.5Z" transform="translate(-607.22 -135.87)"/><path class="cls-8" d="M1009.4,746.5a51.48,51.48,0,0,0-50.3-40.6v51.4Z" transform="translate(-607.22 -135.87)"/><polygon class="cls-7" points="153.88 369.63 127.78 363.83 127.78 429.73 153.88 435.53 153.88 369.63"/><ellipse class="cls-7" cx="747.98" cy="481.21" rx="12.1" ry="15.2" transform="translate(-748.53 331.11) rotate(-31.84)"/></svg>