<svg id="Layer_1" data-name="Layer 1" xmlns="http://www.w3.org/2000/svg" viewBox="0 0 545.36 417.67"><defs><style>.cls-1{fill:#ebf1fb;}.cls-1,.cls-11,.cls-12,.cls-13,.cls-14,.cls-15,.cls-16,.cls-17,.cls-18,.cls-19,.cls-2,.cls-20,.cls-21,.cls-22,.cls-23,.cls-24,.cls-26,.cls-27,.cls-28,.cls-29,.cls-3,.cls-30,.cls-31,.cls-32,.cls-33,.cls-34,.cls-35,.cls-36,.cls-37,.cls-38,.cls-39,.cls-4,.cls-40,.cls-41,.cls-42,.cls-43,.cls-44,.cls-45,.cls-47,.cls-6,.cls-7,.cls-8,.cls-9{fill-rule:evenodd;}.cls-2{fill:#f6fafe;}.cls-3{fill:#dce7f7;}.cls-4{fill:#e36a0d;}.cls-5,.cls-8{fill:#fff;}.cls-6{fill:#f6a428;}.cls-7{fill:#cbd9f1;}.cls-9{fill:#8dbfd5;}.cls-10,.cls-12{fill:#f9ba75;}.cls-11{fill:#d15d23;}.cls-13{fill:#010101;}.cls-14{fill:#302416;}.cls-15{fill:#e7e6e6;}.cls-16{fill:#866337;}.cls-17{fill:#534028;}.cls-18{fill:#1b1b1b;}.cls-19{fill:#a67f4c;}.cls-20{fill:#5d4d6b;}.cls-21{fill:#a094ac;}.cls-22{fill:#b4b4b4;}.cls-23{fill:#271d30;}.cls-24{fill:#6c5f78;}.cls-25,.cls-41{fill:#a795ba;}.cls-26{fill:#7c8da4;}.cls-27{fill:#1a1e2a;}.cls-28{fill:#da6b31;}.cls-29{fill:#cc6236;}.cls-30{fill:#9a4222;}.cls-31{fill:#752b10;}.cls-32{fill:#282f41;}.cls-33{fill:#f1a96a;}.cls-34{fill:#08090d;}.cls-35{fill:#4a4f5f;}.cls-36{fill:#1b1d27;}.cls-37{fill:#303545;}.cls-38{fill:#737a94;}.cls-39{fill:#e07e31;}.cls-40{fill:#382f43;}.cls-42{fill:#6a5c78;}.cls-43{fill:#4e98b8;}.cls-44{fill:#5698b5;}.cls-45{fill:#3385a9;}.cls-46,.cls-47{fill:#8ebdd1;}</style></defs><path class="cls-1" d="M587,307.36C639.66,239,644.9,146.83,597.08,76.25,548.93-2.06,378.61-54.4,269.06,44.66,253.06,58.56,230.38,61.59,203,56,120.43,38.2,63.66,94.82,91.91,158.12c14,32.26,40,49.76,76.89,50,21.39-.15,40.39,1.77,56.59,6a89.45,89.45,0,0,1,125.06,27.85q1.65,2.33,3.17,4.77l.41.54q2.37,3,4.48,6.28c1.27,1.64,2.49,3.33,3.66,5.09l3.37,5c1.36,2,2.65,4.18,4,6.27l5.31,7.3a90.07,90.07,0,0,1,6.46,7.47l2,1A88.88,88.88,0,0,1,399.71,292,89.51,89.51,0,0,1,423,294.63l5.18,1.29A89.32,89.32,0,0,1,448,303.08l6.36,3.18c2.39.58,4.78,1.26,7.15,2.06l3.2,1.06,2.38.68q3.81,1,7.56,2.38c1,.21,2,.43,3,.68l1.65.41c1.77.41,3.52.87,5.27,1.38a90.92,90.92,0,0,1,9.75,2.65l1.29.43c1.66.53,3.3,1.1,4.93,1.73l1.17.34c.88.15,1.75.31,2.62.48h1.25a88.13,88.13,0,0,1,9,.46A89.32,89.32,0,0,1,587,307.36" transform="translate(-84.57 9.6)"/><path class="cls-2" d="M219.51,180.44,549,346.1a230.84,230.84,0,0,0,41.47-43.3A59.44,59.44,0,0,0,519,275.72a70.14,70.14,0,0,0-90.62-89.11,115.15,115.15,0,0,0-208.91-6.17" transform="translate(-84.57 9.6)"/><path class="cls-3" d="M257.62,227.9c140.66,95.72,223.7,129,234.56,88.6A84.83,84.83,0,0,0,379.87,211.75a84.55,84.55,0,0,0-155.69,5.3c15.77-3.3,19-.07,33.44,10.85" transform="translate(-84.57 9.6)"/><path class="cls-4" d="M280.72,399.91c-20.73-1-33.34-10.39-32.5-24.83,1.66-19.15,29-27.12,60.79-23.95,8.66.65,8.64,2.41,6.6,11.34q-10.33,38.7-34.89,37.44" transform="translate(-84.57 9.6)"/><path class="cls-5" d="M294.16,354.69a1.24,1.24,0,0,1,2.45-.4l1.6,9.66,9.2-6.68a1.24,1.24,0,1,1,1.45,2l-15.52,11.26,10.84,3.65a1.24,1.24,0,0,1,.78,1.57,1.22,1.22,0,0,1-1.56.78l-12.52-4.22-17.8,12.92,18.25,4.33a1.24,1.24,0,1,1-.57,2.41l-20.32-4.82-11,8a1.24,1.24,0,0,1-1.46-2l11.4-8.26a.27.27,0,0,1,.08-.07L296,365.57Z" transform="translate(-84.57 9.6)"/><path class="cls-4" d="M150.59,248.52c-27.53,72.16-7.44,105.5,35.82,113.58,44.14,8.33,61.09-10.69,50.73-49.92q-16.09-49.68-73-71.87c-6.81-2.85-10.34-.32-13.5,8.21" transform="translate(-84.57 9.6)"/><path class="cls-5" d="M177.85,293.48a.19.19,0,0,1,0,.07l5.78,16.69L206,287.81a1.24,1.24,0,1,1,1.76,1.74l-23.21,23.29,5.34,15.45.06.15,7.49,21.65a1.25,1.25,0,0,1-.77,1.57,1.23,1.23,0,0,1-1.57-.77L187.86,330,153.1,328a1.24,1.24,0,1,1,.13-2.47L187,327.43,182,313a.65.65,0,0,1,0-.13l-6.13-17.69-25.4,0a1.24,1.24,0,1,1,0-2.47l24.55,0-5.2-15a1.09,1.09,0,0,1,0-.17L159,246.55a1.24,1.24,0,1,1,2.34-.81L171.45,275l15.08-13.85a1.24,1.24,0,0,1,1.68,1.82l-15.87,14.58Z" transform="translate(-84.57 9.6)"/><path class="cls-6" d="M265.15,389c-25.13,10.76-46.1,5.76-54.44-13.68-10.41-26.09,16.71-52.43,56.38-66.79,10.65-4.17,11.77-1.85,15.13,11.05Q295,376.42,265.15,389" transform="translate(-84.57 9.6)"/><path class="cls-6" d="M158.81,406.22c27.73-1.16,44.25-14.5,42.52-35.28-3-27.57-39.92-39.37-82.46-35.22-11.57.82-11.47,3.36-8.38,16.22q15.47,55.79,48.32,54.28" transform="translate(-84.57 9.6)"/><path class="cls-5" d="M142.87,357.13l.12.07,12,7.2-.5-21.68a1.24,1.24,0,1,1,2.48,0l.53,23.23,11.75,7,.16.09,7,4.23-.61-28.16a1.23,1.23,0,0,1,1.21-1.26,1.25,1.25,0,0,1,1.26,1.22l.65,29.7,11.74,7a1.24,1.24,0,1,1-1.27,2.12l-20.65-12.38-24.07,18.74a1.24,1.24,0,1,1-1.52-2l23.3-18.14-24.21-14.51-15.66,9.8a1.24,1.24,0,0,1-1.31-2.11l14.59-9.12-25-15a1.24,1.24,0,0,1,1.27-2.13Z" transform="translate(-84.57 9.6)"/><path class="cls-5" d="M218.46,348.13a1.24,1.24,0,0,1,2.27-1L235,379.24l38-66.79a1.24,1.24,0,1,1,2.15,1.22l-17.76,31.18,22.24-.85a1.24,1.24,0,0,1,.09,2.47l-23.77.92-14.23,25,28.9-1.12a1.24,1.24,0,0,1,.09,2.48l-30.43,1.17-4.35,7.63a.75.75,0,0,1-.07.12l-3.91,6.87a1.24,1.24,0,0,1-2.15-1.22l3.64-6.39Z" transform="translate(-84.57 9.6)"/><path class="cls-7" d="M286.23,273c8.63,55.4,37.87,88.17,80.62,108.74q65.59,29.71,132.85-3.35h0l.19-.1q5.36-2.64,10.73-5.67l-.16,0a270.09,270.09,0,0,0,52.59-38.92,71,71,0,0,0-108.87-7.76,68.53,68.53,0,0,0-88.06-60.68,69.83,69.83,0,0,0-108.5-37.31,81,81,0,0,1,7.27,5.59c11.41,10,18.73,23,21.34,39.48" transform="translate(-84.57 9.6)"/><path class="cls-8" d="M336.54,44.35H502.7a2,2,0,0,1,2,2V181a2,2,0,0,1-2,2H336.54a2,2,0,0,1-2-2V46.34a2,2,0,0,1,2-2" transform="translate(-84.57 9.6)"/><path class="cls-9" d="M369.49,61.39h5.57a4,4,0,0,1,4,4v96.57a4,4,0,0,1-4,4h-5.57a4,4,0,0,1-4-4V65.36a4,4,0,0,1,4-4" transform="translate(-84.57 9.6)"/><path class="cls-9" d="M391.34,89.42h7.55a3,3,0,0,1,3,3v70.53a3,3,0,0,1-3,3h-7.55a3,3,0,0,1-3-3V92.4a3,3,0,0,1,3-3" transform="translate(-84.57 9.6)"/><path class="cls-9" d="M415.42,143.34H423a3,3,0,0,1,3,3v16.61a3,3,0,0,1-3,3h-7.56a3,3,0,0,1-3-3V146.32a3,3,0,0,1,3-3" transform="translate(-84.57 9.6)"/><path class="cls-9" d="M438.52,117.5h7.56a3,3,0,0,1,3,3v42.45a3,3,0,0,1-3,3h-7.56a3,3,0,0,1-3-3V120.48a3,3,0,0,1,3-3" transform="translate(-84.57 9.6)"/><path class="cls-9" d="M463.24,77.81h7.55a3,3,0,0,1,3,3v82.14a3,3,0,0,1-3,3h-7.55a3,3,0,0,1-3-3V80.79a3,3,0,0,1,3-3" transform="translate(-84.57 9.6)"/><rect class="cls-10" x="147.01" y="387.78" width="17.37" height="17.37"/><polygon class="cls-11" points="148.57 387.78 156.49 387.78 156.68 405.15 148.76 405.15 148.57 387.78"/><polygon class="cls-12" points="104.64 387.78 122.01 387.78 119.92 405.15 102.55 405.15 104.64 387.78"/><polygon class="cls-11" points="106.75 387.78 114.67 387.78 112.22 405.15 104.3 405.15 106.75 387.78"/><path class="cls-13" d="M229.28,402.77q28.56,5,45.48,0a6.8,6.8,0,0,0-5.34-8.1l-9.4-1.4-8.79-6.45a2.71,2.71,0,0,0-3.59,1.82,10.12,10.12,0,0,1-16.78.28,40,40,0,0,0-1.58,13.85" transform="translate(-84.57 9.6)"/><path class="cls-14" d="M254.24,219.25c-13.06-12.74-32.53-15.05-45.86-5.45l18.12,81.91S227,324.47,228,382l23.31,0,5.43-85.48-2.46-77.24" transform="translate(-84.57 9.6)"/><path class="cls-15" d="M229.1,402.77h45.84a.69.69,0,0,1,.69.69v3.92a.69.69,0,0,1-.69.69H229.1a.69.69,0,0,1-.69-.69v-3.92a.69.69,0,0,1,.69-.69" transform="translate(-84.57 9.6)"/><path class="cls-16" d="M237.88,213.75l12.26,7.47,2.64,76.19q-4.59,78-4.6,78l-7.13.15,3.15-78.64q-6.33-83.13-6.32-83.13" transform="translate(-84.57 9.6)"/><path class="cls-17" d="M232.12,219.25a34.89,34.89,0,0,0-45.2-5.45s2.75,27.3,8.26,81.91T186.25,382l23.31,0,15.72-85.48,6.84-77.24" transform="translate(-84.57 9.6)"/><path class="cls-18" d="M185.45,402.77q28.55,5,45.47,0a6.8,6.8,0,0,0-5.33-8.1l-9.41-1.4-8.79-6.45a2.7,2.7,0,0,0-2.19.11,2.75,2.75,0,0,0-1.4,1.71,10.11,10.11,0,0,1-16.77.28,39.57,39.57,0,0,0-1.58,13.85" transform="translate(-84.57 9.6)"/><path class="cls-8" d="M185.26,402.77H231.1a.69.69,0,0,1,.69.69v3.92a.69.69,0,0,1-.69.69H185.26a.69.69,0,0,1-.69-.69v-3.92a.69.69,0,0,1,.69-.69" transform="translate(-84.57 9.6)"/><path class="cls-19" d="M199.4,373.19l6.65.31,15-77.1,7.17-80.8-12.11,4.3-4.26,76.86Z" transform="translate(-84.57 9.6)"/><path class="cls-20" d="M341.21,96.57Q331,84.38,330.94,84.38l-46.1,33-36.21-.64a11.3,11.3,0,0,0-11.72,10.1c-.63,5.94,3.5,12.13,9.35,12.33l51.6,1.12,43.35-43.69" transform="translate(-84.57 9.6)"/><path class="cls-21" d="M330.27,88.88l5.47,1.42-46.24,38-32.84,2.87s-1.83-3.75-5.51-11.24l34.38.22,44.74-31.3" transform="translate(-84.57 9.6)"/><path class="cls-8" d="M201.12,124.84q3.7,94.11,3.71,94.11a150.65,150.65,0,0,0,40.62-.56q4.08-106.27-15.92-105-30.17-5.19-28.41,11.48" transform="translate(-84.57 9.6)"/><path class="cls-22" d="M203,120.06q-2.82,84,4.59,96.36a259.69,259.69,0,0,0,33,.22l1.17-3.73L203,120.06" transform="translate(-84.57 9.6)"/><path class="cls-23" d="M203.76,140q5.66,51.67,5.66,51.67.5,33.36.49,33.36a43.62,43.62,0,0,1-30.83-5.88l-1.26-89.71q.68-11.07,22.05-17.34,9.47,21.54,3.89,27.9" transform="translate(-84.57 9.6)"/><path class="cls-23" d="M236.3,137.14q4,13.28,3.42,54.74,1.13,32.64,1.13,32.64A55.54,55.54,0,0,0,265.68,220q-7.24-95-7.25-95a10.09,10.09,0,0,0-5.54-7.05l-14.46-6.46-2.13,25.72" transform="translate(-84.57 9.6)"/><path class="cls-12" d="M217.23,93.75A103.33,103.33,0,0,1,229,101.21l.3,7,5.59.43q-1.74,40.62-27.71,8.25a8.94,8.94,0,0,0,3.79-6.45c0-.1,0-.21.06-.31.35-.31.67-.65,1-1a9.89,9.89,0,0,0,1.23-1.54l.21-.32a9.15,9.15,0,0,0,1.39-2.44,9.46,9.46,0,0,0,.72-2.16,8.71,8.71,0,0,0,.42-1.8,5,5,0,0,0,.11-.66,8.24,8.24,0,0,0,.17-1.31c.05-.28.08-.55.11-.83a9.08,9.08,0,0,0,.13-1.71v-.08l.06-.47c.07-.2.13-.4.19-.61a8.4,8.4,0,0,0,.45-1.51" transform="translate(-84.57 9.6)"/><path class="cls-11" d="M229.27,107.32l0-.83-20.15-15s0,5.63,0,16.89l-7.34,1.41,5.61,7.41,21.87-9.88" transform="translate(-84.57 9.6)"/><path class="cls-24" d="M251.21,138.44l-11.49,53.44s-2.57-28.21-7.7-84.63l7.45,2.77,10.8,19.14-11.84,3.64,12.78,5.64" transform="translate(-84.57 9.6)"/><path class="cls-12" d="M190.05,236.31l15.76-7.8,7.72,8.56L196.3,252.4l-6.25-16.09" transform="translate(-84.57 9.6)"/><path class="cls-12" d="M346.68,89.69a14,14,0,0,0,14.37-9,2.33,2.33,0,0,0-1.41-2.11,1.87,1.87,0,0,0-2.25.6,13.12,13.12,0,0,1-4.1,3.27,1.63,1.63,0,0,1-1.62-.33,1.86,1.86,0,0,1-.63-1.63,16.23,16.23,0,0,1,13.44-9.49,2.37,2.37,0,0,0,1.39-2.44,2.82,2.82,0,0,0-1.81-2.39,25.6,25.6,0,0,0-26.12,10.64l-6,8.49,7.61,10.07q.42-.87,7.14-5.73" transform="translate(-84.57 9.6)"/><rect class="cls-25" x="333.42" y="78.79" width="7.38" height="28" transform="translate(-55.74 267.38) rotate(-43.55)"/><path class="cls-8" d="M237.4,66.26A5.44,5.44,0,1,1,232,71.7a5.45,5.45,0,0,1,5.43-5.44" transform="translate(-84.57 9.6)"/><path class="cls-26" d="M239.2,68.08a3.42,3.42,0,1,1-3.42,3.41,3.41,3.41,0,0,1,3.42-3.41" transform="translate(-84.57 9.6)"/><path class="cls-13" d="M240.36,69.62a1.85,1.85,0,1,1-1.85,1.85,1.85,1.85,0,0,1,1.85-1.85" transform="translate(-84.57 9.6)"/><path class="cls-8" d="M241.14,68.45A1.18,1.18,0,1,1,240,69.63a1.18,1.18,0,0,1,1.17-1.18" transform="translate(-84.57 9.6)"/><path class="cls-27" d="M238.31,61.87c.07,3.18.1,4.77.1,4.77l.89-.2a2.34,2.34,0,0,0-1-4.57" transform="translate(-84.57 9.6)"/><path class="cls-12" d="M209.08,63.07,208,89.18q5.28,21,29.43,19.69,8.53-.42,5.85-12.77c-.67-3-1.43-5.89-.76-9.95q.84-2.36-3.27-11.84c-.87-2.39-1.63-4.43-.56-6.7q3.06-6.82-12.18-16.64Q197,46,209.08,63.07" transform="translate(-84.57 9.6)"/><path class="cls-28" d="M209.08,63.07,208,89.18q4.86,19.27,25.66,19.75a21.47,21.47,0,0,1-.38-8.38,21.4,21.4,0,0,1-5.34-6.23A10.69,10.69,0,0,1,227.09,75c.28-.61.59-1.21.92-1.79l-.07,0a21.22,21.22,0,0,1-2.61-1.53,10.63,10.63,0,0,1-6.7-7.21,21,21,0,0,1-2.1-4.64l0-.12a21.43,21.43,0,0,1-1.1-7.19V52c0-.71,0-1.4.1-2.09q-15.86-.06-6.41,13.21" transform="translate(-84.57 9.6)"/><path class="cls-8" d="M230.11,108.84a46.55,46.55,0,0,0,5.8,0q8.55-.42,5.86-12.77c-.68-3-1.44-5.89-.77-9.95q.84-2.36-3.27-11.84c-.87-2.39-1.63-4.43-.56-6.7Q240.25,60.79,225,51q-21.7-3.63-20.93,4.61a15.8,15.8,0,0,1,7.92-2.5,15.51,15.51,0,0,1,3.88-.4h.6a16.05,16.05,0,0,1,15.42,20.4c2.93,4.83,5.18,10.41,5.18,16.47,0,7.2,3.28,17.73-6.95,19.29" transform="translate(-84.57 9.6)"/><path class="cls-29" d="M236.68,68.61c-.37-2.3.76-2.85,1.69-1.11l6.32,11.38a3.26,3.26,0,0,1-2,6.07,2.61,2.61,0,0,0-3.43-.07,2.7,2.7,0,1,1-.88-5q-1.69-11.31-1.69-11.31" transform="translate(-84.57 9.6)"/><path class="cls-30" d="M230.55,67.22a6,6,0,1,1-6,6,6,6,0,0,1,6-6" transform="translate(-84.57 9.6)"/><path class="cls-8" d="M232,67.15A4.85,4.85,0,1,1,227.2,72,4.85,4.85,0,0,1,232,67.15" transform="translate(-84.57 9.6)"/><path class="cls-26" d="M233.64,68.77a3,3,0,1,1-3,3,3,3,0,0,1,3-3" transform="translate(-84.57 9.6)"/><path class="cls-13" d="M234.68,70.14A1.65,1.65,0,1,1,233,71.79a1.65,1.65,0,0,1,1.64-1.65" transform="translate(-84.57 9.6)"/><path class="cls-8" d="M234.76,68.6a1.29,1.29,0,1,1-1.29,1.28,1.28,1.28,0,0,1,1.29-1.28" transform="translate(-84.57 9.6)"/><path class="cls-31" d="M231.41,93.61a13.27,13.27,0,0,0,11.35,1.87,23.48,23.48,0,0,0-.95-5.32c-1.22.36-4.43.67-9.63.91a7.86,7.86,0,0,0-.77,2.54" transform="translate(-84.57 9.6)"/><path class="cls-8" d="M233.71,90.84a1.54,1.54,0,0,0,.18,1.4c.76.28,5.7,1.21,7.91.33-.12-.82-.28-1.63-.46-2.43q-2.37.27-7.63.7" transform="translate(-84.57 9.6)"/><path class="cls-32" d="M233.54,110.8q12.19.8,10.85-10.63c-.38-2.47-1.07-2.5-1.46-.43-1.1,5.4-11,4.83-11.32-5.09.19-4.08,3.79-3.32,10.75-3.49.78,0,1.28-1,.58-4.57-.28-1.43-.92-1.69-2.76-1.14-1,.23-4,1.27-8.88,3.09-.83,6.14-7.21,8.3-13.49-1.56a22,22,0,0,1-2.53,3.14V95l-.21-1a21.05,21.05,0,0,1,.35,3.88c.06.25.11.5.16.76s.2.51.29.77a19.62,19.62,0,0,1,1.56,2l.09.06a22,22,0,0,1,2.1,1.21,21.07,21.07,0,0,1,2.88,1.9c.48.35.94.72,1.39,1.11s1,.78,1.51,1.21,1.12.94,1.65,1.45a24.27,24.27,0,0,1,2.23,1.33,9.72,9.72,0,0,1,1,.39,10.41,10.41,0,0,1,2.4.47c.28.07.56.15.84.25" transform="translate(-84.57 9.6)"/><path class="cls-31" d="M242.67,96.69a1.83,1.83,0,0,1-.08,1.77,9.91,9.91,0,0,1-7.94-1.92q5.29,1.26,8,.15" transform="translate(-84.57 9.6)"/><path class="cls-27" d="M221.56,70.14c-.66,1.26.07,1.66,1.16.56q2.59-2.65,11-2.47a2.7,2.7,0,0,0,2.49-1.45A2.55,2.55,0,0,0,236,64a3.09,3.09,0,0,0-2.7-1.21q-8.61.77-11.75,7.33" transform="translate(-84.57 9.6)"/><path class="cls-33" d="M243,79.09a2.61,2.61,0,1,1-2.6,2.61,2.6,2.6,0,0,1,2.6-2.61" transform="translate(-84.57 9.6)"/><path class="cls-8" d="M244.59,80.43a1.41,1.41,0,1,1-1.41,1.41,1.41,1.41,0,0,1,1.41-1.41" transform="translate(-84.57 9.6)"/><path class="cls-34" d="M224.27,109a39.86,39.86,0,0,0,11,1.83,21.37,21.37,0,0,1-17.2-21,22.58,22.58,0,0,1,.13-2.33c-.43-.64-.86-1.34-1.29-2.09a4.86,4.86,0,0,0-8.9,3.7l-.69.73c2.28,9.75,7.82,16.43,17,19.12" transform="translate(-84.57 9.6)"/><path class="cls-35" d="M213.57,85.34c1.46,1.34,4.41.45,3.71-1.39-3.49-9.39-4.07-15.38,1.14-17.28q6.47-2.33-2.29-10.59-25.32,4.79-27.21,12.56,4.5,14.88,13.36,13.83c5.4-.52,9,.78,11.29,2.87" transform="translate(-84.57 9.6)"/><path class="cls-36" d="M208.79,77.53a13.37,13.37,0,0,1-9.26-12.72,13.2,13.2,0,0,1,1.56-6.26q-9.9,3.63-11.06,8.38,4.5,14.88,13.35,13.83a20.92,20.92,0,0,1,5.38.13,13,13,0,0,1,0-3.36" transform="translate(-84.57 9.6)"/><path class="cls-27" d="M216.84,44.85l-1.61,9.74q3.12,4-2.62,4.8a66.47,66.47,0,0,0-14.21,3.08,13.41,13.41,0,0,0-7.89-4.95v0c.21-.31.42-.62.62-1l.44-.75A13.27,13.27,0,0,0,193.23,54a13.34,13.34,0,0,0,4.32-5.8,25.89,25.89,0,0,1,19.29-3.35" transform="translate(-84.57 9.6)"/><path class="cls-34" d="M198.82,62.32q-8.13,2.81-10.7,7.59c-1.55,2.77-2.64,2.5-2.72-.76-.24-7.58,4-14.8,10-19.49A25.86,25.86,0,0,1,199.64,47a13.36,13.36,0,0,0-.82,15.3" transform="translate(-84.57 9.6)"/><path class="cls-37" d="M213.5,46.36q-5.58,3.51-1,6.91a12.07,12.07,0,0,0,12.29,1.19,13.62,13.62,0,0,1,1.87-2.66c.19-.46.4-.92.63-1.36l.18-.37c.1-.25.2-.48.3-.72s.1-.55.17-.81,0-.43.08-.64a13.84,13.84,0,0,1,.2-2c0-.18.05-.36.07-.54V43.25a13.73,13.73,0,0,1,.14-1.94v-.46a13.6,13.6,0,0,1,.15-2l-.26-.26a13.18,13.18,0,0,1-1.4-.56,13.61,13.61,0,0,1-2.67-1.41c-.34-.19-.66-.4-1-.62a14.31,14.31,0,0,1-1.66-1.27l-.46-.3-.64-.3q-.7-.34-1.38-.75l-.75-.16c-.29-.05-.58-.1-.86-.17a12.07,12.07,0,0,1-1.75-.43c-.33-.08-.66-.18-1-.29h-.27a13.13,13.13,0,0,1-3.46.46h-.37a13.32,13.32,0,0,0-3.57,1.93A13,13,0,0,0,203.43,51c1.26,2.37,1.85,2.12,1.91-.89.15-6.43,5.28-11.72,8.88-7.21a2.32,2.32,0,0,1-.72,3.44" transform="translate(-84.57 9.6)"/><path class="cls-38" d="M223.38,55a12.47,12.47,0,0,0,2.09-.91,12.07,12.07,0,0,0-1.54-21.85q-3.54-1.45-.16,3.25a12.92,12.92,0,0,0-15.5-1.59,11.46,11.46,0,0,1,1.38-.32A13.35,13.35,0,0,1,223.38,55" transform="translate(-84.57 9.6)"/><path class="cls-12" d="M205.49,90.14c2.87,1.67,5.55.71,6.5-2.32a14.78,14.78,0,0,0-3.61-13.33,4.9,4.9,0,0,0-5-1.16,5.3,5.3,0,0,0-3.59,3.72,11.57,11.57,0,0,0,5.74,13.09" transform="translate(-84.57 9.6)"/><path class="cls-39" d="M204.87,87c1.77,1,3.41.43,4-1.43a9.11,9.11,0,0,0-2.22-8.19,3,3,0,0,0-3.1-.71,3.22,3.22,0,0,0-2.2,2.29,7.09,7.09,0,0,0,3.52,8" transform="translate(-84.57 9.6)"/><path class="cls-31" d="M206.28,84.2a1.49,1.49,0,0,0,2.38-.86,5.44,5.44,0,0,0-1.32-4.88,1.78,1.78,0,0,0-1.85-.42,1.93,1.93,0,0,0-1.32,1.36,4.24,4.24,0,0,0,2.11,4.8" transform="translate(-84.57 9.6)"/><path class="cls-24" d="M191.2,140.74q18.23,51.52,18.22,51.53l-3.18-84.92-7,3.7-8.27,20.36,12.21,2.1-12,7.23" transform="translate(-84.57 9.6)"/><path class="cls-20" d="M191.32,235.86,205.11,229,181.87,171l10.19-38.63a12.47,12.47,0,0,0-7.74-15.22c-6.19-2.23-13.91.57-15.67,6.78L168,126.3a8.68,8.68,0,0,1-.31,2.51,8.48,8.48,0,0,1-.32,1.09v.62a8.84,8.84,0,0,1-1,4.19,7.49,7.49,0,0,1-.36.69l0,1.25h0a9,9,0,0,1-.5,2.94,9.24,9.24,0,0,1-.38,1.68l-.11.31-.16.51a8.92,8.92,0,0,1-.29,1.24,5.17,5.17,0,0,1-.16.68c0,.17-.06.35-.1.52l0,.36a8,8,0,0,1-.27,1.36,5.12,5.12,0,0,1-.1.54V148a8.87,8.87,0,0,1-.77,3.65c0,.41,0,.83-.08,1.23l-.22,2.25v2.65a19,19,0,0,1-.2,2.12l-.12,1.06c-.06.61-.09,1.24-.17,1.85L162,165v1.52c0,.74-.27,1.43-.27,2.17v5.5a9,9,0,0,1-.59,3.2,8.88,8.88,0,0,1-2.48,4.1,8.64,8.64,0,0,1,1.26,2l1,2,.8,1.49a10.27,10.27,0,0,1,.73,1.75l.17.25a19.44,19.44,0,0,1,1,1.77l.58.79a8.9,8.9,0,0,1,4.36,4.46l.36.81,1,1.79.85,1.35c.5.78.84,1.64,1.31,2.44l.3.35c.43.5.8,1.07,1.18,1.61l.6.69a12.13,12.13,0,0,1,1.5,2.28l.13.19.53.62c.2.22.38.46.59.67a9.63,9.63,0,0,1,1.2,1.5,8.41,8.41,0,0,1,1.08,1.53l.16.21a8.8,8.8,0,0,1,1.41,1.88,9.82,9.82,0,0,1,1.07,1.73,7.33,7.33,0,0,1,.54.79,7.8,7.8,0,0,1,1,1.5,8.84,8.84,0,0,1,1.26,2,9.18,9.18,0,0,1,.53.92c.11.22.22.43.32.65s.27.53.39.8l.21.33a11.4,11.4,0,0,1,.75,1.07l0,0a8.45,8.45,0,0,1,.8,1,9.39,9.39,0,0,1,1.07,1.66c.07.11.14.22.2.33a8.82,8.82,0,0,1,1,1.76,8.46,8.46,0,0,1,.61,1.33,8.92,8.92,0,0,1,.93,4,9.31,9.31,0,0,1-.22,2.1" transform="translate(-84.57 9.6)"/><path class="cls-21" d="M177.92,119q2.91,2.58,2.19,10.17s-3.36,14.15-10.09,42.45l29.13,50.88S192.23,205.35,178.4,171L188.64,131a10.53,10.53,0,0,0-10.72-12" transform="translate(-84.57 9.6)"/><path class="cls-40" d="M196.15,229.69l-9.2,3.22-33-54,14.74-55-5.55,51.25s11,18.17,33.05,54.53" transform="translate(-84.57 9.6)"/><path class="cls-41" d="M188.9,231.8l17.65-10.1,4,7.07-17.44,10a8.94,8.94,0,0,0-4.26-6.95" transform="translate(-84.57 9.6)"/><polygon class="cls-42" points="95.16 246.64 105.37 240.8 110.1 247.48 99.21 253.71 95.16 246.64"/><path class="cls-43" d="M342.75,177.57h89a3.49,3.49,0,0,1,3.48,3.47v59.84a3.49,3.49,0,0,1-3.48,3.47H297.46A120,120,0,0,0,305.3,231c.84-1.62,1.63-3.26,2.39-4.91a121.49,121.49,0,0,0,7.12-19.37c.25-.81.48-1.63.71-2.44a121.51,121.51,0,0,0,27.23-26.73" transform="translate(-84.57 9.6)"/><path class="cls-9" d="M292.32,177.57h57.82a121.86,121.86,0,0,0-45.5,66.78H292.32a3.48,3.48,0,0,1-3.47-3.47V181a3.48,3.48,0,0,1,3.47-3.47" transform="translate(-84.57 9.6)"/><path class="cls-8" d="M318.28,194.48a17.79,17.79,0,1,1-17.79,17.78,17.78,17.78,0,0,1,17.79-17.78" transform="translate(-84.57 9.6)"/><path class="cls-44" d="M309.66,219.33H327.6a9,9,0,0,0-7.25-8.89,4.21,4.21,0,1,0-3.83.08,9,9,0,0,0-6.86,8.81" transform="translate(-84.57 9.6)"/><path class="cls-8" d="M343.57,197.22h79.86a2,2,0,0,1,2,2v1.06a2,2,0,0,1-2,2H343.57a2,2,0,0,1-2-2v-1.06a2,2,0,0,1,2-2" transform="translate(-84.57 9.6)"/><path class="cls-8" d="M343.57,207.21h66a2,2,0,0,1,2,2v1.06a2,2,0,0,1-2,2h-66a2,2,0,0,1-2-2v-1.06a2,2,0,0,1,2-2" transform="translate(-84.57 9.6)"/><path class="cls-8" d="M343.57,217.32h18.57a2,2,0,0,1,2,2v1.06a2,2,0,0,1-2,2H343.57a2,2,0,0,1-2-2v-1.06a2,2,0,0,1,2-2" transform="translate(-84.57 9.6)"/><path class="cls-45" d="M286.11,158.78a17.75,17.75,0,1,1-17.75,17.75,17.75,17.75,0,0,1,17.75-17.75" transform="translate(-84.57 9.6)"/><path class="cls-8" d="M443.75,178.93H551.52a3,3,0,0,1,3,3V317a3,3,0,0,1-3,3H443.75a3,3,0,0,1-3-3V181.91a3,3,0,0,1,3-3" transform="translate(-84.57 9.6)"/><path class="cls-44" d="M441.2,173.12H554.07a.44.44,0,0,1,.43.43v15.67a.43.43,0,0,1-.43.43H441.2a.43.43,0,0,1-.43-.43V173.55a.44.44,0,0,1,.43-.43" transform="translate(-84.57 9.6)"/><path class="cls-8" d="M452.15,178.93a2.54,2.54,0,1,1-2.53,2.54,2.54,2.54,0,0,1,2.53-2.54" transform="translate(-84.57 9.6)"/><path class="cls-8" d="M460.73,178.93a2.54,2.54,0,1,1-2.54,2.54,2.54,2.54,0,0,1,2.54-2.54" transform="translate(-84.57 9.6)"/><path class="cls-8" d="M469.68,178.93a2.54,2.54,0,1,1-2.53,2.54,2.54,2.54,0,0,1,2.53-2.54" transform="translate(-84.57 9.6)"/><path class="cls-8" d="M482.6,179.28h45.21a2,2,0,0,1,2,2v.21a2,2,0,0,1-2,2H482.6a2,2,0,0,1-2-2v-.21a2,2,0,0,1,2-2" transform="translate(-84.57 9.6)"/><path class="cls-44" d="M485.42,207.07h59.64a2.36,2.36,0,0,0,2.35-2.35v0a2.35,2.35,0,0,0-2.35-2.34H485.42a2.34,2.34,0,0,0-2.34,2.34v0a2.35,2.35,0,0,0,2.34,2.35" transform="translate(-84.57 9.6)"/><path class="cls-44" d="M485.42,215.56h59.64a2.35,2.35,0,0,0,2.35-2.34v0a2.36,2.36,0,0,0-2.35-2.35H485.42a2.35,2.35,0,0,0-2.34,2.35v0a2.34,2.34,0,0,0,2.34,2.34" transform="translate(-84.57 9.6)"/><path class="cls-44" d="M485.42,224.19h59.64a2.35,2.35,0,0,0,2.35-2.34v0a2.35,2.35,0,0,0-2.35-2.34H485.42a2.34,2.34,0,0,0-2.34,2.34v0a2.34,2.34,0,0,0,2.34,2.34" transform="translate(-84.57 9.6)"/><path class="cls-44" d="M485.42,232.69h59.64a2.36,2.36,0,0,0,2.35-2.34v0a2.36,2.36,0,0,0-2.35-2.34H485.42a2.35,2.35,0,0,0-2.34,2.34v0a2.35,2.35,0,0,0,2.34,2.34" transform="translate(-84.57 9.6)"/><path class="cls-46" d="M461.2,212.7c0-1.65-.49-2.48-1.45-2.48s-1.45.83-1.45,2.48.48,2.45,1.45,2.45,1.45-.82,1.45-2.45m11.67,8.76c0-1.64-.48-2.45-1.44-2.45s-1.45.81-1.45,2.45.48,2.5,1.45,2.5S472.87,223.12,472.87,221.46Zm-16.71-12.54a5.43,5.43,0,0,1,7.18,0,6.22,6.22,0,0,1,0,7.56,5.49,5.49,0,0,1-7.19,0,6.23,6.23,0,0,1,0-7.55Zm11.68,8.76a5.56,5.56,0,0,1,7.18,0,6.24,6.24,0,0,1,0,7.57,5.49,5.49,0,0,1-7.19,0,5.3,5.3,0,0,1-1.28-3.79A5.24,5.24,0,0,1,467.84,217.68Zm.87-9.88h3.15l-9.4,18.54h-3.15Z" transform="translate(-84.57 9.6)"/><path class="cls-47" d="M453.67,243.44H541.6a1.65,1.65,0,0,1,1.65,1.65v59.74a1.65,1.65,0,0,1-1.65,1.65H453.67a1.65,1.65,0,0,1-1.65-1.65V245.09a1.65,1.65,0,0,1,1.65-1.65" transform="translate(-84.57 9.6)"/><path class="cls-8" d="M463.54,254.32h68.3a1.47,1.47,0,0,1,1.47,1.47h0a1.47,1.47,0,0,1-1.47,1.47h-68.3a1.47,1.47,0,0,1-1.47-1.47h0a1.47,1.47,0,0,1,1.47-1.47" transform="translate(-84.57 9.6)"/><path class="cls-8" d="M463.54,260.41h68.3a1.47,1.47,0,0,1,1.47,1.47h0a1.47,1.47,0,0,1-1.47,1.47h-68.3a1.47,1.47,0,0,1-1.47-1.47h0a1.47,1.47,0,0,1,1.47-1.47" transform="translate(-84.57 9.6)"/><path class="cls-8" d="M463.54,266.56h68.3a1.47,1.47,0,0,1,1.47,1.47h0a1.47,1.47,0,0,1-1.47,1.47h-68.3a1.47,1.47,0,0,1-1.47-1.47h0a1.47,1.47,0,0,1,1.47-1.47" transform="translate(-84.57 9.6)"/><path class="cls-8" d="M463.54,272.66h68.3a1.47,1.47,0,0,1,1.47,1.47h0a1.47,1.47,0,0,1-1.47,1.47h-68.3a1.47,1.47,0,0,1-1.47-1.47h0a1.47,1.47,0,0,1,1.47-1.47" transform="translate(-84.57 9.6)"/><path class="cls-8" d="M477.45,288.85h40.47a1.47,1.47,0,0,1,1.47,1.47h0a1.47,1.47,0,0,1-1.47,1.47H477.45a1.47,1.47,0,0,1-1.47-1.47h0a1.47,1.47,0,0,1,1.47-1.47" transform="translate(-84.57 9.6)"/><path class="cls-44" d="M336.54,23a22,22,0,1,1-22,22,22,22,0,0,1,22-22" transform="translate(-84.57 9.6)"/><g id="Ada_Logo" data-name="Ada Logo"><g id="ada-logo.inline"><g id="Page-1"><g id="ada-logo.inline-2" data-name="ada-logo.inline"><g id="Group"><path id="Shape" class="cls-5" d="M397.78,272l9.81,23a.78.78,0,0,0,1,.41.76.76,0,0,0,.41-1L398.5,269.68a.78.78,0,0,0-1.44,0l-10.52,24.67a.76.76,0,0,0,.41,1,.78.78,0,0,0,1-.41Z" transform="translate(-84.57 9.6)"/><path id="Shape-2" data-name="Shape" class="cls-5" d="M388.93,281.07h17.7a.78.78,0,1,0,0-1.55h-17.7a.78.78,0,1,0,0,1.55Zm-2.4,4.93H409a.77.77,0,1,0,0-1.54h-22.5a.77.77,0,1,0,0,1.54Z" transform="translate(-84.57 9.6)"/></g></g></g></g></g><g id="Ada_Logo-2" data-name="Ada Logo"><g id="ada-logo.inline-3" data-name="ada-logo.inline"><g id="Page-1-2" data-name="Page-1"><g id="ada-logo.inline-4" data-name="ada-logo.inline"><g id="Group-2" data-name="Group"><path id="Shape-3" data-name="Shape" class="cls-5" d="M558.38,102.22l15.89,37.26a1.26,1.26,0,0,0,1.65.66,1.25,1.25,0,0,0,.67-1.64l-17.05-40a1.26,1.26,0,0,0-2.32,0l-17.06,40a1.25,1.25,0,0,0,.67,1.64,1.26,1.26,0,0,0,1.65-.66Z" transform="translate(-84.57 9.6)"/><path id="Shape-4" data-name="Shape" class="cls-5" d="M544,117h28.69a1.25,1.25,0,1,0,0-2.5H544a1.25,1.25,0,1,0,0,2.5Zm-3.87,8h36.43a1.25,1.25,0,1,0,0-2.5H540.16a1.25,1.25,0,1,0,0,2.5Z" transform="translate(-84.57 9.6)"/></g></g></g></g></g><g id="Cardano_Logo" data-name="Cardano Logo"><path class="cls-5" d="M328.35,44.89a2.45,2.45,0,0,0,2.3,2.57h.14a2.44,2.44,0,1,0-2.44-2.58Z" transform="translate(-84.57 9.6)"/><path class="cls-5" d="M319.26,44.26a.79.79,0,1,0,.74.84A.79.79,0,0,0,319.26,44.26Z" transform="translate(-84.57 9.6)"/><path class="cls-5" d="M328.2,30.73a.79.79,0,1,0-1.06-.35A.8.8,0,0,0,328.2,30.73Z" transform="translate(-84.57 9.6)"/><path class="cls-5" d="M330.67,35.05a1.22,1.22,0,1,0-1.63-.54A1.22,1.22,0,0,0,330.67,35.05Z" transform="translate(-84.57 9.6)"/><path class="cls-5" d="M322.35,38a1,1,0,1,0-.29-1.39A1,1,0,0,0,322.35,38Z" transform="translate(-84.57 9.6)"/><path class="cls-5" d="M323.83,43.82A1.22,1.22,0,1,0,325,45.11,1.23,1.23,0,0,0,323.83,43.82Z" transform="translate(-84.57 9.6)"/><path class="cls-5" d="M322.48,52a1,1,0,0,0-.45,1.34,1,1,0,1,0,.45-1.34Z" transform="translate(-84.57 9.6)"/><path class="cls-5" d="M327.21,41.31a1.44,1.44,0,1,0-.41-2A1.44,1.44,0,0,0,327.21,41.31Z" transform="translate(-84.57 9.6)"/><path class="cls-5" d="M342.24,35a1.22,1.22,0,1,0-.35-1.69A1.22,1.22,0,0,0,342.24,35Z" transform="translate(-84.57 9.6)"/><path class="cls-5" d="M344.74,30.65a.79.79,0,1,0-.23-1.1A.8.8,0,0,0,344.74,30.65Z" transform="translate(-84.57 9.6)"/><path class="cls-5" d="M342.43,42.56a2.44,2.44,0,0,0-.28,4.88h.14a2.44,2.44,0,0,0,2.44-2.3,2.37,2.37,0,0,0-.62-1.76A2.42,2.42,0,0,0,342.43,42.56Z" transform="translate(-84.57 9.6)"/><path class="cls-5" d="M331.48,41.14a2.43,2.43,0,0,0,2.18,1.34,2.46,2.46,0,0,0,1.09-.26,2.44,2.44,0,0,0-1.1-4.62,2.44,2.44,0,0,0-2.17,3.54Z" transform="translate(-84.57 9.6)"/><path class="cls-5" d="M350.6,38a1,1,0,1,0-1.34-.44A1,1,0,0,0,350.6,38Z" transform="translate(-84.57 9.6)"/><path class="cls-5" d="M344.42,38.79a1.43,1.43,0,1,0,1.29,2.56,1.43,1.43,0,0,0-1.29-2.56Z" transform="translate(-84.57 9.6)"/><path class="cls-5" d="M336.45,30.28a1,1,0,1,0,.11-2,1,1,0,0,0-.11,2Z" transform="translate(-84.57 9.6)"/><path class="cls-5" d="M336.44,36.6a1.44,1.44,0,1,0-1.35-1.52A1.43,1.43,0,0,0,336.44,36.6Z" transform="translate(-84.57 9.6)"/><path class="cls-5" d="M328.67,51.24a1.43,1.43,0,1,0-1.93-.64A1.43,1.43,0,0,0,328.67,51.24Z" transform="translate(-84.57 9.6)"/><path class="cls-5" d="M337.37,38.69a2.44,2.44,0,1,0,3.37-.7,2.34,2.34,0,0,0-1.33-.4A2.42,2.42,0,0,0,337.37,38.69Z" transform="translate(-84.57 9.6)"/><path class="cls-5" d="M341.61,48.89a2.43,2.43,0,0,0-2.18-1.34,2.47,2.47,0,0,0-1.1.26,2.43,2.43,0,0,0-1.22,1.41,2.48,2.48,0,0,0,.14,1.87,2.44,2.44,0,0,0,2.18,1.34,2.44,2.44,0,0,0,2.18-3.54Z" transform="translate(-84.57 9.6)"/><path class="cls-5" d="M345.87,48.72a1.43,1.43,0,1,0,.41,2A1.45,1.45,0,0,0,345.87,48.72Z" transform="translate(-84.57 9.6)"/><path class="cls-5" d="M350.54,45.05a1.22,1.22,0,1,0-1.29,1.15A1.21,1.21,0,0,0,350.54,45.05Z" transform="translate(-84.57 9.6)"/><path class="cls-5" d="M353.92,44.19a.79.79,0,1,0,.74.83A.79.79,0,0,0,353.92,44.19Z" transform="translate(-84.57 9.6)"/><path class="cls-5" d="M350.74,52a1,1,0,0,0-1.39.29A1,1,0,0,0,351,53.4,1,1,0,0,0,350.74,52Z" transform="translate(-84.57 9.6)"/><path class="cls-5" d="M328.34,59.38a.79.79,0,1,0,.23,1.09A.78.78,0,0,0,328.34,59.38Z" transform="translate(-84.57 9.6)"/><path class="cls-5" d="M344.88,59.3a.79.79,0,1,0,1.06.35A.79.79,0,0,0,344.88,59.3Z" transform="translate(-84.57 9.6)"/><path class="cls-5" d="M335.72,51.34a2.44,2.44,0,0,0,.35-1.84,2.44,2.44,0,0,0-2.39-1.94A2.44,2.44,0,0,0,332.34,52a2.44,2.44,0,0,0,3.38-.7Z" transform="translate(-84.57 9.6)"/><path class="cls-5" d="M330.84,55.08a1.22,1.22,0,1,0,.35,1.69A1.21,1.21,0,0,0,330.84,55.08Z" transform="translate(-84.57 9.6)"/><path class="cls-5" d="M336.53,59.75a1,1,0,1,0,1,1.06A1,1,0,0,0,336.53,59.75Z" transform="translate(-84.57 9.6)"/><path class="cls-5" d="M336.54,53.43a1.43,1.43,0,1,0,1.35,1.51A1.43,1.43,0,0,0,336.54,53.43Z" transform="translate(-84.57 9.6)"/><path class="cls-5" d="M342.41,55a1.22,1.22,0,1,0,1.64.54A1.23,1.23,0,0,0,342.41,55Z" transform="translate(-84.57 9.6)"/></g><g id="Cardano_Logo-2" data-name="Cardano Logo"><path class="cls-5" d="M279.89,176.44a1.85,1.85,0,0,0,1.75,1.95h.1a1.86,1.86,0,1,0-1.85-2Z" transform="translate(-84.57 9.6)"/><path class="cls-5" d="M273,176a.6.6,0,0,0-.63.57A.6.6,0,1,0,273,176Z" transform="translate(-84.57 9.6)"/><path class="cls-5" d="M279.77,165.68a.6.6,0,1,0-.8-.27A.59.59,0,0,0,279.77,165.68Z" transform="translate(-84.57 9.6)"/><path class="cls-5" d="M281.65,169a.93.93,0,1,0-1.24-.41A.92.92,0,0,0,281.65,169Z" transform="translate(-84.57 9.6)"/><path class="cls-5" d="M275.33,171.21a.74.74,0,0,0,1.05-.22.76.76,0,1,0-1.27-.83A.74.74,0,0,0,275.33,171.21Z" transform="translate(-84.57 9.6)"/><path class="cls-5" d="M276.45,175.63a.93.93,0,0,0-1,.87.94.94,0,0,0,.88,1,.91.91,0,0,0,1-.87A.93.93,0,0,0,276.45,175.63Z" transform="translate(-84.57 9.6)"/><path class="cls-5" d="M275.43,181.85a.76.76,0,1,0,.68,1.36.76.76,0,1,0-.68-1.36Z" transform="translate(-84.57 9.6)"/><path class="cls-5" d="M279,173.72a1.09,1.09,0,1,0-.31-1.51A1.09,1.09,0,0,0,279,173.72Z" transform="translate(-84.57 9.6)"/><path class="cls-5" d="M290.44,168.89a.93.93,0,0,0,1-1.55.93.93,0,1,0-1,1.55Z" transform="translate(-84.57 9.6)"/><path class="cls-5" d="M292.34,165.62a.6.6,0,1,0-.17-.83A.6.6,0,0,0,292.34,165.62Z" transform="translate(-84.57 9.6)"/><path class="cls-5" d="M290.59,174.67a1.85,1.85,0,1,0-.21,3.7h.1a1.85,1.85,0,0,0,1.85-1.75,1.86,1.86,0,0,0-1.74-2Z" transform="translate(-84.57 9.6)"/><path class="cls-5" d="M282.26,173.59a1.85,1.85,0,0,0,1.66,1,1.82,1.82,0,0,0,.83-.2,1.85,1.85,0,0,0,.82-2.49,1.83,1.83,0,0,0-1.65-1,1.89,1.89,0,0,0-.84.2A1.86,1.86,0,0,0,282.26,173.59Z" transform="translate(-84.57 9.6)"/><path class="cls-5" d="M296.8,171.21a.76.76,0,0,0,.33-1,.76.76,0,1,0-1.36.68A.77.77,0,0,0,296.8,171.21Z" transform="translate(-84.57 9.6)"/><path class="cls-5" d="M292.09,171.8a1.09,1.09,0,1,0,1.47.49A1.1,1.1,0,0,0,292.09,171.8Z" transform="translate(-84.57 9.6)"/><path class="cls-5" d="M286,165.34a.77.77,0,1,0-.72-.81A.78.78,0,0,0,286,165.34Z" transform="translate(-84.57 9.6)"/><path class="cls-5" d="M286,170.14a1.09,1.09,0,0,0,1.15-1,1.09,1.09,0,1,0-1.15,1Z" transform="translate(-84.57 9.6)"/><path class="cls-5" d="M280.13,181.26a1.09,1.09,0,1,0-1.46-.48A1.08,1.08,0,0,0,280.13,181.26Z" transform="translate(-84.57 9.6)"/><path class="cls-5" d="M286.74,171.73a1.86,1.86,0,1,0,1.55-.84A1.83,1.83,0,0,0,286.74,171.73Z" transform="translate(-84.57 9.6)"/><path class="cls-5" d="M290,179.48a1.85,1.85,0,0,0-1.66-1,1.88,1.88,0,0,0-.83.2,1.86,1.86,0,0,0-.93,1.07,1.89,1.89,0,0,0,.11,1.42,1.85,1.85,0,1,0,3.31-1.67Z" transform="translate(-84.57 9.6)"/><path class="cls-5" d="M293.2,179.35a1.09,1.09,0,1,0,.31,1.51A1.09,1.09,0,0,0,293.2,179.35Z" transform="translate(-84.57 9.6)"/><path class="cls-5" d="M296.75,176.56a.91.91,0,0,0-.87-1,.93.93,0,1,0-.11,1.85A.94.94,0,0,0,296.75,176.56Z" transform="translate(-84.57 9.6)"/><path class="cls-5" d="M299.31,175.9a.61.61,0,0,0-.63.57.59.59,0,0,0,.56.63.6.6,0,0,0,.64-.56A.61.61,0,0,0,299.31,175.9Z" transform="translate(-84.57 9.6)"/><path class="cls-5" d="M296.9,181.85a.77.77,0,1,0,.22,1.06A.77.77,0,0,0,296.9,181.85Z" transform="translate(-84.57 9.6)"/><path class="cls-5" d="M279.88,187.45a.6.6,0,1,0,.17.83A.59.59,0,0,0,279.88,187.45Z" transform="translate(-84.57 9.6)"/><path class="cls-5" d="M292.45,187.39a.6.6,0,0,0,.54,1.07.61.61,0,0,0,.27-.81A.6.6,0,0,0,292.45,187.39Z" transform="translate(-84.57 9.6)"/><path class="cls-5" d="M285.49,181.34a1.87,1.87,0,0,0,.26-1.4,1.85,1.85,0,0,0-1.81-1.47,1.84,1.84,0,0,0-1.82,2.23,1.87,1.87,0,0,0,1.81,1.48A1.88,1.88,0,0,0,285.49,181.34Z" transform="translate(-84.57 9.6)"/><path class="cls-5" d="M281.78,184.18a.93.93,0,1,0,.27,1.28A.92.92,0,0,0,281.78,184.18Z" transform="translate(-84.57 9.6)"/><path class="cls-5" d="M286.1,187.73a.76.76,0,1,0-.08,1.52.76.76,0,0,0,.08-1.52Z" transform="translate(-84.57 9.6)"/><path class="cls-5" d="M286.11,182.93a1.09,1.09,0,1,0,1,1.15A1.09,1.09,0,0,0,286.11,182.93Z" transform="translate(-84.57 9.6)"/><path class="cls-5" d="M290.57,184.1a.93.93,0,0,0-.41,1.25.92.92,0,1,0,.41-1.25Z" transform="translate(-84.57 9.6)"/></g></svg>