<svg id="Layer_1" data-name="Layer 1" xmlns="http://www.w3.org/2000/svg" xmlns:xlink="http://www.w3.org/1999/xlink" viewBox="0 0 558.59 413.82"><defs><style>.cls-1{fill:url(#linear-gradient);}.cls-2{fill:#d1ffec;}.cls-10,.cls-12,.cls-13,.cls-14,.cls-15,.cls-16,.cls-17,.cls-18,.cls-19,.cls-2,.cls-20,.cls-21,.cls-22,.cls-23,.cls-24,.cls-25,.cls-26,.cls-27,.cls-28,.cls-29,.cls-30,.cls-31,.cls-32,.cls-33,.cls-34,.cls-35,.cls-36,.cls-37,.cls-38,.cls-39,.cls-4,.cls-40,.cls-41,.cls-42,.cls-43,.cls-44,.cls-45,.cls-46,.cls-47,.cls-48,.cls-5,.cls-50,.cls-51,.cls-6,.cls-7,.cls-8,.cls-9{fill-rule:evenodd;}.cls-3{mask:url(#mask);}.cls-4{fill:azure;}.cls-11,.cls-5,.cls-52,.cls-53,.cls-54,.cls-55,.cls-56{fill:#fff;}.cls-6{fill:#b6ccfc;}.cls-7{fill:#99b5f0;}.cls-8{fill:#799ae0;}.cls-9{fill:#dbe6ff;}.cls-10{fill:#466dc2;}.cls-12{fill:#ffe5b0;}.cls-13{fill:#e68722;}.cls-14{fill:#303a52;}.cls-15{fill:#3c4761;}.cls-16{fill:#252e42;}.cls-17{fill:#1a2233;}.cls-18{fill:#4d5874;}.cls-19{fill:#76829e;}.cls-20{fill:#fcb660;}.cls-21{fill:#784239;}.cls-22{fill:#54251e;}.cls-23{fill:#fad178;}.cls-24{fill:#ffdf9e;}.cls-25{fill:#ffac47;}.cls-26{fill:#bd4226;}.cls-27{fill:#fffaeb;}.cls-28{fill:#ffca8a;}.cls-29{fill:#3d2f17;}.cls-30{fill:#db603e;}.cls-31{fill:#699;}.cls-33{fill:#fc986d;}.cls-34{fill:#b5361d;}.cls-35{fill:#ffc38f;}.cls-36{fill:#ffeacc;}.cls-37{fill:#a3aab2;}.cls-38{fill:#cac9d1;}.cls-39{fill:#f2ab41;}.cls-40{fill:#54231b;}.cls-41{fill:#e07619;}.cls-42{fill:#ffebbf;}.cls-43{fill:#300d09;}.cls-44{fill:#401711;}.cls-45{fill:#a1655a;}.cls-46{fill:#9e6157;}.cls-47{fill:#ffe9a8;}.cls-48{fill:#faaa78;}.cls-49{fill:#5e1a10;}.cls-50{fill:#ffd261;}.cls-51{fill:#f28735;}.cls-52{font-size:33.65px;}.cls-52,.cls-53,.cls-54,.cls-55,.cls-56{font-family:ArialMT, Arial;}.cls-53{font-size:25.49px;}.cls-54{font-size:17.61px;}.cls-55{font-size:29.73px;}.cls-56{font-size:13.67px;}</style><linearGradient id="linear-gradient" x1="163.28" y1="588.75" x2="-157.28" y2="435.59" gradientTransform="translate(311.39 -278.94)" gradientUnits="userSpaceOnUse"><stop offset="0"/><stop offset="1" stop-color="#fff"/></linearGradient><mask id="mask" x="0" y="25.31" width="558.59" height="331.25" maskUnits="userSpaceOnUse"><g transform="translate(-72.88 -60.34)"><rect class="cls-1" x="72.88" y="85.65" width="558.59" height="331.25"/></g></mask></defs><path class="cls-2" d="M238.43,133Q332,133.27,388,104c55.56-29.9,122.22-22.22,173.7,15.18a169.29,169.29,0,0,1,44,226.69c-1.05-.1-2.1-.15-3.17-.15h-1a34.42,34.42,0,0,0-14.22,3.06,76.46,76.46,0,0,0-14.63,3.43,30.7,30.7,0,0,0-3.32.75,34.07,34.07,0,0,0-9.45,2.58,34.4,34.4,0,0,0-14.54-1.69l-60.76,6c-1.14.11-2.27.28-3.39.5l-4.33.87a34,34,0,0,0-5.45,1.45h-6.37a34.5,34.5,0,0,0-8.22,1h-1.74a34.57,34.57,0,0,0-10.41,1.6l-2,.39h-6.55a34.64,34.64,0,0,0-12.91,2.5,34.78,34.78,0,0,0-5.74,1.53,35,35,0,0,0-6.51.95h-9.7a34.65,34.65,0,0,0-8.23,1h-1a34.27,34.27,0,0,0-13.54,2.46l-1.32.53-8.33,1.28-8.25.92-1.07.13-20.38,2.92-8.43.93-1.44.19-12.94,2c-1.06.17-2.11.39-3.16.6h-1.56a34.61,34.61,0,0,0-8.36,1l-3.84,1c-.33.08-.66.16-1,.26a33.94,33.94,0,0,0-6.19,1.35l-3.46.38h-2.38a34.22,34.22,0,0,0-9,1,35,35,0,0,0-7,1,35,35,0,0,0-7,1,34.45,34.45,0,0,0-10.22,2H247a34.63,34.63,0,0,0-12.26,2.25l-6.91,1.73a34.52,34.52,0,0,0-8,1,34.45,34.45,0,0,0-30.71,19.36l-.5-.15q-.72-.27-1.44-.51l-3-1c-1-.32-1.91-.59-2.87-.82a34.9,34.9,0,0,0-11.17-3.6,34.27,34.27,0,0,0-5.41-2c-.89-.34-1.79-.65-2.69-.91l-1.95-1.46a34.11,34.11,0,0,0-5.74-3.49l-5.5-2.75a34.13,34.13,0,0,0-7.05-2.61l-.72-.18c-.95-.57-1.92-1.06-2.91-1.56l-.64-.51-1.63-1.64a35.1,35.1,0,0,0-5.49-4.46A34.47,34.47,0,0,0,90.63,375.4c-.54.18-1.07.37-1.6.57a170.56,170.56,0,0,1-4.82-133.56C109.05,177.68,169.67,134.1,238.43,133" transform="translate(-72.88 -60.34)"/><g class="cls-3"><path class="cls-4" d="M238.43,133Q332,133.27,388,104c55.56-29.9,122.22-22.22,173.7,15.18a169.29,169.29,0,0,1,44,226.69c-1.05-.1-2.1-.15-3.17-.15h-1a34.42,34.42,0,0,0-14.22,3.06,76.46,76.46,0,0,0-14.63,3.43,30.7,30.7,0,0,0-3.32.75,34.07,34.07,0,0,0-9.45,2.58,34.4,34.4,0,0,0-14.54-1.69l-60.76,6c-1.14.11-2.27.28-3.39.5l-4.33.87a34,34,0,0,0-5.45,1.45h-6.37a34.5,34.5,0,0,0-8.22,1h-1.74a34.57,34.57,0,0,0-10.41,1.6l-2,.39h-6.55a34.64,34.64,0,0,0-12.91,2.5,34.78,34.78,0,0,0-5.74,1.53,35,35,0,0,0-6.51.95h-9.7a34.65,34.65,0,0,0-8.23,1h-1a34.27,34.27,0,0,0-13.54,2.46l-1.32.53-8.33,1.28-8.25.92-1.07.13-20.38,2.92-8.43.93-1.44.19-12.94,2c-1.06.17-2.11.39-3.16.6h-1.56a34.61,34.61,0,0,0-8.36,1l-3.84,1c-.33.08-.66.16-1,.26a33.94,33.94,0,0,0-6.19,1.35l-3.46.38h-2.38a34.22,34.22,0,0,0-9,1,35,35,0,0,0-7,1,35,35,0,0,0-7,1,34.45,34.45,0,0,0-10.22,2H247a34.63,34.63,0,0,0-12.26,2.25l-6.91,1.73a34.52,34.52,0,0,0-8,1,34.45,34.45,0,0,0-30.71,19.36l-.5-.15q-.72-.27-1.44-.51l-3-1c-1-.32-1.91-.59-2.87-.82a34.9,34.9,0,0,0-11.17-3.6,34.27,34.27,0,0,0-5.41-2c-.89-.34-1.79-.65-2.69-.91l-1.95-1.46a34.11,34.11,0,0,0-5.74-3.49l-5.5-2.75a34.13,34.13,0,0,0-7.05-2.61l-.72-.18c-.95-.57-1.92-1.06-2.91-1.56l-.64-.51-1.63-1.64a35.1,35.1,0,0,0-5.49-4.46A34.47,34.47,0,0,0,90.63,375.4c-.54.18-1.07.37-1.6.57a170.56,170.56,0,0,1-4.82-133.56C109.05,177.68,169.67,134.1,238.43,133" transform="translate(-72.88 -60.34)"/></g><path class="cls-5" d="M588.08,349.66q-260,27-328-79.48a47.81,47.81,0,0,1,76.68,21,30.73,30.73,0,0,1,50.15-.79,73,73,0,0,1,141.9-9.94,50.58,50.58,0,0,1,59.29,69.23" transform="translate(-72.88 -60.34)"/><path class="cls-6" d="M627.54,239.64a69.2,69.2,0,0,0-117.91-42.79,26.28,26.28,0,0,0,37.53,22.47,17.86,17.86,0,0,0,27.49,20.92,11.92,11.92,0,0,0,22.12-2.09,15.54,15.54,0,0,0,30.77,1.49" transform="translate(-72.88 -60.34)"/><path class="cls-7" d="M545.59,108.76A175.06,175.06,0,0,0,509.2,92.91a13.51,13.51,0,0,0-1.39,26,16.1,16.1,0,0,0,16.73,24.68,28,28,0,0,0,21.82,51.2,22.7,22.7,0,0,0,14.71,19.13,11.56,11.56,0,0,0-1.15,1.17,12,12,0,0,0-2,12.17,12.5,12.5,0,0,0,14.32-12.14,22.79,22.79,0,0,0,8.67-3.11,11.84,11.84,0,0,0,20.32,7.47,22.31,22.31,0,0,0,29.6,21.48,169.6,169.6,0,0,0-4.44-26.08q-49.67-66.45-80.75-106.07" transform="translate(-72.88 -60.34)"/><path class="cls-8" d="M545.59,108.76a169.57,169.57,0,0,1,80.75,106.07,11.74,11.74,0,0,1-16.79-3.62,17.7,17.7,0,0,1-10.92-.89,10.22,10.22,0,0,1-1.81,3.12,10,10,0,0,1-9,3.38,9.58,9.58,0,0,1,1.64-9.72,9.69,9.69,0,0,1,2.3-1.95,17.73,17.73,0,0,1-3.65-14.48,12.17,12.17,0,0,1-19.21-5.21,24.68,24.68,0,1,1-15.2-47,15.93,15.93,0,0,1-8.07-29.75" transform="translate(-72.88 -60.34)"/><path class="cls-9" d="M549.19,312.68Q208.06,450.37,95.08,371.31a127.47,127.47,0,0,1,220.8-77.82,59.08,59.08,0,0,0,70.07,13l-1.18-.65L353.16,293a6.23,6.23,0,1,1,4.08-11.78l31.82,21.88-25-35.09a7.08,7.08,0,0,1,12-7.47l21.23,38.21-13.42-50.23a8.45,8.45,0,1,1,16.67-2.72L405,291.3l.75-.92c.48-.56,1-1.11,1.48-1.65l4.07-32.89a8.19,8.19,0,1,1,16,2.86l-4.71,16.83a85.79,85.79,0,0,1,126.6,37.15" transform="translate(-72.88 -60.34)"/><path class="cls-6" d="M578.75,378.88a168.83,168.83,0,0,0,33.12-43.69,36.52,36.52,0,0,1-41.06-12.7,98.33,98.33,0,0,0-21.62-21l16.68-3.9a4.35,4.35,0,1,0-1.54-8.56l-19.69,9.42c-.5-.32-1-.63-1.53-.94L561,279.21a4.94,4.94,0,0,0-7.48-6.45l-16.65,21.33-.75-.37,13.31-30.09A5.89,5.89,0,1,0,538.28,260l-8,31.07L529,290.5l.81-24.78a5.72,5.72,0,1,0-11.33.24L521,287.68a98.51,98.51,0,0,0-93.82,20.19,129.08,129.08,0,0,1-60.47,29.24l16.61-10.26a5.19,5.19,0,1,0-5-9.1L357,338.49l-1,.09,14.86-30.73a5.9,5.9,0,0,0-10.93-4.46l-12.09,34.36,4-43.14a7,7,0,1,0-14.07.09L341,339h-.23l-10.34-34.5A6.83,6.83,0,1,0,317.64,309l13.76,29.15a114.54,114.54,0,0,1-25.72-6.28,145.7,145.7,0,0,0-148.19,28.17A57.24,57.24,0,0,1,102.18,372q33.52,37.28,41.42,36.52,394.54-10.49,435.15-29.67" transform="translate(-72.88 -60.34)"/><path class="cls-7" d="M103.34,389.71q110,64.47,323.64,24.34Q528,403,581.73,362.46a83.34,83.34,0,0,1-96.3-2.93A93.68,93.68,0,0,0,375,355.69a81,81,0,0,1-87.79,3.23,110,110,0,0,0-122.56,9.63c-14.72,11.6-34,14.19-51.55,8.4q-2.37-.79-4.64-1.77a61.72,61.72,0,0,1-5.11,14.53" transform="translate(-72.88 -60.34)"/><path class="cls-10" d="M598.05,179.51a10.93,10.93,0,0,1-16.34,8.69,10.48,10.48,0,0,1,16.34-8.69" transform="translate(-72.88 -60.34)"/><path class="cls-10" d="M586.32,223.25a7.52,7.52,0,0,0,11.25,6,7.22,7.22,0,0,0-11.25-6" transform="translate(-72.88 -60.34)"/><path class="cls-10" d="M533.45,131a7.52,7.52,0,0,1,9.33-8.67,7.21,7.21,0,0,1-9.33,8.67" transform="translate(-72.88 -60.34)"/><path class="cls-10" d="M570.49,249.16a6.6,6.6,0,0,0-10.11,4.77,6.33,6.33,0,0,0,10.11-4.77" transform="translate(-72.88 -60.34)"/><path class="cls-5" d="M469,319.62A7.78,7.78,0,0,0,457,325.23,7.45,7.45,0,0,0,469,319.62" transform="translate(-72.88 -60.34)"/><path class="cls-5" d="M529.11,311.55a5.63,5.63,0,0,1-8.62-4.06,5.4,5.4,0,0,1,8.62,4.06" transform="translate(-72.88 -60.34)"/><path class="cls-5" d="M516.51,371.85a4.94,4.94,0,0,1-7.57-3.57,4.74,4.74,0,0,1,7.57,3.57" transform="translate(-72.88 -60.34)"/><path class="cls-5" d="M517.59,201a4.94,4.94,0,0,1-7.57-3.56,4.74,4.74,0,0,1,7.57,3.56" transform="translate(-72.88 -60.34)"/><path class="cls-5" d="M617.1,234.25a4.93,4.93,0,0,1-7.56-3.57,4.73,4.73,0,0,1,7.56,3.57" transform="translate(-72.88 -60.34)"/><path class="cls-5" d="M548.8,142.85a3.17,3.17,0,0,0,4.86-2.29,3,3,0,0,0-4.86,2.29" transform="translate(-72.88 -60.34)"/><path class="cls-8" d="M557.64,367.49c2.26,1.24,3.82,2.12,4.67,2.62a76,76,0,0,1,24.58-.89l13.83-49.43a8.3,8.3,0,1,0-16.2-2.9L579,361.58l-5.33-54.87a8.55,8.55,0,1,0-16.87,2.76l13.58,50.87-21.49-38.7a7.17,7.17,0,0,0-12.18,7.57L562,364.73l-32.22-22.14a6.31,6.31,0,1,0-4.14,11.92Z" transform="translate(-72.88 -60.34)"/><path class="cls-11" d="M243.54,230.05c-2.8,3.6-2.81,7-4.48,8.46s-3.92,2.35-5.59.46-.55-4,1.13-5.49,5-1.09,8.94-3.43" transform="translate(-72.88 -60.34)"/><path class="cls-5" d="M417.72,346.25a5.63,5.63,0,0,1-8.62-4.07,5.4,5.4,0,0,1,8.62,4.07" transform="translate(-72.88 -60.34)"/><path class="cls-10" d="M550.31,380.32l3.42,1a50.43,50.43,0,0,1,15.89-4.06l2-34.2a5.54,5.54,0,1,0-11,.41l2.73,29.92-11.26-35a5.7,5.7,0,1,0-10.61,4.19l16.07,31.25-19.5-22.2a4.79,4.79,0,0,0-6.87,6.67l21.53,19.58L528.6,368a4.21,4.21,0,1,0-1,8.36Z" transform="translate(-72.88 -60.34)"/><path class="cls-8" d="M566.94,389.08l-.34.28h0A169.14,169.14,0,0,1,440.19,424c-33.23-5.08-69-1.57-97.88,18.71a171.62,171.62,0,0,1-23.71,14.11c-1.35.24-2.68.52-4,.85-1.58.24-3.13.54-4.67.89a61.63,61.63,0,0,0-13,3.72,62.29,62.29,0,0,0-6.75.94q-2.85.13-5.63.51a61.74,61.74,0,0,0-29,10c-.63,0-1.27.09-1.91.12l10-10h-30c-1.76-.19-3.52-.31-5.26-.35q-3.09-.59-6.18-.87a62.28,62.28,0,0,0-7.53-.88c-.6-.1-1.19-.19-1.79-.27a62.1,62.1,0,0,0-7.72-1.1c-2.07-.43-4.15-.74-6.22-1a62.93,62.93,0,0,0-7.49-.66,62.3,62.3,0,0,0-6.84-.38h-10a61.91,61.91,0,0,0-18.46-8.2,173.59,173.59,0,0,1-17.32-11.81A170.51,170.51,0,0,1,83.57,363q22.07,2.31,60.54,30.25c47.5,32.83,110.22,29,155.72-5.61A113.89,113.89,0,0,1,411.11,371.2a197.56,197.56,0,0,0,193.18-23.08,168.82,168.82,0,0,1-37.35,41" transform="translate(-72.88 -60.34)"/><polygon class="cls-12" points="357.24 324.8 342.39 324.8 339.6 340.11 354.44 340.11 357.24 324.8"/><polygon class="cls-13" points="355.15 324.8 348.39 324.8 345.88 340.11 352.64 340.11 355.15 324.8"/><path class="cls-14" d="M431,407q-41.76,3.15-44.42,0a13,13,0,0,1,9.86-9l14.84-3.92a12.22,12.22,0,0,0,18.8-.51A23.61,23.61,0,0,1,431,407" transform="translate(-72.88 -60.34)"/><path class="cls-15" d="M471.08,212.53q4.51,37.4,4.51,37.4s-14.38,45.8-43.16,137.39l-19.51-1s9.57-55.19,28.7-165.56c-.62-4.64,1.67-9.78,6-13.43s10-5.25,14.89-4.17a10.44,10.44,0,0,1,8.56,9.36" transform="translate(-72.88 -60.34)"/><path class="cls-5" d="M386.05,407H431.7a.58.58,0,0,1,.57.57v4.06a.58.58,0,0,1-.57.57H386.05a.58.58,0,0,1-.57-.57v-4.06a.58.58,0,0,1,.57-.57" transform="translate(-72.88 -60.34)"/><path class="cls-16" d="M470.64,253.66a15.88,15.88,0,1,0-27.59-13.61,41.2,41.2,0,0,0,4.42,38.89,26.5,26.5,0,0,1-2.1,31.6,38.22,38.22,0,0,0-7.81,35,49.33,49.33,0,0,1,1.81,7.53l31.27-99.4" transform="translate(-72.88 -60.34)"/><path class="cls-17" d="M455.7,239.71Q479,200,467.25,264.42l-6.94,22.09a59.09,59.09,0,0,1-4.61-46.8" transform="translate(-72.88 -60.34)"/><polygon class="cls-12" points="416.01 324.26 430.86 324.26 431.53 339.58 416.69 339.58 416.01 324.26"/><polygon class="cls-13" points="422.56 324.26 429.88 324.26 430.21 339.58 422.9 339.58 422.56 324.26"/><path class="cls-18" d="M489.29,212.41l15.57,37.2.75,139.33-18.74-.11S479.23,333.22,463.94,222a13.51,13.51,0,0,1,1.61-13.7,13.26,13.26,0,0,1,12.82-4.84,14.45,14.45,0,0,1,10.92,9" transform="translate(-72.88 -60.34)"/><path class="cls-14" d="M486.78,407.88q15.36,5.1,22.27,0a11.68,11.68,0,1,0-22.27,0" transform="translate(-72.88 -60.34)"/><path class="cls-5" d="M486.05,407.88h23.64a.58.58,0,0,1,.57.57v4.06a.58.58,0,0,1-.57.57H486.05a.58.58,0,0,1-.57-.57v-4.06a.58.58,0,0,1,.57-.57" transform="translate(-72.88 -60.34)"/><path class="cls-14" d="M494.38,356.11q5.73,10.25,7.54,28.5l-1.25-97.44a6.17,6.17,0,0,1-.48-1.66,6.63,6.63,0,0,1-.37-1.49,6.1,6.1,0,0,1-.24-1.46v-.37l-.06-.23a5.78,5.78,0,0,1-.29-1.26,5.36,5.36,0,0,1-.22-1.17,6.29,6.29,0,0,1-.21-1.2,6.08,6.08,0,0,1-.4-2,1.74,1.74,0,0,1-.05-.22,6.44,6.44,0,0,1-.34-1.77l0-.53a8.17,8.17,0,0,1-.17-.86,6.45,6.45,0,0,1-.23-1.45l-.06-1.48c0-.1,0-.19-.07-.28a6.17,6.17,0,0,1-.5-2.25l0-.47a5.47,5.47,0,0,1-.14-.68,6.2,6.2,0,0,1-.61-2.47l-.05-.2a7.7,7.7,0,0,1-.16-1.16l-.18-.5a5.14,5.14,0,0,1-.33-1.31l-.25-.65-.47-.89a5.44,5.44,0,0,1-.45-1.06l0-.05a6.34,6.34,0,0,1-.77-1.51,7.32,7.32,0,0,1-.52-1.1,6.15,6.15,0,0,1-.51-1.11c-.11-.17-.2-.35-.3-.54a6.26,6.26,0,0,1-.58-1.52A17.64,17.64,0,0,0,490,249l-.33-.89a5.9,5.9,0,0,1,1-8.2,5.72,5.72,0,0,1,2.9-1.16l-2.94-12.28-13,13.67a52.51,52.51,0,0,0,9.26,40.37,37.75,37.75,0,0,1,4.54,35.28q-6.22,19.74,2.92,40.34" transform="translate(-72.88 -60.34)"/><path class="cls-17" d="M487.53,237.62c6.58,10.45,10.4,15.38,10.78,16a114.44,114.44,0,0,0,2.07,11.33l.39,30A36.89,36.89,0,0,0,495,280.3q-14.46-22.24-7.45-42.68" transform="translate(-72.88 -60.34)"/><path class="cls-19" d="M477.69,284.4q-3.06-3-1.94,3s1.21,8.65,3.64,25.93c.41,3.12,2.15,3.36,2.58.05a31,31,0,0,1,1.72-6.83q4.37-12.63-6-22.15" transform="translate(-72.88 -60.34)"/><path class="cls-19" d="M438.33,280.6q-2.25-3.89-3,2.61s-1.59,9.28-4.76,27.83c-.6,3.34,1.16,4,2.72.72a35.25,35.25,0,0,1,4.07-6.65q8.79-12,1-24.51" transform="translate(-72.88 -60.34)"/><path class="cls-19" d="M425.59,350.3q-2.08-3.6-2.82,2.43l-4.42,25.84c-.55,3.1,1.08,3.75,2.52.67a32.35,32.35,0,0,1,3.79-6.17q8.16-11.15.93-22.77" transform="translate(-72.88 -60.34)"/><path class="cls-20" d="M341.08,185.48l10,.51a.74.74,0,0,1,.7.78l-.7,13.77a.76.76,0,0,1-.79.71l-10-.52a.75.75,0,0,1-.71-.78l.71-13.77a.74.74,0,0,1,.78-.7" transform="translate(-72.88 -60.34)"/><path class="cls-8" d="M325.46,204.87q-1.63,2.67.87,3a12.35,12.35,0,1,0-5.69-19.32l.9,3.07a8.66,8.66,0,1,1,3.92,13.29" transform="translate(-72.88 -60.34)"/><path class="cls-8" d="M263.35,231.33l18.91-4,18.9-4a2.16,2.16,0,0,1,2.17,1.32l1.56,3.44c.51,1.15,1,2.29,1.55,3.44.41.89.05,1.67-.78,1.72l-20.06,1.41-20.06,1.41c-.83.06-1.67-.23-1.85-.63s-.48-1.05-.71-1.58l-.72-1.57c-.18-.41.31-.88,1.09-1" transform="translate(-72.88 -60.34)"/><path class="cls-5" d="M356.18,183.57l1.29,19.86-10.66.15L346.06,184l10.12-.46" transform="translate(-72.88 -60.34)"/><path class="cls-21" d="M354.43,181.57l.68,24.92,38.2-3.09c7.28-.61,11.51-2.81,14.51-6.17l26.37-34c5.05-7.19-3-20.8-9.45-15.19l-9.86,8.45a6,6,0,0,1-2,4,6.21,6.21,0,0,1-1.35,1L411,162l-.24.22a6.53,6.53,0,0,1-.62.56,5.72,5.72,0,0,1-.83.66q-.19.18-.39.33l-.16.16a6.36,6.36,0,0,1-.8.84,5.46,5.46,0,0,1-.77.75l0,.05a6.27,6.27,0,0,1-1.54,1.23,7.92,7.92,0,0,1-.71.47,6.3,6.3,0,0,1-1.14.92l-.32.26a6.5,6.5,0,0,1-.93.82,5.23,5.23,0,0,1-.55.41,5.94,5.94,0,0,1-1.3,1L400,171l-.34.26c-.11.11-.23.21-.35.31a2.75,2.75,0,0,1-.26.22,5.5,5.5,0,0,1-.77,1c-.09.11-.18.22-.28.32s-.17.23-.26.34a6.83,6.83,0,0,1-.6.73,6.05,6.05,0,0,1-.86.82l-.07.07c-.11.16-.23.32-.35.47a6,6,0,0,1-1.1,1.19,6.25,6.25,0,0,1-.83.63,6.13,6.13,0,0,1-.89.8,6.4,6.4,0,0,1-1.55,1.14,5.62,5.62,0,0,1-1.11.52l-.39.16a5.84,5.84,0,0,1-.8.28,6.45,6.45,0,0,1-.95.28,5.64,5.64,0,0,1-1.64.41L386,181c-.39.13-.76.23-1.16.33l-.65.19a13.47,13.47,0,0,1-1.77.34,6.22,6.22,0,0,1-1.49,0l-.31,0a11,11,0,0,1-2.05-.45,5.89,5.89,0,0,1-3.16-2.14Z" transform="translate(-72.88 -60.34)"/><path class="cls-7" d="M288.54,195.66l14.29-6.47,14.31-6.48a2.72,2.72,0,0,1,3.29,1.45l11.62,21.44q5.81,10.71,11.61,21.44a2.46,2.46,0,0,1-1.17,3.46l-17.37,7.87-17.37,7.87a2.46,2.46,0,0,1-3.36-1.41q-4.23-11.43-8.46-22.87l-8.46-22.87a2.7,2.7,0,0,1,1.07-3.43" transform="translate(-72.88 -60.34)"/><path class="cls-12" d="M332.47,184.68l3.69-1a4.61,4.61,0,0,1,5.65,3.23l2.62,9.65a4.62,4.62,0,0,1-3.23,5.65l-3.69,1a4.61,4.61,0,0,1-5.65-3.23l-2.62-9.65a4.62,4.62,0,0,1,3.23-5.65" transform="translate(-72.88 -60.34)"/><path class="cls-22" d="M424.52,168l-1.73,6.58L407,194.49a19.36,19.36,0,0,1-8.55,5.94,5.76,5.76,0,0,0-2.54-.37,5.89,5.89,0,0,0-2.58.67,5.78,5.78,0,0,0-1.67.27c-.21,0-.41.05-.62.09s-.46,0-.69,0a6,6,0,0,0-1.68-.11H388l-.62,0a6,6,0,0,0-3.34.07q-.33,0-.66.06c-.23,0-.45.05-.67.09a5.52,5.52,0,0,0-.91.11,3.91,3.91,0,0,0-.68.06h-.26l-.39,0a5.67,5.67,0,0,0-1.49.11,6.15,6.15,0,0,0-.87.06l-.46.05-.17,0a5.83,5.83,0,0,0-1.82.06,6.31,6.31,0,0,0-.76.07l-.39,0a3.4,3.4,0,0,0-.45,0h-.42a6.55,6.55,0,0,0-1-.11,11.29,11.29,0,0,0-1.3,0h-.29l-.47,0a5.79,5.79,0,0,0-1.1,0l-.41,0a7.17,7.17,0,0,0-.81.1h-.07a5.72,5.72,0,0,0-1.84.3,5.6,5.6,0,0,0-1.28.33,5.9,5.9,0,0,0-1.63.47,6.77,6.77,0,0,0-1.08.34l-.17,0-.79.18c-.2,0-.39.06-.59.1l-.4.05a5.93,5.93,0,0,0-3.49.07l-.18-4.82a17.44,17.44,0,0,1,24.11-5.37,10.46,10.46,0,0,0,14.18-2.71q6.76-9.72,16-13.93,11.4-5.27,13.47-8.81" transform="translate(-72.88 -60.34)"/><path class="cls-23" d="M436.54,144l35-4.41s5.66,29.61,13.92,91.48c0,0-6.4,6.32-16.16,16.28l-7.27-12.19-3.48,13.75-17.76-11.28L436.54,144" transform="translate(-72.88 -60.34)"/><path class="cls-5" d="M442.11,136.84q18.19,3.48,29.58-7.79a8.65,8.65,0,0,1,4.73-.2c-14.17,33.87-30.32,34.81-37.45,9.45a5.62,5.62,0,0,1,3.14-1.46" transform="translate(-72.88 -60.34)"/><path class="cls-24" d="M460.25,103.7a150.94,150.94,0,0,0-15.64,24.21l2.82,5.9-5.32,3q10.56,32.1,29.58-7.79l-4.59.19c-4-12.62-6.85-25.54-6.85-25.54" transform="translate(-72.88 -60.34)"/><path class="cls-20" d="M450.45,131.12,459,113.7l.17,1.35c0,.24.08.47.13.69s.14.58.22.87.1.43.16.64a6.45,6.45,0,0,0,.32,1.2,6.72,6.72,0,0,0,.28.9c.07.21.15.43.24.63s.09.27.14.4l.05.11a5.67,5.67,0,0,0,.35.89,6.77,6.77,0,0,0,.41,1,6.24,6.24,0,0,0,3.08,3.37l1.33,4.74,3.62-.2-3.09,5.63a9.31,9.31,0,0,0-8.66-.17,11,11,0,0,1-10.18-.53,4.18,4.18,0,0,0,2.84-4.1" transform="translate(-72.88 -60.34)"/><path class="cls-13" d="M461.23,113.75Q451,125.95,450.45,131.12a7.35,7.35,0,0,0,10.53-3,3.27,3.27,0,0,1,3.68-2.11q-3.44-12.26-3.43-12.26" transform="translate(-72.88 -60.34)"/><path class="cls-12" d="M427.67,104.2q8.06,18.83-7.83,6.86a5.38,5.38,0,0,1-2.08-5.68,5.31,5.31,0,0,1,4.55-4,5.09,5.09,0,0,1,5.36,2.81" transform="translate(-72.88 -60.34)"/><path class="cls-25" d="M426.73,105.94q4.65,10.85-4.51,4a3.08,3.08,0,0,1,1.42-5.57,2.94,2.94,0,0,1,3.09,1.62" transform="translate(-72.88 -60.34)"/><path class="cls-26" d="M427.13,106.82q2.55,6-2.49,2.17a1.7,1.7,0,0,1,.79-3.07,1.63,1.63,0,0,1,1.7.9" transform="translate(-72.88 -60.34)"/><path class="cls-12" d="M464.67,102.76C467.14,91.71,459,80.63,447.73,78a22,22,0,0,0-26.11,14.62,12.21,12.21,0,0,0,1,12.18c2,2.75,3.28,5,2.79,7.9a13,13,0,0,0,3.26,10.94c10.34,11.83,22.28,11.58,30,0,3.46-5.32,6.69-13.89,6-20.81" transform="translate(-72.88 -60.34)"/><path class="cls-27" d="M431.76,107.72a21.08,21.08,0,0,1,2.07-27.61,20.93,20.93,0,0,0-10.9,12.65,11.91,11.91,0,0,0,.95,11.9c2,2.69,3.2,4.85,2.72,7.72a12.79,12.79,0,0,0,3.18,10.69,27.1,27.1,0,0,0,9.23,7.17,21.13,21.13,0,0,1-7.25-22.52" transform="translate(-72.88 -60.34)"/><path class="cls-28" d="M451,126q7-5,7.41-15.23-2.57-6-7.84-18.39-7.87,6.58-1.87,17.1,5.58,9.66,2.3,16.52" transform="translate(-72.88 -60.34)"/><path class="cls-20" d="M447.69,84.56q16.41,1.64,16.52,14.26a20,20,0,0,0-2.13,6.53,19.56,19.56,0,0,0-.68,2.66v0c-.14.38-.27.77-.39,1.16-.06.22-.13.44-.19.66a21.44,21.44,0,0,0-.69,3.18,20.1,20.1,0,0,0-.13,4.66,26,26,0,0,1-9.63,11.93c-1.8,1-2.06.8-.71-1.55,3.06-5.35,6.73-8.83,5-14.81a16.54,16.54,0,0,1-.91-5.41c-3.93-3.72-6.29-9.62-3.64-14.52a6.78,6.78,0,0,0-2.41-8.79" transform="translate(-72.88 -60.34)"/><path class="cls-13" d="M457.58,89.37q9.59,8.88,5.6,17.09a46,46,0,0,1-3.94,12.87q-1.32,1.89-1.13-1.65,2.1-11.55-1.22-18.3a10.87,10.87,0,0,1,.69-10" transform="translate(-72.88 -60.34)"/><path class="cls-18" d="M462.76,82.21l0-.34v-.25l.06-.7a20,20,0,0,1-2.69-10.65,8.56,8.56,0,0,0-2.58-.09,5.37,5.37,0,0,0,.75-6.57c-.93-1.38-1.64-1.41-1.45-.26a5.58,5.58,0,0,1-2,5.68,6.49,6.49,0,0,0-4.83-8.51c-2.14-.4-2.68-.07-1.46.61a6.12,6.12,0,0,1,3.13,6.33c-10.47-8.25-27.33-2.41-34.82,13.22a8.29,8.29,0,0,1,.69,2.11v.06a8.74,8.74,0,0,1,.16,2.24v.11c0,.11,0,.23,0,.34a8.64,8.64,0,0,1-.37,3.14l.17.15a7.57,7.57,0,0,1,.63.49,9.06,9.06,0,0,1,2,.07h.13l.3,0h.13a9,9,0,0,1,1.37-.14,8.41,8.41,0,0,1,1.94,0h.15a8.75,8.75,0,0,1,1-.71c.28-.21.58-.4.87-.6l.53-.33c.18-.14.36-.28.56-.41l.34-.23a8.4,8.4,0,0,1,1-.6l.1-.07a8.36,8.36,0,0,1,2.07-1.2,9.15,9.15,0,0,1,1.32-.69,8.57,8.57,0,0,1,8.2-2.84A5.9,5.9,0,0,1,445,83.09c2.2,2.48,3.46,3.9,5.92,4.65A19.84,19.84,0,0,1,461,82.53Z" transform="translate(-72.88 -60.34)"/><path class="cls-29" d="M453.05,98.85c.81,1.05,1.29,1,1.05-.22-1-4.31-6.54-6.31-13.9-5a2.16,2.16,0,0,0-1.66,1.76,2.28,2.28,0,0,0,.88,2.25c.7.51,1.21.36,2.41.17q9.1-1.55,11.22,1.09" transform="translate(-72.88 -60.34)"/><path class="cls-29" d="M423.78,107.22c-.3,1.21-.73,1.31-1,.22-.78-4,3.2-7.84,9.94-9.52a2,2,0,0,1,2.08.87,2.1,2.1,0,0,1,.09,2.25c-.4.7-.89.76-2,1q-8.34,2.1-9.16,5.13" transform="translate(-72.88 -60.34)"/><path class="cls-30" d="M447.66,99.56a5.53,5.53,0,1,1-4.43,6.45,5.53,5.53,0,0,1,4.43-6.45" transform="translate(-72.88 -60.34)"/><path class="cls-5" d="M446.21,100.22a4.7,4.7,0,1,1-3.76,5.48,4.7,4.7,0,0,1,3.76-5.48" transform="translate(-72.88 -60.34)"/><path class="cls-31" d="M445.93,103.17a2.83,2.83,0,1,1-2.27,3.3,2.84,2.84,0,0,1,2.27-3.3" transform="translate(-72.88 -60.34)"/><path class="cls-32" d="M445.71,105a1.54,1.54,0,1,1-1.23,1.79,1.55,1.55,0,0,1,1.23-1.79" transform="translate(-72.88 -60.34)"/><path class="cls-5" d="M444.11,104.23a1.28,1.28,0,1,1-1,1.5,1.28,1.28,0,0,1,1-1.5" transform="translate(-72.88 -60.34)"/><path class="cls-30" d="M430.57,103.74a5.53,5.53,0,1,1-4.43,6.46,5.54,5.54,0,0,1,4.43-6.46" transform="translate(-72.88 -60.34)"/><path class="cls-5" d="M429.13,104.4a4.7,4.7,0,1,1-3.76,5.48,4.71,4.71,0,0,1,3.76-5.48" transform="translate(-72.88 -60.34)"/><path class="cls-31" d="M428.84,107.35a2.83,2.83,0,1,1-2.26,3.31,2.84,2.84,0,0,1,2.26-3.31" transform="translate(-72.88 -60.34)"/><path class="cls-32" d="M428.62,109.17a1.53,1.53,0,1,1-1.23,1.79,1.53,1.53,0,0,1,1.23-1.79" transform="translate(-72.88 -60.34)"/><path class="cls-5" d="M427,108.41a1.29,1.29,0,1,1-1,1.5,1.28,1.28,0,0,1,1-1.5" transform="translate(-72.88 -60.34)"/><path class="cls-33" d="M436.64,104.58c.95-3.15,3.61-3.2,3.35-.54t-.94,8.28a2.14,2.14,0,1,1,2.89,2.64,2.77,2.77,0,0,0-2.3,1.68,3.48,3.48,0,0,1-5.57-4.18l2.57-7.88" transform="translate(-72.88 -60.34)"/><path class="cls-34" d="M446.41,115.46a2.63,2.63,0,0,1,2.62,2.16,9,9,0,0,1-8.92,7.9,74,74,0,0,0-4.76-6q7.09,1.09,11.06-4.1" transform="translate(-72.88 -60.34)"/><path class="cls-5" d="M447,116.77a1.78,1.78,0,0,1,.44,1.87,11.28,11.28,0,0,1-7.67,4.12l-1.7-2a12.29,12.29,0,0,0,8.93-4" transform="translate(-72.88 -60.34)"/><path class="cls-34" d="M449.26,121.32a4.94,4.94,0,0,1-6,5.16,8.15,8.15,0,0,0,6-5.16" transform="translate(-72.88 -60.34)"/><path class="cls-35" d="M436.1,112.49a2.25,2.25,0,1,1-1.8,2.62,2.25,2.25,0,0,1,1.8-2.62" transform="translate(-72.88 -60.34)"/><path class="cls-36" d="M435.22,113.77a1.35,1.35,0,1,1-1.08,1.58,1.35,1.35,0,0,1,1.08-1.58" transform="translate(-72.88 -60.34)"/><path class="cls-14" d="M460.22,101c.86,5.12,6.66,2.13,6.48-6.48a35.16,35.16,0,0,0,1.45-13.75c-.49-4.2-1.33-5.6-3.17-7.73a8.4,8.4,0,0,0-5.65-2.89,19.84,19.84,0,0,1-6,14.18l-.05,0a20.12,20.12,0,0,1-3.66,2.88,12.56,12.56,0,0,0,4.52,1.06c3.28.23,4.15,4.17,6.09,12.69" transform="translate(-72.88 -60.34)"/><path class="cls-37" d="M415.85,82.57Q417,92.35,428,88.81q5.7-6.72,12.6-7.2-4.26-3.42-11.41-.23A12.05,12.05,0,0,1,417,80.54a6.79,6.79,0,0,1-1.15,2" transform="translate(-72.88 -60.34)"/><path class="cls-38" d="M424.85,89.1a8.52,8.52,0,0,1-9-6.53,2.87,2.87,0,0,1-4.86-2q-.28-5.34-2.48-1.76a11.18,11.18,0,0,0,11.24,16.67c4-.57,5.35-3.42,8.53-7a9,9,0,0,1-1.48.42l-.39.07a9.35,9.35,0,0,1-1.56.15" transform="translate(-72.88 -60.34)"/><path d="M453,101.41a6.74,6.74,0,1,0,1.38,5,6.71,6.71,0,0,0-1.38-5m-17.69,3.5a6.72,6.72,0,0,0-9.46-1.15,6.67,6.67,0,0,0-2.53,4.49,6.73,6.73,0,0,0,10.84,6.11,6.74,6.74,0,0,0,1.15-9.45Zm13.29-6.81a7.48,7.48,0,0,1,5,2.83,7.2,7.2,0,0,1,1.18,2.16l8.44-3.52.3.72L455,103.84a7.44,7.44,0,0,1,.15,2.63,7.52,7.52,0,0,1-14.87.41,1.82,1.82,0,0,0-2.45.16h0a1.9,1.9,0,0,0-.43.74,7.27,7.27,0,0,1,.06,2.19,7.52,7.52,0,1,1-1.55-5.55,7.37,7.37,0,0,1,1.21,2.24,2.61,2.61,0,0,1,3-.75,7.53,7.53,0,0,1,8.42-7.81Z" transform="translate(-72.88 -60.34)"/><path class="cls-12" d="M462.37,97.57q-.81,21.9,10.46,3.83a5.72,5.72,0,0,0-6.19-8.71,5.47,5.47,0,0,0-4.27,4.88" transform="translate(-72.88 -60.34)"/><path class="cls-25" d="M464,99q-.47,12.61,6,2.2a3.3,3.3,0,0,0-3.57-5A3.16,3.16,0,0,0,464,99" transform="translate(-72.88 -60.34)"/><path class="cls-26" d="M463.92,100q-.26,6.94,3.32,1.22a1.82,1.82,0,0,0-2-2.77,1.75,1.75,0,0,0-1.36,1.55" transform="translate(-72.88 -60.34)"/><path class="cls-39" d="M453.69,241.46c2.56,1.69,4.1,1.31,4.61-1.12l2.6-11.41,8.6,12.34,8.85-8.82a5.89,5.89,0,0,1-.52-1.79,6,6,0,0,1,4.3-6.49l.07,0-11.82-71.62a19.26,19.26,0,0,0-7.92,24.16c3.46,10.28-.51,20.87-9.31,27.71a23.28,23.28,0,0,0,.54,37.08" transform="translate(-72.88 -60.34)"/><path class="cls-40" d="M439.19,153.57,445,213.62a5.93,5.93,0,0,0-1.53,4.78l.06.48a6.13,6.13,0,0,0,.35,1.45v0l.49,3.86c0,.25.08.5.13.73a6,6,0,0,0-.12,3.54l-4.27,36.45-12.87,1.35,2.57-48.68L419,158.45c-.57-3.52,5.06-7.77,13.38-17.07Z" transform="translate(-72.88 -60.34)"/><path class="cls-41" d="M477.62,233.18l5.22-5.2q5.71-10.65-13.56-39.08,1.59,8.31-3.16,14.36a18.59,18.59,0,0,0,11.5,29.92" transform="translate(-72.88 -60.34)"/><path class="cls-40" d="M501.1,259.41l20.79-2.19L506,214.91,496.87,140l-21.5-8.67-7.57,16.63,9.95,71.29,12.89,22.19a6.46,6.46,0,0,1,1.33-.32,6,6,0,0,1,6.61,4.79c0,.11.07.21.1.31a6,6,0,0,1-.32,8.49Z" transform="translate(-72.88 -60.34)"/><path class="cls-21" d="M484.49,149.21q-6.74,70-6.74,70l-7-16.72-7.32-67.62,10.38-8.32,8.36,8.39-10.08,12.22,12.4,2" transform="translate(-72.88 -60.34)"/><path class="cls-42" d="M441.19,152.55l2.31,45.77a14.32,14.32,0,0,0,10.06-21.76q-4.46-7.25-5.22-12.09a17.46,17.46,0,0,0-7.15-11.92" transform="translate(-72.88 -60.34)"/><path class="cls-43" d="M496.62,251.69l2.14,3.69a10.07,10.07,0,0,0,11.07-12,5.42,5.42,0,0,1,4.55-6.11l-2.85-7.56a14.61,14.61,0,0,0-14.91,22m-51-33.82q-9-32.76-9-32.76a31.54,31.54,0,0,0,1.45,34.18q5.72,7.32,6,11.47Zm46-.67q20.74-30.81-.82-66.23,2,20.55-4.5,31.66A27.32,27.32,0,0,0,491.69,217.2Z" transform="translate(-72.88 -60.34)"/><path class="cls-12" d="M483.93,237.39l7.87,10.16a6,6,0,0,1,2.65,3.42l1.28,1.65a22.11,22.11,0,0,0,6.52-13.44,9.28,9.28,0,0,0-14.51-6.39,6.25,6.25,0,0,0-3.81,4.6" transform="translate(-72.88 -60.34)"/><path class="cls-20" d="M494.06,233.57l5.94,4.62a17.8,17.8,0,0,1-5.18,13.25l-3.54-4.56a3.47,3.47,0,0,0,2.27-4.94,9.33,9.33,0,0,1,.51-8.37" transform="translate(-72.88 -60.34)"/><path class="cls-5" d="M489.42,222.4l18.29,7.47s-1.34,3.31-4,9.95L485.9,232s1.17-3.2,3.52-9.59" transform="translate(-72.88 -60.34)"/><path class="cls-21" d="M486.15,224.81l23.18,10.52,14.24-36.44c2.69-6.95,2.56-11.82.83-16.08L505,143.41c-4.34-7.84-20.43-6.52-18.16,1.89l2.89,11.1a6,6,0,0,1,3,4.43v.09a5.94,5.94,0,0,1,.28.74l.16.54.07.18a6.35,6.35,0,0,1,.4,1.54l.23.55a5.94,5.94,0,0,1,.44,1.6l.1.85.33,1.11a5.34,5.34,0,0,1,.37,1.33,6,6,0,0,1,.5,1.8l-.18-.38c.1.22.18.45.26.68l0,0a6.07,6.07,0,0,1,.76,2.24l0,.46,0,.08a8.73,8.73,0,0,1,.34,1.75l.06.14a5.74,5.74,0,0,1,.5,1.37,6.41,6.41,0,0,1,.33,1.34l0,.43-.51-.77h0a5.8,5.8,0,0,1,.86,2.41l.06.45a5.84,5.84,0,0,1,.25,1,6.24,6.24,0,0,1,.3,1.24l.06.49a12.74,12.74,0,0,1,.84,2.49,6.75,6.75,0,0,1,.26,1,5.61,5.61,0,0,1,.29,1.24l.1.78a6,6,0,0,1,0,1.4,4.85,4.85,0,0,1,0,.66l.05.33h0a6.37,6.37,0,0,1,0,1.38,6,6,0,0,1-.39,2.28,2.86,2.86,0,0,1-.15.41,6,6,0,0,1-4.83,4.21Z" transform="translate(-72.88 -60.34)"/><path class="cls-22" d="M495.76,146.19l17.44,37.13c1.89,3.92,2.66,8,1.42,12.06a15,15,0,0,1-8,9.16,20.59,20.59,0,0,0-11.42,20.7l9.73,4.47a5.88,5.88,0,0,1,1.19-2.74l.08-.11a5.94,5.94,0,0,1,2.44-1.86l.4-.34a6.22,6.22,0,0,1,.68-.57l0-.05a5.41,5.41,0,0,1,.47-.85,4.53,4.53,0,0,1,.28-.59,5.21,5.21,0,0,1,.24-.47c0-.1.09-.2.14-.31a6.38,6.38,0,0,1,.45-1c0-.1.07-.21.11-.32s.09-.27.15-.41a5.87,5.87,0,0,1,.28-.93c0-.15.1-.28.14-.42a6,6,0,0,1,.55-1.14v0a6,6,0,0,1,.77-1.89l0-.1c.1-.21.21-.42.33-.62a5.56,5.56,0,0,1,.44-.88c.09-.17.18-.34.28-.5a7.94,7.94,0,0,1,.34-.72,10.85,10.85,0,0,1,.62-1.7.36.36,0,0,1,0-.09,6,6,0,0,1,.47-1.21l.11-.22h0l.1-.27c.11-.33.26-.64.4-1,0-.09.08-.18.13-.27a4.05,4.05,0,0,1,.2-.55l0-.11a4.94,4.94,0,0,1,.12-.77c0-.16.06-.32.1-.48a5.85,5.85,0,0,1,.44-1.81,30.21,30.21,0,0,1,.77-2,6.24,6.24,0,0,1,.49-.87,6.35,6.35,0,0,1,.53-.91l.19-.54a7,7,0,0,1,.36-.9c.06-.16.12-.32.17-.48a6,6,0,0,1,1-1.78l.14-.16a3.07,3.07,0,0,1,.27-.36c1.73-5.37,1.54-9.67,0-12.86q-13.17-29.53-17-36.24-3.09-5.52-7.82-4.72c-1.72.24-2,1.43-.91,3.58" transform="translate(-72.88 -60.34)"/><path class="cls-44" d="M517.92,205.75q3.12-7.67,4-10.68a3.7,3.7,0,0,0-4.49,3.91q.55,6.42-7,10.25a14.53,14.53,0,0,0-6,20.2l3.73,1.71q10.38-26.77,9.85-25.39" transform="translate(-72.88 -60.34)"/><path class="cls-45" d="M498.56,190.34l-9.12-35a17.11,17.11,0,0,1,10.49,17q-.66,10.45,3.47,14.17a8.51,8.51,0,0,1-8.58,14.18q3.75-10.38,3.74-10.38" transform="translate(-72.88 -60.34)"/><path class="cls-21" d="M426.17,157.83l1.36,4.29a6,6,0,0,1,3.49,4.71l0,.18a6.76,6.76,0,0,1,.17.78c.11.3.4,1.18.26.9l-.15-.32a7.14,7.14,0,0,1,.31.81l.34,1.15.27.69c.09.23.13.48.23.7a23,23,0,0,1,.89,2.26c.08.2.32.79.19.62l-.27-.36a5.84,5.84,0,0,1,1,2.1,12,12,0,0,1,.29,1.32,7.53,7.53,0,0,1,.31,1,5.66,5.66,0,0,1,.36,1l0,.1a6.26,6.26,0,0,1,.56,1.13,6,6,0,0,1,.58,2,5.92,5.92,0,0,1,1.1,3.21l.06,1.52a6,6,0,0,1-.08,1.22l.74,5.86,0-.09a3.53,3.53,0,0,1,.15.46,2.47,2.47,0,0,1,.1.29,2.39,2.39,0,0,1,.15.37,5.18,5.18,0,0,1,.31.57,5.91,5.91,0,0,1,.62,1c.13.19.26.38.38.58a5.84,5.84,0,0,1,.66,1.14,1.74,1.74,0,0,0,.1.19,5.79,5.79,0,0,1,.85,1.81,5.92,5.92,0,0,1,.31,1.06c0,.13.09.27.13.41a6.27,6.27,0,0,1,.38,1.49c0,.12.07.24.11.36a6.3,6.3,0,0,1,.37,1.45l.19,1.51a6,6,0,0,1,0,1.7,5.71,5.71,0,0,1-.21,1.18l2.76,8.72,2.28-13.41-5.2-66.35-8.89-4.59-8,12.58L437.1,154Z" transform="translate(-72.88 -60.34)"/><path class="cls-44" d="M392.28,198.05a5.58,5.58,0,0,1,6.84,2.14,19.24,19.24,0,0,1-5.87,1.17l-10.56.92L357,204.52l-.06-1.69a16.84,16.84,0,0,1,21.28-5,16.57,16.57,0,0,0,14.07.22" transform="translate(-72.88 -60.34)"/><path class="cls-45" d="M415.28,156.14a9.29,9.29,0,0,1-6.57,14.16,14.92,14.92,0,0,0-11.56,8.76,12.31,12.31,0,0,1-22.73.35l15.7-1.7,25.16-21.57" transform="translate(-72.88 -60.34)"/><path class="cls-46" d="M442.37,200.31c2.23,4.2,2.56,8.15,1,11.88T427,160.53a17.17,17.17,0,0,1,12.9,18.68q-.4,13.22,2.44,21.1" transform="translate(-72.88 -60.34)"/><path class="cls-8" d="M315.73,212.5c-15.24,17.63-8.83,31.12.29,27.47l8.25-4.05a6,6,0,0,1,2.16-3.94c.18-.16.36-.3.55-.44l.09-.09a11.09,11.09,0,0,1,3.85-2.69,5.18,5.18,0,0,1,.84-.53c.12-.08.25-.15.38-.22a5.34,5.34,0,0,1,.75-.39,6,6,0,0,1,1.94-.92l.38-.14.47-.41-.21-.77a13.93,13.93,0,0,1-.33-1.95l-.54-1.61-.36-.87c-.17-.41-.31-.86-.46-1.28l-.37-.9c-.19-.45-.33-1-.49-1.42s-.2-.8-.29-1.22l-.2-.49c-.3-.72-.54-1.46-.85-2.17l-.29-.65a5.94,5.94,0,0,1-.46-3.43L322.28,194c-2.69-4.66-4.35-3.39-3.46,3.5q.68,10.53-3.09,15" transform="translate(-72.88 -60.34)"/><path class="cls-10" d="M329.18,206.42,341,227.72l-17.75,8.7a15.06,15.06,0,0,1,2.69-20.2,11.35,11.35,0,0,0,3.22-9.8" transform="translate(-72.88 -60.34)"/><path class="cls-7" d="M251.64,226.87l6.75.84,6.75.84a1.26,1.26,0,0,1,1.09.79c.26,1.33.51,2.66.76,4s.51,2.66.76,4a1.26,1.26,0,0,1-.72,1.14l-6,3.26-6,3.27c-.47.25-1-.15-1.11-.88l-1.53-8c-.51-2.67-1-5.33-1.52-8-.14-.74.17-1.29.7-1.23" transform="translate(-72.88 -60.34)"/><path class="cls-9" d="M301.59,207.61q-5.35,5.29-3.33,12.08s-3-7.26-8.95-21.77l15.61-7.61a13.6,13.6,0,0,1-3.33,17.3" transform="translate(-72.88 -60.34)"/><path class="cls-47" d="M205.26,387.84h59.4a16.44,16.44,0,0,1,13.13,6.47,21.35,21.35,0,0,1,3.91,15.55q-.6,5.24-1.18,10.49c-.4,3.49-.78,7-1.18,10.48a29,29,0,0,1-6.72,15.55c-3.43,4-7.82,6.46-12.38,6.46H209.66c-4.58,0-9-2.5-12.39-6.46a28.94,28.94,0,0,1-6.71-15.55l-1.17-10.48c-.39-3.5-.79-7-1.18-10.49a21.34,21.34,0,0,1,3.89-15.55,16.47,16.47,0,0,1,13.16-6.47" transform="translate(-72.88 -60.34)"/><path class="cls-48" d="M210.3,449.71C232,453,265.49,464.65,276,433.2c0,0,1-5.28,3.25-24.51a25.71,25.71,0,0,0-.67-9.25q-2.7-3.56-8.22,0a10.93,10.93,0,0,1-1.56,9.41,8.34,8.34,0,0,1-7.89,3.56c-13.62-2.22-26.66,7-30.82,21.79-2.65,9.69-10.82,16.09-19.8,15.51" transform="translate(-72.88 -60.34)"/><path class="cls-10" d="M138.69,438.16a170.65,170.65,0,0,0,191.61,12.3c-13.88,6.09-30,5.09-42.55-3.62a63.11,63.11,0,0,0-65.63-5,81.92,81.92,0,0,1-83.43-3.69" transform="translate(-72.88 -60.34)"/><path class="cls-49" d="M290,251.17a1.59,1.59,0,0,1,1.55,2.77c-18.68,10.47-33,21.63-42.28,33.74s-13.57,24.88-12.54,39v.05q.31,6.27.56,12a200.88,200.88,0,0,1,31.39-26.79A399,399,0,0,1,318,282.74a1.59,1.59,0,1,1,1.44,2.83,396.85,396.85,0,0,0-48.95,28.93q-20.22,14.28-33,28.72.34,8.58.49,15.7a.45.45,0,0,1,0,.11q.45,21.14-.77,29.21a1.59,1.59,0,0,1-3.14-.47q1.18-7.81.74-28.47-1.59-4.12-14.15-12.19-13.27-8.52-38.35-20.94a1.59,1.59,0,1,1,1.41-2.84q25.24,12.5,38.66,21.11a72,72,0,0,1,12.29,9.4q-.15-5.18-.38-11a1.34,1.34,0,0,1,0-.2q-.3-7.31-.73-15.7a56.75,56.75,0,0,1,.93-15.3q-10.62-13-19.52-22.45a176.57,176.57,0,0,0-16.3-15.55,1.59,1.59,0,0,1,2-2.47A180.59,180.59,0,0,1,217.23,287q8.33,8.83,18.14,20.76a64.17,64.17,0,0,1,11.32-22c9.59-12.45,24.19-23.88,43.26-34.57" transform="translate(-72.88 -60.34)"/><path class="cls-5" d="M187.57,387.84h93.48a3.91,3.91,0,0,1,3.9,3.9v4.51a3.91,3.91,0,0,1-3.9,3.9H187.57a3.92,3.92,0,0,1-3.91-3.9v-4.51a3.92,3.92,0,0,1,3.91-3.9" transform="translate(-72.88 -60.34)"/><path class="cls-11" d="M276.08,245.54c-1.65,2.13-1.65,4.12-2.65,5s-2.31,1.39-3.3.27-.33-2.36.66-3.24,3-.65,5.29-2" transform="translate(-72.88 -60.34)"/><path class="cls-11" d="M249.59,244.45c-1.65,2.13-1.66,4.13-2.65,5s-2.31,1.38-3.3.27-.33-2.37.66-3.25,3-.65,5.29-2" transform="translate(-72.88 -60.34)"/><path class="cls-11" d="M297.79,284.54c-1.65,2.13-1.65,4.12-2.65,5s-2.31,1.39-3.3.27-.33-2.36.66-3.24,3-.65,5.29-2" transform="translate(-72.88 -60.34)"/><path class="cls-11" d="M242.5,261.78c-1.66,2.13-1.66,4.12-2.65,5s-2.32,1.39-3.31.27-.33-2.36.67-3.24,3-.65,5.29-2" transform="translate(-72.88 -60.34)"/><path class="cls-11" d="M257.42,266.52c-1.46,1.87-1.46,3.63-2.33,4.4s-2,1.22-2.91.24-.29-2.08.59-2.86,2.61-.56,4.65-1.78" transform="translate(-72.88 -60.34)"/><path class="cls-11" d="M221.05,252.53c-1.65,2.13-1.65,4.13-2.65,5s-2.31,1.38-3.3.27-.33-2.37.66-3.25,3-.64,5.29-2" transform="translate(-72.88 -60.34)"/><path class="cls-11" d="M262.16,305.06c-1.39,1.79-1.4,3.47-2.23,4.2s-1.95,1.17-2.78.23-.27-2,.56-2.73,2.5-.54,4.45-1.7" transform="translate(-72.88 -60.34)"/><path class="cls-11" d="M217.74,331.17c-1.39,1.79-1.39,3.47-2.23,4.21s-1.94,1.16-2.77.22-.28-2,.56-2.73,2.49-.54,4.44-1.7" transform="translate(-72.88 -60.34)"/><path class="cls-11" d="M245.82,364c-1.06,1.37-1.06,2.65-1.7,3.21s-1.49.9-2.13.18-.21-1.52.43-2.09,1.91-.41,3.4-1.3" transform="translate(-72.88 -60.34)"/><path class="cls-11" d="M199.42,370.27c-1.06,1.37-1.07,2.65-1.7,3.22s-1.49.89-2.13.17-.21-1.52.43-2.09,1.91-.41,3.4-1.3" transform="translate(-72.88 -60.34)"/><path class="cls-5" d="M347.76,394.24a4.93,4.93,0,0,0,7.56-3.56,4.73,4.73,0,0,0-7.56,3.56" transform="translate(-72.88 -60.34)"/><path class="cls-5" d="M272.84,414.65a4.94,4.94,0,0,1-7.57-3.56,4.74,4.74,0,0,1,7.57,3.56" transform="translate(-72.88 -60.34)"/><path class="cls-5" d="M459.86,380.22a3.89,3.89,0,0,1-6-2.81,3.74,3.74,0,0,1,6,2.81" transform="translate(-72.88 -60.34)"/><path class="cls-5" d="M568.14,208.53a5.62,5.62,0,0,1-8.62-4.06,5.4,5.4,0,0,1,8.62,4.06" transform="translate(-72.88 -60.34)"/><path class="cls-5" d="M359.27,143.16a13.59,13.59,0,0,1,18.28,6.44l-72-.38a16.25,16.25,0,0,1,22.35-5.59,16.44,16.44,0,0,1,31.36-.47" transform="translate(-72.88 -60.34)"/><path class="cls-50" d="M197.36,275a20.7,20.7,0,1,1-20.7,20.7,20.7,20.7,0,0,1,20.7-20.7" transform="translate(-72.88 -60.34)"/><path class="cls-51" d="M203.07,277.22a19.38,19.38,0,1,1-21,30.48,19,19,0,0,0,4.15.45h1.31a19.35,19.35,0,0,0,15.5-30.93" transform="translate(-72.88 -60.34)"/><path class="cls-50" d="M289,252.73a16.92,16.92,0,1,1-16.92,16.92A16.92,16.92,0,0,1,289,252.73" transform="translate(-72.88 -60.34)"/><path class="cls-51" d="M293.68,254.51a15.84,15.84,0,1,1-17.13,24.92,15.72,15.72,0,0,0,3.39.37H281a15.82,15.82,0,0,0,12.67-25.29" transform="translate(-72.88 -60.34)"/><path class="cls-50" d="M275.13,312.46A19.12,19.12,0,1,1,256,331.58a19.12,19.12,0,0,1,19.12-19.12" transform="translate(-72.88 -60.34)"/><path class="cls-51" d="M280.41,314.47a17.9,17.9,0,1,1-19.36,28.16,17.91,17.91,0,0,0,3.83.42h1.21a17.88,17.88,0,0,0,14.32-28.58" transform="translate(-72.88 -60.34)"/><path class="cls-50" d="M243.6,271.17a12,12,0,1,1-12,12,12,12,0,0,1,12-12" transform="translate(-72.88 -60.34)"/><path class="cls-51" d="M246.91,272.43a11.23,11.23,0,1,1-12.15,17.67,11.26,11.26,0,0,0,2.41.26h.76a11.22,11.22,0,0,0,9-17.93" transform="translate(-72.88 -60.34)"/><path class="cls-50" d="M229.1,314.9a9.75,9.75,0,1,1-9.74,9.74,9.75,9.75,0,0,1,9.74-9.74" transform="translate(-72.88 -60.34)"/><path class="cls-51" d="M231.79,315.92a9.13,9.13,0,1,1-9.87,14.36,9.05,9.05,0,0,0,2,.21h.62a9.11,9.11,0,0,0,7.29-14.57" transform="translate(-72.88 -60.34)"/><path class="cls-50" d="M306.19,295.94A13.16,13.16,0,1,1,293,309.1a13.16,13.16,0,0,1,13.16-13.16" transform="translate(-72.88 -60.34)"/><path class="cls-51" d="M309.83,297.32a12.32,12.32,0,1,1-13.33,19.39,12.07,12.07,0,0,0,2.64.28H300a12.3,12.3,0,0,0,9.86-19.67" transform="translate(-72.88 -60.34)"/><path class="cls-50" d="M194.61,323.31a13.17,13.17,0,1,1-13.16,13.16,13.16,13.16,0,0,1,13.16-13.16" transform="translate(-72.88 -60.34)"/><path class="cls-51" d="M198.25,324.7a12.32,12.32,0,1,1-13.33,19.38,12.07,12.07,0,0,0,2.64.29h.83a12.3,12.3,0,0,0,9.86-19.67" transform="translate(-72.88 -60.34)"/><path class="cls-50" d="M560,356.72a11.61,11.61,0,1,1-11.61,11.6A11.6,11.6,0,0,1,560,356.72" transform="translate(-72.88 -60.34)"/><path class="cls-51" d="M563.24,357.94A10.87,10.87,0,1,1,551.49,375a10.53,10.53,0,0,0,2.33.25h.73a10.85,10.85,0,0,0,8.69-17.34" transform="translate(-72.88 -60.34)"/><path class="cls-50" d="M581.66,338a7.47,7.47,0,1,1-7.47,7.47,7.46,7.46,0,0,1,7.47-7.47" transform="translate(-72.88 -60.34)"/><path class="cls-51" d="M583.72,338.75a7,7,0,1,1-7.56,11,6.7,6.7,0,0,0,1.5.16h.47a7,7,0,0,0,7-7,6.89,6.89,0,0,0-1.39-4.18" transform="translate(-72.88 -60.34)"/><path class="cls-50" d="M548.25,185.79a9.16,9.16,0,1,1-9.16,9.15,9.15,9.15,0,0,1,9.16-9.15" transform="translate(-72.88 -60.34)"/><path class="cls-51" d="M550.78,186.75a8.57,8.57,0,1,1-9.28,13.49,8.64,8.64,0,0,0,1.84.19h.58a8.56,8.56,0,0,0,6.86-13.68" transform="translate(-72.88 -60.34)"/><path class="cls-50" d="M599.4,198.84a6.11,6.11,0,1,1-6.11,6.11,6.11,6.11,0,0,1,6.11-6.11" transform="translate(-72.88 -60.34)"/><path class="cls-51" d="M601.09,199.48a5.72,5.72,0,1,1-6.19,9,5.43,5.43,0,0,0,1.22.13h.39a5.72,5.72,0,0,0,4.58-9.13" transform="translate(-72.88 -60.34)"/><path class="cls-50" d="M568.14,138.75a10.76,10.76,0,1,1-10.75,10.75,10.75,10.75,0,0,1,10.75-10.75" transform="translate(-72.88 -60.34)"/><path class="cls-51" d="M571.11,139.88a10.07,10.07,0,1,1-10.89,15.84,10.28,10.28,0,0,0,2.16.24h.68a10.06,10.06,0,0,0,8.05-16.08" transform="translate(-72.88 -60.34)"/><text class="cls-52" transform="translate(112.04 248.07)">₡</text><text class="cls-53" transform="translate(206.53 216.87)">R</text><text class="cls-54" transform="translate(165.21 227.15)">₳</text><text class="cls-55" transform="translate(113.52 286.79)">¤</text><text class="cls-55" transform="translate(225.12 259.93)">₫</text><text class="cls-56" transform="translate(151.35 269.13)">₦</text><text class="cls-55" transform="translate(192.39 279.19)">₳</text></svg>