<svg xmlns="http://www.w3.org/2000/svg" viewBox="0 0 173.05 124.26"><defs><style>.cls-1{isolation:isolate;}.cls-2{fill:#dcf0fb;opacity:0.64;}.cls-3{fill:#acd8f1;}.cls-4{fill:#99c5d8;}.cls-5{fill:#27bced;}.cls-6{fill:#fff;}.cls-7{fill:#f0b3b2;}.cls-8{fill:#68ade0;}.cls-9{fill:#e69ec5;opacity:0.76;}.cls-14,.cls-9{mix-blend-mode:color-burn;}.cls-10{fill:#1b1d3c;}.cls-11{fill:#ef7c97;}.cls-12,.cls-14{fill:#010101;}.cls-13{fill:#0e9bd7;}.cls-14{opacity:0.11;}.cls-15{fill:#34ac5e;}.cls-16,.cls-20{fill:none;stroke-linecap:round;}.cls-16{stroke:#282929;stroke-linejoin:round;stroke-width:0.2px;}.cls-17{fill:#b3d06a;}.cls-18{fill:#f7a711;}.cls-19{fill:#1a1b39;}.cls-20{stroke:#27bced;stroke-miterlimit:10;stroke-width:0.78px;}</style></defs><g class="cls-1"><g id="Layer_1" data-name="Layer 1"><path class="cls-2" d="M272.7,189.28c17.84,40,120.78,52.21,152.78,8.6,15.72-21.42,15.35-57.69.4-68s-31.95,13.25-73.86,12.9c-35.24-.29-48.27-17.08-64.47-7.43C272,144.62,264.77,171.52,272.7,189.28Z" transform="translate(-269.45 -113.08)"/><rect class="cls-3" x="2.46" y="120.74" width="157.48" height="3.52"/><rect class="cls-4" x="86.43" y="5.89" width="63.35" height="95.9"/><rect class="cls-5" x="75.53" y="0.28" width="63.35" height="95.9"/><rect class="cls-6" x="83.45" y="10.84" width="45.75" height="12.32"/><rect class="cls-6" x="83.45" y="33.71" width="15.84" height="12.32"/><rect class="cls-6" x="83.45" y="56.59" width="15.84" height="12.32"/><rect class="cls-6" x="83.45" y="75.94" width="15.84" height="12.32"/><rect class="cls-6" x="106.33" y="38.55" width="22.88" height="2.64"/><rect class="cls-6" x="106.77" y="61.43" width="22.88" height="2.64"/><rect class="cls-6" x="105.89" y="79.9" width="22.88" height="2.64"/><polygon class="cls-7" points="42.27 114.34 42.98 109.62 37.51 109.66 37.55 114.38 38.05 115.87 41.79 116.34 42.27 114.34"/><path class="cls-8" d="M298.58,234.25l13.92-.1c0-.13,0-.65.07-1.36.1-2,.25-5.42-.12-5.6a1.16,1.16,0,0,0-1,0,1.84,1.84,0,0,1-2.23,1.5c-2-.23-2.25-2-2.5-2s0,0-.49.51c-.22.18-.51.41-.86.66l-1,.74-.32.22-1,.73c-1.75,1.23-3.56,2.48-4,2.92a.57.57,0,0,0-.11.11A2,2,0,0,0,298.58,234.25Z" transform="translate(-269.45 -113.08)"/><path class="cls-9" d="M298.58,234.25l13.92-.1c0-.13,0-.65.07-1.36L299,232.62A2,2,0,0,0,298.58,234.25Z" transform="translate(-269.45 -113.08)"/><path class="cls-6" d="M304.38,228.64l1.39,1.72a.65.65,0,0,0,.49.23.64.64,0,0,0,.39-.14.63.63,0,0,0,.09-.87l-1.36-1.68Z" transform="translate(-269.45 -113.08)"/><path class="cls-6" d="M303,229.59l1.25,1.53a.62.62,0,1,0,1-.79l-1.19-1.46Z" transform="translate(-269.45 -113.08)"/><polygon class="cls-7" points="60.62 113.85 59.91 109.12 65.38 109.16 65.34 113.88 64.83 115.37 61.1 115.84 60.62 113.85"/><path class="cls-8" d="M343.22,233.75l-13.92-.1c0-.13,0-.65-.07-1.36-.1-2-.25-5.42.12-5.6a1.2,1.2,0,0,1,1,0,1.85,1.85,0,0,0,2.23,1.51c2-.24,2.25-2,2.5-2s0,0,.49.5c.22.18.51.41.86.67l1,.73.32.23,1,.72c1.75,1.23,3.56,2.49,4,2.92l.1.11A2,2,0,0,1,343.22,233.75Z" transform="translate(-269.45 -113.08)"/><path class="cls-9" d="M343.22,233.75l-13.92-.1c0-.13,0-.65-.07-1.36l13.6-.17A2,2,0,0,1,343.22,233.75Z" transform="translate(-269.45 -113.08)"/><path class="cls-6" d="M337.42,228.14l-1.4,1.72a.59.59,0,0,1-.48.23.57.57,0,0,1-.39-.14.61.61,0,0,1-.09-.87l1.36-1.67Z" transform="translate(-269.45 -113.08)"/><path class="cls-6" d="M338.75,229.09l-1.24,1.53a.64.64,0,0,1-.49.23.63.63,0,0,1-.48-1l1.2-1.47Z" transform="translate(-269.45 -113.08)"/><path class="cls-10" d="M331.64,166.89l4,58-8.45,1.82-5-48.09s-1.49-8.68-.5-10.76S331.64,166.89,331.64,166.89Z" transform="translate(-269.45 -113.08)"/><path class="cls-10" d="M311.22,166.8l-5.65,58.33,7.71.78,5.22-28.39,3.65-15.27a39.83,39.83,0,0,0,1.07-9.17v-4.46Z" transform="translate(-269.45 -113.08)"/><path class="cls-6" d="M333.16,165.05v2.73a43.36,43.36,0,0,1-21.87-.25s-1-21.37,4.23-26.59,8.08-3.24,8.08-3.24h2.11l4.47,4.73Z" transform="translate(-269.45 -113.08)"/><path class="cls-3" d="M328.57,138.66c.25,0,7.2,4.14,7.45,15.82s-4.1,15.54-4.1,15.54l-.74-5Z" transform="translate(-269.45 -113.08)"/><path class="cls-11" d="M319.74,136.46s1,3.48,4,3.73c1.78.15,2.06-.77,2-1.53a2.58,2.58,0,0,0-.07-.43,3,3,0,0,0-.17-.53v-2.23l-3.8-3-.24-.19-.16.39Z" transform="translate(-269.45 -113.08)"/><path class="cls-9" d="M321.26,132.69a6.54,6.54,0,0,0,4.44,6,2.58,2.58,0,0,0-.07-.43,3,3,0,0,0-.17-.53v-2.23l-3.8-3-.24-.19Z" transform="translate(-269.45 -113.08)"/><path class="cls-7" d="M329.44,127.76s2.89,9.45-4,9.45c-3.48,0-5.72-4.48-5.22-9.45S329.44,127.76,329.44,127.76Z" transform="translate(-269.45 -113.08)"/><path class="cls-12" d="M323.1,128.38c6,1,7.7-.49,8.7-2s-.25-4-3-2.48c0,0-6.72-4-10.2,1.24-2,3.48.5,7.71,2.74,8l.5-3.48,1.24,1.74Z" transform="translate(-269.45 -113.08)"/><circle class="cls-7" cx="52.28" cy="18.41" r="1.86"/><path class="cls-13" d="M311,163.77l.08,2s8,1.49,12.18,0V140.12a5.78,5.78,0,0,1-3.48-3.91s-6.46,2.49-7.95,8.45a18.49,18.49,0,0,0-.38,2C310.68,151.8,310.84,160,311,163.77Z" transform="translate(-269.45 -113.08)"/><path class="cls-14" d="M311,165.79s8,1.49,12.18,0v-2.35c-3.61.62-4.63.58-7-3.61-2.48-4.48-3-13.43-3-13.43l-1.87.29C310.44,153.5,311,165.79,311,165.79Z" transform="translate(-269.45 -113.08)"/><path class="cls-3" d="M311,163.77l.08,2s8,1.49,12.18,0V163.7C321.29,164.32,317.4,165,311,163.77Z" transform="translate(-269.45 -113.08)"/><path class="cls-3" d="M319.74,136.21s-8.7.75-11.68,8.7-.5,22.87,3.73,25.36A17.81,17.81,0,0,0,316,168s-2.48-8-2.73-13.42S315.52,139.69,319.74,136.21Z" transform="translate(-269.45 -113.08)"/><path class="cls-13" d="M325.46,137.7l.25.87V166s4.22,1.49,7.7.5l.5-1.49a.22.22,0,0,0,.11,0c.24-.13.73-.76.14-3.69-.45-2.23-.36-7.56-1-12.45-.4-3.29-1.12-6.38-2.52-8.18-2.49-3.23-5-3-5-3Z" transform="translate(-269.45 -113.08)"/><path class="cls-14" d="M325.71,163.82V166s4.22,1.49,7.7.5l.5-1.49a.22.22,0,0,0,.11,0c.24-.13.73-.76.14-3.69-.45-2.23-.36-7.56-1-12.45,0,3.52,0,9.77-.53,11.7-.75,2.74,0,4-2,4.48C329,165.46,327.7,163.79,325.71,163.82Z" transform="translate(-269.45 -113.08)"/><path class="cls-3" d="M325.71,163.94V166s4.22,1.49,7.7.5l.5-1.49a.22.22,0,0,0,.11,0A69.46,69.46,0,0,1,325.71,163.94Z" transform="translate(-269.45 -113.08)"/><path class="cls-7" d="M313,172.3a5.06,5.06,0,0,1-1.22-2.53c-1.24-5.47,3.48-2,3.48-2a7.8,7.8,0,0,1,1.45,2.2A6.06,6.06,0,0,1,313,172.3Z" transform="translate(-269.45 -113.08)"/><path class="cls-6" d="M312.29,172.63c2.76,0,4.74-2.67,4.82-2.79a.12.12,0,0,0-.2-.14s-2,2.68-4.62,2.68a.12.12,0,0,0-.13.12A.13.13,0,0,0,312.29,172.63Z" transform="translate(-269.45 -113.08)"/><path class="cls-10" d="M130.2,101.11h15.69a0,0,0,0,1,0,0v11.6a7.84,7.84,0,0,1-7.84,7.84h0a7.84,7.84,0,0,1-7.84-7.84v-11.6a0,0,0,0,1,0,0Z"/><path class="cls-15" d="M426.58,194.86c-12.55,13.91-21.58,5.77-9-8.14S439.14,181,426.58,194.86Z" transform="translate(-269.45 -113.08)"/><path class="cls-16" d="M427.73,184.27c-1.68.33-18,16.86-20.18,30.49" transform="translate(-269.45 -113.08)"/><path class="cls-15" d="M394.81,201.12c8.28,9.17,14.22,3.8,5.95-5.36S386.54,192,394.81,201.12Z" transform="translate(-269.45 -113.08)"/><path class="cls-16" d="M394.06,194.15c1.1.21,11.85,11.1,13.3,20.09" transform="translate(-269.45 -113.08)"/><path class="cls-17" d="M401.54,193.07c3.68,14.16,12.87,11.77,9.18-2.39S397.85,178.91,401.54,193.07Z" transform="translate(-269.45 -113.08)"/><path class="cls-16" d="M404.56,185.33c1,.83,6.38,18.15,3,28.39" transform="translate(-269.45 -113.08)"/><circle class="cls-18" cx="168.6" cy="39.75" r="4.46"/><circle class="cls-18" cx="26.75" cy="100.31" r="7.06"/><circle class="cls-18" cx="32.03" cy="19.23" r="3.75"/><rect class="cls-5" x="14.01" y="61.59" width="2.6" height="57.12"/><path class="cls-13" d="M297.49,184.06H272A1.16,1.16,0,0,1,271,182.5l5.92-16.29a1.17,1.17,0,0,1,1.09-.77h13.61a1.17,1.17,0,0,1,1.09.77l5.92,16.29A1.16,1.16,0,0,1,297.49,184.06Z" transform="translate(-269.45 -113.08)"/><path class="cls-19" d="M292.19,233.93H277.48a4.74,4.74,0,0,1,4.74-4.73h5.24a4.73,4.73,0,0,1,4.73,4.73Z" transform="translate(-269.45 -113.08)"/><rect class="cls-5" x="290.25" y="184.06" width="1.13" height="11.1" transform="translate(-272.17 -108.85) rotate(-0.83)"/><circle class="cls-5" cx="21.44" cy="82.65" r="1.15"/><path class="cls-13" d="M280.69,113.4a8.92,8.92,0,0,1,3.83,4.48c0,.06.07.06.1,0a8.92,8.92,0,0,1,3.83-4.48h0c.09,0,.07-.32,0-.32h-7.72c-.09,0-.11.28,0,.32Z" transform="translate(-269.45 -113.08)"/><path class="cls-5" d="M293.33,146v-.11a8.66,8.66,0,0,0-17.31,0V146Z" transform="translate(-269.45 -113.08)"/><path class="cls-4" d="M281.3,146v0a3.38,3.38,0,1,0,6.76,0v0Z" transform="translate(-269.45 -113.08)"/><path class="cls-20" d="M284.57,117.73v19.51" transform="translate(-269.45 -113.08)"/></g></g></svg>