<svg id="CF_Logo_Full_OL" data-name="CF Logo Full OL" xmlns="http://www.w3.org/2000/svg" viewBox="0 0 914.6 251.18"><defs><style>.cls-1{fill:#fff;}</style></defs><path class="cls-1" d="M381.25,594.38a5.91,5.91,0,1,0,5.57,6.24A5.91,5.91,0,0,0,381.25,594.38Z" transform="translate(-375 -474.41)"/><path class="cls-1" d="M449.49,599.05a18.34,18.34,0,0,0,17.24,19.32l1,0a18.3,18.3,0,1,0-18.29-19.35Z" transform="translate(-375 -474.41)"/><path class="cls-1" d="M381.25,594.38a5.91,5.91,0,1,0,5.57,6.24A5.91,5.91,0,0,0,381.25,594.38Z" transform="translate(-375 -474.41)"/><path class="cls-1" d="M448.33,492.84a5.91,5.91,0,1,0-7.95-2.62A5.92,5.92,0,0,0,448.33,492.84Z" transform="translate(-375 -474.41)"/><path class="cls-1" d="M466.9,525.23a9.14,9.14,0,1,0-12.28-4.05A9.14,9.14,0,0,0,466.9,525.23Z" transform="translate(-375 -474.41)"/><path class="cls-1" d="M404.41,547.49a7.53,7.53,0,1,0-2.16-10.42A7.52,7.52,0,0,0,404.41,547.49Z" transform="translate(-375 -474.41)"/><path class="cls-1" d="M415.54,591.08a9.14,9.14,0,1,0,8.61,9.65A9.15,9.15,0,0,0,415.54,591.08Z" transform="translate(-375 -474.41)"/><path class="cls-1" d="M405.41,652.53a7.53,7.53,0,1,0,10.12,3.33A7.53,7.53,0,0,0,405.41,652.53Z" transform="translate(-375 -474.41)"/><path class="cls-1" d="M440.94,572.19a10.76,10.76,0,1,0-3.1-14.9A10.75,10.75,0,0,0,440.94,572.19Z" transform="translate(-375 -474.41)"/><path class="cls-1" d="M553.66,524.5A9.15,9.15,0,1,0,551,511.84,9.14,9.14,0,0,0,553.66,524.5Z" transform="translate(-375 -474.41)"/><path class="cls-1" d="M572.42,492.22a5.91,5.91,0,1,0-1.71-8.19A5.91,5.91,0,0,0,572.42,492.22Z" transform="translate(-375 -474.41)"/><path class="cls-1" d="M555.1,581.63A18.3,18.3,0,1,0,553,618.18l1.06,0a18.31,18.31,0,0,0,1-36.58Z" transform="translate(-375 -474.41)"/><path class="cls-1" d="M472.91,570.92A18.23,18.23,0,0,0,489.27,581a18.31,18.31,0,0,0,16.34-26.54,18.22,18.22,0,0,0-16.36-10.07,18.55,18.55,0,0,0-8.23,2A18.34,18.34,0,0,0,472.91,570.92Z" transform="translate(-375 -474.41)"/><path class="cls-1" d="M616.41,547.47a7.53,7.53,0,1,0-10.12-3.33A7.53,7.53,0,0,0,616.41,547.47Z" transform="translate(-375 -474.41)"/><path class="cls-1" d="M570,553.3a10.76,10.76,0,1,0,14.46,4.77A10.76,10.76,0,0,0,570,553.3Z" transform="translate(-375 -474.41)"/><path class="cls-1" d="M510.23,489.46a7.53,7.53,0,1,0-7.1-7.94A7.51,7.51,0,0,0,510.23,489.46Z" transform="translate(-375 -474.41)"/><path class="cls-1" d="M510.14,536.85A10.76,10.76,0,1,0,500,525.49,10.75,10.75,0,0,0,510.14,536.85Z" transform="translate(-375 -474.41)"/><path class="cls-1" d="M451.84,646.7a10.76,10.76,0,1,0-14.45-4.77A10.76,10.76,0,0,0,451.84,646.7Z" transform="translate(-375 -474.41)"/><path class="cls-1" d="M517.1,552.55a18.29,18.29,0,1,0,15.32-8.27A18.31,18.31,0,0,0,517.1,552.55Z" transform="translate(-375 -474.41)"/><path class="cls-1" d="M548.92,629.08a18.31,18.31,0,1,0-8.11,24.58A18.23,18.23,0,0,0,548.92,629.08Z" transform="translate(-375 -474.41)"/><path class="cls-1" d="M580.89,627.81A10.76,10.76,0,1,0,584,642.7,10.77,10.77,0,0,0,580.89,627.81Z" transform="translate(-375 -474.41)"/><path class="cls-1" d="M615.93,600.31a9.14,9.14,0,1,0-9.65,8.61A9.16,9.16,0,0,0,615.93,600.31Z" transform="translate(-375 -474.41)"/><path class="cls-1" d="M641.25,593.8a5.92,5.92,0,1,0,5.57,6.25A5.93,5.93,0,0,0,641.25,593.8Z" transform="translate(-375 -474.41)"/><path class="cls-1" d="M617.41,652.5a7.53,7.53,0,1,0,2.17,10.43A7.53,7.53,0,0,0,617.41,652.5Z" transform="translate(-375 -474.41)"/><path class="cls-1" d="M449.41,707.78a5.91,5.91,0,1,0,1.7,8.19A5.92,5.92,0,0,0,449.41,707.78Z" transform="translate(-375 -474.41)"/><path class="cls-1" d="M573.49,707.16a5.91,5.91,0,1,0,8,2.62A5.91,5.91,0,0,0,573.49,707.16Z" transform="translate(-375 -474.41)"/><path class="cls-1" d="M504.73,647.45a18.29,18.29,0,1,0-15.32,8.27A18.23,18.23,0,0,0,504.73,647.45Z" transform="translate(-375 -474.41)"/><path class="cls-1" d="M468.17,675.5a9.15,9.15,0,1,0,2.63,12.66A9.16,9.16,0,0,0,468.17,675.5Z" transform="translate(-375 -474.41)"/><path class="cls-1" d="M510.83,710.53a7.54,7.54,0,1,0,7.09,8A7.54,7.54,0,0,0,510.83,710.53Z" transform="translate(-375 -474.41)"/><path class="cls-1" d="M510.91,663.15A10.76,10.76,0,1,0,521,674.5,10.75,10.75,0,0,0,510.91,663.15Z" transform="translate(-375 -474.41)"/><path class="cls-1" d="M554.92,674.77a9.15,9.15,0,1,0,12.29,4.05A9.14,9.14,0,0,0,554.92,674.77Z" transform="translate(-375 -474.41)"/><path class="cls-1" d="M702.64,603.73h56.7v12.53h-42v21.39H755.2v12.54H717.36v32.43H702.64Z" transform="translate(-375 -474.41)"/><path class="cls-1" d="M763.25,652.38c0-21.74,10-31.63,29.78-31.63s29.79,9.89,29.79,31.63S812.81,684,793,684,763.25,674.11,763.25,652.38Zm45.31.8v-1.61c0-13.11-4.49-19.55-15.53-19.55s-15.52,6.44-15.52,19.55v1.61c0,13.11,4.37,19.55,15.52,19.55S808.56,666.29,808.56,653.18Z" transform="translate(-375 -474.41)"/><path class="cls-1" d="M834.78,663V622.13h13.8v38.41c0,8.63,4.25,11.5,11.15,11.5,7.59,0,13.57-6.09,13.57-14.72V622.13h13.8v60.49H875.72l-1.15-8h-.81A23.36,23.36,0,0,1,854.33,684C842.71,684,834.78,678.37,834.78,663Z" transform="translate(-375 -474.41)"/><path class="cls-1" d="M903.2,622.13h11.38l1.15,8h.81A23.38,23.38,0,0,1,936,620.75c11.5,0,19.55,5.63,19.55,21v40.83h-13.8V644.21c0-8.63-4.26-11.5-11.16-11.5-7.59,0-13.57,6.09-13.57,14.72v35.19H903.2Z" transform="translate(-375 -474.41)"/><path class="cls-1" d="M967.37,652.26c0-21.74,9.77-31.51,23.23-31.51,8.28,0,14.49,2.76,18.17,8.39h.69V599.47h13.8v83.15h-11.38l-1.15-8H1010c-4,6.33-10.81,9.43-18.52,9.43C976.68,684,967.37,674.34,967.37,652.26Zm42.09.92V651.8c0-12.31-4.14-19.21-13.8-19.21-10.24,0-14,6-14,19.1v1.49c0,13,3.68,19,14,19C1005.44,672.16,1009.46,665.37,1009.46,653.18Z" transform="translate(-375 -474.41)"/><path class="cls-1" d="M1034.87,667c0-16.44,15.76-21.05,38-21.05v-5.06c0-5.17-1.85-9.2-10.36-9.2-8.85,0-11.15,3.57-11.15,6.79v1.61H1038a15.6,15.6,0,0,1-.12-2.53c0-10.47,9.89-16.79,24.61-16.79,16.34,0,24.16,7,24.16,19.09v28.87a3.73,3.73,0,0,0,4,4h3.68v9.43a20.8,20.8,0,0,1-8.62,1.73c-6,0-10.12-3.11-11.5-8.17h-.81c-4,4.95-9.89,8.28-19.32,8.28C1047.18,684,1034.87,681.7,1034.87,667Zm38-8.51v-2.76c-13.12,0-23.81,1.84-23.81,9.89,0,4.83,3.1,7.36,9.2,7.36C1067.42,673,1072.83,667.21,1072.83,658.47Z" transform="translate(-375 -474.41)"/><path class="cls-1" d="M1104.1,668.94V633.4h-7.36V622.13h7.59l2.53-16.91h11v16.91h10.35V633.4H1117.9v34.16c0,3.33,1.61,5.17,4.95,5.17h5.4v9.43a30.07,30.07,0,0,1-9.66,1.84C1107.44,684,1104.1,676.41,1104.1,668.94Z" transform="translate(-375 -474.41)"/><path class="cls-1" d="M1139.41,599.47H1153V613h-13.57Zm0,22.66h13.8v60.49h-13.8Z" transform="translate(-375 -474.41)"/><path class="cls-1" d="M1165.4,652.38c0-21.74,10-31.63,29.78-31.63s29.79,9.89,29.79,31.63S1215,684,1195.18,684,1165.4,674.11,1165.4,652.38Zm45.31.8v-1.61c0-13.11-4.49-19.55-15.53-19.55s-15.52,6.44-15.52,19.55v1.61c0,13.11,4.37,19.55,15.52,19.55S1210.71,666.29,1210.71,653.18Z" transform="translate(-375 -474.41)"/><path class="cls-1" d="M1237.27,622.13h11.39l1.15,8h.8a23.4,23.4,0,0,1,19.44-9.43c11.5,0,19.55,5.63,19.55,21v40.83h-13.8V644.21c0-8.63-4.26-11.5-11.16-11.5-7.59,0-13.57,6.09-13.57,14.72v35.19h-13.8Z" transform="translate(-375 -474.41)"/><path class="cls-1" d="M699.53,538.18c0-27.72,14-40.83,38.19-40.83,19.66,0,34.84,9.89,34.84,30.48H757.5c0-11.73-8-18.06-19.55-18.06-15.87,0-23.35,9.2-23.35,27.26v2.3c0,18.4,7.36,27.26,23.35,27.26,12.19,0,20.12-6.33,20.12-17.83h14.49c0,20.59-14.95,30.25-34.84,30.25C713.57,579,699.53,566.59,699.53,538.18Z" transform="translate(-375 -474.41)"/><path class="cls-1" d="M781.07,562c0-16.45,15.75-21,37.95-21v-5.06c0-5.17-1.84-9.2-10.35-9.2-8.86,0-11.16,3.57-11.16,6.78v1.62H784.17a17.08,17.08,0,0,1-.11-2.54c0-10.46,9.89-16.79,24.61-16.79,16.33,0,24.15,7,24.15,19.1v28.86a3.74,3.74,0,0,0,4,4h3.68v9.43a20.94,20.94,0,0,1-8.63,1.72c-6,0-10.12-3.1-11.5-8.16h-.81c-4,4.94-9.89,8.28-19.32,8.28C793.37,579,781.07,576.71,781.07,562ZM819,553.48v-2.76c-13.11,0-23.81,1.84-23.81,9.89,0,4.83,3.11,7.36,9.2,7.36C813.61,568,819,562.22,819,553.48Z" transform="translate(-375 -474.41)"/><path class="cls-1" d="M849.49,517.13h11.39l1.26,9.55H863c2.18-5.75,6-10.93,13.57-10.93a16,16,0,0,1,5.75,1v13H877.9c-9.43,0-14.61,5.17-14.61,16.33v31.51h-13.8Z" transform="translate(-375 -474.41)"/><path class="cls-1" d="M888.13,547.27c0-21.74,9.78-31.52,23.23-31.52,8.28,0,14.49,2.76,18.17,8.4h.69V494.48H944v83.15H932.64l-1.15-8h-.69c-4,6.32-10.81,9.43-18.52,9.43C897.45,579,888.13,569.35,888.13,547.27Zm42.09.92v-1.38c0-12.31-4.14-19.21-13.8-19.21-10.23,0-14,6-14,19.09v1.5c0,13,3.68,19,14,19C926.2,567.16,930.22,560.38,930.22,548.19Z" transform="translate(-375 -474.41)"/><path class="cls-1" d="M955.64,562c0-16.45,15.75-21,38-21v-5.06c0-5.17-1.84-9.2-10.35-9.2-8.86,0-11.16,3.57-11.16,6.78v1.62H958.74a17.08,17.08,0,0,1-.11-2.54c0-10.46,9.89-16.79,24.61-16.79,16.33,0,24.15,7,24.15,19.1v28.86a3.73,3.73,0,0,0,4,4h3.68v9.43a20.84,20.84,0,0,1-8.62,1.72c-6,0-10.12-3.1-11.5-8.16h-.81c-4,4.94-9.89,8.28-19.32,8.28C967.94,579,955.64,576.71,955.64,562Zm38-8.51v-2.76c-13.11,0-23.81,1.84-23.81,9.89,0,4.83,3.11,7.36,9.2,7.36C988.18,568,993.59,562.22,993.59,553.48Z" transform="translate(-375 -474.41)"/><path class="cls-1" d="M1024.06,517.13h11.39l1.15,8h.8a23.42,23.42,0,0,1,19.44-9.43c11.5,0,19.55,5.64,19.55,21v40.83h-13.8V539.22c0-8.63-4.26-11.51-11.16-11.51-7.59,0-13.57,6.1-13.57,14.73v35.19h-13.8Z" transform="translate(-375 -474.41)"/><path class="cls-1" d="M1088.35,547.38c0-21.74,10-31.63,29.78-31.63s29.79,9.89,29.79,31.63-10,31.63-29.79,31.63S1088.35,569.12,1088.35,547.38Zm45.31.81v-1.61c0-13.12-4.49-19.56-15.53-19.56s-15.52,6.44-15.52,19.56v1.61c0,13.11,4.37,19.55,15.52,19.55S1133.66,561.3,1133.66,548.19Z" transform="translate(-375 -474.41)"/></svg>