<?xml version="1.0" encoding="utf-8"?>
<!-- Generator: Adobe Illustrator 25.0.0, SVG Export Plug-In . SVG Version: 6.00 Build 0)  -->
<svg version="1.1" id="Layer_2" xmlns="http://www.w3.org/2000/svg" xmlns:xlink="http://www.w3.org/1999/xlink" x="0px" y="0px"
	 viewBox="0 0 914.6 251.2" style="enable-background:new 0 0 914.6 251.2;" xml:space="preserve">
<style type="text/css">
	.st0{fill:#E42527;}
	.st1{fill:#1D1E1C;}
</style>
<rect x="285.6" y="107.6" class="st0" width="4.4" height="36.5"/>
<rect x="461.8" y="86.1" class="st0" width="4.4" height="79.3"/>
<path class="st0" d="M326.5,137.2L326.5,137.2c-0.3-0.8-0.4-1.6-0.4-2.5v-27.1h4.4V144h-4.2l-19.1-29.3l0,0c0.2,0.8,0.4,1.6,0.4,2.5
	V144H303v-36.4h4.4L326.5,137.2z"/>
<path class="st0" d="M348.1,129.4V144h-4.4v-36.4h19.3c0.9,0,1.8,0.4,2.5,1l1.2,1.1c0.8,0.6,1.3,1.6,1.2,2.6v12.5c0,1-0.4,2-1.2,2.6
	l-1.2,1.1c-0.7,0.6-1.6,1-2.5,1L348.1,129.4z M348.1,111.2v14.6h13c0.4,0.1,0.8,0.1,1.2,0c0.3-0.1,0.5-0.2,0.7-0.4
	c0.2-0.2,0.4-0.4,0.6-0.6c0-0.3,0-0.7,0-1v-10.4c0-0.3,0-0.7,0-1c-0.1-0.2-0.3-0.4-0.6-0.6c-0.2-0.2-0.5-0.3-0.7-0.5
	c-0.4,0-0.8,0-1.2,0L348.1,111.2z"/>
<path class="st0" d="M403,107.6h4.4v31.8c0,1-0.5,2-1.3,2.6l-1.2,1.1c-0.7,0.6-1.6,1-2.5,1h-17.7c-0.9,0-1.8-0.4-2.5-1l-1.2-1
	c-0.8-0.6-1.3-1.6-1.2-2.6v-31.8h4.3v30.7c0,0.3,0,0.7,0,1c0.3,0.5,0.8,0.8,1.3,1c0.4,0.1,0.8,0.1,1.2,0h13.9c0.4,0.1,0.8,0.1,1.2,0
	c0.3-0.1,0.5-0.2,0.7-0.4c0.3-0.3,0.5-0.5,0.5-0.6c0.1-0.3,0.1-0.7,0-1L403,107.6z"/>
<polygon class="st0" points="414.9,107.6 442.4,107.6 442.4,111.2 430.8,111.2 430.8,144 426.4,144 426.4,111.2 414.9,111.2 "/>
<path class="st1" d="M493,107.5h19.1c0.9,0,1.8,0.4,2.5,1l1.2,1.1c0.8,0.6,1.3,1.6,1.2,2.6v27.1c0,1-0.4,2-1.2,2.7l-1.2,1.1
	c-0.7,0.6-1.6,1-2.5,1H493c-0.9,0-1.8-0.4-2.5-1l-1.2-1.1c-0.8-0.6-1.3-1.6-1.2-2.6v-27.2c0-1,0.4-2,1.2-2.6l1.2-1.1
	C491.2,107.9,492.1,107.6,493,107.5 M512.7,138.2v-24.9c0-0.3,0-0.7,0-1c-0.2-0.2-0.4-0.3-0.6-0.5c-0.2-0.2-0.5-0.3-0.7-0.5
	c-0.4,0-0.8,0-1.2,0h-15.1h-1.2l-0.7,0.5c-0.3,0.3-0.5,0.5-0.5,0.6c-0.1,0.3-0.1,0.7,0,1v24.8c-0.1,0.3-0.1,0.7,0,1
	c0,0,0.2,0.3,0.5,0.6c0.2,0.2,0.5,0.3,0.7,0.4c0.4,0.1,0.8,0.1,1.2,0h15.1c0.4,0.1,0.8,0.1,1.2,0c0.3-0.1,0.5-0.2,0.7-0.4
	c0.2-0.2,0.4-0.4,0.6-0.6C512.7,138.9,512.7,138.5,512.7,138.2"/>
<path class="st1" d="M553.5,107.6h4.4v31.8c0,1-0.4,2-1.2,2.6l-1.2,1.1c-0.7,0.6-1.6,1-2.5,1h-17.7c-0.9,0-1.8-0.4-2.5-1l-1.2-1.1
	c-0.8-0.6-1.3-1.6-1.2-2.6v-31.8h4.4v30.7c-0.1,0.3-0.1,0.7,0,1c0,0,0.2,0.3,0.5,0.6c0.2,0.2,0.5,0.3,0.8,0.4c0.4,0.1,0.8,0.1,1.2,0
	h13.8c0.4,0.1,0.8,0.1,1.2,0c0.3-0.1,0.5-0.2,0.7-0.4c0.3-0.3,0.5-0.5,0.6-0.6c0-0.3,0-0.7,0-1L553.5,107.6z"/>
<polygon class="st1" points="565.3,107.6 592.8,107.6 592.8,111.2 581.2,111.2 581.2,144 576.8,144 576.8,111.2 565.3,111.2 "/>
<path class="st1" d="M604.7,129.4V144h-4.4v-36.4h19.3c0.9,0,1.8,0.4,2.5,1l1.2,1.1c0.8,0.6,1.3,1.6,1.2,2.6v12.5c0,1-0.4,2-1.2,2.6
	l-1.2,1.1c-0.7,0.6-1.6,1-2.5,1L604.7,129.4z M604.7,111.2v14.6h12.8c0.4,0.1,0.8,0.1,1.2,0c0.5-0.2,1-0.6,1.3-1c0-0.3,0-0.7,0-1
	v-10.4c0-0.3,0-0.7,0-1c-0.2-0.2-0.3-0.4-0.6-0.6l-0.7-0.5c-0.4,0-0.8,0-1.2,0L604.7,111.2z"/>
<path class="st1" d="M659.6,107.5h4.4v31.8c0,1-0.4,2-1.3,2.7l-1.2,1.1c-0.7,0.6-1.6,1-2.5,1h-17.7c-0.9,0-1.8-0.4-2.5-1l-1.2-1.1
	c-0.8-0.6-1.3-1.6-1.2-2.6v-31.8h4.4v30.7c0,0.3,0,0.7,0,1c0.1,0.2,0.3,0.4,0.6,0.6c0.2,0.2,0.5,0.3,0.7,0.4c0.4,0.1,0.8,0.1,1.2,0
	H657c0.4,0.1,0.8,0.1,1.2,0c0.3-0.1,0.5-0.2,0.8-0.4c0.3-0.3,0.5-0.5,0.5-0.6c0.1-0.3,0.1-0.7,0-1L659.6,107.5z"/>
<polygon class="st1" points="671.5,107.6 699,107.6 699,111.2 687.4,111.2 687.4,144 683.1,144 683.1,111.2 671.5,111.2 "/>
<path class="st0" d="M44.2,53.4c-0.4-3.7-3.7-6.4-7.4-6c-3.4,0.4-6,3.3-6,6.7c0,3.7,2.9,6.7,6.6,6.7c3.2,0,6-2.3,6.6-5.4
	c48.6,0.4,88.3,29.2,91.5,65.3c-4.1-7.8-9.3-15.1-15.5-21.4c-16.7-17.2-39.8-26.6-63.8-26.1h-0.3c-0.5-3.7-4-6.3-7.7-5.8
	c-3.7,0.5-6.3,4-5.8,7.7s4,6.3,7.7,5.8c3-0.4,5.3-2.8,5.8-5.8h0.3c23.4-0.5,46,8.7,62.3,25.5c5.8,5.9,10.7,12.6,14.6,19.9
	c-4.9-4.4-10.1-8.4-15.5-11.9c-11.3-7.5-28.8-16.2-48.6-16.2c-0.6-3.6-4-6.1-7.6-5.5c-3.6,0.6-6.1,4-5.5,7.6s4,6.1,7.6,5.5
	c2.8-0.4,5.1-2.7,5.5-5.5c29.5,0,54.5,20.1,63.5,28.3c-9.9-3.5-33.9-11.3-51.5-11.8c-0.4-3.7-3.6-6.4-7.3-6c-3.7,0.4-6.4,3.6-6,7.3
	c0.3,3.4,3.2,6,6.6,6c3.1-0.1,5.8-2.3,6.4-5.3c17.6,0.3,41.4,8.3,51.1,11.5H97.6c-0.4-3.3-3.3-5.7-6.6-5.7c-3.7,0.1-6.6,3.1-6.6,6.7
	c0,3.7,3.1,6.6,6.7,6.5c3.2,0,5.9-2.3,6.4-5.4h33.9c-16.2,6.6-33.3,10.5-50.7,11.6c-0.7-3-3.4-5.1-6.4-5c-3.7,0-6.7,2.9-6.8,6.7
	c0,3.7,2.9,6.7,6.7,6.8c3.5,0,6.5-2.7,6.7-6.2c17.8-0.3,41.4-8.2,51.5-11.8c-9,8.2-33.9,28.3-63.5,28.3c-0.6-3.7-4-6.2-7.7-5.6
	c-3.7,0.6-6.2,4-5.6,7.7c0.6,3.7,4,6.2,7.7,5.6c2.9-0.5,5.1-2.7,5.6-5.6c19.8,0,37.3-8.8,48.6-16.2c5.5-3.7,10.8-7.7,15.7-12.2
	c-4,7.4-8.9,14.2-14.7,20.2c-16.3,16.9-38.9,26.2-62.3,25.7l0,0c-0.5-3.6-3.9-6.1-7.5-5.6c-3.6,0.5-6.1,3.9-5.6,7.5
	c0.5,3.6,3.9,6.1,7.5,5.6c2.9-0.4,5.1-2.7,5.6-5.6h0.4c23.9,0.5,47-9,63.7-26.2c6-6.3,11.1-13.4,15-21.1
	c-3.8,35.6-43.4,63.7-91.6,64c-1.2-3.5-5-5.3-8.5-4.1c-3.5,1.2-5.3,5-4.1,8.5c1.2,3.5,5,5.3,8.5,4.1c2.7-0.9,4.4-3.5,4.4-6.3l0,0
	c51.4-0.5,92.7-32.2,93.8-71.2v-0.8c0-39.4-42-71.6-93.8-72 M41.8,55c-0.3,2.5-2.5,4.4-5.1,4.1c-2.5-0.3-4.4-2.5-4.1-5.1
	c0.3-2.5,2.5-4.4,5.1-4.1c2.2,0.2,3.8,1.9,4.1,4.1c0,0.2,0,0.4,0,0.5C41.8,54.7,41.8,54.8,41.8,55 M49.4,79c-2.5-0.2-4.4-2.5-4.2-5
	c0.2-2.2,2-4,4.2-4.2c2.5-0.2,4.8,1.6,5,4.2c0.2,2.5-1.6,4.8-4.2,5C49.9,79.1,49.7,79.1,49.4,79 M62.3,98.2c-2.5,0-4.6-2.1-4.6-4.6
	c0-2.5,2.1-4.6,4.6-4.6c2.5,0,4.6,2.1,4.6,4.6c0,0,0,0,0,0C66.9,96.2,64.9,98.2,62.3,98.2C62.4,98.2,62.4,98.2,62.3,98.2
	 M78.8,112.6c-0.4,2.2-2.3,3.8-4.5,3.8c-2.5,0.2-4.8-1.6-5-4.2c-0.2-2.5,1.6-4.8,4.2-5c0.3,0,0.6,0,0.8,0c2.4,0,4.4,2,4.5,4.4
	c-0.1,0.2-0.1,0.4,0,0.6C78.8,112.3,78.8,112.4,78.8,112.6 M90.9,130.2c-2.5-0.2-4.4-2.5-4.2-5c0.2-2.2,2-4,4.2-4.2
	c2.5-0.2,4.8,1.6,5,4.2c0.2,2.5-1.6,4.8-4.2,5C91.5,130.3,91.2,130.3,90.9,130.2 M74.3,144.6c-2.5,0-4.6-2-4.6-4.6
	c0-2.5,2-4.6,4.6-4.6c2.2,0,4.1,1.6,4.5,3.7c0,0.1,0,0.3,0,0.4c-0.1,0.2-0.1,0.4,0,0.6C78.8,142.6,76.7,144.6,74.3,144.6
	 M62.3,162.7c-2.5,0-4.6-2.1-4.6-4.6c0-2.5,2.1-4.6,4.6-4.6s4.6,2.1,4.6,4.6C66.9,160.7,64.8,162.7,62.3,162.7L62.3,162.7
	 M49.3,181.9c-2.5,0-4.6-2.1-4.6-4.6c0-2.5,2.1-4.6,4.6-4.6s4.6,2.1,4.6,4.6C53.9,179.9,51.9,181.9,49.3,181.9L49.3,181.9
	 M37.4,202.1c-2.5,0-4.6-2.1-4.5-4.7s2.1-4.6,4.7-4.5c2.1,0,3.8,1.4,4.4,3.4l0,0c0,0.2,0,0.3,0,0.5c0,0.2,0,0.4,0,0.6
	C41.9,200,39.9,202.1,37.4,202.1"/>
<path class="st1" d="M141.2,126.3c1.1,39.1,42.1,70.8,93.5,71.2l0,0c0.1,3.6,3,6.5,6.7,6.5c3.6-0.1,6.5-3,6.5-6.7s-3-6.5-6.7-6.5
	c-2.8,0-5.2,1.8-6.1,4.5c-48.1-0.3-87.7-28.4-91.6-64c4.1,7.8,9.3,14.9,15.4,21.2c16.7,17.2,39.7,26.7,63.7,26.2h0.4
	c0.8,3.6,4.3,5.9,7.9,5.1c3-0.7,5.2-3.3,5.3-6.4c0.2-3.7-2.6-6.8-6.3-7c-3.7-0.2-6.8,2.6-7,6.3h-0.3c-23.4,0.5-45.9-8.8-62.2-25.5
	c-5.8-6.1-10.8-12.9-14.8-20.3c4.9,4.4,10.2,8.5,15.7,12.1c11.3,7.5,28.9,16.2,48.6,16.2c0.6,3.6,4,6.1,7.6,5.6
	c3.6-0.6,6.1-4,5.6-7.6s-4-6.1-7.6-5.6c-2.9,0.4-5.1,2.7-5.6,5.6c-29.5,0-54.6-20.1-63.5-28.3c9.9,3.8,33.7,11.3,51.5,11.8
	c0.2,3.7,3.3,6.5,6.9,6.3c3.7-0.2,6.5-3.3,6.3-6.9c0-3.7-3-6.7-6.7-6.7c0,0,0,0,0,0c-3.1,0-5.8,2.2-6.4,5.2
	c-17.4-1.1-34.5-5.1-50.6-11.7h33.9c0.5,3.6,3.9,6.1,7.5,5.6c3.3-0.5,5.7-3.3,5.6-6.7c0-3.6-2.8-6.5-6.4-6.7
	c-3.3-0.1-6.1,2.4-6.6,5.7h-34.6c9.8-3.2,33.5-11.3,51.1-11.5c0.7,3.1,3.3,5.3,6.4,5.4c3.7,0.1,6.7-2.9,6.8-6.6
	c0.1-3.7-2.9-6.7-6.6-6.8c-3.5,0-6.5,2.7-6.8,6.2c-17.8,0.3-41.4,8.2-51.5,11.7c9-8.2,33.9-28.3,63.5-28.3c0.6,3.7,4,6.2,7.7,5.6
	c3.7-0.6,6.2-4,5.6-7.7c-0.6-3.7-4-6.2-7.7-5.6c-2.9,0.5-5.1,2.7-5.6,5.6c-19.8,0-37.4,8.8-48.6,16.2c-5.5,3.6-10.7,7.6-15.5,11.9
	c3.9-7.3,8.8-14.1,14.6-20c16.3-16.7,38.8-26,62.1-25.5h0.3c0.5,3.6,3.9,6.2,7.6,5.6c3.6-0.5,6.2-3.9,5.6-7.6
	c-0.5-3.6-3.9-6.2-7.6-5.6c-2.9,0.4-5.2,2.7-5.6,5.6h-0.4c-23.9-0.5-47,9-63.7,26.1c-6.2,6.4-11.4,13.6-15.5,21.4
	c3.2-36.2,42.9-65,91.5-65.4c0.7,3.6,4.2,6,7.8,5.3s6-4.2,5.3-7.8c-0.6-3.1-3.3-5.4-6.5-5.4c-3.3,0-6.2,2.5-6.5,5.9
	c-51.8,0.5-93.6,32.6-93.6,72V126.3z M236.7,54.9c0-0.1,0-0.3,0-0.5c0.1-0.2,0.1-0.4,0-0.5c0.1-2.5,2.3-4.5,4.9-4.3s4.5,2.3,4.3,4.9
	c-0.1,2.4-2.2,4.3-4.6,4.3c-2.2,0-4.1-1.6-4.5-3.8 M224.8,74.3c-0.2-2.5,1.6-4.8,4.2-5c2.5-0.2,4.8,1.6,5,4.2c0,0.3,0,0.6,0,0.8
	c-0.2,2.5-2.5,4.4-5,4.2C226.7,78.3,225,76.6,224.8,74.3 M211.8,93.6c-0.2-2.5,1.6-4.8,4.2-5c2.5-0.2,4.8,1.6,5,4.2
	c0,0.3,0,0.6,0,0.8c-0.2,2.5-2.5,4.4-5,4.2C213.7,97.6,212,95.8,211.8,93.6 M183.3,125.8c0-2.5,2-4.6,4.6-4.6s4.6,2,4.6,4.6
	c0,2.5-2,4.5-4.4,4.6c-2.5,0-4.5-2-4.6-4.6 M212,158.2c-0.2-2.5,1.6-4.8,4.2-5c2.5-0.2,4.8,1.6,5,4.2c0,0.3,0,0.6,0,0.8
	c-0.2,2.5-2.5,4.4-5,4.2C213.9,162.2,212.2,160.5,212,158.2 M224.9,177.4c0-2.5,2.1-4.6,4.6-4.6c2.5,0,4.6,2.1,4.6,4.6
	c0,2.5-2.1,4.6-4.6,4.6c0,0,0,0,0,0C227,182,224.9,180,224.9,177.4C224.9,177.4,224.9,177.4,224.9,177.4 M236.8,197.6
	c0-0.2,0-0.4,0-0.6c0-0.2,0-0.3,0-0.5l0,0c0.5-2,2.3-3.4,4.4-3.4c2.5-0.2,4.8,1.6,5,4.2c0.2,2.5-1.6,4.8-4.2,5c-0.3,0-0.6,0-0.8,0
	c-2.5,0-4.6-2-4.6-4.6 M200,112.7c0-0.1,0-0.3,0-0.4c0-0.2,0-0.4,0-0.6c0.2-2.5,2.5-4.4,5-4.2c2.2,0.2,4,2,4.2,4.2
	c-0.1,2.5-2.2,4.5-4.7,4.5C202.3,116.1,200.5,114.6,200,112.7 M200,140.1c0.1-0.2,0.1-0.4,0-0.6c0-0.1,0-0.3,0-0.4
	c0.3-2.5,2.5-4.4,5.1-4.1s4.4,2.5,4.1,5.1c-0.3,2.5-2.5,4.4-5.1,4.1C202,144,200.3,142.3,200,140.1"/>
</svg>
