<?xml version="1.0" encoding="utf-8"?>
<!-- Generator: Adobe Illustrator 25.0.0, SVG Export Plug-In . SVG Version: 6.00 Build 0)  -->
<svg version="1.1" id="CF_Logo_Full_OL" xmlns="http://www.w3.org/2000/svg" xmlns:xlink="http://www.w3.org/1999/xlink" x="0px"
	 y="0px" viewBox="0 0 914.6 251.2" style="enable-background:new 0 0 914.6 251.2;" xml:space="preserve">
<style type="text/css">
	.st0{fill:#FFFFFF;}
</style>
<path class="st0" d="M31.6,121.7c-2.3-0.1-4.2,1.6-4.4,3.9c-0.1,2.3,1.6,4.2,3.9,4.4c2.3,0.1,4.2-1.6,4.4-3.9
	C35.6,123.7,33.9,121.8,31.6,121.7C31.6,121.7,31.6,121.7,31.6,121.7z"/>
<path class="st0" d="M79.3,124.9c-0.4,7.1,5,13.1,12.1,13.5h0.7c7.1,0,12.8-5.7,12.8-12.8c0-7.1-5.7-12.8-12.8-12.8
	C85.3,112.8,79.7,118.1,79.3,124.9L79.3,124.9z"/>
<path class="st0" d="M31.6,121.7c-2.3-0.1-4.2,1.6-4.4,3.9c-0.1,2.3,1.6,4.2,3.9,4.4c2.3,0.1,4.2-1.6,4.4-3.9
	C35.6,123.7,33.9,121.8,31.6,121.7C31.6,121.7,31.6,121.7,31.6,121.7z"/>
<path class="st0" d="M78.5,50.6c2-1,2.9-3.5,1.8-5.6c-1-2-3.5-2.9-5.6-1.8c-2,1-2.9,3.5-1.8,5.5C74,50.8,76.5,51.6,78.5,50.6z"/>
<path class="st0" d="M91.5,73.3c3.2-1.6,4.4-5.4,2.8-8.6c-1.6-3.2-5.4-4.4-8.6-2.8c-3.2,1.6-4.4,5.4-2.8,8.6
	C84.5,73.6,88.4,74.8,91.5,73.3C91.5,73.3,91.5,73.3,91.5,73.3z"/>
<path class="st0" d="M47.8,88.8c2.4,1.6,5.7,0.9,7.3-1.5c1.6-2.4,0.9-5.7-1.5-7.3c-2.4-1.6-5.7-0.9-7.3,1.5c0,0,0,0,0,0
	C44.7,84,45.3,87.2,47.8,88.8C47.8,88.8,47.8,88.8,47.8,88.8z"/>
<path class="st0" d="M55.6,119.3c-3.5-0.2-6.5,2.5-6.7,6c-0.2,3.5,2.5,6.5,6,6.7c3.5,0.2,6.5-2.5,6.7-6
	C61.8,122.6,59.1,119.6,55.6,119.3z"/>
<path class="st0" d="M48.5,162.4c-2.6,1.3-3.6,4.5-2.3,7.1c1.3,2.6,4.5,3.6,7.1,2.3c2.6-1.3,3.6-4.5,2.3-7.1
	C54.3,162.1,51.1,161,48.5,162.4C48.5,162.4,48.5,162.4,48.5,162.4z"/>
<path class="st0" d="M73.3,106.1c3.5,2.3,8.1,1.3,10.4-2.2c2.3-3.5,1.3-8.1-2.2-10.4c-3.5-2.3-8.1-1.3-10.4,2.2
	C68.9,99.2,69.9,103.8,73.3,106.1C73.3,106.1,73.3,106.1,73.3,106.1z"/>
<path class="st0" d="M152.3,72.7c3,1.9,6.9,1.1,8.9-1.9c1.9-3,1.1-6.9-1.9-8.9c-3-1.9-6.9-1.1-8.9,1.9c0,0,0,0,0,0
	C148.5,66.8,149.3,70.8,152.3,72.7C152.2,72.7,152.3,72.7,152.3,72.7z"/>
<path class="st0" d="M165.4,50.1c1.9,1.2,4.5,0.7,5.7-1.2c1.2-1.9,0.7-4.5-1.2-5.7c-1.9-1.2-4.5-0.7-5.7,1.2
	C162.9,46.3,163.5,48.9,165.4,50.1C165.4,50.1,165.4,50.1,165.4,50.1z"/>
<path class="st0" d="M153.3,112.7c-7.1-0.4-13.1,5-13.5,12.1c-0.4,7.1,5,13.1,12.1,13.5h0.7c7.1-0.1,12.8-5.9,12.7-13
	C165.1,118.7,159.9,113.1,153.3,112.7L153.3,112.7z"/>
<path class="st0" d="M95.7,105.2c2.2,4.3,6.6,7.1,11.5,7.1c7.1,0,12.8-5.7,12.8-12.8c0-2-0.5-4-1.4-5.7c-2.2-4.3-6.6-7.1-11.5-7
	c-2,0-4,0.5-5.8,1.4C95.1,91.3,92.6,98.9,95.7,105.2z"/>
<path class="st0" d="M196.2,88.8c2.6-1.3,3.6-4.5,2.3-7.1c-1.3-2.6-4.5-3.6-7.1-2.3c-2.6,1.3-3.6,4.5-2.3,7.1
	C190.4,89.1,193.6,90.1,196.2,88.8C196.2,88.8,196.2,88.8,196.2,88.8z"/>
<path class="st0" d="M163.7,92.9c-3.7,1.9-5.2,6.4-3.3,10.1c1.9,3.7,6.4,5.2,10.1,3.3c3.7-1.9,5.2-6.4,3.3-10.1
	C171.9,92.5,167.4,91,163.7,92.9C163.7,92.9,163.7,92.9,163.7,92.9z"/>
<path class="st0" d="M121.9,48.2c2.9,0.2,5.4-2.1,5.6-5c0.2-2.9-2.1-5.4-5-5.6c-2.9-0.2-5.4,2.1-5.6,5
	C116.7,45.6,118.9,48,121.9,48.2C121.8,48.2,121.8,48.2,121.9,48.2z"/>
<path class="st0" d="M121.8,81.4c4.2,0.2,7.7-2.9,7.9-7.1c0.2-4.2-2.9-7.7-7.1-7.9c-4.1-0.2-7.7,2.9-7.9,7.1
	C114.4,77.6,117.6,81.1,121.8,81.4C121.8,81.4,121.8,81.4,121.8,81.4z"/>
<path class="st0" d="M81,158.3c3.7-1.9,5.2-6.4,3.3-10.1c-1.9-3.7-6.4-5.2-10.1-3.3c-3.7,1.9-5.2,6.4-3.3,10.1
	C72.7,158.7,77.3,160.2,81,158.3L81,158.3z"/>
<path class="st0" d="M126.7,92.4c-3.9,5.9-2.2,13.9,3.7,17.7c5.9,3.9,13.9,2.2,17.7-3.7c3.9-5.9,2.2-13.9-3.7-17.7
	c-2.1-1.4-4.5-2.1-7-2.1C133.1,86.6,129,88.8,126.7,92.4z"/>
<path class="st0" d="M148.9,145.9c-3.2-6.3-10.9-8.9-17.2-5.7c-6.3,3.2-8.9,10.9-5.7,17.2c3.2,6.3,10.9,8.9,17.2,5.7c0,0,0,0,0,0
	C149.6,160,152.1,152.3,148.9,145.9C149,146,149,146,148.9,145.9z"/>
<path class="st0" d="M171.3,145.1c-3.5-2.3-8.1-1.3-10.4,2.2c-2.3,3.5-1.3,8.1,2.2,10.4c3.5,2.3,8.1,1.3,10.4-2.2c0,0,0,0,0,0
	C175.8,152,174.8,147.3,171.3,145.1z"/>
<path class="st0" d="M195.8,125.8c0.2-3.5-2.5-6.5-6-6.7c-3.5-0.2-6.5,2.5-6.7,6c-0.2,3.5,2.5,6.5,6,6.7
	C192.6,132,195.6,129.3,195.8,125.8z"/>
<path class="st0" d="M213.6,121.3c-2.3-0.1-4.2,1.6-4.4,3.9c-0.1,2.3,1.6,4.2,3.9,4.4c2.3,0.1,4.2-1.6,4.4-3.9c0,0,0,0,0,0
	C217.6,123.3,215.8,121.4,213.6,121.3z"/>
<path class="st0" d="M196.9,162.3c-2.4-1.6-5.7-0.9-7.3,1.5c-1.6,2.4-0.9,5.7,1.5,7.3c2.4,1.6,5.7,0.9,7.3-1.5
	C200,167.2,199.3,163.9,196.9,162.3C196.9,162.3,196.9,162.3,196.9,162.3z"/>
<path class="st0" d="M79.3,201c-1.9-1.3-4.5-0.7-5.7,1.2c-1.3,1.9-0.7,4.5,1.2,5.7c1.9,1.3,4.5,0.7,5.7-1.2
	C81.7,204.9,81.2,202.3,79.3,201z"/>
<path class="st0" d="M166.1,200.6c-2,1-2.8,3.5-1.8,5.6c1,2,3.5,2.8,5.6,1.8c2-1,2.8-3.5,1.8-5.5
	C170.7,200.4,168.2,199.6,166.1,200.6C166.2,200.6,166.2,200.6,166.1,200.6z"/>
<path class="st0" d="M118,158.8c3.9-5.9,2.2-13.9-3.7-17.7c-5.9-3.9-13.9-2.2-17.7,3.7c-3.9,5.9-2.2,13.9,3.7,17.7
	c2.1,1.4,4.5,2.1,7,2.1C111.6,164.6,115.6,162.4,118,158.8z"/>
<path class="st0" d="M92.4,178.4c-3-1.9-6.9-1.1-8.9,1.8c-1.9,3-1.1,6.9,1.8,8.9c3,1.9,6.9,1.1,8.9-1.8c0,0,0,0,0,0
	C96.2,184.3,95.4,180.4,92.4,178.4z"/>
<path class="st0" d="M122.3,203c-2.9-0.2-5.4,2.1-5.6,5c-0.2,2.9,2.1,5.4,5,5.6c2.9,0.2,5.4-2,5.6-4.9
	C127.4,205.7,125.2,203.1,122.3,203C122.3,203,122.3,203,122.3,203z"/>
<path class="st0" d="M122.3,169.8c-4.2-0.3-7.7,2.9-8,7.1c-0.3,4.2,2.9,7.7,7.1,8c4.2,0.3,7.7-2.9,8-7.1c0,0,0,0,0,0
	C129.6,173.6,126.5,170,122.3,169.8z"/>
<path class="st0" d="M153.1,177.9c-3.2,1.6-4.4,5.4-2.8,8.6c1.6,3.2,5.4,4.4,8.6,2.8c3.2-1.6,4.4-5.4,2.8-8.6
	C160.2,177.6,156.3,176.3,153.1,177.9C153.1,177.9,153.1,177.9,153.1,177.9z"/>
<path class="st0" d="M256.5,128.2h39.7v8.8h-29.4v15h26.5v8.8h-26.5v22.7h-10.3V128.2z"/>
<path class="st0" d="M299,162.3c0-15.2,7-22.1,20.8-22.1c13.8,0,20.9,6.9,20.9,22.1c0,15.2-7,22.1-20.9,22.1
	C305.9,184.4,299,177.5,299,162.3z M330.7,162.8v-1.1c0-9.2-3.1-13.7-10.9-13.7s-10.9,4.5-10.9,13.7v1.1c0,9.2,3.1,13.7,10.9,13.7
	S330.7,172,330.7,162.8z"/>
<path class="st0" d="M349,169.7v-28.6h9.7V168c0,6,3,8.1,7.8,8.1c5.3,0,9.5-4.3,9.5-10.3v-24.6h9.7v42.3h-8l-0.8-5.6h-0.6
	c-3.2,4.3-8.3,6.7-13.6,6.6C354.6,184.4,349,180.5,349,169.7z"/>
<path class="st0" d="M396.9,141.1h8l0.8,5.6h0.6c3.2-4.3,8.3-6.7,13.6-6.6c8.1,0,13.7,3.9,13.7,14.7v28.6h-9.7v-26.9
	c0-6-3-8.1-7.8-8.1c-5.3,0-9.5,4.3-9.5,10.3v24.6h-9.7V141.1z"/>
<path class="st0" d="M441.9,162.2c0-15.2,6.8-22.1,16.3-22.1c5.8,0,10.1,1.9,12.7,5.9h0.5v-20.8h9.7v58.2h-8l-0.8-5.6h-0.5
	c-2.8,4.4-7.6,6.6-13,6.6C448.4,184.4,441.9,177.6,441.9,162.2z M471.3,162.8v-1c0-8.6-2.9-13.4-9.7-13.4c-7.2,0-9.8,4.2-9.8,13.4v1
	c0,9.1,2.6,13.3,9.8,13.3C468.5,176.1,471.3,171.4,471.3,162.8z"/>
<path class="st0" d="M489.1,172.5c0-11.5,11-14.7,26.6-14.7v-3.5c0-3.6-1.3-6.4-7.3-6.4c-6.2,0-7.8,2.5-7.8,4.8v1.1h-9.4
	c-0.1-0.6-0.1-1.2-0.1-1.8c0-7.3,6.9-11.8,17.2-11.8c11.4,0,16.9,4.9,16.9,13.4v20.2c-0.1,1.4,1,2.7,2.4,2.8c0.1,0,0.3,0,0.4,0h2.6
	v6.6c-1.9,0.8-4,1.2-6,1.2c-4.2,0-7.1-2.2-8.1-5.7h-0.6c-2.8,3.5-6.9,5.8-13.5,5.8C497.7,184.4,489.1,182.8,489.1,172.5z
	 M515.7,166.5v-1.9c-9.2,0-16.7,1.3-16.7,6.9c0,3.4,2.2,5.2,6.4,5.2C511.9,176.7,515.7,172.6,515.7,166.5L515.7,166.5z"/>
<path class="st0" d="M537.6,173.8V149h-5.2v-7.9h5.3l1.8-11.8h7.7v11.8h7.2v7.9h-7.2v23.9c0,2.3,1.1,3.6,3.5,3.6h3.8v6.6
	c-2.2,0.8-4.5,1.2-6.8,1.3C539.9,184.4,537.6,179.1,537.6,173.8z"/>
<path class="st0" d="M562.3,125.2h9.5v9.5h-9.5L562.3,125.2z M562.3,141.1h9.7v42.3h-9.7V141.1z"/>
<path class="st0" d="M580.5,162.3c0-15.2,7-22.1,20.8-22.1s20.9,6.9,20.9,22.1c0,15.2-7,22.1-20.9,22.1S580.5,177.5,580.5,162.3z
	 M612.2,162.8v-1.1c0-9.2-3.1-13.7-10.9-13.7s-10.9,4.5-10.9,13.7v1.1c0,9.2,3.1,13.7,10.9,13.7C609.1,176.5,612.2,172,612.2,162.8
	L612.2,162.8z"/>
<path class="st0" d="M630.8,141.1h8l0.8,5.6h0.6c3.2-4.3,8.3-6.8,13.6-6.6c8,0,13.7,3.9,13.7,14.7v28.6h-9.7v-26.8
	c0-6-3-8.1-7.8-8.1c-5.3,0-9.5,4.3-9.5,10.3v24.6h-9.7V141.1z"/>
<path class="st0" d="M254.4,82.3c0-19.4,9.8-28.6,26.7-28.6c13.8,0,24.4,6.9,24.4,21.3h-10.5c0-8.2-5.6-12.6-13.7-12.6
	c-11.1,0-16.3,6.4-16.3,19.1v1.6c0,12.9,5.2,19.1,16.3,19.1c8.5,0,14.1-4.4,14.1-12.5h10.1c0,14.4-10.5,21.2-24.4,21.2
	C264.2,110.9,254.4,102.2,254.4,82.3z"/>
<path class="st0" d="M311.4,99c0-11.5,11-14.7,26.6-14.7v-3.5c0-3.6-1.3-6.4-7.2-6.4c-6.2,0-7.8,2.5-7.8,4.7v1.1h-9.3
	c-0.1-0.6-0.1-1.2-0.1-1.8c0-7.3,6.9-11.8,17.2-11.8c11.4,0,16.9,4.9,16.9,13.4v20.2c-0.1,1.4,1,2.7,2.4,2.8c0.1,0,0.3,0,0.4,0h2.6
	v6.6c-1.9,0.8-4,1.2-6,1.2c-4.2,0-7.1-2.2-8.1-5.7h-0.6c-2.8,3.5-6.9,5.8-13.5,5.8C320.1,110.9,311.4,109.3,311.4,99z M338,93v-1.9
	c-9.2,0-16.7,1.3-16.7,6.9c0,3.4,2.2,5.2,6.4,5.2C334.2,103.2,338,99.1,338,93z"/>
<path class="st0" d="M359.3,67.6h8l0.9,6.7h0.6c1.5-4,4.2-7.7,9.5-7.7c1.4,0,2.7,0.2,4,0.7v9.1h-3.1c-6.6,0-10.2,3.6-10.2,11.4v22.1
	h-9.7L359.3,67.6z"/>
<path class="st0" d="M386.4,88.7c0-15.2,6.8-22.1,16.3-22.1c5.8,0,10.1,1.9,12.7,5.9h0.5V51.7h9.6v58.2h-8l-0.8-5.6h-0.5
	c-2.8,4.4-7.6,6.6-13,6.6C392.9,110.9,386.4,104.1,386.4,88.7z M415.8,89.3v-1c0-8.6-2.9-13.4-9.7-13.4c-7.2,0-9.8,4.2-9.8,13.4v1
	c0,9.1,2.6,13.3,9.8,13.3C413,102.6,415.8,97.9,415.8,89.3L415.8,89.3z"/>
<path class="st0" d="M433.6,99c0-11.5,11-14.7,26.6-14.7v-3.5c0-3.6-1.3-6.4-7.2-6.4c-6.2,0-7.8,2.5-7.8,4.7v1.1h-9.4
	c-0.1-0.6-0.1-1.2-0.1-1.8c0-7.3,6.9-11.8,17.2-11.8c11.4,0,16.9,4.9,16.9,13.4v20.2c-0.1,1.4,1,2.7,2.4,2.8c0.1,0,0.3,0,0.4,0h2.6
	v6.6c-1.9,0.8-4,1.2-6,1.2c-4.2,0-7.1-2.2-8-5.7h-0.6c-2.8,3.5-6.9,5.8-13.5,5.8C442.2,110.9,433.6,109.3,433.6,99z M460.2,93v-1.9
	c-9.2,0-16.7,1.3-16.7,6.9c0,3.4,2.2,5.2,6.4,5.2C456.4,103.2,460.2,99.1,460.2,93L460.2,93z"/>
<path class="st0" d="M481.5,67.6h8l0.8,5.6h0.6c3.2-4.3,8.3-6.7,13.6-6.6c8.1,0,13.7,3.9,13.7,14.7v28.6h-9.7V83c0-6-3-8.1-7.8-8.1
	c-5.3,0-9.5,4.3-9.5,10.3v24.6h-9.7V67.6z"/>
<path class="st0" d="M526.5,88.8c0-15.2,7-22.1,20.8-22.1s20.9,6.9,20.9,22.1s-7,22.1-20.9,22.1S526.5,104,526.5,88.8z M558.3,89.3
	v-1.1c0-9.2-3.1-13.7-10.9-13.7s-10.9,4.5-10.9,13.7v1.1c0,9.2,3.1,13.7,10.9,13.7C555.2,103,558.3,98.5,558.3,89.3z"/>
</svg>
