<?xml version="1.0" encoding="UTF-8"?>
<svg width="2579px" height="910px" viewBox="0 0 2579 910" version="1.1" xmlns="http://www.w3.org/2000/svg" xmlns:xlink="http://www.w3.org/1999/xlink">
    <!-- Generator: Sketch 63.1 (92452) - https://sketch.com -->
    <title>logo dark</title>
    <desc>Created with Sketch.</desc>
    <defs>
        <linearGradient x1="40.2642636%" y1="54.4940432%" x2="119.546063%" y2="38.0216634%" id="linearGradient-1">
            <stop stop-color="#F1ECEC" offset="0%"></stop>
            <stop stop-color="#C1C2C8" offset="100%"></stop>
        </linearGradient>
        <linearGradient x1="53.15876%" y1="7.73889414%" x2="32.8770521%" y2="59.1740547%" id="linearGradient-2">
            <stop stop-color="#FF00B5" offset="0%"></stop>
            <stop stop-color="#560074" offset="100%"></stop>
        </linearGradient>
    </defs>
    <g id="Pallas" stroke="none" stroke-width="1" fill="none" fill-rule="evenodd">
        <g id="logo-dark">
            <circle id="Oval" fill="url(#linearGradient-1)" cx="429" cy="479" r="396"></circle>
            <path d="M340.607,1.071 C306.291,3.13 267.785,10.32 230.676,21.598 C211.91,27.302 202,30.96 202,32.183 C202,32.706 207.898,46.405 215.107,62.627 C222.315,78.848 228.053,92.267 227.857,92.447 C227.661,92.626 216.475,80.467 203,65.426 C189.525,50.385 178.22,38.061 177.877,38.039 C176.752,37.969 150.864,57.962 138.05,68.799 C121.375,82.9 93.547,110.877 82.798,124.346 C51.088,164.08 34.211,199.158 26.885,240.559 C23.747,258.297 23.567,291.507 26.513,309.5 C29.289,326.462 29.108,328.395 23.139,345.5 C0.995,408.95 -5.131,482.533 6.029,551 C25.14,668.24 92.752,773.022 191.5,838.435 C218.044,856.019 240.283,867.817 267.5,878.753 C309.85,895.771 350.169,905.253 396.291,909.043 C415.361,910.61 461.969,909.791 478.663,907.595 C549.8,898.241 608.129,876.693 666,838.39 C718.82,803.43 761.943,758.139 796.812,701 C804.504,688.396 820.268,656.565 826.032,642 C858.323,560.396 865.383,472.696 846.479,388 C816.209,252.383 718.736,137.278 590.312,85.495 C564.479,75.078 527.136,64.179 506,60.886 C501.875,60.244 498.156,59.415 497.737,59.045 C496.998,58.395 506.888,48.407 517.81,38.771 L523.121,34.086 L516.31,30.675 C512.565,28.798 504.1,25.221 497.5,22.724 C450.953,5.118 397.077,-2.318 340.607,1.071 M461.251,102.75 C452.431,115.947 441.902,136.1 436.937,149.286 C434.355,156.144 433.286,157.939 432.065,157.467 C431.204,157.135 424.2,155.803 416.5,154.509 C377.841,148.01 345.396,148.484 314.267,156 C238.191,174.371 186.907,234.615 173.383,321.5 C171.07,336.357 170.723,380.144 172.805,394.5 C176.74,421.646 181.971,440.445 193.813,470 C204.547,496.789 209.096,515.21 211.063,539.84 C214.671,585.024 199.659,630.979 169.059,668.428 C158.933,680.819 139.79,699.123 138.405,697.738 C138.105,697.439 138.74,695.463 139.815,693.347 C145.983,681.206 150.002,661.176 149.994,642.619 C149.982,615.802 143.376,588.948 127.881,552.722 C121.035,536.717 112.278,518.873 82.38,460 C70.788,437.175 58.212,411.196 54.433,402.27 C50.653,393.343 47.261,386.368 46.895,386.77 C46.529,387.171 45.288,392 44.138,397.5 C30.184,464.237 32.294,528.119 50.553,591.741 C62.948,634.925 86.371,681.906 113.254,717.5 C121.879,728.92 134.281,744.04 134.692,743.637 C134.798,743.533 135.772,739.383 136.856,734.415 C144.867,697.712 170.932,666.116 221.5,631.81 C234.572,622.942 243.234,617.467 273.5,598.946 C317.915,571.765 340.73,553.918 354.387,535.673 C358.564,530.094 358.763,530.785 355.929,541.02 C351.691,556.326 341.898,574.01 329.116,589.439 C314.507,607.072 300.41,619.841 259,652.949 C215.124,688.028 201.004,701.729 186.952,722.856 C176.76,738.179 171.743,752.486 170.39,770.086 L169.741,778.529 L176.121,784.105 C187.569,794.111 219.453,816.88 220.521,815.812 C220.759,815.574 220.488,811.357 219.919,806.44 C217.125,782.291 224.621,757.015 241.848,732.5 C255.332,713.313 268.752,699.8 317,656.831 C368.517,610.949 390.334,585.745 405.577,554.5 C414.638,535.926 419.713,516.764 421.733,493.5 L422.514,484.5 L424.698,494.51 C432.876,532 428.428,568.246 411.509,601.983 C397.336,630.241 386.128,644.405 333.943,700 C318.315,716.65 313.838,721.738 304.5,733.467 C278.921,765.597 267.911,794.268 269.348,825 C270.165,842.476 270.222,842.611 278.197,846.013 C292.022,851.911 329.316,864 333.686,864 C334.603,864 333.958,861.871 331.641,857.25 C318.508,831.059 316.567,802.39 326.098,775.379 C337.743,742.378 358.549,716.564 425.5,652.055 C447.065,631.276 466.971,610.312 477.3,597.5 C504.389,563.898 517.437,531.345 515.741,501.596 C515.136,490.985 516.012,491.899 519.743,505.776 C522.106,514.563 522.363,517.283 522.405,534 C522.456,553.977 521.932,557.35 515.885,576 C510.701,591.986 502.635,607.903 489.838,627.393 C486.627,632.284 484,636.669 484,637.137 C484,638.576 508.213,658.177 518.85,665.35 C532.554,674.59 547.377,682.165 560.512,686.639 C570.621,690.083 572.42,690.387 583,690.441 C596.232,690.509 600.84,688.953 604.737,683.102 C606.642,680.242 607,678.365 607,671.246 C607,661.397 608.761,653.734 613.669,642.229 C615.61,637.68 616.956,633.329 616.662,632.561 C616.367,631.793 612.842,629.215 608.829,626.832 L601.533,622.5 L607.689,621.673 C612.502,621.026 614.667,620.136 617.613,617.589 C621.349,614.359 621.368,614.304 619.94,610.916 C617.195,604.403 618.861,574 621.963,574 C622.383,574 625.071,574.445 627.936,574.988 C631.449,575.654 634.662,575.636 637.801,574.933 C642.698,573.835 649.025,569.735 648.964,567.699 C648.944,567.04 646.69,563.575 643.956,560 C631.052,543.128 621.129,514.643 617.481,484 L616.945,479.5 L592.723,479.364 C566.125,479.215 549.929,477.832 512.5,472.516 C478.722,467.718 470.386,467 448.445,467 C397.059,467 361.165,479.251 331.895,506.779 C318.205,519.654 310.916,528.963 290.222,560 C276.125,581.143 266.761,592.798 259.277,598.518 L254.5,602.169 L253.842,581.834 C253.48,570.65 252.679,558.35 252.063,554.5 C248.887,534.663 242.607,517.34 233.561,503.463 L227.878,494.744 L231.116,486.713 C234.322,478.759 234.336,478.651 232.559,475.59 C212.822,441.596 203.99,404.856 205.294,362.172 C206.98,307.001 226.451,260.429 261.903,226.776 C311.569,179.628 385.972,167.768 474.5,192.887 C491.405,197.683 512,204.899 512,206.025 C512,206.474 510.425,210.576 508.5,215.14 C506.575,219.705 505,223.853 505,224.358 C505,224.864 509.837,230.296 515.75,236.429 C538.889,260.433 610.578,335.089 634.381,359.971 C651.207,377.558 651.07,376.166 636.098,377.491 C631.644,377.886 628,378.413 628,378.664 C628,378.914 631.058,382.805 634.795,387.31 C638.532,391.814 647.171,402.25 653.992,410.5 C660.814,418.75 674.012,434.631 683.322,445.792 C692.632,456.952 700.081,466.235 699.875,466.42 C697.89,468.2 659.209,475.427 642.753,477.093 C636.564,477.72 630.976,478.376 630.336,478.552 C628.957,478.93 629.322,483.013 632.101,498.255 C636.736,523.674 646.617,545.195 660.334,559.743 L665.277,564.986 L663.541,569.533 C659.715,579.549 651.307,585.081 638.81,585.805 L631.043,586.254 L630.393,589.716 C629.214,596.005 630.541,606.888 632.872,610.041 C634.043,611.624 635,613.314 635,613.797 C635,614.279 633.183,617.212 630.962,620.313 C627.025,625.812 626.962,626.026 628.462,628.927 C630.617,633.094 630.382,636.435 627.625,640.801 C622.607,648.751 619.827,658.746 619.086,671.5 C618.28,685.4 616.889,689.172 610.506,694.776 C604.566,699.991 598.251,702.122 586.922,702.734 C570.865,703.601 555.039,699.272 533.14,688.023 C527.762,685.26 523.127,683 522.841,683 C521.886,683 511.248,698.417 507.594,705.096 C494.344,729.318 493.611,755.486 505.524,779 C516.109,799.893 536.021,819.631 565.576,838.528 C575.002,844.554 577.952,845.983 579.966,845.497 C584.018,844.52 616.3,828.557 626.853,822.311 C659.11,803.223 687.021,781.25 712.159,755.158 C775.446,689.467 813.72,604.546 821.066,513.519 C822.589,494.649 821.772,450.782 819.589,434.24 C815.876,406.096 810.679,383.232 802.104,357.315 C770.575,262.022 701.048,180.228 612,133.671 C572.668,113.106 533.694,100.225 489,93.016 C468.474,89.706 470.425,89.021 461.251,102.75 M365.325,193.095 C349.706,194.915 337.67,197.94 329.679,202.054 C304.583,214.972 277.832,237.012 262.691,257.245 C226.878,305.101 222.789,360.504 250.734,419.25 C253.808,425.712 256.588,430.998 256.912,430.996 C257.235,430.994 258.352,428.857 259.393,426.246 C263.747,415.333 278.383,386.687 285.066,376 C304.989,344.138 329.209,317.758 364.5,289.482 C378.346,278.388 389.176,271.436 404.891,263.555 C429.119,251.404 450.131,245 465.772,245 C470.665,245 469.011,246.262 460.5,249.024 C444.545,254.202 420.66,265.896 404.523,276.43 C375.782,295.193 351.455,320.19 329.52,353.5 C310.926,381.736 295.841,411.819 270.417,471.37 L264.069,486.24 L267.574,492.846 C272.231,501.621 274.958,510.925 275.805,520.932 L276.5,529.144 L284.497,519.822 C308.486,491.858 336.031,469.02 360.639,456.693 C383.393,445.293 403.156,440.908 431.684,440.927 C449.847,440.939 465.344,442.509 497.5,447.593 C527.446,452.328 537.764,453.739 555.293,455.497 C574.891,457.462 614.342,457.475 631.506,455.521 C648.489,453.588 670,449.917 670,448.952 C670,448.533 664.713,441.718 658.25,433.807 C651.787,425.896 641.55,413.266 635.5,405.74 C627.862,396.238 623.983,392.167 622.809,392.419 C621.878,392.619 610.761,394.253 598.103,396.05 C579.875,398.638 574.784,399.066 573.627,398.106 C572.824,397.439 566.195,389.232 558.897,379.867 C551.598,370.503 543.646,361.098 541.226,358.967 C531.443,350.356 522.342,348.153 504.242,350.013 C497.499,350.706 489.522,350.984 486.513,350.63 C475.147,349.295 463.214,342.399 452.799,331.149 C445.053,322.783 442.515,319.091 444.179,318.609 C444.906,318.398 467.045,317.031 493.377,315.571 C539.309,313.025 541.306,312.99 542.539,314.709 C544.803,317.865 552.125,327.274 567.377,346.625 L582.254,365.5 L602.377,366.11 C613.445,366.446 622.665,366.581 622.867,366.41 C623.069,366.239 612.934,355.389 600.345,342.3 C587.756,329.21 563.551,303.875 546.556,286 C529.561,268.125 509.866,247.626 502.789,240.447 L489.921,227.394 L492.961,220.252 C494.632,216.324 496,212.874 496,212.585 C496,211.803 472.216,204.517 458.5,201.098 C444.228,197.541 426.414,194.438 412.144,193.025 C400.188,191.842 375.773,191.878 365.325,193.095 M478.438,643.75 C476.116,647.312 460.632,666.966 451.015,678.558 C446.882,683.54 436.935,695.465 428.911,705.058 C403.36,735.606 389.644,754.841 380.578,772.846 L376.962,780.026 L379.231,780.914 C380.479,781.403 386.45,783.691 392.5,785.998 C403.392,790.151 426.053,801.473 441.5,810.479 C454.616,818.125 474.877,827.709 484.684,830.905 C497.154,834.969 508.142,836.927 522.466,837.637 L534.5,838.233 L522.902,826.367 C509.686,812.845 504.22,806.023 497.083,794.142 C487.526,778.233 483,762.481 483,745.13 C483,722.545 490.859,701.656 506.742,682.027 C509.617,678.475 511.638,675.304 511.234,674.98 C510.83,674.657 507.208,671.754 503.185,668.529 C494.787,661.798 488.564,654.84 483.658,646.692 L480.23,641 L478.438,643.75 M372.034,794.872 C364.733,821.988 371.139,844.87 392.438,867.75 C397.21,872.876 399.893,875 401.596,875 C403.81,875 403.481,874.337 397.526,866.806 C386.072,852.322 379.581,835.37 380.202,821.567 L380.5,814.949 L392.5,820.882 C399.1,824.144 411.925,831.732 421,837.743 C448.233,855.78 459.833,862.286 476.618,868.933 L484.737,872.148 L496.122,870.11 C511.964,867.273 523.783,864.324 522,863.651 C521.175,863.34 517.575,862.351 514,861.455 C495.563,856.833 471.421,844.712 443.021,825.82 C421.855,811.74 400.463,800.563 383.28,794.605 L373.06,791.062 L372.034,794.872" id="Shape" fill="#000000"></path>
            <path d="M159.042092,79.322 C133.328092,100.382 110.517092,123.702 93.4370922,146.391 C84.4020922,158.393 70.4770922,180.846 70.4770922,183.411 C70.4770922,184.192 73.7400922,187.506 77.7270922,190.775 C86.9450922,198.333 86.8830922,198.282 99.9930922,209.393 C106.051092,214.528 115.845092,222.737 121.756092,227.633 C127.667092,232.53 132.318092,236.722 132.092092,236.948 C131.866092,237.175 127.472092,235.578 122.329092,233.401 C117.185092,231.224 106.902092,226.953 99.4770922,223.91 C92.0520922,220.867 80.0200922,215.895 72.7380922,212.861 L59.5000922,207.344 L56.5290922,217.037 C50.3430922,237.217 48.9870922,247.339 49,273.23 C49.0110922,293.365 49.3440922,298.576 51.3250922,309.625 C56.6290922,339.21 67.6960922,370.837 87.4950922,412.996 L92.7850922,424.263 L117.631092,423.588 C131.296092,423.216 142.477092,423.147 142.477092,423.433 C142.477092,423.719 133.477092,427.903 122.477092,432.73 C111.477092,437.557 102.477092,441.883 102.477092,442.344 C102.477092,442.805 106.770092,451.405 112.018092,461.456 C146.327092,527.169 162.129092,564.58 169.152092,596.722 C170.654092,603.598 172.181092,608.887 172.544092,608.477 C174.035092,606.791 179.460092,589.907 181.641092,580.165 C183.695092,570.991 183.972092,567.193 183.933092,548.73 C183.896092,530.844 183.556092,526.173 181.640092,517.23 C178.406092,502.138 175.173092,491.998 167.448092,472.73 C153.210092,437.212 146.731092,408.876 144.395092,371.898 C142.711092,345.249 145.567092,313.973 152.125092,287.23 C160.417092,253.419 177.745092,218.664 198.852092,193.508 C210.604092,179.501 229.085092,163.086 242.477092,154.759 C244.952092,153.22 247.140092,151.821 247.339092,151.65 C247.538092,151.48 239.888092,142.635 230.339092,131.996 C220.790092,121.357 205.777092,104.572 196.977092,94.697 C188.177092,84.821 179.152092,74.775 176.922092,72.371 L172.866092,68 L159.042092,79.322" id="Path" fill="url(#linearGradient-2)"></path>
            <path d="M371,26.393 C371,26.779 369.014,36.186 366.586,47.297 C364.158,58.409 360.49,75.27 358.435,84.766 C356.38,94.262 354.528,101.862 354.321,101.654 C353.884,101.217 345.018,54.496 342.431,39 C341.467,33.225 340.301,28.073 339.841,27.551 C337.955,25.416 295.638,31.277 271,37.085 C253.483,41.215 235.991,46.109 236.048856,46.864 C236.21,48.966 277.925,140.456 278.633,140.260314 C279.11,140.128 284,138.485 289.5,136.607 C302.01,132.337 318.919,128.542 334.5,126.507 C350.072,124.472 384.168,124.451 401,126.465 C407.875,127.287 414.496,127.969 415.714,127.98 C417.55,127.997 419.034,125.825 424.413,115.25 C435.187,94.071 450.519,72.011 468.808,51.373 L476.896,42.246 L470.198,40.168 C453.53,34.999 434.327,30.953 414.627,28.461 C401.004,26.738 371,25.316 371,26.393" id="Path" fill="#F800B3"></path>
            <text id="PALLAS" font-family="Optima-Bold, Optima" font-size="321" font-weight="bold" letter-spacing="55.826087" fill="#FFFFFF">
                <tspan x="1026.25424" y="527">PALLAS</tspan>
            </text>
            <g id="spear" transform="translate(1786.000000, 608.000000) rotate(-270.000000) translate(-1786.000000, -608.000000) translate(1714.000000, -185.000000)" fill="#FFFFFF">
                <polygon id="Triangle" transform="translate(72.000000, 210.500000) rotate(-180.000000) translate(-72.000000, -210.500000) " points="72 140.5 143.5 280.5 0.5 280.5"></polygon>
                <polygon id="Triangle" points="72 0.5 143.5 140.5 0.5 140.5"></polygon>
                <polygon id="Rectangle" transform="translate(72.500000, 912.500000) rotate(-270.000000) translate(-72.500000, -912.500000) " points="-601 898 746 898 746 927 -601 927"></polygon>
            </g>
        </g>
    </g>
</svg>