<?xml version="1.0" encoding="UTF-8"?>
<!-- Generated by Pixelmator Pro 3.5.6 -->
<svg width="832" height="821" viewBox="0 0 832 821" xmlns="http://www.w3.org/2000/svg">
    <g id="Group">
        <path id="Path" fill="#fff2cc" stroke="#d6b656" d="M 1.5 0.5 L 201.5 0.5 L 201.5 820.5 L 1.5 820.5 Z"/>
        <path id="path1" fill="#e1d5e7" stroke="#9673a6" d="M 441.5 0.5 L 831.5 0.5 L 831.5 820.5 L 441.5 820.5 Z"/>
        <path id="path2" fill="#d5e8d4" stroke="#82b366" d="M 201.5 0.5 L 441.5 0.5 L 441.5 820.5 L 201.5 820.5 Z"/>
        <path id="path3" fill="#ffffff" stroke="#000000" d="M 265.5 60.5 L 377.5 60.5 C 390.754822 60.5 401.5 71.245178 401.5 84.5 L 401.5 346.5 C 401.5 359.754822 390.754822 370.5 377.5 370.5 L 265.5 370.5 C 252.245163 370.5 241.5 359.754822 241.5 346.5 L 241.5 84.5 C 241.5 71.245178 252.245163 60.5 265.5 60.5 Z"/>
        <path id="path4" fill="none" stroke="none" d="M 281.5 20.5 L 361.5 20.5 L 361.5 40.5 L 281.5 40.5 Z"/>
        <g id="g1">
            <g id="g2">
                <text id="transactions" xml:space="preserve" x="287.150391" y="36" font-family="Helvetica" font-size="12" fill="#000000">transactions</text>
            </g>
        </g>
        <path id="path5" fill="#f5f5f5" stroke="#666666" d="M 591.5 160.5 C 591.5 166.022827 587.022827 170.5 581.5 170.5 C 575.977173 170.5 571.5 166.022827 571.5 160.5 C 571.5 154.977173 575.977173 150.5 581.5 150.5 C 587.022827 150.5 591.5 154.977173 591.5 160.5 Z"/>
        <path id="path6" fill="none" stroke="none" d="M 81.5 135.5 L 121.5 135.5 L 121.5 155.5 L 81.5 155.5 Z"/>
        <g id="g3">
            <g id="g4">
                <text id="Daedal" xml:space="preserve" x="75.485352" y="151" font-family="Helvetica" font-size="12" fill="#000000">Daedal...</text>
            </g>
        </g>
        <path id="path7" fill="none" stroke="none" d="M 301.5 80.5 L 341.5 80.5 L 341.5 100.5 L 301.5 100.5 Z"/>
        <g id="g5">
            <g id="g6">
                <text id="SEND" xml:space="preserve" x="302.330078" y="96" font-family="Helvetica" font-size="12" fill="#000000">SEND</text>
            </g>
        </g>
        <path id="path8" fill="none" stroke="none" d="M 301.5 155.5 L 341.5 155.5 L 341.5 175.5 L 301.5 175.5 Z"/>
        <g id="g7">
            <g id="g8">
                <text id="RECIEVE" xml:space="preserve" x="293.15918" y="171" font-family="Helvetica" font-size="12" fill="#000000">RECIEVE</text>
            </g>
        </g>
        <path id="path9" fill="none" stroke="none" d="M 301.5 230.5 L 341.5 230.5 L 341.5 250.5 L 301.5 250.5 Z"/>
        <g id="g9">
            <g id="g10">
                <text id="DELEGA" xml:space="preserve" x="290.15625" y="246" font-family="Helvetica" font-size="12" fill="#000000">DELEGA...</text>
            </g>
        </g>
        <path id="path10" fill="none" stroke="none" d="M 301.5 310.5 L 341.5 310.5 L 341.5 330.5 L 301.5 330.5 Z"/>
        <g id="g11">
            <g id="g12">
                <text id="VOTE" xml:space="preserve" x="303.164063" y="326" font-family="Helvetica" font-size="12" fill="#000000">VOTE</text>
            </g>
        </g>
        <path id="path11" fill="#ffffff" stroke="#000000" d="M 265.5 400.5 L 377.5 400.5 C 390.754822 400.5 401.5 411.245178 401.5 424.5 L 401.5 756.5 C 401.5 769.754822 390.754822 780.5 377.5 780.5 L 265.5 780.5 C 252.245163 780.5 241.5 769.754822 241.5 756.5 L 241.5 424.5 C 241.5 411.245178 252.245163 400.5 265.5 400.5 Z"/>
        <path id="path12" fill="none" stroke="none" d="M 301.5 445.5 L 341.5 445.5 L 341.5 465.5 L 301.5 465.5 Z"/>
        <g id="g13">
            <g id="g14">
                <text id="MINTING" xml:space="preserve" x="294.169922" y="461" font-family="Helvetica" font-size="12" fill="#000000">MINTING</text>
            </g>
        </g>
        <path id="path13" fill="none" stroke="none" d="M 301.5 520.5 L 341.5 520.5 L 341.5 540.5 L 301.5 540.5 Z"/>
        <g id="g15">
            <g id="g16">
                <text id="BURNING" xml:space="preserve" x="291.332031" y="536" font-family="Helvetica" font-size="12" fill="#000000">BURNING</text>
            </g>
        </g>
        <path id="path14" fill="none" stroke="none" d="M 301.5 595.5 L 341.5 595.5 L 341.5 615.5 L 301.5 615.5 Z"/>
        <g id="g17">
            <g id="g18">
                <text id="POOL" xml:space="preserve" x="297.326172" y="611" font-family="Helvetica" font-size="12" fill="#000000">POOL...</text>
            </g>
        </g>
        <path id="path15" fill="none" stroke="none" d="M 301.5 690.5 L 341.5 690.5 L 341.5 710.5 L 301.5 710.5 Z"/>
        <g id="g19">
            <g id="g20">
                <text id="SMART" xml:space="preserve" x="294.269531" y="706" font-family="Helvetica" font-size="12" fill="#000000">SMART...</text>
            </g>
        </g>
        <path id="path16" fill="#f5f5f5" stroke="#666666" d="M 671.5 270.5 C 671.5 276.022827 667.022827 280.5 661.5 280.5 C 655.977173 280.5 651.5 276.022827 651.5 270.5 C 651.5 264.977173 655.977173 260.5 661.5 260.5 C 667.022827 260.5 671.5 264.977173 671.5 270.5 Z"/>
        <path id="path17" fill="#f5f5f5" stroke="#666666" d="M 771.5 475.5 C 771.5 481.022858 767.022827 485.5 761.5 485.5 C 755.977173 485.5 751.5 481.022858 751.5 475.5 C 751.5 469.977142 755.977173 465.5 761.5 465.5 C 767.022827 465.5 771.5 469.977142 771.5 475.5 Z"/>
        <path id="path18" fill="#f5f5f5" stroke="#666666" d="M 711.5 390.5 C 711.5 396.022858 707.022827 400.5 701.5 400.5 C 695.977173 400.5 691.5 396.022858 691.5 390.5 C 691.5 384.977142 695.977173 380.5 701.5 380.5 C 707.022827 380.5 711.5 384.977142 711.5 390.5 Z"/>
        <path id="path19" fill="#f5f5f5" stroke="#666666" d="M 741.5 160.5 C 741.5 166.022827 737.022827 170.5 731.5 170.5 C 725.977173 170.5 721.5 166.022827 721.5 160.5 C 721.5 154.977173 725.977173 150.5 731.5 150.5 C 737.022827 150.5 741.5 154.977173 741.5 160.5 Z"/>
        <path id="path20" fill="#f5f5f5" stroke="#666666" d="M 641.5 580.5 C 641.5 586.022827 637.022827 590.5 631.5 590.5 C 625.977173 590.5 621.5 586.022827 621.5 580.5 C 621.5 574.977173 625.977173 570.5 631.5 570.5 C 637.022827 570.5 641.5 574.977173 641.5 580.5 Z"/>
        <path id="path21" fill="#f5f5f5" stroke="#666666" d="M 791.5 70.5 C 791.5 76.022827 787.022827 80.5 781.5 80.5 C 775.977173 80.5 771.5 76.022827 771.5 70.5 C 771.5 64.977173 775.977173 60.5 781.5 60.5 C 787.022827 60.5 791.5 64.977173 791.5 70.5 Z"/>
        <path id="path22" fill="none" stroke="none" d="M 549 20.5 L 724 20.5 L 724 40.5 L 549 40.5 Z"/>
        <g id="g21">
            <g id="g22">
                <text id="Blockchain-network" xml:space="preserve" x="582.308594" y="36" font-family="Helvetica" font-size="12" fill="#000000">Blockchain network</text>
            </g>
        </g>
        <path id="path23" fill="none" stroke="none" d="M 61.5 20.5 L 141.5 20.5 L 141.5 40.5 L 61.5 40.5 Z"/>
        <g id="g23">
            <g id="g24">
                <text id="interactions" xml:space="preserve" x="68.317383" y="36" font-family="Helvetica" font-size="12" fill="#000000">interactions</text>
            </g>
        </g>
        <path id="path24" fill="#f5f5f5" stroke="#666666" stroke-linejoin="round" d="M 162 175.5 L 162 165.5 L 212 165.5 L 212 155 L 231 170.5 L 212 186 L 212 175.5 Z"/>
        <path id="path25" fill="#f5f5f5" stroke="#666666" stroke-linejoin="round" d="M 162 525.5 L 162 515.5 L 212 515.5 L 212 505 L 231 520.5 L 212 536 L 212 525.5 Z"/>
        <path id="path26" fill="#f5f5f5" stroke="#666666" stroke-linejoin="round" d="M 231 555.5 L 231 565.5 L 181 565.5 L 181 576 L 162 560.5 L 181 545 L 181 555.5 Z"/>
        <path id="path27" fill="#f5f5f5" stroke="#666666" stroke-linejoin="round" d="M 231 205.5 L 231 215.5 L 181 215.5 L 181 226 L 162 210.5 L 181 195 L 181 205.5 Z"/>
        <path id="path28" fill="#f5f5f5" stroke="#666666" stroke-linejoin="round" d="M 416 175.5 L 416 165.5 L 466 165.5 L 466 155 L 485 170.5 L 466 186 L 466 175.5 Z"/>
        <path id="path29" fill="#f5f5f5" stroke="#666666" stroke-linejoin="round" d="M 485 205.5 L 485 215.5 L 435 215.5 L 435 226 L 416 210.5 L 435 195 L 435 205.5 Z"/>
        <path id="path30" fill="#f5f5f5" stroke="#666666" stroke-linejoin="round" d="M 422 525.5 L 422 515.5 L 472 515.5 L 472 505 L 491 520.5 L 472 536 L 472 525.5 Z"/>
        <path id="path31" fill="#f5f5f5" stroke="#666666" stroke-linejoin="round" d="M 491 555.5 L 491 565.5 L 441 565.5 L 441 576 L 422 560.5 L 441 545 L 441 555.5 Z"/>
        <path id="path32" fill="#f5f5f5" stroke="#666666" d="M 601.5 400.5 C 601.5 406.022858 597.022827 410.5 591.5 410.5 C 585.977173 410.5 581.5 406.022858 581.5 400.5 C 581.5 394.977142 585.977173 390.5 591.5 390.5 C 597.022827 390.5 601.5 394.977142 601.5 400.5 Z"/>
        <path id="path33" fill="#f5f5f5" stroke="#666666" d="M 581.5 290.5 C 581.5 296.022827 577.022827 300.5 571.5 300.5 C 565.977173 300.5 561.5 296.022827 561.5 290.5 C 561.5 284.977173 565.977173 280.5 571.5 280.5 C 577.022827 280.5 581.5 284.977173 581.5 290.5 Z"/>
        <path id="path34" fill="#f5f5f5" stroke="#666666" d="M 791.5 680.5 C 791.5 686.022827 787.022827 690.5 781.5 690.5 C 775.977173 690.5 771.5 686.022827 771.5 680.5 C 771.5 674.977173 775.977173 670.5 781.5 670.5 C 787.022827 670.5 791.5 674.977173 791.5 680.5 Z"/>
        <path id="path35" fill="#f5f5f5" stroke="#666666" d="M 611.5 690.5 C 611.5 696.022827 607.022827 700.5 601.5 700.5 C 595.977173 700.5 591.5 696.022827 591.5 690.5 C 591.5 684.977173 595.977173 680.5 601.5 680.5 C 607.022827 680.5 611.5 684.977173 611.5 690.5 Z"/>
        <path id="path36" fill="none" stroke="#000000" d="M 608.570007 697.570007 L 774.429993 687.570007"/>
        <path id="path37" fill="none" stroke="#000000" d="M 601.5 680.5 L 628.630005 590.080017"/>
        <path id="path38" fill="none" stroke="#000000" d="M 594.700012 410.5 L 631.5 570.5"/>
        <path id="path39" fill="none" stroke="#000000" d="M 635.119995 571.179993 L 701.5 400.5"/>
        <path id="path40" fill="none" stroke="#000000" d="M 654.429993 263.429993 L 581.5 170.5"/>
        <path id="path41" fill="none" stroke="#000000" d="M 589.72998 390.660004 L 573.289978 300.339966"/>
        <path id="path42" fill="none" stroke="#000000" d="M 693.549988 384.440002 L 579.429993 296.599976"/>
        <path id="path43" fill="none" stroke="#000000" d="M 601.460022 399.600006 L 691.539978 391.410004"/>
        <path id="path44" fill="none" stroke="#000000" d="M 651.719971 272.579956 L 581.26001 288.329956"/>
        <path id="path45" fill="#f5f5f5" stroke="#666666" d="M 501.5 340.5 C 501.5 346.022858 497.022858 350.5 491.5 350.5 C 485.977142 350.5 481.5 346.022858 481.5 340.5 C 481.5 334.977142 485.977142 330.5 491.5 330.5 C 497.022858 330.5 501.5 334.977142 501.5 340.5 Z"/>
        <path id="path46" fill="#f5f5f5" stroke="#666666" d="M 651.5 100.5 C 651.5 106.022827 647.022827 110.5 641.5 110.5 C 635.977173 110.5 631.5 106.022827 631.5 100.5 C 631.5 94.977173 635.977173 90.5 641.5 90.5 C 647.022827 90.5 651.5 94.977173 651.5 100.5 Z"/>
        <path id="path47" fill="none" stroke="#000000" d="M 780.530029 670.549988 L 762.469971 485.450012"/>
        <path id="path48" fill="none" stroke="#000000" d="M 755.710022 467.350006 L 707.27002 398.670013"/>
        <path id="path49" fill="none" stroke="#000000" d="M 500.100006 345.600006 L 582.929993 395.359985"/>
        <path id="path50" fill="none" stroke="#000000" d="M 500 335.230011 L 563.02002 295.799988"/>
        <path id="path51" fill="#f5f5f5" stroke="#666666" d="M 541.5 495.5 C 541.5 501.022858 537.022827 505.5 531.5 505.5 C 525.977173 505.5 521.5 501.022858 521.5 495.5 C 521.5 489.977142 525.977173 485.5 531.5 485.5 C 537.022827 485.5 541.5 489.977142 541.5 495.5 Z"/>
        <path id="path52" fill="none" stroke="#000000" d="M 529.030029 485.809998 L 494 350.179993"/>
        <path id="path53" fill="none" stroke="#000000" d="M 539.130005 501.970001 L 623.880005 574.02002"/>
        <path id="path54" fill="none" stroke="#000000" d="M 639.820007 586.049988 L 773.179993 674.950012"/>
        <path id="path55" fill="none" stroke="#000000" d="M 639.299988 574.23999 L 753.719971 481.779999"/>
        <path id="path56" fill="none" stroke="#000000" d="M 572.25 280.530029 L 580.72998 170.469971"/>
        <path id="path57" fill="none" stroke="#000000" d="M 666.849976 262.049988 L 726.130005 168.940002"/>
        <path id="path58" fill="none" stroke="#000000" d="M 768.570007 468.429993 L 732.700012 170.429993"/>
        <path id="path59" fill="none" stroke="#000000" d="M 591.5 160.5 L 721.5 160.5"/>
        <path id="path60" fill="#f5f5f5" stroke="#666666" d="M 521.5 90.5 C 521.5 96.022827 517.022827 100.5 511.5 100.5 C 505.977142 100.5 501.5 96.022827 501.5 90.5 C 501.5 84.977173 505.977142 80.5 511.5 80.5 C 517.022827 80.5 521.5 84.977173 521.5 90.5 Z"/>
        <path id="path61" fill="none" stroke="#000000" d="M 568.630005 280.920044 L 514.369995 100.080017"/>
        <path id="path62" fill="none" stroke="#000000" d="M 776.640015 79.23999 L 736.359985 151.76001"/>
        <path id="path63" fill="none" stroke="#000000" d="M 649.820007 106.049988 L 723.179993 154.950012"/>
        <path id="path64" fill="none" stroke="#000000" d="M 588.570007 153.429993 L 634.429993 107.570007"/>
        <path id="path65" fill="none" stroke="#000000" d="M 664.609985 280 L 698.340027 381.01001"/>
        <path id="path66" fill="none" stroke="#000000" d="M 518.570007 97.570007 L 574.429993 153.429993"/>
        <path id="path67" fill="none" stroke="none" d="M 71.5 260.5 L 111.5 260.5 L 111.5 280.5 L 71.5 280.5 Z"/>
        <g id="g25">
            <g id="g26">
                <text id="Yoroi" xml:space="preserve" x="76.043945" y="276" font-family="Helvetica" font-size="12" fill="#000000">Yoroi</text>
            </g>
        </g>
        <path id="path68" fill="none" stroke="#000000" stroke-dasharray="3 3" stroke-dashoffset="0" d="M 0.5 390.5 L 443.420013 387.540009"/>
        <path id="path69" fill="none" stroke="none" d="M 81.5 540.5 L 121.5 540.5 L 121.5 560.5 L 81.5 560.5 Z"/>
        <g id="g27">
            <g id="g28">
                <text id="Cardan" xml:space="preserve" x="74.320313" y="556" font-family="Helvetica" font-size="12" fill="#000000">Cardan...</text>
            </g>
        </g>
    </g>
</svg>
