<?xml version="1.0" encoding="UTF-8"?>
<svg id="Layer_1" data-name="Layer 1" xmlns="http://www.w3.org/2000/svg" viewBox="0 0 1036 1036" width="259" height="259">
  <defs>
    <style>
      .cls-1 {
        fill: #000;
        stroke: white;
        stroke-width: 4px;
      }
      @media (prefers-color-scheme: dark) {
        .cls-1 {
          fill: white;
          stroke: black;
          stroke-width: 4px;
        }
      }
    </style>
  </defs>
  <path
    class="cls-1"
    d="M518,587.45s-75.08,175.46-215.16,254.5c59.17,64.54,130.09,128.1,215.16,188.05,85.06-59.95,155.98-123.51,215.17-188.05-140.09-79.04-215.17-254.5-215.17-254.5Z" />
  <path
    class="cls-1"
    d="M518,196.21h0c-68.12,147.36-256.52,250.74-435.87,298.2,32.3,79.99,78.34,166.78,143.53,254.13l43.08-126.61c98.73-58.83,204.42-123.81,249.26-220.83.02,0-.02,0,0,0,44.84,97.02,150.52,162,249.27,220.83l43.07,126.61c65.19-87.35,111.23-174.14,143.53-254.13-179.36-47.45-367.75-150.84-435.87-298.2Z" />
  <path
    class="cls-1"
    d="M1029.73,122.15S799.51,6,518.01,6v.02l-.03-.02C236.48,6,6.27,122.15,6.27,122.15c0,0-6.39,117.01,43.37,280.58l83.81-132.09c154.53-44.49,309.28-109.06,384.54-225.77h0c75.27,116.71,230.01,181.28,384.54,225.77l83.82,132.09c49.77-163.57,43.37-280.58,43.37-280.58Z" />
</svg>
