<svg width="333" height="333" viewBox="0 0 333 333" fill="none" xmlns="http://www.w3.org/2000/svg">
<g clip-path="url(#clip0_301_2)" filter="url(#filter0_d_301_2)">
<path d="M0 162.5V325H162.5H325V162.5V0H162.5H0V162.5Z" fill="#007ACC"/>
<path d="M167.206 215.833C166.913 221.18 168.75 226.426 172.315 230.422C175.881 234.417 180.884 236.838 186.23 237.154C186.622 237.154 187.03 237.154 187.398 237.154C191.346 237.151 195.208 235.991 198.505 233.818C201.802 231.644 204.39 228.553 205.949 224.925C207.508 221.297 207.97 217.292 207.278 213.404C206.586 209.516 204.77 205.916 202.055 203.049C199.34 200.182 195.844 198.174 192 197.272C188.155 196.369 184.131 196.613 180.424 197.973C176.716 199.333 173.489 201.75 171.14 204.924C168.791 208.098 167.423 211.89 167.206 215.833V215.833Z" fill="white"/>
<path d="M91.8935 210.633C90.6046 210.561 89.3232 210.872 88.2113 211.528C87.0995 212.184 86.207 213.155 85.6468 214.318C85.0865 215.481 84.8837 216.784 85.0639 218.062C85.2441 219.341 85.7993 220.537 86.6592 221.5C87.5192 222.462 88.6452 223.149 89.8951 223.472C91.145 223.795 92.4625 223.74 93.6812 223.314C94.8999 222.888 95.965 222.11 96.7418 221.079C97.5186 220.048 97.9723 218.81 98.0455 217.521C98.0952 216.665 97.9754 215.807 97.6929 214.997C97.4104 214.187 96.9708 213.44 96.3993 212.8C95.8278 212.16 95.1356 211.64 94.3624 211.268C93.5892 210.896 92.7502 210.68 91.8935 210.633Z" fill="white"/>
<path d="M165.926 98.5763C167.074 97.9913 168.024 97.0793 168.656 95.9552C169.287 94.8311 169.571 93.5453 169.472 92.2599C169.374 90.9745 168.897 89.747 168.102 88.7323C167.307 87.7176 166.229 86.961 165.004 86.558C163.78 86.155 162.463 86.1236 161.221 86.4678C159.978 86.812 158.866 87.5163 158.023 88.492C157.18 89.4676 156.646 90.671 156.486 91.9502C156.326 93.2295 156.549 94.5273 157.126 95.6802C157.513 96.4488 158.047 97.1336 158.699 97.6953C159.351 98.2569 160.108 98.6845 160.925 98.9535C161.742 99.2225 162.605 99.3276 163.463 99.2629C164.321 99.1982 165.158 98.9649 165.926 98.5763Z" fill="white"/>
<path d="M186.422 134.313C188.203 133.414 189.678 132.008 190.661 130.272C191.643 128.536 192.088 126.547 191.941 124.558C191.793 122.568 191.059 120.667 189.831 119.095C188.603 117.523 186.936 116.35 185.042 115.725C183.147 115.099 181.11 115.05 179.187 115.583C177.265 116.115 175.543 117.206 174.24 118.717C172.938 120.227 172.112 122.091 171.868 124.071C171.624 126.051 171.973 128.059 172.87 129.841C174.075 132.23 176.179 134.043 178.72 134.881C181.261 135.72 184.031 135.515 186.422 134.313V134.313Z" fill="white"/>
<path d="M117.462 158.889C118.837 159.79 120.448 160.263 122.092 160.248C123.737 160.233 125.339 159.731 126.698 158.805C128.057 157.879 129.11 156.571 129.725 155.046C130.34 153.521 130.489 151.848 130.154 150.239C129.818 148.629 129.012 147.155 127.839 146.004C126.665 144.852 125.177 144.074 123.561 143.769C121.946 143.463 120.276 143.644 118.763 144.287C117.25 144.931 115.962 146.009 115.062 147.385C113.855 149.229 113.43 151.476 113.88 153.634C114.33 155.791 115.618 157.681 117.462 158.889V158.889Z" fill="white"/>
<path d="M129.742 207.033C127.748 206.919 125.765 207.399 124.044 208.412C122.323 209.426 120.941 210.926 120.073 212.725C119.205 214.524 118.89 216.54 119.168 218.517C119.446 220.495 120.304 222.346 121.634 223.836C122.963 225.326 124.705 226.388 126.639 226.888C128.572 227.388 130.611 227.303 132.496 226.644C134.381 225.985 136.029 224.782 137.23 223.187C138.432 221.591 139.133 219.675 139.246 217.681C139.396 215.009 138.48 212.387 136.698 210.39C134.916 208.393 132.414 207.186 129.742 207.033V207.033Z" fill="white"/>
<path d="M118.598 274.81C117.129 275.549 115.913 276.708 115.103 278.139C114.293 279.57 113.926 281.209 114.047 282.848C114.169 284.488 114.774 286.055 115.786 287.35C116.798 288.646 118.172 289.613 119.733 290.128C121.295 290.642 122.974 290.683 124.558 290.243C126.143 289.804 127.561 288.904 128.634 287.658C129.707 286.413 130.387 284.877 130.587 283.245C130.787 281.613 130.498 279.958 129.758 278.49C129.268 277.514 128.59 276.645 127.764 275.932C126.937 275.218 125.978 274.675 124.941 274.333C123.905 273.991 122.811 273.858 121.722 273.939C120.633 274.021 119.572 274.317 118.598 274.81V274.81Z" fill="white"/>
<path d="M157.798 186.145C159.761 187.433 162.062 188.109 164.41 188.089C166.758 188.069 169.047 187.353 170.988 186.032C172.929 184.711 174.435 182.844 175.315 180.667C176.195 178.49 176.409 176.101 175.932 173.802C175.454 171.503 174.306 169.398 172.631 167.751C170.957 166.105 168.832 164.993 166.525 164.554C164.219 164.116 161.834 164.371 159.672 165.288C157.511 166.205 155.67 167.742 154.382 169.705C153.525 171.008 152.934 172.468 152.642 174C152.351 175.532 152.364 177.106 152.681 178.633C152.998 180.16 153.614 181.61 154.491 182.899C155.369 184.188 156.493 185.291 157.798 186.145Z" fill="white"/>
<path d="M282.174 133.513C283.843 134.608 285.8 135.184 287.797 135.168C289.794 135.151 291.741 134.542 293.392 133.419C295.044 132.296 296.324 130.708 297.073 128.856C297.822 127.005 298.004 124.973 297.598 123.018C297.192 121.063 296.215 119.272 294.791 117.872C293.366 116.472 291.559 115.526 289.597 115.153C287.635 114.78 285.607 114.998 283.769 115.778C281.93 116.558 280.365 117.866 279.27 119.536C278.542 120.645 278.04 121.885 277.792 123.188C277.544 124.49 277.555 125.828 277.825 127.126C278.095 128.424 278.618 129.657 279.364 130.752C280.11 131.848 281.065 132.786 282.174 133.513Z" fill="white"/>
<path d="M302.878 97.8883C303.958 98.595 305.223 98.9658 306.513 98.9539C307.804 98.9419 309.062 98.5477 310.128 97.821C311.195 97.0944 312.022 96.0679 312.505 94.8713C312.989 93.6747 313.107 92.3616 312.844 91.098C312.582 89.8345 311.95 88.6771 311.03 87.7721C310.11 86.8671 308.943 86.2551 307.675 86.0135C306.407 85.7718 305.096 85.9114 303.908 86.4145C302.719 86.9176 301.707 87.7617 300.998 88.8402C300.526 89.5574 300.201 90.3607 300.04 91.2039C299.879 92.0471 299.887 92.9137 300.061 93.7541C300.236 94.5946 300.574 95.3923 301.058 96.1017C301.541 96.8111 302.16 97.4182 302.878 97.8883V97.8883Z" fill="white"/>
<path d="M283.758 196.561C281.109 196.41 278.457 196.783 275.952 197.657C273.448 198.531 271.14 199.89 269.161 201.657C267.181 203.423 265.569 205.561 264.416 207.951C263.263 210.34 262.593 212.933 262.442 215.581C262.291 218.23 262.663 220.882 263.538 223.387C264.412 225.891 265.771 228.199 267.537 230.179C269.303 232.158 271.442 233.77 273.831 234.923C276.22 236.076 278.813 236.747 281.462 236.898C281.854 236.898 282.262 236.898 282.622 236.898C287.881 236.897 292.932 234.846 296.703 231.18C300.473 227.514 302.665 222.522 302.813 217.266C302.961 212.009 301.053 206.901 297.495 203.029C293.937 199.157 289.008 196.825 283.758 196.529V196.561Z" fill="white"/>
<path d="M193.062 184.745C194.739 188.09 197.318 190.901 200.506 192.86C203.695 194.819 207.367 195.849 211.11 195.833C214.558 195.832 217.95 194.949 220.96 193.266C223.971 191.584 226.5 189.158 228.308 186.221C230.116 183.284 231.142 179.933 231.287 176.488C231.433 173.042 230.695 169.616 229.142 166.537C226.73 161.752 222.517 158.122 217.429 156.444C212.341 154.765 206.794 155.177 202.01 157.589C197.225 160 193.595 164.213 191.916 169.302C190.238 174.39 190.65 179.937 193.062 184.721V184.745Z" fill="white"/>
<path d="M300.198 165.297C298.102 166.354 296.366 168.009 295.211 170.052C294.055 172.096 293.531 174.436 293.705 176.777C293.879 179.118 294.743 181.355 296.189 183.205C297.634 185.055 299.595 186.435 301.824 187.171C304.053 187.907 306.451 187.965 308.713 187.338C310.976 186.712 313.001 185.428 314.535 183.651C316.068 181.873 317.04 179.681 317.327 177.351C317.615 175.021 317.205 172.658 316.15 170.561C314.731 167.749 312.254 165.616 309.263 164.629C306.272 163.642 303.012 163.882 300.198 165.297V165.297Z" fill="white"/>
<path d="M234.238 94.8402C235.878 94.9321 237.508 94.5361 238.923 93.7022C240.338 92.8682 241.474 91.6338 242.188 90.1547C242.902 88.6756 243.162 87.0181 242.935 85.3915C242.708 83.7648 242.004 82.242 240.912 81.0151C239.82 79.7882 238.389 78.9123 236.8 78.4979C235.21 78.0836 233.534 78.1494 231.982 78.687C230.43 79.2246 229.072 80.2099 228.08 81.5186C227.087 82.8273 226.505 84.4007 226.406 86.0401C226.339 87.133 226.488 88.2283 226.846 89.2631C227.204 90.2978 227.763 91.2516 228.491 92.0695C229.219 92.8874 230.101 93.5532 231.088 94.0287C232.074 94.5043 233.145 94.78 234.238 94.8402V94.8402Z" fill="white"/>
<path d="M234.142 147.137C236.485 147.266 238.815 146.697 240.835 145.503C242.856 144.309 244.477 142.542 245.494 140.427C246.511 138.311 246.878 135.942 246.549 133.618C246.22 131.294 245.21 129.12 243.645 127.37C242.081 125.62 240.033 124.373 237.76 123.787C235.488 123.2 233.092 123.301 230.876 124.076C228.661 124.85 226.724 126.264 225.312 128.139C223.9 130.014 223.075 132.265 222.942 134.609C222.853 136.167 223.073 137.727 223.588 139.201C224.103 140.674 224.904 142.032 225.944 143.195C226.984 144.359 228.244 145.306 229.65 145.982C231.057 146.659 232.583 147.051 234.142 147.137V147.137Z" fill="white"/>
<path d="M169.798 268.378C171.895 267.322 173.631 265.667 174.788 263.624C175.945 261.581 176.47 259.24 176.297 256.899C176.124 254.557 175.26 252.319 173.815 250.469C172.37 248.618 170.409 247.237 168.179 246.501C165.95 245.765 163.552 245.706 161.289 246.333C159.026 246.96 157 248.243 155.467 250.021C153.933 251.8 152.961 253.993 152.674 256.323C152.387 258.653 152.798 261.017 153.854 263.114C155.271 265.925 157.747 268.058 160.736 269.045C163.726 270.032 166.985 269.792 169.798 268.378V268.378Z" fill="white"/>
<path d="M241.798 164.465C239.34 168.221 238.205 172.689 238.572 177.162C238.938 181.636 240.787 185.859 243.823 189.164C246.86 192.469 250.912 194.667 255.339 195.411C259.765 196.154 264.313 195.4 268.263 193.268C272.213 191.136 275.339 187.748 277.147 183.64C278.955 179.532 279.341 174.938 278.245 170.585C277.149 166.233 274.633 162.37 271.094 159.608C267.556 156.846 263.198 155.343 258.71 155.337C255.355 155.336 252.053 156.17 249.1 157.764C246.148 159.357 243.638 161.66 241.798 164.465Z" fill="white"/>
<path d="M276.934 248.93C275.136 245.359 272.32 242.402 268.841 240.432C265.362 238.463 261.377 237.569 257.391 237.864C253.404 238.16 249.595 239.631 246.444 242.092C243.294 244.553 240.944 247.893 239.693 251.69C238.441 255.486 238.343 259.569 239.412 263.421C240.481 267.273 242.669 270.722 245.698 273.33C248.727 275.939 252.462 277.59 256.43 278.076C260.398 278.561 264.421 277.859 267.99 276.058C270.369 274.875 272.489 273.232 274.229 271.224C275.968 269.216 277.292 266.884 278.124 264.361C278.956 261.838 279.279 259.175 279.075 256.526C278.87 253.877 278.143 251.295 276.934 248.93V248.93Z" fill="white"/>
<path d="M312.198 247.53C310.234 246.242 307.933 245.566 305.585 245.586C303.237 245.606 300.948 246.322 299.007 247.643C297.066 248.964 295.561 250.831 294.681 253.008C293.801 255.185 293.586 257.574 294.064 259.873C294.541 262.172 295.69 264.277 297.364 265.923C299.039 267.569 301.163 268.682 303.47 269.121C305.777 269.559 308.162 269.304 310.323 268.387C312.485 267.47 314.326 265.933 315.614 263.97C316.469 262.666 317.059 261.207 317.35 259.675C317.642 258.143 317.628 256.569 317.311 255.042C316.994 253.515 316.379 252.066 315.502 250.777C314.624 249.488 313.502 248.385 312.198 247.53V247.53Z" fill="white"/>
<path d="M228.198 269.202C230.661 265.442 231.801 260.968 231.436 256.488C231.07 252.008 229.221 247.778 226.181 244.467C223.141 241.156 219.084 238.954 214.651 238.209C210.218 237.464 205.664 238.219 201.708 240.353C197.753 242.488 194.622 245.882 192.812 249.996C191.002 254.111 190.616 258.711 191.716 263.07C192.815 267.428 195.336 271.295 198.881 274.059C202.426 276.823 206.791 278.326 211.286 278.33C214.643 278.343 217.95 277.515 220.905 275.92C223.859 274.326 226.367 272.016 228.198 269.202V269.202Z" fill="white"/>
<path d="M187.822 300.162C186.152 299.066 184.195 298.49 182.198 298.507C180.201 298.524 178.254 299.132 176.603 300.256C174.952 301.379 173.671 302.967 172.922 304.818C172.174 306.67 171.991 308.702 172.397 310.657C172.804 312.612 173.781 314.403 175.205 315.803C176.629 317.203 178.436 318.149 180.398 318.522C182.36 318.894 184.389 318.677 186.227 317.896C188.065 317.116 189.631 315.808 190.726 314.138C192.193 311.9 192.712 309.17 192.167 306.549C191.623 303.928 190.06 301.631 187.822 300.162V300.162Z" fill="white"/>
<path d="M234.99 286.53C232.646 286.401 230.318 286.969 228.297 288.163C226.277 289.357 224.656 291.123 223.638 293.238C222.621 295.353 222.254 297.722 222.582 300.046C222.911 302.37 223.921 304.544 225.484 306.294C227.048 308.044 229.095 309.291 231.367 309.879C233.639 310.466 236.034 310.366 238.25 309.593C240.466 308.819 242.402 307.407 243.816 305.533C245.229 303.659 246.055 301.409 246.19 299.066C246.278 297.507 246.059 295.946 245.544 294.473C245.029 292.999 244.228 291.641 243.188 290.476C242.148 289.312 240.888 288.364 239.482 287.687C238.075 287.01 236.549 286.617 234.99 286.53V286.53Z" fill="white"/>
<path d="M283.566 299.354C281.788 300.258 280.318 301.668 279.341 303.407C278.363 305.146 277.923 307.135 278.075 309.124C278.227 311.112 278.965 313.011 280.195 314.581C281.426 316.151 283.093 317.321 284.988 317.944C286.883 318.567 288.92 318.615 290.841 318.082C292.763 317.549 294.484 316.458 295.787 314.948C297.09 313.437 297.916 311.575 298.161 309.596C298.407 307.617 298.06 305.609 297.166 303.826C296.569 302.637 295.743 301.577 294.736 300.708C293.729 299.84 292.559 299.178 291.296 298.763C290.032 298.347 288.698 298.185 287.372 298.287C286.045 298.388 284.752 298.751 283.566 299.354V299.354Z" fill="white"/>
</g>
<defs>
<filter id="filter0_d_301_2" x="0" y="0" width="333" height="333" filterUnits="userSpaceOnUse" color-interpolation-filters="sRGB">
<feFlood flood-opacity="0" result="BackgroundImageFix"/>
<feColorMatrix in="SourceAlpha" type="matrix" values="0 0 0 0 0 0 0 0 0 0 0 0 0 0 0 0 0 0 127 0" result="hardAlpha"/>
<feOffset dx="4" dy="4"/>
<feGaussianBlur stdDeviation="2"/>
<feComposite in2="hardAlpha" operator="out"/>
<feColorMatrix type="matrix" values="0 0 0 0 0 0 0 0 0 0 0 0 0 0 0 0 0 0 0.25 0"/>
<feBlend mode="normal" in2="BackgroundImageFix" result="effect1_dropShadow_301_2"/>
<feBlend mode="normal" in="SourceGraphic" in2="effect1_dropShadow_301_2" result="shape"/>
</filter>
<clipPath id="clip0_301_2">
<rect width="325" height="325" fill="white"/>
</clipPath>
</defs>
</svg>
