<svg width="30" height="30" viewBox="0 0 30 30" fill="none" xmlns="http://www.w3.org/2000/svg">
<g>
<path d="M7.15516 9.52168C7.95507 9.52168 8.60353 8.87322 8.60353 8.07331C8.60353 7.2734 7.95507 6.62494 7.15516 6.62494C6.35524 6.62494 5.70679 7.2734 5.70679 8.07331C5.70679 8.87322 6.35524 9.52168 7.15516 9.52168Z" fill="#004FFE" stroke="#004FFE" stroke-width="2" stroke-miterlimit="10"/>
<path d="M25.0012 8.87318C25.0012 8.98364 24.9117 9.07318 24.8012 9.07318H11.6583C11.5478 9.07318 11.4583 8.98364 11.4583 8.87318V7.27318C11.4583 7.16272 11.5478 7.07318 11.6583 7.07318H24.8012C24.9117 7.07318 25.0012 7.16272 25.0012 7.27318V8.87318Z" fill="#004FFE"/>
<path d="M7.15516 16.171C7.95507 16.171 8.60353 15.5226 8.60353 14.7227C8.60353 13.9227 7.95507 13.2743 7.15516 13.2743C6.35524 13.2743 5.70679 13.9227 5.70679 14.7227C5.70679 15.5226 6.35524 16.171 7.15516 16.171Z" fill="#FFB122" stroke="#FFB122" stroke-width="2" stroke-miterlimit="10"/>
<path d="M25.0012 15.5225C25.0012 15.633 24.9117 15.7225 24.8012 15.7225H11.6583C11.5478 15.7225 11.4583 15.633 11.4583 15.5225V13.9225C11.4583 13.8121 11.5478 13.7225 11.6583 13.7225H24.8012C24.9117 13.7225 25.0012 13.8121 25.0012 13.9225V15.5225Z" fill="#004FFE"/>
<path d="M7.15516 22.8251C7.95507 22.8251 8.60353 22.1766 8.60353 21.3767C8.60353 20.5768 7.95507 19.9283 7.15516 19.9283C6.35524 19.9283 5.70679 20.5768 5.70679 21.3767C5.70679 22.1766 6.35524 22.8251 7.15516 22.8251Z" fill="#004FFE" stroke="#004FFE" stroke-width="2" stroke-miterlimit="10"/>
<path d="M25.0012 22.1766C25.0012 22.287 24.9117 22.3766 24.8012 22.3766H11.6583C11.5478 22.3766 11.4583 22.287 11.4583 22.1766V20.5766C11.4583 20.4661 11.5478 20.3766 11.6583 20.3766H24.8012C24.9117 20.3766 25.0012 20.4661 25.0012 20.5766V22.1766Z" fill="#004FFE"/>
</g>
</svg>
