<svg id="Blue" xmlns="http://www.w3.org/2000/svg" xmlns:xlink="http://www.w3.org/1999/xlink" viewBox="0 0 681.31 750.09"><defs><style>.cls-1{fill:#0080c7;}.cls-2{fill:url(#linear-gradient);}</style><linearGradient id="linear-gradient" x1="219.48" y1="396" x2="779.6" y2="396" gradientUnits="userSpaceOnUse"><stop offset="0.01" stop-color="#00487d"/><stop offset="0.1" stop-color="#005892"/><stop offset="0.23" stop-color="#006fb0"/><stop offset="0.27" stop-color="#0074b6"/><stop offset="0.39" stop-color="#007dc3"/><stop offset="0.5" stop-color="#0080c7"/><stop offset="0.61" stop-color="#0079be"/><stop offset="0.78" stop-color="#0067a6"/><stop offset="0.99" stop-color="#00497e"/><stop offset="1" stop-color="#00487d"/></linearGradient></defs><g id="Light_Blue" data-name="Light Blue"><path class="cls-1" d="M270.05,829H206.51L190,872H157.9l66.28-167h28l66.27,167H286.58Zm-32-83q-8.67,25.9-15.45,43.31L216.94,804h42.68L254,789.31q-6.72-17.56-15.45-43.31Z" transform="translate(-157.9 -125)"/><path class="cls-1" d="M343,872V705h44.18q5.86,0,11.92.37t11.8,1.13q5.73.75,11.11,1.81a81.57,81.57,0,0,1,9.86,2.56,85.28,85.28,0,0,1,23.59,11.48,70.75,70.75,0,0,1,17.16,17.1,74.15,74.15,0,0,1,10.48,22,93.77,93.77,0,0,1,3.56,26.4,102.24,102.24,0,0,1-3,25.27,74.54,74.54,0,0,1-9.11,21.53,68.32,68.32,0,0,1-15.41,17.16,79.37,79.37,0,0,1-22,12.17A116.54,116.54,0,0,1,413,870a208.55,208.55,0,0,1-30.33,2Zm42.62-25q26.88,0,42-7.37a45.44,45.44,0,0,0,20.25-19.25q6.87-12.63,6.87-32.26a70.27,70.27,0,0,0-2.25-18.49,50.59,50.59,0,0,0-6.5-14.69,44.88,44.88,0,0,0-10.31-11.06A56.58,56.58,0,0,0,422,736.25a72.46,72.46,0,0,0-15.88-4A140,140,0,0,0,386.5,731H373V847Z" transform="translate(-157.9 -125)"/><path class="cls-1" d="M614.5,829H551l-16.53,43H502.35l66.27-167h28l66.28,167H631Zm-32-83q-8.65,25.9-15.45,43.31L561.39,804h42.68l-5.65-14.69Q591.72,771.75,583,746Z" transform="translate(-157.9 -125)"/><path class="cls-1" d="M839.22,788.77a107.37,107.37,0,0,1-5.42,34.89A77.07,77.07,0,0,1,818,851a71,71,0,0,1-25.5,17.79q-15.1,6.35-34.39,6.34t-34.39-6.34A71,71,0,0,1,698.23,851a77.24,77.24,0,0,1-15.8-27.3,115.21,115.21,0,0,1,0-69.78,77.24,77.24,0,0,1,15.8-27.3,70.81,70.81,0,0,1,25.5-17.78q15.1-6.34,34.39-6.35t34.39,6.35A70.89,70.89,0,0,1,818,726.58a77.07,77.07,0,0,1,15.79,27.3A107.42,107.42,0,0,1,839.22,788.77Zm-31.47,0q0-15.16-3.73-26.55a54.3,54.3,0,0,0-10.33-19A41.34,41.34,0,0,0,778,731.93a54.95,54.95,0,0,0-39.8,0,41.34,41.34,0,0,0-15.67,11.32,54.3,54.3,0,0,0-10.33,19q-3.72,11.37-3.73,26.55t3.73,26.56a53.6,53.6,0,0,0,10.33,18.9,42.21,42.21,0,0,0,15.67,11.32,54.14,54.14,0,0,0,39.8,0,42.21,42.21,0,0,0,15.67-11.32A53.6,53.6,0,0,0,804,815.33Q807.74,803.95,807.75,788.77Z" transform="translate(-157.9 -125)"/></g><path id="A_-_Grad" data-name="A - Grad" class="cls-2" d="M702.84,494l68-53H677.36L537.21,125h-76L321.72,441H231.17l65.07,53L219.48,667h89.2l71-171H619.4l71,171H779.6ZM498.65,205.25,556.05,345H442.23ZM396.83,443l20.68-49H580.8l19.66,49Z" transform="translate(-157.9 -125)"/></svg>