<svg width="1535" height="320" viewBox="0 0 1535 320" xmlns="http://www.w3.org/2000/svg"><path fill="#bdddf4" d="M120 0H70L0 90H90"></path><path fill="#5dadec" d="M320 90 250 0H200l30 90m-70 230-60-220H220"></path><path fill="#1f77b4" d="M230 100h90L170 320"></path><path fill="#8ccaf7" d="M90 100H0L150 320M130 0 100 90H220L190 0"></path><path fill="#fff" d="M948 195c23 16 76 25 80 1 2-9-15-15-31-18-25-6-59-14-59-49 8-72 109-52 126-34l-13 30c-9-9-71-30-71 3 0 9 19 13 31 16 44 9 66 27 55 65-10 33-78 47-131 15m-352 16-41 0-15-33-70 0-15 33-42 0 75-160 33 0m423 160-41 0-14-33-71 0-14 33-43 0 75-160 33 0m543 160-42 0-14-33-71 0-14 33-42 0 75-160 33 0m-153 160-43 0 0-126-48 0 0-34 138 0 0 34-47 0m316 126-43 0 0-126-47 0 0-34 138 0 0 34-48 0m-895 126 0-160 68 0c38 0 82 19 82 80 0 62-44 80-82 80m-26-33 21 0c33 0 46-17 46-46 0-29-13-46-46-46l-21 0m-142 11-22 51 44 0m326-51-22 51 44 0m446-51-22 51 44 0"></path></svg>