<svg xmlns="http://www.w3.org/2000/svg" viewBox="0 0 187.24 230.31"><defs><style>.cls-1{fill:#50d1b3;}.cls-2{fill:#1b9ee5;}</style></defs><g id="Layer_2" data-name="Layer 2"><g id="Design"><path class="cls-1" d="M84.13,77c-31,0-65,18.83-77,44C2.56,110.47,0,98.22,0,84.19,0,41.93,37.35,0,83.66,0h63.88c21.93,0,39.7,17.24,39.7,38.5S169.47,77,147.54,77Z"/><path class="cls-2" d="M79.64,190.62c0,21.92-17.24,39.69-38.5,39.69S2.63,212.54,2.63,190.62V174.24c0-46.31,41.93-83.57,84.19-83.57H136.9l-34.5,21.64a48.66,48.66,0,0,0-22.81,41.38c0,9.3,0,18.33,0,22.11Z"/></g></g></svg>