<svg width="1403" height="265" viewBox="0 0 1403 265" fill="none" xmlns="http://www.w3.org/2000/svg">
<path d="M92.2484 0C83.0964 0 76.0201 2.26828 70.6107 5.85904C65.2206 9.43697 61.6983 14.1857 59.4057 18.8312C57.2223 23.2553 56.1256 27.6398 55.5703 30.9857C34.6578 31.807 17.9479 49.0279 17.9479 70.1413C17.9479 80.5194 21.9853 89.9571 28.5746 96.9689C12.4076 100.731 0.390625 115.208 0.390625 132.533C0.390625 149.811 12.3423 164.256 28.4429 168.066C21.9574 175.058 17.9917 184.42 17.9917 194.705C17.9917 215.819 34.7016 233.04 55.6141 233.861C56.1694 237.207 57.2662 241.591 59.4495 246.015C61.7421 250.661 65.2644 255.41 70.6545 258.987C76.0639 262.578 83.1402 264.846 92.2922 264.846C101.397 264.846 108.475 262.747 113.931 259.423C119.379 256.104 123.016 251.683 125.43 247.322C127.834 242.98 129.041 238.673 129.652 235.476C129.959 233.871 130.119 232.524 130.203 231.563C130.245 231.082 130.268 230.696 130.281 230.421C130.287 230.284 130.291 230.174 130.293 230.093C130.294 230.053 130.295 230.02 130.295 229.994L130.296 229.941L130.296 200.66H153.502C157.6 200.66 160.901 203.986 160.901 208.059V230.296C153.66 231.914 148.248 238.378 148.248 246.107C148.248 255.054 155.501 262.307 164.447 262.307C173.394 262.307 180.647 255.054 180.647 246.107C180.647 238.347 175.191 231.861 167.906 230.277V208.059C167.906 200.136 161.487 193.654 153.502 193.654H125.811L125.787 193.654L125.711 193.654H123.291V193.745C117.75 194.152 111.999 195.986 107.421 200.315C102.105 205.341 98.9035 213.224 98.9035 224.522C98.9035 226.456 100.472 228.024 102.406 228.024C104.341 228.024 105.909 226.456 105.909 224.522C105.909 214.541 108.706 208.741 112.234 205.405C115.22 202.581 119.109 201.163 123.291 200.773V229.877L123.291 229.878L123.29 229.902C123.289 229.94 123.287 230.007 123.283 230.099C123.274 230.285 123.257 230.574 123.224 230.953C123.158 231.711 123.027 232.821 122.771 234.162C122.256 236.859 121.249 240.412 119.302 243.929C117.365 247.427 114.514 250.865 110.287 253.441C106.068 256.011 100.285 257.841 92.2922 257.841C84.3466 257.841 78.6546 255.89 74.5288 253.151C70.3836 250.399 67.6038 246.709 65.7315 242.915C63.8516 239.106 62.9187 235.253 62.4619 232.322C62.2348 230.865 62.1288 229.658 62.0796 228.83C62.055 228.416 62.0447 228.098 62.0404 227.893C62.0383 227.79 62.0377 227.716 62.0375 227.672L62.0375 227.643L62.0375 227.628V227.627L62.0376 227.624L62.0378 227.609V227.587C62.0378 191.303 89.93 166.596 117.774 166.596H196.979C200.415 166.596 203.205 169.288 203.364 172.684C195.929 174.153 190.323 180.71 190.323 188.576C190.323 197.523 197.576 204.776 206.523 204.776C215.47 204.776 222.723 197.523 222.723 188.576C222.723 180.956 217.463 174.565 210.375 172.837C210.294 165.499 204.335 159.591 196.979 159.591H117.774C86.1029 159.591 55.4298 187.24 55.0362 226.816C38.266 225.713 24.997 211.754 24.997 194.705C24.997 176.937 39.4098 162.524 57.1779 162.524C58.2767 162.524 59.3226 162.565 60.3376 162.678C62.2602 162.892 63.992 161.506 64.2056 159.584C64.4193 157.661 63.0338 155.929 61.1112 155.716C59.7619 155.566 58.4434 155.519 57.1779 155.519C49.1926 155.519 41.764 157.909 35.5689 162.013C19.8687 161.316 7.39599 148.408 7.39599 132.533C7.39599 116.566 20.0138 103.599 35.8425 103.041C41.9733 107.018 49.2847 109.328 57.1341 109.328C58.3996 109.328 59.7181 109.281 61.0674 109.131C62.99 108.917 64.3754 107.186 64.1618 105.263C63.9482 103.34 62.2164 101.955 60.2937 102.168C59.2787 102.281 58.2329 102.322 57.1341 102.322C39.366 102.322 24.9532 87.9094 24.9532 70.1413C24.9532 53.0928 38.2221 39.1334 54.9924 38.0306C55.3859 77.6066 86.059 105.256 117.73 105.256H196.978C204.324 105.256 210.276 99.3648 210.375 92.0431C217.44 90.2991 222.68 83.9187 222.68 76.3146C222.68 67.3676 215.427 60.1147 206.48 60.1147C197.533 60.1147 190.28 67.3676 190.28 76.3146C190.28 84.1948 195.906 90.7609 203.361 92.2146C203.177 95.5861 200.397 98.2504 196.978 98.2504H117.73C89.8861 98.2504 61.9939 73.5437 61.9939 37.26V37.2374L61.9937 37.2224L61.9937 37.2198V37.2181L61.9937 37.2062L61.9937 37.1749C61.9939 37.1307 61.9945 37.0561 61.9966 36.9535C62.0009 36.7481 62.0112 36.4307 62.0358 36.0171C62.085 35.1886 62.1909 33.9818 62.418 32.5246C62.8749 29.5934 63.8078 25.7408 65.6877 21.9315C67.56 18.1377 70.3398 14.4469 74.485 11.6954C78.6108 8.95672 84.3028 7.00536 92.2484 7.00536C100.241 7.00536 106.024 8.83572 110.243 11.4059C114.47 13.9816 117.321 17.4192 119.258 20.9177C121.205 24.4347 122.212 27.9873 122.727 30.6848C122.983 32.0262 123.114 33.1351 123.18 33.8937C123.214 34.2724 123.23 34.5618 123.239 34.7472C123.243 34.8398 123.245 34.9063 123.246 34.9447L123.247 34.9695V64.0729C119.065 63.6831 115.176 62.2647 112.19 59.4412C108.662 56.1049 105.865 50.3051 105.865 40.3244C105.865 38.39 104.297 36.8218 102.362 36.8218C100.428 36.8218 98.8597 38.39 98.8597 40.3244C98.8597 51.6226 102.061 59.5051 107.377 64.5314C111.956 68.8606 117.706 70.6941 123.247 71.1013V71.2359H153.458C161.443 71.2359 167.862 64.7546 167.862 56.8309V34.5691C175.148 32.9847 180.604 26.4991 180.604 18.7393C180.604 9.7923 173.351 2.53936 164.404 2.53936C155.457 2.53936 148.204 9.7923 148.204 18.7393C148.204 26.4679 153.616 32.9325 160.857 34.5497V56.8309C160.857 60.9039 157.556 64.2305 153.458 64.2305H130.252L130.251 34.8524C130.251 34.827 130.25 34.7939 130.249 34.7536C130.247 34.673 130.243 34.5628 130.237 34.4252C130.224 34.1501 130.201 33.7645 130.159 33.2836C130.075 32.323 129.915 30.9758 129.608 29.37C128.997 26.1731 127.79 21.8667 125.387 17.5245C122.972 13.1639 119.335 8.74206 113.888 5.42334C108.431 2.09922 101.353 0 92.2484 0Z" fill="url(#paint0_linear_2919_85212)"/>
<path d="M74.4724 105.912C76.4069 105.912 77.9751 107.481 77.9751 109.415C77.9751 113.308 79.784 117.985 82.9717 121.705C86.1373 125.399 90.3147 127.76 94.7879 127.76C94.9769 127.76 95.1624 127.775 95.3433 127.804H148.535C150.201 120.629 156.634 115.282 164.316 115.282C171.998 115.282 178.431 120.629 180.097 127.804H230.06C231.726 120.629 238.159 115.282 245.841 115.282C254.788 115.282 262.041 122.535 262.041 131.482C262.041 140.429 254.788 147.682 245.841 147.682C238.035 147.682 231.518 142.16 229.983 134.809H180.174C178.639 142.16 172.122 147.682 164.316 147.682C156.51 147.682 149.993 142.16 148.458 134.809H94.7879V134.766C94.5402 134.766 94.2939 134.761 94.0488 134.752C93.9461 134.761 93.8421 134.766 93.737 134.766C89.2637 134.766 85.0863 137.127 81.9207 140.821C78.7331 144.541 76.9241 149.219 76.9241 153.111C76.9241 155.046 75.3559 156.614 73.4214 156.614C71.4869 156.614 69.9187 155.046 69.9187 153.111C69.9187 147.284 72.51 141.037 76.6014 136.263C78.3553 134.216 80.4486 132.369 82.8189 130.923C80.8773 129.597 79.1423 128.002 77.6524 126.263C73.561 121.489 70.9697 115.242 70.9697 109.415C70.9697 107.481 72.5379 105.912 74.4724 105.912Z" fill="url(#paint1_linear_2919_85212)"/>
<path fill-rule="evenodd" clip-rule="evenodd" d="M1367.7 159.416C1364.36 161.03 1360.1 161.838 1354.92 161.838H1338.44V94.9609H1354.92C1360.1 94.9609 1364.36 95.8923 1367.7 97.7552C1371.03 99.4938 1373.68 101.916 1375.66 105.02C1377.63 108.125 1378.99 111.789 1379.73 116.011C1380.6 120.11 1381.03 124.518 1381.03 129.238C1381.03 133.957 1380.6 138.303 1379.73 142.278C1378.99 146.252 1377.63 149.729 1375.66 152.71C1373.68 155.566 1371.03 157.801 1367.7 159.416ZM1375.47 80.2443C1369.55 77.5121 1362.7 76.146 1354.92 76.146H1321.4C1320.29 76.146 1319.3 76.5807 1318.44 77.45C1317.58 78.1951 1317.14 79.1887 1317.14 80.4306V177.672C1317.14 178.914 1317.58 179.969 1318.44 180.839C1319.3 181.584 1320.29 181.956 1321.4 181.956H1354.92C1362.7 181.956 1369.55 180.652 1375.47 178.044C1381.4 175.436 1386.34 171.835 1390.29 167.24C1394.36 162.521 1397.38 156.932 1399.36 150.474C1401.33 144.016 1402.32 136.937 1402.32 129.238C1402.32 121.538 1401.33 114.459 1399.36 108.001C1397.38 101.543 1394.36 95.9544 1390.29 91.2352C1386.34 86.5159 1381.4 82.8523 1375.47 80.2443ZM1092.35 181.956C1093.21 181.087 1093.64 180.032 1093.64 178.79V81.5483C1093.64 80.3064 1093.21 79.3129 1092.35 78.5677C1091.48 77.6984 1090.5 77.2637 1089.39 77.2637H1076.61C1075.5 77.2637 1074.51 77.6984 1073.65 78.5677C1072.78 79.3129 1072.35 80.3064 1072.35 81.5483V178.79C1072.35 180.032 1072.78 181.087 1073.65 181.956C1074.51 182.702 1075.5 183.074 1076.61 183.074H1089.39C1090.5 183.074 1091.48 182.702 1092.35 181.956ZM1142.38 162.955V139.856H1177.56C1178.8 139.856 1179.79 139.483 1180.53 138.738C1181.27 137.869 1181.64 136.875 1181.64 135.758V124.767C1181.64 123.649 1181.27 122.718 1180.53 121.972C1179.79 121.103 1178.8 120.668 1177.56 120.668H1142.38V97.3826H1191.64C1192.87 97.3826 1193.86 97.01 1194.6 96.2649C1195.34 95.3956 1195.71 94.402 1195.71 93.2843V81.362C1195.71 80.2443 1195.34 79.3129 1194.6 78.5677C1193.86 77.6984 1192.87 77.2637 1191.64 77.2637H1125.35C1124.24 77.2637 1123.25 77.6984 1122.38 78.5677C1121.52 79.3129 1121.09 80.3064 1121.09 81.5483V178.79C1121.09 180.032 1121.52 181.087 1122.38 181.956C1123.25 182.702 1124.24 183.074 1125.35 183.074H1191.64C1192.87 183.074 1193.86 182.702 1194.6 181.956C1195.34 181.087 1195.71 180.094 1195.71 178.976V167.054C1195.71 165.936 1195.34 165.004 1194.6 164.259C1193.86 163.39 1192.87 162.955 1191.64 162.955H1142.38ZM1223.53 81.5483C1223.53 80.3064 1223.96 79.3129 1224.83 78.5677C1225.69 77.6984 1226.68 77.2637 1227.79 77.2637H1240.57C1241.68 77.2637 1242.67 77.6984 1243.53 78.5677C1244.39 79.3129 1244.83 80.3064 1244.83 81.5483V162.955H1287.78C1289.02 162.955 1290.01 163.39 1290.75 164.259C1291.49 165.004 1291.86 165.936 1291.86 167.054V178.976C1291.86 180.094 1291.49 181.087 1290.75 181.956C1290.01 182.702 1289.02 183.074 1287.78 183.074H1227.79C1226.68 183.074 1225.69 182.702 1224.83 181.956C1223.96 181.087 1223.53 180.032 1223.53 178.79V81.5483ZM980.703 77.2658H965.645C963.673 77.2658 962.379 79.3293 963.24 81.1046L984.873 125.756C985.83 127.732 988.63 127.775 989.647 125.83L997.141 111.5C997.526 110.763 997.547 109.89 997.197 109.136L983.128 78.8139C982.69 77.8698 981.744 77.2658 980.703 77.2658ZM1001.06 143.23V180.403C1001.06 181.879 1002.25 183.076 1003.73 183.076H1018.22C1019.7 183.076 1020.9 181.879 1020.9 180.403V143.393C1020.9 141.224 1021.43 139.088 1022.44 137.168L1051.9 81.1841C1052.84 79.404 1051.55 77.2658 1049.54 77.2658H1033.94C1032.93 77.2658 1032 77.8404 1031.55 78.7492L1002.46 137.28C1001.54 139.129 1001.06 141.165 1001.06 143.23Z" fill="url(#paint2_linear_2919_85212)"/>
<path fill-rule="evenodd" clip-rule="evenodd" d="M400.774 95.9745L400.789 95.9769C401.466 96.0345 402.125 96.1106 402.768 96.2054C404.27 96.0909 405.555 94.965 405.809 93.4131L407.92 80.522C408.219 78.7008 406.984 76.9826 405.163 76.6843L404.421 76.5627L404.424 76.5454C402.142 76.2791 399.843 76.146 397.529 76.146C390.025 76.146 382.966 77.5283 376.351 80.2928C369.735 82.9586 363.91 86.7105 358.875 91.5484C353.938 96.2876 350.038 101.915 347.175 108.432C344.312 114.948 342.88 122.008 342.88 129.61C342.88 137.213 344.312 144.272 347.175 150.789C350.137 157.305 354.086 162.982 359.023 167.82C364.058 172.559 369.884 176.311 376.499 179.076C383.213 181.742 390.321 183.074 397.825 183.074C405.428 183.074 412.388 181.692 418.707 178.928C425.125 176.163 430.605 172.411 435.146 167.672C439.787 162.834 443.391 157.206 445.958 150.789C448.525 144.272 449.808 137.262 449.808 129.758C449.808 127.981 449.167 126.451 447.883 125.167C446.6 123.884 445.069 123.242 443.292 123.242H424.882V123.236H408.906C407.06 123.236 405.564 124.732 405.564 126.577V138.503C405.564 140.349 407.06 141.845 408.906 141.845H424.882V141.754H426.853C426.162 145.21 424.878 148.271 423.002 150.937C421.225 153.602 419.053 155.873 416.486 157.749C413.919 159.625 411.055 161.057 407.896 162.044C404.835 162.933 401.577 163.377 398.121 163.377C393.283 163.377 388.84 162.489 384.792 160.711C380.744 158.934 377.239 156.564 374.277 153.602C371.315 150.542 368.995 146.987 367.316 142.939C365.737 138.792 364.947 134.349 364.947 129.61C364.947 124.871 365.737 120.477 367.316 116.429C368.896 112.282 371.118 108.728 373.981 105.766C376.844 102.705 380.251 100.286 384.2 98.5092C388.248 96.7319 392.691 95.8433 397.529 95.8433C398.65 95.8433 399.732 95.8875 400.774 95.9757L400.774 95.9745ZM542.374 163.533C541.626 162.66 540.628 162.223 539.38 162.223H489.605V139.02H525.159C526.406 139.02 527.404 138.646 528.153 137.897C528.901 137.024 529.276 136.026 529.276 134.903V123.863C529.276 122.74 528.901 121.804 528.153 121.056C527.404 120.183 526.406 119.746 525.159 119.746H489.605V96.3556H539.38C540.628 96.3556 541.626 95.9813 542.374 95.2328C543.123 94.3596 543.497 93.3616 543.497 92.2388V80.2629C543.497 79.1401 543.123 78.2045 542.374 77.456C541.626 76.5828 540.628 76.1461 539.38 76.1461H472.39C471.267 76.1461 470.269 76.5828 469.396 77.456C468.523 78.2045 468.086 79.2025 468.086 80.45V178.129C468.086 179.376 468.523 180.437 469.396 181.31C470.269 182.059 471.267 182.433 472.39 182.433H539.38C540.628 182.433 541.626 182.059 542.374 181.31C543.123 180.437 543.497 179.439 543.497 178.316V166.34C543.497 165.217 543.123 164.282 542.374 163.533ZM647.285 181.945C648.113 181.066 648.527 179.999 648.527 178.744V80.476C648.527 79.2209 648.113 78.2169 647.285 77.4639C646.457 76.5854 645.51 76.1461 644.446 76.1461H632.203C631.139 76.1461 630.193 76.5854 629.365 77.4639C628.537 78.2169 628.123 79.2209 628.123 80.476V143.729L589.621 79.1582C589.267 78.4052 588.734 77.7149 588.025 77.0874C587.433 76.4599 586.664 76.1461 585.718 76.1461H572.411C571.347 76.1461 570.4 76.5854 569.572 77.4639C568.744 78.2169 568.33 79.2209 568.33 80.476V178.744C568.33 179.999 568.744 181.066 569.572 181.945C570.4 182.698 571.347 183.074 572.411 183.074H584.654C585.718 183.074 586.664 182.698 587.492 181.945C588.32 181.066 588.734 179.999 588.734 178.744V115.303L626.526 178.744C627.117 179.748 628.004 180.753 629.187 181.757C630.37 182.635 631.494 183.074 632.558 183.074H644.446C645.51 183.074 646.457 182.698 647.285 181.945ZM696.778 178.129C696.778 179.376 696.342 180.437 695.468 181.31C694.595 182.059 693.597 182.433 692.474 182.433H679.563C678.44 182.433 677.442 182.059 676.569 181.31C675.696 180.437 675.259 179.376 675.259 178.129V80.45C675.259 79.2025 675.696 78.2045 676.569 77.456C677.442 76.5828 678.44 76.1461 679.563 76.1461H692.474C693.597 76.1461 694.595 76.5828 695.468 77.456C696.342 78.2045 696.778 79.2025 696.778 80.45V178.129ZM738.068 170.31C744.298 178.819 754.549 183.074 768.821 183.074C783.093 183.074 793.344 178.819 799.574 170.31C805.804 161.8 808.919 149.898 808.919 134.605V80.4011C808.919 79.1677 808.522 78.1811 807.73 77.4411C806.937 76.5778 806.031 76.1461 805.011 76.1461H793.288C792.268 76.1461 791.362 76.5778 790.569 77.4411C789.776 78.1811 789.38 79.1677 789.38 80.4011V133.31C789.38 138.12 789.096 142.437 788.53 146.26C788.077 150.083 787.114 153.351 785.642 156.065C784.169 158.655 782.074 160.69 779.355 162.17C776.75 163.65 773.238 164.39 768.821 164.39C764.403 164.39 760.835 163.65 758.117 162.17C755.512 160.69 753.473 158.655 752 156.065C750.528 153.351 749.508 150.083 748.942 146.26C748.489 142.437 748.262 138.12 748.262 133.31V80.4011C748.262 79.1677 747.866 78.1811 747.073 77.4411C746.28 76.5778 745.374 76.1461 744.354 76.1461H732.631C731.611 76.1461 730.705 76.5778 729.912 77.4411C729.119 78.1811 728.723 79.1677 728.723 80.4011V134.605C728.723 149.898 731.838 161.8 738.068 170.31ZM849.493 130.15L872.671 141.398C876.222 143.129 878.633 144.931 879.973 146.734C881.313 148.536 881.983 150.988 881.983 154.016C881.983 157.91 880.576 160.938 877.762 163.029C874.949 165.12 871.063 166.201 866.173 166.201C858.001 166.201 849.091 163.245 839.378 157.333C836.766 155.746 834.756 156.323 833.349 159.135L829.732 166.273C828.325 169.013 828.861 171.176 831.34 172.763C842.192 179.612 853.848 183.073 866.374 183.073C877.963 183.073 886.873 180.55 893.103 175.503C899.332 170.455 902.481 163.389 902.481 154.377C902.481 147.671 901.074 142.191 898.261 138.009C895.447 133.827 890.691 130.15 883.992 126.905L863.896 115.875C860.412 114.144 857.867 112.27 856.326 110.323C854.785 108.376 853.982 106.069 853.982 103.401C853.982 99.94 855.187 97.3443 857.599 95.6138C860.01 93.8834 863.293 93.0181 867.379 93.0181C874.547 93.0902 884.528 95.6129 892.835 100.588C895.447 102.174 897.457 101.597 898.864 98.8575L902.481 91.7915C903.888 88.9795 903.352 86.8164 900.806 85.3022C890.557 79.1735 877.963 76.1461 867.58 76.1461C856.996 76.1461 848.622 78.4534 842.527 83.1401C836.431 87.8268 833.349 94.4602 833.349 103.04C833.349 114.364 839.391 124.79 849.493 130.15Z" fill="#111820"/>
<defs>
<linearGradient id="paint0_linear_2919_85212" x1="0.390625" y1="132.423" x2="262.041" y2="132.423" gradientUnits="userSpaceOnUse">
<stop stop-color="#59EECA"/>
<stop offset="1" stop-color="#59D3EE"/>
</linearGradient>
<linearGradient id="paint1_linear_2919_85212" x1="0.390625" y1="132.423" x2="262.041" y2="132.423" gradientUnits="userSpaceOnUse">
<stop stop-color="#59EECA"/>
<stop offset="1" stop-color="#59D3EE"/>
</linearGradient>
<linearGradient id="paint2_linear_2919_85212" x1="974.637" y1="143.396" x2="1394.54" y2="140.09" gradientUnits="userSpaceOnUse">
<stop stop-color="#59EECA"/>
<stop offset="1" stop-color="#59D3EE"/>
</linearGradient>
</defs>
</svg>
