<?xml version="1.0" encoding="UTF-8" standalone="no"?>
<!DOCTYPE svg PUBLIC "-//W3C//DTD SVG 1.1//EN" "http://www.w3.org/Graphics/SVG/1.1/DTD/svg11.dtd">
<svg width="100%" height="100%" viewBox="0 0 2063 468" version="1.1" xmlns="http://www.w3.org/2000/svg" xmlns:xlink="http://www.w3.org/1999/xlink" xml:space="preserve" xmlns:serif="http://www.serif.com/" style="fill-rule:evenodd;clip-rule:evenodd;stroke-linejoin:round;stroke-miterlimit:2;">
    <path d="M447.812,423.832L429.797,405.824C352.085,450.226 257.288,436.85 193.369,372.956L170.273,349.87C149.664,349.62 127.929,348.243 110.433,340.911L167.93,398.385C246.036,476.46 366.128,487.654 456.364,431.95C453.412,429.322 450.603,426.621 447.812,423.832Z" style="fill:url(#_Linear1);fill-rule:nonzero;"/>
    <path d="M295.142,271.223C288.881,264.964 280.902,260.547 273.818,255.612C234.228,277.071 188.091,284.724 144.637,277.214C111.667,271.509 79.591,257.793 52.417,235.315C79.591,212.837 111.184,198.96 144.154,193.256C187.608,185.727 233.03,192.826 272.619,214.285C283.657,220.24 295.429,226.07 305.304,234.314C310.134,238.23 316.055,241.27 320.581,245.794L332.854,258.062L358.293,283.49L435.075,360.242L459.959,385.116L460.514,385.671L473.233,398.385C477.348,402.498 480.353,407.738 484.683,411.564C494.146,419.594 502.107,426.192 512.394,432.594C602.611,488.298 720.807,476.46 798.913,398.385L856.41,340.911C838.896,348.243 817.178,349.602 796.57,349.87L773.474,372.956C709.555,436.85 612.361,447.83 537.045,405.824C526.508,399.977 517.814,394.54 506.866,385.116L531.75,360.242L608.532,283.49C608.228,283.794 604.722,275.497 600.446,271.223L585.186,255.969L506.329,334.813L483.43,357.702L460.532,334.813L384.197,258.509L356.217,230.54L379.116,207.651L457.991,128.807L432.552,103.379L353.212,182.687L327.773,208.116C321.977,203.735 309.812,194.221 299.633,187.927C263.549,165.699 223.334,154.791 182.205,153.968C163.225,153.61 143.188,154.54 124.619,158.76C82.99,168.113 42.559,188.016 10.179,220.365L0,230.54L15.26,245.794C47.622,278.143 86.478,299.638 128.107,308.991C146.677,313.211 165.121,315.732 184.102,315.375C225.212,314.57 265.982,303.125 303.425,279.52L295.142,271.223Z" style="fill:url(#_Linear2);fill-rule:nonzero;"/>
    <path d="M188.288,93.203C247.431,34.084 335.037,20.368 407.472,51.913C445.845,71.19 464.432,84.387 500.82,120.742L511.428,131.347L587.763,207.651L613.202,233.08L625.921,245.794C630.197,250.068 633.292,255.415 637.836,259.331C647.192,267.271 656.441,275.121 666.62,281.434C702.704,303.662 743.241,315.536 784.352,316.34C803.333,316.698 820.99,313.694 839.559,309.474C881.188,300.121 919.239,278.143 951.601,245.794L966.861,230.54L956.682,220.365C924.32,188.016 883.549,168.435 841.938,159.064C823.369,154.844 803.655,153.592 784.674,153.95C743.563,154.755 703.652,165.359 667.568,187.587C657.389,193.899 644.902,203.717 639.106,208.098L613.667,182.669L536.867,105.918L511.983,81.043C517.833,76.716 531.625,66.183 542.162,60.336C617.478,18.312 714.672,29.31 778.573,93.203L801.669,116.29C817.197,121.637 838.915,122.996 861.509,125.249L804.012,67.757C725.906,-10.318 604.543,-20.225 514.326,35.461C504.04,41.863 493.539,49.731 484.075,57.76C474.611,49.731 463.144,41.541 452.875,35.139C362.64,-20.547 240.955,-10.318 162.849,67.757L105.353,125.231C127.947,122.996 149.683,121.619 165.193,116.272L188.288,93.203ZM822.85,193.399C855.821,199.103 887.575,213.141 914.749,235.619C887.575,258.097 855.821,272.135 822.85,277.839C779.396,285.368 733.903,278.34 694.313,256.881C683.276,250.926 672.739,243.863 662.864,235.619C672.739,227.375 683.276,220.312 694.313,214.357C733.903,192.898 779.378,185.87 822.85,193.399Z" style="fill:url(#_Linear3);fill-rule:nonzero;"/>
    <path d="M1186.38,135.573L1186.38,299.596L1208.23,300.767L1208.23,332.01L1117,332.01L1117,302.329L1129.65,301.158C1137.06,300.377 1140.77,296.211 1140.77,288.661L1140.77,180.094C1140.77,175.668 1140,172.674 1138.47,171.111C1137.19,169.549 1134.76,168.768 1131.18,168.768L1117.77,167.987L1117.77,135.573L1186.38,135.573ZM1138.08,101.988C1132.72,96.52 1130.03,89.621 1130.03,81.29C1130.03,72.958 1132.72,66.059 1138.08,60.592C1143.45,54.864 1150.48,52 1159.17,52C1167.85,52 1174.88,54.864 1180.25,60.592C1185.87,66.059 1188.68,72.958 1188.68,81.29C1188.68,89.621 1185.87,96.52 1180.25,101.988C1174.88,107.195 1167.85,109.798 1159.17,109.798C1150.48,109.798 1143.45,107.195 1138.08,101.988Z" style="fill:white;fill-rule:nonzero;"/>
    <path d="M1402.54,143.384L1402.54,288.661C1402.54,292.826 1403.18,295.69 1404.46,297.252C1405.99,298.815 1408.55,299.726 1412.12,299.986L1424.39,300.767L1424.39,332.01L1363.44,332.01L1363.44,309.359L1362.29,308.968C1349.51,327.714 1332.01,337.087 1309.78,337.087C1283.71,337.087 1264.41,328.625 1251.89,311.702C1239.37,294.779 1233.11,271.608 1233.11,242.188C1233.11,206.78 1241.54,179.182 1258.41,159.396C1275.28,139.609 1300.58,129.715 1334.31,129.715C1356.03,129.715 1378.77,134.272 1402.54,143.384ZM1358.07,269.915L1358.07,168.768C1350.92,165.384 1341.08,163.691 1328.56,163.691C1311.44,163.691 1299.04,170.721 1291.38,184.78C1283.71,198.839 1279.88,217.454 1279.88,240.626C1279.88,282.803 1293.16,303.892 1319.74,303.892C1330.99,303.892 1340.19,300.507 1347.34,293.738C1354.5,286.708 1358.07,278.767 1358.07,269.915Z" style="fill:white;fill-rule:nonzero;"/>
    <path d="M1618.5,331.619C1616.2,360.518 1608.02,381.737 1593.97,395.275C1579.91,408.814 1557.94,415.583 1528.04,415.583C1498.14,415.583 1474.75,411.287 1457.89,402.695L1457.89,348.412L1494.3,345.288L1494.3,364.033C1494.3,371.063 1497.5,375.749 1503.89,378.092C1510.28,380.696 1519.09,381.997 1530.34,381.997C1546.69,381.997 1558.19,376.921 1564.84,366.767C1571.48,356.873 1574.8,342.814 1574.8,324.59L1574.8,303.11C1562.54,317.69 1545.54,324.98 1523.82,324.98C1510.53,324.98 1498.78,322.377 1488.55,317.17C1478.59,311.962 1470.79,304.933 1465.17,296.081C1454.18,278.377 1448.69,257.549 1448.69,233.596C1448.69,199.49 1457.76,173.715 1475.9,156.271C1494.05,138.567 1518.2,129.715 1548.35,129.715C1573.4,129.715 1597.04,134.532 1619.27,144.165L1619.27,289.051C1619.27,311.181 1619.01,325.371 1618.5,331.619ZM1574.8,252.342L1574.8,168.378C1565.86,165.254 1555.64,163.691 1544.14,163.691C1528.55,163.691 1516.54,169.549 1508.1,181.265C1499.93,192.981 1495.84,208.863 1495.84,228.91C1495.84,270.046 1509.13,290.613 1535.7,290.613C1546.69,290.613 1555.89,287.229 1563.3,280.46C1570.97,273.43 1574.8,264.057 1574.8,252.342Z" style="fill:white;fill-rule:nonzero;"/>
    <path d="M1740.85,303.501C1768.71,303.501 1782.64,280.59 1782.64,234.768C1782.64,211.596 1779.44,194.023 1773.05,182.046C1766.92,170.07 1756.44,164.082 1741.62,164.082C1727.05,164.082 1716.32,169.81 1709.42,181.265C1702.52,192.721 1699.07,208.342 1699.07,228.129C1699.07,264.839 1705.71,287.88 1719,297.252C1724.88,301.418 1732.16,303.501 1740.85,303.501ZM1652.69,233.596C1652.69,214.33 1655.5,197.667 1661.12,183.608C1666.74,169.289 1674.28,158.354 1683.74,150.804C1701.88,136.745 1721.94,129.715 1743.92,129.715C1759.25,129.715 1772.16,132.319 1782.64,137.526C1793.37,142.473 1801.67,148.331 1807.55,155.1C1813.68,161.609 1818.8,171.242 1822.88,183.999C1827.23,196.496 1829.4,211.336 1829.4,228.519C1829.4,264.448 1820.84,291.655 1803.72,310.14C1786.6,328.625 1764.62,337.868 1737.79,337.868C1711.21,337.868 1690.38,329.146 1675.3,311.702C1660.23,293.998 1652.69,267.963 1652.69,233.596Z" style="fill:white;fill-rule:nonzero;"/>
    <path d="M1852.91,166.816L1852.91,135.573L1917.69,135.573L1917.69,160.958C1924.33,151.325 1933.15,143.774 1944.14,138.307C1955.13,132.579 1967.01,129.715 1979.79,129.715C1999.21,129.715 2014.16,135.443 2024.64,146.899C2035.37,158.094 2040.74,175.017 2040.74,197.667L2040.74,299.596L2062.59,300.767L2062.59,332.01L1971.36,332.01L1971.36,302.329L1984.01,301.158C1987.84,300.637 1990.65,299.596 1992.44,298.034C1994.23,296.211 1995.12,292.957 1995.12,288.27L1995.12,207.821C1995.12,193.502 1992.95,182.958 1988.61,176.188C1984.26,169.159 1975.96,165.644 1963.69,165.644C1951.68,165.644 1942.09,169.549 1934.94,177.36C1927.78,185.171 1924.21,194.413 1924.21,205.088L1924.21,299.596L1946.06,300.767L1946.06,332.01L1854.82,332.01L1854.82,302.329L1867.47,301.158C1871.31,300.637 1874.12,299.596 1875.91,298.034C1877.7,296.211 1878.59,292.957 1878.59,288.27L1878.59,180.094C1878.59,172.283 1875.4,168.248 1869.01,167.987L1852.91,166.816Z" style="fill:white;fill-rule:nonzero;"/>
    <defs>
        <linearGradient id="_Linear1" x1="0" y1="0" x2="1" y2="0" gradientUnits="userSpaceOnUse" gradientTransform="matrix(366.742,523.014,-523.014,366.742,107.681,136.058)"><stop offset="0" style="stop-color:rgb(34,167,240);stop-opacity:1"/><stop offset="1" style="stop-color:rgb(155,89,182);stop-opacity:1"/></linearGradient>
        <linearGradient id="_Linear2" x1="0" y1="0" x2="1" y2="0" gradientUnits="userSpaceOnUse" gradientTransform="matrix(366.744,523.014,-523.014,366.744,252.111,34.782)"><stop offset="0" style="stop-color:rgb(34,167,240);stop-opacity:1"/><stop offset="1" style="stop-color:rgb(155,89,182);stop-opacity:1"/></linearGradient>
        <linearGradient id="_Linear3" x1="0" y1="0" x2="1" y2="0" gradientUnits="userSpaceOnUse" gradientTransform="matrix(366.744,523.014,-523.014,366.744,375.131,-51.4807)"><stop offset="0" style="stop-color:rgb(34,167,240);stop-opacity:1"/><stop offset="1" style="stop-color:rgb(155,89,182);stop-opacity:1"/></linearGradient>
    </defs>
</svg>
