<svg xmlns="http://www.w3.org/2000/svg" xmlns:xlink="http://www.w3.org/1999/xlink" viewBox="0 0 454.22 135.98"><defs><style>.cls-1{isolation:isolate;}.cls-2{fill:#fff;}.cls-3{fill:url(#linear-gradient);}.cls-4{mix-blend-mode:overlay;opacity:0.77;fill:url(#linear-gradient-2);}</style><linearGradient id="linear-gradient" x1="246.76" y1="295.81" x2="246.76" y2="159.83" gradientUnits="userSpaceOnUse"><stop offset="0" stop-color="#e151cc"/><stop offset="1" stop-color="#0087e9"/></linearGradient><linearGradient id="linear-gradient-2" x1="249.61" y1="258.63" x2="249.61" y2="165.1" gradientUnits="userSpaceOnUse"><stop offset="0" stop-opacity="0.6"/><stop offset="0.1" stop-opacity="0.45"/><stop offset="1" stop-opacity="0"/></linearGradient></defs><g class="cls-1"><g id="Layer_1" data-name="Layer 1"><path class="cls-2" d="M337.26,271V189.6h15.38v67h35.05V271ZM403,271V189.6h53.13V204H418.32v17.41h31v14.36h-31v20.91h37.76V271Zm72.35,0V189.6h15.6l35.38,54.27V189.6h15.6V271h-15.6L490.9,216.74V271Zm88.06,0V189.6H613.1V205H578.74v17.63h27.58V238H578.74v33Zm66.7,0V189.6h15.38V271Z" transform="translate(-191.21 -159.83)"/><path class="cls-3" d="M302.31,277a18.59,18.59,0,0,1-18.59,18.85H216.35a25.1,25.1,0,0,1-21.74-37.65l44.15-77A42.62,42.62,0,0,1,291.81,163h0l-54.7,95.62h46.61A18.58,18.58,0,0,1,302.31,277Z" transform="translate(-191.21 -159.83)"/><path class="cls-4" d="M286.83,172l-49.72,86.65h0a24.69,24.69,0,0,1-21.38-37l23.09-40.18a32.33,32.33,0,0,1,48-9.43Z" transform="translate(-191.21 -159.83)"/></g></g></svg>