<svg xmlns="http://www.w3.org/2000/svg" xmlns:xlink="http://www.w3.org/1999/xlink" viewBox="0 0 454.22 135.98"><defs><style>.cls-1{isolation:isolate;}.cls-2{fill:url(#linear-gradient);}.cls-3{fill:url(#linear-gradient-2);}.cls-4{mix-blend-mode:overlay;opacity:0.77;fill:url(#linear-gradient-3);}</style><linearGradient id="linear-gradient" x1="217.44" y1="121.48" x2="525.61" y2="121.48" gradientUnits="userSpaceOnUse"><stop offset="0" stop-color="#e151cc"/><stop offset="1" stop-color="#0087e9"/></linearGradient><linearGradient id="linear-gradient-2" x1="126.94" y1="186.99" x2="126.94" y2="51.01" xlink:href="#linear-gradient"/><linearGradient id="linear-gradient-3" x1="129.78" y1="149.81" x2="129.78" y2="56.28" gradientUnits="userSpaceOnUse"><stop offset="0" stop-opacity="0.6"/><stop offset="0.1" stop-opacity="0.45"/><stop offset="1" stop-opacity="0"/></linearGradient></defs><g class="cls-1"><g id="Layer_1" data-name="Layer 1"><path class="cls-2" d="M217.44,162.18V80.78h15.37v67h35.05v14.36Zm65.68,0V80.78h53.13V95.14H298.49v17.41h31v14.36h-31v20.91h37.76v14.36Zm72.35,0V80.78h15.6l35.39,54.27V80.78h15.6v81.4h-15.6l-35.39-54.26v54.26Zm88.07,0V80.78h49.74V96.16H458.91v17.63H486.5v15.38H458.91v33Zm66.7,0V80.78h15.37v81.4Z" transform="translate(-71.39 -51.01)"/><path class="cls-3" d="M182.49,168.14A18.59,18.59,0,0,1,163.9,187H96.52a25.1,25.1,0,0,1-21.73-37.65l44.14-77A42.63,42.63,0,0,1,172,54.19h0l-54.7,95.62H163.9a18.6,18.6,0,0,1,18.59,18.33Z" transform="translate(-71.39 -51.01)"/><path class="cls-4" d="M167,63.16l-49.72,86.65h0a24.7,24.7,0,0,1-21.39-37L119,72.59a32.33,32.33,0,0,1,48-9.43Z" transform="translate(-71.39 -51.01)"/></g></g></svg>