<svg width="865" height="157" viewBox="0 0 865 157" fill="none" xmlns="http://www.w3.org/2000/svg">
<path d="M192.494 149C185.664 144.07 180.824 138.33 177.964 131.8C175.274 125.67 174.184 118 174.694 108.8C175.194 99.6 176.524 91.13 178.674 83.4C180.824 75.67 182.614 68.27 184.054 61.2C185.494 54.13 185.714 49.47 184.724 47.2C183.494 44.4 181.614 43 179.084 43C173.754 43 167.434 46.53 160.124 53.6C152.824 60.67 147.874 70.07 145.274 81.8C144.064 86.33 142.804 92 141.524 98.8C140.234 105.6 139.164 111.53 138.324 116.6C137.474 121.67 136.654 126.8 135.864 132C135.074 137.2 134.674 139.93 134.654 140.2C134.264 143.27 133.684 145.3 132.924 146.3C132.164 147.3 130.714 147.8 128.584 147.8C125.254 147.8 122.024 146.83 118.914 144.9C115.804 142.97 113.574 140.47 112.234 137.4C111.064 134.73 111.594 128.33 113.824 118.2C116.054 108.07 118.724 97.5 121.844 86.5C124.964 75.5 127.514 64.67 129.514 54C131.504 43.33 131.714 36.2 130.144 32.6C127.984 27.67 125.634 25.2 123.104 25.2C112.974 25.2 103.384 34.13 94.3442 52C85.3042 69.87 77.9442 93.93 72.2642 124.2C72.0042 125.13 71.7142 126.6 71.3942 128.6C70.5042 133.27 69.7742 136.77 69.1942 139.1C68.6142 141.43 67.8242 144.2 66.8342 147.4C65.8342 150.6 64.6642 152.87 63.3142 154.2C61.9642 155.53 60.4242 156.2 58.6942 156.2C55.3642 156.2 52.0242 155.2 48.6842 153.2C45.3442 151.2 43.0842 148.87 41.9142 146.2C39.6342 141 39.6042 134.07 41.8042 125.4C43.9442 115.67 47.8742 102.57 53.5942 86.1C59.3142 69.63 63.5642 55.9 66.3442 44.9C69.1242 33.9 69.4042 25.87 67.1842 20.8C64.9042 15.6 61.4342 13 56.7642 13C50.0942 13 43.8142 15.4 37.9142 20.2C32.0142 25 27.0342 29.77 22.9742 34.5C18.9142 39.23 15.8842 41.6 13.8842 41.6C8.55423 41.6 4.45423 38.33 1.59423 31.8C-2.08577 23.4 0.604234 16 9.67423 9.6C18.7042 3.2 29.7742 0 42.8342 0C52.1642 0 60.3642 1.97 67.4142 5.9C74.4742 9.83 79.4242 15.07 82.2942 21.6C84.8042 27.33 85.9242 33.4 85.6642 39.8C95.1542 22.2 107.034 13.4 121.304 13.4C132.904 13.4 141.124 18.93 145.974 30C147.954 34.53 148.784 41.13 148.444 49.8C153.184 43.27 158.614 38.4 164.744 35.2C170.874 32 176.004 30.4 180.144 30.4C184.544 30.4 188.914 32 193.244 35.2C197.574 38.4 201.004 42.87 203.514 48.6C205.204 52.47 205.324 60.33 203.854 72.2C202.384 84.07 201.124 96.4 200.064 109.2C199.004 122 199.814 131.47 202.504 137.6C204.084 141.2 206.064 143 208.464 143C216.734 143 225.404 131 234.494 107C236.014 104.07 237.304 102.6 238.364 102.6C239.964 102.6 241.304 103.3 242.384 104.7C243.464 106.1 243.804 107.4 243.394 108.6C239.574 123.93 235.274 135.73 230.494 144C225.714 152.27 219.194 156.4 210.924 156.4C205.454 156.4 199.314 153.93 192.484 149H192.494Z" fill="#404142"/>
<path d="M192.494 149C185.664 144.07 180.824 138.33 177.964 131.8C175.274 125.67 174.184 118 174.694 108.8C175.194 99.6 176.524 91.13 178.674 83.4C180.824 75.67 182.614 68.27 184.054 61.2C185.494 54.13 185.714 49.47 184.724 47.2C183.494 44.4 181.614 43 179.084 43C173.754 43 167.434 46.53 160.124 53.6C152.824 60.67 147.874 70.07 145.274 81.8C144.064 86.33 142.804 92 141.524 98.8C140.234 105.6 139.164 111.53 138.324 116.6C137.474 121.67 136.654 126.8 135.864 132C135.074 137.2 134.674 139.93 134.654 140.2C134.264 143.27 133.684 145.3 132.924 146.3C132.164 147.3 130.714 147.8 128.584 147.8C125.254 147.8 122.024 146.83 118.914 144.9C115.804 142.97 113.574 140.47 112.234 137.4C111.064 134.73 111.594 128.33 113.824 118.2C116.054 108.07 118.724 97.5 121.844 86.5C124.964 75.5 127.514 64.67 129.514 54C131.504 43.33 131.714 36.2 130.144 32.6C127.984 27.67 125.634 25.2 123.104 25.2C112.974 25.2 103.384 34.13 94.3442 52C85.3042 69.87 77.9442 93.93 72.2642 124.2C72.0042 125.13 71.7142 126.6 71.3942 128.6C70.5042 133.27 69.7742 136.77 69.1942 139.1C68.6142 141.43 67.8242 144.2 66.8342 147.4C65.8342 150.6 64.6642 152.87 63.3142 154.2C61.9642 155.53 60.4242 156.2 58.6942 156.2C55.3642 156.2 52.0242 155.2 48.6842 153.2C45.3442 151.2 43.0842 148.87 41.9142 146.2C39.6342 141 39.6042 134.07 41.8042 125.4C43.9442 115.67 47.8742 102.57 53.5942 86.1C59.3142 69.63 63.5642 55.9 66.3442 44.9C69.1242 33.9 69.4042 25.87 67.1842 20.8C64.9042 15.6 61.4342 13 56.7642 13C50.0942 13 43.8142 15.4 37.9142 20.2C32.0142 25 27.0342 29.77 22.9742 34.5C18.9142 39.23 15.8842 41.6 13.8842 41.6C8.55423 41.6 4.45423 38.33 1.59423 31.8C-2.08577 23.4 0.604234 16 9.67423 9.6C18.7042 3.2 29.7742 0 42.8342 0C52.1642 0 60.3642 1.97 67.4142 5.9C74.4742 9.83 79.4242 15.07 82.2942 21.6C84.8042 27.33 85.9242 33.4 85.6642 39.8C95.1542 22.2 107.034 13.4 121.304 13.4C132.904 13.4 141.124 18.93 145.974 30C147.954 34.53 148.784 41.13 148.444 49.8C153.184 43.27 158.614 38.4 164.744 35.2C170.874 32 176.004 30.4 180.144 30.4C184.544 30.4 188.914 32 193.244 35.2C197.574 38.4 201.004 42.87 203.514 48.6C205.204 52.47 205.324 60.33 203.854 72.2C202.384 84.07 201.124 96.4 200.064 109.2C199.004 122 199.814 131.47 202.504 137.6C204.084 141.2 206.064 143 208.464 143C216.734 143 225.404 131 234.494 107C236.014 104.07 237.304 102.6 238.364 102.6C239.964 102.6 241.304 103.3 242.384 104.7C243.464 106.1 243.804 107.4 243.394 108.6C239.574 123.93 235.274 135.73 230.494 144C225.714 152.27 219.194 156.4 210.924 156.4C205.454 156.4 199.314 153.93 192.484 149H192.494Z" fill="white"/>
<path d="M312.374 151C308.504 151 304.724 149.73 301.014 147.2C297.304 144.67 294.454 141.13 292.474 136.6C290.484 132.07 289.774 126.47 290.314 119.8L289.824 119.6C288.704 123.73 287.884 126.67 287.374 128.4C286.864 130.13 285.884 132.83 284.424 136.5C282.964 140.17 281.464 142.83 279.924 144.5C278.384 146.17 276.274 147.73 273.584 149.2C270.894 150.67 267.814 151.4 264.344 151.4C259.544 151.4 254.694 149.53 249.794 145.8C244.894 142.07 240.714 136.27 237.274 128.4C231.434 115.07 232.384 101.57 240.134 87.9004C247.884 74.2304 259.154 67.4004 273.954 67.4004C284.484 67.4004 292.034 71.5304 296.584 79.8004C298.044 78.8704 300.234 78.4004 303.174 78.4004C306.774 78.4004 309.674 79.4704 311.874 81.6004C314.074 83.7304 315.044 86.3304 314.794 89.4004C314.864 90.4704 313.264 96.9304 309.994 108.8C306.724 120.67 305.844 128.33 307.364 131.8C308.414 134.2 310.074 135.4 312.344 135.4C318.214 135.4 324.664 125.93 331.704 107C332.954 104.07 334.244 102.6 335.574 102.6C337.174 102.6 338.514 103.3 339.594 104.7C340.674 106.1 341.014 107.4 340.604 108.6C333.254 136.87 323.844 151 312.374 151ZM293.494 84.6004C291.384 81.0004 287.934 79.2004 283.134 79.2004C275.134 79.2004 267.914 85.7004 261.474 98.7004C255.034 111.7 253.504 122.07 256.894 129.8C258.184 132.73 260.024 134.2 262.424 134.2C276.424 134.2 286.684 118.2 293.204 86.2004L293.504 84.6004H293.494Z" fill="#404142"/>
<path d="M312.374 151C308.504 151 304.724 149.73 301.014 147.2C297.304 144.67 294.454 141.13 292.474 136.6C290.484 132.07 289.774 126.47 290.314 119.8L289.824 119.6C288.704 123.73 287.884 126.67 287.374 128.4C286.864 130.13 285.884 132.83 284.424 136.5C282.964 140.17 281.464 142.83 279.924 144.5C278.384 146.17 276.274 147.73 273.584 149.2C270.894 150.67 267.814 151.4 264.344 151.4C259.544 151.4 254.694 149.53 249.794 145.8C244.894 142.07 240.714 136.27 237.274 128.4C231.434 115.07 232.384 101.57 240.134 87.9004C247.884 74.2304 259.154 67.4004 273.954 67.4004C284.484 67.4004 292.034 71.5304 296.584 79.8004C298.044 78.8704 300.234 78.4004 303.174 78.4004C306.774 78.4004 309.674 79.4704 311.874 81.6004C314.074 83.7304 315.044 86.3304 314.794 89.4004C314.864 90.4704 313.264 96.9304 309.994 108.8C306.724 120.67 305.844 128.33 307.364 131.8C308.414 134.2 310.074 135.4 312.344 135.4C318.214 135.4 324.664 125.93 331.704 107C332.954 104.07 334.244 102.6 335.574 102.6C337.174 102.6 338.514 103.3 339.594 104.7C340.674 106.1 341.014 107.4 340.604 108.6C333.254 136.87 323.844 151 312.374 151ZM293.494 84.6004C291.384 81.0004 287.934 79.2004 283.134 79.2004C275.134 79.2004 267.914 85.7004 261.474 98.7004C255.034 111.7 253.504 122.07 256.894 129.8C258.184 132.73 260.024 134.2 262.424 134.2C276.424 134.2 286.684 118.2 293.204 86.2004L293.504 84.6004H293.494Z" fill="white"/>
<path d="M337.564 80.2C338.974 74.6 342.154 71.8 347.084 71.8C350.014 71.8 352.304 72.3 353.944 73.3C355.584 74.3 356.894 75.93 357.894 78.2C358.304 79.13 358.514 80.23 358.544 81.5C358.564 82.77 358.394 84.27 358.014 86C357.644 87.73 357.224 89.37 356.764 90.9C356.304 92.43 355.684 94.53 354.924 97.2C354.154 99.87 353.484 102.2 352.894 104.2C351.664 109 350.804 112.43 350.304 114.5C349.814 116.57 349.254 119.1 348.634 122.1C348.014 125.1 347.764 127.5 347.884 129.3C348.004 131.1 348.334 132.6 348.854 133.8C349.734 135.8 351.234 136.8 353.364 136.8C360.164 136.8 367.144 126.87 374.314 107C375.834 104.07 377.124 102.6 378.184 102.6C379.914 102.6 381.294 103.3 382.304 104.7C383.314 106.1 383.624 107.4 383.214 108.6C379.534 122.73 375.414 133.4 370.834 140.6C366.254 147.8 360.364 151.4 353.164 151.4C348.634 151.4 344.364 150.03 340.374 147.3C336.374 144.57 333.384 140.93 331.404 136.4C328.834 130.53 328.944 120.73 331.724 107L337.584 80.2H337.564ZM339.134 39.5C341.044 37.17 343.734 36 347.204 36C350.674 36 353.794 36.9 356.584 38.7C359.374 40.5 361.464 43 362.874 46.2C364.164 49.13 363.834 51.73 361.894 54C359.954 56.27 357.254 57.4 353.784 57.4C350.314 57.4 347.204 56.53 344.444 54.8C341.684 53.07 339.604 50.6 338.204 47.4C336.914 44.47 337.234 41.83 339.144 39.5H339.134Z" fill="#404142"/>
<path d="M337.564 80.2C338.974 74.6 342.154 71.8 347.084 71.8C350.014 71.8 352.304 72.3 353.944 73.3C355.584 74.3 356.894 75.93 357.894 78.2C358.304 79.13 358.514 80.23 358.544 81.5C358.564 82.77 358.394 84.27 358.014 86C357.644 87.73 357.224 89.37 356.764 90.9C356.304 92.43 355.684 94.53 354.924 97.2C354.154 99.87 353.484 102.2 352.894 104.2C351.664 109 350.804 112.43 350.304 114.5C349.814 116.57 349.254 119.1 348.634 122.1C348.014 125.1 347.764 127.5 347.884 129.3C348.004 131.1 348.334 132.6 348.854 133.8C349.734 135.8 351.234 136.8 353.364 136.8C360.164 136.8 367.144 126.87 374.314 107C375.834 104.07 377.124 102.6 378.184 102.6C379.914 102.6 381.294 103.3 382.304 104.7C383.314 106.1 383.624 107.4 383.214 108.6C379.534 122.73 375.414 133.4 370.834 140.6C366.254 147.8 360.364 151.4 353.164 151.4C348.634 151.4 344.364 150.03 340.374 147.3C336.374 144.57 333.384 140.93 331.404 136.4C328.834 130.53 328.944 120.73 331.724 107L337.584 80.2H337.564ZM339.134 39.5C341.044 37.17 343.734 36 347.204 36C350.674 36 353.794 36.9 356.584 38.7C359.374 40.5 361.464 43 362.874 46.2C364.164 49.13 363.834 51.73 361.894 54C359.954 56.27 357.254 57.4 353.784 57.4C350.314 57.4 347.204 56.53 344.444 54.8C341.684 53.07 339.604 50.6 338.204 47.4C336.914 44.47 337.234 41.83 339.144 39.5H339.134Z" fill="white"/>
<path d="M431.197 148.1C427.237 145.9 424.257 142.53 422.277 138C420.177 133.2 419.937 127.1 421.557 119.7C423.187 112.3 425.017 105.37 427.047 98.9C429.077 92.43 429.607 88.07 428.607 85.8C427.557 83.4 425.767 82.2 423.227 82.2C415.627 82.2 408.547 88.03 401.997 99.7C395.437 111.37 391.677 126.13 390.697 144C390.377 148.13 388.017 150.2 383.617 150.2C378.417 150.2 374.827 147.93 372.837 143.4C371.607 140.6 371.387 135.07 372.167 126.8L378.217 77.6C378.657 73.73 381.207 71.8 385.877 71.8C391.477 71.8 395.157 73.8 396.907 77.8C397.547 79.27 397.747 80.87 397.507 82.6C397.267 84.33 396.747 86.8 395.947 90C395.147 93.2 394.617 96.33 394.367 99.4L394.947 99.8C396.867 91.4 400.727 84 406.527 77.6C412.327 71.2 418.417 68 424.817 68C429.347 68 433.597 69.33 437.567 72C441.537 74.67 444.457 78.13 446.317 82.4C448.247 86.8 448.397 92.7 446.767 100.1C445.137 107.5 443.277 114.43 441.177 120.9C439.077 127.37 438.497 131.67 439.427 133.8C440.307 135.8 441.807 136.8 443.937 136.8C450.607 136.8 457.657 126.87 465.087 107C466.607 104.07 467.897 102.6 468.957 102.6C470.557 102.6 471.897 103.3 472.977 104.7C474.057 106.1 474.397 107.4 473.987 108.6C470.307 122.73 466.147 133.4 461.497 140.6C456.847 147.8 450.927 151.4 443.727 151.4C439.327 151.4 435.147 150.3 431.187 148.1H431.197Z" fill="#404142"/>
<path d="M431.197 148.1C427.237 145.9 424.257 142.53 422.277 138C420.177 133.2 419.937 127.1 421.557 119.7C423.187 112.3 425.017 105.37 427.047 98.9C429.077 92.43 429.607 88.07 428.607 85.8C427.557 83.4 425.767 82.2 423.227 82.2C415.627 82.2 408.547 88.03 401.997 99.7C395.437 111.37 391.677 126.13 390.697 144C390.377 148.13 388.017 150.2 383.617 150.2C378.417 150.2 374.827 147.93 372.837 143.4C371.607 140.6 371.387 135.07 372.167 126.8L378.217 77.6C378.657 73.73 381.207 71.8 385.877 71.8C391.477 71.8 395.157 73.8 396.907 77.8C397.547 79.27 397.747 80.87 397.507 82.6C397.267 84.33 396.747 86.8 395.947 90C395.147 93.2 394.617 96.33 394.367 99.4L394.947 99.8C396.867 91.4 400.727 84 406.527 77.6C412.327 71.2 418.417 68 424.817 68C429.347 68 433.597 69.33 437.567 72C441.537 74.67 444.457 78.13 446.317 82.4C448.247 86.8 448.397 92.7 446.767 100.1C445.137 107.5 443.277 114.43 441.177 120.9C439.077 127.37 438.497 131.67 439.427 133.8C440.307 135.8 441.807 136.8 443.937 136.8C450.607 136.8 457.657 126.87 465.087 107C466.607 104.07 467.897 102.6 468.957 102.6C470.557 102.6 471.897 103.3 472.977 104.7C474.057 106.1 474.397 107.4 473.987 108.6C470.307 122.73 466.147 133.4 461.497 140.6C456.847 147.8 450.927 151.4 443.727 151.4C439.327 151.4 435.147 150.3 431.187 148.1H431.197Z" fill="white"/>
<path d="M476.097 147.4C468.917 142.73 463.757 136.8 460.597 129.6C456.977 121.33 456.717 114.5 459.817 109.1C462.917 103.7 466.937 102.07 471.867 104.2C475.627 99.4 482.227 87.67 491.647 69C493.867 64.33 496.847 62 500.577 62C502.047 62 503.577 62.53 505.177 63.6C506.777 64.67 507.977 66.27 508.777 68.4C509.507 71.6 508.167 76.13 504.737 82C504.997 85.33 507.297 90.13 511.647 96.4C515.987 102.67 519.217 108.2 521.317 113C524.237 119.67 525.207 126.13 524.217 132.4C528.667 127.33 532.957 118.87 537.087 107C538.067 104.07 539.297 102.6 540.757 102.6C542.487 102.6 543.867 103.3 544.877 104.7C545.887 106.1 546.197 107.4 545.787 108.6C542.427 121.93 536.927 132.9 529.297 141.5C521.667 150.1 511.717 154.4 499.447 154.4C491.047 154.4 483.257 152.07 476.077 147.4H476.097ZM499.687 102.4C497.387 98.67 495.907 96.2 495.247 95C487.377 104.73 482.637 110.8 481.017 113.2C482.297 116.13 481.807 119.73 479.547 124C477.287 128.27 476.767 131.8 477.987 134.6C478.687 136.2 479.857 137.5 481.497 138.5C483.137 139.5 484.887 140 486.757 140C492.627 140 497.927 137.2 502.677 131.6C507.427 126 508.047 119.2 504.547 111.2C503.617 109.07 501.997 106.13 499.697 102.4H499.687Z" fill="#404142"/>
<path d="M476.097 147.4C468.917 142.73 463.757 136.8 460.597 129.6C456.977 121.33 456.717 114.5 459.817 109.1C462.917 103.7 466.937 102.07 471.867 104.2C475.627 99.4 482.227 87.67 491.647 69C493.867 64.33 496.847 62 500.577 62C502.047 62 503.577 62.53 505.177 63.6C506.777 64.67 507.977 66.27 508.777 68.4C509.507 71.6 508.167 76.13 504.737 82C504.997 85.33 507.297 90.13 511.647 96.4C515.987 102.67 519.217 108.2 521.317 113C524.237 119.67 525.207 126.13 524.217 132.4C528.667 127.33 532.957 118.87 537.087 107C538.067 104.07 539.297 102.6 540.757 102.6C542.487 102.6 543.867 103.3 544.877 104.7C545.887 106.1 546.197 107.4 545.787 108.6C542.427 121.93 536.927 132.9 529.297 141.5C521.667 150.1 511.717 154.4 499.447 154.4C491.047 154.4 483.257 152.07 476.077 147.4H476.097ZM499.687 102.4C497.387 98.67 495.907 96.2 495.247 95C487.377 104.73 482.637 110.8 481.017 113.2C482.297 116.13 481.807 119.73 479.547 124C477.287 128.27 476.767 131.8 477.987 134.6C478.687 136.2 479.857 137.5 481.497 138.5C483.137 139.5 484.887 140 486.757 140C492.627 140 497.927 137.2 502.677 131.6C507.427 126 508.047 119.2 504.547 111.2C503.617 109.07 501.997 106.13 499.697 102.4H499.687Z" fill="white"/>
<path d="M528.588 72.4996C529.248 70.9696 531.118 70.1996 534.178 70.1996H544.378L546.808 58.3996C549.728 42.5296 551.878 32.5996 553.258 28.5996C554.638 24.5996 556.928 22.5996 560.128 22.5996C563.058 22.5996 565.318 23.0296 566.898 23.8996C568.478 24.7696 569.738 26.2696 570.668 28.3996C571.198 29.5996 571.508 30.9296 571.618 32.3996C571.728 33.8696 571.528 35.7696 571.018 38.0996C570.508 40.4296 569.958 42.8296 569.368 45.2996C568.778 47.7696 567.908 51.3996 566.738 56.1996C565.578 60.9996 564.478 65.7296 563.458 70.3996C571.838 70.6696 576.168 70.7996 576.438 70.7996C577.558 70.9296 578.518 71.0696 579.318 71.1996C580.108 71.3296 580.948 71.7296 581.848 72.3996C582.738 73.0696 583.418 73.9296 583.888 74.9996C584.798 78.5996 583.488 80.9296 579.958 81.9996C577.698 82.9296 571.328 83.5996 560.838 83.9996L558.148 101.6C556.138 114.67 556.298 123.87 558.638 129.2C560.678 133.87 563.708 136.2 567.708 136.2C571.708 136.2 575.278 133.93 578.428 129.4C581.578 124.87 585.208 117.4 589.318 107C590.568 104.07 591.788 102.6 592.988 102.6C594.718 102.6 596.098 103.3 597.108 104.7C598.118 106.1 598.428 107.4 598.018 108.6C594.458 123 590.258 133.8 585.408 141C580.558 148.2 573.868 151.8 565.338 151.8C554.268 151.8 546.168 145.93 541.028 134.2C538.458 128.33 537.288 122 537.508 115.2C537.728 108.4 539.138 98.0696 541.728 84.1996C534.828 83.6696 530.558 81.5296 528.928 77.7996C528.048 75.7996 527.948 74.0296 528.608 72.4996H528.588Z" fill="#404142"/>
<path d="M528.588 72.4996C529.248 70.9696 531.118 70.1996 534.178 70.1996H544.378L546.808 58.3996C549.728 42.5296 551.878 32.5996 553.258 28.5996C554.638 24.5996 556.928 22.5996 560.128 22.5996C563.058 22.5996 565.318 23.0296 566.898 23.8996C568.478 24.7696 569.738 26.2696 570.668 28.3996C571.198 29.5996 571.508 30.9296 571.618 32.3996C571.728 33.8696 571.528 35.7696 571.018 38.0996C570.508 40.4296 569.958 42.8296 569.368 45.2996C568.778 47.7696 567.908 51.3996 566.738 56.1996C565.578 60.9996 564.478 65.7296 563.458 70.3996C571.838 70.6696 576.168 70.7996 576.438 70.7996C577.558 70.9296 578.518 71.0696 579.318 71.1996C580.108 71.3296 580.948 71.7296 581.848 72.3996C582.738 73.0696 583.418 73.9296 583.888 74.9996C584.798 78.5996 583.488 80.9296 579.958 81.9996C577.698 82.9296 571.328 83.5996 560.838 83.9996L558.148 101.6C556.138 114.67 556.298 123.87 558.638 129.2C560.678 133.87 563.708 136.2 567.708 136.2C571.708 136.2 575.278 133.93 578.428 129.4C581.578 124.87 585.208 117.4 589.318 107C590.568 104.07 591.788 102.6 592.988 102.6C594.718 102.6 596.098 103.3 597.108 104.7C598.118 106.1 598.428 107.4 598.018 108.6C594.458 123 590.258 133.8 585.408 141C580.558 148.2 573.868 151.8 565.338 151.8C554.268 151.8 546.168 145.93 541.028 134.2C538.458 128.33 537.288 122 537.508 115.2C537.728 108.4 539.138 98.0696 541.728 84.1996C534.828 83.6696 530.558 81.5296 528.928 77.7996C528.048 75.7996 527.948 74.0296 528.608 72.4996H528.588Z" fill="white"/>
<path d="M620.925 148.4C617.335 146.13 614.575 142.8 612.645 138.4C610.835 134.27 610.465 128.7 611.535 121.7C612.605 114.7 614.415 106.9 616.985 98.2998C619.555 89.6998 621.115 83.5998 621.675 79.9998C618.515 80.3998 612.855 81.4698 604.675 83.1998C603.695 88.2698 601.365 97.2698 597.705 110.2C596.985 114.33 595.625 116.4 593.625 116.4C591.495 116.4 589.875 115.13 588.765 112.6C588.595 112.2 588.765 110.33 589.315 107C592.185 98.3298 594.325 90.7298 595.725 84.1998C594.525 84.1998 592.965 83.5998 591.035 82.3998C589.105 81.1998 587.675 79.5298 586.745 77.3998C585.115 73.6698 585.165 70.2998 586.925 67.2998C588.675 64.2998 591.485 62.7998 595.355 62.7998C600.555 62.7998 604.235 65.2698 606.395 70.1998C606.685 70.8698 606.935 71.4998 607.125 72.0998C607.325 72.6998 607.425 73.2298 607.425 73.6998C607.425 74.1698 607.495 74.5298 607.605 74.7998C618.705 72.1298 626.585 70.7998 631.255 70.7998C635.655 70.7998 638.845 73.0698 640.835 77.5998C641.945 80.1298 642.025 83.0698 641.085 86.3998C632.465 113.6 629.115 129.4 631.045 133.8C631.925 135.8 633.425 136.8 635.555 136.8C642.355 136.8 649.475 126.87 656.905 107C658.155 104.07 659.375 102.6 660.575 102.6C662.305 102.6 663.685 103.3 664.695 104.7C665.705 106.1 666.015 107.4 665.605 108.6C661.925 122.73 657.525 133.47 652.405 140.8C647.285 148.13 640.655 151.8 632.525 151.8C628.395 151.8 624.525 150.67 620.935 148.4H620.925Z" fill="#404142"/>
<path d="M620.925 148.4C617.335 146.13 614.575 142.8 612.645 138.4C610.835 134.27 610.465 128.7 611.535 121.7C612.605 114.7 614.415 106.9 616.985 98.2998C619.555 89.6998 621.115 83.5998 621.675 79.9998C618.515 80.3998 612.855 81.4698 604.675 83.1998C603.695 88.2698 601.365 97.2698 597.705 110.2C596.985 114.33 595.625 116.4 593.625 116.4C591.495 116.4 589.875 115.13 588.765 112.6C588.595 112.2 588.765 110.33 589.315 107C592.185 98.3298 594.325 90.7298 595.725 84.1998C594.525 84.1998 592.965 83.5998 591.035 82.3998C589.105 81.1998 587.675 79.5298 586.745 77.3998C585.115 73.6698 585.165 70.2998 586.925 67.2998C588.675 64.2998 591.485 62.7998 595.355 62.7998C600.555 62.7998 604.235 65.2698 606.395 70.1998C606.685 70.8698 606.935 71.4998 607.125 72.0998C607.325 72.6998 607.425 73.2298 607.425 73.6998C607.425 74.1698 607.495 74.5298 607.605 74.7998C618.705 72.1298 626.585 70.7998 631.255 70.7998C635.655 70.7998 638.845 73.0698 640.835 77.5998C641.945 80.1298 642.025 83.0698 641.085 86.3998C632.465 113.6 629.115 129.4 631.045 133.8C631.925 135.8 633.425 136.8 635.555 136.8C642.355 136.8 649.475 126.87 656.905 107C658.155 104.07 659.375 102.6 660.575 102.6C662.305 102.6 663.685 103.3 664.695 104.7C665.705 106.1 666.015 107.4 665.605 108.6C661.925 122.73 657.525 133.47 652.405 140.8C647.285 148.13 640.655 151.8 632.525 151.8C628.395 151.8 624.525 150.67 620.935 148.4H620.925Z" fill="white"/>
<path d="M675.906 144.7C669.236 139.97 664.206 133.73 660.816 126C656.316 115.73 655.166 105.93 657.336 96.6002C659.516 87.2702 663.716 80.0302 669.936 74.9002C676.156 69.7702 682.996 67.2002 690.466 67.2002C696.336 67.2002 701.726 68.7002 706.636 71.7002C711.546 74.7002 715.266 79.0702 717.776 84.8002C721.226 92.6702 719.696 99.4702 713.206 105.2C706.716 110.93 694.906 112.67 677.786 110.4C677.946 115.33 679.016 120.07 681.006 124.6C682.636 128.33 684.996 131.27 688.056 133.4C691.126 135.53 694.656 136.6 698.656 136.6C712.256 136.6 722.736 126.73 730.096 107C731.616 104.07 732.906 102.6 733.966 102.6C735.696 102.6 737.076 103.3 738.086 104.7C739.096 106.1 739.406 107.4 738.996 108.6C736.956 120.07 732.166 130.13 724.626 138.8C717.086 147.47 708.116 151.8 697.726 151.8C689.856 151.8 682.586 149.43 675.916 144.7H675.906ZM686.676 85.5002C682.276 90.3702 679.456 96.2702 678.226 103.2C689.896 104.27 698.126 102.67 702.926 98.4002C707.726 94.1302 708.956 89.3302 706.616 84.0002C704.926 80.1302 702.476 78.2002 699.276 78.2002C695.276 78.2002 691.076 80.6302 686.676 85.5002Z" fill="#404142"/>
<path d="M675.906 144.7C669.236 139.97 664.206 133.73 660.816 126C656.316 115.73 655.166 105.93 657.336 96.6002C659.516 87.2702 663.716 80.0302 669.936 74.9002C676.156 69.7702 682.996 67.2002 690.466 67.2002C696.336 67.2002 701.726 68.7002 706.636 71.7002C711.546 74.7002 715.266 79.0702 717.776 84.8002C721.226 92.6702 719.696 99.4702 713.206 105.2C706.716 110.93 694.906 112.67 677.786 110.4C677.946 115.33 679.016 120.07 681.006 124.6C682.636 128.33 684.996 131.27 688.056 133.4C691.126 135.53 694.656 136.6 698.656 136.6C712.256 136.6 722.736 126.73 730.096 107C731.616 104.07 732.906 102.6 733.966 102.6C735.696 102.6 737.076 103.3 738.086 104.7C739.096 106.1 739.406 107.4 738.996 108.6C736.956 120.07 732.166 130.13 724.626 138.8C717.086 147.47 708.116 151.8 697.726 151.8C689.856 151.8 682.586 149.43 675.916 144.7H675.906ZM686.676 85.5002C682.276 90.3702 679.456 96.2702 678.226 103.2C689.896 104.27 698.126 102.67 702.926 98.4002C707.726 94.1302 708.956 89.3302 706.616 84.0002C704.926 80.1302 702.476 78.2002 699.276 78.2002C695.276 78.2002 691.076 80.6302 686.676 85.5002Z" fill="white"/>
<path d="M749.101 144.7C742.431 139.97 737.401 133.73 734.011 126C729.511 115.73 728.361 105.93 730.531 96.6002C732.711 87.2702 736.911 80.0302 743.131 74.9002C749.351 69.7702 756.191 67.2002 763.661 67.2002C769.531 67.2002 774.921 68.7002 779.831 71.7002C784.741 74.7002 788.461 79.0702 790.971 84.8002C794.421 92.6702 792.891 99.4702 786.401 105.2C779.911 110.93 768.101 112.67 750.981 110.4C751.141 115.33 752.211 120.07 754.201 124.6C755.831 128.33 758.191 131.27 761.251 133.4C764.321 135.53 767.851 136.6 771.851 136.6C785.451 136.6 795.931 126.73 803.291 107C804.811 104.07 806.101 102.6 807.161 102.6C808.891 102.6 810.271 103.3 811.281 104.7C812.291 106.1 812.601 107.4 812.191 108.6C810.151 120.07 805.361 130.13 797.821 138.8C790.281 147.47 781.311 151.8 770.921 151.8C763.051 151.8 755.781 149.43 749.111 144.7H749.101ZM759.871 85.5002C755.471 90.3702 752.651 96.2702 751.421 103.2C763.091 104.27 771.321 102.67 776.121 98.4002C780.921 94.1302 782.151 89.3302 779.811 84.0002C778.121 80.1302 775.671 78.2002 772.471 78.2002C768.471 78.2002 764.271 80.6302 759.871 85.5002Z" fill="#404142"/>
<path d="M749.101 144.7C742.431 139.97 737.401 133.73 734.011 126C729.511 115.73 728.361 105.93 730.531 96.6002C732.711 87.2702 736.911 80.0302 743.131 74.9002C749.351 69.7702 756.191 67.2002 763.661 67.2002C769.531 67.2002 774.921 68.7002 779.831 71.7002C784.741 74.7002 788.461 79.0702 790.971 84.8002C794.421 92.6702 792.891 99.4702 786.401 105.2C779.911 110.93 768.101 112.67 750.981 110.4C751.141 115.33 752.211 120.07 754.201 124.6C755.831 128.33 758.191 131.27 761.251 133.4C764.321 135.53 767.851 136.6 771.851 136.6C785.451 136.6 795.931 126.73 803.291 107C804.811 104.07 806.101 102.6 807.161 102.6C808.891 102.6 810.271 103.3 811.281 104.7C812.291 106.1 812.601 107.4 812.191 108.6C810.151 120.07 805.361 130.13 797.821 138.8C790.281 147.47 781.311 151.8 770.921 151.8C763.051 151.8 755.781 149.43 749.111 144.7H749.101ZM759.871 85.5002C755.471 90.3702 752.651 96.2702 751.421 103.2C763.091 104.27 771.321 102.67 776.121 98.4002C780.921 94.1302 782.151 89.3302 779.811 84.0002C778.121 80.1302 775.671 78.2002 772.471 78.2002C768.471 78.2002 764.271 80.6302 759.871 85.5002Z" fill="white"/>
<path d="M794.783 72.4996C795.443 70.9696 797.313 70.1996 800.373 70.1996H810.573L813.003 58.3996C815.923 42.5296 818.073 32.5996 819.453 28.5996C820.833 24.5996 823.123 22.5996 826.323 22.5996C829.253 22.5996 831.513 23.0296 833.093 23.8996C834.673 24.7696 835.933 26.2696 836.863 28.3996C837.393 29.5996 837.703 30.9296 837.813 32.3996C837.923 33.8696 837.723 35.7696 837.213 38.0996C836.703 40.4296 836.153 42.8296 835.563 45.2996C834.973 47.7696 834.103 51.3996 832.933 56.1996C831.773 60.9996 830.673 65.7296 829.653 70.3996C838.033 70.6696 842.363 70.7996 842.633 70.7996C843.753 70.9296 844.713 71.0696 845.513 71.1996C846.303 71.3296 847.143 71.7296 848.043 72.3996C848.933 73.0696 849.613 73.9296 850.083 74.9996C850.993 78.5996 849.683 80.9296 846.153 81.9996C843.893 82.9296 837.523 83.5996 827.033 83.9996L824.343 101.6C822.333 114.67 822.493 123.87 824.833 129.2C826.873 133.87 829.903 136.2 833.903 136.2C837.903 136.2 841.473 133.93 844.623 129.4C847.773 124.87 851.403 117.4 855.513 107C856.763 104.07 857.983 102.6 859.183 102.6C860.913 102.6 862.293 103.3 863.303 104.7C864.313 106.1 864.623 107.4 864.213 108.6C860.653 123 856.453 133.8 851.603 141C846.753 148.2 840.063 151.8 831.533 151.8C820.463 151.8 812.363 145.93 807.223 134.2C804.653 128.33 803.483 122 803.703 115.2C803.923 108.4 805.333 98.0696 807.923 84.1996C801.023 83.6696 796.753 81.5296 795.123 77.7996C794.243 75.7996 794.143 74.0296 794.803 72.4996H794.783Z" fill="#404142"/>
<path d="M794.783 72.4996C795.443 70.9696 797.313 70.1996 800.373 70.1996H810.573L813.003 58.3996C815.923 42.5296 818.073 32.5996 819.453 28.5996C820.833 24.5996 823.123 22.5996 826.323 22.5996C829.253 22.5996 831.513 23.0296 833.093 23.8996C834.673 24.7696 835.933 26.2696 836.863 28.3996C837.393 29.5996 837.703 30.9296 837.813 32.3996C837.923 33.8696 837.723 35.7696 837.213 38.0996C836.703 40.4296 836.153 42.8296 835.563 45.2996C834.973 47.7696 834.103 51.3996 832.933 56.1996C831.773 60.9996 830.673 65.7296 829.653 70.3996C838.033 70.6696 842.363 70.7996 842.633 70.7996C843.753 70.9296 844.713 71.0696 845.513 71.1996C846.303 71.3296 847.143 71.7296 848.043 72.3996C848.933 73.0696 849.613 73.9296 850.083 74.9996C850.993 78.5996 849.683 80.9296 846.153 81.9996C843.893 82.9296 837.523 83.5996 827.033 83.9996L824.343 101.6C822.333 114.67 822.493 123.87 824.833 129.2C826.873 133.87 829.903 136.2 833.903 136.2C837.903 136.2 841.473 133.93 844.623 129.4C847.773 124.87 851.403 117.4 855.513 107C856.763 104.07 857.983 102.6 859.183 102.6C860.913 102.6 862.293 103.3 863.303 104.7C864.313 106.1 864.623 107.4 864.213 108.6C860.653 123 856.453 133.8 851.603 141C846.753 148.2 840.063 151.8 831.533 151.8C820.463 151.8 812.363 145.93 807.223 134.2C804.653 128.33 803.483 122 803.703 115.2C803.923 108.4 805.333 98.0696 807.923 84.1996C801.023 83.6696 796.753 81.5296 795.123 77.7996C794.243 75.7996 794.143 74.0296 794.803 72.4996H794.783Z" fill="white"/>
</svg>
