<svg xmlns="http://www.w3.org/2000/svg" xmlns:xlink="http://www.w3.org/1999/xlink" width="500" zoomAndPan="magnify" viewBox="0 0 375 374.999991" height="500" preserveAspectRatio="xMidYMid meet" version="1.0"><defs><g/></defs><rect x="-37.5" width="450" fill="#ffffff" y="-37.499999" height="449.999989" fill-opacity="1"/><rect x="-37.5" width="450" fill="#ffffff" y="-37.499999" height="449.999989" fill-opacity="1"/><g fill="#000000" fill-opacity="1"><g transform="translate(43.816715, 212.554189)"><g><path d="M 29.015625 -44.25 C 32.703125 -44.25 36.015625 -43.445312 38.953125 -41.84375 C 41.898438 -40.238281 44.203125 -37.898438 45.859375 -34.828125 C 47.515625 -31.753906 48.34375 -28.054688 48.34375 -23.734375 L 48.34375 -4.015625 C 48.34375 -2.835938 47.953125 -1.859375 47.171875 -1.078125 C 46.398438 -0.304688 45.425781 0.078125 44.25 0.078125 C 43.070312 0.078125 42.097656 -0.304688 41.328125 -1.078125 C 40.554688 -1.859375 40.171875 -2.835938 40.171875 -4.015625 L 40.171875 -23.734375 C 40.171875 -28.054688 39.003906 -31.328125 36.671875 -33.546875 C 34.347656 -35.765625 31.265625 -36.875 27.421875 -36.875 C 25.171875 -36.875 23.125 -36.421875 21.28125 -35.515625 C 19.4375 -34.609375 17.992188 -33.378906 16.953125 -31.828125 C 15.910156 -30.273438 15.390625 -28.535156 15.390625 -26.609375 L 15.390625 -4.015625 C 15.390625 -2.835938 15.015625 -1.859375 14.265625 -1.078125 C 13.515625 -0.304688 12.523438 0.078125 11.296875 0.078125 C 10.128906 0.078125 9.15625 -0.304688 8.375 -1.078125 C 7.601562 -1.859375 7.21875 -2.835938 7.21875 -4.015625 L 7.21875 -39.765625 C 7.21875 -40.992188 7.601562 -41.984375 8.375 -42.734375 C 9.15625 -43.484375 10.128906 -43.859375 11.296875 -43.859375 C 12.523438 -43.859375 13.515625 -43.484375 14.265625 -42.734375 C 15.015625 -41.984375 15.390625 -40.992188 15.390625 -39.765625 L 15.390625 -38.890625 C 17.097656 -40.597656 19.128906 -41.914062 21.484375 -42.84375 C 23.835938 -43.78125 26.347656 -44.25 29.015625 -44.25 Z M 29.015625 -44.25 "/></g></g></g><g fill="#000000" fill-opacity="1"><g transform="translate(98.494857, 212.554189)"><g><path d="M 43.375 -43.9375 C 44.601562 -43.9375 45.59375 -43.5625 46.34375 -42.8125 C 47.09375 -42.0625 47.46875 -41.070312 47.46875 -39.84375 L 47.46875 -4.09375 C 47.46875 -2.914062 47.09375 -1.9375 46.34375 -1.15625 C 45.59375 -0.382812 44.601562 0 43.375 0 C 42.195312 0 41.21875 -0.382812 40.4375 -1.15625 C 39.664062 -1.9375 39.28125 -2.914062 39.28125 -4.09375 L 39.28125 -4.96875 C 37.570312 -3.257812 35.539062 -1.9375 33.1875 -1 C 30.832031 -0.0625 28.320312 0.40625 25.65625 0.40625 C 21.96875 0.40625 18.648438 -0.394531 15.703125 -2 C 12.765625 -3.601562 10.46875 -5.941406 8.8125 -9.015625 C 7.15625 -12.085938 6.328125 -15.789062 6.328125 -20.125 L 6.328125 -39.84375 C 6.328125 -41.019531 6.710938 -41.992188 7.484375 -42.765625 C 8.265625 -43.546875 9.242188 -43.9375 10.421875 -43.9375 C 11.597656 -43.9375 12.570312 -43.546875 13.34375 -42.765625 C 14.125 -41.992188 14.515625 -41.019531 14.515625 -39.84375 L 14.515625 -20.125 C 14.515625 -15.789062 15.675781 -12.515625 18 -10.296875 C 20.320312 -8.078125 23.410156 -6.96875 27.265625 -6.96875 C 29.503906 -6.96875 31.546875 -7.421875 33.390625 -8.328125 C 35.234375 -9.242188 36.675781 -10.472656 37.71875 -12.015625 C 38.757812 -13.566406 39.28125 -15.304688 39.28125 -17.234375 L 39.28125 -39.84375 C 39.28125 -41.070312 39.664062 -42.0625 40.4375 -42.8125 C 41.21875 -43.5625 42.195312 -43.9375 43.375 -43.9375 Z M 43.375 -43.9375 "/></g></g></g><g fill="#000000" fill-opacity="1"><g transform="translate(153.172998, 212.554189)"><g><path d="M 27.09375 0.328125 C 22.875 0.328125 19.078125 -0.632812 15.703125 -2.5625 C 12.335938 -4.488281 9.707031 -7.148438 7.8125 -10.546875 C 5.914062 -13.941406 4.96875 -17.722656 4.96875 -21.890625 C 4.96875 -26.160156 5.890625 -29.992188 7.734375 -33.390625 C 9.578125 -36.785156 12.15625 -39.429688 15.46875 -41.328125 C 18.78125 -43.222656 22.523438 -44.171875 26.703125 -44.171875 C 33.003906 -44.171875 38.238281 -41.765625 42.40625 -36.953125 C 42.945312 -36.367188 43.21875 -35.675781 43.21875 -34.875 C 43.21875 -33.695312 42.628906 -32.707031 41.453125 -31.90625 C 40.910156 -31.53125 40.296875 -31.34375 39.609375 -31.34375 C 38.378906 -31.34375 37.335938 -31.828125 36.484375 -32.796875 C 35.140625 -34.234375 33.679688 -35.285156 32.109375 -35.953125 C 30.535156 -36.617188 28.734375 -36.953125 26.703125 -36.953125 C 22.585938 -36.953125 19.242188 -35.578125 16.671875 -32.828125 C 14.109375 -30.078125 12.828125 -26.429688 12.828125 -21.890625 C 12.828125 -19.003906 13.425781 -16.425781 14.625 -14.15625 C 15.832031 -11.882812 17.515625 -10.101562 19.671875 -8.8125 C 21.835938 -7.53125 24.3125 -6.890625 27.09375 -6.890625 C 30.726562 -6.890625 33.671875 -7.828125 35.921875 -9.703125 C 36.929688 -10.453125 37.921875 -10.828125 38.890625 -10.828125 C 39.628906 -10.828125 40.320312 -10.585938 40.96875 -10.109375 C 41.976562 -9.242188 42.484375 -8.28125 42.484375 -7.21875 C 42.484375 -6.414062 42.164062 -5.691406 41.53125 -5.046875 C 37.675781 -1.460938 32.863281 0.328125 27.09375 0.328125 Z M 27.09375 0.328125 "/></g></g></g><g fill="#000000" fill-opacity="1"><g transform="translate(201.357088, 212.554189)"><g><path d="M 27.09375 -44.171875 C 31.207031 -44.171875 34.9375 -43.195312 38.28125 -41.25 C 41.625 -39.300781 44.269531 -36.628906 46.21875 -33.234375 C 48.164062 -29.835938 49.140625 -26.054688 49.140625 -21.890625 L 49.140625 -4.015625 C 49.140625 -2.835938 48.753906 -1.859375 47.984375 -1.078125 C 47.210938 -0.304688 46.238281 0.078125 45.0625 0.078125 C 43.882812 0.078125 42.90625 -0.304688 42.125 -1.078125 C 41.351562 -1.859375 40.96875 -2.835938 40.96875 -4.015625 L 40.96875 -6.96875 C 39.09375 -4.675781 36.816406 -2.882812 34.140625 -1.59375 C 31.472656 -0.3125 28.59375 0.328125 25.5 0.328125 C 21.644531 0.328125 18.15625 -0.632812 15.03125 -2.5625 C 11.90625 -4.488281 9.445312 -7.148438 7.65625 -10.546875 C 5.863281 -13.941406 4.96875 -17.722656 4.96875 -21.890625 C 4.96875 -26.054688 5.929688 -29.835938 7.859375 -33.234375 C 9.785156 -36.628906 12.441406 -39.300781 15.828125 -41.25 C 19.222656 -43.195312 22.976562 -44.171875 27.09375 -44.171875 Z M 27.09375 -6.890625 C 29.769531 -6.890625 32.1875 -7.546875 34.34375 -8.859375 C 36.507812 -10.171875 38.207031 -11.960938 39.4375 -14.234375 C 40.664062 -16.503906 41.28125 -19.054688 41.28125 -21.890625 C 41.28125 -24.722656 40.664062 -27.285156 39.4375 -29.578125 C 38.207031 -31.878906 36.507812 -33.679688 34.34375 -34.984375 C 32.1875 -36.296875 29.769531 -36.953125 27.09375 -36.953125 C 24.425781 -36.953125 22.007812 -36.296875 19.84375 -34.984375 C 17.675781 -33.679688 15.960938 -31.878906 14.703125 -29.578125 C 13.453125 -27.285156 12.828125 -24.722656 12.828125 -21.890625 C 12.828125 -19.054688 13.453125 -16.503906 14.703125 -14.234375 C 15.960938 -11.960938 17.675781 -10.171875 19.84375 -8.859375 C 22.007812 -7.546875 24.425781 -6.890625 27.09375 -6.890625 Z M 27.09375 -6.890625 "/></g></g></g><g fill="#000000" fill-opacity="1"><g transform="translate(255.474018, 212.554189)"><g><path d="M 23.171875 0.328125 C 19.535156 0.328125 16.113281 -0.234375 12.90625 -1.359375 C 9.695312 -2.484375 7.1875 -3.953125 5.375 -5.765625 C 4.675781 -6.460938 4.328125 -7.289062 4.328125 -8.25 C 4.328125 -9.539062 4.863281 -10.585938 5.9375 -11.390625 C 6.945312 -12.128906 7.878906 -12.5 8.734375 -12.5 C 9.804688 -12.5 10.820312 -12.019531 11.78125 -11.0625 C 12.800781 -9.9375 14.328125 -8.957031 16.359375 -8.125 C 18.390625 -7.300781 20.550781 -6.890625 22.84375 -6.890625 C 25.894531 -6.890625 28.257812 -7.394531 29.9375 -8.40625 C 31.625 -9.425781 32.46875 -10.789062 32.46875 -12.5 C 32.46875 -14.15625 31.640625 -15.53125 29.984375 -16.625 C 28.328125 -17.726562 25.519531 -18.65625 21.5625 -19.40625 C 11.300781 -21.382812 6.171875 -25.601562 6.171875 -32.0625 C 6.171875 -34.6875 6.945312 -36.90625 8.5 -38.71875 C 10.050781 -40.539062 12.082031 -41.90625 14.59375 -42.8125 C 17.101562 -43.71875 19.773438 -44.171875 22.609375 -44.171875 C 26.078125 -44.171875 29.1875 -43.609375 31.9375 -42.484375 C 34.695312 -41.367188 36.878906 -39.820312 38.484375 -37.84375 C 39.179688 -36.988281 39.53125 -36.132812 39.53125 -35.28125 C 39.53125 -34.363281 39.070312 -33.535156 38.15625 -32.796875 C 37.570312 -32.367188 36.828125 -32.15625 35.921875 -32.15625 C 34.523438 -32.15625 33.269531 -32.660156 32.15625 -33.671875 C 30.8125 -34.898438 29.390625 -35.769531 27.890625 -36.28125 C 26.398438 -36.789062 24.585938 -37.046875 22.453125 -37.046875 C 19.992188 -37.046875 17.972656 -36.628906 16.390625 -35.796875 C 14.816406 -34.960938 14.03125 -33.800781 14.03125 -32.3125 C 14.03125 -31.238281 14.296875 -30.34375 14.828125 -29.625 C 15.367188 -28.90625 16.382812 -28.238281 17.875 -27.625 C 19.375 -27.007812 21.539062 -26.40625 24.375 -25.8125 C 30.195312 -24.632812 34.320312 -23.003906 36.75 -20.921875 C 39.1875 -18.835938 40.40625 -16.140625 40.40625 -12.828125 C 40.40625 -10.367188 39.734375 -8.132812 38.390625 -6.125 C 37.054688 -4.125 35.09375 -2.546875 32.5 -1.390625 C 29.914062 -0.242188 26.804688 0.328125 23.171875 0.328125 Z M 23.171875 0.328125 "/></g></g></g><g fill="#000000" fill-opacity="1"><g transform="translate(299.008103, 212.554189)"><g><path d="M 25.890625 -8.015625 C 26.859375 -8.015625 27.675781 -7.640625 28.34375 -6.890625 C 29.007812 -6.140625 29.34375 -5.179688 29.34375 -4.015625 C 29.34375 -2.835938 28.898438 -1.875 28.015625 -1.125 C 27.140625 -0.375 26.003906 0 24.609375 0 L 23.171875 0 C 20.546875 0 18.148438 -0.679688 15.984375 -2.046875 C 13.828125 -3.410156 12.132812 -5.265625 10.90625 -7.609375 C 9.675781 -9.960938 9.0625 -12.609375 9.0625 -15.546875 L 9.0625 -35.359375 L 5.375 -35.359375 C 4.25 -35.359375 3.335938 -35.675781 2.640625 -36.3125 C 1.953125 -36.957031 1.609375 -37.757812 1.609375 -38.71875 C 1.609375 -39.789062 1.953125 -40.644531 2.640625 -41.28125 C 3.335938 -41.925781 4.25 -42.25 5.375 -42.25 L 9.0625 -42.25 L 9.0625 -53.796875 C 9.0625 -54.972656 9.429688 -55.929688 10.171875 -56.671875 C 10.921875 -57.421875 11.882812 -57.796875 13.0625 -57.796875 C 14.238281 -57.796875 15.203125 -57.421875 15.953125 -56.671875 C 16.703125 -55.929688 17.078125 -54.972656 17.078125 -53.796875 L 17.078125 -42.25 L 23.890625 -42.25 C 25.015625 -42.25 25.921875 -41.925781 26.609375 -41.28125 C 27.304688 -40.644531 27.65625 -39.789062 27.65625 -38.71875 C 27.65625 -37.757812 27.304688 -36.957031 26.609375 -36.3125 C 25.921875 -35.675781 25.015625 -35.359375 23.890625 -35.359375 L 17.078125 -35.359375 L 17.078125 -15.546875 C 17.078125 -13.410156 17.664062 -11.617188 18.84375 -10.171875 C 20.019531 -8.734375 21.460938 -8.015625 23.171875 -8.015625 Z M 25.890625 -8.015625 "/></g></g></g></svg>