<?xml version="1.0" encoding="UTF-8" standalone="no"?>
<!DOCTYPE svg PUBLIC "-//W3C//DTD SVG 1.1//EN" "http://www.w3.org/Graphics/SVG/1.1/DTD/svg11.dtd">
<svg width="100%" height="100%" viewBox="0 0 500 500" version="1.1" xmlns="http://www.w3.org/2000/svg" xmlns:xlink="http://www.w3.org/1999/xlink" xml:space="preserve" xmlns:serif="http://www.serif.com/" style="fill-rule:evenodd;clip-rule:evenodd;stroke-linejoin:round;stroke-miterlimit:2;">
    <g transform="matrix(1,0,0,1,58.4223,283.406)">
        <g>
            <g>
                <path d="M38.688,-59C43.604,-59 48.021,-57.927 51.938,-55.792C55.865,-53.651 58.938,-50.531 61.146,-46.437C63.354,-42.339 64.458,-37.406 64.458,-31.646L64.458,-5.354C64.458,-3.781 63.938,-2.479 62.896,-1.437C61.865,-0.406 60.568,0.104 59,0.104C57.427,0.104 56.13,-0.406 55.104,-1.437C54.073,-2.479 53.563,-3.781 53.563,-5.354L53.563,-31.646C53.563,-37.406 52.005,-41.771 48.896,-44.729C45.797,-47.687 41.688,-49.167 36.563,-49.167C33.563,-49.167 30.833,-48.562 28.375,-47.354C25.917,-46.146 23.99,-44.505 22.604,-42.437C21.214,-40.365 20.521,-38.047 20.521,-35.479L20.521,-5.354C20.521,-3.781 20.021,-2.479 19.021,-1.437C18.021,-0.406 16.698,0.104 15.063,0.104C13.505,0.104 12.208,-0.406 11.167,-1.437C10.135,-2.479 9.625,-3.781 9.625,-5.354L9.625,-53.021C9.625,-54.656 10.135,-55.979 11.167,-56.979C12.208,-57.979 13.505,-58.479 15.063,-58.479C16.698,-58.479 18.021,-57.979 19.021,-56.979C20.021,-55.979 20.521,-54.656 20.521,-53.021L20.521,-51.854C22.797,-54.13 25.505,-55.885 28.646,-57.125C31.781,-58.375 35.13,-59 38.688,-59Z" style="fill:white;fill-rule:nonzero;"/>
            </g>
        </g>
    </g>
    <g transform="matrix(1,0,0,1,131.326,283.406)">
        <g>
            <g>
                <path d="M57.833,-58.583C59.469,-58.583 60.792,-58.083 61.792,-57.083C62.792,-56.083 63.292,-54.76 63.292,-53.125L63.292,-5.458C63.292,-3.885 62.792,-2.583 61.792,-1.542C60.792,-0.51 59.469,0 57.833,0C56.26,0 54.958,-0.51 53.917,-1.542C52.885,-2.583 52.375,-3.885 52.375,-5.458L52.375,-6.625C50.094,-4.344 47.385,-2.583 44.25,-1.333C41.109,-0.083 37.76,0.542 34.208,0.542C29.292,0.542 24.865,-0.526 20.938,-2.667C17.021,-4.802 13.958,-7.922 11.75,-12.021C9.542,-16.115 8.438,-21.052 8.438,-26.833L8.438,-53.125C8.438,-54.693 8.948,-55.99 9.979,-57.021C11.021,-58.062 12.323,-58.583 13.896,-58.583C15.464,-58.583 16.76,-58.062 17.792,-57.021C18.833,-55.99 19.354,-54.693 19.354,-53.125L19.354,-26.833C19.354,-21.052 20.901,-16.687 24,-13.729C27.094,-10.771 31.214,-9.292 36.354,-9.292C39.339,-9.292 42.063,-9.896 44.521,-11.104C46.979,-12.323 48.901,-13.964 50.292,-16.021C51.677,-18.089 52.375,-20.406 52.375,-22.979L52.375,-53.125C52.375,-54.76 52.885,-56.083 53.917,-57.083C54.958,-58.083 56.26,-58.583 57.833,-58.583Z" style="fill:white;fill-rule:nonzero;"/>
            </g>
        </g>
    </g>
    <g transform="matrix(1,0,0,1,204.231,283.406)">
        <g>
            <g>
                <path d="M36.125,0.438C30.5,0.438 25.438,-0.844 20.938,-3.417C16.448,-5.984 12.943,-9.531 10.417,-14.062C7.885,-18.589 6.625,-23.63 6.625,-29.187C6.625,-34.88 7.854,-39.99 10.313,-44.521C12.771,-49.047 16.208,-52.573 20.625,-55.104C25.042,-57.63 30.031,-58.896 35.604,-58.896C44.005,-58.896 50.984,-55.687 56.542,-49.271C57.26,-48.49 57.625,-47.568 57.625,-46.5C57.625,-44.927 56.839,-43.609 55.271,-42.542C54.547,-42.042 53.729,-41.792 52.813,-41.792C51.172,-41.792 49.781,-42.437 48.646,-43.729C46.854,-45.646 44.906,-47.047 42.813,-47.937C40.714,-48.823 38.313,-49.271 35.604,-49.271C30.115,-49.271 25.656,-47.437 22.229,-43.771C18.813,-40.104 17.104,-35.24 17.104,-29.187C17.104,-25.339 17.901,-21.901 19.5,-18.875C21.109,-15.844 23.354,-13.469 26.229,-11.75C29.115,-10.042 32.417,-9.187 36.125,-9.187C40.969,-9.187 44.896,-10.437 47.896,-12.937C49.24,-13.937 50.563,-14.437 51.854,-14.437C52.839,-14.437 53.76,-14.115 54.625,-13.479C55.969,-12.323 56.646,-11.042 56.646,-9.625C56.646,-8.552 56.219,-7.589 55.375,-6.729C50.234,-1.948 43.818,0.438 36.125,0.438Z" style="fill:white;fill-rule:nonzero;"/>
            </g>
        </g>
    </g>
    <g transform="matrix(1,0,0,1,268.476,283.406)">
        <g>
            <g>
                <path d="M36.125,-58.896C41.609,-58.896 46.583,-57.594 51.042,-55C55.5,-52.401 59.026,-48.839 61.625,-44.312C64.219,-39.781 65.521,-34.74 65.521,-29.187L65.521,-5.354C65.521,-3.781 65.005,-2.479 63.979,-1.437C62.948,-0.406 61.651,0.104 60.083,0.104C58.51,0.104 57.208,-0.406 56.167,-1.437C55.135,-2.479 54.625,-3.781 54.625,-5.354L54.625,-9.292C52.125,-6.234 49.089,-3.844 45.521,-2.125C41.964,-0.417 38.125,0.438 34,0.438C28.859,0.438 24.208,-0.844 20.042,-3.417C15.875,-5.984 12.594,-9.531 10.208,-14.062C7.818,-18.589 6.625,-23.63 6.625,-29.187C6.625,-34.74 7.906,-39.781 10.479,-44.312C13.047,-48.839 16.589,-52.401 21.104,-55C25.63,-57.594 30.635,-58.896 36.125,-58.896ZM36.125,-9.187C39.693,-9.187 42.917,-10.062 45.792,-11.812C48.677,-13.562 50.943,-15.948 52.583,-18.979C54.219,-22.005 55.042,-25.406 55.042,-29.187C55.042,-32.964 54.219,-36.38 52.583,-39.437C50.943,-42.505 48.677,-44.906 45.792,-46.646C42.917,-48.396 39.693,-49.271 36.125,-49.271C32.568,-49.271 29.344,-48.396 26.458,-46.646C23.568,-44.906 21.281,-42.505 19.604,-39.437C17.938,-36.38 17.104,-32.964 17.104,-29.187C17.104,-25.406 17.938,-22.005 19.604,-18.979C21.281,-15.948 23.568,-13.562 26.458,-11.812C29.344,-10.062 32.568,-9.187 36.125,-9.187Z" style="fill:white;fill-rule:nonzero;"/>
            </g>
        </g>
    </g>
    <g transform="matrix(1,0,0,1,340.632,283.406)">
        <g>
            <g>
                <path d="M30.896,0.438C26.047,0.438 21.484,-0.312 17.208,-1.812C12.927,-3.312 9.583,-5.271 7.167,-7.687C6.234,-8.615 5.771,-9.719 5.771,-11C5.771,-12.719 6.484,-14.115 7.917,-15.187C9.26,-16.172 10.505,-16.667 11.646,-16.667C13.073,-16.667 14.427,-16.026 15.708,-14.75C17.068,-13.25 19.104,-11.943 21.813,-10.833C24.521,-9.734 27.401,-9.187 30.458,-9.187C34.526,-9.187 37.677,-9.859 39.917,-11.208C42.167,-12.568 43.292,-14.385 43.292,-16.667C43.292,-18.875 42.188,-20.708 39.979,-22.167C37.771,-23.635 34.026,-24.875 28.75,-25.875C15.068,-28.51 8.229,-34.135 8.229,-42.75C8.229,-46.25 9.26,-49.208 11.333,-51.625C13.401,-54.052 16.109,-55.875 19.458,-57.083C22.802,-58.292 26.365,-58.896 30.146,-58.896C34.771,-58.896 38.917,-58.146 42.583,-56.646C46.26,-55.156 49.172,-53.094 51.313,-50.458C52.24,-49.318 52.708,-48.177 52.708,-47.042C52.708,-45.818 52.094,-44.714 50.875,-43.729C50.094,-43.156 49.104,-42.875 47.896,-42.875C46.031,-42.875 44.359,-43.547 42.875,-44.896C41.083,-46.531 39.188,-47.693 37.188,-48.375C35.198,-49.052 32.781,-49.396 29.938,-49.396C26.656,-49.396 23.964,-48.839 21.854,-47.729C19.755,-46.615 18.708,-45.068 18.708,-43.083C18.708,-41.651 19.063,-40.458 19.771,-39.5C20.49,-38.542 21.844,-37.651 23.833,-36.833C25.833,-36.01 28.719,-35.208 32.5,-34.417C40.26,-32.844 45.76,-30.672 49,-27.896C52.25,-25.115 53.875,-21.521 53.875,-17.104C53.875,-13.823 52.979,-10.844 51.188,-8.167C49.406,-5.5 46.792,-3.396 43.333,-1.854C39.885,-0.323 35.74,0.438 30.896,0.438Z" style="fill:white;fill-rule:nonzero;"/>
            </g>
        </g>
    </g>
    <g transform="matrix(1,0,0,1,398.677,283.406)">
        <g>
            <g>
                <path d="M34.521,-10.687C35.813,-10.687 36.901,-10.187 37.792,-9.187C38.677,-8.187 39.125,-6.906 39.125,-5.354C39.125,-3.781 38.531,-2.5 37.354,-1.5C36.188,-0.5 34.672,0 32.813,0L30.896,0C27.396,0 24.198,-0.906 21.313,-2.729C18.438,-4.547 16.177,-7.021 14.542,-10.146C12.901,-13.281 12.083,-16.812 12.083,-20.729L12.083,-47.146L7.167,-47.146C5.667,-47.146 4.448,-47.568 3.521,-48.417C2.604,-49.276 2.146,-50.344 2.146,-51.625C2.146,-53.052 2.604,-54.193 3.521,-55.042C4.448,-55.901 5.667,-56.333 7.167,-56.333L12.083,-56.333L12.083,-71.729C12.083,-73.297 12.573,-74.573 13.563,-75.562C14.563,-76.562 15.844,-77.062 17.417,-77.062C18.984,-77.062 20.271,-76.562 21.271,-75.562C22.271,-74.573 22.771,-73.297 22.771,-71.729L22.771,-56.333L31.854,-56.333C33.354,-56.333 34.563,-55.901 35.479,-55.042C36.406,-54.193 36.875,-53.052 36.875,-51.625C36.875,-50.344 36.406,-49.276 35.479,-48.417C34.563,-47.568 33.354,-47.146 31.854,-47.146L22.771,-47.146L22.771,-20.729C22.771,-17.88 23.552,-15.49 25.125,-13.562C26.693,-11.646 28.615,-10.687 30.896,-10.687L34.521,-10.687Z" style="fill:white;fill-rule:nonzero;"/>
            </g>
        </g>
    </g>
</svg>
