<svg xmlns="http://www.w3.org/2000/svg" viewBox="0 0 250 250"><defs><style>.cls-1,.cls-2{fill:#04bfbf;}.cls-1{fill-rule:evenodd;}</style></defs><g id="Logo"><path class="cls-1" d="M199.13,90a8,8,0,0,0-2.94.55C170.87,79,145.76,82.83,125,100.39,104.24,82.83,79.13,79,53.81,90.58A8,8,0,0,0,50.87,90a8,8,0,0,0-8,7.72,8,8,0,0,0,15.81,1.59c20.78-10.8,41.43-7.25,59.62,8.53a80.86,80.86,0,0,0-6,9.42c-12.93,28.24-5.78,51.49,12.61,71.24,19.83-22.81,25.7-48.21,8.16-77.25-.17-.29-6.24,7.79-6,8.18,10.48,19.52,7.92,37.64-2.13,54.15-15.42-17.94-11.07-48.36,6.66-65.74,18.19-15.78,38.84-19.33,59.62-8.53a8,8,0,0,0,15.81-1.59A8,8,0,0,0,199.13,90Z"/><path class="cls-1" d="M191.87,70a8,8,0,0,0-14.19-5A81.22,81.22,0,0,0,125,76.28l0,0v0A81.22,81.22,0,0,0,72.32,65a8,8,0,1,0-11,11.3l-.15.23.34-.09A8,8,0,0,0,72.9,74.08,69.72,69.72,0,0,1,125,87.37a69.72,69.72,0,0,1,52.1-13.29,8,8,0,0,0,11.44,2.35l.34.09-.15-.23A7.94,7.94,0,0,0,191.87,70Z"/><path class="cls-1" d="M157,40a8,8,0,0,0-7,4.12,83.34,83.34,0,0,0-25,10.06v.06l0-.06a83.08,83.08,0,0,0-25-10.06,8,8,0,1,0-.89,9,70.86,70.86,0,0,1,26,12.17h0A70.68,70.68,0,0,1,151,53.11,8,8,0,1,0,157,40Z"/><circle class="cls-2" cx="125" cy="32.6" r="10.35"/><path class="cls-1" d="M29.44,227.44V207.77h9a7.72,7.72,0,0,1,5.73,2,6.06,6.06,0,0,1,1.69,4.49v.06a6.3,6.3,0,0,1-1.12,3.83,6.51,6.51,0,0,1-3.09,2.26l4.8,7H41.37l-4.21-6.3h-3.4v6.3Zm4.32-10.11h4.39a3.58,3.58,0,0,0,2.44-.76,2.54,2.54,0,0,0,.88-2v0a2.51,2.51,0,0,0-.9-2.09,3.9,3.9,0,0,0-2.5-.72H33.76v5.65Zm21.45,10.11V207.77H70v3.85H59.5v4h9.27v3.83H59.5v4.13H70.18v3.86Zm28.75.27a8,8,0,0,1-6.43-3l2.72-3A7.14,7.14,0,0,0,82,223.21a3.61,3.61,0,0,0,1.84.5,2.42,2.42,0,0,0,2-.81,3.63,3.63,0,0,0,.7-2.46V207.77h4.44v12.86a7.14,7.14,0,0,1-1.86,5.26A6.94,6.94,0,0,1,84,227.71Zm25,0a8.47,8.47,0,0,1-6.27-2.23q-2.24-2.22-2.23-6.51V207.77h4.32v11.12a5.26,5.26,0,0,0,1.11,3.62,4,4,0,0,0,3.13,1.25,4,4,0,0,0,3.13-1.21A5,5,0,0,0,113.3,219V207.77h4.33v11.09q0,4.38-2.28,6.63a8.63,8.63,0,0,1-6.35,2.26Zm24.77-.18-8-19.8h4.77l5.15,13.85,5.14-13.85h4.66l-7.95,19.8Zm20.26-.13V207.77h14.83v3.85H158.32v4h9.27v3.83h-9.27v4.13H169v3.86Z"/><path class="cls-2" d="M176.64,226.86a2.69,2.69,0,0,1-.78-2,2.57,2.57,0,0,1,.78-1.95,2.88,2.88,0,0,1,3.88,0,2.58,2.58,0,0,1,.79,1.95,2.7,2.7,0,0,1-.79,2,2.8,2.8,0,0,1-3.88,0Z"/><path class="cls-2" d="M202.94,223.2h-9.13l-1.74,4.22H187.4l8.77-19.67h4.5l8.79,19.67h-4.78Zm-1.43-3.45-3.12-7.53-3.12,7.53Z"/><path class="cls-2" d="M216,207.75h4.55v19.67H216Z"/></g></svg>