<?xml version="1.0" encoding="UTF-8"?><svg id="Layer_1" xmlns="http://www.w3.org/2000/svg" viewBox="0 0 300 300"><defs><style>.cls-1{fill:#09101d;}</style></defs><g><polygon class="cls-1" points="52.44 238.68 37.77 198.11 28.51 198.11 48.06 250.16 56.81 250.16 76.37 198.11 67.25 198.11 52.44 238.68"/><polygon class="cls-1" points="86.96 250.16 120.17 250.16 120.17 242.65 95.54 242.65 95.54 227.65 118.05 227.65 118.05 220.2 95.54 220.2 95.54 205.63 120.17 205.63 120.17 198.11 86.96 198.11 86.96 250.16"/><path class="cls-1" d="M164.02,223.57c-1.95-1.17-4.16-2.2-6.61-3.08-2.83-.94-5.32-1.77-7.47-2.46-1.98-.69-3.53-1.55-4.6-2.53-.91-.88-1.36-2.16-1.36-3.92,0-2.1,.68-3.68,2.05-4.83,1.5-1.22,3.38-1.81,5.8-1.75,1.91,0,3.49,.36,4.7,1.09,1.25,.73,2.14,1.63,2.74,2.8,.61,1.13,.9,2.24,.9,3.4v1.32h8.88l-.02-1.35c-.05-2.87-.81-5.47-2.24-7.73-1.4-2.28-3.4-4.08-5.96-5.36-2.48-1.27-5.44-1.91-8.79-1.91s-6.39,.64-8.91,1.9c-2.52,1.24-4.51,3.02-5.9,5.28-1.4,2.23-2.09,4.83-2.04,7.69,0,3.48,1.05,6.37,3.12,8.6,1.98,2.08,5,3.83,8.99,5.21,2.02,.71,3.98,1.35,5.84,1.92,1.79,.54,3.37,1.17,4.71,1.88,1.26,.65,2.26,1.5,2.99,2.56,.68,.94,1.02,2.27,1.02,3.95,0,2.02-.75,3.65-2.3,5-1.58,1.38-3.9,2.07-6.89,2.07-2.31,0-4.26-.42-5.76-1.23-1.48-.86-2.62-2-3.39-3.37-.78-1.44-1.18-3.04-1.18-4.73v-1.32h-8.86v1.32c0,3.34,.8,6.33,2.39,8.88s3.86,4.57,6.75,6c2.85,1.4,6.23,2.11,10.04,2.11s7.24-.72,9.86-2.13c2.7-1.43,4.75-3.3,6.1-5.59,1.34-2.31,2.01-4.79,2.01-7.37,0-3.01-.61-5.54-1.8-7.51-1.14-1.98-2.77-3.61-4.84-4.85Z"/><path class="cls-1" d="M212.05,200.16c-2.67-1.36-6.08-2.05-10.13-2.05h-17.56v52.05h8.58v-20.61h8.98c4.1,0,7.53-.69,10.22-2.06,2.72-1.43,4.75-3.37,6.05-5.76,1.28-2.35,1.93-5.01,1.93-7.9s-.67-5.64-2-7.97c-1.3-2.39-3.34-4.31-6.07-5.7Zm-19.11,5.54h8.84c3.56,0,6.07,.72,7.48,2.17,1.44,1.4,2.14,3.35,2.14,5.97s-.7,4.53-2.15,5.98h0c-1.38,1.38-3.89,2.08-7.46,2.08h-8.84v-16.2Z"/><path class="cls-1" d="M259.55,228.36c3.07-1.16,5.42-2.95,6.98-5.32,1.84-2.71,2.77-5.78,2.77-9.14,0-2.89-.65-5.57-1.92-7.96-1.3-2.44-3.31-4.39-5.99-5.78-2.62-1.36-6.01-2.05-10.07-2.05h-17.27v52.05h8.57v-20.4h8.02l10.02,20.4h9.97l-11.08-21.8Zm.97-14.39c0,2.54-.74,4.55-2.25,6.15-1.47,1.55-3.95,2.34-7.37,2.34h-8.27v-16.69h8.2c3.52,0,6.02,.74,7.48,2.24,1.49,1.45,2.21,3.4,2.21,5.97Z"/></g><g><polygon class="cls-1" points="77.6 299.5 70.23 272.59 73.68 272.59 79.48 295.66 86.08 272.59 89.66 272.59 96.07 295.66 101.94 272.59 105.4 272.59 97.87 299.46 94.19 299.46 87.77 277.27 81.21 299.46 77.6 299.5"/><path class="cls-1" d="M118.54,272.59l-9.9,26.87h3.38l2.5-6.91h11.44l2.46,6.91h3.42l-9.87-26.87h-3.42Zm-3.07,17.35l4.76-13.28,4.76,13.28h-9.52Z"/><polygon class="cls-1" points="138.7 299.46 138.7 272.59 141.93 272.59 141.93 296.89 154.44 296.89 154.44 299.46 138.7 299.46"/><polygon class="cls-1" points="162.71 299.46 162.71 272.59 165.93 272.59 165.93 296.89 178.45 296.89 178.45 299.46 162.71 299.46"/><polygon class="cls-1" points="185.76 299.46 185.76 272.59 202.38 272.59 202.38 275.24 188.98 275.24 188.98 284.6 201.23 284.6 201.23 287.22 188.98 287.22 188.98 296.81 202.38 296.81 202.38 299.46 185.76 299.46"/><polygon class="cls-1" points="218.52 299.46 218.52 275.24 210.5 275.24 210.5 272.59 229.77 272.59 229.77 275.24 221.75 275.24 221.75 299.46 218.52 299.46"/></g><polygon class="cls-1" points="226.3 .98 150.02 104.06 150.02 103.65 73.7 .5 9.37 .5 29.21 27.32 48.35 27.32 149.98 161.21 149.98 161.75 251.65 27.8 270.79 27.8 290.63 .98 226.3 .98"/></svg>