<svg width="2841" height="656" viewBox="0 0 2841 656" fill="none" xmlns="http://www.w3.org/2000/svg">
<path fill-rule="evenodd" clip-rule="evenodd" d="M1685.29 193.1C1647.29 200.285 1620.16 213.692 1595.97 237.233C1556.22 275.931 1539.69 333.872 1550.67 396.054C1559.55 446.358 1589.88 487.137 1635.49 510.091C1661.01 522.935 1680.37 527.077 1714.88 527.083C1730.11 527.087 1744.39 526.263 1749.93 525.062C1805.17 513.09 1849.94 476.485 1869.19 427.56L1873.64 416.247L1873.7 377.59L1873.75 338.933H1786.53H1699.31V369.39V399.847H1749.25H1799.2L1798.14 403.362C1794.19 416.453 1779.49 435.109 1766.65 443.309C1753.5 451.709 1741.14 454.953 1721.89 455.048C1701.91 455.148 1691.93 453.091 1676.22 445.639C1661.18 438.507 1648.61 425.967 1641.05 410.559C1626.69 381.318 1627.1 337.222 1641.98 308.767C1648.37 296.532 1663.3 281.626 1674.69 276.076C1698.18 264.641 1731.37 264.209 1752.59 275.061C1760.1 278.903 1775.1 292.659 1776.46 296.943C1777.35 299.737 1779.7 299.885 1823.14 299.885H1868.89L1865.21 289.03C1849.25 241.964 1813.13 209.467 1762.39 196.513C1752.43 193.971 1743.82 193.234 1719.55 192.848C1702.85 192.581 1687.43 192.695 1685.29 193.1ZM661.965 228.803V262.367L730.947 262.775L799.93 263.181L731.059 362.362L662.194 461.543L662.082 493.171L661.965 524.8H778.006H894.042V492.015V459.231L824.112 458.825L754.183 458.419L824.032 358.457L893.875 258.495L893.961 226.866L894.042 195.238H778.006H661.965V228.803ZM948.559 360.019V524.8H1049.8H1151.04V492V459.2H1090.3H1029.55V424.057V388.914H1083.29H1137.02V357.676V326.438H1083.29H1029.55V293.638V260.838H1090.3H1151.04V228.038V195.238H1049.8H948.559V360.019ZM1205.56 360.019V524.8H1246.04H1286.53L1286.93 424.872L1287.33 324.945L1352.9 424.482L1418.48 524.019L1459.21 524.436L1499.94 524.851V360.045V195.238H1459.45H1418.96L1418.56 295.275L1418.17 395.312L1352.75 295.322L1287.33 195.333L1246.44 195.285L1205.56 195.238V360.019ZM1960.3 354.95C1928.66 442.784 1901.84 516.943 1900.69 519.749L1898.61 524.85L1941.75 524.434L1984.89 524.019L1994.33 495.497L2003.76 466.973L2064.32 467.383L2124.89 467.79L2134.49 495.904L2144.1 524.019L2187.45 524.434C2221.9 524.764 2230.64 524.443 2230.04 522.873C2229.63 521.785 2203.19 448.527 2171.28 360.078C2139.37 271.629 2112.92 198.357 2112.5 197.25C2111.89 195.67 2101.65 195.24 2064.78 195.246L2017.83 195.253L1960.3 354.95ZM2250.68 228.038V260.838H2294.3H2337.91V392.819V524.8H2378.41H2418.9V392.819V260.838H2462.52H2506.13V228.038V195.238H2378.41H2250.68V228.038ZM2548.18 360.019V524.8H2649.42H2750.66V492V459.2H2689.92H2629.17V424.057V388.914H2682.91H2736.64V357.676V326.438H2682.91H2629.17V293.638V260.838H2689.92H2750.66V228.038V195.238H2649.42H2548.18V360.019ZM2044.7 345.74L2024.99 404.533H2064.56H2104.14L2084.96 347.914C2074.41 316.774 2065.47 290.318 2065.09 289.121C2064.71 287.926 2055.54 313.404 2044.7 345.74Z" fill="white"/>
<path fill-rule="evenodd" clip-rule="evenodd" d="M544.076 85.1518C472.125 114.247 380.937 126.738 274.84 122.03C186.652 118.116 122.878 106.953 76.6042 87.3308C57.6313 79.2837 55.5939 78.8152 53.0396 81.9003C51.2889 84.0149 51.8683 86.5777 56.865 98.8152C60.1031 106.748 63.8135 114.471 65.1108 115.978C69.0746 120.582 110.159 132.771 144.855 139.638C259.397 162.304 406.417 158.916 510.232 131.217C529.756 126.008 551.948 117.88 554.241 115.097C557.153 111.564 568.665 80.7523 567.86 78.6469C566.793 75.857 567.625 75.6293 544.076 85.1518ZM113.867 148.984C112.14 151.095 122.56 179.819 126.47 183.728C128.929 186.187 136.874 187.615 186.129 194.449L192.359 195.313L192.097 313.731L191.836 432.148L183.081 445.616C170.334 465.226 156.912 494.147 148.146 520.895C139.749 546.518 132.653 576.12 132.019 588.176L131.614 595.866L137.065 595.574C140.064 595.412 156.185 593.85 172.889 592.102C232.087 585.905 254.082 584.993 345.001 584.963C438.571 584.932 462.896 586.132 490.927 592.163C498.904 593.88 508.41 595.683 512.05 596.168C518.063 596.972 518.669 596.746 518.669 593.688C518.669 588.337 489.493 533.251 483.448 527.189C481.366 525.101 469.752 524.794 391.228 524.752C341.816 524.725 296.132 524.021 289.707 523.185C272.44 520.941 261.845 517.406 256.586 512.132C252.321 507.855 252.011 506.798 252.612 498.575C254.222 476.57 278.706 444.691 315.016 417.324C323.317 411.067 340.119 399.571 352.352 391.779C364.586 383.985 375.996 376.332 377.709 374.77C380.82 371.935 380.825 372.026 380.825 442.063C380.825 506.673 381.038 512.41 383.539 514.918C385.821 517.205 388.988 517.606 403.371 517.425C412.783 517.307 421.198 516.769 422.07 516.228C423.131 515.571 423.657 462.241 423.657 355.394V195.544L433.392 194.496C465.315 191.057 497.57 185.289 501.147 182.382C502.453 181.32 503.093 175.99 503.093 166.188C503.093 152.754 502.812 151.392 499.589 149.293C496.514 147.289 494.759 147.289 485.295 149.291C466.726 153.218 411.692 160.606 380.825 163.314C357.072 165.398 339.702 165.748 292.822 165.085C260.697 164.631 227.054 163.491 218.059 162.551C181.612 158.738 150.918 154.268 121.895 148.547C117.45 147.67 114.823 147.812 113.867 148.984ZM483.624 189.867C478.484 191.023 464.817 193.098 453.251 194.48C435.878 196.555 431.751 197.548 429.498 200.193C427.08 203.034 426.776 207.282 426.795 237.973C426.817 273.858 427.349 279.581 430.665 279.581C431.749 279.581 435.685 276.594 439.411 272.943L446.183 266.305L441.649 272.552C439.155 275.988 434.788 281.438 431.944 284.662L426.773 290.524L426.796 309.652C426.81 320.173 427.424 329.735 428.159 330.901C430.662 334.861 436.514 330.938 453.167 314.13C487.432 279.553 501.167 248.964 501.991 205.389L502.315 188.209L497.642 187.988C495.072 187.864 488.764 188.711 483.624 189.867ZM235.192 291.872V385.716L249.939 374.156C258.049 367.797 279.257 352.385 297.066 339.903C314.877 327.424 337.009 311.028 346.25 303.472C372.108 282.328 375.121 280.265 377.16 282.31C378.276 283.43 378.991 291.466 379.097 304.089L379.267 324.095L331.438 360.019C275.867 401.758 255.522 418.737 232.365 442.708C212.981 462.774 203.229 475.865 195.544 492.139C189.764 504.377 185.661 524.294 187.45 531.437C188.887 537.184 195.646 544.73 202.491 548.233C213.061 553.639 225.97 554.46 296.716 554.222L365.249 553.991L320.858 552.757C253.218 550.878 234.767 547.819 221.287 536.249C212.257 528.498 208.792 520.462 208.748 507.178C208.706 494.314 212.953 480.761 220.82 468.656C233.27 449.497 284.04 402.236 344.222 353.783C374.487 329.415 376.658 328.064 379.435 331.87C381.033 334.062 381.261 323.533 380.639 276.23C380.217 244.141 380.474 213.668 381.211 208.514L382.547 199.143L353.332 200.551C326.017 201.87 324.213 202.142 325.603 204.744C326.42 206.276 327.089 214.603 327.089 223.249V238.971H351.177C379.467 238.971 378.488 238.333 378.488 256.83C378.488 276.259 383.678 274.9 309.566 274.872C262.233 274.855 245.921 274.366 242.98 272.879C239.34 271.036 239.057 270.028 238.639 257.452C238.011 238.616 237.477 238.971 266.454 238.971H289.707V222.103C289.707 212.314 290.398 204.541 291.357 203.58C292.517 202.417 285.067 201.591 266.21 200.789C251.474 200.164 238.464 199.287 237.304 198.84C235.541 198.162 235.192 213.54 235.192 291.872ZM126.223 241.241C124.722 243.056 125.415 246.425 129.681 258.031L135.017 272.552H162.131H189.244L189.693 257.063C190.021 245.722 189.604 241.23 188.135 240.296C187.032 239.593 173.073 239.009 157.115 238.995C133.619 238.976 127.745 239.403 126.223 241.241Z" fill="#0474E4"/>
</svg>
